G04*
G04 #@! TF.GenerationSoftware,Altium Limited,Altium Designer,19.1.9 (167)*
G04*
G04 Layer_Physical_Order=3*
G04 Layer_Color=16440176*
%FSLAX25Y25*%
%MOIN*%
G70*
G01*
G75*
%ADD16C,0.01000*%
%ADD78C,0.03000*%
%ADD79R,0.05118X0.05118*%
%ADD82C,0.05512*%
%ADD88C,0.02362*%
G36*
X553630Y254404D02*
X553150Y254323D01*
X552764Y255595D01*
X552138Y256767D01*
X551294Y257794D01*
X550267Y258638D01*
X549095Y259264D01*
X547823Y259650D01*
X546500Y259780D01*
X545177Y259650D01*
X543905Y259264D01*
X542733Y258638D01*
X541706Y257794D01*
X540862Y256767D01*
X540236Y255595D01*
X539850Y254323D01*
X539720Y253000D01*
X539850Y251677D01*
X540236Y250405D01*
X540862Y249233D01*
X541706Y248206D01*
X542733Y247362D01*
X543905Y246736D01*
X545177Y246350D01*
X546500Y246220D01*
X547823Y246350D01*
X549095Y246736D01*
X550267Y247362D01*
X551294Y248206D01*
X552138Y249233D01*
X552764Y250405D01*
X553150Y251677D01*
X553630Y251596D01*
Y142404D01*
X553150Y142323D01*
X552764Y143595D01*
X552138Y144767D01*
X551294Y145794D01*
X550267Y146638D01*
X549095Y147264D01*
X547823Y147650D01*
X546500Y147780D01*
X545177Y147650D01*
X543905Y147264D01*
X542733Y146638D01*
X541706Y145794D01*
X540862Y144767D01*
X540236Y143595D01*
X539850Y142323D01*
X539720Y141000D01*
X539850Y139677D01*
X540236Y138405D01*
X540862Y137233D01*
X541706Y136206D01*
X542733Y135362D01*
X543905Y134736D01*
X545177Y134350D01*
X546500Y134220D01*
X547823Y134350D01*
X549095Y134736D01*
X550267Y135362D01*
X551294Y136206D01*
X552138Y137233D01*
X552764Y138405D01*
X553150Y139677D01*
X553630Y139596D01*
Y115500D01*
X516500D01*
Y2039D01*
X2039D01*
X2039Y115437D01*
X1884Y116217D01*
X1442Y116879D01*
X780Y117321D01*
X-0Y117476D01*
X-16625D01*
X-16752Y117673D01*
X-16843Y117976D01*
X-16558Y118403D01*
X-16439Y119000D01*
X-16558Y119597D01*
X-16896Y120104D01*
X-17403Y120442D01*
X-18000Y120561D01*
X-18597Y120442D01*
X-19104Y120104D01*
X-19442Y119597D01*
X-19561Y119000D01*
X-19442Y118403D01*
X-19157Y117976D01*
X-19248Y117673D01*
X-19375Y117476D01*
X-23933D01*
X-23983Y117466D01*
X-24033Y117474D01*
X-24419Y117455D01*
X-24566Y117418D01*
X-24717D01*
X-25474Y117267D01*
X-25659Y117191D01*
X-25856Y117151D01*
X-26569Y116856D01*
X-26736Y116744D01*
X-26922Y116668D01*
X-27564Y116239D01*
X-27706Y116097D01*
X-27873Y115985D01*
X-28418Y115439D01*
X-28530Y115272D01*
X-28672Y115130D01*
X-29101Y114489D01*
X-29178Y114303D01*
X-29289Y114136D01*
X-29585Y113423D01*
X-29624Y113226D01*
X-29700Y113041D01*
X-29851Y112284D01*
Y112133D01*
X-29888Y111986D01*
X-29907Y111600D01*
X-29899Y111550D01*
X-29909Y111500D01*
Y109602D01*
X-32838D01*
Y121343D01*
X-32848Y121392D01*
X-32841Y121443D01*
X-32860Y121828D01*
X-32896Y121975D01*
Y122126D01*
X-33047Y122883D01*
X-33124Y123069D01*
X-33163Y123266D01*
X-33458Y123979D01*
X-33570Y124146D01*
X-33647Y124331D01*
X-34076Y124973D01*
X-34218Y125115D01*
X-34329Y125282D01*
X-34875Y125828D01*
X-35042Y125939D01*
X-35184Y126081D01*
X-35826Y126510D01*
X-36011Y126587D01*
X-36178Y126699D01*
X-36891Y126994D01*
X-37088Y127033D01*
X-37274Y127110D01*
X-38031Y127260D01*
X-38182D01*
X-38328Y127297D01*
X-38714Y127316D01*
X-38765Y127309D01*
X-38814Y127319D01*
X-56461D01*
Y183969D01*
X-43580D01*
X-43312Y183469D01*
X-43442Y183275D01*
X-43561Y182677D01*
X-43442Y182080D01*
X-43104Y181573D01*
X-42597Y181235D01*
X-42000Y181116D01*
X-41403Y181235D01*
X-40896Y181573D01*
X-40558Y182080D01*
X-40439Y182677D01*
X-40558Y183275D01*
X-40688Y183469D01*
X-40420Y183969D01*
X-38028D01*
X-37961Y183982D01*
X-37894Y183973D01*
X-37278Y184013D01*
X-37084Y184065D01*
X-36883Y184079D01*
X-35692Y184398D01*
X-35453Y184516D01*
X-35200Y184602D01*
X-34132Y185218D01*
X-33931Y185394D01*
X-33710Y185542D01*
X-32838Y186414D01*
X-32689Y186636D01*
X-32513Y186837D01*
X-31897Y187905D01*
X-31811Y188157D01*
X-31693Y188397D01*
X-31374Y189588D01*
X-31356Y189854D01*
X-31304Y190116D01*
Y191349D01*
X-31356Y191611D01*
X-31374Y191877D01*
X-31693Y193068D01*
X-31811Y193307D01*
X-31897Y193560D01*
X-32513Y194628D01*
X-32689Y194828D01*
X-32838Y195050D01*
X-33710Y195922D01*
X-33931Y196071D01*
X-34132Y196246D01*
X-35200Y196863D01*
X-35453Y196949D01*
X-35692Y197067D01*
X-36883Y197386D01*
X-37084Y197399D01*
X-37278Y197451D01*
X-37894Y197492D01*
X-37961Y197483D01*
X-38028Y197496D01*
X-56461D01*
Y266744D01*
X-38814D01*
X-38765Y266754D01*
X-38714Y266747D01*
X-38328Y266766D01*
X-38182Y266803D01*
X-38031D01*
X-37274Y266953D01*
X-37088Y267030D01*
X-36891Y267069D01*
X-36178Y267364D01*
X-36011Y267476D01*
X-35826Y267553D01*
X-35184Y267982D01*
X-35042Y268124D01*
X-34875Y268235D01*
X-34329Y268781D01*
X-34218Y268948D01*
X-34076Y269090D01*
X-33647Y269732D01*
X-33570Y269917D01*
X-33458Y270084D01*
X-33163Y270797D01*
X-33124Y270994D01*
X-33047Y271180D01*
X-32896Y271937D01*
Y272088D01*
X-32860Y272235D01*
X-32841Y272620D01*
X-32848Y272671D01*
X-32838Y272721D01*
Y284461D01*
X-29909D01*
Y282563D01*
X-29899Y282513D01*
X-29907Y282463D01*
X-29888Y282077D01*
X-29851Y281930D01*
Y281779D01*
X-29700Y281022D01*
X-29624Y280837D01*
X-29585Y280640D01*
X-29289Y279927D01*
X-29177Y279760D01*
X-29101Y279574D01*
X-28672Y278932D01*
X-28530Y278790D01*
X-28418Y278624D01*
X-27873Y278078D01*
X-27706Y277966D01*
X-27564Y277824D01*
X-26922Y277395D01*
X-26736Y277319D01*
X-26569Y277207D01*
X-25856Y276912D01*
X-25659Y276872D01*
X-25474Y276796D01*
X-24717Y276645D01*
X-24566D01*
X-24419Y276608D01*
X-24033Y276589D01*
X-23983Y276597D01*
X-23933Y276587D01*
X-0D01*
X780Y276742D01*
X1442Y277184D01*
X2106D01*
X59261D01*
X59800Y276645D01*
X119900Y336745D01*
Y377824D01*
X395808D01*
X423514Y350119D01*
Y347100D01*
Y279200D01*
Y253700D01*
Y228000D01*
Y223600D01*
X423534Y223500D01*
X423514Y223400D01*
Y202100D01*
Y171000D01*
Y145100D01*
X423614Y144597D01*
Y120100D01*
Y94500D01*
X423757Y93778D01*
X424166Y93166D01*
X424778Y92757D01*
X425500Y92614D01*
X426222Y92757D01*
X426834Y93166D01*
X427243Y93778D01*
X427386Y94500D01*
Y120100D01*
Y145100D01*
X427286Y145603D01*
Y171000D01*
Y202100D01*
Y222997D01*
X427386Y223500D01*
X427286Y224003D01*
Y228000D01*
Y253700D01*
Y279200D01*
Y346133D01*
X456638D01*
X456796Y345896D01*
X457303Y345558D01*
X457900Y345439D01*
X458497Y345558D01*
X459004Y345896D01*
X459342Y346403D01*
X459461Y347000D01*
X459342Y347597D01*
X459004Y348104D01*
X458497Y348442D01*
X457900Y348561D01*
X457303Y348442D01*
X456796Y348104D01*
X456638Y347867D01*
X427286D01*
Y350900D01*
X427143Y351622D01*
X426734Y352234D01*
X397923Y381044D01*
X397311Y381453D01*
X396589Y381597D01*
X119900D01*
Y391662D01*
X553630D01*
Y254404D01*
D02*
G37*
%LPC*%
G36*
X543307Y379124D02*
X541926Y378988D01*
X540599Y378586D01*
X539375Y377931D01*
X538303Y377051D01*
X537423Y375979D01*
X536769Y374756D01*
X536366Y373428D01*
X536230Y372047D01*
X536366Y370667D01*
X536769Y369339D01*
X537423Y368115D01*
X538303Y367043D01*
X539375Y366163D01*
X540599Y365509D01*
X541926Y365106D01*
X543307Y364970D01*
X544688Y365106D01*
X546015Y365509D01*
X547239Y366163D01*
X548311Y367043D01*
X549191Y368115D01*
X549845Y369339D01*
X550248Y370667D01*
X550384Y372047D01*
X550248Y373428D01*
X549845Y374756D01*
X549191Y375979D01*
X548311Y377051D01*
X547239Y377931D01*
X546015Y378586D01*
X544688Y378988D01*
X543307Y379124D01*
D02*
G37*
G36*
X445000Y366300D02*
X444518Y366204D01*
X444109Y365931D01*
X443836Y365522D01*
X443740Y365040D01*
X443836Y364558D01*
X444109Y364149D01*
X444518Y363876D01*
X445000Y363780D01*
X445482Y363876D01*
X445891Y364149D01*
X446164Y364558D01*
X446260Y365040D01*
X446164Y365522D01*
X445891Y365931D01*
X445482Y366204D01*
X445000Y366300D01*
D02*
G37*
G36*
X488000Y366260D02*
X487518Y366164D01*
X487109Y365891D01*
X486836Y365482D01*
X486740Y365000D01*
X486836Y364518D01*
X487109Y364109D01*
X487518Y363836D01*
X488000Y363740D01*
X488482Y363836D01*
X488891Y364109D01*
X489164Y364518D01*
X489260Y365000D01*
X489164Y365482D01*
X488891Y365891D01*
X488482Y366164D01*
X488000Y366260D01*
D02*
G37*
G36*
X473000D02*
X472518Y366164D01*
X472109Y365891D01*
X471836Y365482D01*
X471740Y365000D01*
X471836Y364518D01*
X472109Y364109D01*
X472518Y363836D01*
X473000Y363740D01*
X473482Y363836D01*
X473891Y364109D01*
X474164Y364518D01*
X474260Y365000D01*
X474164Y365482D01*
X473891Y365891D01*
X473482Y366164D01*
X473000Y366260D01*
D02*
G37*
G36*
X461200Y357911D02*
X460603Y357793D01*
X460096Y357454D01*
X459758Y356948D01*
X459639Y356350D01*
X459758Y355753D01*
X460096Y355246D01*
X460603Y354908D01*
X461200Y354789D01*
X461797Y354908D01*
X462304Y355246D01*
X462642Y355753D01*
X462761Y356350D01*
X462642Y356948D01*
X462304Y357454D01*
X461797Y357793D01*
X461200Y357911D01*
D02*
G37*
G36*
X260000Y351061D02*
X259403Y350942D01*
X258896Y350604D01*
X258558Y350097D01*
X258439Y349500D01*
X258558Y348903D01*
X258896Y348396D01*
X259403Y348058D01*
X260000Y347939D01*
X260597Y348058D01*
X261104Y348396D01*
X261442Y348903D01*
X261561Y349500D01*
X261442Y350097D01*
X261104Y350604D01*
X260597Y350942D01*
X260000Y351061D01*
D02*
G37*
G36*
X198500Y348561D02*
X197903Y348442D01*
X197396Y348104D01*
X197058Y347597D01*
X196939Y347000D01*
X197058Y346403D01*
X197396Y345896D01*
X197903Y345558D01*
X198500Y345439D01*
X199097Y345558D01*
X199604Y345896D01*
X199942Y346403D01*
X200061Y347000D01*
X199942Y347597D01*
X199604Y348104D01*
X199097Y348442D01*
X198500Y348561D01*
D02*
G37*
G36*
X485000Y346061D02*
X484403Y345942D01*
X483896Y345604D01*
X483558Y345097D01*
X483439Y344500D01*
X483558Y343903D01*
X483896Y343396D01*
X484403Y343058D01*
X485000Y342939D01*
X485597Y343058D01*
X486104Y343396D01*
X486442Y343903D01*
X486561Y344500D01*
X486442Y345097D01*
X486104Y345604D01*
X485597Y345942D01*
X485000Y346061D01*
D02*
G37*
G36*
X225000D02*
X224403Y345942D01*
X223896Y345604D01*
X223558Y345097D01*
X223439Y344500D01*
X223558Y343903D01*
X223896Y343396D01*
X224403Y343058D01*
X225000Y342939D01*
X225597Y343058D01*
X226104Y343396D01*
X226442Y343903D01*
X226561Y344500D01*
X226442Y345097D01*
X226104Y345604D01*
X225597Y345942D01*
X225000Y346061D01*
D02*
G37*
G36*
X206000D02*
X205403Y345942D01*
X204896Y345604D01*
X204558Y345097D01*
X204439Y344500D01*
X204558Y343903D01*
X204896Y343396D01*
X205403Y343058D01*
X206000Y342939D01*
X206597Y343058D01*
X207104Y343396D01*
X207442Y343903D01*
X207561Y344500D01*
X207442Y345097D01*
X207104Y345604D01*
X206597Y345942D01*
X206000Y346061D01*
D02*
G37*
G36*
X265600Y342861D02*
X265003Y342742D01*
X264496Y342404D01*
X264158Y341897D01*
X264039Y341300D01*
X264158Y340703D01*
X264496Y340196D01*
X265003Y339858D01*
X265600Y339739D01*
X266197Y339858D01*
X266704Y340196D01*
X267042Y340703D01*
X267161Y341300D01*
X267042Y341897D01*
X266704Y342404D01*
X266197Y342742D01*
X265600Y342861D01*
D02*
G37*
G36*
X217815Y340801D02*
X217294Y340698D01*
X216853Y340403D01*
X216558Y339962D01*
X216455Y339441D01*
X216558Y338920D01*
X216853Y338479D01*
X217294Y338184D01*
X217815Y338081D01*
X218336Y338184D01*
X218777Y338479D01*
X219072Y338920D01*
X219175Y339441D01*
X219072Y339962D01*
X218777Y340403D01*
X218336Y340698D01*
X217815Y340801D01*
D02*
G37*
G36*
X213484D02*
X212964Y340698D01*
X212522Y340403D01*
X212227Y339962D01*
X212124Y339441D01*
X212227Y338920D01*
X212522Y338479D01*
X212964Y338184D01*
X213484Y338081D01*
X214005Y338184D01*
X214446Y338479D01*
X214741Y338920D01*
X214845Y339441D01*
X214741Y339962D01*
X214446Y340403D01*
X214005Y340698D01*
X213484Y340801D01*
D02*
G37*
G36*
X195000Y340061D02*
X194403Y339942D01*
X193896Y339604D01*
X193558Y339097D01*
X193439Y338500D01*
X193558Y337903D01*
X193896Y337396D01*
X194403Y337058D01*
X195000Y336939D01*
X195597Y337058D01*
X196104Y337396D01*
X196442Y337903D01*
X196561Y338500D01*
X196442Y339097D01*
X196104Y339604D01*
X195597Y339942D01*
X195000Y340061D01*
D02*
G37*
G36*
X202425Y339986D02*
X201828Y339867D01*
X201321Y339529D01*
X200983Y339023D01*
X200864Y338425D01*
X200983Y337828D01*
X201321Y337321D01*
X201828Y336983D01*
X202425Y336864D01*
X203023Y336983D01*
X203529Y337321D01*
X203867Y337828D01*
X203986Y338425D01*
X203867Y339023D01*
X203529Y339529D01*
X203023Y339867D01*
X202425Y339986D01*
D02*
G37*
G36*
X266900Y337661D02*
X266303Y337542D01*
X265796Y337204D01*
X265458Y336697D01*
X265339Y336100D01*
X265458Y335503D01*
X265796Y334996D01*
X266303Y334658D01*
X266900Y334539D01*
X267497Y334658D01*
X268004Y334996D01*
X268342Y335503D01*
X268461Y336100D01*
X268342Y336697D01*
X268004Y337204D01*
X267497Y337542D01*
X266900Y337661D01*
D02*
G37*
G36*
X217815Y336471D02*
X217294Y336367D01*
X216853Y336072D01*
X216558Y335631D01*
X216455Y335110D01*
X216558Y334590D01*
X216853Y334148D01*
X217294Y333853D01*
X217815Y333750D01*
X218336Y333853D01*
X218777Y334148D01*
X219072Y334590D01*
X219175Y335110D01*
X219072Y335631D01*
X218777Y336072D01*
X218336Y336367D01*
X217815Y336471D01*
D02*
G37*
G36*
X213484D02*
X212964Y336367D01*
X212522Y336072D01*
X212227Y335631D01*
X212124Y335110D01*
X212227Y334590D01*
X212522Y334148D01*
X212964Y333853D01*
X213484Y333750D01*
X214005Y333853D01*
X214446Y334148D01*
X214741Y334590D01*
X214845Y335110D01*
X214741Y335631D01*
X214446Y336072D01*
X214005Y336367D01*
X213484Y336471D01*
D02*
G37*
G36*
X260000Y334061D02*
X259403Y333942D01*
X258896Y333604D01*
X258558Y333097D01*
X258439Y332500D01*
X258558Y331903D01*
X258896Y331396D01*
X259403Y331058D01*
X260000Y330939D01*
X260597Y331058D01*
X261104Y331396D01*
X261442Y331903D01*
X261561Y332500D01*
X261442Y333097D01*
X261104Y333604D01*
X260597Y333942D01*
X260000Y334061D01*
D02*
G37*
G36*
X217815Y332140D02*
X217294Y332036D01*
X216853Y331741D01*
X216558Y331300D01*
X216455Y330780D01*
X216558Y330259D01*
X216853Y329818D01*
X217294Y329523D01*
X217815Y329419D01*
X218336Y329523D01*
X218777Y329818D01*
X219072Y330259D01*
X219175Y330780D01*
X219072Y331300D01*
X218777Y331741D01*
X218336Y332036D01*
X217815Y332140D01*
D02*
G37*
G36*
X213484D02*
X212964Y332036D01*
X212522Y331741D01*
X212227Y331300D01*
X212124Y330780D01*
X212227Y330259D01*
X212522Y329818D01*
X212964Y329523D01*
X213484Y329419D01*
X214005Y329523D01*
X214446Y329818D01*
X214741Y330259D01*
X214845Y330780D01*
X214741Y331300D01*
X214446Y331741D01*
X214005Y332036D01*
X213484Y332140D01*
D02*
G37*
G36*
X238000Y330561D02*
X237403Y330442D01*
X236896Y330104D01*
X236558Y329597D01*
X236439Y329000D01*
X236558Y328403D01*
X236896Y327896D01*
X237403Y327558D01*
X238000Y327439D01*
X238597Y327558D01*
X239104Y327896D01*
X239442Y328403D01*
X239561Y329000D01*
X239442Y329597D01*
X239104Y330104D01*
X238597Y330442D01*
X238000Y330561D01*
D02*
G37*
G36*
X225000Y327561D02*
X224403Y327442D01*
X223896Y327104D01*
X223558Y326597D01*
X223439Y326000D01*
X223558Y325403D01*
X223896Y324896D01*
X224403Y324558D01*
X225000Y324439D01*
X225597Y324558D01*
X226104Y324896D01*
X226442Y325403D01*
X226561Y326000D01*
X226442Y326597D01*
X226104Y327104D01*
X225597Y327442D01*
X225000Y327561D01*
D02*
G37*
G36*
X458000Y323961D02*
X457403Y323842D01*
X456896Y323504D01*
X456558Y322997D01*
X456439Y322400D01*
X456558Y321803D01*
X456896Y321296D01*
X457403Y320958D01*
X458000Y320839D01*
X458597Y320958D01*
X459104Y321296D01*
X459442Y321803D01*
X459561Y322400D01*
X459442Y322997D01*
X459104Y323504D01*
X458597Y323842D01*
X458000Y323961D01*
D02*
G37*
G36*
X228500Y321561D02*
X227903Y321442D01*
X227396Y321104D01*
X227058Y320597D01*
X226939Y320000D01*
X227058Y319403D01*
X227396Y318896D01*
X227903Y318558D01*
X228500Y318439D01*
X229097Y318558D01*
X229604Y318896D01*
X229942Y319403D01*
X230061Y320000D01*
X229942Y320597D01*
X229604Y321104D01*
X229097Y321442D01*
X228500Y321561D01*
D02*
G37*
G36*
X140900Y318361D02*
X140303Y318242D01*
X139796Y317904D01*
X139458Y317397D01*
X139339Y316800D01*
X139458Y316203D01*
X139796Y315696D01*
X140303Y315358D01*
X140900Y315239D01*
X141497Y315358D01*
X142004Y315696D01*
X142105Y315848D01*
X142140Y315860D01*
X142684Y315814D01*
X142896Y315496D01*
X143403Y315158D01*
X144000Y315039D01*
X144597Y315158D01*
X145104Y315496D01*
X145442Y316003D01*
X145561Y316600D01*
X145442Y317197D01*
X145104Y317704D01*
X144597Y318042D01*
X144000Y318161D01*
X143403Y318042D01*
X142896Y317704D01*
X142795Y317552D01*
X142760Y317540D01*
X142216Y317586D01*
X142004Y317904D01*
X141497Y318242D01*
X140900Y318361D01*
D02*
G37*
G36*
X224000Y317561D02*
X223403Y317442D01*
X222896Y317104D01*
X222558Y316597D01*
X222439Y316000D01*
X222558Y315403D01*
X222896Y314896D01*
X223403Y314558D01*
X224000Y314439D01*
X224597Y314558D01*
X225104Y314896D01*
X225442Y315403D01*
X225561Y316000D01*
X225442Y316597D01*
X225104Y317104D01*
X224597Y317442D01*
X224000Y317561D01*
D02*
G37*
G36*
X197500Y314061D02*
X196903Y313942D01*
X196396Y313604D01*
X196058Y313097D01*
X195939Y312500D01*
X196058Y311903D01*
X196396Y311396D01*
X196903Y311058D01*
X197500Y310939D01*
X198097Y311058D01*
X198604Y311396D01*
X198942Y311903D01*
X199061Y312500D01*
X198942Y313097D01*
X198604Y313604D01*
X198097Y313942D01*
X197500Y314061D01*
D02*
G37*
G36*
X143200Y308661D02*
X142603Y308542D01*
X142096Y308204D01*
X141758Y307697D01*
X141639Y307100D01*
X141758Y306503D01*
X142096Y305996D01*
X142603Y305658D01*
X143200Y305539D01*
X143797Y305658D01*
X144304Y305996D01*
X144642Y306503D01*
X144761Y307100D01*
X144642Y307697D01*
X144304Y308204D01*
X143797Y308542D01*
X143200Y308661D01*
D02*
G37*
G36*
X163000Y308561D02*
X162403Y308442D01*
X161896Y308104D01*
X161558Y307597D01*
X161439Y307000D01*
X161558Y306403D01*
X161896Y305896D01*
X162403Y305558D01*
X163000Y305439D01*
X163597Y305558D01*
X164104Y305896D01*
X164442Y306403D01*
X164561Y307000D01*
X164442Y307597D01*
X164104Y308104D01*
X163597Y308442D01*
X163000Y308561D01*
D02*
G37*
G36*
X139500D02*
X138903Y308442D01*
X138396Y308104D01*
X138058Y307597D01*
X137939Y307000D01*
X138058Y306403D01*
X138396Y305896D01*
X138903Y305558D01*
X139500Y305439D01*
X140097Y305558D01*
X140604Y305896D01*
X140942Y306403D01*
X141061Y307000D01*
X140942Y307597D01*
X140604Y308104D01*
X140097Y308442D01*
X139500Y308561D01*
D02*
G37*
G36*
X258000Y306061D02*
X257403Y305942D01*
X256896Y305604D01*
X256558Y305097D01*
X256439Y304500D01*
X256558Y303903D01*
X256896Y303396D01*
X257403Y303058D01*
X258000Y302939D01*
X258597Y303058D01*
X259104Y303396D01*
X259442Y303903D01*
X259561Y304500D01*
X259442Y305097D01*
X259104Y305604D01*
X258597Y305942D01*
X258000Y306061D01*
D02*
G37*
G36*
X462400Y303761D02*
X461803Y303642D01*
X461296Y303304D01*
X460958Y302797D01*
X460839Y302200D01*
X460958Y301603D01*
X461296Y301096D01*
X461803Y300758D01*
X462400Y300639D01*
X462997Y300758D01*
X463504Y301096D01*
X463842Y301603D01*
X463961Y302200D01*
X463842Y302797D01*
X463504Y303304D01*
X462997Y303642D01*
X462400Y303761D01*
D02*
G37*
G36*
X155815Y303301D02*
X155294Y303198D01*
X154853Y302903D01*
X154558Y302462D01*
X154455Y301941D01*
X154558Y301420D01*
X154853Y300979D01*
X155294Y300684D01*
X155815Y300581D01*
X156336Y300684D01*
X156777Y300979D01*
X157072Y301420D01*
X157175Y301941D01*
X157072Y302462D01*
X156777Y302903D01*
X156336Y303198D01*
X155815Y303301D01*
D02*
G37*
G36*
X151484D02*
X150964Y303198D01*
X150522Y302903D01*
X150227Y302462D01*
X150124Y301941D01*
X150227Y301420D01*
X150522Y300979D01*
X150964Y300684D01*
X151484Y300581D01*
X152005Y300684D01*
X152446Y300979D01*
X152741Y301420D01*
X152845Y301941D01*
X152741Y302462D01*
X152446Y302903D01*
X152005Y303198D01*
X151484Y303301D01*
D02*
G37*
G36*
X466800Y303261D02*
X466203Y303142D01*
X465696Y302804D01*
X465358Y302297D01*
X465239Y301700D01*
X465358Y301103D01*
X465696Y300596D01*
X466203Y300258D01*
X466800Y300139D01*
X467397Y300258D01*
X467904Y300596D01*
X468242Y301103D01*
X468361Y301700D01*
X468242Y302297D01*
X467904Y302804D01*
X467397Y303142D01*
X466800Y303261D01*
D02*
G37*
G36*
X140000Y302561D02*
X139403Y302442D01*
X138896Y302104D01*
X138558Y301597D01*
X138439Y301000D01*
X138558Y300403D01*
X138896Y299896D01*
X139403Y299558D01*
X140000Y299439D01*
X140597Y299558D01*
X141104Y299896D01*
X141442Y300403D01*
X141561Y301000D01*
X141442Y301597D01*
X141104Y302104D01*
X140597Y302442D01*
X140000Y302561D01*
D02*
G37*
G36*
X403000Y302061D02*
X402403Y301942D01*
X401896Y301604D01*
X401558Y301097D01*
X401439Y300500D01*
X401558Y299903D01*
X401896Y299396D01*
X402403Y299058D01*
X403000Y298939D01*
X403597Y299058D01*
X404104Y299396D01*
X404442Y299903D01*
X404561Y300500D01*
X404442Y301097D01*
X404104Y301604D01*
X403597Y301942D01*
X403000Y302061D01*
D02*
G37*
G36*
X133000D02*
X132403Y301942D01*
X131896Y301604D01*
X131558Y301097D01*
X131439Y300500D01*
X131558Y299903D01*
X131896Y299396D01*
X132403Y299058D01*
X133000Y298939D01*
X133597Y299058D01*
X134104Y299396D01*
X134442Y299903D01*
X134561Y300500D01*
X134442Y301097D01*
X134104Y301604D01*
X133597Y301942D01*
X133000Y302061D01*
D02*
G37*
G36*
X260800Y300261D02*
X260203Y300142D01*
X259696Y299804D01*
X259358Y299297D01*
X259239Y298700D01*
X259358Y298103D01*
X259696Y297596D01*
X260203Y297258D01*
X260800Y297139D01*
X261397Y297258D01*
X261904Y297596D01*
X262242Y298103D01*
X262361Y298700D01*
X262242Y299297D01*
X261904Y299804D01*
X261397Y300142D01*
X260800Y300261D01*
D02*
G37*
G36*
X155815Y298971D02*
X155294Y298867D01*
X154853Y298572D01*
X154558Y298131D01*
X154455Y297610D01*
X154558Y297090D01*
X154853Y296648D01*
X155294Y296353D01*
X155815Y296250D01*
X156336Y296353D01*
X156777Y296648D01*
X157072Y297090D01*
X157175Y297610D01*
X157072Y298131D01*
X156777Y298572D01*
X156336Y298867D01*
X155815Y298971D01*
D02*
G37*
G36*
X151484D02*
X150964Y298867D01*
X150522Y298572D01*
X150227Y298131D01*
X150124Y297610D01*
X150227Y297090D01*
X150522Y296648D01*
X150964Y296353D01*
X151484Y296250D01*
X152005Y296353D01*
X152446Y296648D01*
X152741Y297090D01*
X152845Y297610D01*
X152741Y298131D01*
X152446Y298572D01*
X152005Y298867D01*
X151484Y298971D01*
D02*
G37*
G36*
X197500Y296061D02*
X196903Y295942D01*
X196396Y295604D01*
X196058Y295097D01*
X195939Y294500D01*
X196058Y293903D01*
X196396Y293396D01*
X196903Y293058D01*
X197500Y292939D01*
X198097Y293058D01*
X198604Y293396D01*
X198942Y293903D01*
X199061Y294500D01*
X198942Y295097D01*
X198604Y295604D01*
X198097Y295942D01*
X197500Y296061D01*
D02*
G37*
G36*
X155815Y294640D02*
X155294Y294536D01*
X154853Y294241D01*
X154558Y293800D01*
X154455Y293280D01*
X154558Y292759D01*
X154853Y292318D01*
X155294Y292023D01*
X155815Y291919D01*
X156336Y292023D01*
X156777Y292318D01*
X157072Y292759D01*
X157175Y293280D01*
X157072Y293800D01*
X156777Y294241D01*
X156336Y294536D01*
X155815Y294640D01*
D02*
G37*
G36*
X151484D02*
X150964Y294536D01*
X150522Y294241D01*
X150227Y293800D01*
X150124Y293280D01*
X150227Y292759D01*
X150522Y292318D01*
X150964Y292023D01*
X151484Y291919D01*
X152005Y292023D01*
X152446Y292318D01*
X152741Y292759D01*
X152845Y293280D01*
X152741Y293800D01*
X152446Y294241D01*
X152005Y294536D01*
X151484Y294640D01*
D02*
G37*
G36*
X176000Y293061D02*
X175403Y292942D01*
X174896Y292604D01*
X174558Y292097D01*
X174439Y291500D01*
X174558Y290903D01*
X174896Y290396D01*
X175403Y290058D01*
X176000Y289939D01*
X176597Y290058D01*
X177104Y290396D01*
X177442Y290903D01*
X177561Y291500D01*
X177442Y292097D01*
X177104Y292604D01*
X176597Y292942D01*
X176000Y293061D01*
D02*
G37*
G36*
X542200Y292561D02*
X541603Y292442D01*
X541096Y292104D01*
X540758Y291597D01*
X540639Y291000D01*
X540758Y290403D01*
X541096Y289896D01*
X541603Y289558D01*
X542200Y289439D01*
X542797Y289558D01*
X543304Y289896D01*
X543642Y290403D01*
X543761Y291000D01*
X543642Y291597D01*
X543304Y292104D01*
X542797Y292442D01*
X542200Y292561D01*
D02*
G37*
G36*
X338500D02*
X337903Y292442D01*
X337396Y292104D01*
X337058Y291597D01*
X336939Y291000D01*
X337058Y290403D01*
X337396Y289896D01*
X337903Y289558D01*
X338500Y289439D01*
X339097Y289558D01*
X339604Y289896D01*
X339942Y290403D01*
X340061Y291000D01*
X339942Y291597D01*
X339604Y292104D01*
X339097Y292442D01*
X338500Y292561D01*
D02*
G37*
G36*
X293500Y291561D02*
X292903Y291442D01*
X292396Y291104D01*
X292058Y290597D01*
X291939Y290000D01*
X292058Y289403D01*
X292396Y288896D01*
X292903Y288558D01*
X293500Y288439D01*
X294097Y288558D01*
X294604Y288896D01*
X294942Y289403D01*
X295061Y290000D01*
X294942Y290597D01*
X294604Y291104D01*
X294097Y291442D01*
X293500Y291561D01*
D02*
G37*
G36*
X430100Y291112D02*
X429503Y290993D01*
X428996Y290655D01*
X428658Y290149D01*
X428539Y289551D01*
X428658Y288954D01*
X428996Y288447D01*
X429503Y288109D01*
X430100Y287990D01*
X430697Y288109D01*
X431204Y288447D01*
X431542Y288954D01*
X431661Y289551D01*
X431542Y290149D01*
X431204Y290655D01*
X430697Y290993D01*
X430100Y291112D01*
D02*
G37*
G36*
X163000Y290061D02*
X162403Y289942D01*
X161896Y289604D01*
X161558Y289097D01*
X161439Y288500D01*
X161558Y287903D01*
X161896Y287396D01*
X162403Y287058D01*
X163000Y286939D01*
X163597Y287058D01*
X164104Y287396D01*
X164442Y287903D01*
X164561Y288500D01*
X164442Y289097D01*
X164104Y289604D01*
X163597Y289942D01*
X163000Y290061D01*
D02*
G37*
G36*
X337500Y289061D02*
X336903Y288942D01*
X336396Y288604D01*
X336058Y288097D01*
X335939Y287500D01*
X336058Y286903D01*
X336396Y286396D01*
X336903Y286058D01*
X337500Y285939D01*
X338097Y286058D01*
X338604Y286396D01*
X338942Y286903D01*
X339061Y287500D01*
X338942Y288097D01*
X338604Y288604D01*
X338097Y288942D01*
X337500Y289061D01*
D02*
G37*
G36*
X261000Y286561D02*
X260403Y286442D01*
X259896Y286104D01*
X259558Y285597D01*
X259439Y285000D01*
X259558Y284403D01*
X259896Y283896D01*
X260403Y283558D01*
X261000Y283439D01*
X261597Y283558D01*
X262104Y283896D01*
X262442Y284403D01*
X262561Y285000D01*
X262442Y285597D01*
X262104Y286104D01*
X261597Y286442D01*
X261000Y286561D01*
D02*
G37*
G36*
X166500Y284061D02*
X165903Y283942D01*
X165396Y283604D01*
X165058Y283097D01*
X164939Y282500D01*
X165058Y281903D01*
X165396Y281396D01*
X165903Y281058D01*
X166500Y280939D01*
X167097Y281058D01*
X167604Y281396D01*
X167942Y281903D01*
X168061Y282500D01*
X167942Y283097D01*
X167604Y283604D01*
X167097Y283942D01*
X166500Y284061D01*
D02*
G37*
G36*
X338500Y282561D02*
X337903Y282442D01*
X337396Y282104D01*
X337058Y281597D01*
X336939Y281000D01*
X337058Y280403D01*
X337396Y279896D01*
X337903Y279558D01*
X338500Y279439D01*
X339097Y279558D01*
X339604Y279896D01*
X339942Y280403D01*
X340061Y281000D01*
X339942Y281597D01*
X339604Y282104D01*
X339097Y282442D01*
X338500Y282561D01*
D02*
G37*
G36*
X203000D02*
X202403Y282442D01*
X201896Y282104D01*
X201558Y281597D01*
X201439Y281000D01*
X201558Y280403D01*
X201896Y279896D01*
X202403Y279558D01*
X203000Y279439D01*
X203597Y279558D01*
X204104Y279896D01*
X204442Y280403D01*
X204561Y281000D01*
X204442Y281597D01*
X204104Y282104D01*
X203597Y282442D01*
X203000Y282561D01*
D02*
G37*
G36*
X293209Y281561D02*
X292611Y281442D01*
X292105Y281104D01*
X291766Y280597D01*
X291648Y280000D01*
X291766Y279403D01*
X292105Y278896D01*
X292611Y278558D01*
X293209Y278439D01*
X293806Y278558D01*
X294313Y278896D01*
X294651Y279403D01*
X294770Y280000D01*
X294651Y280597D01*
X294313Y281104D01*
X293806Y281442D01*
X293209Y281561D01*
D02*
G37*
G36*
X465722Y278983D02*
X465125Y278864D01*
X464618Y278526D01*
X464280Y278019D01*
X464237Y277806D01*
X463706Y277700D01*
X463504Y278004D01*
X462997Y278342D01*
X462400Y278461D01*
X461803Y278342D01*
X461296Y278004D01*
X460958Y277497D01*
X460839Y276900D01*
X460958Y276303D01*
X461296Y275796D01*
X461803Y275458D01*
X462400Y275339D01*
X462997Y275458D01*
X463504Y275796D01*
X463842Y276303D01*
X463885Y276516D01*
X464416Y276622D01*
X464618Y276318D01*
X465125Y275980D01*
X465722Y275861D01*
X466319Y275980D01*
X466826Y276318D01*
X467164Y276825D01*
X467283Y277422D01*
X467164Y278019D01*
X466826Y278526D01*
X466319Y278864D01*
X465722Y278983D01*
D02*
G37*
G36*
X226500Y280561D02*
X225903Y280442D01*
X225396Y280104D01*
X225058Y279597D01*
X224939Y279000D01*
X225058Y278403D01*
X225396Y277896D01*
X225903Y277558D01*
X226500Y277439D01*
X227097Y277558D01*
X227604Y277896D01*
X227942Y278403D01*
X228061Y279000D01*
X227942Y279597D01*
X227604Y280104D01*
X227097Y280442D01*
X226500Y280561D01*
D02*
G37*
G36*
X207500Y280061D02*
X206903Y279942D01*
X206396Y279604D01*
X206058Y279097D01*
X205939Y278500D01*
X206058Y277903D01*
X206396Y277396D01*
X206903Y277058D01*
X207500Y276939D01*
X208097Y277058D01*
X208604Y277396D01*
X208942Y277903D01*
X209061Y278500D01*
X208942Y279097D01*
X208604Y279604D01*
X208097Y279942D01*
X207500Y280061D01*
D02*
G37*
G36*
X162000D02*
X161403Y279942D01*
X160896Y279604D01*
X160558Y279097D01*
X160439Y278500D01*
X160558Y277903D01*
X160896Y277396D01*
X161403Y277058D01*
X162000Y276939D01*
X162597Y277058D01*
X163104Y277396D01*
X163442Y277903D01*
X163561Y278500D01*
X163442Y279097D01*
X163104Y279604D01*
X162597Y279942D01*
X162000Y280061D01*
D02*
G37*
G36*
X337500Y279061D02*
X336903Y278942D01*
X336396Y278604D01*
X336058Y278097D01*
X335939Y277500D01*
X336058Y276903D01*
X336396Y276396D01*
X336903Y276058D01*
X337500Y275939D01*
X338097Y276058D01*
X338604Y276396D01*
X338942Y276903D01*
X339061Y277500D01*
X338942Y278097D01*
X338604Y278604D01*
X338097Y278942D01*
X337500Y279061D01*
D02*
G37*
G36*
X445500Y278161D02*
X444903Y278042D01*
X444396Y277704D01*
X444058Y277197D01*
X443939Y276600D01*
X444058Y276003D01*
X444396Y275496D01*
X444903Y275158D01*
X445500Y275039D01*
X446097Y275158D01*
X446604Y275496D01*
X446942Y276003D01*
X447061Y276600D01*
X446942Y277197D01*
X446604Y277704D01*
X446097Y278042D01*
X445500Y278161D01*
D02*
G37*
G36*
X449800Y277561D02*
X449203Y277442D01*
X448696Y277104D01*
X448358Y276597D01*
X448239Y276000D01*
X448358Y275403D01*
X448696Y274896D01*
X449203Y274558D01*
X449800Y274439D01*
X450397Y274558D01*
X450904Y274896D01*
X451242Y275403D01*
X451361Y276000D01*
X451242Y276597D01*
X450904Y277104D01*
X450397Y277442D01*
X449800Y277561D01*
D02*
G37*
G36*
X273500D02*
X272903Y277442D01*
X272396Y277104D01*
X272058Y276597D01*
X271939Y276000D01*
X272058Y275403D01*
X272396Y274896D01*
X272903Y274558D01*
X273500Y274439D01*
X274097Y274558D01*
X274604Y274896D01*
X274942Y275403D01*
X275061Y276000D01*
X274942Y276597D01*
X274604Y277104D01*
X274097Y277442D01*
X273500Y277561D01*
D02*
G37*
G36*
X403000Y276561D02*
X402403Y276442D01*
X401896Y276104D01*
X401558Y275597D01*
X401439Y275000D01*
X401558Y274403D01*
X401896Y273896D01*
X402403Y273558D01*
X403000Y273439D01*
X403597Y273558D01*
X404104Y273896D01*
X404442Y274403D01*
X404561Y275000D01*
X404442Y275597D01*
X404104Y276104D01*
X403597Y276442D01*
X403000Y276561D01*
D02*
G37*
G36*
X219315Y275321D02*
X218794Y275218D01*
X218353Y274923D01*
X218058Y274481D01*
X217955Y273961D01*
X218058Y273440D01*
X218353Y272999D01*
X218794Y272704D01*
X219315Y272600D01*
X219836Y272704D01*
X220277Y272999D01*
X220572Y273440D01*
X220675Y273961D01*
X220572Y274481D01*
X220277Y274923D01*
X219836Y275218D01*
X219315Y275321D01*
D02*
G37*
G36*
X214984D02*
X214464Y275218D01*
X214022Y274923D01*
X213727Y274481D01*
X213624Y273961D01*
X213727Y273440D01*
X214022Y272999D01*
X214464Y272704D01*
X214984Y272600D01*
X215505Y272704D01*
X215946Y272999D01*
X216241Y273440D01*
X216345Y273961D01*
X216241Y274481D01*
X215946Y274923D01*
X215505Y275218D01*
X214984Y275321D01*
D02*
G37*
G36*
X548800Y274861D02*
X548203Y274742D01*
X547696Y274404D01*
X547358Y273897D01*
X547239Y273300D01*
X547358Y272703D01*
X547696Y272196D01*
X548203Y271858D01*
X548800Y271739D01*
X549397Y271858D01*
X549904Y272196D01*
X550242Y272703D01*
X550361Y273300D01*
X550242Y273897D01*
X549904Y274404D01*
X549397Y274742D01*
X548800Y274861D01*
D02*
G37*
G36*
X203500Y274561D02*
X202903Y274442D01*
X202396Y274104D01*
X202058Y273597D01*
X201939Y273000D01*
X202058Y272403D01*
X202396Y271896D01*
X202903Y271558D01*
X203500Y271439D01*
X204097Y271558D01*
X204604Y271896D01*
X204942Y272403D01*
X205061Y273000D01*
X204942Y273597D01*
X204604Y274104D01*
X204097Y274442D01*
X203500Y274561D01*
D02*
G37*
G36*
X196000Y274061D02*
X195403Y273942D01*
X194896Y273604D01*
X194558Y273097D01*
X194439Y272500D01*
X194558Y271903D01*
X194896Y271396D01*
X195403Y271058D01*
X196000Y270939D01*
X196597Y271058D01*
X197104Y271396D01*
X197442Y271903D01*
X197561Y272500D01*
X197442Y273097D01*
X197104Y273604D01*
X196597Y273942D01*
X196000Y274061D01*
D02*
G37*
G36*
X338500Y272561D02*
X337903Y272442D01*
X337396Y272104D01*
X337058Y271597D01*
X336939Y271000D01*
X337058Y270403D01*
X337396Y269896D01*
X337903Y269558D01*
X338500Y269439D01*
X339097Y269558D01*
X339604Y269896D01*
X339942Y270403D01*
X340061Y271000D01*
X339942Y271597D01*
X339604Y272104D01*
X339097Y272442D01*
X338500Y272561D01*
D02*
G37*
G36*
X276900Y271661D02*
X276303Y271542D01*
X275796Y271204D01*
X275458Y270697D01*
X275339Y270100D01*
X275458Y269503D01*
X275796Y268996D01*
X276303Y268658D01*
X276900Y268539D01*
X277497Y268658D01*
X278004Y268996D01*
X278342Y269503D01*
X278461Y270100D01*
X278342Y270697D01*
X278004Y271204D01*
X277497Y271542D01*
X276900Y271661D01*
D02*
G37*
G36*
X14000Y268861D02*
X13403Y268742D01*
X12896Y268404D01*
X12604D01*
X12097Y268742D01*
X11500Y268861D01*
X10903Y268742D01*
X10396Y268404D01*
X10058Y267897D01*
X9939Y267300D01*
X10058Y266703D01*
X10396Y266196D01*
X10903Y265858D01*
X11500Y265739D01*
X12097Y265858D01*
X12604Y266196D01*
X12896D01*
X13403Y265858D01*
X14000Y265739D01*
X14597Y265858D01*
X15104Y266196D01*
X15442Y266703D01*
X15561Y267300D01*
X15442Y267897D01*
X15104Y268404D01*
X14597Y268742D01*
X14000Y268861D01*
D02*
G37*
G36*
X219315Y270990D02*
X218794Y270887D01*
X218353Y270592D01*
X218058Y270150D01*
X217955Y269630D01*
X218058Y269109D01*
X218353Y268668D01*
X218794Y268373D01*
X219315Y268269D01*
X219836Y268373D01*
X220277Y268668D01*
X220572Y269109D01*
X220675Y269630D01*
X220572Y270150D01*
X220277Y270592D01*
X219836Y270887D01*
X219315Y270990D01*
D02*
G37*
G36*
X214984D02*
X214464Y270887D01*
X214022Y270592D01*
X213727Y270150D01*
X213624Y269630D01*
X213727Y269109D01*
X214022Y268668D01*
X214464Y268373D01*
X214984Y268269D01*
X215505Y268373D01*
X215946Y268668D01*
X216241Y269109D01*
X216345Y269630D01*
X216241Y270150D01*
X215946Y270592D01*
X215505Y270887D01*
X214984Y270990D01*
D02*
G37*
G36*
X293209Y271352D02*
X292611Y271234D01*
X292105Y270895D01*
X291766Y270389D01*
X291648Y269791D01*
X291766Y269194D01*
X292105Y268688D01*
X292611Y268349D01*
X293209Y268230D01*
X293806Y268349D01*
X294313Y268688D01*
X294651Y269194D01*
X294770Y269791D01*
X294651Y270389D01*
X294313Y270895D01*
X293806Y271234D01*
X293209Y271352D01*
D02*
G37*
G36*
X337500Y269061D02*
X336903Y268942D01*
X336396Y268604D01*
X336058Y268097D01*
X335939Y267500D01*
X336058Y266903D01*
X336396Y266396D01*
X336903Y266058D01*
X337500Y265939D01*
X338097Y266058D01*
X338604Y266396D01*
X338942Y266903D01*
X339061Y267500D01*
X338942Y268097D01*
X338604Y268604D01*
X338097Y268942D01*
X337500Y269061D01*
D02*
G37*
G36*
X261000Y268061D02*
X260403Y267942D01*
X259896Y267604D01*
X259558Y267097D01*
X259439Y266500D01*
X259558Y265903D01*
X259896Y265396D01*
X260403Y265058D01*
X261000Y264939D01*
X261597Y265058D01*
X262104Y265396D01*
X262442Y265903D01*
X262561Y266500D01*
X262442Y267097D01*
X262104Y267604D01*
X261597Y267942D01*
X261000Y268061D01*
D02*
G37*
G36*
X219315Y266660D02*
X218794Y266556D01*
X218353Y266261D01*
X218058Y265820D01*
X217955Y265299D01*
X218058Y264779D01*
X218353Y264337D01*
X218794Y264042D01*
X219315Y263939D01*
X219836Y264042D01*
X220277Y264337D01*
X220572Y264779D01*
X220675Y265299D01*
X220572Y265820D01*
X220277Y266261D01*
X219836Y266556D01*
X219315Y266660D01*
D02*
G37*
G36*
X214984D02*
X214464Y266556D01*
X214022Y266261D01*
X213727Y265820D01*
X213624Y265299D01*
X213727Y264779D01*
X214022Y264337D01*
X214464Y264042D01*
X214984Y263939D01*
X215505Y264042D01*
X215946Y264337D01*
X216241Y264779D01*
X216345Y265299D01*
X216241Y265820D01*
X215946Y266261D01*
X215505Y266556D01*
X214984Y266660D01*
D02*
G37*
G36*
X430100Y265612D02*
X429503Y265493D01*
X428996Y265155D01*
X428658Y264649D01*
X428539Y264051D01*
X428658Y263454D01*
X428996Y262947D01*
X429503Y262609D01*
X430100Y262490D01*
X430697Y262609D01*
X431204Y262947D01*
X431542Y263454D01*
X431661Y264051D01*
X431542Y264649D01*
X431204Y265155D01*
X430697Y265493D01*
X430100Y265612D01*
D02*
G37*
G36*
X239500Y265061D02*
X238903Y264942D01*
X238396Y264604D01*
X238058Y264097D01*
X237939Y263500D01*
X238058Y262903D01*
X238396Y262396D01*
X238903Y262058D01*
X239500Y261939D01*
X240097Y262058D01*
X240604Y262396D01*
X240942Y262903D01*
X241061Y263500D01*
X240942Y264097D01*
X240604Y264604D01*
X240097Y264942D01*
X239500Y265061D01*
D02*
G37*
G36*
X338500Y262561D02*
X337903Y262442D01*
X337396Y262104D01*
X337058Y261597D01*
X336939Y261000D01*
X337058Y260403D01*
X337396Y259896D01*
X337903Y259558D01*
X338500Y259439D01*
X339097Y259558D01*
X339604Y259896D01*
X339942Y260403D01*
X340061Y261000D01*
X339942Y261597D01*
X339604Y262104D01*
X339097Y262442D01*
X338500Y262561D01*
D02*
G37*
G36*
X226500Y262061D02*
X225903Y261942D01*
X225396Y261604D01*
X225058Y261097D01*
X224939Y260500D01*
X225058Y259903D01*
X225396Y259396D01*
X225903Y259058D01*
X226500Y258939D01*
X227097Y259058D01*
X227604Y259396D01*
X227942Y259903D01*
X228061Y260500D01*
X227942Y261097D01*
X227604Y261604D01*
X227097Y261942D01*
X226500Y262061D01*
D02*
G37*
G36*
X293209Y261561D02*
X292611Y261442D01*
X292105Y261104D01*
X291766Y260597D01*
X291648Y260000D01*
X291766Y259403D01*
X292105Y258896D01*
X292611Y258558D01*
X293209Y258439D01*
X293806Y258558D01*
X294313Y258896D01*
X294651Y259403D01*
X294770Y260000D01*
X294651Y260597D01*
X294313Y261104D01*
X293806Y261442D01*
X293209Y261561D01*
D02*
G37*
G36*
X337500Y259061D02*
X336903Y258942D01*
X336396Y258604D01*
X336058Y258097D01*
X335939Y257500D01*
X336058Y256903D01*
X336396Y256396D01*
X336903Y256058D01*
X337500Y255939D01*
X338097Y256058D01*
X338604Y256396D01*
X338942Y256903D01*
X339061Y257500D01*
X338942Y258097D01*
X338604Y258604D01*
X338097Y258942D01*
X337500Y259061D01*
D02*
G37*
G36*
X533000Y265118D02*
X531675Y264944D01*
X530441Y264433D01*
X529381Y263619D01*
X528568Y262559D01*
X528056Y261325D01*
X527882Y260000D01*
X528056Y258675D01*
X528568Y257441D01*
X529381Y256381D01*
X530441Y255568D01*
X531675Y255056D01*
X533000Y254882D01*
X534325Y255056D01*
X535559Y255568D01*
X536619Y256381D01*
X537432Y257441D01*
X537944Y258675D01*
X538118Y260000D01*
X537944Y261325D01*
X537432Y262559D01*
X536619Y263619D01*
X535559Y264433D01*
X534325Y264944D01*
X533000Y265118D01*
D02*
G37*
G36*
X-42000Y263061D02*
X-42597Y262942D01*
X-43104Y262604D01*
X-43442Y262097D01*
X-43561Y261500D01*
X-43442Y260903D01*
X-43104Y260396D01*
X-42753Y260162D01*
X-42739Y260123D01*
Y259645D01*
X-42753Y259606D01*
X-43104Y259372D01*
X-43442Y258865D01*
X-43561Y258268D01*
X-43442Y257670D01*
X-43104Y257164D01*
X-42726Y256912D01*
X-42699Y256811D01*
Y256457D01*
X-42726Y256356D01*
X-43104Y256104D01*
X-43442Y255597D01*
X-43561Y255000D01*
X-43442Y254403D01*
X-43104Y253896D01*
X-42597Y253558D01*
X-42000Y253439D01*
X-41403Y253558D01*
X-40896Y253896D01*
X-40558Y254403D01*
X-40439Y255000D01*
X-40558Y255597D01*
X-40896Y256104D01*
X-41274Y256356D01*
X-41301Y256457D01*
Y256811D01*
X-41274Y256912D01*
X-40896Y257164D01*
X-40558Y257670D01*
X-40439Y258268D01*
X-40558Y258865D01*
X-40896Y259372D01*
X-41247Y259606D01*
X-41260Y259645D01*
Y260123D01*
X-41247Y260162D01*
X-40896Y260396D01*
X-40558Y260903D01*
X-40439Y261500D01*
X-40558Y262097D01*
X-40896Y262604D01*
X-41403Y262942D01*
X-42000Y263061D01*
D02*
G37*
G36*
X230000Y256061D02*
X229403Y255942D01*
X228896Y255604D01*
X228558Y255097D01*
X228439Y254500D01*
X228558Y253903D01*
X228896Y253396D01*
X229403Y253058D01*
X230000Y252939D01*
X230597Y253058D01*
X231104Y253396D01*
X231442Y253903D01*
X231561Y254500D01*
X231442Y255097D01*
X231104Y255604D01*
X230597Y255942D01*
X230000Y256061D01*
D02*
G37*
G36*
X448478Y253183D02*
X447881Y253064D01*
X447374Y252726D01*
X447208Y252478D01*
X446614Y252467D01*
X446555Y252555D01*
X446049Y252893D01*
X445451Y253012D01*
X444854Y252893D01*
X444347Y252555D01*
X444009Y252049D01*
X443890Y251451D01*
X444009Y250854D01*
X444347Y250347D01*
X444854Y250009D01*
X445451Y249890D01*
X446049Y250009D01*
X446555Y250347D01*
X446721Y250596D01*
X447315Y250606D01*
X447374Y250518D01*
X447881Y250180D01*
X448478Y250061D01*
X449075Y250180D01*
X449582Y250518D01*
X449920Y251025D01*
X450039Y251622D01*
X449920Y252220D01*
X449582Y252726D01*
X449075Y253064D01*
X448478Y253183D01*
D02*
G37*
G36*
X332000Y290500D02*
X300000D01*
Y251395D01*
X299868Y251298D01*
X299500Y251173D01*
X299097Y251442D01*
X298500Y251561D01*
X297903Y251442D01*
X297396Y251104D01*
X297058Y250597D01*
X296939Y250000D01*
X297058Y249403D01*
X297396Y248896D01*
X297903Y248558D01*
X298500Y248439D01*
X299097Y248558D01*
X299500Y248827D01*
X299868Y248702D01*
X300000Y248605D01*
Y248500D01*
X332000D01*
Y290500D01*
D02*
G37*
G36*
X-18000Y256342D02*
X-18597Y256223D01*
X-19104Y255885D01*
X-19442Y255379D01*
X-19561Y254781D01*
X-19442Y254184D01*
X-19104Y253677D01*
X-18988Y253600D01*
Y253100D01*
X-19104Y253023D01*
X-19442Y252516D01*
X-19561Y251919D01*
X-19442Y251322D01*
X-19104Y250815D01*
X-18597Y250477D01*
X-18000Y250358D01*
X-17403Y250477D01*
X-16896Y250815D01*
X-16558Y251322D01*
X-16439Y251919D01*
X-16558Y252516D01*
X-16896Y253023D01*
X-17012Y253100D01*
Y253600D01*
X-16896Y253677D01*
X-16558Y254184D01*
X-16439Y254781D01*
X-16558Y255379D01*
X-16896Y255885D01*
X-17403Y256223D01*
X-18000Y256342D01*
D02*
G37*
G36*
X462400Y252661D02*
X461803Y252542D01*
X461296Y252204D01*
X460958Y251697D01*
X460839Y251100D01*
X460958Y250503D01*
X461296Y249996D01*
X461803Y249658D01*
X462400Y249539D01*
X462997Y249658D01*
X463504Y249996D01*
X463842Y250503D01*
X463961Y251100D01*
X463842Y251697D01*
X463504Y252204D01*
X462997Y252542D01*
X462400Y252661D01*
D02*
G37*
G36*
X466800Y252361D02*
X466203Y252242D01*
X465696Y251904D01*
X465358Y251397D01*
X465239Y250800D01*
X465358Y250203D01*
X465696Y249696D01*
X466203Y249358D01*
X466800Y249239D01*
X467397Y249358D01*
X467904Y249696D01*
X468242Y250203D01*
X468361Y250800D01*
X468242Y251397D01*
X467904Y251904D01*
X467397Y252242D01*
X466800Y252361D01*
D02*
G37*
G36*
X225500Y252061D02*
X224903Y251942D01*
X224396Y251604D01*
X224058Y251097D01*
X223939Y250500D01*
X224058Y249903D01*
X224396Y249396D01*
X224903Y249058D01*
X225500Y248939D01*
X226097Y249058D01*
X226604Y249396D01*
X226942Y249903D01*
X227061Y250500D01*
X226942Y251097D01*
X226604Y251604D01*
X226097Y251942D01*
X225500Y252061D01*
D02*
G37*
G36*
X147000Y251861D02*
X146403Y251742D01*
X145896Y251404D01*
X145558Y250897D01*
X145439Y250300D01*
X145558Y249703D01*
X145896Y249196D01*
X146403Y248858D01*
X147000Y248739D01*
X147597Y248858D01*
X148104Y249196D01*
X148442Y249703D01*
X148561Y250300D01*
X148442Y250897D01*
X148104Y251404D01*
X147597Y251742D01*
X147000Y251861D01*
D02*
G37*
G36*
X125300Y251661D02*
X124703Y251542D01*
X124196Y251204D01*
X123858Y250697D01*
X123739Y250100D01*
X123858Y249503D01*
X124196Y248996D01*
X124703Y248658D01*
X125300Y248539D01*
X125897Y248658D01*
X126404Y248996D01*
X126742Y249503D01*
X126861Y250100D01*
X126742Y250697D01*
X126404Y251204D01*
X125897Y251542D01*
X125300Y251661D01*
D02*
G37*
G36*
X403000Y251061D02*
X402403Y250942D01*
X401896Y250604D01*
X401558Y250097D01*
X401439Y249500D01*
X401558Y248903D01*
X401896Y248396D01*
X402403Y248058D01*
X403000Y247939D01*
X403597Y248058D01*
X404104Y248396D01*
X404442Y248903D01*
X404561Y249500D01*
X404442Y250097D01*
X404104Y250604D01*
X403597Y250942D01*
X403000Y251061D01*
D02*
G37*
G36*
X529500Y246561D02*
X528903Y246442D01*
X528396Y246104D01*
X528058Y245597D01*
X527939Y245000D01*
X528058Y244403D01*
X528396Y243896D01*
X528903Y243558D01*
X529500Y243439D01*
X530097Y243558D01*
X530604Y243896D01*
X530942Y244403D01*
X531061Y245000D01*
X530942Y245597D01*
X530604Y246104D01*
X530097Y246442D01*
X529500Y246561D01*
D02*
G37*
G36*
X523000Y243561D02*
X522403Y243442D01*
X521896Y243104D01*
X521558Y242597D01*
X521505Y242332D01*
X520995D01*
X520942Y242597D01*
X520604Y243104D01*
X520097Y243442D01*
X519500Y243561D01*
X518903Y243442D01*
X518396Y243104D01*
X518058Y242597D01*
X517939Y242000D01*
X518058Y241403D01*
X518396Y240896D01*
X518903Y240558D01*
X519500Y240439D01*
X520097Y240558D01*
X520604Y240896D01*
X520942Y241403D01*
X520995Y241668D01*
X521505D01*
X521558Y241403D01*
X521896Y240896D01*
X522133Y240738D01*
Y228500D01*
X522199Y228168D01*
X522387Y227887D01*
X526764Y223511D01*
X526474Y222811D01*
X526367Y222000D01*
X526474Y221189D01*
X526787Y220434D01*
X527285Y219785D01*
X527934Y219287D01*
X528689Y218974D01*
X529500Y218867D01*
X530311Y218974D01*
X531066Y219287D01*
X531715Y219785D01*
X532213Y220434D01*
X532526Y221189D01*
X532633Y222000D01*
X532526Y222811D01*
X532213Y223566D01*
X531715Y224215D01*
X531066Y224713D01*
X530311Y225026D01*
X529500Y225133D01*
X528689Y225026D01*
X527989Y224736D01*
X523867Y228859D01*
Y240738D01*
X524104Y240896D01*
X524442Y241403D01*
X524561Y242000D01*
X524442Y242597D01*
X524104Y243104D01*
X523597Y243442D01*
X523000Y243561D01*
D02*
G37*
G36*
X198500Y245061D02*
X197903Y244942D01*
X197396Y244604D01*
X197058Y244097D01*
X196939Y243500D01*
X197058Y242903D01*
X197396Y242396D01*
X197903Y242058D01*
X198500Y241939D01*
X199097Y242058D01*
X199604Y242396D01*
X199942Y242903D01*
X200061Y243500D01*
X199942Y244097D01*
X199604Y244604D01*
X199097Y244942D01*
X198500Y245061D01*
D02*
G37*
G36*
X-42200Y250380D02*
X-42797Y250261D01*
X-43304Y249923D01*
X-43642Y249416D01*
X-43761Y248819D01*
X-43642Y248221D01*
X-43304Y247715D01*
X-42861Y247419D01*
X-42794Y247114D01*
X-42790Y246865D01*
X-42928Y246773D01*
X-43267Y246267D01*
X-43386Y245669D01*
X-43267Y245072D01*
X-42928Y244565D01*
X-42790Y244473D01*
X-42794Y244225D01*
X-42861Y243919D01*
X-43304Y243623D01*
X-43642Y243117D01*
X-43761Y242520D01*
X-43642Y241922D01*
X-43304Y241416D01*
X-42797Y241077D01*
X-42200Y240959D01*
X-41603Y241077D01*
X-41096Y241416D01*
X-40758Y241922D01*
X-40639Y242520D01*
X-40758Y243117D01*
X-41096Y243623D01*
X-41234Y243716D01*
X-41231Y243964D01*
X-41163Y244270D01*
X-40721Y244565D01*
X-40382Y245072D01*
X-40263Y245669D01*
X-40382Y246267D01*
X-40721Y246773D01*
X-41163Y247069D01*
X-41231Y247375D01*
X-41234Y247623D01*
X-41096Y247715D01*
X-40758Y248221D01*
X-40639Y248819D01*
X-40758Y249416D01*
X-41096Y249923D01*
X-41603Y250261D01*
X-42200Y250380D01*
D02*
G37*
G36*
X10500Y246642D02*
X9903Y246523D01*
X9396Y246185D01*
X9058Y245678D01*
X8939Y245081D01*
X9058Y244484D01*
X9396Y243977D01*
X9512Y243900D01*
Y243400D01*
X9396Y243323D01*
X9058Y242816D01*
X8939Y242219D01*
X9058Y241621D01*
X9396Y241115D01*
X9903Y240777D01*
X10500Y240658D01*
X11097Y240777D01*
X11604Y241115D01*
X11942Y241621D01*
X12061Y242219D01*
X11942Y242816D01*
X11604Y243323D01*
X11488Y243400D01*
Y243900D01*
X11604Y243977D01*
X11942Y244484D01*
X12061Y245081D01*
X11942Y245678D01*
X11604Y246185D01*
X11097Y246523D01*
X10500Y246642D01*
D02*
G37*
G36*
X539606Y245106D02*
X533394D01*
Y238894D01*
X539606D01*
Y245106D01*
D02*
G37*
G36*
X430100Y240061D02*
X429503Y239942D01*
X428996Y239604D01*
X428658Y239097D01*
X428539Y238500D01*
X428658Y237903D01*
X428996Y237396D01*
X429503Y237058D01*
X430100Y236939D01*
X430697Y237058D01*
X431204Y237396D01*
X431542Y237903D01*
X431661Y238500D01*
X431542Y239097D01*
X431204Y239604D01*
X430697Y239942D01*
X430100Y240061D01*
D02*
G37*
G36*
X236500D02*
X235903Y239942D01*
X235396Y239604D01*
X235058Y239097D01*
X234939Y238500D01*
X235058Y237903D01*
X235396Y237396D01*
X235903Y237058D01*
X236500Y236939D01*
X237097Y237058D01*
X237604Y237396D01*
X237942Y237903D01*
X238061Y238500D01*
X237942Y239097D01*
X237604Y239604D01*
X237097Y239942D01*
X236500Y240061D01*
D02*
G37*
G36*
X164000Y239561D02*
X163403Y239442D01*
X162896Y239104D01*
X162558Y238597D01*
X162439Y238000D01*
X162558Y237403D01*
X162896Y236896D01*
X163403Y236558D01*
X164000Y236439D01*
X164597Y236558D01*
X165104Y236896D01*
X165442Y237403D01*
X165561Y238000D01*
X165442Y238597D01*
X165104Y239104D01*
X164597Y239442D01*
X164000Y239561D01*
D02*
G37*
G36*
X145500D02*
X144903Y239442D01*
X144396Y239104D01*
X144058Y238597D01*
X143939Y238000D01*
X144058Y237403D01*
X144396Y236896D01*
X144903Y236558D01*
X145500Y236439D01*
X146097Y236558D01*
X146604Y236896D01*
X146942Y237403D01*
X147061Y238000D01*
X146942Y238597D01*
X146604Y239104D01*
X146097Y239442D01*
X145500Y239561D01*
D02*
G37*
G36*
X140500D02*
X139903Y239442D01*
X139396Y239104D01*
X139058Y238597D01*
X138939Y238000D01*
X139058Y237403D01*
X139396Y236896D01*
X139903Y236558D01*
X140500Y236439D01*
X141097Y236558D01*
X141604Y236896D01*
X141942Y237403D01*
X142061Y238000D01*
X141942Y238597D01*
X141604Y239104D01*
X141097Y239442D01*
X140500Y239561D01*
D02*
G37*
G36*
X529500Y241133D02*
X528689Y241026D01*
X527934Y240713D01*
X527285Y240215D01*
X526787Y239566D01*
X526474Y238811D01*
X526367Y238000D01*
X526474Y237189D01*
X526787Y236434D01*
X527285Y235785D01*
X527934Y235287D01*
X528689Y234974D01*
X529500Y234867D01*
X530311Y234974D01*
X531066Y235287D01*
X531715Y235785D01*
X532213Y236434D01*
X532526Y237189D01*
X532633Y238000D01*
X532526Y238811D01*
X532213Y239566D01*
X531715Y240215D01*
X531066Y240713D01*
X530311Y241026D01*
X529500Y241133D01*
D02*
G37*
G36*
X231000Y235061D02*
X230403Y234942D01*
X229896Y234604D01*
X229558Y234097D01*
X229439Y233500D01*
X229558Y232903D01*
X229896Y232396D01*
X230403Y232058D01*
X231000Y231939D01*
X231597Y232058D01*
X232104Y232396D01*
X232442Y232903D01*
X232561Y233500D01*
X232442Y234097D01*
X232104Y234604D01*
X231597Y234942D01*
X231000Y235061D01*
D02*
G37*
G36*
X156815Y234301D02*
X156294Y234198D01*
X155853Y233903D01*
X155558Y233461D01*
X155455Y232941D01*
X155558Y232420D01*
X155853Y231979D01*
X156294Y231684D01*
X156815Y231580D01*
X157336Y231684D01*
X157777Y231979D01*
X158072Y232420D01*
X158175Y232941D01*
X158072Y233461D01*
X157777Y233903D01*
X157336Y234198D01*
X156815Y234301D01*
D02*
G37*
G36*
X152484D02*
X151964Y234198D01*
X151522Y233903D01*
X151227Y233461D01*
X151124Y232941D01*
X151227Y232420D01*
X151522Y231979D01*
X151964Y231684D01*
X152484Y231580D01*
X153005Y231684D01*
X153446Y231979D01*
X153741Y232420D01*
X153845Y232941D01*
X153741Y233461D01*
X153446Y233903D01*
X153005Y234198D01*
X152484Y234301D01*
D02*
G37*
G36*
X-42100Y234661D02*
X-42697Y234542D01*
X-43204Y234204D01*
X-43542Y233697D01*
X-43661Y233100D01*
X-43542Y232503D01*
X-43204Y231996D01*
X-42697Y231658D01*
X-42100Y231539D01*
X-41503Y231658D01*
X-40996Y231996D01*
X-40658Y232503D01*
X-40539Y233100D01*
X-40658Y233697D01*
X-40996Y234204D01*
X-41503Y234542D01*
X-42100Y234661D01*
D02*
G37*
G36*
X16500Y237661D02*
X15903Y237542D01*
X15396Y237204D01*
X15058Y236697D01*
X14939Y236100D01*
X15058Y235503D01*
X15396Y234996D01*
X15614Y234851D01*
Y234249D01*
X15396Y234104D01*
X15058Y233597D01*
X14939Y233000D01*
X15058Y232403D01*
X15396Y231896D01*
X15903Y231558D01*
X16500Y231439D01*
X17097Y231558D01*
X17604Y231896D01*
X17942Y232403D01*
X18061Y233000D01*
X17942Y233597D01*
X17604Y234104D01*
X17386Y234249D01*
Y234851D01*
X17604Y234996D01*
X17942Y235503D01*
X18061Y236100D01*
X17942Y236697D01*
X17604Y237204D01*
X17097Y237542D01*
X16500Y237661D01*
D02*
G37*
G36*
X536500Y237133D02*
X535689Y237026D01*
X534934Y236713D01*
X534285Y236215D01*
X533787Y235566D01*
X533474Y234811D01*
X533367Y234000D01*
X533474Y233189D01*
X533787Y232434D01*
X534285Y231785D01*
X534934Y231287D01*
X535689Y230974D01*
X536500Y230867D01*
X537311Y230974D01*
X538066Y231287D01*
X538715Y231785D01*
X539213Y232434D01*
X539526Y233189D01*
X539633Y234000D01*
X539526Y234811D01*
X539213Y235566D01*
X538715Y236215D01*
X538066Y236713D01*
X537311Y237026D01*
X536500Y237133D01*
D02*
G37*
G36*
X140900Y233561D02*
X140303Y233442D01*
X139796Y233104D01*
X139458Y232597D01*
X139339Y232000D01*
X139458Y231403D01*
X139796Y230896D01*
X140303Y230558D01*
X140900Y230439D01*
X141497Y230558D01*
X142004Y230896D01*
X142342Y231403D01*
X142461Y232000D01*
X142342Y232597D01*
X142004Y233104D01*
X141497Y233442D01*
X140900Y233561D01*
D02*
G37*
G36*
X156815Y229971D02*
X156294Y229867D01*
X155853Y229572D01*
X155558Y229131D01*
X155455Y228610D01*
X155558Y228090D01*
X155853Y227648D01*
X156294Y227353D01*
X156815Y227250D01*
X157336Y227353D01*
X157777Y227648D01*
X158072Y228090D01*
X158175Y228610D01*
X158072Y229131D01*
X157777Y229572D01*
X157336Y229867D01*
X156815Y229971D01*
D02*
G37*
G36*
X152484D02*
X151964Y229867D01*
X151522Y229572D01*
X151227Y229131D01*
X151124Y228610D01*
X151227Y228090D01*
X151522Y227648D01*
X151964Y227353D01*
X152484Y227250D01*
X153005Y227353D01*
X153446Y227648D01*
X153741Y228090D01*
X153845Y228610D01*
X153741Y229131D01*
X153446Y229572D01*
X153005Y229867D01*
X152484Y229971D01*
D02*
G37*
G36*
X465500Y227961D02*
X464903Y227842D01*
X464396Y227504D01*
X464126Y227100D01*
X463736Y227031D01*
X463558Y227050D01*
X463555Y227055D01*
X463049Y227394D01*
X462451Y227512D01*
X461854Y227394D01*
X461347Y227055D01*
X461009Y226549D01*
X460890Y225951D01*
X461009Y225354D01*
X461347Y224847D01*
X461854Y224509D01*
X462451Y224390D01*
X463049Y224509D01*
X463555Y224847D01*
X463825Y225251D01*
X464215Y225320D01*
X464393Y225301D01*
X464396Y225296D01*
X464903Y224958D01*
X465500Y224839D01*
X466097Y224958D01*
X466604Y225296D01*
X466942Y225803D01*
X467061Y226400D01*
X466942Y226997D01*
X466604Y227504D01*
X466097Y227842D01*
X465500Y227961D01*
D02*
G37*
G36*
X29700Y229261D02*
X29103Y229142D01*
X28596Y228804D01*
X28258Y228297D01*
X28139Y227700D01*
X28189Y227450D01*
X27763Y227025D01*
X27700Y227037D01*
X27103Y226918D01*
X26596Y226580D01*
X26258Y226074D01*
X26139Y225476D01*
X26258Y224879D01*
X26596Y224372D01*
X27103Y224034D01*
X27700Y223915D01*
X28297Y224034D01*
X28804Y224372D01*
X29142Y224879D01*
X29261Y225476D01*
X29211Y225726D01*
X29637Y226151D01*
X29700Y226139D01*
X30297Y226258D01*
X30804Y226596D01*
X31142Y227103D01*
X31261Y227700D01*
X31142Y228297D01*
X30804Y228804D01*
X30297Y229142D01*
X29700Y229261D01*
D02*
G37*
G36*
X529500Y233133D02*
X528689Y233026D01*
X527934Y232713D01*
X527285Y232215D01*
X526787Y231566D01*
X526474Y230811D01*
X526367Y230000D01*
X526474Y229189D01*
X526787Y228434D01*
X527285Y227785D01*
X527934Y227287D01*
X528689Y226974D01*
X529500Y226867D01*
X530311Y226974D01*
X531066Y227287D01*
X531715Y227785D01*
X532213Y228434D01*
X532526Y229189D01*
X532633Y230000D01*
X532526Y230811D01*
X532213Y231566D01*
X531715Y232215D01*
X531066Y232713D01*
X530311Y233026D01*
X529500Y233133D01*
D02*
G37*
G36*
X22000Y231061D02*
X21403Y230942D01*
X20896Y230604D01*
X20558Y230097D01*
X20439Y229500D01*
X20558Y228903D01*
X20896Y228396D01*
X21012Y228319D01*
Y227819D01*
X20896Y227742D01*
X20558Y227235D01*
X20439Y226638D01*
X20558Y226040D01*
X20896Y225534D01*
X21403Y225196D01*
X22000Y225077D01*
X22597Y225196D01*
X23104Y225534D01*
X23442Y226040D01*
X23561Y226638D01*
X23442Y227235D01*
X23104Y227742D01*
X22988Y227819D01*
Y228319D01*
X23104Y228396D01*
X23442Y228903D01*
X23561Y229500D01*
X23442Y230097D01*
X23104Y230604D01*
X22597Y230942D01*
X22000Y231061D01*
D02*
G37*
G36*
X445400Y227561D02*
X444803Y227442D01*
X444296Y227104D01*
X443958Y226597D01*
X443839Y226000D01*
X443958Y225403D01*
X444296Y224896D01*
X444803Y224558D01*
X445400Y224439D01*
X445997Y224558D01*
X446504Y224896D01*
X446842Y225403D01*
X446961Y226000D01*
X446842Y226597D01*
X446504Y227104D01*
X445997Y227442D01*
X445400Y227561D01*
D02*
G37*
G36*
X198500D02*
X197903Y227442D01*
X197396Y227104D01*
X197058Y226597D01*
X196939Y226000D01*
X197058Y225403D01*
X197396Y224896D01*
X197903Y224558D01*
X198500Y224439D01*
X199097Y224558D01*
X199604Y224896D01*
X199942Y225403D01*
X200061Y226000D01*
X199942Y226597D01*
X199604Y227104D01*
X199097Y227442D01*
X198500Y227561D01*
D02*
G37*
G36*
X450000Y226761D02*
X449403Y226642D01*
X448896Y226304D01*
X448558Y225797D01*
X448439Y225200D01*
X448558Y224603D01*
X448896Y224096D01*
X449403Y223758D01*
X450000Y223639D01*
X450597Y223758D01*
X451104Y224096D01*
X451442Y224603D01*
X451561Y225200D01*
X451442Y225797D01*
X451104Y226304D01*
X450597Y226642D01*
X450000Y226761D01*
D02*
G37*
G36*
X156815Y225640D02*
X156294Y225536D01*
X155853Y225241D01*
X155558Y224800D01*
X155455Y224279D01*
X155558Y223759D01*
X155853Y223318D01*
X156294Y223023D01*
X156815Y222919D01*
X157336Y223023D01*
X157777Y223318D01*
X158072Y223759D01*
X158175Y224279D01*
X158072Y224800D01*
X157777Y225241D01*
X157336Y225536D01*
X156815Y225640D01*
D02*
G37*
G36*
X152484D02*
X151964Y225536D01*
X151522Y225241D01*
X151227Y224800D01*
X151124Y224279D01*
X151227Y223759D01*
X151522Y223318D01*
X151964Y223023D01*
X152484Y222919D01*
X153005Y223023D01*
X153446Y223318D01*
X153741Y223759D01*
X153845Y224279D01*
X153741Y224800D01*
X153446Y225241D01*
X153005Y225536D01*
X152484Y225640D01*
D02*
G37*
G36*
X536500Y229133D02*
X535689Y229026D01*
X534934Y228713D01*
X534285Y228215D01*
X533787Y227566D01*
X533474Y226811D01*
X533367Y226000D01*
X533474Y225189D01*
X533787Y224434D01*
X534285Y223785D01*
X534934Y223287D01*
X535689Y222974D01*
X536500Y222867D01*
X537311Y222974D01*
X538066Y223287D01*
X538715Y223785D01*
X539213Y224434D01*
X539526Y225189D01*
X539633Y226000D01*
X539526Y226811D01*
X539213Y227566D01*
X538715Y228215D01*
X538066Y228713D01*
X537311Y229026D01*
X536500Y229133D01*
D02*
G37*
G36*
X403000Y225561D02*
X402403Y225442D01*
X401896Y225104D01*
X401558Y224597D01*
X401439Y224000D01*
X401558Y223403D01*
X401896Y222896D01*
X402403Y222558D01*
X403000Y222439D01*
X403597Y222558D01*
X404104Y222896D01*
X404442Y223403D01*
X404561Y224000D01*
X404442Y224597D01*
X404104Y225104D01*
X403597Y225442D01*
X403000Y225561D01*
D02*
G37*
G36*
X-42200Y225183D02*
X-42797Y225064D01*
X-43304Y224726D01*
X-43642Y224219D01*
X-43761Y223622D01*
X-43642Y223025D01*
X-43304Y222518D01*
X-42797Y222180D01*
X-42200Y222061D01*
X-41603Y222180D01*
X-41096Y222518D01*
X-40758Y223025D01*
X-40639Y223622D01*
X-40758Y224219D01*
X-41096Y224726D01*
X-41603Y225064D01*
X-42200Y225183D01*
D02*
G37*
G36*
X177000Y224061D02*
X176403Y223942D01*
X175896Y223604D01*
X175558Y223097D01*
X175439Y222500D01*
X175558Y221903D01*
X175896Y221396D01*
X176403Y221058D01*
X177000Y220939D01*
X177597Y221058D01*
X178104Y221396D01*
X178442Y221903D01*
X178561Y222500D01*
X178442Y223097D01*
X178104Y223604D01*
X177597Y223942D01*
X177000Y224061D01*
D02*
G37*
G36*
X164000Y221061D02*
X163403Y220942D01*
X162896Y220604D01*
X162558Y220097D01*
X162439Y219500D01*
X162558Y218903D01*
X162896Y218396D01*
X163403Y218058D01*
X164000Y217939D01*
X164597Y218058D01*
X165104Y218396D01*
X165442Y218903D01*
X165561Y219500D01*
X165442Y220097D01*
X165104Y220604D01*
X164597Y220942D01*
X164000Y221061D01*
D02*
G37*
G36*
X536500Y221133D02*
X535689Y221026D01*
X534934Y220713D01*
X534285Y220215D01*
X533787Y219566D01*
X533474Y218811D01*
X533367Y218000D01*
X533474Y217189D01*
X533787Y216434D01*
X534285Y215785D01*
X534934Y215287D01*
X535689Y214974D01*
X536500Y214867D01*
X537311Y214974D01*
X538066Y215287D01*
X538715Y215785D01*
X539213Y216434D01*
X539526Y217189D01*
X539633Y218000D01*
X539526Y218811D01*
X539213Y219566D01*
X538715Y220215D01*
X538066Y220713D01*
X537311Y221026D01*
X536500Y221133D01*
D02*
G37*
G36*
X-42100Y215734D02*
X-42697Y215616D01*
X-43204Y215277D01*
X-43542Y214771D01*
X-43661Y214173D01*
X-43542Y213576D01*
X-43204Y213069D01*
X-42697Y212731D01*
X-42100Y212612D01*
X-41503Y212731D01*
X-40996Y213069D01*
X-40658Y213576D01*
X-40539Y214173D01*
X-40658Y214771D01*
X-40996Y215277D01*
X-41503Y215616D01*
X-42100Y215734D01*
D02*
G37*
G36*
X167500Y215061D02*
X166903Y214942D01*
X166396Y214604D01*
X166058Y214097D01*
X165939Y213500D01*
X166058Y212903D01*
X166396Y212396D01*
X166903Y212058D01*
X167500Y211939D01*
X168097Y212058D01*
X168604Y212396D01*
X168942Y212903D01*
X169061Y213500D01*
X168942Y214097D01*
X168604Y214604D01*
X168097Y214942D01*
X167500Y215061D01*
D02*
G37*
G36*
X430100Y214612D02*
X429503Y214493D01*
X428996Y214155D01*
X428658Y213649D01*
X428539Y213051D01*
X428658Y212454D01*
X428996Y211947D01*
X429503Y211609D01*
X430100Y211490D01*
X430697Y211609D01*
X431204Y211947D01*
X431542Y212454D01*
X431661Y213051D01*
X431542Y213649D01*
X431204Y214155D01*
X430697Y214493D01*
X430100Y214612D01*
D02*
G37*
G36*
X529500Y217133D02*
X528689Y217026D01*
X527934Y216713D01*
X527285Y216215D01*
X526787Y215566D01*
X526474Y214811D01*
X526367Y214000D01*
X526474Y213189D01*
X526787Y212434D01*
X527285Y211785D01*
X527934Y211287D01*
X528689Y210974D01*
X529500Y210867D01*
X530311Y210974D01*
X531066Y211287D01*
X531715Y211785D01*
X532213Y212434D01*
X532526Y213189D01*
X532633Y214000D01*
X532526Y214811D01*
X532213Y215566D01*
X531715Y216215D01*
X531066Y216713D01*
X530311Y217026D01*
X529500Y217133D01*
D02*
G37*
G36*
X31300Y213061D02*
X30703Y212942D01*
X30196Y212604D01*
X29858Y212097D01*
X29739Y211500D01*
X29858Y210903D01*
X30196Y210396D01*
X30703Y210058D01*
X31300Y209939D01*
X31897Y210058D01*
X32404Y210396D01*
X32742Y210903D01*
X32861Y211500D01*
X32742Y212097D01*
X32404Y212604D01*
X31897Y212942D01*
X31300Y213061D01*
D02*
G37*
G36*
X163000Y211230D02*
X162403Y211112D01*
X161896Y210773D01*
X161558Y210267D01*
X161439Y209669D01*
X161558Y209072D01*
X161896Y208565D01*
X162403Y208227D01*
X163000Y208108D01*
X163597Y208227D01*
X164104Y208565D01*
X164442Y209072D01*
X164561Y209669D01*
X164442Y210267D01*
X164104Y210773D01*
X163597Y211112D01*
X163000Y211230D01*
D02*
G37*
G36*
X-42000Y206286D02*
X-42597Y206167D01*
X-43104Y205828D01*
X-43442Y205322D01*
X-43561Y204724D01*
X-43442Y204127D01*
X-43104Y203621D01*
X-42597Y203282D01*
X-42000Y203163D01*
X-41403Y203282D01*
X-40896Y203621D01*
X-40558Y204127D01*
X-40439Y204724D01*
X-40558Y205322D01*
X-40896Y205828D01*
X-41403Y206167D01*
X-42000Y206286D01*
D02*
G37*
G36*
X448516Y202377D02*
X447918Y202258D01*
X447412Y201920D01*
X447196Y201596D01*
X446661Y201548D01*
X446617Y201562D01*
X446555Y201655D01*
X446049Y201993D01*
X445451Y202112D01*
X444854Y201993D01*
X444347Y201655D01*
X444009Y201149D01*
X443890Y200551D01*
X444009Y199954D01*
X444347Y199447D01*
X444854Y199109D01*
X445451Y198990D01*
X446049Y199109D01*
X446555Y199447D01*
X446771Y199771D01*
X447306Y199819D01*
X447350Y199805D01*
X447412Y199712D01*
X447918Y199373D01*
X448516Y199255D01*
X449113Y199373D01*
X449620Y199712D01*
X449958Y200218D01*
X450077Y200816D01*
X449958Y201413D01*
X449620Y201920D01*
X449113Y202258D01*
X448516Y202377D01*
D02*
G37*
G36*
X462400Y195761D02*
X461803Y195642D01*
X461296Y195304D01*
X460958Y194797D01*
X460839Y194200D01*
X460958Y193603D01*
X461296Y193096D01*
X461803Y192758D01*
X462400Y192639D01*
X462997Y192758D01*
X463504Y193096D01*
X463842Y193603D01*
X463961Y194200D01*
X463842Y194797D01*
X463504Y195304D01*
X462997Y195642D01*
X462400Y195761D01*
D02*
G37*
G36*
X198500Y195561D02*
X197903Y195442D01*
X197396Y195104D01*
X197058Y194597D01*
X196939Y194000D01*
X197058Y193403D01*
X197396Y192896D01*
X197903Y192558D01*
X198500Y192439D01*
X199097Y192558D01*
X199604Y192896D01*
X199942Y193403D01*
X200061Y194000D01*
X199942Y194597D01*
X199604Y195104D01*
X199097Y195442D01*
X198500Y195561D01*
D02*
G37*
G36*
X466963Y195289D02*
X466366Y195171D01*
X465859Y194832D01*
X465521Y194326D01*
X465402Y193728D01*
X465521Y193131D01*
X465859Y192624D01*
X466366Y192286D01*
X466963Y192167D01*
X467560Y192286D01*
X468067Y192624D01*
X468405Y193131D01*
X468524Y193728D01*
X468405Y194326D01*
X468067Y194832D01*
X467560Y195171D01*
X466963Y195289D01*
D02*
G37*
G36*
X403000Y194061D02*
X402403Y193942D01*
X401896Y193604D01*
X401558Y193097D01*
X401439Y192500D01*
X401558Y191903D01*
X401896Y191396D01*
X402403Y191058D01*
X403000Y190939D01*
X403597Y191058D01*
X404104Y191396D01*
X404442Y191903D01*
X404561Y192500D01*
X404442Y193097D01*
X404104Y193604D01*
X403597Y193942D01*
X403000Y194061D01*
D02*
G37*
G36*
X164000Y190061D02*
X163403Y189942D01*
X162896Y189604D01*
X162558Y189097D01*
X162439Y188500D01*
X162558Y187903D01*
X162896Y187396D01*
X163403Y187058D01*
X164000Y186939D01*
X164597Y187058D01*
X165104Y187396D01*
X165442Y187903D01*
X165561Y188500D01*
X165442Y189097D01*
X165104Y189604D01*
X164597Y189942D01*
X164000Y190061D01*
D02*
G37*
G36*
X145000D02*
X144403Y189942D01*
X143896Y189604D01*
X143558Y189097D01*
X143439Y188500D01*
X143558Y187903D01*
X143896Y187396D01*
X144403Y187058D01*
X145000Y186939D01*
X145597Y187058D01*
X146104Y187396D01*
X146442Y187903D01*
X146561Y188500D01*
X146442Y189097D01*
X146104Y189604D01*
X145597Y189942D01*
X145000Y190061D01*
D02*
G37*
G36*
X140500Y189561D02*
X139903Y189442D01*
X139396Y189104D01*
X139058Y188597D01*
X138939Y188000D01*
X139058Y187403D01*
X139396Y186896D01*
X139903Y186558D01*
X140500Y186439D01*
X141097Y186558D01*
X141604Y186896D01*
X141942Y187403D01*
X142061Y188000D01*
X141942Y188597D01*
X141604Y189104D01*
X141097Y189442D01*
X140500Y189561D01*
D02*
G37*
G36*
X253000Y187561D02*
X252403Y187442D01*
X251896Y187104D01*
X251558Y186597D01*
X251439Y186000D01*
X251558Y185403D01*
X251896Y184896D01*
X252403Y184558D01*
X253000Y184439D01*
X253597Y184558D01*
X254104Y184896D01*
X254442Y185403D01*
X254561Y186000D01*
X254442Y186597D01*
X254104Y187104D01*
X253597Y187442D01*
X253000Y187561D01*
D02*
G37*
G36*
X156815Y184801D02*
X156294Y184698D01*
X155853Y184403D01*
X155558Y183961D01*
X155455Y183441D01*
X155558Y182920D01*
X155853Y182479D01*
X156294Y182184D01*
X156815Y182080D01*
X157336Y182184D01*
X157777Y182479D01*
X158072Y182920D01*
X158175Y183441D01*
X158072Y183961D01*
X157777Y184403D01*
X157336Y184698D01*
X156815Y184801D01*
D02*
G37*
G36*
X152484D02*
X151964Y184698D01*
X151522Y184403D01*
X151227Y183961D01*
X151124Y183441D01*
X151227Y182920D01*
X151522Y182479D01*
X151964Y182184D01*
X152484Y182080D01*
X153005Y182184D01*
X153446Y182479D01*
X153741Y182920D01*
X153845Y183441D01*
X153741Y183961D01*
X153446Y184403D01*
X153005Y184698D01*
X152484Y184801D01*
D02*
G37*
G36*
X522500Y184561D02*
X521903Y184442D01*
X521396Y184104D01*
X521058Y183597D01*
X520939Y183000D01*
X521058Y182403D01*
X521396Y181896D01*
X521903Y181558D01*
X522500Y181439D01*
X523097Y181558D01*
X523604Y181896D01*
X523942Y182403D01*
X524061Y183000D01*
X523942Y183597D01*
X523604Y184104D01*
X523097Y184442D01*
X522500Y184561D01*
D02*
G37*
G36*
X141000Y184061D02*
X140403Y183942D01*
X139896Y183604D01*
X139558Y183097D01*
X139439Y182500D01*
X139558Y181903D01*
X139896Y181396D01*
X140403Y181058D01*
X141000Y180939D01*
X141597Y181058D01*
X142104Y181396D01*
X142442Y181903D01*
X142561Y182500D01*
X142442Y183097D01*
X142104Y183604D01*
X141597Y183942D01*
X141000Y184061D01*
D02*
G37*
G36*
X133500Y233386D02*
X132778Y233243D01*
X132166Y232834D01*
X131666Y232334D01*
X131257Y231722D01*
X131114Y231000D01*
Y182500D01*
X131257Y181778D01*
X131666Y181166D01*
X132278Y180757D01*
X133000Y180614D01*
X133722Y180757D01*
X134334Y181166D01*
X134743Y181778D01*
X134886Y182500D01*
Y230245D01*
X135243Y230778D01*
X135386Y231500D01*
X135243Y232222D01*
X134834Y232834D01*
X134222Y233243D01*
X133500Y233386D01*
D02*
G37*
G36*
X430100Y183112D02*
X429503Y182993D01*
X428996Y182655D01*
X428658Y182149D01*
X428539Y181551D01*
X428658Y180954D01*
X428996Y180447D01*
X429503Y180109D01*
X430100Y179990D01*
X430697Y180109D01*
X431204Y180447D01*
X431542Y180954D01*
X431661Y181551D01*
X431542Y182149D01*
X431204Y182655D01*
X430697Y182993D01*
X430100Y183112D01*
D02*
G37*
G36*
X54000Y182561D02*
X53403Y182442D01*
X52896Y182104D01*
X52558Y181597D01*
X52439Y181000D01*
X52558Y180403D01*
X52896Y179896D01*
X53403Y179558D01*
X54000Y179439D01*
X54597Y179558D01*
X55104Y179896D01*
X55442Y180403D01*
X55561Y181000D01*
X55442Y181597D01*
X55104Y182104D01*
X54597Y182442D01*
X54000Y182561D01*
D02*
G37*
G36*
X258500Y181561D02*
X257903Y181442D01*
X257396Y181104D01*
X257058Y180597D01*
X256939Y180000D01*
X257058Y179403D01*
X257396Y178896D01*
X257903Y178558D01*
X258500Y178439D01*
X259097Y178558D01*
X259604Y178896D01*
X259942Y179403D01*
X260061Y180000D01*
X259942Y180597D01*
X259604Y181104D01*
X259097Y181442D01*
X258500Y181561D01*
D02*
G37*
G36*
X156815Y180471D02*
X156294Y180367D01*
X155853Y180072D01*
X155558Y179631D01*
X155455Y179110D01*
X155558Y178590D01*
X155853Y178148D01*
X156294Y177853D01*
X156815Y177750D01*
X157336Y177853D01*
X157777Y178148D01*
X158072Y178590D01*
X158175Y179110D01*
X158072Y179631D01*
X157777Y180072D01*
X157336Y180367D01*
X156815Y180471D01*
D02*
G37*
G36*
X152484D02*
X151964Y180367D01*
X151522Y180072D01*
X151227Y179631D01*
X151124Y179110D01*
X151227Y178590D01*
X151522Y178148D01*
X151964Y177853D01*
X152484Y177750D01*
X153005Y177853D01*
X153446Y178148D01*
X153741Y178590D01*
X153845Y179110D01*
X153741Y179631D01*
X153446Y180072D01*
X153005Y180367D01*
X152484Y180471D01*
D02*
G37*
G36*
X539606Y183106D02*
X533394D01*
Y176894D01*
X539606D01*
Y183106D01*
D02*
G37*
G36*
X198500Y178061D02*
X197903Y177942D01*
X197396Y177604D01*
X197058Y177097D01*
X196939Y176500D01*
X197058Y175903D01*
X197396Y175396D01*
X197903Y175058D01*
X198500Y174939D01*
X199097Y175058D01*
X199604Y175396D01*
X199942Y175903D01*
X200061Y176500D01*
X199942Y177097D01*
X199604Y177604D01*
X199097Y177942D01*
X198500Y178061D01*
D02*
G37*
G36*
X59000Y177261D02*
X58403Y177142D01*
X57896Y176804D01*
X57558Y176297D01*
X57439Y175700D01*
X57558Y175103D01*
X57896Y174596D01*
X58403Y174258D01*
X59000Y174139D01*
X59597Y174258D01*
X60104Y174596D01*
X60442Y175103D01*
X60561Y175700D01*
X60442Y176297D01*
X60104Y176804D01*
X59597Y177142D01*
X59000Y177261D01*
D02*
G37*
G36*
X156815Y176140D02*
X156294Y176036D01*
X155853Y175742D01*
X155558Y175300D01*
X155455Y174779D01*
X155558Y174259D01*
X155853Y173818D01*
X156294Y173523D01*
X156815Y173419D01*
X157336Y173523D01*
X157777Y173818D01*
X158072Y174259D01*
X158175Y174779D01*
X158072Y175300D01*
X157777Y175742D01*
X157336Y176036D01*
X156815Y176140D01*
D02*
G37*
G36*
X152484D02*
X151964Y176036D01*
X151522Y175742D01*
X151227Y175300D01*
X151124Y174779D01*
X151227Y174259D01*
X151522Y173818D01*
X151964Y173523D01*
X152484Y173419D01*
X153005Y173523D01*
X153446Y173818D01*
X153741Y174259D01*
X153845Y174779D01*
X153741Y175300D01*
X153446Y175742D01*
X153005Y176036D01*
X152484Y176140D01*
D02*
G37*
G36*
X529500Y179133D02*
X528689Y179026D01*
X527934Y178713D01*
X527285Y178215D01*
X526787Y177566D01*
X526474Y176811D01*
X526367Y176000D01*
X526474Y175189D01*
X526787Y174434D01*
X527285Y173785D01*
X527934Y173287D01*
X528689Y172974D01*
X529500Y172867D01*
X530311Y172974D01*
X531066Y173287D01*
X531715Y173785D01*
X532213Y174434D01*
X532526Y175189D01*
X532633Y176000D01*
X532526Y176811D01*
X532213Y177566D01*
X531715Y178215D01*
X531066Y178713D01*
X530311Y179026D01*
X529500Y179133D01*
D02*
G37*
G36*
X-42000Y174789D02*
X-42597Y174671D01*
X-43104Y174332D01*
X-43442Y173826D01*
X-43561Y173228D01*
X-43442Y172631D01*
X-43104Y172125D01*
X-42597Y171786D01*
X-42000Y171667D01*
X-41403Y171786D01*
X-40896Y172125D01*
X-40558Y172631D01*
X-40439Y173228D01*
X-40558Y173826D01*
X-40896Y174332D01*
X-41403Y174671D01*
X-42000Y174789D01*
D02*
G37*
G36*
X177000Y174561D02*
X176403Y174442D01*
X175896Y174104D01*
X175558Y173597D01*
X175439Y173000D01*
X175558Y172403D01*
X175896Y171896D01*
X176403Y171558D01*
X177000Y171439D01*
X177597Y171558D01*
X178104Y171896D01*
X178442Y172403D01*
X178561Y173000D01*
X178442Y173597D01*
X178104Y174104D01*
X177597Y174442D01*
X177000Y174561D01*
D02*
G37*
G36*
X465500Y170761D02*
X464903Y170642D01*
X464396Y170304D01*
X464149Y169933D01*
X463703Y169871D01*
X463570Y169899D01*
X463555Y169922D01*
X463049Y170260D01*
X462451Y170379D01*
X461854Y170260D01*
X461347Y169922D01*
X461009Y169415D01*
X460890Y168818D01*
X461009Y168221D01*
X461347Y167714D01*
X461854Y167376D01*
X462451Y167257D01*
X463049Y167376D01*
X463555Y167714D01*
X463802Y168085D01*
X464248Y168147D01*
X464381Y168119D01*
X464396Y168096D01*
X464903Y167758D01*
X465500Y167639D01*
X466097Y167758D01*
X466604Y168096D01*
X466942Y168603D01*
X467061Y169200D01*
X466942Y169797D01*
X466604Y170304D01*
X466097Y170642D01*
X465500Y170761D01*
D02*
G37*
G36*
X164000Y172061D02*
X163403Y171942D01*
X162896Y171604D01*
X162558Y171097D01*
X162439Y170500D01*
X162558Y169903D01*
X162896Y169396D01*
X163403Y169058D01*
X164000Y168939D01*
X164597Y169058D01*
X165104Y169396D01*
X165442Y169903D01*
X165561Y170500D01*
X165442Y171097D01*
X165104Y171604D01*
X164597Y171942D01*
X164000Y172061D01*
D02*
G37*
G36*
X536500Y175133D02*
X535689Y175026D01*
X534934Y174713D01*
X534285Y174215D01*
X533787Y173566D01*
X533474Y172811D01*
X533367Y172000D01*
X533474Y171189D01*
X533787Y170434D01*
X534285Y169785D01*
X534934Y169287D01*
X535689Y168974D01*
X536500Y168867D01*
X537311Y168974D01*
X538066Y169287D01*
X538715Y169785D01*
X539213Y170434D01*
X539526Y171189D01*
X539633Y172000D01*
X539526Y172811D01*
X539213Y173566D01*
X538715Y174215D01*
X538066Y174713D01*
X537311Y175026D01*
X536500Y175133D01*
D02*
G37*
G36*
X445400Y170461D02*
X444803Y170342D01*
X444296Y170004D01*
X443958Y169497D01*
X443839Y168900D01*
X443958Y168303D01*
X444296Y167796D01*
X444803Y167458D01*
X445400Y167339D01*
X445997Y167458D01*
X446504Y167796D01*
X446842Y168303D01*
X446961Y168900D01*
X446842Y169497D01*
X446504Y170004D01*
X445997Y170342D01*
X445400Y170461D01*
D02*
G37*
G36*
X449800Y169861D02*
X449203Y169742D01*
X448696Y169404D01*
X448358Y168897D01*
X448239Y168300D01*
X448358Y167703D01*
X448696Y167196D01*
X449203Y166858D01*
X449800Y166739D01*
X450397Y166858D01*
X450904Y167196D01*
X451242Y167703D01*
X451361Y168300D01*
X451242Y168897D01*
X450904Y169404D01*
X450397Y169742D01*
X449800Y169861D01*
D02*
G37*
G36*
X20900Y168761D02*
X20303Y168642D01*
X19796Y168304D01*
X19458Y167797D01*
X19339Y167200D01*
X19458Y166603D01*
X19796Y166096D01*
X20303Y165758D01*
X20900Y165639D01*
X21497Y165758D01*
X22004Y166096D01*
X22342Y166603D01*
X22461Y167200D01*
X22342Y167797D01*
X22004Y168304D01*
X21497Y168642D01*
X20900Y168761D01*
D02*
G37*
G36*
X403000Y168561D02*
X402403Y168442D01*
X401896Y168104D01*
X401558Y167597D01*
X401439Y167000D01*
X401558Y166403D01*
X401896Y165896D01*
X402403Y165558D01*
X403000Y165439D01*
X403597Y165558D01*
X404104Y165896D01*
X404442Y166403D01*
X404561Y167000D01*
X404442Y167597D01*
X404104Y168104D01*
X403597Y168442D01*
X403000Y168561D01*
D02*
G37*
G36*
X5500D02*
X4903Y168442D01*
X4396Y168104D01*
X4058Y167597D01*
X3939Y167000D01*
X4058Y166403D01*
X4396Y165896D01*
X4903Y165558D01*
X5500Y165439D01*
X6097Y165558D01*
X6604Y165896D01*
X6942Y166403D01*
X7061Y167000D01*
X6942Y167597D01*
X6604Y168104D01*
X6097Y168442D01*
X5500Y168561D01*
D02*
G37*
G36*
X529500Y171133D02*
X528689Y171026D01*
X527934Y170713D01*
X527285Y170215D01*
X526787Y169566D01*
X526474Y168811D01*
X526367Y168000D01*
X526474Y167189D01*
X526787Y166434D01*
X527285Y165785D01*
X527934Y165287D01*
X528689Y164974D01*
X529500Y164867D01*
X530311Y164974D01*
X531066Y165287D01*
X531715Y165785D01*
X532213Y166434D01*
X532526Y167189D01*
X532633Y168000D01*
X532526Y168811D01*
X532213Y169566D01*
X531715Y170215D01*
X531066Y170713D01*
X530311Y171026D01*
X529500Y171133D01*
D02*
G37*
G36*
X-35800Y166861D02*
X-36397Y166742D01*
X-36904Y166404D01*
X-37242Y165897D01*
X-37361Y165300D01*
X-37242Y164703D01*
X-36904Y164196D01*
X-36397Y163858D01*
X-35800Y163739D01*
X-35203Y163858D01*
X-34696Y164196D01*
X-34358Y164703D01*
X-34239Y165300D01*
X-34358Y165897D01*
X-34696Y166404D01*
X-35203Y166742D01*
X-35800Y166861D01*
D02*
G37*
G36*
X167500Y165561D02*
X166903Y165442D01*
X166396Y165104D01*
X166058Y164597D01*
X165939Y164000D01*
X166058Y163403D01*
X166396Y162896D01*
X166903Y162558D01*
X167500Y162439D01*
X168097Y162558D01*
X168604Y162896D01*
X168942Y163403D01*
X169061Y164000D01*
X168942Y164597D01*
X168604Y165104D01*
X168097Y165442D01*
X167500Y165561D01*
D02*
G37*
G36*
X-42000Y165361D02*
X-42597Y165242D01*
X-43104Y164904D01*
X-43442Y164397D01*
X-43561Y163800D01*
X-43442Y163203D01*
X-43104Y162696D01*
X-42597Y162358D01*
X-42000Y162239D01*
X-41403Y162358D01*
X-40896Y162696D01*
X-40558Y163203D01*
X-40439Y163800D01*
X-40558Y164397D01*
X-40896Y164904D01*
X-41403Y165242D01*
X-42000Y165361D01*
D02*
G37*
G36*
X521542Y165019D02*
X520945Y164900D01*
X520438Y164562D01*
X520100Y164055D01*
X519981Y163458D01*
X520100Y162860D01*
X520438Y162354D01*
X520945Y162015D01*
X521542Y161897D01*
X522140Y162015D01*
X522646Y162354D01*
X522985Y162860D01*
X523103Y163458D01*
X522985Y164055D01*
X522646Y164562D01*
X522140Y164900D01*
X521542Y165019D01*
D02*
G37*
G36*
X263000Y164561D02*
X262403Y164442D01*
X261896Y164104D01*
X261558Y163597D01*
X261439Y163000D01*
X261558Y162403D01*
X261896Y161896D01*
X262403Y161558D01*
X263000Y161439D01*
X263597Y161558D01*
X264104Y161896D01*
X264442Y162403D01*
X264561Y163000D01*
X264442Y163597D01*
X264104Y164104D01*
X263597Y164442D01*
X263000Y164561D01*
D02*
G37*
G36*
X536500Y167133D02*
X535689Y167026D01*
X534934Y166713D01*
X534285Y166215D01*
X533787Y165566D01*
X533474Y164811D01*
X533367Y164000D01*
X533474Y163189D01*
X533787Y162434D01*
X534285Y161785D01*
X534934Y161287D01*
X535689Y160974D01*
X536500Y160867D01*
X537311Y160974D01*
X538066Y161287D01*
X538715Y161785D01*
X539213Y162434D01*
X539526Y163189D01*
X539633Y164000D01*
X539526Y164811D01*
X539213Y165566D01*
X538715Y166215D01*
X538066Y166713D01*
X537311Y167026D01*
X536500Y167133D01*
D02*
G37*
G36*
X44800Y163261D02*
X44203Y163142D01*
X43696Y162804D01*
X43358Y162297D01*
X43239Y161700D01*
X43358Y161103D01*
X43696Y160596D01*
X44203Y160258D01*
X44800Y160139D01*
X45397Y160258D01*
X45904Y160596D01*
X46242Y161103D01*
X46361Y161700D01*
X46242Y162297D01*
X45904Y162804D01*
X45397Y163142D01*
X44800Y163261D01*
D02*
G37*
G36*
X511500Y161561D02*
X510903Y161442D01*
X510396Y161104D01*
X510058Y160597D01*
X509939Y160000D01*
X510058Y159403D01*
X510396Y158896D01*
X510903Y158558D01*
X511500Y158439D01*
X512097Y158558D01*
X512604Y158896D01*
X512942Y159403D01*
X513061Y160000D01*
X512942Y160597D01*
X512604Y161104D01*
X512097Y161442D01*
X511500Y161561D01*
D02*
G37*
G36*
X163000D02*
X162403Y161442D01*
X161896Y161104D01*
X161558Y160597D01*
X161439Y160000D01*
X161558Y159403D01*
X161896Y158896D01*
X162403Y158558D01*
X163000Y158439D01*
X163597Y158558D01*
X164104Y158896D01*
X164442Y159403D01*
X164561Y160000D01*
X164442Y160597D01*
X164104Y161104D01*
X163597Y161442D01*
X163000Y161561D01*
D02*
G37*
G36*
X529500Y163133D02*
X528689Y163026D01*
X527934Y162713D01*
X527285Y162215D01*
X526787Y161566D01*
X526474Y160811D01*
X526367Y160000D01*
X526474Y159189D01*
X526787Y158434D01*
X527285Y157785D01*
X527934Y157287D01*
X528689Y156974D01*
X529500Y156867D01*
X530311Y156974D01*
X531066Y157287D01*
X531715Y157785D01*
X532213Y158434D01*
X532526Y159189D01*
X532633Y160000D01*
X532526Y160811D01*
X532213Y161566D01*
X531715Y162215D01*
X531066Y162713D01*
X530311Y163026D01*
X529500Y163133D01*
D02*
G37*
G36*
X228500Y159561D02*
X227903Y159442D01*
X227396Y159104D01*
X227058Y158597D01*
X226939Y158000D01*
X227058Y157403D01*
X227396Y156896D01*
X227903Y156558D01*
X228500Y156439D01*
X229097Y156558D01*
X229604Y156896D01*
X229942Y157403D01*
X230061Y158000D01*
X229942Y158597D01*
X229604Y159104D01*
X229097Y159442D01*
X228500Y159561D01*
D02*
G37*
G36*
X209000D02*
X208403Y159442D01*
X207896Y159104D01*
X207558Y158597D01*
X207439Y158000D01*
X207558Y157403D01*
X207896Y156896D01*
X208403Y156558D01*
X209000Y156439D01*
X209597Y156558D01*
X210104Y156896D01*
X210442Y157403D01*
X210561Y158000D01*
X210442Y158597D01*
X210104Y159104D01*
X209597Y159442D01*
X209000Y159561D01*
D02*
G37*
G36*
X44886D02*
X44289Y159442D01*
X43783Y159104D01*
X43444Y158597D01*
X43325Y158000D01*
X43444Y157403D01*
X43783Y156896D01*
X44289Y156558D01*
X44886Y156439D01*
X45484Y156558D01*
X45990Y156896D01*
X46329Y157403D01*
X46448Y158000D01*
X46329Y158597D01*
X45990Y159104D01*
X45484Y159442D01*
X44886Y159561D01*
D02*
G37*
G36*
X430100Y158112D02*
X429503Y157993D01*
X428996Y157655D01*
X428658Y157149D01*
X428539Y156551D01*
X428658Y155954D01*
X428996Y155447D01*
X429503Y155109D01*
X430100Y154990D01*
X430697Y155109D01*
X431204Y155447D01*
X431542Y155954D01*
X431661Y156551D01*
X431542Y157149D01*
X431204Y157655D01*
X430697Y157993D01*
X430100Y158112D01*
D02*
G37*
G36*
X536500Y159133D02*
X535689Y159026D01*
X534934Y158713D01*
X534285Y158215D01*
X533787Y157566D01*
X533474Y156811D01*
X533367Y156000D01*
X533474Y155189D01*
X533787Y154434D01*
X534285Y153785D01*
X534934Y153287D01*
X535689Y152974D01*
X536500Y152867D01*
X537311Y152974D01*
X538066Y153287D01*
X538715Y153785D01*
X539213Y154434D01*
X539526Y155189D01*
X539633Y156000D01*
X539526Y156811D01*
X539213Y157566D01*
X538715Y158215D01*
X538066Y158713D01*
X537311Y159026D01*
X536500Y159133D01*
D02*
G37*
G36*
X-42000Y155892D02*
X-42597Y155773D01*
X-43104Y155435D01*
X-43442Y154928D01*
X-43561Y154331D01*
X-43442Y153733D01*
X-43104Y153227D01*
X-42597Y152888D01*
X-42000Y152770D01*
X-41403Y152888D01*
X-40896Y153227D01*
X-40558Y153733D01*
X-40439Y154331D01*
X-40558Y154928D01*
X-40896Y155435D01*
X-41403Y155773D01*
X-42000Y155892D01*
D02*
G37*
G36*
X44900Y154861D02*
X44303Y154742D01*
X43796Y154404D01*
X43458Y153897D01*
X43339Y153300D01*
X43458Y152703D01*
X43796Y152196D01*
X44303Y151858D01*
X44900Y151739D01*
X45497Y151858D01*
X46004Y152196D01*
X46342Y152703D01*
X46461Y153300D01*
X46342Y153897D01*
X46004Y154404D01*
X45497Y154742D01*
X44900Y154861D01*
D02*
G37*
G36*
X221315Y154301D02*
X220794Y154198D01*
X220353Y153903D01*
X220058Y153462D01*
X219955Y152941D01*
X220058Y152420D01*
X220353Y151979D01*
X220794Y151684D01*
X221315Y151581D01*
X221836Y151684D01*
X222277Y151979D01*
X222572Y152420D01*
X222675Y152941D01*
X222572Y153462D01*
X222277Y153903D01*
X221836Y154198D01*
X221315Y154301D01*
D02*
G37*
G36*
X216984D02*
X216464Y154198D01*
X216022Y153903D01*
X215727Y153462D01*
X215624Y152941D01*
X215727Y152420D01*
X216022Y151979D01*
X216464Y151684D01*
X216984Y151581D01*
X217505Y151684D01*
X217946Y151979D01*
X218241Y152420D01*
X218345Y152941D01*
X218241Y153462D01*
X217946Y153903D01*
X217505Y154198D01*
X216984Y154301D01*
D02*
G37*
G36*
X205800Y153161D02*
X205203Y153042D01*
X204696Y152704D01*
X204358Y152197D01*
X204239Y151600D01*
X204358Y151003D01*
X204696Y150496D01*
X205203Y150158D01*
X205800Y150039D01*
X206397Y150158D01*
X206904Y150496D01*
X207242Y151003D01*
X207361Y151600D01*
X207242Y152197D01*
X206904Y152704D01*
X206397Y153042D01*
X205800Y153161D01*
D02*
G37*
G36*
X195320Y154380D02*
X194723Y154261D01*
X194216Y153923D01*
X193878Y153416D01*
X193759Y152819D01*
X193878Y152222D01*
X194216Y151715D01*
X194723Y151377D01*
X195320Y151258D01*
X195918Y151377D01*
X196424Y151715D01*
X196492Y151817D01*
X196963Y151622D01*
X196939Y151500D01*
X197058Y150903D01*
X197396Y150396D01*
X197903Y150058D01*
X198500Y149939D01*
X199097Y150058D01*
X199604Y150396D01*
X199942Y150903D01*
X200061Y151500D01*
X199942Y152097D01*
X199604Y152604D01*
X199097Y152942D01*
X198500Y153061D01*
X197903Y152942D01*
X197396Y152604D01*
X197328Y152502D01*
X196857Y152697D01*
X196881Y152819D01*
X196762Y153416D01*
X196424Y153923D01*
X195918Y154261D01*
X195320Y154380D01*
D02*
G37*
G36*
X529500Y155133D02*
X528689Y155026D01*
X527934Y154713D01*
X527285Y154215D01*
X526787Y153566D01*
X526474Y152811D01*
X526367Y152000D01*
X526474Y151189D01*
X526787Y150434D01*
X527285Y149785D01*
X527934Y149287D01*
X528689Y148974D01*
X529500Y148867D01*
X530311Y148974D01*
X531066Y149287D01*
X531715Y149785D01*
X532213Y150434D01*
X532526Y151189D01*
X532633Y152000D01*
X532526Y152811D01*
X532213Y153566D01*
X531715Y154215D01*
X531066Y154713D01*
X530311Y155026D01*
X529500Y155133D01*
D02*
G37*
G36*
X78300Y151661D02*
X77703Y151542D01*
X77196Y151204D01*
X76858Y150697D01*
X76739Y150100D01*
X76858Y149503D01*
X77196Y148996D01*
X77703Y148658D01*
X78300Y148539D01*
X78897Y148658D01*
X79404Y148996D01*
X79742Y149503D01*
X79861Y150100D01*
X79742Y150697D01*
X79404Y151204D01*
X78897Y151542D01*
X78300Y151661D01*
D02*
G37*
G36*
X31448Y163800D02*
X800Y163700D01*
X790Y163690D01*
Y148658D01*
X31329D01*
X31448Y148539D01*
Y163800D01*
D02*
G37*
G36*
X221315Y149971D02*
X220794Y149867D01*
X220353Y149572D01*
X220058Y149131D01*
X219955Y148610D01*
X220058Y148090D01*
X220353Y147648D01*
X220794Y147353D01*
X221315Y147250D01*
X221836Y147353D01*
X222277Y147648D01*
X222572Y148090D01*
X222675Y148610D01*
X222572Y149131D01*
X222277Y149572D01*
X221836Y149867D01*
X221315Y149971D01*
D02*
G37*
G36*
X216984D02*
X216464Y149867D01*
X216022Y149572D01*
X215727Y149131D01*
X215624Y148610D01*
X215727Y148090D01*
X216022Y147648D01*
X216464Y147353D01*
X216984Y147250D01*
X217505Y147353D01*
X217946Y147648D01*
X218241Y148090D01*
X218345Y148610D01*
X218241Y149131D01*
X217946Y149572D01*
X217505Y149867D01*
X216984Y149971D01*
D02*
G37*
G36*
X268000Y149561D02*
X267403Y149442D01*
X266896Y149104D01*
X266558Y148597D01*
X266439Y148000D01*
X266558Y147403D01*
X266896Y146896D01*
X267403Y146558D01*
X268000Y146439D01*
X268597Y146558D01*
X269104Y146896D01*
X269442Y147403D01*
X269561Y148000D01*
X269442Y148597D01*
X269104Y149104D01*
X268597Y149442D01*
X268000Y149561D01*
D02*
G37*
G36*
X44900Y149161D02*
X44303Y149042D01*
X43796Y148704D01*
X43458Y148197D01*
X43339Y147600D01*
X43458Y147003D01*
X43796Y146496D01*
X44303Y146158D01*
X44900Y146039D01*
X45497Y146158D01*
X46004Y146496D01*
X46342Y147003D01*
X46461Y147600D01*
X46342Y148197D01*
X46004Y148704D01*
X45497Y149042D01*
X44900Y149161D01*
D02*
G37*
G36*
X448506Y145467D02*
X447909Y145349D01*
X447402Y145010D01*
X447227Y144747D01*
X446638Y144729D01*
X446555Y144853D01*
X446049Y145191D01*
X445451Y145310D01*
X444854Y145191D01*
X444347Y144853D01*
X444009Y144346D01*
X443890Y143749D01*
X444009Y143151D01*
X444347Y142645D01*
X444854Y142306D01*
X445451Y142188D01*
X446049Y142306D01*
X446555Y142645D01*
X446731Y142908D01*
X447320Y142926D01*
X447402Y142802D01*
X447909Y142464D01*
X448506Y142345D01*
X449104Y142464D01*
X449610Y142802D01*
X449949Y143309D01*
X450067Y143906D01*
X449949Y144504D01*
X449610Y145010D01*
X449104Y145349D01*
X448506Y145467D01*
D02*
G37*
G36*
X263000Y147561D02*
X262403Y147442D01*
X261896Y147104D01*
X261558Y146597D01*
X261439Y146000D01*
X261558Y145403D01*
X261896Y144896D01*
X262403Y144558D01*
X263000Y144439D01*
X263597Y144558D01*
X264104Y144896D01*
X264442Y145403D01*
X264561Y146000D01*
X264442Y146597D01*
X264104Y147104D01*
X263597Y147442D01*
X263000Y147561D01*
D02*
G37*
G36*
X82500Y146861D02*
X81903Y146742D01*
X81396Y146404D01*
X81058Y145897D01*
X80939Y145300D01*
X81058Y144703D01*
X81396Y144196D01*
X81903Y143858D01*
X82500Y143739D01*
X83097Y143858D01*
X83604Y144196D01*
X83942Y144703D01*
X84061Y145300D01*
X83942Y145897D01*
X83604Y146404D01*
X83097Y146742D01*
X82500Y146861D01*
D02*
G37*
G36*
X-42000Y146443D02*
X-42597Y146324D01*
X-43104Y145986D01*
X-43442Y145479D01*
X-43561Y144882D01*
X-43442Y144284D01*
X-43104Y143778D01*
X-42597Y143440D01*
X-42000Y143321D01*
X-41403Y143440D01*
X-40896Y143778D01*
X-40558Y144284D01*
X-40439Y144882D01*
X-40558Y145479D01*
X-40896Y145986D01*
X-41403Y146324D01*
X-42000Y146443D01*
D02*
G37*
G36*
X221315Y145640D02*
X220794Y145536D01*
X220353Y145241D01*
X220058Y144800D01*
X219955Y144280D01*
X220058Y143759D01*
X220353Y143318D01*
X220794Y143023D01*
X221315Y142919D01*
X221836Y143023D01*
X222277Y143318D01*
X222572Y143759D01*
X222675Y144280D01*
X222572Y144800D01*
X222277Y145241D01*
X221836Y145536D01*
X221315Y145640D01*
D02*
G37*
G36*
X216984D02*
X216464Y145536D01*
X216022Y145241D01*
X215727Y144800D01*
X215624Y144280D01*
X215727Y143759D01*
X216022Y143318D01*
X216464Y143023D01*
X216984Y142919D01*
X217505Y143023D01*
X217946Y143318D01*
X218241Y143759D01*
X218345Y144280D01*
X218241Y144800D01*
X217946Y145241D01*
X217505Y145536D01*
X216984Y145640D01*
D02*
G37*
G36*
X5500Y145810D02*
X4903Y145691D01*
X4396Y145353D01*
X4058Y144846D01*
X3939Y144249D01*
X4058Y143651D01*
X4396Y143145D01*
X4903Y142806D01*
X5500Y142688D01*
X6097Y142806D01*
X6604Y143145D01*
X6942Y143651D01*
X7061Y144249D01*
X6942Y144846D01*
X6604Y145353D01*
X6097Y145691D01*
X5500Y145810D01*
D02*
G37*
G36*
X20700Y145661D02*
X20103Y145542D01*
X19596Y145204D01*
X19258Y144697D01*
X19139Y144100D01*
X19258Y143503D01*
X19596Y142996D01*
X20103Y142658D01*
X20700Y142539D01*
X21297Y142658D01*
X21804Y142996D01*
X22142Y143503D01*
X22261Y144100D01*
X22142Y144697D01*
X21804Y145204D01*
X21297Y145542D01*
X20700Y145661D01*
D02*
G37*
G36*
X293500Y145561D02*
X292903Y145442D01*
X292396Y145104D01*
X292058Y144597D01*
X291939Y144000D01*
X292058Y143403D01*
X292396Y142896D01*
X292903Y142558D01*
X293500Y142439D01*
X294097Y142558D01*
X294604Y142896D01*
X294942Y143403D01*
X295061Y144000D01*
X294942Y144597D01*
X294604Y145104D01*
X294097Y145442D01*
X293500Y145561D01*
D02*
G37*
G36*
X462451Y145161D02*
X461854Y145042D01*
X461347Y144704D01*
X461009Y144197D01*
X460890Y143600D01*
X461009Y143003D01*
X461347Y142496D01*
X461854Y142158D01*
X462451Y142039D01*
X463049Y142158D01*
X463555Y142496D01*
X463894Y143003D01*
X464012Y143600D01*
X463894Y144197D01*
X463555Y144704D01*
X463049Y145042D01*
X462451Y145161D01*
D02*
G37*
G36*
X466935Y144396D02*
X466337Y144277D01*
X465831Y143939D01*
X465492Y143432D01*
X465374Y142835D01*
X465492Y142237D01*
X465831Y141731D01*
X466337Y141392D01*
X466935Y141273D01*
X467532Y141392D01*
X468039Y141731D01*
X468377Y142237D01*
X468496Y142835D01*
X468377Y143432D01*
X468039Y143939D01*
X467532Y144277D01*
X466935Y144396D01*
D02*
G37*
G36*
X241600Y144261D02*
X241003Y144142D01*
X240496Y143804D01*
X240158Y143297D01*
X240039Y142700D01*
X240158Y142103D01*
X240496Y141596D01*
X241003Y141258D01*
X241600Y141139D01*
X242197Y141258D01*
X242704Y141596D01*
X243042Y142103D01*
X243161Y142700D01*
X243042Y143297D01*
X242704Y143804D01*
X242197Y144142D01*
X241600Y144261D01*
D02*
G37*
G36*
X338500Y146761D02*
X337903Y146642D01*
X337396Y146304D01*
X337058Y145797D01*
X336939Y145200D01*
X337058Y144603D01*
X337396Y144096D01*
X337489Y144034D01*
X337344Y143530D01*
X336903Y143442D01*
X336396Y143104D01*
X336058Y142597D01*
X335939Y142000D01*
X336058Y141403D01*
X336396Y140896D01*
X336903Y140558D01*
X337500Y140439D01*
X338097Y140558D01*
X338604Y140896D01*
X338942Y141403D01*
X339061Y142000D01*
X338942Y142597D01*
X338604Y143104D01*
X338511Y143166D01*
X338656Y143670D01*
X339097Y143758D01*
X339604Y144096D01*
X339942Y144603D01*
X340061Y145200D01*
X339942Y145797D01*
X339604Y146304D01*
X339097Y146642D01*
X338500Y146761D01*
D02*
G37*
G36*
X44900Y143461D02*
X44303Y143342D01*
X43796Y143004D01*
X43458Y142497D01*
X43339Y141900D01*
X43458Y141303D01*
X43796Y140796D01*
X44303Y140458D01*
X44900Y140339D01*
X45497Y140458D01*
X46004Y140796D01*
X46342Y141303D01*
X46461Y141900D01*
X46342Y142497D01*
X46004Y143004D01*
X45497Y143342D01*
X44900Y143461D01*
D02*
G37*
G36*
X403000Y143061D02*
X402403Y142942D01*
X401896Y142604D01*
X401558Y142097D01*
X401439Y141500D01*
X401558Y140903D01*
X401896Y140396D01*
X402403Y140058D01*
X403000Y139939D01*
X403597Y140058D01*
X404104Y140396D01*
X404442Y140903D01*
X404561Y141500D01*
X404442Y142097D01*
X404104Y142604D01*
X403597Y142942D01*
X403000Y143061D01*
D02*
G37*
G36*
X274000D02*
X273403Y142942D01*
X272896Y142604D01*
X272558Y142097D01*
X272439Y141500D01*
X272558Y140903D01*
X272896Y140396D01*
X273403Y140058D01*
X274000Y139939D01*
X274597Y140058D01*
X275104Y140396D01*
X275442Y140903D01*
X275561Y141500D01*
X275442Y142097D01*
X275104Y142604D01*
X274597Y142942D01*
X274000Y143061D01*
D02*
G37*
G36*
X228500Y141061D02*
X227903Y140942D01*
X227396Y140604D01*
X227058Y140097D01*
X226939Y139500D01*
X227058Y138903D01*
X227396Y138396D01*
X227903Y138058D01*
X228500Y137939D01*
X229097Y138058D01*
X229604Y138396D01*
X229942Y138903D01*
X230061Y139500D01*
X229942Y140097D01*
X229604Y140604D01*
X229097Y140942D01*
X228500Y141061D01*
D02*
G37*
G36*
X44900Y137761D02*
X44303Y137642D01*
X43796Y137304D01*
X43458Y136797D01*
X43339Y136200D01*
X43458Y135603D01*
X43796Y135096D01*
X44303Y134758D01*
X44900Y134639D01*
X45497Y134758D01*
X46004Y135096D01*
X46342Y135603D01*
X46461Y136200D01*
X46342Y136797D01*
X46004Y137304D01*
X45497Y137642D01*
X44900Y137761D01*
D02*
G37*
G36*
X-42000Y137010D02*
X-42597Y136891D01*
X-43104Y136553D01*
X-43442Y136046D01*
X-43561Y135449D01*
X-43442Y134851D01*
X-43104Y134345D01*
X-42597Y134007D01*
X-42000Y133888D01*
X-41403Y134007D01*
X-40896Y134345D01*
X-40558Y134851D01*
X-40439Y135449D01*
X-40558Y136046D01*
X-40896Y136553D01*
X-41403Y136891D01*
X-42000Y137010D01*
D02*
G37*
G36*
X293500Y135561D02*
X292903Y135442D01*
X292396Y135104D01*
X292058Y134597D01*
X291939Y134000D01*
X292058Y133403D01*
X292396Y132896D01*
X292903Y132558D01*
X293500Y132439D01*
X294097Y132558D01*
X294604Y132896D01*
X294942Y133403D01*
X295061Y134000D01*
X294942Y134597D01*
X294604Y135104D01*
X294097Y135442D01*
X293500Y135561D01*
D02*
G37*
G36*
X232000Y135061D02*
X231403Y134942D01*
X230896Y134604D01*
X230558Y134097D01*
X230439Y133500D01*
X230558Y132903D01*
X230896Y132396D01*
X231403Y132058D01*
X232000Y131939D01*
X232597Y132058D01*
X233104Y132396D01*
X233442Y132903D01*
X233561Y133500D01*
X233442Y134097D01*
X233104Y134604D01*
X232597Y134942D01*
X232000Y135061D01*
D02*
G37*
G36*
X338500Y136761D02*
X337903Y136642D01*
X337396Y136304D01*
X337058Y135797D01*
X336939Y135200D01*
X337058Y134603D01*
X337305Y134232D01*
X337192Y133797D01*
X337116Y133685D01*
X336903Y133642D01*
X336396Y133304D01*
X336058Y132797D01*
X335939Y132200D01*
X336058Y131603D01*
X336396Y131096D01*
X336903Y130758D01*
X337500Y130639D01*
X338097Y130758D01*
X338604Y131096D01*
X338942Y131603D01*
X339061Y132200D01*
X338942Y132797D01*
X338695Y133168D01*
X338808Y133603D01*
X338884Y133715D01*
X339097Y133758D01*
X339604Y134096D01*
X339942Y134603D01*
X340061Y135200D01*
X339942Y135797D01*
X339604Y136304D01*
X339097Y136642D01*
X338500Y136761D01*
D02*
G37*
G36*
X430100Y132561D02*
X429503Y132442D01*
X428996Y132104D01*
X428658Y131597D01*
X428539Y131000D01*
X428658Y130403D01*
X428996Y129896D01*
X429503Y129558D01*
X430100Y129439D01*
X430697Y129558D01*
X431204Y129896D01*
X431542Y130403D01*
X431661Y131000D01*
X431542Y131597D01*
X431204Y132104D01*
X430697Y132442D01*
X430100Y132561D01*
D02*
G37*
G36*
X44900Y132061D02*
X44303Y131942D01*
X43796Y131604D01*
X43458Y131097D01*
X43339Y130500D01*
X43458Y129903D01*
X43796Y129396D01*
X44303Y129058D01*
X44900Y128939D01*
X45497Y129058D01*
X46004Y129396D01*
X46342Y129903D01*
X46461Y130500D01*
X46342Y131097D01*
X46004Y131604D01*
X45497Y131942D01*
X44900Y132061D01*
D02*
G37*
G36*
X533000Y139118D02*
X531675Y138944D01*
X530441Y138433D01*
X529381Y137619D01*
X528568Y136559D01*
X528056Y135325D01*
X527882Y134000D01*
X528056Y132675D01*
X528568Y131441D01*
X529381Y130381D01*
X530441Y129568D01*
X531675Y129056D01*
X533000Y128882D01*
X534325Y129056D01*
X535559Y129568D01*
X536619Y130381D01*
X537432Y131441D01*
X537944Y132675D01*
X538118Y134000D01*
X537944Y135325D01*
X537432Y136559D01*
X536619Y137619D01*
X535559Y138433D01*
X534325Y138944D01*
X533000Y139118D01*
D02*
G37*
G36*
X227500Y131161D02*
X226903Y131042D01*
X226396Y130704D01*
X226058Y130197D01*
X225939Y129600D01*
X226058Y129003D01*
X226396Y128496D01*
X226903Y128158D01*
X227500Y128039D01*
X228097Y128158D01*
X228604Y128496D01*
X228942Y129003D01*
X229061Y129600D01*
X228942Y130197D01*
X228604Y130704D01*
X228097Y131042D01*
X227500Y131161D01*
D02*
G37*
G36*
X800Y140900D02*
X780Y140880D01*
X780Y140408D01*
Y125800D01*
X31396D01*
X31500Y125904D01*
Y140796D01*
X1273Y140898D01*
X800Y140900D01*
D02*
G37*
G36*
X198500Y127561D02*
X197903Y127442D01*
X197396Y127104D01*
X197058Y126597D01*
X196939Y126000D01*
X197058Y125403D01*
X197396Y124896D01*
X197903Y124558D01*
X198500Y124439D01*
X199097Y124558D01*
X199604Y124896D01*
X199942Y125403D01*
X200061Y126000D01*
X199942Y126597D01*
X199604Y127104D01*
X199097Y127442D01*
X198500Y127561D01*
D02*
G37*
G36*
X44900Y126361D02*
X44303Y126242D01*
X43796Y125904D01*
X43458Y125397D01*
X43339Y124800D01*
X43458Y124203D01*
X43796Y123696D01*
X44303Y123358D01*
X44900Y123239D01*
X45497Y123358D01*
X46004Y123696D01*
X46342Y124203D01*
X46461Y124800D01*
X46342Y125397D01*
X46004Y125904D01*
X45497Y126242D01*
X44900Y126361D01*
D02*
G37*
G36*
X293500Y125561D02*
X292903Y125442D01*
X292396Y125104D01*
X292058Y124597D01*
X291939Y124000D01*
X292058Y123403D01*
X292396Y122896D01*
X292903Y122558D01*
X293500Y122439D01*
X294097Y122558D01*
X294604Y122896D01*
X294942Y123403D01*
X295061Y124000D01*
X294942Y124597D01*
X294604Y125104D01*
X294097Y125442D01*
X293500Y125561D01*
D02*
G37*
G36*
X127100Y124761D02*
X126503Y124642D01*
X125996Y124304D01*
X125658Y123797D01*
X125539Y123200D01*
X125658Y122603D01*
X125996Y122096D01*
X126503Y121758D01*
X127100Y121639D01*
X127697Y121758D01*
X128204Y122096D01*
X128542Y122603D01*
X128661Y123200D01*
X128542Y123797D01*
X128204Y124304D01*
X127697Y124642D01*
X127100Y124761D01*
D02*
G37*
G36*
X-28000Y124061D02*
X-28597Y123942D01*
X-29104Y123604D01*
X-29442Y123097D01*
X-29561Y122500D01*
X-29442Y121903D01*
X-29104Y121396D01*
X-28597Y121058D01*
X-28000Y120939D01*
X-27403Y121058D01*
X-26896Y121396D01*
X-26558Y121903D01*
X-26439Y122500D01*
X-26558Y123097D01*
X-26896Y123604D01*
X-27403Y123942D01*
X-28000Y124061D01*
D02*
G37*
G36*
X338500Y126661D02*
X337903Y126542D01*
X337396Y126204D01*
X337058Y125697D01*
X336939Y125100D01*
X337058Y124503D01*
X337364Y124044D01*
X337323Y123783D01*
X337228Y123507D01*
X336903Y123442D01*
X336396Y123104D01*
X336058Y122597D01*
X335939Y122000D01*
X336058Y121403D01*
X336396Y120896D01*
X336903Y120558D01*
X337500Y120439D01*
X338097Y120558D01*
X338604Y120896D01*
X338942Y121403D01*
X339061Y122000D01*
X338942Y122597D01*
X338636Y123056D01*
X338677Y123317D01*
X338772Y123593D01*
X339097Y123658D01*
X339604Y123996D01*
X339942Y124503D01*
X340061Y125100D01*
X339942Y125697D01*
X339604Y126204D01*
X339097Y126542D01*
X338500Y126661D01*
D02*
G37*
G36*
X141200Y122804D02*
X140603Y122686D01*
X140096Y122347D01*
X139758Y121841D01*
X139639Y121243D01*
X139758Y120646D01*
X140096Y120139D01*
X140603Y119801D01*
X141200Y119682D01*
X141797Y119801D01*
X142304Y120139D01*
X142642Y120646D01*
X142761Y121243D01*
X142642Y121841D01*
X142304Y122347D01*
X141797Y122686D01*
X141200Y122804D01*
D02*
G37*
G36*
X164000Y122061D02*
X163403Y121942D01*
X162896Y121604D01*
X162558Y121097D01*
X162439Y120500D01*
X162558Y119903D01*
X162896Y119396D01*
X163403Y119058D01*
X164000Y118939D01*
X164597Y119058D01*
X165104Y119396D01*
X165442Y119903D01*
X165561Y120500D01*
X165442Y121097D01*
X165104Y121604D01*
X164597Y121942D01*
X164000Y122061D01*
D02*
G37*
G36*
X465722Y120083D02*
X465125Y119964D01*
X464618Y119626D01*
X464280Y119120D01*
X464204Y118738D01*
X464045Y118690D01*
X463684Y118685D01*
X463404Y119104D01*
X462897Y119442D01*
X462300Y119561D01*
X461703Y119442D01*
X461196Y119104D01*
X460858Y118597D01*
X460739Y118000D01*
X460858Y117403D01*
X461196Y116896D01*
X461703Y116558D01*
X462300Y116439D01*
X462897Y116558D01*
X463404Y116896D01*
X463742Y117403D01*
X463818Y117784D01*
X463977Y117833D01*
X464338Y117837D01*
X464618Y117418D01*
X465125Y117080D01*
X465722Y116961D01*
X466319Y117080D01*
X466826Y117418D01*
X467164Y117925D01*
X467283Y118522D01*
X467164Y119120D01*
X466826Y119626D01*
X466319Y119964D01*
X465722Y120083D01*
D02*
G37*
G36*
X207500Y120361D02*
X206903Y120242D01*
X206396Y119904D01*
X206058Y119397D01*
X205939Y118800D01*
X206058Y118203D01*
X206396Y117696D01*
X206903Y117358D01*
X207500Y117239D01*
X208097Y117358D01*
X208604Y117696D01*
X208942Y118203D01*
X209061Y118800D01*
X208942Y119397D01*
X208604Y119904D01*
X208097Y120242D01*
X207500Y120361D01*
D02*
G37*
G36*
X445500Y119061D02*
X444903Y118942D01*
X444396Y118604D01*
X444058Y118097D01*
X443939Y117500D01*
X444058Y116903D01*
X444396Y116396D01*
X444903Y116058D01*
X445500Y115939D01*
X446097Y116058D01*
X446604Y116396D01*
X446942Y116903D01*
X447061Y117500D01*
X446942Y118097D01*
X446604Y118604D01*
X446097Y118942D01*
X445500Y119061D01*
D02*
G37*
G36*
X449565Y118696D02*
X448968Y118577D01*
X448461Y118238D01*
X448123Y117732D01*
X448004Y117135D01*
X448123Y116537D01*
X448461Y116031D01*
X448968Y115692D01*
X449565Y115574D01*
X450163Y115692D01*
X450669Y116031D01*
X451008Y116537D01*
X451126Y117135D01*
X451008Y117732D01*
X450669Y118238D01*
X450163Y118577D01*
X449565Y118696D01*
D02*
G37*
G36*
X403000Y117561D02*
X402403Y117442D01*
X401896Y117104D01*
X401558Y116597D01*
X401439Y116000D01*
X401558Y115403D01*
X401896Y114896D01*
X402403Y114558D01*
X403000Y114439D01*
X403597Y114558D01*
X404104Y114896D01*
X404442Y115403D01*
X404561Y116000D01*
X404442Y116597D01*
X404104Y117104D01*
X403597Y117442D01*
X403000Y117561D01*
D02*
G37*
G36*
X156815Y116801D02*
X156294Y116698D01*
X155853Y116403D01*
X155558Y115962D01*
X155455Y115441D01*
X155558Y114920D01*
X155853Y114479D01*
X156294Y114184D01*
X156815Y114081D01*
X157336Y114184D01*
X157777Y114479D01*
X158072Y114920D01*
X158175Y115441D01*
X158072Y115962D01*
X157777Y116403D01*
X157336Y116698D01*
X156815Y116801D01*
D02*
G37*
G36*
X152484D02*
X151964Y116698D01*
X151522Y116403D01*
X151227Y115962D01*
X151124Y115441D01*
X151227Y114920D01*
X151522Y114479D01*
X151964Y114184D01*
X152484Y114081D01*
X153005Y114184D01*
X153446Y114479D01*
X153741Y114920D01*
X153845Y115441D01*
X153741Y115962D01*
X153446Y116403D01*
X153005Y116698D01*
X152484Y116801D01*
D02*
G37*
G36*
X141000Y116061D02*
X140403Y115942D01*
X139896Y115604D01*
X139558Y115097D01*
X139439Y114500D01*
X139558Y113903D01*
X139896Y113396D01*
X140403Y113058D01*
X141000Y112939D01*
X141597Y113058D01*
X142104Y113396D01*
X142442Y113903D01*
X142561Y114500D01*
X142442Y115097D01*
X142104Y115604D01*
X141597Y115942D01*
X141000Y116061D01*
D02*
G37*
G36*
X293500Y115561D02*
X292903Y115442D01*
X292396Y115104D01*
X292058Y114597D01*
X291939Y114000D01*
X292058Y113403D01*
X292396Y112896D01*
X292903Y112558D01*
X293500Y112439D01*
X294097Y112558D01*
X294604Y112896D01*
X294942Y113403D01*
X295061Y114000D01*
X294942Y114597D01*
X294604Y115104D01*
X294097Y115442D01*
X293500Y115561D01*
D02*
G37*
G36*
X199500D02*
X198903Y115442D01*
X198396Y115104D01*
X198058Y114597D01*
X197939Y114000D01*
X198058Y113403D01*
X198396Y112896D01*
X198903Y112558D01*
X199500Y112439D01*
X200097Y112558D01*
X200604Y112896D01*
X200942Y113403D01*
X201061Y114000D01*
X200942Y114597D01*
X200604Y115104D01*
X200097Y115442D01*
X199500Y115561D01*
D02*
G37*
G36*
X105500D02*
X104903Y115442D01*
X104396Y115104D01*
X104058Y114597D01*
X103939Y114000D01*
X104058Y113403D01*
X104396Y112896D01*
X104903Y112558D01*
X105500Y112439D01*
X106097Y112558D01*
X106604Y112896D01*
X106942Y113403D01*
X107061Y114000D01*
X106942Y114597D01*
X106604Y115104D01*
X106097Y115442D01*
X105500Y115561D01*
D02*
G37*
G36*
X133000Y127586D02*
X132278Y127443D01*
X131666Y127034D01*
X131257Y126422D01*
X131114Y125700D01*
Y114000D01*
X131257Y113278D01*
X131666Y112666D01*
X132278Y112257D01*
X133000Y112114D01*
X133722Y112257D01*
X134334Y112666D01*
X134743Y113278D01*
X134886Y114000D01*
Y125700D01*
X134743Y126422D01*
X134334Y127034D01*
X133722Y127443D01*
X133000Y127586D01*
D02*
G37*
G36*
X40000Y115061D02*
X39403Y114942D01*
X38896Y114604D01*
X38558Y114097D01*
X38439Y113500D01*
X38558Y112903D01*
X38896Y112396D01*
X39403Y112058D01*
X40000Y111939D01*
X40597Y112058D01*
X41104Y112396D01*
X41442Y112903D01*
X41561Y113500D01*
X41442Y114097D01*
X41104Y114604D01*
X40597Y114942D01*
X40000Y115061D01*
D02*
G37*
G36*
X338500Y116961D02*
X337903Y116842D01*
X337396Y116504D01*
X337058Y115997D01*
X336939Y115400D01*
X337058Y114803D01*
X337396Y114296D01*
X337489Y114234D01*
X337344Y113730D01*
X336903Y113642D01*
X336396Y113304D01*
X336058Y112797D01*
X335939Y112200D01*
X336058Y111603D01*
X336396Y111096D01*
X336903Y110758D01*
X337500Y110639D01*
X338097Y110758D01*
X338604Y111096D01*
X338942Y111603D01*
X339061Y112200D01*
X338942Y112797D01*
X338604Y113304D01*
X338511Y113366D01*
X338656Y113870D01*
X339097Y113958D01*
X339604Y114296D01*
X339942Y114803D01*
X340061Y115400D01*
X339942Y115997D01*
X339604Y116504D01*
X339097Y116842D01*
X338500Y116961D01*
D02*
G37*
G36*
X82500Y112760D02*
X82018Y112664D01*
X81609Y112391D01*
X81336Y111982D01*
X81240Y111500D01*
X81336Y111018D01*
X81609Y110609D01*
X82018Y110336D01*
X82500Y110240D01*
X82982Y110336D01*
X83391Y110609D01*
X83664Y111018D01*
X83760Y111500D01*
X83664Y111982D01*
X83391Y112391D01*
X82982Y112664D01*
X82500Y112760D01*
D02*
G37*
G36*
X30000D02*
X29518Y112664D01*
X29109Y112391D01*
X28836Y111982D01*
X28740Y111500D01*
X28836Y111018D01*
X29109Y110609D01*
X29518Y110336D01*
X30000Y110240D01*
X30482Y110336D01*
X30891Y110609D01*
X31164Y111018D01*
X31260Y111500D01*
X31164Y111982D01*
X30891Y112391D01*
X30482Y112664D01*
X30000Y112760D01*
D02*
G37*
G36*
X22500D02*
X22018Y112664D01*
X21609Y112391D01*
X21336Y111982D01*
X21240Y111500D01*
X21336Y111018D01*
X21609Y110609D01*
X22018Y110336D01*
X22500Y110240D01*
X22982Y110336D01*
X23391Y110609D01*
X23664Y111018D01*
X23760Y111500D01*
X23664Y111982D01*
X23391Y112391D01*
X22982Y112664D01*
X22500Y112760D01*
D02*
G37*
G36*
X15000D02*
X14518Y112664D01*
X14109Y112391D01*
X13836Y111982D01*
X13740Y111500D01*
X13836Y111018D01*
X14109Y110609D01*
X14518Y110336D01*
X15000Y110240D01*
X15482Y110336D01*
X15891Y110609D01*
X16164Y111018D01*
X16260Y111500D01*
X16164Y111982D01*
X15891Y112391D01*
X15482Y112664D01*
X15000Y112760D01*
D02*
G37*
G36*
X7500D02*
X7018Y112664D01*
X6609Y112391D01*
X6336Y111982D01*
X6240Y111500D01*
X6336Y111018D01*
X6609Y110609D01*
X7018Y110336D01*
X7500Y110240D01*
X7982Y110336D01*
X8391Y110609D01*
X8664Y111018D01*
X8760Y111500D01*
X8664Y111982D01*
X8391Y112391D01*
X7982Y112664D01*
X7500Y112760D01*
D02*
G37*
G36*
X156815Y112471D02*
X156294Y112367D01*
X155853Y112072D01*
X155558Y111631D01*
X155455Y111110D01*
X155558Y110590D01*
X155853Y110148D01*
X156294Y109853D01*
X156815Y109750D01*
X157336Y109853D01*
X157777Y110148D01*
X158072Y110590D01*
X158175Y111110D01*
X158072Y111631D01*
X157777Y112072D01*
X157336Y112367D01*
X156815Y112471D01*
D02*
G37*
G36*
X152484D02*
X151964Y112367D01*
X151522Y112072D01*
X151227Y111631D01*
X151124Y111110D01*
X151227Y110590D01*
X151522Y110148D01*
X151964Y109853D01*
X152484Y109750D01*
X153005Y109853D01*
X153446Y110148D01*
X153741Y110590D01*
X153845Y111110D01*
X153741Y111631D01*
X153446Y112072D01*
X153005Y112367D01*
X152484Y112471D01*
D02*
G37*
G36*
X198500Y109561D02*
X197903Y109442D01*
X197396Y109104D01*
X197058Y108597D01*
X196939Y108000D01*
X197058Y107403D01*
X197396Y106896D01*
X197903Y106558D01*
X198500Y106439D01*
X199097Y106558D01*
X199604Y106896D01*
X199942Y107403D01*
X200061Y108000D01*
X199942Y108597D01*
X199604Y109104D01*
X199097Y109442D01*
X198500Y109561D01*
D02*
G37*
G36*
X113400Y109419D02*
X112803Y109300D01*
X112296Y108961D01*
X111958Y108455D01*
X111839Y107858D01*
X111958Y107260D01*
X112296Y106754D01*
X112803Y106415D01*
X113400Y106296D01*
X113997Y106415D01*
X114504Y106754D01*
X114842Y107260D01*
X114961Y107858D01*
X114842Y108455D01*
X114504Y108961D01*
X113997Y109300D01*
X113400Y109419D01*
D02*
G37*
G36*
X332000Y145000D02*
X300000D01*
Y106229D01*
X299500Y105962D01*
X299000Y106061D01*
X298403Y105942D01*
X297896Y105604D01*
X297558Y105097D01*
X297439Y104500D01*
X297558Y103903D01*
X297896Y103396D01*
X298403Y103058D01*
X299000Y102939D01*
X299500Y103038D01*
X300000Y103000D01*
X300000Y103000D01*
X300000Y103000D01*
X332000D01*
Y145000D01*
D02*
G37*
G36*
X500100Y106569D02*
X499618Y106473D01*
X499209Y106200D01*
X499028Y105928D01*
X498950Y105905D01*
X498550D01*
X498472Y105928D01*
X498291Y106200D01*
X497882Y106473D01*
X497400Y106569D01*
X496918Y106473D01*
X496509Y106200D01*
X496236Y105791D01*
X496140Y105309D01*
X496236Y104826D01*
X496509Y104418D01*
X496918Y104145D01*
X497400Y104049D01*
X497882Y104145D01*
X498291Y104418D01*
X498472Y104689D01*
X498550Y104712D01*
X498950D01*
X499028Y104689D01*
X499209Y104418D01*
X499618Y104145D01*
X500100Y104049D01*
X500582Y104145D01*
X500991Y104418D01*
X501264Y104826D01*
X501360Y105309D01*
X501264Y105791D01*
X500991Y106200D01*
X500582Y106473D01*
X500100Y106569D01*
D02*
G37*
G36*
X156815Y108140D02*
X156294Y108036D01*
X155853Y107741D01*
X155558Y107300D01*
X155455Y106780D01*
X155558Y106259D01*
X155853Y105818D01*
X156294Y105523D01*
X156815Y105419D01*
X157336Y105523D01*
X157777Y105818D01*
X158072Y106259D01*
X158175Y106780D01*
X158072Y107300D01*
X157777Y107741D01*
X157336Y108036D01*
X156815Y108140D01*
D02*
G37*
G36*
X152484D02*
X151964Y108036D01*
X151522Y107741D01*
X151227Y107300D01*
X151124Y106780D01*
X151227Y106259D01*
X151522Y105818D01*
X151964Y105523D01*
X152484Y105419D01*
X153005Y105523D01*
X153446Y105818D01*
X153741Y106259D01*
X153845Y106780D01*
X153741Y107300D01*
X153446Y107741D01*
X153005Y108036D01*
X152484Y108140D01*
D02*
G37*
G36*
X430100Y106612D02*
X429503Y106493D01*
X428996Y106155D01*
X428658Y105649D01*
X428539Y105051D01*
X428658Y104454D01*
X428996Y103947D01*
X429503Y103609D01*
X430100Y103490D01*
X430697Y103609D01*
X431204Y103947D01*
X431542Y104454D01*
X431661Y105051D01*
X431542Y105649D01*
X431204Y106155D01*
X430697Y106493D01*
X430100Y106612D01*
D02*
G37*
G36*
X177000Y106561D02*
X176403Y106442D01*
X175896Y106104D01*
X175558Y105597D01*
X175439Y105000D01*
X175558Y104403D01*
X175896Y103896D01*
X176403Y103558D01*
X177000Y103439D01*
X177597Y103558D01*
X178104Y103896D01*
X178442Y104403D01*
X178561Y105000D01*
X178442Y105597D01*
X178104Y106104D01*
X177597Y106442D01*
X177000Y106561D01*
D02*
G37*
G36*
X33750Y105260D02*
X33268Y105164D01*
X32859Y104891D01*
X32586Y104482D01*
X32490Y104000D01*
X32586Y103518D01*
X32859Y103109D01*
X33268Y102836D01*
X33750Y102740D01*
X34232Y102836D01*
X34641Y103109D01*
X34914Y103518D01*
X35010Y104000D01*
X34914Y104482D01*
X34641Y104891D01*
X34232Y105164D01*
X33750Y105260D01*
D02*
G37*
G36*
X26250D02*
X25768Y105164D01*
X25359Y104891D01*
X25086Y104482D01*
X24990Y104000D01*
X25086Y103518D01*
X25359Y103109D01*
X25768Y102836D01*
X26250Y102740D01*
X26732Y102836D01*
X27141Y103109D01*
X27414Y103518D01*
X27510Y104000D01*
X27414Y104482D01*
X27141Y104891D01*
X26732Y105164D01*
X26250Y105260D01*
D02*
G37*
G36*
X18750D02*
X18268Y105164D01*
X17859Y104891D01*
X17586Y104482D01*
X17490Y104000D01*
X17586Y103518D01*
X17859Y103109D01*
X18268Y102836D01*
X18750Y102740D01*
X19232Y102836D01*
X19641Y103109D01*
X19914Y103518D01*
X20010Y104000D01*
X19914Y104482D01*
X19641Y104891D01*
X19232Y105164D01*
X18750Y105260D01*
D02*
G37*
G36*
X11250D02*
X10768Y105164D01*
X10359Y104891D01*
X10086Y104482D01*
X9990Y104000D01*
X10086Y103518D01*
X10359Y103109D01*
X10768Y102836D01*
X11250Y102740D01*
X11732Y102836D01*
X12141Y103109D01*
X12414Y103518D01*
X12510Y104000D01*
X12414Y104482D01*
X12141Y104891D01*
X11732Y105164D01*
X11250Y105260D01*
D02*
G37*
G36*
X164000Y103561D02*
X163403Y103442D01*
X162896Y103104D01*
X162558Y102597D01*
X162439Y102000D01*
X162558Y101403D01*
X162896Y100896D01*
X163403Y100558D01*
X164000Y100439D01*
X164597Y100558D01*
X165104Y100896D01*
X165442Y101403D01*
X165561Y102000D01*
X165442Y102597D01*
X165104Y103104D01*
X164597Y103442D01*
X164000Y103561D01*
D02*
G37*
G36*
X500141Y102910D02*
X499659Y102814D01*
X499250Y102541D01*
X498977Y102132D01*
X498881Y101650D01*
X498977Y101168D01*
X499250Y100759D01*
X499659Y100486D01*
X500141Y100390D01*
X500624Y100486D01*
X501032Y100759D01*
X501305Y101168D01*
X501401Y101650D01*
X501305Y102132D01*
X501032Y102541D01*
X500624Y102814D01*
X500141Y102910D01*
D02*
G37*
G36*
X67500Y97760D02*
X67018Y97664D01*
X66609Y97391D01*
X66336Y96982D01*
X66240Y96500D01*
X66336Y96018D01*
X66609Y95609D01*
X67018Y95336D01*
X67500Y95240D01*
X67982Y95336D01*
X68391Y95609D01*
X68664Y96018D01*
X68760Y96500D01*
X68664Y96982D01*
X68391Y97391D01*
X67982Y97664D01*
X67500Y97760D01*
D02*
G37*
G36*
X60000D02*
X59518Y97664D01*
X59109Y97391D01*
X58836Y96982D01*
X58740Y96500D01*
X58836Y96018D01*
X59109Y95609D01*
X59518Y95336D01*
X60000Y95240D01*
X60482Y95336D01*
X60891Y95609D01*
X61164Y96018D01*
X61260Y96500D01*
X61164Y96982D01*
X60891Y97391D01*
X60482Y97664D01*
X60000Y97760D01*
D02*
G37*
G36*
X52500D02*
X52018Y97664D01*
X51609Y97391D01*
X51336Y96982D01*
X51240Y96500D01*
X51336Y96018D01*
X51609Y95609D01*
X52018Y95336D01*
X52500Y95240D01*
X52982Y95336D01*
X53391Y95609D01*
X53664Y96018D01*
X53760Y96500D01*
X53664Y96982D01*
X53391Y97391D01*
X52982Y97664D01*
X52500Y97760D01*
D02*
G37*
G36*
X45000D02*
X44518Y97664D01*
X44109Y97391D01*
X43836Y96982D01*
X43740Y96500D01*
X43836Y96018D01*
X44109Y95609D01*
X44518Y95336D01*
X45000Y95240D01*
X45482Y95336D01*
X45891Y95609D01*
X46164Y96018D01*
X46260Y96500D01*
X46164Y96982D01*
X45891Y97391D01*
X45482Y97664D01*
X45000Y97760D01*
D02*
G37*
G36*
X22500D02*
X22018Y97664D01*
X21609Y97391D01*
X21336Y96982D01*
X21240Y96500D01*
X21336Y96018D01*
X21609Y95609D01*
X22018Y95336D01*
X22500Y95240D01*
X22982Y95336D01*
X23391Y95609D01*
X23664Y96018D01*
X23760Y96500D01*
X23664Y96982D01*
X23391Y97391D01*
X22982Y97664D01*
X22500Y97760D01*
D02*
G37*
G36*
X15000D02*
X14518Y97664D01*
X14109Y97391D01*
X13836Y96982D01*
X13740Y96500D01*
X13836Y96018D01*
X14109Y95609D01*
X14518Y95336D01*
X15000Y95240D01*
X15482Y95336D01*
X15891Y95609D01*
X16164Y96018D01*
X16260Y96500D01*
X16164Y96982D01*
X15891Y97391D01*
X15482Y97664D01*
X15000Y97760D01*
D02*
G37*
G36*
X7500D02*
X7018Y97664D01*
X6609Y97391D01*
X6336Y96982D01*
X6240Y96500D01*
X6336Y96018D01*
X6609Y95609D01*
X7018Y95336D01*
X7500Y95240D01*
X7982Y95336D01*
X8391Y95609D01*
X8664Y96018D01*
X8760Y96500D01*
X8664Y96982D01*
X8391Y97391D01*
X7982Y97664D01*
X7500Y97760D01*
D02*
G37*
G36*
X167500Y97561D02*
X166903Y97442D01*
X166396Y97104D01*
X166058Y96597D01*
X165939Y96000D01*
X166058Y95403D01*
X166396Y94896D01*
X166903Y94558D01*
X167500Y94439D01*
X168097Y94558D01*
X168604Y94896D01*
X168942Y95403D01*
X169061Y96000D01*
X168942Y96597D01*
X168604Y97104D01*
X168097Y97442D01*
X167500Y97561D01*
D02*
G37*
G36*
X448400Y94361D02*
X447803Y94242D01*
X447296Y93904D01*
X446958Y93397D01*
X446931Y93264D01*
X446795Y93181D01*
X446385Y93083D01*
X445997Y93342D01*
X445400Y93461D01*
X444803Y93342D01*
X444296Y93004D01*
X443958Y92497D01*
X443839Y91900D01*
X443958Y91303D01*
X444296Y90796D01*
X444803Y90458D01*
X445400Y90339D01*
X445997Y90458D01*
X446504Y90796D01*
X446842Y91303D01*
X446869Y91436D01*
X447005Y91519D01*
X447415Y91617D01*
X447803Y91358D01*
X448400Y91239D01*
X448997Y91358D01*
X449504Y91696D01*
X449842Y92203D01*
X449961Y92800D01*
X449842Y93397D01*
X449504Y93904D01*
X448997Y94242D01*
X448400Y94361D01*
D02*
G37*
G36*
X162700Y93761D02*
X162103Y93642D01*
X161596Y93304D01*
X161258Y92797D01*
X161139Y92200D01*
X161258Y91603D01*
X161596Y91096D01*
X162103Y90758D01*
X162700Y90639D01*
X163297Y90758D01*
X163804Y91096D01*
X164142Y91603D01*
X164261Y92200D01*
X164142Y92797D01*
X163804Y93304D01*
X163297Y93642D01*
X162700Y93761D01*
D02*
G37*
G36*
X262500Y91061D02*
X261903Y90942D01*
X261396Y90604D01*
X261058Y90097D01*
X260939Y89500D01*
X261058Y88903D01*
X261396Y88396D01*
X261903Y88058D01*
X262500Y87939D01*
X263097Y88058D01*
X263604Y88396D01*
X263942Y88903D01*
X264061Y89500D01*
X263942Y90097D01*
X263604Y90604D01*
X263097Y90942D01*
X262500Y91061D01*
D02*
G37*
G36*
X108750Y90260D02*
X108268Y90164D01*
X107859Y89891D01*
X107586Y89482D01*
X107490Y89000D01*
X107586Y88518D01*
X107859Y88109D01*
X108268Y87836D01*
X108750Y87740D01*
X109232Y87836D01*
X109641Y88109D01*
X109914Y88518D01*
X110010Y89000D01*
X109914Y89482D01*
X109641Y89891D01*
X109232Y90164D01*
X108750Y90260D01*
D02*
G37*
G36*
X48750D02*
X48268Y90164D01*
X47859Y89891D01*
X47586Y89482D01*
X47490Y89000D01*
X47586Y88518D01*
X47859Y88109D01*
X48268Y87836D01*
X48750Y87740D01*
X49232Y87836D01*
X49641Y88109D01*
X49914Y88518D01*
X50010Y89000D01*
X49914Y89482D01*
X49641Y89891D01*
X49232Y90164D01*
X48750Y90260D01*
D02*
G37*
G36*
X33750D02*
X33268Y90164D01*
X32859Y89891D01*
X32586Y89482D01*
X32490Y89000D01*
X32586Y88518D01*
X32859Y88109D01*
X33268Y87836D01*
X33750Y87740D01*
X34232Y87836D01*
X34641Y88109D01*
X34914Y88518D01*
X35010Y89000D01*
X34914Y89482D01*
X34641Y89891D01*
X34232Y90164D01*
X33750Y90260D01*
D02*
G37*
G36*
X26250D02*
X25768Y90164D01*
X25359Y89891D01*
X25086Y89482D01*
X24990Y89000D01*
X25086Y88518D01*
X25359Y88109D01*
X25768Y87836D01*
X26250Y87740D01*
X26732Y87836D01*
X27141Y88109D01*
X27414Y88518D01*
X27510Y89000D01*
X27414Y89482D01*
X27141Y89891D01*
X26732Y90164D01*
X26250Y90260D01*
D02*
G37*
G36*
X18750D02*
X18268Y90164D01*
X17859Y89891D01*
X17586Y89482D01*
X17490Y89000D01*
X17586Y88518D01*
X17859Y88109D01*
X18268Y87836D01*
X18750Y87740D01*
X19232Y87836D01*
X19641Y88109D01*
X19914Y88518D01*
X20010Y89000D01*
X19914Y89482D01*
X19641Y89891D01*
X19232Y90164D01*
X18750Y90260D01*
D02*
G37*
G36*
X11250D02*
X10768Y90164D01*
X10359Y89891D01*
X10086Y89482D01*
X9990Y89000D01*
X10086Y88518D01*
X10359Y88109D01*
X10768Y87836D01*
X11250Y87740D01*
X11732Y87836D01*
X12141Y88109D01*
X12414Y88518D01*
X12510Y89000D01*
X12414Y89482D01*
X12141Y89891D01*
X11732Y90164D01*
X11250Y90260D01*
D02*
G37*
G36*
X270500Y90561D02*
X269903Y90442D01*
X269396Y90104D01*
X269058Y89597D01*
X268939Y89000D01*
X269058Y88403D01*
X269396Y87896D01*
X269903Y87558D01*
X270500Y87439D01*
X271097Y87558D01*
X271604Y87896D01*
X271942Y88403D01*
X272061Y89000D01*
X271942Y89597D01*
X271604Y90104D01*
X271097Y90442D01*
X270500Y90561D01*
D02*
G37*
G36*
X228500Y85561D02*
X227903Y85442D01*
X227396Y85104D01*
X227058Y84597D01*
X226939Y84000D01*
X227058Y83403D01*
X227396Y82896D01*
X227903Y82558D01*
X228500Y82439D01*
X229097Y82558D01*
X229604Y82896D01*
X229942Y83403D01*
X230061Y84000D01*
X229942Y84597D01*
X229604Y85104D01*
X229097Y85442D01*
X228500Y85561D01*
D02*
G37*
G36*
X196320Y85380D02*
X195723Y85261D01*
X195216Y84923D01*
X194878Y84416D01*
X194759Y83819D01*
X194878Y83222D01*
X195216Y82715D01*
X195723Y82377D01*
X196320Y82258D01*
X196918Y82377D01*
X197424Y82715D01*
X197762Y83222D01*
X197881Y83819D01*
X197762Y84416D01*
X197424Y84923D01*
X196918Y85261D01*
X196320Y85380D01*
D02*
G37*
G36*
X210000Y85061D02*
X209403Y84942D01*
X208896Y84604D01*
X208558Y84097D01*
X208439Y83500D01*
X208558Y82903D01*
X208896Y82396D01*
X209403Y82058D01*
X210000Y81939D01*
X210597Y82058D01*
X211104Y82396D01*
X211442Y82903D01*
X211561Y83500D01*
X211442Y84097D01*
X211104Y84604D01*
X210597Y84942D01*
X210000Y85061D01*
D02*
G37*
G36*
X97500Y82760D02*
X97018Y82664D01*
X96609Y82391D01*
X96336Y81982D01*
X96240Y81500D01*
X96336Y81018D01*
X96609Y80609D01*
X97018Y80336D01*
X97500Y80240D01*
X97982Y80336D01*
X98391Y80609D01*
X98664Y81018D01*
X98760Y81500D01*
X98664Y81982D01*
X98391Y82391D01*
X97982Y82664D01*
X97500Y82760D01*
D02*
G37*
G36*
X82500D02*
X82018Y82664D01*
X81609Y82391D01*
X81336Y81982D01*
X81240Y81500D01*
X81336Y81018D01*
X81609Y80609D01*
X82018Y80336D01*
X82500Y80240D01*
X82982Y80336D01*
X83391Y80609D01*
X83664Y81018D01*
X83760Y81500D01*
X83664Y81982D01*
X83391Y82391D01*
X82982Y82664D01*
X82500Y82760D01*
D02*
G37*
G36*
X67500D02*
X67018Y82664D01*
X66609Y82391D01*
X66336Y81982D01*
X66240Y81500D01*
X66336Y81018D01*
X66609Y80609D01*
X67018Y80336D01*
X67500Y80240D01*
X67982Y80336D01*
X68391Y80609D01*
X68664Y81018D01*
X68760Y81500D01*
X68664Y81982D01*
X68391Y82391D01*
X67982Y82664D01*
X67500Y82760D01*
D02*
G37*
G36*
X60000D02*
X59518Y82664D01*
X59109Y82391D01*
X58836Y81982D01*
X58740Y81500D01*
X58836Y81018D01*
X59109Y80609D01*
X59518Y80336D01*
X60000Y80240D01*
X60482Y80336D01*
X60891Y80609D01*
X61164Y81018D01*
X61260Y81500D01*
X61164Y81982D01*
X60891Y82391D01*
X60482Y82664D01*
X60000Y82760D01*
D02*
G37*
G36*
X30000D02*
X29518Y82664D01*
X29109Y82391D01*
X28836Y81982D01*
X28740Y81500D01*
X28836Y81018D01*
X29109Y80609D01*
X29518Y80336D01*
X30000Y80240D01*
X30482Y80336D01*
X30891Y80609D01*
X31164Y81018D01*
X31260Y81500D01*
X31164Y81982D01*
X30891Y82391D01*
X30482Y82664D01*
X30000Y82760D01*
D02*
G37*
G36*
X22500D02*
X22018Y82664D01*
X21609Y82391D01*
X21336Y81982D01*
X21240Y81500D01*
X21336Y81018D01*
X21609Y80609D01*
X22018Y80336D01*
X22500Y80240D01*
X22982Y80336D01*
X23391Y80609D01*
X23664Y81018D01*
X23760Y81500D01*
X23664Y81982D01*
X23391Y82391D01*
X22982Y82664D01*
X22500Y82760D01*
D02*
G37*
G36*
X15000D02*
X14518Y82664D01*
X14109Y82391D01*
X13836Y81982D01*
X13740Y81500D01*
X13836Y81018D01*
X14109Y80609D01*
X14518Y80336D01*
X15000Y80240D01*
X15482Y80336D01*
X15891Y80609D01*
X16164Y81018D01*
X16260Y81500D01*
X16164Y81982D01*
X15891Y82391D01*
X15482Y82664D01*
X15000Y82760D01*
D02*
G37*
G36*
X7500D02*
X7018Y82664D01*
X6609Y82391D01*
X6336Y81982D01*
X6240Y81500D01*
X6336Y81018D01*
X6609Y80609D01*
X7018Y80336D01*
X7500Y80240D01*
X7982Y80336D01*
X8391Y80609D01*
X8664Y81018D01*
X8760Y81500D01*
X8664Y81982D01*
X8391Y82391D01*
X7982Y82664D01*
X7500Y82760D01*
D02*
G37*
G36*
X264500Y83061D02*
X263903Y82942D01*
X263396Y82604D01*
X263058Y82097D01*
X262939Y81500D01*
X263058Y80903D01*
X263396Y80396D01*
X263903Y80058D01*
X264500Y79939D01*
X265097Y80058D01*
X265604Y80396D01*
X265942Y80903D01*
X266061Y81500D01*
X265942Y82097D01*
X265604Y82604D01*
X265097Y82942D01*
X264500Y83061D01*
D02*
G37*
G36*
X221315Y80337D02*
X220794Y80233D01*
X220353Y79938D01*
X220058Y79497D01*
X219955Y78976D01*
X220058Y78456D01*
X220353Y78014D01*
X220794Y77719D01*
X221315Y77616D01*
X221836Y77719D01*
X222277Y78014D01*
X222572Y78456D01*
X222675Y78976D01*
X222572Y79497D01*
X222277Y79938D01*
X221836Y80233D01*
X221315Y80337D01*
D02*
G37*
G36*
X216984D02*
X216464Y80233D01*
X216022Y79938D01*
X215727Y79497D01*
X215624Y78976D01*
X215727Y78456D01*
X216022Y78014D01*
X216464Y77719D01*
X216984Y77616D01*
X217505Y77719D01*
X217946Y78014D01*
X218241Y78456D01*
X218345Y78976D01*
X218241Y79497D01*
X217946Y79938D01*
X217505Y80233D01*
X216984Y80337D01*
D02*
G37*
G36*
X205500Y79061D02*
X204903Y78942D01*
X204396Y78604D01*
X204058Y78097D01*
X203939Y77500D01*
X204058Y76903D01*
X204396Y76396D01*
X204903Y76058D01*
X205500Y75939D01*
X206097Y76058D01*
X206604Y76396D01*
X206942Y76903D01*
X207061Y77500D01*
X206942Y78097D01*
X206604Y78604D01*
X206097Y78942D01*
X205500Y79061D01*
D02*
G37*
G36*
X198500D02*
X197903Y78942D01*
X197396Y78604D01*
X197058Y78097D01*
X196939Y77500D01*
X197058Y76903D01*
X197396Y76396D01*
X197903Y76058D01*
X198500Y75939D01*
X199097Y76058D01*
X199604Y76396D01*
X199942Y76903D01*
X200061Y77500D01*
X199942Y78097D01*
X199604Y78604D01*
X199097Y78942D01*
X198500Y79061D01*
D02*
G37*
G36*
X507000Y75061D02*
X506403Y74942D01*
X506110Y74747D01*
X505750Y74645D01*
X505390Y74747D01*
X505097Y74942D01*
X504500Y75061D01*
X503903Y74942D01*
X503610Y74747D01*
X503250Y74645D01*
X502890Y74747D01*
X502597Y74942D01*
X502000Y75061D01*
X501403Y74942D01*
X500896Y74604D01*
X500558Y74097D01*
X500439Y73500D01*
X500558Y72903D01*
X500896Y72396D01*
X501403Y72058D01*
X502000Y71939D01*
X502597Y72058D01*
X502890Y72253D01*
X503250Y72355D01*
X503610Y72253D01*
X503903Y72058D01*
X504500Y71939D01*
X505097Y72058D01*
X505390Y72253D01*
X505750Y72355D01*
X506110Y72253D01*
X506403Y72058D01*
X507000Y71939D01*
X507597Y72058D01*
X508104Y72396D01*
X508442Y72903D01*
X508561Y73500D01*
X508442Y74097D01*
X508104Y74604D01*
X507597Y74942D01*
X507000Y75061D01*
D02*
G37*
G36*
X191000Y77361D02*
X190403Y77242D01*
X189896Y76904D01*
X189558Y76397D01*
X189439Y75800D01*
X189558Y75203D01*
X189896Y74696D01*
X190403Y74358D01*
X191000Y74239D01*
X191597Y74358D01*
X192104Y74696D01*
X192442Y75203D01*
X192561Y75800D01*
X192442Y76397D01*
X192104Y76904D01*
X191597Y77242D01*
X191000Y77361D01*
D02*
G37*
G36*
X221315Y76006D02*
X220794Y75902D01*
X220353Y75608D01*
X220058Y75166D01*
X219955Y74646D01*
X220058Y74125D01*
X220353Y73684D01*
X220794Y73389D01*
X221315Y73285D01*
X221836Y73389D01*
X222277Y73684D01*
X222572Y74125D01*
X222675Y74646D01*
X222572Y75166D01*
X222277Y75608D01*
X221836Y75902D01*
X221315Y76006D01*
D02*
G37*
G36*
X216984D02*
X216464Y75902D01*
X216022Y75608D01*
X215727Y75166D01*
X215624Y74646D01*
X215727Y74125D01*
X216022Y73684D01*
X216464Y73389D01*
X216984Y73285D01*
X217505Y73389D01*
X217946Y73684D01*
X218241Y74125D01*
X218345Y74646D01*
X218241Y75166D01*
X217946Y75608D01*
X217505Y75902D01*
X216984Y76006D01*
D02*
G37*
G36*
X131250Y75260D02*
X130768Y75164D01*
X130359Y74891D01*
X130086Y74482D01*
X129990Y74000D01*
X130086Y73518D01*
X130359Y73109D01*
X130768Y72836D01*
X131250Y72740D01*
X131732Y72836D01*
X132141Y73109D01*
X132414Y73518D01*
X132510Y74000D01*
X132414Y74482D01*
X132141Y74891D01*
X131732Y75164D01*
X131250Y75260D01*
D02*
G37*
G36*
X123750D02*
X123268Y75164D01*
X122859Y74891D01*
X122586Y74482D01*
X122490Y74000D01*
X122586Y73518D01*
X122859Y73109D01*
X123268Y72836D01*
X123750Y72740D01*
X124232Y72836D01*
X124641Y73109D01*
X124914Y73518D01*
X125010Y74000D01*
X124914Y74482D01*
X124641Y74891D01*
X124232Y75164D01*
X123750Y75260D01*
D02*
G37*
G36*
X101250D02*
X100768Y75164D01*
X100359Y74891D01*
X100086Y74482D01*
X99990Y74000D01*
X100086Y73518D01*
X100359Y73109D01*
X100768Y72836D01*
X101250Y72740D01*
X101732Y72836D01*
X102141Y73109D01*
X102414Y73518D01*
X102510Y74000D01*
X102414Y74482D01*
X102141Y74891D01*
X101732Y75164D01*
X101250Y75260D01*
D02*
G37*
G36*
X93750D02*
X93268Y75164D01*
X92859Y74891D01*
X92586Y74482D01*
X92490Y74000D01*
X92586Y73518D01*
X92859Y73109D01*
X93268Y72836D01*
X93750Y72740D01*
X94232Y72836D01*
X94641Y73109D01*
X94914Y73518D01*
X95010Y74000D01*
X94914Y74482D01*
X94641Y74891D01*
X94232Y75164D01*
X93750Y75260D01*
D02*
G37*
G36*
X86250D02*
X85768Y75164D01*
X85359Y74891D01*
X85086Y74482D01*
X84990Y74000D01*
X85086Y73518D01*
X85359Y73109D01*
X85768Y72836D01*
X86250Y72740D01*
X86732Y72836D01*
X87141Y73109D01*
X87414Y73518D01*
X87510Y74000D01*
X87414Y74482D01*
X87141Y74891D01*
X86732Y75164D01*
X86250Y75260D01*
D02*
G37*
G36*
X78750D02*
X78268Y75164D01*
X77859Y74891D01*
X77586Y74482D01*
X77490Y74000D01*
X77586Y73518D01*
X77859Y73109D01*
X78268Y72836D01*
X78750Y72740D01*
X79232Y72836D01*
X79641Y73109D01*
X79914Y73518D01*
X80010Y74000D01*
X79914Y74482D01*
X79641Y74891D01*
X79232Y75164D01*
X78750Y75260D01*
D02*
G37*
G36*
X71250D02*
X70768Y75164D01*
X70359Y74891D01*
X70086Y74482D01*
X69990Y74000D01*
X70086Y73518D01*
X70359Y73109D01*
X70768Y72836D01*
X71250Y72740D01*
X71732Y72836D01*
X72141Y73109D01*
X72414Y73518D01*
X72510Y74000D01*
X72414Y74482D01*
X72141Y74891D01*
X71732Y75164D01*
X71250Y75260D01*
D02*
G37*
G36*
X63750D02*
X63268Y75164D01*
X62859Y74891D01*
X62586Y74482D01*
X62490Y74000D01*
X62586Y73518D01*
X62859Y73109D01*
X63268Y72836D01*
X63750Y72740D01*
X64232Y72836D01*
X64641Y73109D01*
X64914Y73518D01*
X65010Y74000D01*
X64914Y74482D01*
X64641Y74891D01*
X64232Y75164D01*
X63750Y75260D01*
D02*
G37*
G36*
X33750D02*
X33268Y75164D01*
X32859Y74891D01*
X32586Y74482D01*
X32490Y74000D01*
X32586Y73518D01*
X32859Y73109D01*
X33268Y72836D01*
X33750Y72740D01*
X34232Y72836D01*
X34641Y73109D01*
X34914Y73518D01*
X35010Y74000D01*
X34914Y74482D01*
X34641Y74891D01*
X34232Y75164D01*
X33750Y75260D01*
D02*
G37*
G36*
X26250D02*
X25768Y75164D01*
X25359Y74891D01*
X25086Y74482D01*
X24990Y74000D01*
X25086Y73518D01*
X25359Y73109D01*
X25768Y72836D01*
X26250Y72740D01*
X26732Y72836D01*
X27141Y73109D01*
X27414Y73518D01*
X27510Y74000D01*
X27414Y74482D01*
X27141Y74891D01*
X26732Y75164D01*
X26250Y75260D01*
D02*
G37*
G36*
X18750D02*
X18268Y75164D01*
X17859Y74891D01*
X17586Y74482D01*
X17490Y74000D01*
X17586Y73518D01*
X17859Y73109D01*
X18268Y72836D01*
X18750Y72740D01*
X19232Y72836D01*
X19641Y73109D01*
X19914Y73518D01*
X20010Y74000D01*
X19914Y74482D01*
X19641Y74891D01*
X19232Y75164D01*
X18750Y75260D01*
D02*
G37*
G36*
X11250D02*
X10768Y75164D01*
X10359Y74891D01*
X10086Y74482D01*
X9990Y74000D01*
X10086Y73518D01*
X10359Y73109D01*
X10768Y72836D01*
X11250Y72740D01*
X11732Y72836D01*
X12141Y73109D01*
X12414Y73518D01*
X12510Y74000D01*
X12414Y74482D01*
X12141Y74891D01*
X11732Y75164D01*
X11250Y75260D01*
D02*
G37*
G36*
X262500Y73561D02*
X261903Y73442D01*
X261396Y73104D01*
X261058Y72597D01*
X260939Y72000D01*
X261058Y71403D01*
X261396Y70896D01*
X261903Y70558D01*
X262500Y70439D01*
X263097Y70558D01*
X263604Y70896D01*
X263942Y71403D01*
X264061Y72000D01*
X263942Y72597D01*
X263604Y73104D01*
X263097Y73442D01*
X262500Y73561D01*
D02*
G37*
G36*
X197500Y72861D02*
X196903Y72742D01*
X196396Y72404D01*
X196058Y71897D01*
X195939Y71300D01*
X196058Y70703D01*
X196396Y70196D01*
X196903Y69858D01*
X197500Y69739D01*
X198097Y69858D01*
X198604Y70196D01*
X198942Y70703D01*
X199061Y71300D01*
X198942Y71897D01*
X198604Y72404D01*
X198097Y72742D01*
X197500Y72861D01*
D02*
G37*
G36*
X221315Y71675D02*
X220794Y71572D01*
X220353Y71277D01*
X220058Y70836D01*
X219955Y70315D01*
X220058Y69794D01*
X220353Y69353D01*
X220794Y69058D01*
X221315Y68955D01*
X221836Y69058D01*
X222277Y69353D01*
X222572Y69794D01*
X222675Y70315D01*
X222572Y70836D01*
X222277Y71277D01*
X221836Y71572D01*
X221315Y71675D01*
D02*
G37*
G36*
X216984D02*
X216464Y71572D01*
X216022Y71277D01*
X215727Y70836D01*
X215624Y70315D01*
X215727Y69794D01*
X216022Y69353D01*
X216464Y69058D01*
X216984Y68955D01*
X217505Y69058D01*
X217946Y69353D01*
X218241Y69794D01*
X218345Y70315D01*
X218241Y70836D01*
X217946Y71277D01*
X217505Y71572D01*
X216984Y71675D01*
D02*
G37*
G36*
X241551Y70061D02*
X240954Y69942D01*
X240447Y69604D01*
X240109Y69097D01*
X239990Y68500D01*
X240109Y67903D01*
X240447Y67396D01*
X240954Y67058D01*
X241551Y66939D01*
X242149Y67058D01*
X242655Y67396D01*
X242993Y67903D01*
X243112Y68500D01*
X242993Y69097D01*
X242655Y69604D01*
X242149Y69942D01*
X241551Y70061D01*
D02*
G37*
G36*
X127500Y67760D02*
X127018Y67664D01*
X126609Y67391D01*
X126336Y66982D01*
X126240Y66500D01*
X126336Y66018D01*
X126609Y65609D01*
X127018Y65336D01*
X127500Y65240D01*
X127982Y65336D01*
X128391Y65609D01*
X128664Y66018D01*
X128760Y66500D01*
X128664Y66982D01*
X128391Y67391D01*
X127982Y67664D01*
X127500Y67760D01*
D02*
G37*
G36*
X112500D02*
X112018Y67664D01*
X111609Y67391D01*
X111336Y66982D01*
X111240Y66500D01*
X111336Y66018D01*
X111609Y65609D01*
X112018Y65336D01*
X112500Y65240D01*
X112982Y65336D01*
X113391Y65609D01*
X113664Y66018D01*
X113760Y66500D01*
X113664Y66982D01*
X113391Y67391D01*
X112982Y67664D01*
X112500Y67760D01*
D02*
G37*
G36*
X105000D02*
X104518Y67664D01*
X104109Y67391D01*
X103836Y66982D01*
X103740Y66500D01*
X103836Y66018D01*
X104109Y65609D01*
X104518Y65336D01*
X105000Y65240D01*
X105482Y65336D01*
X105891Y65609D01*
X106164Y66018D01*
X106260Y66500D01*
X106164Y66982D01*
X105891Y67391D01*
X105482Y67664D01*
X105000Y67760D01*
D02*
G37*
G36*
X67500D02*
X67018Y67664D01*
X66609Y67391D01*
X66336Y66982D01*
X66240Y66500D01*
X66336Y66018D01*
X66609Y65609D01*
X67018Y65336D01*
X67500Y65240D01*
X67982Y65336D01*
X68391Y65609D01*
X68664Y66018D01*
X68760Y66500D01*
X68664Y66982D01*
X68391Y67391D01*
X67982Y67664D01*
X67500Y67760D01*
D02*
G37*
G36*
X228500Y66561D02*
X227903Y66442D01*
X227396Y66104D01*
X227058Y65597D01*
X226939Y65000D01*
X227058Y64403D01*
X227396Y63896D01*
X227903Y63558D01*
X228500Y63439D01*
X229097Y63558D01*
X229604Y63896D01*
X229942Y64403D01*
X230061Y65000D01*
X229942Y65597D01*
X229604Y66104D01*
X229097Y66442D01*
X228500Y66561D01*
D02*
G37*
G36*
X232000Y61061D02*
X231403Y60942D01*
X230896Y60604D01*
X230558Y60097D01*
X230439Y59500D01*
X230558Y58903D01*
X230896Y58396D01*
X231403Y58058D01*
X232000Y57939D01*
X232597Y58058D01*
X233104Y58396D01*
X233442Y58903D01*
X233561Y59500D01*
X233442Y60097D01*
X233104Y60604D01*
X232597Y60942D01*
X232000Y61061D01*
D02*
G37*
G36*
X71250Y60260D02*
X70768Y60164D01*
X70359Y59891D01*
X70086Y59482D01*
X69990Y59000D01*
X70086Y58518D01*
X70359Y58109D01*
X70768Y57836D01*
X71250Y57740D01*
X71732Y57836D01*
X72141Y58109D01*
X72414Y58518D01*
X72510Y59000D01*
X72414Y59482D01*
X72141Y59891D01*
X71732Y60164D01*
X71250Y60260D01*
D02*
G37*
G36*
X63750D02*
X63268Y60164D01*
X62859Y59891D01*
X62586Y59482D01*
X62490Y59000D01*
X62586Y58518D01*
X62859Y58109D01*
X63268Y57836D01*
X63750Y57740D01*
X64232Y57836D01*
X64641Y58109D01*
X64914Y58518D01*
X65010Y59000D01*
X64914Y59482D01*
X64641Y59891D01*
X64232Y60164D01*
X63750Y60260D01*
D02*
G37*
G36*
X337500Y57461D02*
X336903Y57342D01*
X336396Y57004D01*
X336058Y56497D01*
X335939Y55900D01*
X336058Y55303D01*
X336396Y54796D01*
X336903Y54458D01*
X337500Y54339D01*
X338097Y54458D01*
X338604Y54796D01*
X338942Y55303D01*
X339061Y55900D01*
X338942Y56497D01*
X338604Y57004D01*
X338097Y57342D01*
X337500Y57461D01*
D02*
G37*
G36*
X227400Y57261D02*
X226803Y57142D01*
X226296Y56804D01*
X225958Y56297D01*
X225839Y55700D01*
X225958Y55103D01*
X226296Y54596D01*
X226803Y54258D01*
X227400Y54139D01*
X227997Y54258D01*
X228504Y54596D01*
X228842Y55103D01*
X228961Y55700D01*
X228842Y56297D01*
X228504Y56804D01*
X227997Y57142D01*
X227400Y57261D01*
D02*
G37*
G36*
X482559Y55449D02*
X480000D01*
Y52890D01*
X482559D01*
Y55449D01*
D02*
G37*
G36*
X479000D02*
X476441D01*
Y52890D01*
X479000D01*
Y55449D01*
D02*
G37*
G36*
X105000Y52760D02*
X104518Y52664D01*
X104109Y52391D01*
X103836Y51982D01*
X103740Y51500D01*
X103836Y51018D01*
X104109Y50609D01*
X104518Y50336D01*
X105000Y50240D01*
X105482Y50336D01*
X105891Y50609D01*
X106164Y51018D01*
X106260Y51500D01*
X106164Y51982D01*
X105891Y52391D01*
X105482Y52664D01*
X105000Y52760D01*
D02*
G37*
G36*
X97500D02*
X97018Y52664D01*
X96609Y52391D01*
X96336Y51982D01*
X96240Y51500D01*
X96336Y51018D01*
X96609Y50609D01*
X97018Y50336D01*
X97500Y50240D01*
X97982Y50336D01*
X98391Y50609D01*
X98664Y51018D01*
X98760Y51500D01*
X98664Y51982D01*
X98391Y52391D01*
X97982Y52664D01*
X97500Y52760D01*
D02*
G37*
G36*
X90000D02*
X89518Y52664D01*
X89109Y52391D01*
X88836Y51982D01*
X88740Y51500D01*
X88836Y51018D01*
X89109Y50609D01*
X89518Y50336D01*
X90000Y50240D01*
X90482Y50336D01*
X90891Y50609D01*
X91164Y51018D01*
X91260Y51500D01*
X91164Y51982D01*
X90891Y52391D01*
X90482Y52664D01*
X90000Y52760D01*
D02*
G37*
G36*
X67500D02*
X67018Y52664D01*
X66609Y52391D01*
X66336Y51982D01*
X66240Y51500D01*
X66336Y51018D01*
X66609Y50609D01*
X67018Y50336D01*
X67500Y50240D01*
X67982Y50336D01*
X68391Y50609D01*
X68664Y51018D01*
X68760Y51500D01*
X68664Y51982D01*
X68391Y52391D01*
X67982Y52664D01*
X67500Y52760D01*
D02*
G37*
G36*
X60000D02*
X59518Y52664D01*
X59109Y52391D01*
X58836Y51982D01*
X58740Y51500D01*
X58836Y51018D01*
X59109Y50609D01*
X59518Y50336D01*
X60000Y50240D01*
X60482Y50336D01*
X60891Y50609D01*
X61164Y51018D01*
X61260Y51500D01*
X61164Y51982D01*
X60891Y52391D01*
X60482Y52664D01*
X60000Y52760D01*
D02*
G37*
G36*
X482559Y51890D02*
X480000D01*
Y49331D01*
X482559D01*
Y51890D01*
D02*
G37*
G36*
X479000D02*
X476441D01*
Y49331D01*
X479000D01*
Y51890D01*
D02*
G37*
G36*
X327500Y47961D02*
X326903Y47842D01*
X326396Y47504D01*
X326128Y47102D01*
X325939Y47061D01*
X325761D01*
X325572Y47102D01*
X325304Y47504D01*
X324797Y47842D01*
X324200Y47961D01*
X323603Y47842D01*
X323096Y47504D01*
X322758Y46997D01*
X322639Y46400D01*
X322758Y45803D01*
X323096Y45296D01*
X323164Y45251D01*
Y44649D01*
X323096Y44604D01*
X322758Y44097D01*
X322639Y43500D01*
X322758Y42903D01*
X323096Y42396D01*
X323603Y42058D01*
X324200Y41939D01*
X324797Y42058D01*
X325304Y42396D01*
X325606Y42848D01*
X325660Y42866D01*
X325865Y42889D01*
X326146Y42871D01*
X326396Y42496D01*
X326903Y42158D01*
X327500Y42039D01*
X328097Y42158D01*
X328604Y42496D01*
X328942Y43003D01*
X329061Y43600D01*
X328942Y44197D01*
X328608Y44698D01*
X328535Y44816D01*
Y45184D01*
X328608Y45302D01*
X328942Y45803D01*
X329061Y46400D01*
X328942Y46997D01*
X328604Y47504D01*
X328097Y47842D01*
X327500Y47961D01*
D02*
G37*
G36*
X118500Y51061D02*
X117903Y50942D01*
X117396Y50604D01*
X117058Y50097D01*
X116939Y49500D01*
X117058Y48903D01*
X117253Y48610D01*
X117355Y48250D01*
X117253Y47890D01*
X117058Y47597D01*
X116939Y47000D01*
X117058Y46403D01*
X117396Y45896D01*
X117903Y45558D01*
X118500Y45439D01*
X119097Y45558D01*
X119604Y45896D01*
X119942Y46403D01*
X120061Y47000D01*
X119942Y47597D01*
X119747Y47890D01*
X119645Y48250D01*
X119747Y48610D01*
X119942Y48903D01*
X120061Y49500D01*
X119942Y50097D01*
X119604Y50604D01*
X119097Y50942D01*
X118500Y51061D01*
D02*
G37*
G36*
X507000Y45061D02*
X506403Y44942D01*
X506110Y44747D01*
X505750Y44645D01*
X505390Y44747D01*
X505097Y44942D01*
X504500Y45061D01*
X503903Y44942D01*
X503610Y44747D01*
X503250Y44645D01*
X502890Y44747D01*
X502597Y44942D01*
X502000Y45061D01*
X501403Y44942D01*
X500896Y44604D01*
X500558Y44097D01*
X500439Y43500D01*
X500558Y42903D01*
X500896Y42396D01*
X501403Y42058D01*
X502000Y41939D01*
X502597Y42058D01*
X502890Y42253D01*
X503250Y42355D01*
X503610Y42253D01*
X503903Y42058D01*
X504500Y41939D01*
X505097Y42058D01*
X505390Y42253D01*
X505750Y42355D01*
X506110Y42253D01*
X506403Y42058D01*
X507000Y41939D01*
X507597Y42058D01*
X508104Y42396D01*
X508442Y42903D01*
X508561Y43500D01*
X508442Y44097D01*
X508104Y44604D01*
X507597Y44942D01*
X507000Y45061D01*
D02*
G37*
G36*
X101250Y45260D02*
X100768Y45164D01*
X100359Y44891D01*
X100086Y44482D01*
X99990Y44000D01*
X100086Y43518D01*
X100359Y43109D01*
X100768Y42836D01*
X101250Y42740D01*
X101732Y42836D01*
X102141Y43109D01*
X102414Y43518D01*
X102510Y44000D01*
X102414Y44482D01*
X102141Y44891D01*
X101732Y45164D01*
X101250Y45260D01*
D02*
G37*
G36*
X93750D02*
X93268Y45164D01*
X92859Y44891D01*
X92586Y44482D01*
X92490Y44000D01*
X92586Y43518D01*
X92859Y43109D01*
X93268Y42836D01*
X93750Y42740D01*
X94232Y42836D01*
X94641Y43109D01*
X94914Y43518D01*
X95010Y44000D01*
X94914Y44482D01*
X94641Y44891D01*
X94232Y45164D01*
X93750Y45260D01*
D02*
G37*
G36*
X63750D02*
X63268Y45164D01*
X62859Y44891D01*
X62586Y44482D01*
X62490Y44000D01*
X62586Y43518D01*
X62859Y43109D01*
X63268Y42836D01*
X63750Y42740D01*
X64232Y42836D01*
X64641Y43109D01*
X64914Y43518D01*
X65010Y44000D01*
X64914Y44482D01*
X64641Y44891D01*
X64232Y45164D01*
X63750Y45260D01*
D02*
G37*
G36*
X21059Y39949D02*
X18500D01*
Y37390D01*
X21059D01*
Y39949D01*
D02*
G37*
G36*
X17500D02*
X14941D01*
Y37390D01*
X17500D01*
Y39949D01*
D02*
G37*
G36*
X479500Y41544D02*
X478741Y41444D01*
X478033Y41151D01*
X477425Y40685D01*
X476959Y40077D01*
X476666Y39370D01*
X476566Y38610D01*
X476666Y37851D01*
X476959Y37143D01*
X477425Y36536D01*
X478033Y36069D01*
X478741Y35776D01*
X479500Y35676D01*
X480259Y35776D01*
X480967Y36069D01*
X481575Y36536D01*
X482041Y37143D01*
X482334Y37851D01*
X482434Y38610D01*
X482334Y39370D01*
X482041Y40077D01*
X481575Y40685D01*
X480967Y41151D01*
X480259Y41444D01*
X479500Y41544D01*
D02*
G37*
G36*
X127500Y37760D02*
X127018Y37664D01*
X126609Y37391D01*
X126336Y36982D01*
X126240Y36500D01*
X126336Y36018D01*
X126609Y35609D01*
X127018Y35336D01*
X127500Y35240D01*
X127982Y35336D01*
X128391Y35609D01*
X128664Y36018D01*
X128760Y36500D01*
X128664Y36982D01*
X128391Y37391D01*
X127982Y37664D01*
X127500Y37760D01*
D02*
G37*
G36*
X112500D02*
X112018Y37664D01*
X111609Y37391D01*
X111336Y36982D01*
X111240Y36500D01*
X111336Y36018D01*
X111609Y35609D01*
X112018Y35336D01*
X112500Y35240D01*
X112982Y35336D01*
X113391Y35609D01*
X113664Y36018D01*
X113760Y36500D01*
X113664Y36982D01*
X113391Y37391D01*
X112982Y37664D01*
X112500Y37760D01*
D02*
G37*
G36*
X105000D02*
X104518Y37664D01*
X104109Y37391D01*
X103836Y36982D01*
X103740Y36500D01*
X103836Y36018D01*
X104109Y35609D01*
X104518Y35336D01*
X105000Y35240D01*
X105482Y35336D01*
X105891Y35609D01*
X106164Y36018D01*
X106260Y36500D01*
X106164Y36982D01*
X105891Y37391D01*
X105482Y37664D01*
X105000Y37760D01*
D02*
G37*
G36*
X90000D02*
X89518Y37664D01*
X89109Y37391D01*
X88836Y36982D01*
X88740Y36500D01*
X88836Y36018D01*
X89109Y35609D01*
X89518Y35336D01*
X90000Y35240D01*
X90482Y35336D01*
X90891Y35609D01*
X91164Y36018D01*
X91260Y36500D01*
X91164Y36982D01*
X90891Y37391D01*
X90482Y37664D01*
X90000Y37760D01*
D02*
G37*
G36*
X21059Y36390D02*
X18500D01*
Y33831D01*
X21059D01*
Y36390D01*
D02*
G37*
G36*
X17500D02*
X14941D01*
Y33831D01*
X17500D01*
Y36390D01*
D02*
G37*
G36*
X331846Y41911D02*
X331249Y41792D01*
X330743Y41454D01*
X330404Y40947D01*
X330285Y40350D01*
X330404Y39753D01*
X330743Y39246D01*
X330848Y39176D01*
Y38574D01*
X330743Y38504D01*
X330404Y37997D01*
X330285Y37400D01*
X330404Y36803D01*
X330743Y36296D01*
X330811Y36251D01*
Y35649D01*
X330743Y35604D01*
X330404Y35097D01*
X330285Y34500D01*
X330404Y33903D01*
X330743Y33396D01*
X331249Y33058D01*
X331846Y32939D01*
X332444Y33058D01*
X332950Y33396D01*
X333289Y33903D01*
X333408Y34500D01*
X333289Y35097D01*
X332950Y35604D01*
X332882Y35649D01*
Y36251D01*
X332950Y36296D01*
X333289Y36803D01*
X333408Y37400D01*
X333289Y37997D01*
X332950Y38504D01*
X332845Y38574D01*
Y39176D01*
X332950Y39246D01*
X333289Y39753D01*
X333408Y40350D01*
X333289Y40947D01*
X332950Y41454D01*
X332444Y41792D01*
X331846Y41911D01*
D02*
G37*
G36*
X86250Y30260D02*
X85768Y30164D01*
X85359Y29891D01*
X85086Y29482D01*
X84990Y29000D01*
X85086Y28518D01*
X85359Y28109D01*
X85768Y27836D01*
X86250Y27740D01*
X86732Y27836D01*
X87141Y28109D01*
X87414Y28518D01*
X87510Y29000D01*
X87414Y29482D01*
X87141Y29891D01*
X86732Y30164D01*
X86250Y30260D01*
D02*
G37*
G36*
X78750D02*
X78268Y30164D01*
X77859Y29891D01*
X77586Y29482D01*
X77490Y29000D01*
X77586Y28518D01*
X77859Y28109D01*
X78268Y27836D01*
X78750Y27740D01*
X79232Y27836D01*
X79641Y28109D01*
X79914Y28518D01*
X80010Y29000D01*
X79914Y29482D01*
X79641Y29891D01*
X79232Y30164D01*
X78750Y30260D01*
D02*
G37*
G36*
X63750D02*
X63268Y30164D01*
X62859Y29891D01*
X62586Y29482D01*
X62490Y29000D01*
X62586Y28518D01*
X62859Y28109D01*
X63268Y27836D01*
X63750Y27740D01*
X64232Y27836D01*
X64641Y28109D01*
X64914Y28518D01*
X65010Y29000D01*
X64914Y29482D01*
X64641Y29891D01*
X64232Y30164D01*
X63750Y30260D01*
D02*
G37*
G36*
X56250D02*
X55768Y30164D01*
X55359Y29891D01*
X55086Y29482D01*
X54990Y29000D01*
X55086Y28518D01*
X55359Y28109D01*
X55768Y27836D01*
X56250Y27740D01*
X56732Y27836D01*
X57141Y28109D01*
X57414Y28518D01*
X57510Y29000D01*
X57414Y29482D01*
X57141Y29891D01*
X56732Y30164D01*
X56250Y30260D01*
D02*
G37*
G36*
X112500Y22760D02*
X112018Y22664D01*
X111609Y22391D01*
X111336Y21982D01*
X111240Y21500D01*
X111336Y21018D01*
X111609Y20609D01*
X112018Y20336D01*
X112500Y20240D01*
X112982Y20336D01*
X113391Y20609D01*
X113664Y21018D01*
X113760Y21500D01*
X113664Y21982D01*
X113391Y22391D01*
X112982Y22664D01*
X112500Y22760D01*
D02*
G37*
G36*
X105000D02*
X104518Y22664D01*
X104109Y22391D01*
X103836Y21982D01*
X103740Y21500D01*
X103836Y21018D01*
X104109Y20609D01*
X104518Y20336D01*
X105000Y20240D01*
X105482Y20336D01*
X105891Y20609D01*
X106164Y21018D01*
X106260Y21500D01*
X106164Y21982D01*
X105891Y22391D01*
X105482Y22664D01*
X105000Y22760D01*
D02*
G37*
G36*
X97500D02*
X97018Y22664D01*
X96609Y22391D01*
X96336Y21982D01*
X96240Y21500D01*
X96336Y21018D01*
X96609Y20609D01*
X97018Y20336D01*
X97500Y20240D01*
X97982Y20336D01*
X98391Y20609D01*
X98664Y21018D01*
X98760Y21500D01*
X98664Y21982D01*
X98391Y22391D01*
X97982Y22664D01*
X97500Y22760D01*
D02*
G37*
G36*
X90000D02*
X89518Y22664D01*
X89109Y22391D01*
X88836Y21982D01*
X88740Y21500D01*
X88836Y21018D01*
X89109Y20609D01*
X89518Y20336D01*
X90000Y20240D01*
X90482Y20336D01*
X90891Y20609D01*
X91164Y21018D01*
X91260Y21500D01*
X91164Y21982D01*
X90891Y22391D01*
X90482Y22664D01*
X90000Y22760D01*
D02*
G37*
G36*
X60000D02*
X59518Y22664D01*
X59109Y22391D01*
X58836Y21982D01*
X58740Y21500D01*
X58836Y21018D01*
X59109Y20609D01*
X59518Y20336D01*
X60000Y20240D01*
X60482Y20336D01*
X60891Y20609D01*
X61164Y21018D01*
X61260Y21500D01*
X61164Y21982D01*
X60891Y22391D01*
X60482Y22664D01*
X60000Y22760D01*
D02*
G37*
G36*
X18000Y26044D02*
X17241Y25944D01*
X16533Y25651D01*
X15925Y25185D01*
X15459Y24577D01*
X15166Y23870D01*
X15066Y23110D01*
X15166Y22351D01*
X15459Y21643D01*
X15925Y21035D01*
X16533Y20569D01*
X17241Y20276D01*
X18000Y20176D01*
X18759Y20276D01*
X19467Y20569D01*
X20075Y21035D01*
X20541Y21643D01*
X20834Y22351D01*
X20934Y23110D01*
X20834Y23870D01*
X20541Y24577D01*
X20075Y25185D01*
X19467Y25651D01*
X18759Y25944D01*
X18000Y26044D01*
D02*
G37*
G36*
X337700Y20861D02*
X337103Y20742D01*
X336596Y20404D01*
X336258Y19897D01*
X336139Y19300D01*
X336258Y18703D01*
X336596Y18196D01*
X337103Y17858D01*
X337700Y17739D01*
X338297Y17858D01*
X338804Y18196D01*
X339142Y18703D01*
X339261Y19300D01*
X339142Y19897D01*
X338804Y20404D01*
X338297Y20742D01*
X337700Y20861D01*
D02*
G37*
G36*
X131250Y15260D02*
X130768Y15164D01*
X130359Y14891D01*
X130086Y14482D01*
X129990Y14000D01*
X130086Y13518D01*
X130359Y13109D01*
X130768Y12836D01*
X131250Y12740D01*
X131732Y12836D01*
X132141Y13109D01*
X132414Y13518D01*
X132510Y14000D01*
X132414Y14482D01*
X132141Y14891D01*
X131732Y15164D01*
X131250Y15260D01*
D02*
G37*
G36*
X123750D02*
X123268Y15164D01*
X122859Y14891D01*
X122586Y14482D01*
X122490Y14000D01*
X122586Y13518D01*
X122859Y13109D01*
X123268Y12836D01*
X123750Y12740D01*
X124232Y12836D01*
X124641Y13109D01*
X124914Y13518D01*
X125010Y14000D01*
X124914Y14482D01*
X124641Y14891D01*
X124232Y15164D01*
X123750Y15260D01*
D02*
G37*
G36*
X93750D02*
X93268Y15164D01*
X92859Y14891D01*
X92586Y14482D01*
X92490Y14000D01*
X92586Y13518D01*
X92859Y13109D01*
X93268Y12836D01*
X93750Y12740D01*
X94232Y12836D01*
X94641Y13109D01*
X94914Y13518D01*
X95010Y14000D01*
X94914Y14482D01*
X94641Y14891D01*
X94232Y15164D01*
X93750Y15260D01*
D02*
G37*
G36*
X127500Y7760D02*
X127018Y7664D01*
X126609Y7391D01*
X126336Y6982D01*
X126240Y6500D01*
X126336Y6018D01*
X126609Y5609D01*
X127018Y5336D01*
X127500Y5240D01*
X127982Y5336D01*
X128391Y5609D01*
X128664Y6018D01*
X128760Y6500D01*
X128664Y6982D01*
X128391Y7391D01*
X127982Y7664D01*
X127500Y7760D01*
D02*
G37*
G36*
X120000D02*
X119518Y7664D01*
X119109Y7391D01*
X118836Y6982D01*
X118740Y6500D01*
X118836Y6018D01*
X119109Y5609D01*
X119518Y5336D01*
X120000Y5240D01*
X120482Y5336D01*
X120891Y5609D01*
X121164Y6018D01*
X121260Y6500D01*
X121164Y6982D01*
X120891Y7391D01*
X120482Y7664D01*
X120000Y7760D01*
D02*
G37*
G36*
X112500D02*
X112018Y7664D01*
X111609Y7391D01*
X111336Y6982D01*
X111240Y6500D01*
X111336Y6018D01*
X111609Y5609D01*
X112018Y5336D01*
X112500Y5240D01*
X112982Y5336D01*
X113391Y5609D01*
X113664Y6018D01*
X113760Y6500D01*
X113664Y6982D01*
X113391Y7391D01*
X112982Y7664D01*
X112500Y7760D01*
D02*
G37*
G36*
X105000D02*
X104518Y7664D01*
X104109Y7391D01*
X103836Y6982D01*
X103740Y6500D01*
X103836Y6018D01*
X104109Y5609D01*
X104518Y5336D01*
X105000Y5240D01*
X105482Y5336D01*
X105891Y5609D01*
X106164Y6018D01*
X106260Y6500D01*
X106164Y6982D01*
X105891Y7391D01*
X105482Y7664D01*
X105000Y7760D01*
D02*
G37*
G36*
X97500D02*
X97018Y7664D01*
X96609Y7391D01*
X96336Y6982D01*
X96240Y6500D01*
X96336Y6018D01*
X96609Y5609D01*
X97018Y5336D01*
X97500Y5240D01*
X97982Y5336D01*
X98391Y5609D01*
X98664Y6018D01*
X98760Y6500D01*
X98664Y6982D01*
X98391Y7391D01*
X97982Y7664D01*
X97500Y7760D01*
D02*
G37*
G36*
X90000D02*
X89518Y7664D01*
X89109Y7391D01*
X88836Y6982D01*
X88740Y6500D01*
X88836Y6018D01*
X89109Y5609D01*
X89518Y5336D01*
X90000Y5240D01*
X90482Y5336D01*
X90891Y5609D01*
X91164Y6018D01*
X91260Y6500D01*
X91164Y6982D01*
X90891Y7391D01*
X90482Y7664D01*
X90000Y7760D01*
D02*
G37*
G36*
X82500D02*
X82018Y7664D01*
X81609Y7391D01*
X81336Y6982D01*
X81240Y6500D01*
X81336Y6018D01*
X81609Y5609D01*
X82018Y5336D01*
X82500Y5240D01*
X82982Y5336D01*
X83391Y5609D01*
X83664Y6018D01*
X83760Y6500D01*
X83664Y6982D01*
X83391Y7391D01*
X82982Y7664D01*
X82500Y7760D01*
D02*
G37*
G36*
X75000D02*
X74518Y7664D01*
X74109Y7391D01*
X73836Y6982D01*
X73740Y6500D01*
X73836Y6018D01*
X74109Y5609D01*
X74518Y5336D01*
X75000Y5240D01*
X75482Y5336D01*
X75891Y5609D01*
X76164Y6018D01*
X76260Y6500D01*
X76164Y6982D01*
X75891Y7391D01*
X75482Y7664D01*
X75000Y7760D01*
D02*
G37*
G36*
X67500D02*
X67018Y7664D01*
X66609Y7391D01*
X66336Y6982D01*
X66240Y6500D01*
X66336Y6018D01*
X66609Y5609D01*
X67018Y5336D01*
X67500Y5240D01*
X67982Y5336D01*
X68391Y5609D01*
X68664Y6018D01*
X68760Y6500D01*
X68664Y6982D01*
X68391Y7391D01*
X67982Y7664D01*
X67500Y7760D01*
D02*
G37*
G36*
X60000D02*
X59518Y7664D01*
X59109Y7391D01*
X58836Y6982D01*
X58740Y6500D01*
X58836Y6018D01*
X59109Y5609D01*
X59518Y5336D01*
X60000Y5240D01*
X60482Y5336D01*
X60891Y5609D01*
X61164Y6018D01*
X61260Y6500D01*
X61164Y6982D01*
X60891Y7391D01*
X60482Y7664D01*
X60000Y7760D01*
D02*
G37*
%LPD*%
D16*
X425400Y347100D02*
X425500Y347000D01*
X457900D01*
X523000Y228500D02*
Y242000D01*
Y228500D02*
X529500Y222000D01*
D78*
X425400Y347100D02*
Y350900D01*
Y279200D02*
Y347100D01*
X425500Y120100D02*
Y145100D01*
X425400Y202100D02*
Y223400D01*
Y171000D02*
Y202100D01*
Y253700D02*
Y279200D01*
X396589Y379711D02*
X425400Y350900D01*
Y228000D02*
Y253700D01*
Y223600D02*
Y228000D01*
Y223600D02*
X425500Y223500D01*
X425400Y223400D02*
X425500Y223500D01*
X425400Y145100D02*
Y171000D01*
Y145100D02*
X425500D01*
Y94500D02*
Y120100D01*
X17900Y359900D02*
X50300D01*
X70110Y379711D01*
X133000Y114000D02*
Y125700D01*
X70110Y379711D02*
X396589D01*
X133000Y231000D02*
X133500Y231500D01*
X133000Y182500D02*
Y231000D01*
D79*
X18000Y36890D02*
D03*
X479500Y52390D02*
D03*
D82*
X529500Y222000D02*
D03*
D88*
X457900Y347000D02*
D03*
X425400Y279200D02*
D03*
Y253700D02*
D03*
Y228000D02*
D03*
Y202100D02*
D03*
Y171000D02*
D03*
Y145100D02*
D03*
X425500Y120100D02*
D03*
Y94500D02*
D03*
X17900Y359900D02*
D03*
X133000Y125700D02*
D03*
Y114000D02*
D03*
X404000Y137500D02*
D03*
Y112000D02*
D03*
X523000Y242000D02*
D03*
X31500Y53000D02*
D03*
Y43000D02*
D03*
Y33000D02*
D03*
X26500Y53000D02*
D03*
X29000Y48000D02*
D03*
X26500Y43000D02*
D03*
X29000Y38000D02*
D03*
X26500Y33000D02*
D03*
X21500Y53000D02*
D03*
X24000Y48000D02*
D03*
X21500Y43000D02*
D03*
X24000Y38000D02*
D03*
X16500Y53000D02*
D03*
X19000Y48000D02*
D03*
X16500Y43000D02*
D03*
X11500Y53000D02*
D03*
X14000Y48000D02*
D03*
X11500Y43000D02*
D03*
Y33000D02*
D03*
X502000Y77000D02*
D03*
X507000D02*
D03*
X504500D02*
D03*
X507000Y47000D02*
D03*
X504500D02*
D03*
X502000D02*
D03*
X404000Y297000D02*
D03*
Y271500D02*
D03*
Y245500D02*
D03*
Y220500D02*
D03*
Y189000D02*
D03*
Y163000D02*
D03*
X133500Y231500D02*
D03*
X133000Y182500D02*
D03*
X232000Y323000D02*
D03*
X170000Y285500D02*
D03*
X233500Y257500D02*
D03*
X171000Y216500D02*
D03*
Y167000D02*
D03*
X235400Y136600D02*
D03*
X171000Y99000D02*
D03*
X-9000Y122000D02*
D03*
X101500Y13000D02*
D03*
X104000D02*
D03*
X235500Y62500D02*
D03*
X473000Y347000D02*
D03*
X294500Y257000D02*
D03*
Y267000D02*
D03*
Y277000D02*
D03*
Y287000D02*
D03*
Y141000D02*
D03*
Y131000D02*
D03*
Y121000D02*
D03*
Y111000D02*
D03*
M02*
