G04*
G04 #@! TF.GenerationSoftware,Altium Limited,Altium Designer,19.1.9 (167)*
G04*
G04 Layer_Color=16711935*
%FSLAX25Y25*%
%MOIN*%
G70*
G01*
G75*
%ADD49C,0.04737*%
%ADD58R,0.11417X0.02559*%
%ADD66R,0.05918X0.05918*%
%ADD67C,0.05918*%
%ADD68R,0.06312X0.06312*%
%ADD69C,0.06312*%
%ADD70C,0.13595*%
%ADD71C,0.10249*%
%ADD72C,0.06600*%
%ADD73C,0.13005*%
%ADD74C,0.03162*%
D49*
X24300Y184900D02*
D03*
Y177300D02*
D03*
X24200Y170000D02*
D03*
D58*
X-49000Y236221D02*
D03*
Y239370D02*
D03*
Y129134D02*
D03*
Y132283D02*
D03*
Y135433D02*
D03*
Y138583D02*
D03*
Y141732D02*
D03*
Y144882D02*
D03*
Y148031D02*
D03*
Y151181D02*
D03*
Y154331D02*
D03*
Y157480D02*
D03*
Y160630D02*
D03*
Y163779D02*
D03*
Y166929D02*
D03*
Y170079D02*
D03*
Y173228D02*
D03*
Y176378D02*
D03*
Y179528D02*
D03*
Y182677D02*
D03*
Y198425D02*
D03*
Y201575D02*
D03*
Y204724D02*
D03*
Y207874D02*
D03*
Y211024D02*
D03*
Y214173D02*
D03*
Y217323D02*
D03*
Y220472D02*
D03*
Y223622D02*
D03*
Y226772D02*
D03*
Y229921D02*
D03*
Y233071D02*
D03*
Y242520D02*
D03*
Y245669D02*
D03*
Y248819D02*
D03*
Y251969D02*
D03*
Y255118D02*
D03*
Y258268D02*
D03*
Y261417D02*
D03*
Y264567D02*
D03*
D66*
X17200Y338610D02*
D03*
X18000Y36890D02*
D03*
X479500Y52390D02*
D03*
D67*
X17200Y352390D02*
D03*
X18000Y23110D02*
D03*
X479500Y38610D02*
D03*
D68*
X536500Y180000D02*
D03*
Y242000D02*
D03*
D69*
X529500Y176000D02*
D03*
X536500Y172000D02*
D03*
X529500Y168000D02*
D03*
X536500Y164000D02*
D03*
X529500Y160000D02*
D03*
X536500Y156000D02*
D03*
X529500Y152000D02*
D03*
Y214000D02*
D03*
X536500Y218000D02*
D03*
X529500Y222000D02*
D03*
X536500Y226000D02*
D03*
X529500Y230000D02*
D03*
X536500Y234000D02*
D03*
X529500Y238000D02*
D03*
D70*
X546500Y141000D02*
D03*
Y253000D02*
D03*
D71*
X533000Y134000D02*
D03*
Y260000D02*
D03*
D72*
X531256Y59000D02*
D03*
Y69000D02*
D03*
Y79000D02*
D03*
Y89000D02*
D03*
Y99000D02*
D03*
Y109000D02*
D03*
Y49000D02*
D03*
Y39000D02*
D03*
X521256Y109000D02*
D03*
Y99000D02*
D03*
Y89000D02*
D03*
Y79000D02*
D03*
Y69000D02*
D03*
Y59000D02*
D03*
Y49000D02*
D03*
Y39000D02*
D03*
D73*
X543307Y372047D02*
D03*
Y21654D02*
D03*
D74*
X-41824Y245669D02*
D03*
X337500Y55900D02*
D03*
X337700Y19300D02*
D03*
M02*
