G04*
G04 #@! TF.GenerationSoftware,Altium Limited,Altium Designer,19.1.9 (167)*
G04*
G04 Layer_Color=8421504*
%FSLAX25Y25*%
%MOIN*%
G70*
G01*
G75*
%ADD22R,0.06299X0.11811*%
%ADD23R,0.03347X0.03347*%
%ADD24R,0.03543X0.03347*%
%ADD25R,0.03268X0.02953*%
%ADD26R,0.03937X0.02756*%
%ADD27R,0.05512X0.03937*%
%ADD28R,0.02756X0.03937*%
%ADD29R,0.03150X0.03150*%
%ADD30R,0.03347X0.03543*%
%ADD31R,0.01772X0.05709*%
%ADD32R,0.10630X0.14173*%
%ADD33R,0.06614X0.07559*%
%ADD34R,0.07165X0.04764*%
%ADD35R,0.04764X0.07165*%
G04:AMPARAMS|DCode=36|XSize=59.06mil|YSize=17.72mil|CornerRadius=1.95mil|HoleSize=0mil|Usage=FLASHONLY|Rotation=0.000|XOffset=0mil|YOffset=0mil|HoleType=Round|Shape=RoundedRectangle|*
%AMROUNDEDRECTD36*
21,1,0.05906,0.01382,0,0,0.0*
21,1,0.05516,0.01772,0,0,0.0*
1,1,0.00390,0.02758,-0.00691*
1,1,0.00390,-0.02758,-0.00691*
1,1,0.00390,-0.02758,0.00691*
1,1,0.00390,0.02758,0.00691*
%
%ADD36ROUNDEDRECTD36*%
%ADD37R,0.06890X0.11614*%
%ADD38O,0.05709X0.01201*%
%ADD39R,0.07087X0.04331*%
%ADD40R,0.01772X0.03937*%
%ADD41R,0.03937X0.05512*%
%ADD42O,0.06299X0.01181*%
%ADD43R,0.04803X0.02362*%
%ADD44R,0.02362X0.04803*%
%ADD45R,0.02441X0.04803*%
D22*
X17200Y354161D02*
D03*
Y336839D02*
D03*
X482951Y36460D02*
D03*
Y53783D02*
D03*
X18800Y17139D02*
D03*
Y34461D02*
D03*
D23*
X60700Y199700D02*
D03*
Y205409D02*
D03*
Y193991D02*
D03*
X67100D02*
D03*
Y205409D02*
D03*
Y199700D02*
D03*
X60700Y193991D02*
D03*
Y205409D02*
D03*
Y199700D02*
D03*
X67100Y193991D02*
D03*
Y205409D02*
D03*
Y199700D02*
D03*
D24*
X52700Y199951D02*
D03*
Y193849D02*
D03*
X73900Y199951D02*
D03*
Y193849D02*
D03*
X457900Y348551D02*
D03*
Y342449D02*
D03*
X105520Y357727D02*
D03*
Y363829D02*
D03*
Y370427D02*
D03*
Y376529D02*
D03*
X98820D02*
D03*
Y370427D02*
D03*
X542200Y280998D02*
D03*
Y287100D02*
D03*
X160000Y215772D02*
D03*
Y209669D02*
D03*
Y98272D02*
D03*
Y92169D02*
D03*
X159000Y278669D02*
D03*
Y284772D02*
D03*
X160000Y166272D02*
D03*
Y160169D02*
D03*
X337700Y28351D02*
D03*
Y22249D02*
D03*
X487900Y349051D02*
D03*
Y342949D02*
D03*
X442800Y348551D02*
D03*
Y342449D02*
D03*
X472900D02*
D03*
Y348551D02*
D03*
X224500Y55705D02*
D03*
Y61807D02*
D03*
X222500Y250689D02*
D03*
Y256791D02*
D03*
X224500Y135772D02*
D03*
Y129669D02*
D03*
X221000Y316169D02*
D03*
Y322272D02*
D03*
X197500Y60949D02*
D03*
Y67051D02*
D03*
X194000Y327551D02*
D03*
Y321449D02*
D03*
X-12149Y128209D02*
D03*
Y122106D02*
D03*
X-23900Y128209D02*
D03*
Y122106D02*
D03*
X-18000Y128209D02*
D03*
Y122106D02*
D03*
X96000Y97051D02*
D03*
Y90949D02*
D03*
X102000D02*
D03*
Y97051D02*
D03*
Y78949D02*
D03*
Y85051D02*
D03*
X-12500Y157051D02*
D03*
Y150949D02*
D03*
D25*
X453500Y215991D02*
D03*
Y225204D02*
D03*
X452017Y210028D02*
D03*
Y200816D02*
D03*
X470500Y184516D02*
D03*
Y193728D02*
D03*
X453500Y159119D02*
D03*
Y168331D02*
D03*
X470500Y250816D02*
D03*
Y241603D02*
D03*
X469017Y226422D02*
D03*
Y235635D02*
D03*
X452017Y143906D02*
D03*
Y153119D02*
D03*
X470500Y142835D02*
D03*
Y133622D02*
D03*
X469017Y118522D02*
D03*
Y127735D02*
D03*
X452017Y251622D02*
D03*
Y260835D02*
D03*
X453500Y117135D02*
D03*
Y107922D02*
D03*
X452017Y92816D02*
D03*
Y102028D02*
D03*
X453500Y276035D02*
D03*
Y266822D02*
D03*
X469017Y169222D02*
D03*
Y178435D02*
D03*
Y277422D02*
D03*
Y286635D02*
D03*
X470500Y301735D02*
D03*
Y292522D02*
D03*
D26*
X445500Y222180D02*
D03*
Y216077D02*
D03*
X445451Y203971D02*
D03*
Y210073D02*
D03*
X462400Y190651D02*
D03*
Y184549D02*
D03*
X445500Y165276D02*
D03*
Y159174D02*
D03*
X462451Y172377D02*
D03*
Y178480D02*
D03*
Y235631D02*
D03*
Y229528D02*
D03*
X462400Y241649D02*
D03*
Y247751D02*
D03*
X445451Y153164D02*
D03*
Y147061D02*
D03*
X462400Y133749D02*
D03*
Y139851D02*
D03*
X462451Y127779D02*
D03*
Y121677D02*
D03*
X445451Y260879D02*
D03*
Y254777D02*
D03*
X445500Y107977D02*
D03*
Y114079D02*
D03*
X445451Y102079D02*
D03*
Y95977D02*
D03*
X445500Y266877D02*
D03*
Y272979D02*
D03*
X462451Y286579D02*
D03*
Y280477D02*
D03*
X462400Y292549D02*
D03*
Y298651D02*
D03*
X92920Y376534D02*
D03*
Y370432D02*
D03*
X57920Y349027D02*
D03*
Y355129D02*
D03*
X425800Y156551D02*
D03*
Y150449D02*
D03*
Y181551D02*
D03*
Y175449D02*
D03*
Y213051D02*
D03*
Y206949D02*
D03*
Y238551D02*
D03*
Y232449D02*
D03*
Y264051D02*
D03*
Y257949D02*
D03*
Y289551D02*
D03*
Y283449D02*
D03*
Y131051D02*
D03*
Y124949D02*
D03*
Y105051D02*
D03*
Y98949D02*
D03*
X137000Y237772D02*
D03*
Y231669D02*
D03*
X136500Y120272D02*
D03*
Y114169D02*
D03*
X136000Y306772D02*
D03*
Y300669D02*
D03*
X136500Y188272D02*
D03*
Y182169D02*
D03*
X166000Y209669D02*
D03*
Y215772D02*
D03*
Y92169D02*
D03*
Y98272D02*
D03*
X165000Y278669D02*
D03*
Y284772D02*
D03*
X166000Y160169D02*
D03*
Y166272D02*
D03*
X183500Y237772D02*
D03*
Y231669D02*
D03*
Y120272D02*
D03*
Y114169D02*
D03*
X182500Y306772D02*
D03*
Y300669D02*
D03*
X183500Y188272D02*
D03*
Y182169D02*
D03*
X512500Y100949D02*
D03*
Y107051D02*
D03*
Y77051D02*
D03*
Y70949D02*
D03*
X201500Y83807D02*
D03*
Y77705D02*
D03*
X199500Y278791D02*
D03*
Y272689D02*
D03*
X201900Y157772D02*
D03*
Y151669D02*
D03*
X198500Y344272D02*
D03*
Y338169D02*
D03*
X230500Y55705D02*
D03*
Y61807D02*
D03*
X228500Y250689D02*
D03*
Y256791D02*
D03*
X230500Y129669D02*
D03*
Y135772D02*
D03*
X227000Y316169D02*
D03*
Y322272D02*
D03*
X248000Y83807D02*
D03*
Y77705D02*
D03*
X246000Y278791D02*
D03*
Y272689D02*
D03*
X248000Y157772D02*
D03*
Y151669D02*
D03*
X244500Y344272D02*
D03*
Y338169D02*
D03*
X58000Y68949D02*
D03*
Y75051D02*
D03*
X90000Y97004D02*
D03*
Y90902D02*
D03*
X120000Y18949D02*
D03*
Y25051D02*
D03*
X512500Y47051D02*
D03*
Y40949D02*
D03*
D27*
X-7982Y245700D02*
D03*
X-18218D02*
D03*
X49118Y110000D02*
D03*
X38882D02*
D03*
X32982Y378700D02*
D03*
X43218D02*
D03*
X12882Y272078D02*
D03*
X23118D02*
D03*
D28*
X15951Y138200D02*
D03*
X9849D02*
D03*
X15933Y167000D02*
D03*
X9831D02*
D03*
X80327Y370913D02*
D03*
X86430D02*
D03*
X58671Y295378D02*
D03*
X52569D02*
D03*
X94771Y338760D02*
D03*
X88669D02*
D03*
X83051Y91000D02*
D03*
X76949D02*
D03*
X177051Y225721D02*
D03*
X170949D02*
D03*
X177051Y108221D02*
D03*
X170949D02*
D03*
X176051Y294721D02*
D03*
X169949D02*
D03*
X177051Y176221D02*
D03*
X170949D02*
D03*
X177051Y219721D02*
D03*
X170949D02*
D03*
X177051Y102220D02*
D03*
X170949D02*
D03*
X176051Y288720D02*
D03*
X169949D02*
D03*
X177051Y170220D02*
D03*
X170949D02*
D03*
X189449Y225721D02*
D03*
X195551D02*
D03*
X189449Y108221D02*
D03*
X195551D02*
D03*
X188449Y294721D02*
D03*
X194551D02*
D03*
X189449Y176221D02*
D03*
X195551D02*
D03*
Y243721D02*
D03*
X189449D02*
D03*
X195551Y126221D02*
D03*
X189449D02*
D03*
X194551Y312720D02*
D03*
X188449D02*
D03*
X195551Y194220D02*
D03*
X189449D02*
D03*
X312898Y55000D02*
D03*
X319000D02*
D03*
X312949Y201240D02*
D03*
X319051D02*
D03*
X312898Y73000D02*
D03*
X319000D02*
D03*
X312949Y219240D02*
D03*
X319051D02*
D03*
X312898Y79000D02*
D03*
X319000D02*
D03*
X312949Y225240D02*
D03*
X319051D02*
D03*
X312898Y97000D02*
D03*
X319000D02*
D03*
X312949Y243240D02*
D03*
X319051D02*
D03*
X312898Y151000D02*
D03*
X319000D02*
D03*
X312949Y297740D02*
D03*
X319051D02*
D03*
X312898Y169000D02*
D03*
X319000D02*
D03*
X312949Y315740D02*
D03*
X319051D02*
D03*
X312898Y175000D02*
D03*
X319000D02*
D03*
X312949Y321740D02*
D03*
X319051D02*
D03*
X312898Y193000D02*
D03*
X319000D02*
D03*
X312949Y339740D02*
D03*
X319051D02*
D03*
X341000Y143000D02*
D03*
X334898D02*
D03*
X341051Y288740D02*
D03*
X334949D02*
D03*
X341000Y133000D02*
D03*
X334898D02*
D03*
X341051Y278740D02*
D03*
X334949D02*
D03*
X341000Y123000D02*
D03*
X334898D02*
D03*
X341051Y268740D02*
D03*
X334949D02*
D03*
X341000Y113000D02*
D03*
X334898D02*
D03*
X341051Y258740D02*
D03*
X334949D02*
D03*
X290898Y142000D02*
D03*
X297000D02*
D03*
X290949Y287740D02*
D03*
X297051D02*
D03*
X290898Y132000D02*
D03*
X297000D02*
D03*
X290949Y277740D02*
D03*
X297051D02*
D03*
X290898Y122000D02*
D03*
X297000D02*
D03*
X290949Y267740D02*
D03*
X297051D02*
D03*
X290898Y112000D02*
D03*
X297000D02*
D03*
X290949Y257740D02*
D03*
X297051D02*
D03*
X400449Y114000D02*
D03*
X406551D02*
D03*
X400449Y222000D02*
D03*
X406551D02*
D03*
X400449Y139500D02*
D03*
X406551D02*
D03*
X400449Y247500D02*
D03*
X406551D02*
D03*
X400449Y165000D02*
D03*
X406551D02*
D03*
X400449Y273000D02*
D03*
X406551D02*
D03*
X400449Y190500D02*
D03*
X406551D02*
D03*
X400449Y298500D02*
D03*
X406551D02*
D03*
X241551Y71756D02*
D03*
X235449D02*
D03*
X239551Y266740D02*
D03*
X233449D02*
D03*
X241551Y145721D02*
D03*
X235449D02*
D03*
X238051Y332221D02*
D03*
X231949D02*
D03*
X241551Y65756D02*
D03*
X235449D02*
D03*
X239551Y260740D02*
D03*
X233449D02*
D03*
X241551Y139720D02*
D03*
X235449D02*
D03*
X238051Y326220D02*
D03*
X231949D02*
D03*
X253949Y71756D02*
D03*
X260051D02*
D03*
X251949Y266740D02*
D03*
X258051D02*
D03*
X253949Y145721D02*
D03*
X260051D02*
D03*
X250449Y332221D02*
D03*
X256551D02*
D03*
X260051Y89756D02*
D03*
X253949D02*
D03*
X258051Y284740D02*
D03*
X251949D02*
D03*
X260051Y163721D02*
D03*
X253949D02*
D03*
X256551Y350220D02*
D03*
X250449D02*
D03*
X84949Y59000D02*
D03*
X91051D02*
D03*
X58051Y16000D02*
D03*
X51949D02*
D03*
X128051Y48000D02*
D03*
X121949D02*
D03*
X16949Y288078D02*
D03*
X23051D02*
D03*
X15949Y308078D02*
D03*
X22051D02*
D03*
X331846Y45400D02*
D03*
X337949D02*
D03*
D29*
X457900Y360650D02*
D03*
Y354350D02*
D03*
X442800Y360650D02*
D03*
Y354350D02*
D03*
X472900D02*
D03*
Y360650D02*
D03*
X487900D02*
D03*
Y354350D02*
D03*
D30*
X459800Y260828D02*
D03*
X465902D02*
D03*
X459849Y266828D02*
D03*
X465951D02*
D03*
X459800Y210028D02*
D03*
X465902D02*
D03*
X459849Y215928D02*
D03*
X465951D02*
D03*
X459800Y153013D02*
D03*
X465902D02*
D03*
X459849Y159025D02*
D03*
X465951D02*
D03*
X459800Y102028D02*
D03*
X465902D02*
D03*
X459849Y107928D02*
D03*
X465951D02*
D03*
X476800Y127728D02*
D03*
X482902D02*
D03*
X476849Y133528D02*
D03*
X482951D02*
D03*
X476800Y178428D02*
D03*
X482902D02*
D03*
X476849Y184528D02*
D03*
X482951D02*
D03*
X476800Y235528D02*
D03*
X482902D02*
D03*
X476849Y241509D02*
D03*
X482951D02*
D03*
X476800Y286528D02*
D03*
X482902D02*
D03*
X476849Y292428D02*
D03*
X482951D02*
D03*
X100669Y338778D02*
D03*
X106771D02*
D03*
X74671Y295378D02*
D03*
X68569D02*
D03*
X33984Y164700D02*
D03*
X40087D02*
D03*
X33984Y159000D02*
D03*
X40087D02*
D03*
X33984Y153300D02*
D03*
X40087D02*
D03*
X33984Y147600D02*
D03*
X40087D02*
D03*
X34088Y135259D02*
D03*
X40190D02*
D03*
X34088Y129839D02*
D03*
X40190D02*
D03*
X33984Y124420D02*
D03*
X40087D02*
D03*
X33984Y119000D02*
D03*
X40087D02*
D03*
X189449Y231720D02*
D03*
X195551D02*
D03*
X189449Y114220D02*
D03*
X195551D02*
D03*
X194551Y300721D02*
D03*
X188449D02*
D03*
X189449Y182220D02*
D03*
X195551D02*
D03*
X189449Y237720D02*
D03*
X195551D02*
D03*
X189449Y120220D02*
D03*
X195551D02*
D03*
X194551Y306720D02*
D03*
X188449D02*
D03*
X189449Y188221D02*
D03*
X195551D02*
D03*
X404910Y151323D02*
D03*
X398808D02*
D03*
X398755Y284728D02*
D03*
Y290600D02*
D03*
X398749Y259400D02*
D03*
Y265300D02*
D03*
Y234000D02*
D03*
Y239900D02*
D03*
X353051Y261740D02*
D03*
Y266740D02*
D03*
Y251740D02*
D03*
Y256740D02*
D03*
X398899Y208228D02*
D03*
Y214099D02*
D03*
X353000Y136000D02*
D03*
Y141000D02*
D03*
X398749Y176800D02*
D03*
Y182800D02*
D03*
X353000Y131000D02*
D03*
X398808Y157100D02*
D03*
X398849Y126100D02*
D03*
Y132000D02*
D03*
X353000Y116000D02*
D03*
Y121000D02*
D03*
Y106000D02*
D03*
Y111000D02*
D03*
X398849Y100504D02*
D03*
Y106283D02*
D03*
X404857Y284728D02*
D03*
X404851Y239900D02*
D03*
Y234000D02*
D03*
X405002Y214099D02*
D03*
Y208228D02*
D03*
X404851Y176800D02*
D03*
X404951Y132000D02*
D03*
Y126100D02*
D03*
Y100504D02*
D03*
Y106283D02*
D03*
X346898Y106000D02*
D03*
X346949Y251740D02*
D03*
X312898Y61000D02*
D03*
X319000D02*
D03*
X319051Y207240D02*
D03*
X312949D02*
D03*
X346898Y111000D02*
D03*
X346949Y256740D02*
D03*
X312898Y67000D02*
D03*
X319000D02*
D03*
X319051Y213240D02*
D03*
X312949D02*
D03*
X404851Y259400D02*
D03*
X404910Y157100D02*
D03*
X404851Y265300D02*
D03*
Y182800D02*
D03*
X404857Y290600D02*
D03*
X346898Y116000D02*
D03*
X346949Y261740D02*
D03*
X312898Y85000D02*
D03*
X319000D02*
D03*
X319051Y231240D02*
D03*
X312949D02*
D03*
X346898Y121000D02*
D03*
X346949Y266740D02*
D03*
X312898Y91000D02*
D03*
X319000D02*
D03*
X319051Y237240D02*
D03*
X312949D02*
D03*
X346898Y126000D02*
D03*
X353000D02*
D03*
X353051Y271740D02*
D03*
X346949D02*
D03*
X312898Y157000D02*
D03*
X319000D02*
D03*
X319051Y303740D02*
D03*
X312949D02*
D03*
X346898Y131000D02*
D03*
X346949Y276740D02*
D03*
X353051D02*
D03*
X312898Y163000D02*
D03*
X319000D02*
D03*
X319051Y309740D02*
D03*
X312949D02*
D03*
X346898Y136000D02*
D03*
X353051Y281740D02*
D03*
X346949D02*
D03*
X312898Y181000D02*
D03*
X319000D02*
D03*
X319051Y327740D02*
D03*
X312949D02*
D03*
X346898Y141000D02*
D03*
X346949Y286740D02*
D03*
X353051D02*
D03*
X312898Y187000D02*
D03*
X319000D02*
D03*
X319051Y333740D02*
D03*
X312949D02*
D03*
X260051Y77756D02*
D03*
X253949D02*
D03*
X258051Y272740D02*
D03*
X251949D02*
D03*
X253949Y151720D02*
D03*
X260051D02*
D03*
X256551Y338221D02*
D03*
X250449D02*
D03*
X260051Y83756D02*
D03*
X253949D02*
D03*
X258051Y278740D02*
D03*
X251949D02*
D03*
X253949Y157720D02*
D03*
X260051D02*
D03*
X256551Y344220D02*
D03*
X250449D02*
D03*
X63949Y16000D02*
D03*
X70051D02*
D03*
X96949Y59000D02*
D03*
X103051D02*
D03*
X-24551Y157000D02*
D03*
X-18449D02*
D03*
X-24551Y151000D02*
D03*
X-18449D02*
D03*
D31*
X98159Y363440D02*
D03*
X95600D02*
D03*
X93041D02*
D03*
X90481D02*
D03*
X98159Y346117D02*
D03*
X95600D02*
D03*
X93041D02*
D03*
X90481D02*
D03*
X87161Y66339D02*
D03*
X89720D02*
D03*
X92279D02*
D03*
X94839D02*
D03*
X87161Y83661D02*
D03*
X89720D02*
D03*
X92279D02*
D03*
X94839D02*
D03*
D32*
X47072Y320678D02*
D03*
X78568D02*
D03*
X42252Y41000D02*
D03*
X73748D02*
D03*
D33*
X80429Y346779D02*
D03*
Y361582D02*
D03*
X76910Y67701D02*
D03*
Y82504D02*
D03*
D34*
X113520Y352470D02*
D03*
Y363887D02*
D03*
X39120Y357687D02*
D03*
Y346270D02*
D03*
X48970Y357687D02*
D03*
Y346270D02*
D03*
X71979Y371327D02*
D03*
Y382744D02*
D03*
X62479Y371327D02*
D03*
Y382744D02*
D03*
X504000Y97791D02*
D03*
Y109209D02*
D03*
X504500Y51209D02*
D03*
Y39791D02*
D03*
Y69791D02*
D03*
Y81209D02*
D03*
X59000Y91433D02*
D03*
Y102850D02*
D03*
X69000Y91433D02*
D03*
Y102850D02*
D03*
X110000Y84709D02*
D03*
Y73291D02*
D03*
X40000Y77709D02*
D03*
Y66291D02*
D03*
X50000Y77709D02*
D03*
Y66291D02*
D03*
X112000Y16291D02*
D03*
Y27709D02*
D03*
D35*
X544109Y273300D02*
D03*
X532691D02*
D03*
X130709Y56000D02*
D03*
X119291D02*
D03*
X12291Y280078D02*
D03*
X23709D02*
D03*
X12291Y316078D02*
D03*
X23709D02*
D03*
X326083Y36900D02*
D03*
X337500D02*
D03*
D36*
X27417Y160039D02*
D03*
Y157480D02*
D03*
Y154920D02*
D03*
Y152361D02*
D03*
X4583D02*
D03*
Y154920D02*
D03*
Y157480D02*
D03*
Y160039D02*
D03*
X27417Y131259D02*
D03*
Y128700D02*
D03*
Y126141D02*
D03*
Y123582D02*
D03*
X4583D02*
D03*
Y126141D02*
D03*
Y128700D02*
D03*
Y131259D02*
D03*
D37*
X154650Y228610D02*
D03*
Y111110D02*
D03*
X153650Y297610D02*
D03*
X154650Y179110D02*
D03*
X219150Y74646D02*
D03*
X217150Y269630D02*
D03*
X219150Y148610D02*
D03*
X215650Y335110D02*
D03*
D38*
X145299Y235500D02*
D03*
Y233531D02*
D03*
Y231563D02*
D03*
Y229594D02*
D03*
Y227626D02*
D03*
Y225658D02*
D03*
Y223689D02*
D03*
Y221721D02*
D03*
X164000Y235500D02*
D03*
Y233531D02*
D03*
Y231563D02*
D03*
Y229594D02*
D03*
Y227626D02*
D03*
Y225658D02*
D03*
Y223689D02*
D03*
Y221721D02*
D03*
X145299Y118000D02*
D03*
Y116032D02*
D03*
Y114063D02*
D03*
Y112094D02*
D03*
Y110126D02*
D03*
Y108158D02*
D03*
Y106189D02*
D03*
Y104220D02*
D03*
X164000Y118000D02*
D03*
Y116032D02*
D03*
Y114063D02*
D03*
Y112094D02*
D03*
Y110126D02*
D03*
Y108158D02*
D03*
Y106189D02*
D03*
Y104220D02*
D03*
X163000Y290721D02*
D03*
Y292689D02*
D03*
Y294657D02*
D03*
Y296626D02*
D03*
Y298594D02*
D03*
Y300563D02*
D03*
Y302532D02*
D03*
Y304500D02*
D03*
X144299Y290721D02*
D03*
Y292689D02*
D03*
Y294657D02*
D03*
Y296626D02*
D03*
Y298594D02*
D03*
Y300563D02*
D03*
Y302532D02*
D03*
Y304500D02*
D03*
X145299Y186000D02*
D03*
Y184031D02*
D03*
Y182063D02*
D03*
Y180095D02*
D03*
Y178126D02*
D03*
Y176157D02*
D03*
Y174189D02*
D03*
Y172221D02*
D03*
X164000Y186000D02*
D03*
Y184031D02*
D03*
Y182063D02*
D03*
Y180095D02*
D03*
Y178126D02*
D03*
Y176157D02*
D03*
Y174189D02*
D03*
Y172221D02*
D03*
X228500Y67756D02*
D03*
Y69724D02*
D03*
Y71693D02*
D03*
Y73661D02*
D03*
Y75630D02*
D03*
Y77598D02*
D03*
Y79567D02*
D03*
Y81535D02*
D03*
X209799Y67756D02*
D03*
Y69724D02*
D03*
Y71693D02*
D03*
Y73661D02*
D03*
Y75630D02*
D03*
Y77598D02*
D03*
Y79567D02*
D03*
Y81535D02*
D03*
X226500Y262740D02*
D03*
Y264709D02*
D03*
Y266677D02*
D03*
Y268646D02*
D03*
Y270614D02*
D03*
Y272583D02*
D03*
Y274551D02*
D03*
Y276520D02*
D03*
X207799Y262740D02*
D03*
Y264709D02*
D03*
Y266677D02*
D03*
Y268646D02*
D03*
Y270614D02*
D03*
Y272583D02*
D03*
Y274551D02*
D03*
Y276520D02*
D03*
X209799Y155500D02*
D03*
Y153532D02*
D03*
Y151563D02*
D03*
Y149594D02*
D03*
Y147626D02*
D03*
Y145658D02*
D03*
Y143689D02*
D03*
Y141720D02*
D03*
X228500Y155500D02*
D03*
Y153532D02*
D03*
Y151563D02*
D03*
Y149594D02*
D03*
Y147626D02*
D03*
Y145658D02*
D03*
Y143689D02*
D03*
Y141720D02*
D03*
X225000Y328221D02*
D03*
Y330189D02*
D03*
Y332157D02*
D03*
Y334126D02*
D03*
Y336094D02*
D03*
Y338063D02*
D03*
Y340032D02*
D03*
Y342000D02*
D03*
X206299Y328221D02*
D03*
Y330189D02*
D03*
Y332157D02*
D03*
Y334126D02*
D03*
Y336094D02*
D03*
Y338063D02*
D03*
Y340032D02*
D03*
Y342000D02*
D03*
D39*
X434100Y175594D02*
D03*
Y187406D02*
D03*
Y150094D02*
D03*
Y161906D02*
D03*
Y124594D02*
D03*
Y136406D02*
D03*
Y99094D02*
D03*
Y110906D02*
D03*
Y218905D02*
D03*
Y207095D02*
D03*
Y244406D02*
D03*
Y232594D02*
D03*
Y269854D02*
D03*
Y258043D02*
D03*
Y295406D02*
D03*
Y283594D02*
D03*
D40*
X418839Y221858D02*
D03*
X416280D02*
D03*
X413721D02*
D03*
X411161D02*
D03*
X418839Y204142D02*
D03*
X416280D02*
D03*
X413721D02*
D03*
X411161D02*
D03*
X418839Y298358D02*
D03*
X416280D02*
D03*
X413721D02*
D03*
X411161D02*
D03*
X418839Y280642D02*
D03*
X416280D02*
D03*
X413721D02*
D03*
X411161D02*
D03*
X418839Y190358D02*
D03*
X416280D02*
D03*
X413721D02*
D03*
X411161D02*
D03*
X418839Y172642D02*
D03*
X416280D02*
D03*
X413721D02*
D03*
X411161D02*
D03*
X418839Y272807D02*
D03*
X416280D02*
D03*
X413721D02*
D03*
X411161D02*
D03*
X418839Y255090D02*
D03*
X416280D02*
D03*
X413721D02*
D03*
X411161D02*
D03*
X418839Y164858D02*
D03*
X416280D02*
D03*
X413721D02*
D03*
X411161D02*
D03*
X418839Y147142D02*
D03*
X416280D02*
D03*
X413721D02*
D03*
X411161D02*
D03*
X418839Y247358D02*
D03*
X416280D02*
D03*
X413721D02*
D03*
X411161D02*
D03*
X418839Y229642D02*
D03*
X416280D02*
D03*
X413721D02*
D03*
X411161D02*
D03*
X418839Y139358D02*
D03*
X416280D02*
D03*
X413721D02*
D03*
X411161D02*
D03*
X418839Y121642D02*
D03*
X416280D02*
D03*
X413721D02*
D03*
X411161D02*
D03*
Y96142D02*
D03*
X413721D02*
D03*
X416280D02*
D03*
X418839D02*
D03*
X411161Y113858D02*
D03*
X413721D02*
D03*
X416280D02*
D03*
X418839D02*
D03*
D41*
X103000Y16882D02*
D03*
Y27118D02*
D03*
D42*
X326972Y106283D02*
D03*
Y108252D02*
D03*
Y110221D02*
D03*
Y112189D02*
D03*
Y114157D02*
D03*
Y116126D02*
D03*
Y118095D02*
D03*
Y120063D02*
D03*
Y122031D02*
D03*
Y124000D02*
D03*
Y125969D02*
D03*
Y127937D02*
D03*
Y129905D02*
D03*
Y131874D02*
D03*
Y133843D02*
D03*
Y135811D02*
D03*
Y137779D02*
D03*
Y139748D02*
D03*
Y141717D02*
D03*
X304925Y106283D02*
D03*
Y108252D02*
D03*
Y110221D02*
D03*
Y112189D02*
D03*
Y114157D02*
D03*
Y116126D02*
D03*
Y118095D02*
D03*
Y120063D02*
D03*
Y122031D02*
D03*
Y124000D02*
D03*
Y125969D02*
D03*
Y127937D02*
D03*
Y129905D02*
D03*
Y131874D02*
D03*
Y133843D02*
D03*
Y135811D02*
D03*
Y137779D02*
D03*
Y139748D02*
D03*
Y141717D02*
D03*
X327024Y252024D02*
D03*
Y253992D02*
D03*
Y255961D02*
D03*
Y257929D02*
D03*
Y259898D02*
D03*
Y261866D02*
D03*
Y263835D02*
D03*
Y265803D02*
D03*
Y267772D02*
D03*
Y269740D02*
D03*
Y271709D02*
D03*
Y273677D02*
D03*
Y275646D02*
D03*
Y277614D02*
D03*
Y279583D02*
D03*
Y281551D02*
D03*
Y283520D02*
D03*
Y285488D02*
D03*
Y287457D02*
D03*
X304976Y252024D02*
D03*
Y253992D02*
D03*
Y255961D02*
D03*
Y257929D02*
D03*
Y259898D02*
D03*
Y261866D02*
D03*
Y263835D02*
D03*
Y265803D02*
D03*
Y267772D02*
D03*
Y269740D02*
D03*
Y271709D02*
D03*
Y273677D02*
D03*
Y275646D02*
D03*
Y277614D02*
D03*
Y279583D02*
D03*
Y281551D02*
D03*
Y283520D02*
D03*
Y285488D02*
D03*
Y287457D02*
D03*
D43*
X12843Y301818D02*
D03*
Y298078D02*
D03*
Y294338D02*
D03*
X23157D02*
D03*
Y298078D02*
D03*
Y301818D02*
D03*
D44*
X121260Y30843D02*
D03*
X125000D02*
D03*
X128740D02*
D03*
D45*
Y41157D02*
D03*
X121260D02*
D03*
M02*
