G04*
G04 #@! TF.GenerationSoftware,Altium Limited,Altium Designer,19.1.9 (167)*
G04*
G04 Layer_Physical_Order=4*
G04 Layer_Color=16711680*
%FSLAX25Y25*%
%MOIN*%
G70*
G01*
G75*
%ADD11C,0.00500*%
%ADD16C,0.01000*%
%ADD80R,0.11024X0.02165*%
%ADD81C,0.03937*%
%ADD82C,0.02000*%
%ADD83C,0.03000*%
%ADD84C,0.05906*%
%ADD85R,0.05906X0.05906*%
%ADD86R,0.05512X0.05512*%
%ADD87C,0.05512*%
%ADD88C,0.12795*%
%ADD89C,0.09449*%
%ADD90C,0.06000*%
%ADD91C,0.12205*%
%ADD92C,0.02362*%
%ADD93C,0.01772*%
%ADD94C,0.01968*%
D11*
X140172Y215272D02*
Y219731D01*
X139400Y214500D02*
X140172Y215272D01*
D16*
X3799Y219560D02*
G03*
X7659Y221159I0J5459D01*
G01*
X21773Y214369D02*
G03*
X25200Y222642I-8273J8273D01*
G01*
X20571Y215571D02*
G03*
X23500Y222642I-7071J7071D01*
G01*
X28735Y213342D02*
G03*
X28739Y213347I-2427J2436D01*
G01*
X28673Y213282D02*
G03*
X28735Y213342I-2365J2496D01*
G01*
X7290Y198425D02*
G03*
X17205Y201819I0J16180D01*
G01*
X28747Y213330D02*
G03*
X29763Y215781I-2452J2452D01*
G01*
X25795Y213319D02*
G03*
X27610Y217700I-4381J4381D01*
G01*
X8297Y201575D02*
G03*
X12265Y202400I0J9950D01*
G01*
X608Y229183D02*
G03*
X4694Y231694I-3220J9817D01*
G01*
X12300Y202400D02*
G03*
X19678Y207205I-7676J19854D01*
G01*
X12202Y236798D02*
G03*
X12700Y238000I-1202J1202D01*
G01*
X81Y227500D02*
G03*
X4900Y229496I0J6816D01*
G01*
X12265Y210165D02*
G03*
X17219Y212219I-0J7002D01*
G01*
X12107Y208600D02*
G03*
X18763Y211359I-0J9408D01*
G01*
X5502Y218200D02*
G03*
X8239Y219334I-2J3873D01*
G01*
X-42147Y219560D02*
X3799D01*
X7659Y221159D02*
X17000Y230500D01*
X-43069Y220472D02*
X-42147Y219560D01*
X-49000Y220472D02*
X-43069D01*
X-42147Y218200D02*
X5500D01*
X-43024Y217323D02*
X-42147Y218200D01*
X50700Y124500D02*
X56138Y119062D01*
X44000Y173100D02*
X60700Y189800D01*
X44000Y141000D02*
Y173100D01*
X19892Y138308D02*
Y166792D01*
Y138308D02*
X20000Y138200D01*
X31300Y178200D02*
Y211100D01*
X20000Y166900D02*
X31300Y178200D01*
X-3834Y173500D02*
X-2800Y174534D01*
X-23100Y173500D02*
X-3834D01*
X-34600Y162000D02*
X-23100Y173500D01*
X-49000Y176378D02*
X-9099D01*
X-2800Y182677D01*
X-13972Y179528D02*
X-2800Y190700D01*
X-49000Y179528D02*
X-13972D01*
X-36200Y162000D02*
X-34600D01*
X-41129Y166929D02*
X-36200Y162000D01*
X-49000Y166929D02*
X-41129D01*
X19892Y166792D02*
X20000Y166900D01*
X52500Y117200D02*
X133500D01*
X50700Y119000D02*
X52500Y117200D01*
X56138Y119062D02*
X143162D01*
X61582Y121000D02*
X134500D01*
X55000Y127582D02*
X61582Y121000D01*
X64200Y123200D02*
X127100D01*
X55000Y132400D02*
X64200Y123200D01*
X133500Y117200D02*
X164700Y86000D01*
X453500Y322400D02*
X453500Y69509D01*
X453500Y322400D02*
Y326100D01*
X481300Y334800D02*
X484700Y338200D01*
Y342900D01*
X462200Y334800D02*
X481300D01*
X453500Y326100D02*
X462200Y334800D01*
X400991Y17000D02*
X453500Y69509D01*
X425500Y345000D02*
X457900D01*
X425400Y347100D02*
X425500Y347000D01*
X18763Y211359D02*
X21773Y214369D01*
X17219Y212219D02*
X20571Y215571D01*
X47500Y143800D02*
Y172700D01*
X47400Y172800D02*
X47500Y172700D01*
X47400Y172800D02*
X64400Y189800D01*
X67100D01*
X128900Y220800D02*
Y300000D01*
X61000Y152900D02*
X128900Y220800D01*
X53000Y152900D02*
X61000D01*
X64000Y153300D02*
X143200Y230707D01*
Y307100D01*
X62722Y146418D02*
X145500Y229500D01*
X53000Y146400D02*
X62722Y146418D01*
X145500Y229500D02*
Y238000D01*
X125300Y220939D02*
Y250100D01*
X60561Y156200D02*
X125300Y220939D01*
X53000Y156200D02*
X60561D01*
X60400Y149700D02*
X64000Y153300D01*
X53000Y149700D02*
X60400D01*
X56635Y211784D02*
Y212100D01*
X48751Y203900D02*
X56635Y211784D01*
X22000Y226638D02*
X23500Y225138D01*
X22000Y229500D02*
X22222D01*
X6400Y239000D02*
X7300D01*
X3621Y236221D02*
X6400Y239000D01*
X11000Y238000D02*
Y241719D01*
X4694Y231694D02*
X11000Y238000D01*
X-49000Y236221D02*
X3621D01*
X2289Y239370D02*
X3500Y240581D01*
X-49000Y239370D02*
X2289D01*
X10500Y242219D02*
X11000Y241719D01*
X29600Y226661D02*
Y227700D01*
X17208Y201816D02*
X28735Y213342D01*
X-42727Y210165D02*
X12265D01*
X-42562Y208600D02*
X12107D01*
X-43288Y207874D02*
X-42562Y208600D01*
X22222Y229500D02*
X25200Y226522D01*
X-43585Y211024D02*
X-42727Y210165D01*
X18700Y229796D02*
Y233900D01*
X18202Y229298D02*
X18700Y229796D01*
X17000Y230500D02*
Y232500D01*
X18202Y229298D02*
Y229298D01*
X8239Y219334D02*
X18202Y229298D01*
X16200Y236100D02*
X16500D01*
X18700Y233900D01*
X25200Y222642D02*
Y226522D01*
X16500Y233000D02*
X17000Y232500D01*
X29781Y215781D02*
Y226403D01*
X-49000Y198425D02*
X7290Y198425D01*
X29700Y226484D02*
Y226561D01*
Y226484D02*
X29781Y226403D01*
X19839Y207363D02*
X25795Y213319D01*
X-49000Y201575D02*
X8297D01*
X27600Y217700D02*
Y225500D01*
X29600Y226661D02*
X29700Y226561D01*
X-42730Y229183D02*
X608D01*
X389100Y79700D02*
Y97700D01*
X384100Y74700D02*
X389100Y79700D01*
X366200Y149100D02*
Y170800D01*
X361500Y175500D02*
X366200Y170800D01*
X351500Y175500D02*
X357000Y170000D01*
Y162900D02*
Y170000D01*
Y162900D02*
X360300Y159600D01*
X362500Y229600D02*
Y251600D01*
X361500Y228600D02*
X362500Y229600D01*
X360300Y149300D02*
Y159600D01*
X362481Y133000D02*
Y164519D01*
X361500Y165500D02*
X362481Y164519D01*
X366200Y223300D02*
Y235100D01*
X361500Y218600D02*
X366200Y223300D01*
X360100Y234371D02*
Y247800D01*
X356900Y231171D02*
X360100Y234371D01*
X356900Y224000D02*
Y231171D01*
X357700Y243500D02*
Y262700D01*
Y234800D02*
Y243500D01*
X351500Y228600D02*
X357700Y234800D01*
X369100Y293000D02*
Y314800D01*
X374100Y319800D01*
X384100D02*
X389100Y314800D01*
X351500Y165500D02*
X357300Y159700D01*
Y134200D02*
Y159700D01*
X369100Y79700D02*
X374100Y74700D01*
X351500Y218600D02*
X356900Y224000D01*
X384100Y261600D02*
Y309800D01*
X374100Y267600D02*
Y309800D01*
X389100Y287200D02*
Y314800D01*
X369100Y79700D02*
Y103500D01*
X374100Y84700D02*
Y129500D01*
X384100Y84700D02*
Y124000D01*
X-49000Y245669D02*
X-41824D01*
X522500Y183000D02*
X529500Y176000D01*
X519500Y242000D02*
X527500Y234000D01*
X-40579Y170079D02*
X-35800Y165300D01*
X145000Y131500D02*
Y188500D01*
X134500Y121000D02*
X145000Y131500D01*
X143162Y119062D02*
X182100Y158000D01*
X166500Y282500D02*
X167319Y283319D01*
X184500Y276000D02*
X208266D01*
X175200Y278500D02*
X207500D01*
X147000Y250300D02*
X175200Y278500D01*
X211181Y156681D02*
Y161319D01*
X209500Y155000D02*
X211181Y156681D01*
X138900Y310000D02*
X150500D01*
X128900Y300000D02*
X138900Y310000D01*
X150500D02*
X185000Y344500D01*
X140685Y314485D02*
X141669D01*
X109000Y282800D02*
X140685Y314485D01*
X143784Y316600D02*
X144000D01*
X141669Y314485D02*
X143784Y316600D01*
X58000Y282800D02*
X109000D01*
X4900Y229496D02*
X12202Y236798D01*
X108400Y285200D02*
X109357Y286157D01*
X59800Y285200D02*
X108400D01*
X140285Y316185D02*
X140900Y316800D01*
X135000Y315000D02*
X171500Y351500D01*
X204500D01*
X139385Y316185D02*
X140285D01*
X109357Y286157D02*
X139385Y316185D01*
X164700Y86000D02*
X207500D01*
X27700Y315000D02*
X135000D01*
X26800Y314100D02*
X27700Y315000D01*
X507800Y159200D02*
X533000Y134000D01*
X507800Y159200D02*
Y234800D01*
X533000Y260000D01*
X527500Y234000D02*
X536500D01*
X511500Y160000D02*
X529500D01*
X522000Y164000D02*
X536500D01*
X-42010Y163790D02*
X-42000Y163800D01*
X-43469Y229921D02*
X-42730Y229183D01*
X-49000Y229921D02*
X-43469D01*
X12700Y238000D02*
Y243103D01*
X10722Y245081D02*
X12700Y243103D01*
X10500Y245081D02*
X10722D01*
X-42274Y227500D02*
X81D01*
X-43002Y226772D02*
X-42274Y227500D01*
X-49000Y226772D02*
X-43002D01*
X-49000Y211024D02*
X-43585D01*
X-49000Y207874D02*
X-43288D01*
X-49000Y217323D02*
X-43024D01*
X-49000Y170079D02*
X-40579D01*
X-49000Y129134D02*
X-34634D01*
X529500Y238000D02*
Y245000D01*
X458000Y69000D02*
X458000Y189012D01*
X521500Y163416D02*
X521542Y163458D01*
Y163542D01*
X522000Y164000D01*
X458000Y322400D02*
X458000Y189012D01*
X171584Y284000D02*
X206000D01*
X170903Y283319D02*
X171584Y284000D01*
X167319Y283319D02*
X170903D01*
X206000Y284000D02*
X209681Y280319D01*
X167500Y96000D02*
Y141000D01*
X181500Y155000D01*
X209500D01*
X208500Y164000D02*
X211181Y161319D01*
X167500Y164000D02*
X208500D01*
X167500D02*
Y213500D01*
Y259000D01*
X184500Y276000D01*
X208266D02*
X209681Y277415D01*
Y280319D01*
X204500Y351500D02*
X212000D01*
X166500Y282500D02*
Y316500D01*
X191500Y341500D01*
X207000D01*
X209500Y344000D01*
Y346500D01*
X204500Y351500D02*
X209500Y346500D01*
X212000Y351500D02*
X228500Y335000D01*
Y320000D02*
Y335000D01*
X229500Y255000D02*
X230000Y254500D01*
X229500Y255000D02*
Y261500D01*
X230500Y262500D01*
Y282000D01*
X228500Y284000D02*
X230500Y282000D01*
X228500Y284000D02*
Y320000D01*
X230000Y240000D02*
Y254500D01*
X227000Y237000D02*
X230000Y240000D01*
X227000Y231500D02*
Y237000D01*
Y231500D02*
X232000Y226500D01*
Y133500D02*
Y226500D01*
Y59500D02*
Y133500D01*
X182100Y158000D02*
X209000D01*
X207500Y86000D02*
X210000Y83500D01*
X185000Y344500D02*
X206000D01*
X23500Y222642D02*
Y225138D01*
X-34634Y129134D02*
X-28000Y122500D01*
D80*
X-49000Y236221D02*
D03*
Y239370D02*
D03*
Y129134D02*
D03*
Y132283D02*
D03*
Y135433D02*
D03*
Y138583D02*
D03*
Y141732D02*
D03*
Y144882D02*
D03*
Y148031D02*
D03*
Y151181D02*
D03*
Y154331D02*
D03*
Y157480D02*
D03*
Y160630D02*
D03*
Y163779D02*
D03*
Y166929D02*
D03*
Y170079D02*
D03*
Y173228D02*
D03*
Y176378D02*
D03*
Y179528D02*
D03*
Y182677D02*
D03*
Y198425D02*
D03*
Y201575D02*
D03*
Y204724D02*
D03*
Y207874D02*
D03*
Y211024D02*
D03*
Y214173D02*
D03*
Y217323D02*
D03*
Y220472D02*
D03*
Y223622D02*
D03*
Y226772D02*
D03*
Y229921D02*
D03*
Y233071D02*
D03*
Y242520D02*
D03*
Y245669D02*
D03*
Y248819D02*
D03*
Y251969D02*
D03*
Y255118D02*
D03*
Y258268D02*
D03*
Y261417D02*
D03*
Y264567D02*
D03*
D81*
X-2800Y190700D02*
D03*
Y182677D02*
D03*
Y174534D02*
D03*
D82*
X-49000Y255000D02*
X-42000D01*
X-49000Y233100D02*
X-42100D01*
X-49000Y135433D02*
X-42000D01*
X-49000Y242520D02*
X-42200D01*
X-49000Y248819D02*
X-42200D01*
X-42181Y261417D02*
X-42098Y261500D01*
X-42000D01*
X-49000Y261417D02*
X-42181D01*
X-49000Y258268D02*
X-42000D01*
Y261500D02*
Y261996D01*
X-49000Y223622D02*
X-42200D01*
X-44571Y264567D02*
X-42000Y261996D01*
X-49000Y264567D02*
X-44571D01*
X-49000Y214173D02*
X-42100D01*
X-49000Y204724D02*
X-42000D01*
X-49000Y182677D02*
X-42000D01*
X-49000Y173228D02*
X-42000D01*
X-48990Y163790D02*
X-42010D01*
X-49000Y154331D02*
X-42000D01*
X-49000Y144882D02*
X-42000D01*
D83*
Y254913D02*
X-37843D01*
X-37839Y254918D02*
X-35582D01*
X-37843Y254913D02*
X-37839Y254918D01*
X88000Y5500D02*
X403991D01*
X35400Y58100D02*
Y246100D01*
Y58100D02*
X88000Y5500D01*
X-35582Y254918D02*
X-28500Y262000D01*
X335400Y17000D02*
X400991D01*
X118500Y49500D02*
X157000D01*
X118000Y49000D02*
Y99000D01*
X39500Y113500D02*
Y250000D01*
X-30200Y267300D02*
X22200D01*
X39500Y113500D02*
X40000D01*
X19500Y262000D02*
X35400Y246100D01*
X399991Y11000D02*
X494300Y105309D01*
X22200Y267300D02*
X39500Y250000D01*
X62199Y355202D02*
X94017D01*
X62194D02*
X62199D01*
X425500Y120100D02*
Y145100D01*
X54846Y362550D02*
X62194Y355202D01*
X48970Y362550D02*
X54846D01*
X119900Y358227D02*
X123658D01*
X110351D02*
X119900D01*
X97043D02*
X110351D01*
X39120Y362550D02*
X48970D01*
X36088D02*
X39120D01*
X23000Y359200D02*
X27000D01*
X31000D01*
X32738D02*
X36088Y362550D01*
X31000Y359200D02*
X32738D01*
X94017Y355202D02*
X97043Y358227D01*
X123658D02*
X145142Y379711D01*
X396589D01*
X133000Y203581D02*
X133300Y203881D01*
X133000Y182500D02*
Y203581D01*
X425400Y223400D02*
X425500Y223500D01*
X425400Y253700D02*
Y279200D01*
Y347100D01*
X425500Y94500D02*
Y120100D01*
X425400Y145100D02*
Y171000D01*
Y202100D01*
Y223600D02*
X425500Y223500D01*
X425400Y145100D02*
X425500D01*
X425400Y347100D02*
Y350900D01*
Y202100D02*
Y223400D01*
Y223600D02*
Y228000D01*
X396589Y379711D02*
X425400Y350900D01*
Y228000D02*
Y253700D01*
X133000Y125700D02*
Y182500D01*
X3700Y350455D02*
X27045Y373800D01*
X3700Y267300D02*
Y350455D01*
X27045Y373800D02*
X32900D01*
X133500Y231500D02*
Y300000D01*
X133000Y300500D02*
X133500Y300000D01*
X118000Y99000D02*
X133000Y114000D01*
X26800Y314100D02*
Y316900D01*
X403991Y5500D02*
X500141Y101650D01*
X494300Y105309D02*
X497400D01*
X-28500Y262000D02*
X19500D01*
X-39232Y258268D02*
X-30200Y267300D01*
X-42000Y258268D02*
X-39232D01*
X334500Y132000D02*
X337500D01*
Y55900D02*
Y112200D01*
X133500Y17000D02*
X335400D01*
X337700Y19300D01*
X110000Y11000D02*
X399991D01*
X108819Y9819D02*
X110000Y11000D01*
X90681Y9819D02*
X108819D01*
X39500Y61000D02*
X90681Y9819D01*
X118500Y47000D02*
Y49500D01*
Y32000D02*
Y47000D01*
Y32000D02*
X133500Y17000D01*
X39500Y61000D02*
Y113500D01*
X334500Y112900D02*
X335200Y112200D01*
X337500D01*
X334500Y112900D02*
Y122500D01*
X211000Y257500D02*
X215000Y253500D01*
X196000Y272500D02*
X211000Y257500D01*
X195000Y338500D02*
X213000Y320500D01*
Y277000D02*
Y320500D01*
X211000Y275000D02*
X213000Y277000D01*
X211000Y257500D02*
Y275000D01*
X215000Y156500D02*
Y253500D01*
X213000Y154500D02*
X215000Y156500D01*
X213000Y137000D02*
Y154500D01*
X334500Y278000D02*
Y288000D01*
X335000Y287500D01*
X337500D01*
X334500Y267500D02*
Y278000D01*
X335000Y277500D01*
X337500D01*
X334500Y257500D02*
Y267500D01*
X337500D01*
X334500Y142000D02*
Y257500D01*
X337500D01*
X334500Y132000D02*
Y142000D01*
X337500D01*
X334500Y122500D02*
Y132000D01*
Y122500D02*
X335000Y122000D01*
X337500D01*
X198500Y151500D02*
X213000Y137000D01*
X214500Y135500D01*
Y84000D02*
Y135500D01*
X213181Y82681D02*
X214500Y84000D01*
X213181Y82182D02*
Y82681D01*
X211318Y80319D02*
X213181Y82182D01*
X208682Y80319D02*
X211318D01*
X208001Y81000D02*
X208682Y80319D01*
X198000Y81000D02*
X208001D01*
X196500Y79500D02*
X198000Y81000D01*
X196500Y79500D02*
X198500Y77500D01*
X187000Y79500D02*
X196500D01*
X157000Y49500D02*
X187000Y79500D01*
D84*
X384100Y319800D02*
D03*
Y309800D02*
D03*
X374100Y319800D02*
D03*
X361500Y228600D02*
D03*
Y218600D02*
D03*
X351500Y228600D02*
D03*
X361500Y175500D02*
D03*
Y165500D02*
D03*
X351500Y175500D02*
D03*
X384100Y84700D02*
D03*
Y74700D02*
D03*
X374100Y84700D02*
D03*
D85*
Y309800D02*
D03*
X351500Y218600D02*
D03*
Y165500D02*
D03*
X374100Y74700D02*
D03*
D86*
X536500Y180000D02*
D03*
Y242000D02*
D03*
D87*
X529500Y176000D02*
D03*
X536500Y172000D02*
D03*
X529500Y168000D02*
D03*
X536500Y164000D02*
D03*
X529500Y160000D02*
D03*
X536500Y156000D02*
D03*
X529500Y152000D02*
D03*
Y214000D02*
D03*
X536500Y218000D02*
D03*
X529500Y222000D02*
D03*
X536500Y226000D02*
D03*
X529500Y230000D02*
D03*
X536500Y234000D02*
D03*
X529500Y238000D02*
D03*
D88*
X546500Y141000D02*
D03*
Y253000D02*
D03*
D89*
X533000Y134000D02*
D03*
Y260000D02*
D03*
D90*
X531256Y59000D02*
D03*
Y69000D02*
D03*
Y79000D02*
D03*
Y89000D02*
D03*
Y99000D02*
D03*
Y109000D02*
D03*
Y49000D02*
D03*
Y39000D02*
D03*
X521256Y109000D02*
D03*
Y99000D02*
D03*
Y89000D02*
D03*
Y79000D02*
D03*
Y69000D02*
D03*
Y59000D02*
D03*
Y49000D02*
D03*
Y39000D02*
D03*
D91*
X543307Y372047D02*
D03*
Y21654D02*
D03*
D92*
X44000Y141000D02*
D03*
X20000Y138200D02*
D03*
X50700Y119000D02*
D03*
Y124500D02*
D03*
X55000Y127582D02*
D03*
Y132400D02*
D03*
X80327Y355202D02*
D03*
X62199D02*
D03*
X119900Y358227D02*
D03*
X110351D02*
D03*
X94017Y355202D02*
D03*
X48970Y362550D02*
D03*
X39120D02*
D03*
X31000Y359200D02*
D03*
X27000D02*
D03*
X23000D02*
D03*
X133300Y203881D02*
D03*
X133000Y182500D02*
D03*
X16500Y43000D02*
D03*
Y53000D02*
D03*
X19000Y48000D02*
D03*
X29000D02*
D03*
X31500Y33000D02*
D03*
X24000Y38000D02*
D03*
X26500Y53000D02*
D03*
Y43000D02*
D03*
X31500Y53000D02*
D03*
X26500Y33000D02*
D03*
X24000Y48000D02*
D03*
X29000Y38000D02*
D03*
X11500Y33000D02*
D03*
X31500Y43000D02*
D03*
X11500Y53000D02*
D03*
X14000Y48000D02*
D03*
X21500Y53000D02*
D03*
Y43000D02*
D03*
X11500D02*
D03*
X16300Y24700D02*
D03*
X18800D02*
D03*
X21300D02*
D03*
X482951Y43337D02*
D03*
Y46837D02*
D03*
X485451Y43337D02*
D03*
X480451D02*
D03*
Y46837D02*
D03*
X485451D02*
D03*
X47500Y143800D02*
D03*
X140172Y219731D02*
D03*
X53000Y146400D02*
D03*
Y149700D02*
D03*
Y156200D02*
D03*
Y152900D02*
D03*
X56635Y212100D02*
D03*
X48751Y203900D02*
D03*
X67100Y189800D02*
D03*
X60700D02*
D03*
X60000Y181000D02*
D03*
X139400Y214500D02*
D03*
X22000Y226638D02*
D03*
Y229500D02*
D03*
X7300Y239000D02*
D03*
X3500Y240581D02*
D03*
X10500Y242219D02*
D03*
X31300Y211100D02*
D03*
X29600Y227700D02*
D03*
X16200Y236100D02*
D03*
Y233000D02*
D03*
X27600Y225500D02*
D03*
X389100Y97700D02*
D03*
X362500Y133000D02*
D03*
X360300Y149300D02*
D03*
X360100Y247800D02*
D03*
X366200Y235100D02*
D03*
X369100Y293000D02*
D03*
X484700Y342900D02*
D03*
X20000Y166900D02*
D03*
X357300Y134200D02*
D03*
X362500Y251600D02*
D03*
X357700Y262700D02*
D03*
X384100Y261600D02*
D03*
X374100Y267600D02*
D03*
X389100Y287200D02*
D03*
X366200Y149100D02*
D03*
X374100Y129500D02*
D03*
X369100Y103500D02*
D03*
X384100Y124000D02*
D03*
X32900Y373800D02*
D03*
X-41824Y245669D02*
D03*
X457900Y345000D02*
D03*
X461200Y354350D02*
D03*
X458000Y322400D02*
D03*
X5500Y138200D02*
D03*
Y167000D02*
D03*
X425400Y279200D02*
D03*
Y253700D02*
D03*
Y228000D02*
D03*
Y202100D02*
D03*
Y171000D02*
D03*
Y145100D02*
D03*
X425500Y120100D02*
D03*
Y94500D02*
D03*
X466800Y301700D02*
D03*
X462400Y302200D02*
D03*
Y276900D02*
D03*
X445500Y276600D02*
D03*
X449800Y276000D02*
D03*
X462400Y251100D02*
D03*
X466800Y250800D02*
D03*
X465500Y226400D02*
D03*
X462451Y225951D02*
D03*
X448478Y251622D02*
D03*
X445451Y251451D02*
D03*
X465722Y277422D02*
D03*
X449800Y168300D02*
D03*
X445400Y168900D02*
D03*
X465500Y169200D02*
D03*
X462400Y194200D02*
D03*
X450000Y225200D02*
D03*
X445400Y226000D02*
D03*
X462451Y168818D02*
D03*
X466963Y193728D02*
D03*
X448516Y200816D02*
D03*
X445451Y200551D02*
D03*
Y143749D02*
D03*
X462451Y143600D02*
D03*
X449565Y117135D02*
D03*
X462300Y118000D02*
D03*
X448506Y143906D02*
D03*
X466935Y142835D02*
D03*
X465722Y118522D02*
D03*
X445400Y91900D02*
D03*
X448400Y92800D02*
D03*
X445500Y117500D02*
D03*
X519500Y242000D02*
D03*
X522500Y183000D02*
D03*
X-42200Y242520D02*
D03*
Y248819D02*
D03*
X-35800Y165300D02*
D03*
X10500Y152361D02*
D03*
X133000Y125700D02*
D03*
X127100Y123200D02*
D03*
X141200Y121243D02*
D03*
X143200Y307100D02*
D03*
X145500Y238000D02*
D03*
X147000Y250300D02*
D03*
X125300Y250100D02*
D03*
X140900Y232000D02*
D03*
X139500Y307000D02*
D03*
X144000Y316600D02*
D03*
X140900Y316800D02*
D03*
X133000Y114000D02*
D03*
X430100Y105051D02*
D03*
Y131000D02*
D03*
Y156551D02*
D03*
Y181551D02*
D03*
Y213051D02*
D03*
Y238500D02*
D03*
Y264051D02*
D03*
Y289551D02*
D03*
X26800Y314100D02*
D03*
Y316900D02*
D03*
X8301Y376621D02*
D03*
X542200Y291000D02*
D03*
X548800Y273300D02*
D03*
X9752Y123582D02*
D03*
X-42000Y163800D02*
D03*
X59800Y285200D02*
D03*
X58000Y282800D02*
D03*
X108900Y376529D02*
D03*
X133000Y300500D02*
D03*
X10500Y245081D02*
D03*
X140000Y301000D02*
D03*
X11500Y267300D02*
D03*
X14000D02*
D03*
X-42000Y258268D02*
D03*
Y261500D02*
D03*
X-42100Y233100D02*
D03*
X-42000Y255000D02*
D03*
Y135449D02*
D03*
X-42200Y223622D02*
D03*
X80300Y150100D02*
D03*
X84500Y145300D02*
D03*
X-42100Y214173D02*
D03*
X-42000Y204724D02*
D03*
Y182677D02*
D03*
Y173228D02*
D03*
Y154331D02*
D03*
Y144882D02*
D03*
X404000Y137500D02*
D03*
Y112000D02*
D03*
X529500Y245000D02*
D03*
X324200Y43500D02*
D03*
Y46400D02*
D03*
X327500Y43600D02*
D03*
X331846Y34500D02*
D03*
Y37400D02*
D03*
Y40350D02*
D03*
X327500Y46400D02*
D03*
X337500Y55900D02*
D03*
X337700Y19300D02*
D03*
X270500Y89000D02*
D03*
X523000Y242000D02*
D03*
X521542Y163458D02*
D03*
X511500Y160000D02*
D03*
X502000Y43500D02*
D03*
X507000D02*
D03*
X504500D02*
D03*
Y73500D02*
D03*
X507000D02*
D03*
X502000D02*
D03*
X298500Y250000D02*
D03*
X299000Y104500D02*
D03*
X502000Y77000D02*
D03*
X507000D02*
D03*
X504500D02*
D03*
X507000Y47000D02*
D03*
X504500D02*
D03*
X502000D02*
D03*
X403000Y300500D02*
D03*
X404000Y297000D02*
D03*
X403000Y275000D02*
D03*
X404000Y271500D02*
D03*
X403000Y249500D02*
D03*
X404000Y245500D02*
D03*
X403000Y224000D02*
D03*
X404000Y220500D02*
D03*
X403000Y192500D02*
D03*
X404000Y189000D02*
D03*
X403000Y167000D02*
D03*
X404000Y163000D02*
D03*
X403000Y141500D02*
D03*
Y116000D02*
D03*
X337500Y112200D02*
D03*
X258000Y304500D02*
D03*
X258500Y180000D02*
D03*
X236500Y238500D02*
D03*
X198500Y347000D02*
D03*
X203000Y281000D02*
D03*
X195320Y152819D02*
D03*
X140500Y238000D02*
D03*
Y188000D02*
D03*
X196320Y83819D02*
D03*
X167500Y96000D02*
D03*
Y164000D02*
D03*
Y213500D02*
D03*
X166500Y282500D02*
D03*
X228500Y320000D02*
D03*
X230000Y254500D02*
D03*
X232000Y133500D02*
D03*
Y59500D02*
D03*
X118500Y47000D02*
D03*
Y49500D02*
D03*
X195000Y338500D02*
D03*
X198500Y151500D02*
D03*
X196000Y272500D02*
D03*
X133500Y231500D02*
D03*
X198500Y77500D02*
D03*
X209000Y158000D02*
D03*
X210000Y83500D02*
D03*
X145000Y188500D02*
D03*
X207500Y278500D02*
D03*
X206000Y344500D02*
D03*
X40000Y113500D02*
D03*
X265600Y341300D02*
D03*
X266900Y336100D02*
D03*
X260800Y298700D02*
D03*
X231000Y233500D02*
D03*
X273500Y276000D02*
D03*
X276900Y270100D02*
D03*
X202425Y338425D02*
D03*
X232000Y323000D02*
D03*
X225000Y326000D02*
D03*
Y344500D02*
D03*
X260000Y349500D02*
D03*
Y332500D02*
D03*
X238000Y329000D02*
D03*
X224000Y316000D02*
D03*
X163000Y307000D02*
D03*
Y288500D02*
D03*
X170000Y285500D02*
D03*
X197500Y312500D02*
D03*
Y294500D02*
D03*
X176000Y291500D02*
D03*
X162000Y278500D02*
D03*
X203500Y273000D02*
D03*
X226500Y279000D02*
D03*
Y260500D02*
D03*
X233500Y257500D02*
D03*
X261000Y285000D02*
D03*
Y266500D02*
D03*
X239500Y263500D02*
D03*
X225500Y250500D02*
D03*
X198500Y243500D02*
D03*
Y226000D02*
D03*
X164000Y238000D02*
D03*
Y219500D02*
D03*
X171000Y216500D02*
D03*
X177000Y222500D02*
D03*
X163000Y209669D02*
D03*
X65000Y175700D02*
D03*
X109500Y114000D02*
D03*
X117400Y107858D02*
D03*
X197500Y71300D02*
D03*
X191000Y75800D02*
D03*
X253000Y186000D02*
D03*
X141000Y182500D02*
D03*
X164000Y188500D02*
D03*
Y170500D02*
D03*
X171000Y167000D02*
D03*
X198500Y194000D02*
D03*
Y176500D02*
D03*
X177000Y173000D02*
D03*
X163000Y160000D02*
D03*
X268000Y148000D02*
D03*
X274000Y141500D02*
D03*
X228500Y158000D02*
D03*
Y139500D02*
D03*
X263000Y163000D02*
D03*
Y146000D02*
D03*
X241600Y142700D02*
D03*
X235400Y136600D02*
D03*
X205800Y151600D02*
D03*
X227400Y55700D02*
D03*
X162700Y92200D02*
D03*
X227500Y129600D02*
D03*
X207500Y118800D02*
D03*
X199500Y114000D02*
D03*
X177000Y105000D02*
D03*
X198500Y126000D02*
D03*
Y108000D02*
D03*
X164000Y120500D02*
D03*
X141000Y114500D02*
D03*
X164000Y102000D02*
D03*
X171000Y99000D02*
D03*
X228500Y84000D02*
D03*
Y65000D02*
D03*
X-28000Y122500D02*
D03*
X-18000Y119000D02*
D03*
X-9000Y122000D02*
D03*
X101500Y13000D02*
D03*
X104000D02*
D03*
X205500Y77500D02*
D03*
X264500Y81500D02*
D03*
X262500Y89500D02*
D03*
Y72000D02*
D03*
X241551Y68500D02*
D03*
X235500Y62500D02*
D03*
X472900Y345000D02*
D03*
X338500Y291000D02*
D03*
X337500Y287500D02*
D03*
X338500Y281000D02*
D03*
X337500Y277500D02*
D03*
X338500Y271000D02*
D03*
X337500Y267500D02*
D03*
X338500Y261000D02*
D03*
X337500Y257500D02*
D03*
X293500Y290000D02*
D03*
X293209Y280000D02*
D03*
Y269791D02*
D03*
Y260000D02*
D03*
X294500Y257000D02*
D03*
Y267000D02*
D03*
Y277000D02*
D03*
Y287000D02*
D03*
X338500Y145200D02*
D03*
Y135200D02*
D03*
Y125100D02*
D03*
Y115400D02*
D03*
X293500Y114000D02*
D03*
Y124000D02*
D03*
Y134000D02*
D03*
Y144000D02*
D03*
X294500Y141000D02*
D03*
Y131000D02*
D03*
Y121000D02*
D03*
Y111000D02*
D03*
X337500Y122000D02*
D03*
Y132200D02*
D03*
Y142000D02*
D03*
D93*
X91650Y110200D02*
D03*
X98750Y102600D02*
D03*
X472900Y363000D02*
D03*
X67500Y344000D02*
D03*
Y329000D02*
D03*
X60000Y344000D02*
D03*
X63750Y336500D02*
D03*
X60000Y329000D02*
D03*
X63750Y321500D02*
D03*
Y306500D02*
D03*
X56250Y336500D02*
D03*
Y321500D02*
D03*
Y306500D02*
D03*
X48750Y336500D02*
D03*
Y306500D02*
D03*
X45000Y299000D02*
D03*
X48750Y291500D02*
D03*
X41250Y336500D02*
D03*
X37500Y329000D02*
D03*
X41250Y306500D02*
D03*
X37500Y299000D02*
D03*
X41250Y291500D02*
D03*
X30000Y344000D02*
D03*
X33750Y336500D02*
D03*
X30000Y329000D02*
D03*
X33750Y306500D02*
D03*
X30000Y299000D02*
D03*
X33750Y291500D02*
D03*
X22500Y344000D02*
D03*
X26250Y336500D02*
D03*
X22500Y329000D02*
D03*
X15000Y344000D02*
D03*
Y329000D02*
D03*
X18750Y321500D02*
D03*
X7500Y344000D02*
D03*
X11250Y336500D02*
D03*
X7500Y329000D02*
D03*
Y314000D02*
D03*
X11250Y306500D02*
D03*
X7500Y299000D02*
D03*
X11250Y291500D02*
D03*
X7500Y284000D02*
D03*
X131250Y74000D02*
D03*
X127500Y66500D02*
D03*
Y36500D02*
D03*
X131250Y14000D02*
D03*
X127500Y6500D02*
D03*
X123750Y74000D02*
D03*
Y14000D02*
D03*
X120000Y6500D02*
D03*
X112500Y66500D02*
D03*
Y36500D02*
D03*
Y21500D02*
D03*
Y6500D02*
D03*
X108750Y89000D02*
D03*
X105000Y66500D02*
D03*
Y51500D02*
D03*
Y36500D02*
D03*
Y21500D02*
D03*
Y6500D02*
D03*
X97500Y81500D02*
D03*
X101250Y74000D02*
D03*
X97500Y51500D02*
D03*
X101250Y44000D02*
D03*
X97500Y21500D02*
D03*
Y6500D02*
D03*
X93750Y74000D02*
D03*
X90000Y51500D02*
D03*
X93750Y44000D02*
D03*
X90000Y36500D02*
D03*
Y21500D02*
D03*
X93750Y14000D02*
D03*
X90000Y6500D02*
D03*
X82500Y81500D02*
D03*
X86250Y74000D02*
D03*
Y29000D02*
D03*
X82500Y6500D02*
D03*
X78750Y74000D02*
D03*
Y29000D02*
D03*
X75000Y6500D02*
D03*
X67500Y96500D02*
D03*
Y81500D02*
D03*
X71250Y74000D02*
D03*
X67500Y66500D02*
D03*
X71250Y59000D02*
D03*
X67500Y51500D02*
D03*
Y6500D02*
D03*
X60000Y96500D02*
D03*
Y81500D02*
D03*
X63750Y74000D02*
D03*
Y59000D02*
D03*
X60000Y51500D02*
D03*
X63750Y44000D02*
D03*
Y29000D02*
D03*
X60000Y21500D02*
D03*
Y6500D02*
D03*
X52500Y96500D02*
D03*
X56250Y29000D02*
D03*
X45000Y96500D02*
D03*
X48750Y89000D02*
D03*
X30000Y111500D02*
D03*
X33750Y104000D02*
D03*
Y89000D02*
D03*
X30000Y81500D02*
D03*
X33750Y74000D02*
D03*
X22500Y111500D02*
D03*
X26250Y104000D02*
D03*
X22500Y96500D02*
D03*
X26250Y89000D02*
D03*
X22500Y81500D02*
D03*
X26250Y74000D02*
D03*
X15000Y111500D02*
D03*
X18750Y104000D02*
D03*
X15000Y96500D02*
D03*
X18750Y89000D02*
D03*
X15000Y81500D02*
D03*
X18750Y74000D02*
D03*
X7500Y111500D02*
D03*
X11250Y104000D02*
D03*
X7500Y96500D02*
D03*
X11250Y89000D02*
D03*
X7500Y81500D02*
D03*
X11250Y74000D02*
D03*
X497400Y105309D02*
D03*
X500141Y101650D02*
D03*
X487900Y363000D02*
D03*
X442800Y363040D02*
D03*
D94*
X152484Y232941D02*
D03*
X156815D02*
D03*
X152484Y228610D02*
D03*
X156815D02*
D03*
X152484Y224279D02*
D03*
X156815D02*
D03*
X152484Y115441D02*
D03*
X156815D02*
D03*
X152484Y111110D02*
D03*
X156815D02*
D03*
X152484Y106780D02*
D03*
X156815D02*
D03*
X155815Y293280D02*
D03*
X151484D02*
D03*
X155815Y297610D02*
D03*
X151484D02*
D03*
X155815Y301941D02*
D03*
X151484D02*
D03*
X152484Y183441D02*
D03*
X156815D02*
D03*
X152484Y179110D02*
D03*
X156815D02*
D03*
X152484Y174779D02*
D03*
X156815D02*
D03*
X221315Y70315D02*
D03*
X216984D02*
D03*
X221315Y74646D02*
D03*
X216984D02*
D03*
X221315Y78976D02*
D03*
X216984D02*
D03*
X219315Y265299D02*
D03*
X214984D02*
D03*
X219315Y269630D02*
D03*
X214984D02*
D03*
X219315Y273961D02*
D03*
X214984D02*
D03*
X216984Y152941D02*
D03*
X221315D02*
D03*
X216984Y148610D02*
D03*
X221315D02*
D03*
X216984Y144280D02*
D03*
X221315D02*
D03*
X217815Y330780D02*
D03*
X213484D02*
D03*
X217815Y335110D02*
D03*
X213484D02*
D03*
X217815Y339441D02*
D03*
X213484D02*
D03*
M02*
