G04*
G04 #@! TF.GenerationSoftware,Altium Limited,Altium Designer,19.1.9 (167)*
G04*
G04 Layer_Physical_Order=2*
G04 Layer_Color=36540*
%FSLAX25Y25*%
%MOIN*%
G70*
G01*
G75*
%ADD16C,0.01000*%
%ADD79R,0.05118X0.05118*%
%ADD80C,0.05118*%
%ADD87C,0.01772*%
%ADD88C,0.02362*%
%ADD89C,0.01968*%
G36*
X553630Y254404D02*
X553150Y254323D01*
X552764Y255595D01*
X552138Y256767D01*
X551294Y257794D01*
X550267Y258638D01*
X549095Y259264D01*
X547823Y259650D01*
X546500Y259780D01*
X545177Y259650D01*
X543905Y259264D01*
X542733Y258638D01*
X541706Y257794D01*
X540862Y256767D01*
X540236Y255595D01*
X539850Y254323D01*
X539720Y253000D01*
X539850Y251677D01*
X540236Y250405D01*
X540862Y249233D01*
X541706Y248206D01*
X542733Y247362D01*
X543905Y246736D01*
X545177Y246350D01*
X546500Y246220D01*
X547823Y246350D01*
X549095Y246736D01*
X550267Y247362D01*
X551294Y248206D01*
X552138Y249233D01*
X552764Y250405D01*
X553150Y251677D01*
X553630Y251596D01*
Y142404D01*
X553150Y142323D01*
X552764Y143595D01*
X552138Y144767D01*
X551294Y145794D01*
X550267Y146638D01*
X549095Y147264D01*
X547823Y147650D01*
X546500Y147780D01*
X545177Y147650D01*
X543905Y147264D01*
X542733Y146638D01*
X541706Y145794D01*
X540862Y144767D01*
X540236Y143595D01*
X539850Y142323D01*
X539720Y141000D01*
X539850Y139677D01*
X540236Y138405D01*
X540862Y137233D01*
X541706Y136206D01*
X542733Y135362D01*
X543905Y134736D01*
X545177Y134350D01*
X546500Y134220D01*
X547823Y134350D01*
X549095Y134736D01*
X550267Y135362D01*
X551294Y136206D01*
X552138Y137233D01*
X552764Y138405D01*
X553150Y139677D01*
X553630Y139596D01*
Y114500D01*
X495500D01*
Y89000D01*
X505586Y78914D01*
X505508Y78320D01*
X505390Y78247D01*
X505097Y78442D01*
X504500Y78561D01*
X503903Y78442D01*
X503610Y78247D01*
X503250Y78145D01*
X502890Y78247D01*
X502597Y78442D01*
X502000Y78561D01*
X501403Y78442D01*
X500896Y78104D01*
X500558Y77597D01*
X500439Y77000D01*
X500558Y76403D01*
X500896Y75896D01*
X501403Y75558D01*
X502000Y75439D01*
X502597Y75558D01*
X502890Y75753D01*
X503250Y75855D01*
X503610Y75753D01*
X503903Y75558D01*
X504500Y75439D01*
X505097Y75558D01*
X505390Y75753D01*
X505750Y75855D01*
X506110Y75753D01*
X506403Y75558D01*
X507000Y75439D01*
X507597Y75558D01*
X508104Y75896D01*
X508559Y75941D01*
X509500Y75000D01*
Y2039D01*
X2039D01*
X2039Y115437D01*
X1884Y116217D01*
X1442Y116879D01*
X780Y117321D01*
X-0Y117476D01*
X-23933D01*
X-23983Y117466D01*
X-24033Y117474D01*
X-24419Y117455D01*
X-24566Y117418D01*
X-24717D01*
X-25474Y117267D01*
X-25659Y117191D01*
X-25856Y117151D01*
X-26569Y116856D01*
X-26736Y116744D01*
X-26922Y116668D01*
X-27564Y116239D01*
X-27706Y116097D01*
X-27873Y115985D01*
X-28418Y115439D01*
X-28530Y115272D01*
X-28672Y115130D01*
X-29101Y114489D01*
X-29178Y114303D01*
X-29289Y114136D01*
X-29585Y113423D01*
X-29624Y113226D01*
X-29700Y113041D01*
X-29851Y112284D01*
Y112133D01*
X-29888Y111986D01*
X-29907Y111600D01*
X-29899Y111550D01*
X-29909Y111500D01*
Y109602D01*
X-32838D01*
Y121343D01*
X-32848Y121392D01*
X-32841Y121443D01*
X-32860Y121828D01*
X-32896Y121975D01*
Y122126D01*
X-33047Y122883D01*
X-33124Y123069D01*
X-33163Y123266D01*
X-33458Y123979D01*
X-33570Y124146D01*
X-33647Y124331D01*
X-34076Y124973D01*
X-34218Y125115D01*
X-34329Y125282D01*
X-34875Y125828D01*
X-35042Y125939D01*
X-35184Y126081D01*
X-35826Y126510D01*
X-36011Y126587D01*
X-36178Y126699D01*
X-36891Y126994D01*
X-37088Y127033D01*
X-37274Y127110D01*
X-38031Y127260D01*
X-38182D01*
X-38328Y127297D01*
X-38714Y127316D01*
X-38765Y127309D01*
X-38814Y127319D01*
X-56461D01*
Y183969D01*
X-38028D01*
X-37961Y183982D01*
X-37894Y183973D01*
X-37278Y184013D01*
X-37084Y184065D01*
X-36883Y184079D01*
X-35692Y184398D01*
X-35453Y184516D01*
X-35200Y184602D01*
X-34132Y185218D01*
X-33931Y185394D01*
X-33710Y185542D01*
X-32838Y186414D01*
X-32689Y186636D01*
X-32513Y186837D01*
X-31897Y187905D01*
X-31811Y188157D01*
X-31693Y188397D01*
X-31374Y189588D01*
X-31356Y189854D01*
X-31304Y190116D01*
Y191349D01*
X-31356Y191611D01*
X-31374Y191877D01*
X-31693Y193068D01*
X-31811Y193307D01*
X-31897Y193560D01*
X-32513Y194628D01*
X-32689Y194828D01*
X-32838Y195050D01*
X-33710Y195922D01*
X-33931Y196071D01*
X-34132Y196246D01*
X-35200Y196863D01*
X-35453Y196949D01*
X-35692Y197067D01*
X-36883Y197386D01*
X-37084Y197399D01*
X-37278Y197451D01*
X-37894Y197492D01*
X-37961Y197483D01*
X-38028Y197496D01*
X-56461D01*
Y266744D01*
X-38814D01*
X-38765Y266754D01*
X-38714Y266747D01*
X-38328Y266766D01*
X-38182Y266803D01*
X-38031D01*
X-37274Y266953D01*
X-37088Y267030D01*
X-36891Y267069D01*
X-36178Y267364D01*
X-36011Y267476D01*
X-35826Y267553D01*
X-35184Y267982D01*
X-35042Y268124D01*
X-34875Y268235D01*
X-34329Y268781D01*
X-34218Y268948D01*
X-34076Y269090D01*
X-33647Y269732D01*
X-33570Y269917D01*
X-33458Y270084D01*
X-33163Y270797D01*
X-33124Y270994D01*
X-33047Y271180D01*
X-32896Y271937D01*
Y272088D01*
X-32860Y272235D01*
X-32841Y272620D01*
X-32848Y272671D01*
X-32838Y272721D01*
Y284461D01*
X-29909D01*
Y282563D01*
X-29899Y282513D01*
X-29907Y282463D01*
X-29888Y282077D01*
X-29851Y281930D01*
Y281779D01*
X-29700Y281022D01*
X-29624Y280837D01*
X-29585Y280640D01*
X-29289Y279927D01*
X-29177Y279760D01*
X-29101Y279574D01*
X-28672Y278932D01*
X-28530Y278790D01*
X-28418Y278624D01*
X-27873Y278078D01*
X-27706Y277966D01*
X-27564Y277824D01*
X-26922Y277395D01*
X-26736Y277319D01*
X-26569Y277207D01*
X-25856Y276912D01*
X-25659Y276872D01*
X-25474Y276796D01*
X-24717Y276645D01*
X-24566D01*
X-24419Y276608D01*
X-24033Y276589D01*
X-23983Y276597D01*
X-23933Y276587D01*
X-0D01*
X780Y276742D01*
X1442Y277184D01*
X1884Y277846D01*
X2039Y278626D01*
Y391662D01*
X553630D01*
Y254404D01*
D02*
G37*
%LPC*%
G36*
X32500Y378561D02*
X31903Y378442D01*
X31396Y378104D01*
X31058Y377597D01*
X30939Y377000D01*
X31058Y376403D01*
X31396Y375896D01*
X31903Y375558D01*
X32500Y375439D01*
X33097Y375558D01*
X33604Y375896D01*
X33942Y376403D01*
X34061Y377000D01*
X33942Y377597D01*
X33604Y378104D01*
X33097Y378442D01*
X32500Y378561D01*
D02*
G37*
G36*
X543307Y379124D02*
X541926Y378988D01*
X540599Y378586D01*
X539375Y377931D01*
X538303Y377051D01*
X537423Y375979D01*
X536769Y374756D01*
X536366Y373428D01*
X536230Y372047D01*
X536366Y370667D01*
X536769Y369339D01*
X537423Y368115D01*
X538303Y367043D01*
X539375Y366163D01*
X540599Y365509D01*
X541926Y365106D01*
X543307Y364970D01*
X544688Y365106D01*
X546015Y365509D01*
X547239Y366163D01*
X548311Y367043D01*
X549191Y368115D01*
X549845Y369339D01*
X550248Y370667D01*
X550384Y372047D01*
X550248Y373428D01*
X549845Y374756D01*
X549191Y375979D01*
X548311Y377051D01*
X547239Y377931D01*
X546015Y378586D01*
X544688Y378988D01*
X543307Y379124D01*
D02*
G37*
G36*
X17900Y361461D02*
X17303Y361342D01*
X16796Y361004D01*
X16458Y360497D01*
X16339Y359900D01*
X16458Y359303D01*
X16796Y358796D01*
X17303Y358458D01*
X17900Y358339D01*
X18497Y358458D01*
X19004Y358796D01*
X19342Y359303D01*
X19461Y359900D01*
X19342Y360497D01*
X19004Y361004D01*
X18497Y361342D01*
X17900Y361461D01*
D02*
G37*
G36*
X17200Y355324D02*
X16441Y355224D01*
X15733Y354931D01*
X15125Y354465D01*
X14659Y353857D01*
X14366Y353149D01*
X14266Y352390D01*
X14366Y351630D01*
X14659Y350923D01*
X15125Y350315D01*
X15733Y349849D01*
X16441Y349556D01*
X17200Y349456D01*
X17959Y349556D01*
X18667Y349849D01*
X19275Y350315D01*
X19741Y350923D01*
X20034Y351630D01*
X20134Y352390D01*
X20034Y353149D01*
X19741Y353857D01*
X19275Y354465D01*
X18667Y354931D01*
X17959Y355224D01*
X17200Y355324D01*
D02*
G37*
G36*
X473000Y348561D02*
X472403Y348442D01*
X471896Y348104D01*
X471558Y347597D01*
X471439Y347000D01*
X471558Y346403D01*
X471896Y345896D01*
X472403Y345558D01*
X473000Y345439D01*
X473597Y345558D01*
X474104Y345896D01*
X474442Y346403D01*
X474561Y347000D01*
X474442Y347597D01*
X474104Y348104D01*
X473597Y348442D01*
X473000Y348561D01*
D02*
G37*
G36*
X457900D02*
X457303Y348442D01*
X456796Y348104D01*
X456458Y347597D01*
X456339Y347000D01*
X456458Y346403D01*
X456796Y345896D01*
X457303Y345558D01*
X457900Y345439D01*
X458497Y345558D01*
X459004Y345896D01*
X459342Y346403D01*
X459461Y347000D01*
X459342Y347597D01*
X459004Y348104D01*
X458497Y348442D01*
X457900Y348561D01*
D02*
G37*
G36*
X485000Y346061D02*
X484403Y345942D01*
X483896Y345604D01*
X483558Y345097D01*
X483439Y344500D01*
X483558Y343903D01*
X483896Y343396D01*
X484403Y343058D01*
X485000Y342939D01*
X485597Y343058D01*
X486104Y343396D01*
X486442Y343903D01*
X486561Y344500D01*
X486442Y345097D01*
X486104Y345604D01*
X485597Y345942D01*
X485000Y346061D01*
D02*
G37*
G36*
X206000D02*
X205403Y345942D01*
X204896Y345604D01*
X204558Y345097D01*
X204439Y344500D01*
X204558Y343903D01*
X204896Y343396D01*
X205403Y343058D01*
X206000Y342939D01*
X206597Y343058D01*
X207104Y343396D01*
X207442Y343903D01*
X207561Y344500D01*
X207442Y345097D01*
X207104Y345604D01*
X206597Y345942D01*
X206000Y346061D01*
D02*
G37*
G36*
X20759Y342169D02*
X17700D01*
Y339110D01*
X20759D01*
Y342169D01*
D02*
G37*
G36*
X16700D02*
X13641D01*
Y339110D01*
X16700D01*
Y342169D01*
D02*
G37*
G36*
X195000Y340061D02*
X194403Y339942D01*
X193896Y339604D01*
X193558Y339097D01*
X193439Y338500D01*
X193558Y337903D01*
X193896Y337396D01*
X194403Y337058D01*
X195000Y336939D01*
X195597Y337058D01*
X196104Y337396D01*
X196442Y337903D01*
X196561Y338500D01*
X196442Y339097D01*
X196104Y339604D01*
X195597Y339942D01*
X195000Y340061D01*
D02*
G37*
G36*
X20759Y338110D02*
X17700D01*
Y335051D01*
X20759D01*
Y338110D01*
D02*
G37*
G36*
X16700D02*
X13641D01*
Y335051D01*
X16700D01*
Y338110D01*
D02*
G37*
G36*
X265600Y342861D02*
X265003Y342742D01*
X264496Y342404D01*
X264158Y341897D01*
X264039Y341300D01*
X264158Y340703D01*
X264496Y340196D01*
X265003Y339858D01*
X265350Y339789D01*
X265566Y339508D01*
X265991Y338481D01*
X266130Y337427D01*
X265796Y337204D01*
X265458Y336697D01*
X265339Y336100D01*
X265458Y335503D01*
X265796Y334996D01*
X266303Y334658D01*
X266900Y334539D01*
X267497Y334658D01*
X268004Y334996D01*
X268342Y335503D01*
X268461Y336100D01*
X268342Y336697D01*
X268004Y337204D01*
X267879Y337379D01*
X267764Y338549D01*
X267422Y339675D01*
X266948Y340562D01*
X267042Y340703D01*
X267161Y341300D01*
X267042Y341897D01*
X266704Y342404D01*
X266197Y342742D01*
X265600Y342861D01*
D02*
G37*
G36*
X232000Y324561D02*
X231403Y324442D01*
X230896Y324104D01*
X230558Y323597D01*
X230439Y323000D01*
X230558Y322403D01*
X230896Y321896D01*
X231403Y321558D01*
X232000Y321439D01*
X232597Y321558D01*
X233104Y321896D01*
X233442Y322403D01*
X233561Y323000D01*
X233442Y323597D01*
X233104Y324104D01*
X232597Y324442D01*
X232000Y324561D01*
D02*
G37*
G36*
X458000Y323961D02*
X457403Y323842D01*
X456896Y323504D01*
X456558Y322997D01*
X456439Y322400D01*
X456558Y321803D01*
X456896Y321296D01*
X457403Y320958D01*
X458000Y320839D01*
X458597Y320958D01*
X459104Y321296D01*
X459442Y321803D01*
X459561Y322400D01*
X459442Y322997D01*
X459104Y323504D01*
X458597Y323842D01*
X458000Y323961D01*
D02*
G37*
G36*
X228500Y321561D02*
X227903Y321442D01*
X227396Y321104D01*
X227058Y320597D01*
X226939Y320000D01*
X227058Y319403D01*
X227396Y318896D01*
X227903Y318558D01*
X228500Y318439D01*
X229097Y318558D01*
X229604Y318896D01*
X229942Y319403D01*
X230061Y320000D01*
X229942Y320597D01*
X229604Y321104D01*
X229097Y321442D01*
X228500Y321561D01*
D02*
G37*
G36*
X140900Y318361D02*
X140303Y318242D01*
X139796Y317904D01*
X139458Y317397D01*
X139339Y316800D01*
X139458Y316203D01*
X139796Y315696D01*
X140303Y315358D01*
X140900Y315239D01*
X141497Y315358D01*
X142004Y315696D01*
X142105Y315848D01*
X142140Y315860D01*
X142684Y315814D01*
X142896Y315496D01*
X143403Y315158D01*
X144000Y315039D01*
X144597Y315158D01*
X145104Y315496D01*
X145442Y316003D01*
X145561Y316600D01*
X145442Y317197D01*
X145104Y317704D01*
X144597Y318042D01*
X144000Y318161D01*
X143403Y318042D01*
X142896Y317704D01*
X142795Y317552D01*
X142760Y317540D01*
X142216Y317586D01*
X142004Y317904D01*
X141497Y318242D01*
X140900Y318361D01*
D02*
G37*
G36*
X26800Y318461D02*
X26203Y318342D01*
X25696Y318004D01*
X25358Y317497D01*
X25239Y316900D01*
X25358Y316303D01*
X25696Y315796D01*
X25765Y315750D01*
Y315250D01*
X25696Y315204D01*
X25358Y314697D01*
X25239Y314100D01*
X25358Y313503D01*
X25696Y312996D01*
X26203Y312658D01*
X26800Y312539D01*
X27397Y312658D01*
X27904Y312996D01*
X28242Y313503D01*
X28361Y314100D01*
X28242Y314697D01*
X27904Y315204D01*
X27835Y315250D01*
Y315750D01*
X27904Y315796D01*
X28242Y316303D01*
X28361Y316900D01*
X28242Y317497D01*
X27904Y318004D01*
X27397Y318342D01*
X26800Y318461D01*
D02*
G37*
G36*
X143200Y308661D02*
X142603Y308542D01*
X142096Y308204D01*
X141758Y307697D01*
X141639Y307100D01*
X141758Y306503D01*
X142096Y305996D01*
X142603Y305658D01*
X143200Y305539D01*
X143797Y305658D01*
X144304Y305996D01*
X144642Y306503D01*
X144761Y307100D01*
X144642Y307697D01*
X144304Y308204D01*
X143797Y308542D01*
X143200Y308661D01*
D02*
G37*
G36*
X133000Y302061D02*
X132403Y301942D01*
X131896Y301604D01*
X131558Y301097D01*
X131439Y300500D01*
X131558Y299903D01*
X131896Y299396D01*
X132403Y299058D01*
X133000Y298939D01*
X133597Y299058D01*
X134104Y299396D01*
X134442Y299903D01*
X134561Y300500D01*
X134442Y301097D01*
X134104Y301604D01*
X133597Y301942D01*
X133000Y302061D01*
D02*
G37*
G36*
X258000Y306061D02*
X257403Y305942D01*
X256896Y305604D01*
X256558Y305097D01*
X256439Y304500D01*
X256558Y303903D01*
X256896Y303396D01*
X257403Y303058D01*
X257795Y302980D01*
X258973Y301801D01*
X258974Y301800D01*
X259603Y300981D01*
X259999Y300026D01*
X260001Y300008D01*
X259696Y299804D01*
X259358Y299297D01*
X259239Y298700D01*
X259358Y298103D01*
X259696Y297596D01*
X260203Y297258D01*
X260800Y297139D01*
X261397Y297258D01*
X261904Y297596D01*
X262242Y298103D01*
X262361Y298700D01*
X262242Y299297D01*
X261904Y299804D01*
X261783Y299885D01*
X261704Y300482D01*
X261132Y301864D01*
X260222Y303050D01*
X260199Y303027D01*
X259395Y303831D01*
X259442Y303903D01*
X259561Y304500D01*
X259442Y305097D01*
X259104Y305604D01*
X258597Y305942D01*
X258000Y306061D01*
D02*
G37*
G36*
X404000Y298561D02*
X403403Y298442D01*
X402896Y298104D01*
X402558Y297597D01*
X402439Y297000D01*
X402558Y296403D01*
X402896Y295896D01*
X403403Y295558D01*
X404000Y295439D01*
X404597Y295558D01*
X405104Y295896D01*
X405442Y296403D01*
X405561Y297000D01*
X405442Y297597D01*
X405104Y298104D01*
X404597Y298442D01*
X404000Y298561D01*
D02*
G37*
G36*
X337500Y289061D02*
X336903Y288942D01*
X336396Y288604D01*
X336058Y288097D01*
X335939Y287500D01*
X336058Y286903D01*
X336396Y286396D01*
X336903Y286058D01*
X337500Y285939D01*
X338097Y286058D01*
X338604Y286396D01*
X338942Y286903D01*
X339061Y287500D01*
X338942Y288097D01*
X338604Y288604D01*
X338097Y288942D01*
X337500Y289061D01*
D02*
G37*
G36*
X294500Y288561D02*
X293903Y288442D01*
X293396Y288104D01*
X293058Y287597D01*
X292939Y287000D01*
X293058Y286403D01*
X293396Y285896D01*
X293903Y285558D01*
X294500Y285439D01*
X295097Y285558D01*
X295604Y285896D01*
X295942Y286403D01*
X296061Y287000D01*
X295942Y287597D01*
X295604Y288104D01*
X295097Y288442D01*
X294500Y288561D01*
D02*
G37*
G36*
X170000Y287061D02*
X169403Y286942D01*
X168896Y286604D01*
X168558Y286097D01*
X168439Y285500D01*
X168558Y284903D01*
X168896Y284396D01*
X169403Y284058D01*
X170000Y283939D01*
X170597Y284058D01*
X171104Y284396D01*
X171442Y284903D01*
X171561Y285500D01*
X171442Y286097D01*
X171104Y286604D01*
X170597Y286942D01*
X170000Y287061D01*
D02*
G37*
G36*
X59800Y286761D02*
X59203Y286642D01*
X58696Y286304D01*
X58358Y285797D01*
X58239Y285200D01*
X58317Y284808D01*
X58031Y284406D01*
X57937Y284349D01*
X57403Y284242D01*
X56896Y283904D01*
X56558Y283397D01*
X56439Y282800D01*
X56558Y282203D01*
X56896Y281696D01*
X57403Y281358D01*
X58000Y281239D01*
X58597Y281358D01*
X59104Y281696D01*
X59442Y282203D01*
X59561Y282800D01*
X59483Y283192D01*
X59768Y283594D01*
X59863Y283651D01*
X60397Y283758D01*
X60904Y284096D01*
X61242Y284603D01*
X61361Y285200D01*
X61242Y285797D01*
X60904Y286304D01*
X60397Y286642D01*
X59800Y286761D01*
D02*
G37*
G36*
X166500Y284061D02*
X165903Y283942D01*
X165396Y283604D01*
X165058Y283097D01*
X164939Y282500D01*
X165058Y281903D01*
X165396Y281396D01*
X165903Y281058D01*
X166500Y280939D01*
X167097Y281058D01*
X167604Y281396D01*
X167942Y281903D01*
X168061Y282500D01*
X167942Y283097D01*
X167604Y283604D01*
X167097Y283942D01*
X166500Y284061D01*
D02*
G37*
G36*
X425400Y280761D02*
X424803Y280642D01*
X424296Y280304D01*
X423958Y279797D01*
X423839Y279200D01*
X423958Y278603D01*
X424296Y278096D01*
X424803Y277758D01*
X425400Y277639D01*
X425997Y277758D01*
X426504Y278096D01*
X426842Y278603D01*
X426961Y279200D01*
X426842Y279797D01*
X426504Y280304D01*
X425997Y280642D01*
X425400Y280761D01*
D02*
G37*
G36*
X207500Y280061D02*
X206903Y279942D01*
X206396Y279604D01*
X206058Y279097D01*
X205939Y278500D01*
X206058Y277903D01*
X206396Y277396D01*
X206903Y277058D01*
X207500Y276939D01*
X208097Y277058D01*
X208604Y277396D01*
X208942Y277903D01*
X209061Y278500D01*
X208942Y279097D01*
X208604Y279604D01*
X208097Y279942D01*
X207500Y280061D01*
D02*
G37*
G36*
X337500Y279061D02*
X336903Y278942D01*
X336396Y278604D01*
X336058Y278097D01*
X335939Y277500D01*
X336058Y276903D01*
X336396Y276396D01*
X336903Y276058D01*
X337500Y275939D01*
X338097Y276058D01*
X338604Y276396D01*
X338942Y276903D01*
X339061Y277500D01*
X338942Y278097D01*
X338604Y278604D01*
X338097Y278942D01*
X337500Y279061D01*
D02*
G37*
G36*
X294500Y278561D02*
X293903Y278442D01*
X293396Y278104D01*
X293058Y277597D01*
X292939Y277000D01*
X293058Y276403D01*
X293396Y275896D01*
X293903Y275558D01*
X294500Y275439D01*
X295097Y275558D01*
X295604Y275896D01*
X295942Y276403D01*
X296061Y277000D01*
X295942Y277597D01*
X295604Y278104D01*
X295097Y278442D01*
X294500Y278561D01*
D02*
G37*
G36*
X196000Y274061D02*
X195403Y273942D01*
X194896Y273604D01*
X194558Y273097D01*
X194439Y272500D01*
X194558Y271903D01*
X194896Y271396D01*
X195403Y271058D01*
X196000Y270939D01*
X196597Y271058D01*
X197104Y271396D01*
X197442Y271903D01*
X197561Y272500D01*
X197442Y273097D01*
X197104Y273604D01*
X196597Y273942D01*
X196000Y274061D01*
D02*
G37*
G36*
X404000Y273061D02*
X403403Y272942D01*
X402896Y272604D01*
X402558Y272097D01*
X402439Y271500D01*
X402558Y270903D01*
X402896Y270396D01*
X403403Y270058D01*
X404000Y269939D01*
X404597Y270058D01*
X405104Y270396D01*
X405442Y270903D01*
X405561Y271500D01*
X405442Y272097D01*
X405104Y272604D01*
X404597Y272942D01*
X404000Y273061D01*
D02*
G37*
G36*
X273500Y277561D02*
X272903Y277442D01*
X272396Y277104D01*
X272058Y276597D01*
X271939Y276000D01*
X272058Y275403D01*
X272396Y274896D01*
X272719Y274680D01*
X272765Y274333D01*
X273216Y273245D01*
X273932Y272311D01*
X273948Y272326D01*
X275505Y270769D01*
X275458Y270697D01*
X275339Y270100D01*
X275458Y269503D01*
X275796Y268996D01*
X276303Y268658D01*
X276900Y268539D01*
X277497Y268658D01*
X278004Y268996D01*
X278342Y269503D01*
X278461Y270100D01*
X278342Y270697D01*
X278004Y271204D01*
X277497Y271542D01*
X277105Y271620D01*
X275173Y273552D01*
X275181Y273559D01*
X274744Y274128D01*
X274470Y274790D01*
X274468Y274805D01*
X274604Y274896D01*
X274942Y275403D01*
X275061Y276000D01*
X274942Y276597D01*
X274604Y277104D01*
X274097Y277442D01*
X273500Y277561D01*
D02*
G37*
G36*
X14000Y268861D02*
X13403Y268742D01*
X12896Y268404D01*
X12604D01*
X12097Y268742D01*
X11500Y268861D01*
X10903Y268742D01*
X10396Y268404D01*
X10058Y267897D01*
X9939Y267300D01*
X10058Y266703D01*
X10396Y266196D01*
X10903Y265858D01*
X11500Y265739D01*
X12097Y265858D01*
X12604Y266196D01*
X12896D01*
X13403Y265858D01*
X14000Y265739D01*
X14597Y265858D01*
X15104Y266196D01*
X15442Y266703D01*
X15561Y267300D01*
X15442Y267897D01*
X15104Y268404D01*
X14597Y268742D01*
X14000Y268861D01*
D02*
G37*
G36*
X337500Y269061D02*
X336903Y268942D01*
X336396Y268604D01*
X336058Y268097D01*
X335939Y267500D01*
X336058Y266903D01*
X336396Y266396D01*
X336903Y266058D01*
X337500Y265939D01*
X338097Y266058D01*
X338604Y266396D01*
X338942Y266903D01*
X339061Y267500D01*
X338942Y268097D01*
X338604Y268604D01*
X338097Y268942D01*
X337500Y269061D01*
D02*
G37*
G36*
X294500Y268561D02*
X293903Y268442D01*
X293396Y268104D01*
X293058Y267597D01*
X292939Y267000D01*
X293058Y266403D01*
X293396Y265896D01*
X293903Y265558D01*
X294500Y265439D01*
X295097Y265558D01*
X295604Y265896D01*
X295942Y266403D01*
X296061Y267000D01*
X295942Y267597D01*
X295604Y268104D01*
X295097Y268442D01*
X294500Y268561D01*
D02*
G37*
G36*
X-42000Y259829D02*
X-42597Y259710D01*
X-43104Y259372D01*
X-43442Y258865D01*
X-43561Y258268D01*
X-43442Y257670D01*
X-43104Y257164D01*
X-42597Y256825D01*
X-42000Y256707D01*
X-41403Y256825D01*
X-40896Y257164D01*
X-40558Y257670D01*
X-40439Y258268D01*
X-40558Y258865D01*
X-40896Y259372D01*
X-41403Y259710D01*
X-42000Y259829D01*
D02*
G37*
G36*
X337500Y259061D02*
X336903Y258942D01*
X336396Y258604D01*
X336058Y258097D01*
X335939Y257500D01*
X336058Y256903D01*
X336396Y256396D01*
X336903Y256058D01*
X337500Y255939D01*
X338097Y256058D01*
X338604Y256396D01*
X338942Y256903D01*
X339061Y257500D01*
X338942Y258097D01*
X338604Y258604D01*
X338097Y258942D01*
X337500Y259061D01*
D02*
G37*
G36*
X233500D02*
X232903Y258942D01*
X232396Y258604D01*
X232058Y258097D01*
X231939Y257500D01*
X232058Y256903D01*
X232396Y256396D01*
X232903Y256058D01*
X233500Y255939D01*
X234097Y256058D01*
X234604Y256396D01*
X234942Y256903D01*
X235061Y257500D01*
X234942Y258097D01*
X234604Y258604D01*
X234097Y258942D01*
X233500Y259061D01*
D02*
G37*
G36*
X294500Y258561D02*
X293903Y258442D01*
X293396Y258104D01*
X293058Y257597D01*
X292939Y257000D01*
X293058Y256403D01*
X293396Y255896D01*
X293903Y255558D01*
X294500Y255439D01*
X295097Y255558D01*
X295604Y255896D01*
X295942Y256403D01*
X296061Y257000D01*
X295942Y257597D01*
X295604Y258104D01*
X295097Y258442D01*
X294500Y258561D01*
D02*
G37*
G36*
X533000Y265118D02*
X531675Y264944D01*
X530441Y264433D01*
X529381Y263619D01*
X528568Y262559D01*
X528056Y261325D01*
X527882Y260000D01*
X528056Y258675D01*
X528568Y257441D01*
X529381Y256381D01*
X530441Y255568D01*
X531675Y255056D01*
X533000Y254882D01*
X534325Y255056D01*
X535559Y255568D01*
X536619Y256381D01*
X537432Y257441D01*
X537944Y258675D01*
X538118Y260000D01*
X537944Y261325D01*
X537432Y262559D01*
X536619Y263619D01*
X535559Y264433D01*
X534325Y264944D01*
X533000Y265118D01*
D02*
G37*
G36*
X230000Y256061D02*
X229403Y255942D01*
X228896Y255604D01*
X228558Y255097D01*
X228439Y254500D01*
X228558Y253903D01*
X228896Y253396D01*
X229403Y253058D01*
X230000Y252939D01*
X230597Y253058D01*
X231104Y253396D01*
X231442Y253903D01*
X231561Y254500D01*
X231442Y255097D01*
X231104Y255604D01*
X230597Y255942D01*
X230000Y256061D01*
D02*
G37*
G36*
X425400Y255261D02*
X424803Y255142D01*
X424296Y254804D01*
X423958Y254297D01*
X423839Y253700D01*
X423958Y253103D01*
X424296Y252596D01*
X424803Y252258D01*
X425400Y252139D01*
X425997Y252258D01*
X426504Y252596D01*
X426842Y253103D01*
X426961Y253700D01*
X426842Y254297D01*
X426504Y254804D01*
X425997Y255142D01*
X425400Y255261D01*
D02*
G37*
G36*
X-18000Y256342D02*
X-18597Y256223D01*
X-19104Y255885D01*
X-19442Y255379D01*
X-19561Y254781D01*
X-19442Y254184D01*
X-19104Y253677D01*
X-18988Y253600D01*
Y253100D01*
X-19104Y253023D01*
X-19442Y252516D01*
X-19561Y251919D01*
X-19442Y251322D01*
X-19104Y250815D01*
X-18597Y250477D01*
X-18000Y250358D01*
X-17403Y250477D01*
X-16896Y250815D01*
X-16558Y251322D01*
X-16439Y251919D01*
X-16558Y252516D01*
X-16896Y253023D01*
X-17012Y253100D01*
Y253600D01*
X-16896Y253677D01*
X-16558Y254184D01*
X-16439Y254781D01*
X-16558Y255379D01*
X-16896Y255885D01*
X-17403Y256223D01*
X-18000Y256342D01*
D02*
G37*
G36*
X147000Y251861D02*
X146403Y251742D01*
X145896Y251404D01*
X145558Y250897D01*
X145439Y250300D01*
X145558Y249703D01*
X145896Y249196D01*
X146403Y248858D01*
X147000Y248739D01*
X147597Y248858D01*
X148104Y249196D01*
X148442Y249703D01*
X148561Y250300D01*
X148442Y250897D01*
X148104Y251404D01*
X147597Y251742D01*
X147000Y251861D01*
D02*
G37*
G36*
X125300Y251661D02*
X124703Y251542D01*
X124196Y251204D01*
X123858Y250697D01*
X123739Y250100D01*
X123858Y249503D01*
X124196Y248996D01*
X124703Y248658D01*
X125300Y248539D01*
X125897Y248658D01*
X126404Y248996D01*
X126742Y249503D01*
X126861Y250100D01*
X126742Y250697D01*
X126404Y251204D01*
X125897Y251542D01*
X125300Y251661D01*
D02*
G37*
G36*
X332000Y290500D02*
X300000D01*
Y248500D01*
X332000D01*
Y290500D01*
D02*
G37*
G36*
X-41824Y247230D02*
X-42422Y247112D01*
X-42928Y246773D01*
X-43267Y246267D01*
X-43386Y245669D01*
X-43267Y245072D01*
X-42928Y244565D01*
X-42422Y244227D01*
X-41824Y244108D01*
X-41227Y244227D01*
X-40721Y244565D01*
X-40382Y245072D01*
X-40263Y245669D01*
X-40382Y246267D01*
X-40721Y246773D01*
X-41227Y247112D01*
X-41824Y247230D01*
D02*
G37*
G36*
X404000Y247061D02*
X403403Y246942D01*
X402896Y246604D01*
X402558Y246097D01*
X402439Y245500D01*
X402558Y244903D01*
X402896Y244396D01*
X403403Y244058D01*
X404000Y243939D01*
X404597Y244058D01*
X405104Y244396D01*
X405442Y244903D01*
X405561Y245500D01*
X405442Y246097D01*
X405104Y246604D01*
X404597Y246942D01*
X404000Y247061D01*
D02*
G37*
G36*
X529500Y246561D02*
X528903Y246442D01*
X528396Y246104D01*
X528058Y245597D01*
X527939Y245000D01*
X528058Y244403D01*
X528396Y243896D01*
X528903Y243558D01*
X529500Y243439D01*
X530097Y243558D01*
X530604Y243896D01*
X530942Y244403D01*
X531061Y245000D01*
X530942Y245597D01*
X530604Y246104D01*
X530097Y246442D01*
X529500Y246561D01*
D02*
G37*
G36*
X523000Y243561D02*
X522403Y243442D01*
X521896Y243104D01*
X521558Y242597D01*
X521505Y242332D01*
X520995D01*
X520942Y242597D01*
X520604Y243104D01*
X520097Y243442D01*
X519500Y243561D01*
X518903Y243442D01*
X518396Y243104D01*
X518058Y242597D01*
X517939Y242000D01*
X518058Y241403D01*
X518396Y240896D01*
X518903Y240558D01*
X519500Y240439D01*
X520097Y240558D01*
X520604Y240896D01*
X520942Y241403D01*
X520995Y241668D01*
X521505D01*
X521558Y241403D01*
X521896Y240896D01*
X522403Y240558D01*
X523000Y240439D01*
X523597Y240558D01*
X524104Y240896D01*
X524442Y241403D01*
X524561Y242000D01*
X524442Y242597D01*
X524104Y243104D01*
X523597Y243442D01*
X523000Y243561D01*
D02*
G37*
G36*
X10500Y246642D02*
X9903Y246523D01*
X9396Y246185D01*
X9058Y245678D01*
X8939Y245081D01*
X9058Y244484D01*
X9396Y243977D01*
X9512Y243900D01*
Y243400D01*
X9396Y243323D01*
X9058Y242816D01*
X8939Y242219D01*
X9058Y241621D01*
X9396Y241115D01*
X9903Y240777D01*
X10500Y240658D01*
X11097Y240777D01*
X11604Y241115D01*
X11942Y241621D01*
X12061Y242219D01*
X11942Y242816D01*
X11604Y243323D01*
X11488Y243400D01*
Y243900D01*
X11604Y243977D01*
X11942Y244484D01*
X12061Y245081D01*
X11942Y245678D01*
X11604Y246185D01*
X11097Y246523D01*
X10500Y246642D01*
D02*
G37*
G36*
X539606Y245106D02*
X533394D01*
Y238894D01*
X539606D01*
Y245106D01*
D02*
G37*
G36*
X236500Y240061D02*
X235903Y239942D01*
X235396Y239604D01*
X235058Y239097D01*
X234939Y238500D01*
X234995Y238220D01*
X231741Y234966D01*
X231735Y234972D01*
X231623Y234926D01*
X231597Y234942D01*
X231000Y235061D01*
X230403Y234942D01*
X229896Y234604D01*
X229558Y234097D01*
X229439Y233500D01*
X229558Y232903D01*
X229896Y232396D01*
X230403Y232058D01*
X231000Y231939D01*
X231597Y232058D01*
X232104Y232396D01*
X232442Y232903D01*
X232548Y233433D01*
X232983Y233724D01*
X232983Y233724D01*
X233320Y234094D01*
X236220Y236995D01*
X236500Y236939D01*
X237097Y237058D01*
X237604Y237396D01*
X237942Y237903D01*
X238061Y238500D01*
X237942Y239097D01*
X237604Y239604D01*
X237097Y239942D01*
X236500Y240061D01*
D02*
G37*
G36*
X145500Y239561D02*
X144903Y239442D01*
X144396Y239104D01*
X144058Y238597D01*
X143939Y238000D01*
X144058Y237403D01*
X144396Y236896D01*
X144903Y236558D01*
X145500Y236439D01*
X146097Y236558D01*
X146604Y236896D01*
X146942Y237403D01*
X147061Y238000D01*
X146942Y238597D01*
X146604Y239104D01*
X146097Y239442D01*
X145500Y239561D01*
D02*
G37*
G36*
X529500Y241133D02*
X528689Y241026D01*
X527934Y240713D01*
X527285Y240215D01*
X526787Y239566D01*
X526474Y238811D01*
X526367Y238000D01*
X526474Y237189D01*
X526787Y236434D01*
X527285Y235785D01*
X527934Y235287D01*
X528689Y234974D01*
X529500Y234867D01*
X530311Y234974D01*
X531066Y235287D01*
X531715Y235785D01*
X532213Y236434D01*
X532526Y237189D01*
X532633Y238000D01*
X532526Y238811D01*
X532213Y239566D01*
X531715Y240215D01*
X531066Y240713D01*
X530311Y241026D01*
X529500Y241133D01*
D02*
G37*
G36*
X16500Y237661D02*
X15903Y237542D01*
X15396Y237204D01*
X15058Y236697D01*
X14939Y236100D01*
X15058Y235503D01*
X15396Y234996D01*
X15614Y234851D01*
Y234249D01*
X15396Y234104D01*
X15058Y233597D01*
X14939Y233000D01*
X15058Y232403D01*
X15396Y231896D01*
X15903Y231558D01*
X16500Y231439D01*
X17097Y231558D01*
X17604Y231896D01*
X17942Y232403D01*
X18061Y233000D01*
X17942Y233597D01*
X17604Y234104D01*
X17386Y234249D01*
Y234851D01*
X17604Y234996D01*
X17942Y235503D01*
X18061Y236100D01*
X17942Y236697D01*
X17604Y237204D01*
X17097Y237542D01*
X16500Y237661D01*
D02*
G37*
G36*
X536500Y237133D02*
X535689Y237026D01*
X534934Y236713D01*
X534285Y236215D01*
X533787Y235566D01*
X533474Y234811D01*
X533367Y234000D01*
X533474Y233189D01*
X533787Y232434D01*
X534285Y231785D01*
X534934Y231287D01*
X535689Y230974D01*
X536500Y230867D01*
X537311Y230974D01*
X538066Y231287D01*
X538715Y231785D01*
X539213Y232434D01*
X539526Y233189D01*
X539633Y234000D01*
X539526Y234811D01*
X539213Y235566D01*
X538715Y236215D01*
X538066Y236713D01*
X537311Y237026D01*
X536500Y237133D01*
D02*
G37*
G36*
X133500Y233061D02*
X132903Y232942D01*
X132396Y232604D01*
X132058Y232097D01*
X131939Y231500D01*
X132058Y230903D01*
X132396Y230396D01*
X132903Y230058D01*
X133500Y229939D01*
X134097Y230058D01*
X134604Y230396D01*
X134942Y230903D01*
X135061Y231500D01*
X134942Y232097D01*
X134604Y232604D01*
X134097Y232942D01*
X133500Y233061D01*
D02*
G37*
G36*
X29700Y229261D02*
X29103Y229142D01*
X28596Y228804D01*
X28258Y228297D01*
X28139Y227700D01*
X28189Y227450D01*
X27763Y227025D01*
X27700Y227037D01*
X27103Y226918D01*
X26596Y226580D01*
X26258Y226074D01*
X26139Y225476D01*
X26258Y224879D01*
X26596Y224372D01*
X27103Y224034D01*
X27700Y223915D01*
X28297Y224034D01*
X28804Y224372D01*
X29142Y224879D01*
X29261Y225476D01*
X29211Y225726D01*
X29637Y226151D01*
X29700Y226139D01*
X30297Y226258D01*
X30804Y226596D01*
X31142Y227103D01*
X31261Y227700D01*
X31142Y228297D01*
X30804Y228804D01*
X30297Y229142D01*
X29700Y229261D01*
D02*
G37*
G36*
X529500Y233133D02*
X528689Y233026D01*
X527934Y232713D01*
X527285Y232215D01*
X526787Y231566D01*
X526474Y230811D01*
X526367Y230000D01*
X526474Y229189D01*
X526787Y228434D01*
X527285Y227785D01*
X527934Y227287D01*
X528689Y226974D01*
X529500Y226867D01*
X530311Y226974D01*
X531066Y227287D01*
X531715Y227785D01*
X532213Y228434D01*
X532526Y229189D01*
X532633Y230000D01*
X532526Y230811D01*
X532213Y231566D01*
X531715Y232215D01*
X531066Y232713D01*
X530311Y233026D01*
X529500Y233133D01*
D02*
G37*
G36*
X425400Y229561D02*
X424803Y229442D01*
X424296Y229104D01*
X423958Y228597D01*
X423839Y228000D01*
X423958Y227403D01*
X424296Y226896D01*
X424803Y226558D01*
X425400Y226439D01*
X425997Y226558D01*
X426504Y226896D01*
X426842Y227403D01*
X426961Y228000D01*
X426842Y228597D01*
X426504Y229104D01*
X425997Y229442D01*
X425400Y229561D01*
D02*
G37*
G36*
X22000Y231061D02*
X21403Y230942D01*
X20896Y230604D01*
X20558Y230097D01*
X20439Y229500D01*
X20558Y228903D01*
X20896Y228396D01*
X21012Y228319D01*
Y227819D01*
X20896Y227742D01*
X20558Y227235D01*
X20439Y226638D01*
X20558Y226040D01*
X20896Y225534D01*
X21403Y225196D01*
X22000Y225077D01*
X22597Y225196D01*
X23104Y225534D01*
X23442Y226040D01*
X23561Y226638D01*
X23442Y227235D01*
X23104Y227742D01*
X22988Y227819D01*
Y228319D01*
X23104Y228396D01*
X23442Y228903D01*
X23561Y229500D01*
X23442Y230097D01*
X23104Y230604D01*
X22597Y230942D01*
X22000Y231061D01*
D02*
G37*
G36*
X536500Y229133D02*
X535689Y229026D01*
X534934Y228713D01*
X534285Y228215D01*
X533787Y227566D01*
X533474Y226811D01*
X533367Y226000D01*
X533474Y225189D01*
X533787Y224434D01*
X534285Y223785D01*
X534934Y223287D01*
X535689Y222974D01*
X536500Y222867D01*
X537311Y222974D01*
X538066Y223287D01*
X538715Y223785D01*
X539213Y224434D01*
X539526Y225189D01*
X539633Y226000D01*
X539526Y226811D01*
X539213Y227566D01*
X538715Y228215D01*
X538066Y228713D01*
X537311Y229026D01*
X536500Y229133D01*
D02*
G37*
G36*
X404000Y222061D02*
X403403Y221942D01*
X402896Y221604D01*
X402558Y221097D01*
X402439Y220500D01*
X402558Y219903D01*
X402896Y219396D01*
X403403Y219058D01*
X404000Y218939D01*
X404597Y219058D01*
X405104Y219396D01*
X405442Y219903D01*
X405561Y220500D01*
X405442Y221097D01*
X405104Y221604D01*
X404597Y221942D01*
X404000Y222061D01*
D02*
G37*
G36*
X529500Y225133D02*
X528689Y225026D01*
X527934Y224713D01*
X527285Y224215D01*
X526787Y223566D01*
X526474Y222811D01*
X526367Y222000D01*
X526474Y221189D01*
X526787Y220434D01*
X527285Y219785D01*
X527934Y219287D01*
X528689Y218974D01*
X529500Y218867D01*
X530311Y218974D01*
X531066Y219287D01*
X531715Y219785D01*
X532213Y220434D01*
X532526Y221189D01*
X532633Y222000D01*
X532526Y222811D01*
X532213Y223566D01*
X531715Y224215D01*
X531066Y224713D01*
X530311Y225026D01*
X529500Y225133D01*
D02*
G37*
G36*
X171000Y218061D02*
X170403Y217942D01*
X169896Y217604D01*
X169558Y217097D01*
X169439Y216500D01*
X169558Y215903D01*
X169896Y215396D01*
X170403Y215058D01*
X171000Y214939D01*
X171597Y215058D01*
X172104Y215396D01*
X172442Y215903D01*
X172561Y216500D01*
X172442Y217097D01*
X172104Y217604D01*
X171597Y217942D01*
X171000Y218061D01*
D02*
G37*
G36*
X536500Y221133D02*
X535689Y221026D01*
X534934Y220713D01*
X534285Y220215D01*
X533787Y219566D01*
X533474Y218811D01*
X533367Y218000D01*
X533474Y217189D01*
X533787Y216434D01*
X534285Y215785D01*
X534934Y215287D01*
X535689Y214974D01*
X536500Y214867D01*
X537311Y214974D01*
X538066Y215287D01*
X538715Y215785D01*
X539213Y216434D01*
X539526Y217189D01*
X539633Y218000D01*
X539526Y218811D01*
X539213Y219566D01*
X538715Y220215D01*
X538066Y220713D01*
X537311Y221026D01*
X536500Y221133D01*
D02*
G37*
G36*
X167500Y215061D02*
X166903Y214942D01*
X166396Y214604D01*
X166058Y214097D01*
X165939Y213500D01*
X166058Y212903D01*
X166396Y212396D01*
X166903Y212058D01*
X167500Y211939D01*
X168097Y212058D01*
X168604Y212396D01*
X168942Y212903D01*
X169061Y213500D01*
X168942Y214097D01*
X168604Y214604D01*
X168097Y214942D01*
X167500Y215061D01*
D02*
G37*
G36*
X529500Y217133D02*
X528689Y217026D01*
X527934Y216713D01*
X527285Y216215D01*
X526787Y215566D01*
X526474Y214811D01*
X526367Y214000D01*
X526474Y213189D01*
X526787Y212434D01*
X527285Y211785D01*
X527934Y211287D01*
X528689Y210974D01*
X529500Y210867D01*
X530311Y210974D01*
X531066Y211287D01*
X531715Y211785D01*
X532213Y212434D01*
X532526Y213189D01*
X532633Y214000D01*
X532526Y214811D01*
X532213Y215566D01*
X531715Y216215D01*
X531066Y216713D01*
X530311Y217026D01*
X529500Y217133D01*
D02*
G37*
G36*
X31300Y213061D02*
X30703Y212942D01*
X30196Y212604D01*
X29858Y212097D01*
X29739Y211500D01*
X29858Y210903D01*
X30196Y210396D01*
X30703Y210058D01*
X31300Y209939D01*
X31897Y210058D01*
X32404Y210396D01*
X32742Y210903D01*
X32861Y211500D01*
X32742Y212097D01*
X32404Y212604D01*
X31897Y212942D01*
X31300Y213061D01*
D02*
G37*
G36*
X425400Y203661D02*
X424803Y203542D01*
X424296Y203204D01*
X423958Y202697D01*
X423839Y202100D01*
X423958Y201503D01*
X424296Y200996D01*
X424803Y200658D01*
X425400Y200539D01*
X425997Y200658D01*
X426504Y200996D01*
X426842Y201503D01*
X426961Y202100D01*
X426842Y202697D01*
X426504Y203204D01*
X425997Y203542D01*
X425400Y203661D01*
D02*
G37*
G36*
X404000Y190561D02*
X403403Y190442D01*
X402896Y190104D01*
X402558Y189597D01*
X402439Y189000D01*
X402558Y188403D01*
X402896Y187896D01*
X403403Y187558D01*
X404000Y187439D01*
X404597Y187558D01*
X405104Y187896D01*
X405442Y188403D01*
X405561Y189000D01*
X405442Y189597D01*
X405104Y190104D01*
X404597Y190442D01*
X404000Y190561D01*
D02*
G37*
G36*
X145000Y190061D02*
X144403Y189942D01*
X143896Y189604D01*
X143558Y189097D01*
X143439Y188500D01*
X143558Y187903D01*
X143896Y187396D01*
X144403Y187058D01*
X145000Y186939D01*
X145597Y187058D01*
X146104Y187396D01*
X146442Y187903D01*
X146561Y188500D01*
X146442Y189097D01*
X146104Y189604D01*
X145597Y189942D01*
X145000Y190061D01*
D02*
G37*
G36*
X522500Y184561D02*
X521903Y184442D01*
X521396Y184104D01*
X521058Y183597D01*
X520939Y183000D01*
X521058Y182403D01*
X521396Y181896D01*
X521903Y181558D01*
X522500Y181439D01*
X523097Y181558D01*
X523604Y181896D01*
X523942Y182403D01*
X524061Y183000D01*
X523942Y183597D01*
X523604Y184104D01*
X523097Y184442D01*
X522500Y184561D01*
D02*
G37*
G36*
X133000Y184061D02*
X132403Y183942D01*
X131896Y183604D01*
X131558Y183097D01*
X131439Y182500D01*
X131558Y181903D01*
X131896Y181396D01*
X132403Y181058D01*
X133000Y180939D01*
X133597Y181058D01*
X134104Y181396D01*
X134442Y181903D01*
X134561Y182500D01*
X134442Y183097D01*
X134104Y183604D01*
X133597Y183942D01*
X133000Y184061D01*
D02*
G37*
G36*
X253000Y187561D02*
X252403Y187442D01*
X251896Y187104D01*
X251558Y186597D01*
X251439Y186000D01*
X251558Y185403D01*
X251896Y184896D01*
X252403Y184558D01*
X253000Y184439D01*
X253280Y184495D01*
X257105Y180669D01*
X257058Y180597D01*
X256939Y180000D01*
X257058Y179403D01*
X257396Y178896D01*
X257903Y178558D01*
X258500Y178439D01*
X259097Y178558D01*
X259604Y178896D01*
X259942Y179403D01*
X260061Y180000D01*
X259942Y180597D01*
X259604Y181104D01*
X259097Y181442D01*
X258705Y181520D01*
X254505Y185720D01*
X254561Y186000D01*
X254442Y186597D01*
X254104Y187104D01*
X253597Y187442D01*
X253000Y187561D01*
D02*
G37*
G36*
X539606Y183106D02*
X533394D01*
Y176894D01*
X539606D01*
Y183106D01*
D02*
G37*
G36*
X54000Y182561D02*
X53403Y182442D01*
X52896Y182104D01*
X52558Y181597D01*
X52439Y181000D01*
X52558Y180403D01*
X52896Y179896D01*
X53403Y179558D01*
X54000Y179439D01*
X54280Y179495D01*
X57544Y176230D01*
X57439Y175700D01*
X57558Y175103D01*
X57896Y174596D01*
X58403Y174258D01*
X59000Y174139D01*
X59597Y174258D01*
X60104Y174596D01*
X60442Y175103D01*
X60561Y175700D01*
X60442Y176297D01*
X60104Y176804D01*
X59597Y177142D01*
X59000Y177261D01*
X58970Y177255D01*
X55505Y180720D01*
X55561Y181000D01*
X55442Y181597D01*
X55104Y182104D01*
X54597Y182442D01*
X54000Y182561D01*
D02*
G37*
G36*
X529500Y179133D02*
X528689Y179026D01*
X527934Y178713D01*
X527285Y178215D01*
X526787Y177566D01*
X526474Y176811D01*
X526367Y176000D01*
X526474Y175189D01*
X526787Y174434D01*
X527285Y173785D01*
X527934Y173287D01*
X528689Y172974D01*
X529500Y172867D01*
X530311Y172974D01*
X531066Y173287D01*
X531715Y173785D01*
X532213Y174434D01*
X532526Y175189D01*
X532633Y176000D01*
X532526Y176811D01*
X532213Y177566D01*
X531715Y178215D01*
X531066Y178713D01*
X530311Y179026D01*
X529500Y179133D01*
D02*
G37*
G36*
X425400Y172561D02*
X424803Y172442D01*
X424296Y172104D01*
X423958Y171597D01*
X423839Y171000D01*
X423958Y170403D01*
X424296Y169896D01*
X424803Y169558D01*
X425400Y169439D01*
X425997Y169558D01*
X426504Y169896D01*
X426842Y170403D01*
X426961Y171000D01*
X426842Y171597D01*
X426504Y172104D01*
X425997Y172442D01*
X425400Y172561D01*
D02*
G37*
G36*
X536500Y175133D02*
X535689Y175026D01*
X534934Y174713D01*
X534285Y174215D01*
X533787Y173566D01*
X533474Y172811D01*
X533367Y172000D01*
X533474Y171189D01*
X533787Y170434D01*
X534285Y169785D01*
X534934Y169287D01*
X535689Y168974D01*
X536500Y168867D01*
X537311Y168974D01*
X538066Y169287D01*
X538715Y169785D01*
X539213Y170434D01*
X539526Y171189D01*
X539633Y172000D01*
X539526Y172811D01*
X539213Y173566D01*
X538715Y174215D01*
X538066Y174713D01*
X537311Y175026D01*
X536500Y175133D01*
D02*
G37*
G36*
X20900Y168761D02*
X20303Y168642D01*
X19796Y168304D01*
X19458Y167797D01*
X19339Y167200D01*
X19458Y166603D01*
X19796Y166096D01*
X20303Y165758D01*
X20900Y165639D01*
X21497Y165758D01*
X22004Y166096D01*
X22342Y166603D01*
X22461Y167200D01*
X22342Y167797D01*
X22004Y168304D01*
X21497Y168642D01*
X20900Y168761D01*
D02*
G37*
G36*
X171000Y168561D02*
X170403Y168442D01*
X169896Y168104D01*
X169558Y167597D01*
X169439Y167000D01*
X169558Y166403D01*
X169896Y165896D01*
X170403Y165558D01*
X171000Y165439D01*
X171597Y165558D01*
X172104Y165896D01*
X172442Y166403D01*
X172561Y167000D01*
X172442Y167597D01*
X172104Y168104D01*
X171597Y168442D01*
X171000Y168561D01*
D02*
G37*
G36*
X529500Y171133D02*
X528689Y171026D01*
X527934Y170713D01*
X527285Y170215D01*
X526787Y169566D01*
X526474Y168811D01*
X526367Y168000D01*
X526474Y167189D01*
X526787Y166434D01*
X527285Y165785D01*
X527934Y165287D01*
X528689Y164974D01*
X529500Y164867D01*
X530311Y164974D01*
X531066Y165287D01*
X531715Y165785D01*
X532213Y166434D01*
X532526Y167189D01*
X532633Y168000D01*
X532526Y168811D01*
X532213Y169566D01*
X531715Y170215D01*
X531066Y170713D01*
X530311Y171026D01*
X529500Y171133D01*
D02*
G37*
G36*
X-35800Y166861D02*
X-36397Y166742D01*
X-36904Y166404D01*
X-37242Y165897D01*
X-37361Y165300D01*
X-37242Y164703D01*
X-36904Y164196D01*
X-36397Y163858D01*
X-35800Y163739D01*
X-35203Y163858D01*
X-34696Y164196D01*
X-34358Y164703D01*
X-34239Y165300D01*
X-34358Y165897D01*
X-34696Y166404D01*
X-35203Y166742D01*
X-35800Y166861D01*
D02*
G37*
G36*
X167500Y165561D02*
X166903Y165442D01*
X166396Y165104D01*
X166058Y164597D01*
X165939Y164000D01*
X166058Y163403D01*
X166396Y162896D01*
X166903Y162558D01*
X167500Y162439D01*
X168097Y162558D01*
X168604Y162896D01*
X168942Y163403D01*
X169061Y164000D01*
X168942Y164597D01*
X168604Y165104D01*
X168097Y165442D01*
X167500Y165561D01*
D02*
G37*
G36*
X521542Y165019D02*
X520945Y164900D01*
X520438Y164562D01*
X520100Y164055D01*
X519981Y163458D01*
X520100Y162860D01*
X520438Y162354D01*
X520945Y162015D01*
X521542Y161897D01*
X522140Y162015D01*
X522646Y162354D01*
X522985Y162860D01*
X523103Y163458D01*
X522985Y164055D01*
X522646Y164562D01*
X522140Y164900D01*
X521542Y165019D01*
D02*
G37*
G36*
X404000Y164561D02*
X403403Y164442D01*
X402896Y164104D01*
X402558Y163597D01*
X402439Y163000D01*
X402558Y162403D01*
X402896Y161896D01*
X403403Y161558D01*
X404000Y161439D01*
X404597Y161558D01*
X405104Y161896D01*
X405442Y162403D01*
X405561Y163000D01*
X405442Y163597D01*
X405104Y164104D01*
X404597Y164442D01*
X404000Y164561D01*
D02*
G37*
G36*
X536500Y167133D02*
X535689Y167026D01*
X534934Y166713D01*
X534285Y166215D01*
X533787Y165566D01*
X533474Y164811D01*
X533367Y164000D01*
X533474Y163189D01*
X533787Y162434D01*
X534285Y161785D01*
X534934Y161287D01*
X535689Y160974D01*
X536500Y160867D01*
X537311Y160974D01*
X538066Y161287D01*
X538715Y161785D01*
X539213Y162434D01*
X539526Y163189D01*
X539633Y164000D01*
X539526Y164811D01*
X539213Y165566D01*
X538715Y166215D01*
X538066Y166713D01*
X537311Y167026D01*
X536500Y167133D01*
D02*
G37*
G36*
X44800Y163261D02*
X44203Y163142D01*
X43696Y162804D01*
X43358Y162297D01*
X43239Y161700D01*
X43358Y161103D01*
X43696Y160596D01*
X44203Y160258D01*
X44800Y160139D01*
X45397Y160258D01*
X45904Y160596D01*
X46242Y161103D01*
X46361Y161700D01*
X46242Y162297D01*
X45904Y162804D01*
X45397Y163142D01*
X44800Y163261D01*
D02*
G37*
G36*
X511500Y161561D02*
X510903Y161442D01*
X510396Y161104D01*
X510058Y160597D01*
X509939Y160000D01*
X510058Y159403D01*
X510396Y158896D01*
X510903Y158558D01*
X511500Y158439D01*
X512097Y158558D01*
X512604Y158896D01*
X512942Y159403D01*
X513061Y160000D01*
X512942Y160597D01*
X512604Y161104D01*
X512097Y161442D01*
X511500Y161561D01*
D02*
G37*
G36*
X529500Y163133D02*
X528689Y163026D01*
X527934Y162713D01*
X527285Y162215D01*
X526787Y161566D01*
X526474Y160811D01*
X526367Y160000D01*
X526474Y159189D01*
X526787Y158434D01*
X527285Y157785D01*
X527934Y157287D01*
X528689Y156974D01*
X529500Y156867D01*
X530311Y156974D01*
X531066Y157287D01*
X531715Y157785D01*
X532213Y158434D01*
X532526Y159189D01*
X532633Y160000D01*
X532526Y160811D01*
X532213Y161566D01*
X531715Y162215D01*
X531066Y162713D01*
X530311Y163026D01*
X529500Y163133D01*
D02*
G37*
G36*
X209000Y159561D02*
X208403Y159442D01*
X207896Y159104D01*
X207558Y158597D01*
X207439Y158000D01*
X207558Y157403D01*
X207896Y156896D01*
X208403Y156558D01*
X209000Y156439D01*
X209597Y156558D01*
X210104Y156896D01*
X210442Y157403D01*
X210561Y158000D01*
X210442Y158597D01*
X210104Y159104D01*
X209597Y159442D01*
X209000Y159561D01*
D02*
G37*
G36*
X44886D02*
X44289Y159442D01*
X43783Y159104D01*
X43444Y158597D01*
X43325Y158000D01*
X43444Y157403D01*
X43783Y156896D01*
X44289Y156558D01*
X44886Y156439D01*
X45484Y156558D01*
X45990Y156896D01*
X46329Y157403D01*
X46448Y158000D01*
X46329Y158597D01*
X45990Y159104D01*
X45484Y159442D01*
X44886Y159561D01*
D02*
G37*
G36*
X536500Y159133D02*
X535689Y159026D01*
X534934Y158713D01*
X534285Y158215D01*
X533787Y157566D01*
X533474Y156811D01*
X533367Y156000D01*
X533474Y155189D01*
X533787Y154434D01*
X534285Y153785D01*
X534934Y153287D01*
X535689Y152974D01*
X536500Y152867D01*
X537311Y152974D01*
X538066Y153287D01*
X538715Y153785D01*
X539213Y154434D01*
X539526Y155189D01*
X539633Y156000D01*
X539526Y156811D01*
X539213Y157566D01*
X538715Y158215D01*
X538066Y158713D01*
X537311Y159026D01*
X536500Y159133D01*
D02*
G37*
G36*
X44900Y154861D02*
X44303Y154742D01*
X43796Y154404D01*
X43458Y153897D01*
X43339Y153300D01*
X43458Y152703D01*
X43796Y152196D01*
X44303Y151858D01*
X44900Y151739D01*
X45497Y151858D01*
X46004Y152196D01*
X46342Y152703D01*
X46461Y153300D01*
X46342Y153897D01*
X46004Y154404D01*
X45497Y154742D01*
X44900Y154861D01*
D02*
G37*
G36*
X198500Y153061D02*
X197903Y152942D01*
X197396Y152604D01*
X197058Y152097D01*
X196939Y151500D01*
X197058Y150903D01*
X197396Y150396D01*
X197903Y150058D01*
X198500Y149939D01*
X199097Y150058D01*
X199604Y150396D01*
X199942Y150903D01*
X200061Y151500D01*
X199942Y152097D01*
X199604Y152604D01*
X199097Y152942D01*
X198500Y153061D01*
D02*
G37*
G36*
X529500Y155133D02*
X528689Y155026D01*
X527934Y154713D01*
X527285Y154215D01*
X526787Y153566D01*
X526474Y152811D01*
X526367Y152000D01*
X526474Y151189D01*
X526787Y150434D01*
X527285Y149785D01*
X527934Y149287D01*
X528689Y148974D01*
X529500Y148867D01*
X530311Y148974D01*
X531066Y149287D01*
X531715Y149785D01*
X532213Y150434D01*
X532526Y151189D01*
X532633Y152000D01*
X532526Y152811D01*
X532213Y153566D01*
X531715Y154215D01*
X531066Y154713D01*
X530311Y155026D01*
X529500Y155133D01*
D02*
G37*
G36*
X44900Y149161D02*
X44303Y149042D01*
X43796Y148704D01*
X43458Y148197D01*
X43339Y147600D01*
X43458Y147003D01*
X43796Y146496D01*
X44303Y146158D01*
X44900Y146039D01*
X45497Y146158D01*
X46004Y146496D01*
X46342Y147003D01*
X46461Y147600D01*
X46342Y148197D01*
X46004Y148704D01*
X45497Y149042D01*
X44900Y149161D01*
D02*
G37*
G36*
X78300Y151661D02*
X77703Y151542D01*
X77196Y151204D01*
X76858Y150697D01*
X76739Y150100D01*
X76858Y149503D01*
X77196Y148996D01*
X77703Y148658D01*
X78219Y148555D01*
X81028Y145747D01*
X80939Y145300D01*
X81058Y144703D01*
X81396Y144196D01*
X81903Y143858D01*
X82500Y143739D01*
X83097Y143858D01*
X83604Y144196D01*
X83942Y144703D01*
X84061Y145300D01*
X83942Y145897D01*
X83604Y146404D01*
X83097Y146742D01*
X82500Y146861D01*
X82387Y146839D01*
X79735Y149491D01*
X79742Y149503D01*
X79861Y150100D01*
X79742Y150697D01*
X79404Y151204D01*
X78897Y151542D01*
X78300Y151661D01*
D02*
G37*
G36*
X425400Y146661D02*
X424803Y146542D01*
X424296Y146204D01*
X423958Y145697D01*
X423839Y145100D01*
X423958Y144503D01*
X424296Y143996D01*
X424803Y143658D01*
X425400Y143539D01*
X425997Y143658D01*
X426504Y143996D01*
X426842Y144503D01*
X426961Y145100D01*
X426842Y145697D01*
X426504Y146204D01*
X425997Y146542D01*
X425400Y146661D01*
D02*
G37*
G36*
X20700Y145661D02*
X20103Y145542D01*
X19596Y145204D01*
X19258Y144697D01*
X19139Y144100D01*
X19258Y143503D01*
X19596Y142996D01*
X20103Y142658D01*
X20700Y142539D01*
X21297Y142658D01*
X21804Y142996D01*
X22142Y143503D01*
X22261Y144100D01*
X22142Y144697D01*
X21804Y145204D01*
X21297Y145542D01*
X20700Y145661D01*
D02*
G37*
G36*
X337500Y143561D02*
X336903Y143442D01*
X336396Y143104D01*
X336058Y142597D01*
X335939Y142000D01*
X336058Y141403D01*
X336396Y140896D01*
X336903Y140558D01*
X337500Y140439D01*
X338097Y140558D01*
X338604Y140896D01*
X338942Y141403D01*
X339061Y142000D01*
X338942Y142597D01*
X338604Y143104D01*
X338097Y143442D01*
X337500Y143561D01*
D02*
G37*
G36*
X44900Y143461D02*
X44303Y143342D01*
X43796Y143004D01*
X43458Y142497D01*
X43339Y141900D01*
X43458Y141303D01*
X43796Y140796D01*
X44303Y140458D01*
X44900Y140339D01*
X45497Y140458D01*
X46004Y140796D01*
X46342Y141303D01*
X46461Y141900D01*
X46342Y142497D01*
X46004Y143004D01*
X45497Y143342D01*
X44900Y143461D01*
D02*
G37*
G36*
X268000Y149561D02*
X267403Y149442D01*
X266896Y149104D01*
X266558Y148597D01*
X266439Y148000D01*
X266558Y147403D01*
X266896Y146896D01*
X267403Y146558D01*
X267795Y146480D01*
X272495Y141780D01*
X272439Y141500D01*
X272558Y140903D01*
X272896Y140396D01*
X273403Y140058D01*
X274000Y139939D01*
X274597Y140058D01*
X275104Y140396D01*
X275442Y140903D01*
X275561Y141500D01*
X275442Y142097D01*
X275104Y142604D01*
X274597Y142942D01*
X274000Y143061D01*
X273720Y143005D01*
X269394Y147331D01*
X269442Y147403D01*
X269561Y148000D01*
X269442Y148597D01*
X269104Y149104D01*
X268597Y149442D01*
X268000Y149561D01*
D02*
G37*
G36*
X294500Y142561D02*
X293903Y142442D01*
X293396Y142104D01*
X293058Y141597D01*
X292939Y141000D01*
X293058Y140403D01*
X293396Y139896D01*
X293903Y139558D01*
X294500Y139439D01*
X295097Y139558D01*
X295604Y139896D01*
X295942Y140403D01*
X296061Y141000D01*
X295942Y141597D01*
X295604Y142104D01*
X295097Y142442D01*
X294500Y142561D01*
D02*
G37*
G36*
X404000Y139061D02*
X403403Y138942D01*
X402896Y138604D01*
X402558Y138097D01*
X402439Y137500D01*
X402558Y136903D01*
X402896Y136396D01*
X403403Y136058D01*
X404000Y135939D01*
X404597Y136058D01*
X405104Y136396D01*
X405442Y136903D01*
X405561Y137500D01*
X405442Y138097D01*
X405104Y138604D01*
X404597Y138942D01*
X404000Y139061D01*
D02*
G37*
G36*
X235400Y138161D02*
X234803Y138042D01*
X234296Y137704D01*
X233958Y137197D01*
X233839Y136600D01*
X233958Y136003D01*
X234296Y135496D01*
X234803Y135158D01*
X235400Y135039D01*
X235997Y135158D01*
X236504Y135496D01*
X236842Y136003D01*
X236961Y136600D01*
X236842Y137197D01*
X236504Y137704D01*
X235997Y138042D01*
X235400Y138161D01*
D02*
G37*
G36*
X44900Y137761D02*
X44303Y137642D01*
X43796Y137304D01*
X43458Y136797D01*
X43339Y136200D01*
X43458Y135603D01*
X43796Y135096D01*
X44303Y134758D01*
X44900Y134639D01*
X45497Y134758D01*
X46004Y135096D01*
X46342Y135603D01*
X46461Y136200D01*
X46342Y136797D01*
X46004Y137304D01*
X45497Y137642D01*
X44900Y137761D01*
D02*
G37*
G36*
X232000Y135061D02*
X231403Y134942D01*
X230896Y134604D01*
X230558Y134097D01*
X230439Y133500D01*
X230558Y132903D01*
X230896Y132396D01*
X231403Y132058D01*
X232000Y131939D01*
X232597Y132058D01*
X233104Y132396D01*
X233442Y132903D01*
X233561Y133500D01*
X233442Y134097D01*
X233104Y134604D01*
X232597Y134942D01*
X232000Y135061D01*
D02*
G37*
G36*
X337500Y133761D02*
X336903Y133642D01*
X336396Y133304D01*
X336058Y132797D01*
X335939Y132200D01*
X336058Y131603D01*
X336396Y131096D01*
X336903Y130758D01*
X337500Y130639D01*
X338097Y130758D01*
X338604Y131096D01*
X338942Y131603D01*
X339061Y132200D01*
X338942Y132797D01*
X338604Y133304D01*
X338097Y133642D01*
X337500Y133761D01*
D02*
G37*
G36*
X294500Y132561D02*
X293903Y132442D01*
X293396Y132104D01*
X293058Y131597D01*
X292939Y131000D01*
X293058Y130403D01*
X293396Y129896D01*
X293903Y129558D01*
X294500Y129439D01*
X295097Y129558D01*
X295604Y129896D01*
X295942Y130403D01*
X296061Y131000D01*
X295942Y131597D01*
X295604Y132104D01*
X295097Y132442D01*
X294500Y132561D01*
D02*
G37*
G36*
X44900Y132061D02*
X44303Y131942D01*
X43796Y131604D01*
X43458Y131097D01*
X43339Y130500D01*
X43458Y129903D01*
X43796Y129396D01*
X44303Y129058D01*
X44900Y128939D01*
X45497Y129058D01*
X46004Y129396D01*
X46342Y129903D01*
X46461Y130500D01*
X46342Y131097D01*
X46004Y131604D01*
X45497Y131942D01*
X44900Y132061D01*
D02*
G37*
G36*
X533000Y139118D02*
X531675Y138944D01*
X530441Y138433D01*
X529381Y137619D01*
X528568Y136559D01*
X528056Y135325D01*
X527882Y134000D01*
X528056Y132675D01*
X528568Y131441D01*
X529381Y130381D01*
X530441Y129568D01*
X531675Y129056D01*
X533000Y128882D01*
X534325Y129056D01*
X535559Y129568D01*
X536619Y130381D01*
X537432Y131441D01*
X537944Y132675D01*
X538118Y134000D01*
X537944Y135325D01*
X537432Y136559D01*
X536619Y137619D01*
X535559Y138433D01*
X534325Y138944D01*
X533000Y139118D01*
D02*
G37*
G36*
X133000Y127261D02*
X132403Y127142D01*
X131896Y126804D01*
X131558Y126297D01*
X131439Y125700D01*
X131558Y125103D01*
X131896Y124596D01*
X132403Y124258D01*
X133000Y124139D01*
X133597Y124258D01*
X134104Y124596D01*
X134442Y125103D01*
X134561Y125700D01*
X134442Y126297D01*
X134104Y126804D01*
X133597Y127142D01*
X133000Y127261D01*
D02*
G37*
G36*
X44900Y126361D02*
X44303Y126242D01*
X43796Y125904D01*
X43458Y125397D01*
X43339Y124800D01*
X43458Y124203D01*
X43796Y123696D01*
X44303Y123358D01*
X44900Y123239D01*
X45497Y123358D01*
X46004Y123696D01*
X46342Y124203D01*
X46461Y124800D01*
X46342Y125397D01*
X46004Y125904D01*
X45497Y126242D01*
X44900Y126361D01*
D02*
G37*
G36*
X127100Y124761D02*
X126503Y124642D01*
X125996Y124304D01*
X125658Y123797D01*
X125539Y123200D01*
X125658Y122603D01*
X125996Y122096D01*
X126503Y121758D01*
X127100Y121639D01*
X127697Y121758D01*
X128204Y122096D01*
X128542Y122603D01*
X128661Y123200D01*
X128542Y123797D01*
X128204Y124304D01*
X127697Y124642D01*
X127100Y124761D01*
D02*
G37*
G36*
X-28000Y124061D02*
X-28597Y123942D01*
X-29104Y123604D01*
X-29442Y123097D01*
X-29561Y122500D01*
X-29442Y121903D01*
X-29104Y121396D01*
X-28597Y121058D01*
X-28000Y120939D01*
X-27403Y121058D01*
X-26896Y121396D01*
X-26558Y121903D01*
X-26439Y122500D01*
X-26558Y123097D01*
X-26896Y123604D01*
X-27403Y123942D01*
X-28000Y124061D01*
D02*
G37*
G36*
X337500Y123561D02*
X336903Y123442D01*
X336396Y123104D01*
X336058Y122597D01*
X335939Y122000D01*
X336058Y121403D01*
X336396Y120896D01*
X336903Y120558D01*
X337500Y120439D01*
X338097Y120558D01*
X338604Y120896D01*
X338942Y121403D01*
X339061Y122000D01*
X338942Y122597D01*
X338604Y123104D01*
X338097Y123442D01*
X337500Y123561D01*
D02*
G37*
G36*
X-9000D02*
X-9597Y123442D01*
X-10104Y123104D01*
X-10442Y122597D01*
X-10561Y122000D01*
X-10442Y121403D01*
X-10104Y120896D01*
X-9597Y120558D01*
X-9000Y120439D01*
X-8403Y120558D01*
X-7896Y120896D01*
X-7558Y121403D01*
X-7439Y122000D01*
X-7558Y122597D01*
X-7896Y123104D01*
X-8403Y123442D01*
X-9000Y123561D01*
D02*
G37*
G36*
X294500Y122561D02*
X293903Y122442D01*
X293396Y122104D01*
X293058Y121597D01*
X292939Y121000D01*
X293058Y120403D01*
X293396Y119896D01*
X293903Y119558D01*
X294500Y119439D01*
X295097Y119558D01*
X295604Y119896D01*
X295942Y120403D01*
X296061Y121000D01*
X295942Y121597D01*
X295604Y122104D01*
X295097Y122442D01*
X294500Y122561D01*
D02*
G37*
G36*
X425500Y121661D02*
X424903Y121542D01*
X424396Y121204D01*
X424058Y120697D01*
X423939Y120100D01*
X424058Y119503D01*
X424396Y118996D01*
X424903Y118658D01*
X425500Y118539D01*
X426097Y118658D01*
X426604Y118996D01*
X426942Y119503D01*
X427061Y120100D01*
X426942Y120697D01*
X426604Y121204D01*
X426097Y121542D01*
X425500Y121661D01*
D02*
G37*
G36*
X207500Y120361D02*
X206903Y120242D01*
X206396Y119904D01*
X206058Y119397D01*
X205994Y119074D01*
X205367Y118815D01*
X204484Y118137D01*
X204498Y118123D01*
X202472Y116098D01*
X202468Y116091D01*
X201603Y115428D01*
X200651Y115033D01*
X200604Y115104D01*
X200097Y115442D01*
X199500Y115561D01*
X198903Y115442D01*
X198396Y115104D01*
X198058Y114597D01*
X197939Y114000D01*
X198058Y113403D01*
X198396Y112896D01*
X198903Y112558D01*
X199500Y112439D01*
X200097Y112558D01*
X200604Y112896D01*
X200874Y113300D01*
X201777Y113574D01*
X202805Y114124D01*
X203707Y114864D01*
X203698Y114872D01*
X205723Y116897D01*
X205745Y116930D01*
X206533Y117456D01*
X206704Y117490D01*
X206903Y117358D01*
X207500Y117239D01*
X208097Y117358D01*
X208604Y117696D01*
X208942Y118203D01*
X209061Y118800D01*
X208942Y119397D01*
X208604Y119904D01*
X208097Y120242D01*
X207500Y120361D01*
D02*
G37*
G36*
X133000Y115561D02*
X132403Y115442D01*
X131896Y115104D01*
X131558Y114597D01*
X131439Y114000D01*
X131558Y113403D01*
X131896Y112896D01*
X132403Y112558D01*
X133000Y112439D01*
X133597Y112558D01*
X134104Y112896D01*
X134442Y113403D01*
X134561Y114000D01*
X134442Y114597D01*
X134104Y115104D01*
X133597Y115442D01*
X133000Y115561D01*
D02*
G37*
G36*
X40000Y115061D02*
X39403Y114942D01*
X38896Y114604D01*
X38558Y114097D01*
X38439Y113500D01*
X38558Y112903D01*
X38896Y112396D01*
X39403Y112058D01*
X40000Y111939D01*
X40597Y112058D01*
X41104Y112396D01*
X41442Y112903D01*
X41561Y113500D01*
X41442Y114097D01*
X41104Y114604D01*
X40597Y114942D01*
X40000Y115061D01*
D02*
G37*
G36*
X337500Y113761D02*
X336903Y113642D01*
X336396Y113304D01*
X336058Y112797D01*
X335939Y112200D01*
X336058Y111603D01*
X336396Y111096D01*
X336903Y110758D01*
X337500Y110639D01*
X338097Y110758D01*
X338604Y111096D01*
X338942Y111603D01*
X339061Y112200D01*
X338942Y112797D01*
X338604Y113304D01*
X338097Y113642D01*
X337500Y113761D01*
D02*
G37*
G36*
X404000Y113561D02*
X403403Y113442D01*
X402896Y113104D01*
X402558Y112597D01*
X402439Y112000D01*
X402558Y111403D01*
X402896Y110896D01*
X403403Y110558D01*
X404000Y110439D01*
X404597Y110558D01*
X405104Y110896D01*
X405442Y111403D01*
X405561Y112000D01*
X405442Y112597D01*
X405104Y113104D01*
X404597Y113442D01*
X404000Y113561D01*
D02*
G37*
G36*
X294500Y112561D02*
X293903Y112442D01*
X293396Y112104D01*
X293058Y111597D01*
X292939Y111000D01*
X293058Y110403D01*
X293396Y109896D01*
X293903Y109558D01*
X294500Y109439D01*
X295097Y109558D01*
X295604Y109896D01*
X295942Y110403D01*
X296061Y111000D01*
X295942Y111597D01*
X295604Y112104D01*
X295097Y112442D01*
X294500Y112561D01*
D02*
G37*
G36*
X105500Y115561D02*
X104903Y115442D01*
X104396Y115104D01*
X104058Y114597D01*
X103939Y114000D01*
X104058Y113403D01*
X104396Y112896D01*
X104903Y112558D01*
X105500Y112439D01*
X105780Y112495D01*
X109204Y109070D01*
X109195Y109061D01*
X110118Y108304D01*
X111170Y107742D01*
X111906Y107518D01*
X111958Y107260D01*
X112296Y106754D01*
X112803Y106415D01*
X113400Y106296D01*
X113997Y106415D01*
X114504Y106754D01*
X114842Y107260D01*
X114961Y107858D01*
X114842Y108455D01*
X114504Y108961D01*
X113997Y109300D01*
X113400Y109419D01*
X112803Y109300D01*
X112568Y109143D01*
X112375Y109168D01*
X111327Y109602D01*
X110436Y110286D01*
X110430Y110296D01*
X107005Y113720D01*
X107061Y114000D01*
X106942Y114597D01*
X106604Y115104D01*
X106097Y115442D01*
X105500Y115561D01*
D02*
G37*
G36*
X332000Y145000D02*
X300000D01*
Y103000D01*
X332000D01*
Y145000D01*
D02*
G37*
G36*
X171000Y100561D02*
X170403Y100442D01*
X169896Y100104D01*
X169558Y99597D01*
X169439Y99000D01*
X169558Y98403D01*
X169896Y97896D01*
X170403Y97558D01*
X171000Y97439D01*
X171597Y97558D01*
X172104Y97896D01*
X172442Y98403D01*
X172561Y99000D01*
X172442Y99597D01*
X172104Y100104D01*
X171597Y100442D01*
X171000Y100561D01*
D02*
G37*
G36*
X167500Y97561D02*
X166903Y97442D01*
X166396Y97104D01*
X166058Y96597D01*
X165939Y96000D01*
X166058Y95403D01*
X166396Y94896D01*
X166903Y94558D01*
X167500Y94439D01*
X168097Y94558D01*
X168604Y94896D01*
X168942Y95403D01*
X169061Y96000D01*
X168942Y96597D01*
X168604Y97104D01*
X168097Y97442D01*
X167500Y97561D01*
D02*
G37*
G36*
X425500Y96061D02*
X424903Y95942D01*
X424396Y95604D01*
X424058Y95097D01*
X423939Y94500D01*
X424058Y93903D01*
X424396Y93396D01*
X424903Y93058D01*
X425500Y92939D01*
X426097Y93058D01*
X426604Y93396D01*
X426942Y93903D01*
X427061Y94500D01*
X426942Y95097D01*
X426604Y95604D01*
X426097Y95942D01*
X425500Y96061D01*
D02*
G37*
G36*
X270500Y90561D02*
X269903Y90442D01*
X269396Y90104D01*
X269058Y89597D01*
X268939Y89000D01*
X269058Y88403D01*
X269396Y87896D01*
X269421Y87646D01*
X264780Y83005D01*
X264500Y83061D01*
X263903Y82942D01*
X263396Y82604D01*
X263058Y82097D01*
X262939Y81500D01*
X263058Y80903D01*
X263396Y80396D01*
X263903Y80058D01*
X264500Y79939D01*
X265097Y80058D01*
X265604Y80396D01*
X265942Y80903D01*
X266061Y81500D01*
X266005Y81780D01*
X271113Y86887D01*
X271301Y87168D01*
X271367Y87500D01*
Y87738D01*
X271604Y87896D01*
X271942Y88403D01*
X272061Y89000D01*
X271942Y89597D01*
X271604Y90104D01*
X271097Y90442D01*
X270500Y90561D01*
D02*
G37*
G36*
X210000Y85061D02*
X209403Y84942D01*
X208896Y84604D01*
X208558Y84097D01*
X208439Y83500D01*
X208558Y82903D01*
X208896Y82396D01*
X209403Y82058D01*
X210000Y81939D01*
X210597Y82058D01*
X211104Y82396D01*
X211442Y82903D01*
X211561Y83500D01*
X211442Y84097D01*
X211104Y84604D01*
X210597Y84942D01*
X210000Y85061D01*
D02*
G37*
G36*
X198500Y79061D02*
X197903Y78942D01*
X197396Y78604D01*
X197058Y78097D01*
X196939Y77500D01*
X197058Y76903D01*
X197396Y76396D01*
X197903Y76058D01*
X198500Y75939D01*
X199097Y76058D01*
X199604Y76396D01*
X199942Y76903D01*
X200061Y77500D01*
X199942Y78097D01*
X199604Y78604D01*
X199097Y78942D01*
X198500Y79061D01*
D02*
G37*
G36*
X191000Y77361D02*
X190403Y77242D01*
X189896Y76904D01*
X189558Y76397D01*
X189439Y75800D01*
X189558Y75203D01*
X189896Y74696D01*
X190403Y74358D01*
X191000Y74239D01*
X191597Y74358D01*
X191857Y74531D01*
X192341Y74468D01*
X193590Y73950D01*
X194280Y73421D01*
X194655Y73119D01*
X195001Y72774D01*
X196028Y71747D01*
X195939Y71300D01*
X196058Y70703D01*
X196396Y70196D01*
X196903Y69858D01*
X197500Y69739D01*
X198097Y69858D01*
X198604Y70196D01*
X198942Y70703D01*
X199061Y71300D01*
X198942Y71897D01*
X198604Y72404D01*
X198097Y72742D01*
X197500Y72861D01*
X197387Y72839D01*
X195881Y74345D01*
X195881Y74345D01*
X195892Y74357D01*
X194844Y75217D01*
X193648Y75857D01*
X192479Y76211D01*
X192442Y76397D01*
X192104Y76904D01*
X191597Y77242D01*
X191000Y77361D01*
D02*
G37*
G36*
X235500Y64061D02*
X234903Y63942D01*
X234396Y63604D01*
X234058Y63097D01*
X233939Y62500D01*
X234058Y61903D01*
X234396Y61396D01*
X234903Y61058D01*
X235500Y60939D01*
X236097Y61058D01*
X236604Y61396D01*
X236942Y61903D01*
X237061Y62500D01*
X236942Y63097D01*
X236604Y63604D01*
X236097Y63942D01*
X235500Y64061D01*
D02*
G37*
G36*
X232000Y61061D02*
X231403Y60942D01*
X230896Y60604D01*
X230558Y60097D01*
X230439Y59500D01*
X230558Y58903D01*
X230896Y58396D01*
X231403Y58058D01*
X232000Y57939D01*
X232597Y58058D01*
X233104Y58396D01*
X233442Y58903D01*
X233561Y59500D01*
X233442Y60097D01*
X233104Y60604D01*
X232597Y60942D01*
X232000Y61061D01*
D02*
G37*
G36*
X337500Y57461D02*
X336903Y57342D01*
X336396Y57004D01*
X336058Y56497D01*
X335939Y55900D01*
X336058Y55303D01*
X336396Y54796D01*
X336903Y54458D01*
X337500Y54339D01*
X338097Y54458D01*
X338604Y54796D01*
X338942Y55303D01*
X339061Y55900D01*
X338942Y56497D01*
X338604Y57004D01*
X338097Y57342D01*
X337500Y57461D01*
D02*
G37*
G36*
X31500Y54561D02*
X30903Y54442D01*
X30396Y54104D01*
X30058Y53597D01*
X29939Y53000D01*
X30058Y52403D01*
X30396Y51896D01*
X30903Y51558D01*
X31500Y51439D01*
X32097Y51558D01*
X32604Y51896D01*
X32942Y52403D01*
X33061Y53000D01*
X32942Y53597D01*
X32604Y54104D01*
X32097Y54442D01*
X31500Y54561D01*
D02*
G37*
G36*
X26500D02*
X25903Y54442D01*
X25396Y54104D01*
X25058Y53597D01*
X24939Y53000D01*
X25058Y52403D01*
X25396Y51896D01*
X25903Y51558D01*
X26500Y51439D01*
X27097Y51558D01*
X27604Y51896D01*
X27942Y52403D01*
X28061Y53000D01*
X27942Y53597D01*
X27604Y54104D01*
X27097Y54442D01*
X26500Y54561D01*
D02*
G37*
G36*
X21500D02*
X20903Y54442D01*
X20396Y54104D01*
X20058Y53597D01*
X19939Y53000D01*
X20058Y52403D01*
X20396Y51896D01*
X20903Y51558D01*
X21500Y51439D01*
X22097Y51558D01*
X22604Y51896D01*
X22942Y52403D01*
X23061Y53000D01*
X22942Y53597D01*
X22604Y54104D01*
X22097Y54442D01*
X21500Y54561D01*
D02*
G37*
G36*
X16500D02*
X15903Y54442D01*
X15396Y54104D01*
X15058Y53597D01*
X14939Y53000D01*
X15058Y52403D01*
X15396Y51896D01*
X15903Y51558D01*
X16500Y51439D01*
X17097Y51558D01*
X17604Y51896D01*
X17942Y52403D01*
X18061Y53000D01*
X17942Y53597D01*
X17604Y54104D01*
X17097Y54442D01*
X16500Y54561D01*
D02*
G37*
G36*
X11500D02*
X10903Y54442D01*
X10396Y54104D01*
X10058Y53597D01*
X9939Y53000D01*
X10058Y52403D01*
X10396Y51896D01*
X10903Y51558D01*
X11500Y51439D01*
X12097Y51558D01*
X12604Y51896D01*
X12942Y52403D01*
X13061Y53000D01*
X12942Y53597D01*
X12604Y54104D01*
X12097Y54442D01*
X11500Y54561D01*
D02*
G37*
G36*
X482409Y55299D02*
X476591D01*
Y49481D01*
X482409D01*
Y55299D01*
D02*
G37*
G36*
X507000Y48561D02*
X506403Y48442D01*
X506110Y48247D01*
X505750Y48145D01*
X505390Y48247D01*
X505097Y48442D01*
X504500Y48561D01*
X503903Y48442D01*
X503610Y48247D01*
X503250Y48145D01*
X502890Y48247D01*
X502597Y48442D01*
X502000Y48561D01*
X501403Y48442D01*
X500896Y48104D01*
X500558Y47597D01*
X500439Y47000D01*
X500558Y46403D01*
X500896Y45896D01*
X501403Y45558D01*
X502000Y45439D01*
X502597Y45558D01*
X503104Y45896D01*
X503396D01*
X503903Y45558D01*
X504500Y45439D01*
X505097Y45558D01*
X505604Y45896D01*
X505896D01*
X506403Y45558D01*
X507000Y45439D01*
X507597Y45558D01*
X508104Y45896D01*
X508442Y46403D01*
X508561Y47000D01*
X508442Y47597D01*
X508104Y48104D01*
X507597Y48442D01*
X507000Y48561D01*
D02*
G37*
G36*
X29000Y49561D02*
X28403Y49442D01*
X27896Y49104D01*
X27558Y48597D01*
X27439Y48000D01*
X27558Y47403D01*
X27896Y46896D01*
X28403Y46558D01*
X29000Y46439D01*
X29597Y46558D01*
X30104Y46896D01*
X30442Y47403D01*
X30561Y48000D01*
X30442Y48597D01*
X30104Y49104D01*
X29597Y49442D01*
X29000Y49561D01*
D02*
G37*
G36*
X24000D02*
X23403Y49442D01*
X22896Y49104D01*
X22558Y48597D01*
X22439Y48000D01*
X22558Y47403D01*
X22896Y46896D01*
X23403Y46558D01*
X24000Y46439D01*
X24597Y46558D01*
X25104Y46896D01*
X25442Y47403D01*
X25561Y48000D01*
X25442Y48597D01*
X25104Y49104D01*
X24597Y49442D01*
X24000Y49561D01*
D02*
G37*
G36*
X19000D02*
X18403Y49442D01*
X17896Y49104D01*
X17558Y48597D01*
X17439Y48000D01*
X17558Y47403D01*
X17896Y46896D01*
X18403Y46558D01*
X19000Y46439D01*
X19597Y46558D01*
X20104Y46896D01*
X20442Y47403D01*
X20561Y48000D01*
X20442Y48597D01*
X20104Y49104D01*
X19597Y49442D01*
X19000Y49561D01*
D02*
G37*
G36*
X14000D02*
X13403Y49442D01*
X12896Y49104D01*
X12558Y48597D01*
X12439Y48000D01*
X12558Y47403D01*
X12896Y46896D01*
X13403Y46558D01*
X14000Y46439D01*
X14597Y46558D01*
X15104Y46896D01*
X15442Y47403D01*
X15561Y48000D01*
X15442Y48597D01*
X15104Y49104D01*
X14597Y49442D01*
X14000Y49561D01*
D02*
G37*
G36*
X118500Y51061D02*
X117903Y50942D01*
X117396Y50604D01*
X117058Y50097D01*
X116939Y49500D01*
X117058Y48903D01*
X117253Y48610D01*
X117355Y48250D01*
X117253Y47890D01*
X117058Y47597D01*
X116939Y47000D01*
X117058Y46403D01*
X117396Y45896D01*
X117903Y45558D01*
X118500Y45439D01*
X119097Y45558D01*
X119604Y45896D01*
X119942Y46403D01*
X120061Y47000D01*
X119942Y47597D01*
X119747Y47890D01*
X119645Y48250D01*
X119747Y48610D01*
X119942Y48903D01*
X120061Y49500D01*
X119942Y50097D01*
X119604Y50604D01*
X119097Y50942D01*
X118500Y51061D01*
D02*
G37*
G36*
X31500Y44561D02*
X30903Y44442D01*
X30396Y44104D01*
X30058Y43597D01*
X29939Y43000D01*
X30058Y42403D01*
X30396Y41896D01*
X30903Y41558D01*
X31500Y41439D01*
X32097Y41558D01*
X32604Y41896D01*
X32942Y42403D01*
X33061Y43000D01*
X32942Y43597D01*
X32604Y44104D01*
X32097Y44442D01*
X31500Y44561D01*
D02*
G37*
G36*
X26500D02*
X25903Y44442D01*
X25396Y44104D01*
X25058Y43597D01*
X24939Y43000D01*
X25058Y42403D01*
X25396Y41896D01*
X25903Y41558D01*
X26500Y41439D01*
X27097Y41558D01*
X27604Y41896D01*
X27942Y42403D01*
X28061Y43000D01*
X27942Y43597D01*
X27604Y44104D01*
X27097Y44442D01*
X26500Y44561D01*
D02*
G37*
G36*
X21500D02*
X20903Y44442D01*
X20396Y44104D01*
X20058Y43597D01*
X19939Y43000D01*
X20058Y42403D01*
X20396Y41896D01*
X20903Y41558D01*
X21500Y41439D01*
X22097Y41558D01*
X22604Y41896D01*
X22942Y42403D01*
X23061Y43000D01*
X22942Y43597D01*
X22604Y44104D01*
X22097Y44442D01*
X21500Y44561D01*
D02*
G37*
G36*
X16500D02*
X15903Y44442D01*
X15396Y44104D01*
X15058Y43597D01*
X14939Y43000D01*
X15058Y42403D01*
X15396Y41896D01*
X15903Y41558D01*
X16500Y41439D01*
X17097Y41558D01*
X17604Y41896D01*
X17942Y42403D01*
X18061Y43000D01*
X17942Y43597D01*
X17604Y44104D01*
X17097Y44442D01*
X16500Y44561D01*
D02*
G37*
G36*
X11500D02*
X10903Y44442D01*
X10396Y44104D01*
X10058Y43597D01*
X9939Y43000D01*
X10058Y42403D01*
X10396Y41896D01*
X10903Y41558D01*
X11500Y41439D01*
X12097Y41558D01*
X12604Y41896D01*
X12942Y42403D01*
X13061Y43000D01*
X12942Y43597D01*
X12604Y44104D01*
X12097Y44442D01*
X11500Y44561D01*
D02*
G37*
G36*
X480000Y42134D02*
Y39110D01*
X483024D01*
X482967Y39539D01*
X482609Y40405D01*
X482038Y41149D01*
X481295Y41719D01*
X480429Y42078D01*
X480000Y42134D01*
D02*
G37*
G36*
X479000D02*
X478571Y42078D01*
X477705Y41719D01*
X476962Y41149D01*
X476391Y40405D01*
X476033Y39539D01*
X475976Y39110D01*
X479000D01*
Y42134D01*
D02*
G37*
G36*
X29000Y39561D02*
X28403Y39442D01*
X27896Y39104D01*
X27558Y38597D01*
X27439Y38000D01*
X27558Y37403D01*
X27896Y36896D01*
X28403Y36558D01*
X29000Y36439D01*
X29597Y36558D01*
X30104Y36896D01*
X30442Y37403D01*
X30561Y38000D01*
X30442Y38597D01*
X30104Y39104D01*
X29597Y39442D01*
X29000Y39561D01*
D02*
G37*
G36*
X24000D02*
X23403Y39442D01*
X22896Y39104D01*
X22558Y38597D01*
X22439Y38000D01*
X22558Y37403D01*
X22896Y36896D01*
X23403Y36558D01*
X24000Y36439D01*
X24597Y36558D01*
X25104Y36896D01*
X25442Y37403D01*
X25561Y38000D01*
X25442Y38597D01*
X25104Y39104D01*
X24597Y39442D01*
X24000Y39561D01*
D02*
G37*
G36*
X479000Y38110D02*
X475976D01*
X476033Y37681D01*
X476391Y36815D01*
X476962Y36072D01*
X477705Y35501D01*
X478571Y35143D01*
X479000Y35086D01*
Y38110D01*
D02*
G37*
G36*
X483024D02*
X480000D01*
Y35086D01*
X480429Y35143D01*
X481295Y35501D01*
X482038Y36072D01*
X482609Y36815D01*
X482967Y37681D01*
X483024Y38110D01*
D02*
G37*
G36*
X20909Y39799D02*
X15091D01*
Y33981D01*
X20909D01*
Y39799D01*
D02*
G37*
G36*
X31500Y34561D02*
X30903Y34442D01*
X30396Y34104D01*
X30058Y33597D01*
X29939Y33000D01*
X30058Y32403D01*
X30396Y31896D01*
X30903Y31558D01*
X31500Y31439D01*
X32097Y31558D01*
X32604Y31896D01*
X32942Y32403D01*
X33061Y33000D01*
X32942Y33597D01*
X32604Y34104D01*
X32097Y34442D01*
X31500Y34561D01*
D02*
G37*
G36*
X26500D02*
X25903Y34442D01*
X25396Y34104D01*
X25058Y33597D01*
X24939Y33000D01*
X25058Y32403D01*
X25396Y31896D01*
X25903Y31558D01*
X26500Y31439D01*
X27097Y31558D01*
X27604Y31896D01*
X27942Y32403D01*
X28061Y33000D01*
X27942Y33597D01*
X27604Y34104D01*
X27097Y34442D01*
X26500Y34561D01*
D02*
G37*
G36*
X11500D02*
X10903Y34442D01*
X10396Y34104D01*
X10058Y33597D01*
X9939Y33000D01*
X10058Y32403D01*
X10396Y31896D01*
X10903Y31558D01*
X11500Y31439D01*
X12097Y31558D01*
X12604Y31896D01*
X12942Y32403D01*
X13061Y33000D01*
X12942Y33597D01*
X12604Y34104D01*
X12097Y34442D01*
X11500Y34561D01*
D02*
G37*
G36*
X18500Y26634D02*
Y23610D01*
X21524D01*
X21467Y24039D01*
X21109Y24905D01*
X20538Y25649D01*
X19795Y26219D01*
X18929Y26578D01*
X18500Y26634D01*
D02*
G37*
G36*
X17500D02*
X17071Y26578D01*
X16205Y26219D01*
X15462Y25649D01*
X14891Y24905D01*
X14533Y24039D01*
X14476Y23610D01*
X17500D01*
Y26634D01*
D02*
G37*
G36*
X21524Y22610D02*
X18500D01*
Y19586D01*
X18929Y19643D01*
X19795Y20001D01*
X20538Y20572D01*
X21109Y21315D01*
X21467Y22181D01*
X21524Y22610D01*
D02*
G37*
G36*
X17500D02*
X14476D01*
X14533Y22181D01*
X14891Y21315D01*
X15462Y20572D01*
X16205Y20001D01*
X17071Y19643D01*
X17500Y19586D01*
Y22610D01*
D02*
G37*
G36*
X337700Y20861D02*
X337103Y20742D01*
X336596Y20404D01*
X336258Y19897D01*
X336139Y19300D01*
X336258Y18703D01*
X336596Y18196D01*
X337103Y17858D01*
X337700Y17739D01*
X338297Y17858D01*
X338804Y18196D01*
X339142Y18703D01*
X339261Y19300D01*
X339142Y19897D01*
X338804Y20404D01*
X338297Y20742D01*
X337700Y20861D01*
D02*
G37*
G36*
X104000Y14561D02*
X103403Y14442D01*
X103110Y14247D01*
X102750Y14145D01*
X102390Y14247D01*
X102097Y14442D01*
X101500Y14561D01*
X100903Y14442D01*
X100396Y14104D01*
X100058Y13597D01*
X99939Y13000D01*
X100058Y12403D01*
X100396Y11896D01*
X100903Y11558D01*
X101500Y11439D01*
X102097Y11558D01*
X102390Y11753D01*
X102750Y11855D01*
X103110Y11753D01*
X103403Y11558D01*
X104000Y11439D01*
X104597Y11558D01*
X105104Y11896D01*
X105442Y12403D01*
X105561Y13000D01*
X105442Y13597D01*
X105104Y14104D01*
X104597Y14442D01*
X104000Y14561D01*
D02*
G37*
%LPD*%
D16*
X195268Y73732D02*
G03*
X191000Y75500I-4268J-4268D01*
G01*
X273500Y275500D02*
G03*
X274561Y272939I3621J0D01*
G01*
X267000Y337379D02*
G03*
X265500Y341000I-5121J0D01*
G01*
X261000Y299000D02*
G03*
X259586Y302414I-4828J0D01*
G01*
X231500Y234000D02*
G03*
X232354Y234353I0J1207D01*
G01*
X109817Y109683D02*
G03*
X113500Y108158I3683J3683D01*
G01*
X268000Y148000D02*
G03*
X268354Y147146I1207J0D01*
G01*
X199500Y114000D02*
G03*
X203085Y115485I0J5071D01*
G01*
X207500Y118500D02*
G03*
X205111Y117510I0J-3379D01*
G01*
X54000Y181000D02*
X59000Y176000D01*
X195268Y73732D02*
X197500Y71500D01*
X78000Y150000D02*
X82500Y145500D01*
X270500Y87500D02*
Y89000D01*
X264500Y81500D02*
X270500Y87500D01*
X273500Y275500D02*
Y276000D01*
X274561Y272939D02*
X277000Y270500D01*
X267000Y336500D02*
Y337379D01*
X258000Y304000D02*
Y304500D01*
Y304000D02*
X259586Y302414D01*
X258500Y180000D02*
Y180500D01*
X253000Y186000D02*
X258500Y180500D01*
X232353Y234353D02*
X236500Y238500D01*
X231000Y233500D02*
X231500Y234000D01*
X105500Y114000D02*
X109817Y109683D01*
X268354Y147146D02*
X274000Y141500D01*
X203085Y115485D02*
X205111Y117510D01*
D79*
X17200Y338610D02*
D03*
D80*
X18000Y23110D02*
D03*
X479500Y38610D02*
D03*
D87*
X67500Y344000D02*
D03*
Y329000D02*
D03*
X60000Y344000D02*
D03*
X63750Y336500D02*
D03*
X60000Y329000D02*
D03*
X63750Y321500D02*
D03*
Y306500D02*
D03*
X56250Y336500D02*
D03*
Y321500D02*
D03*
Y306500D02*
D03*
X48750Y336500D02*
D03*
Y306500D02*
D03*
X45000Y299000D02*
D03*
X48750Y291500D02*
D03*
X41250Y336500D02*
D03*
X37500Y329000D02*
D03*
X41250Y306500D02*
D03*
X37500Y299000D02*
D03*
X41250Y291500D02*
D03*
X30000Y344000D02*
D03*
X33750Y336500D02*
D03*
X30000Y329000D02*
D03*
X33750Y306500D02*
D03*
X30000Y299000D02*
D03*
X33750Y291500D02*
D03*
X22500Y344000D02*
D03*
X26250Y336500D02*
D03*
X22500Y329000D02*
D03*
X15000Y344000D02*
D03*
Y329000D02*
D03*
X18750Y321500D02*
D03*
X7500Y344000D02*
D03*
X11250Y336500D02*
D03*
X7500Y329000D02*
D03*
Y314000D02*
D03*
X11250Y306500D02*
D03*
X7500Y299000D02*
D03*
X11250Y291500D02*
D03*
X7500Y284000D02*
D03*
X131250Y74000D02*
D03*
X127500Y66500D02*
D03*
Y36500D02*
D03*
X131250Y14000D02*
D03*
X127500Y6500D02*
D03*
X123750Y74000D02*
D03*
Y14000D02*
D03*
X120000Y6500D02*
D03*
X112500Y66500D02*
D03*
Y36500D02*
D03*
Y21500D02*
D03*
Y6500D02*
D03*
X108750Y89000D02*
D03*
X105000Y66500D02*
D03*
Y51500D02*
D03*
Y36500D02*
D03*
Y21500D02*
D03*
Y6500D02*
D03*
X97500Y81500D02*
D03*
X101250Y74000D02*
D03*
X97500Y51500D02*
D03*
X101250Y44000D02*
D03*
X97500Y21500D02*
D03*
Y6500D02*
D03*
X93750Y74000D02*
D03*
X90000Y51500D02*
D03*
X93750Y44000D02*
D03*
X90000Y36500D02*
D03*
Y21500D02*
D03*
X93750Y14000D02*
D03*
X90000Y6500D02*
D03*
X82500Y111500D02*
D03*
Y81500D02*
D03*
X86250Y74000D02*
D03*
Y29000D02*
D03*
X82500Y6500D02*
D03*
X78750Y74000D02*
D03*
Y29000D02*
D03*
X75000Y6500D02*
D03*
X67500Y96500D02*
D03*
Y81500D02*
D03*
X71250Y74000D02*
D03*
X67500Y66500D02*
D03*
X71250Y59000D02*
D03*
X67500Y51500D02*
D03*
Y6500D02*
D03*
X60000Y96500D02*
D03*
Y81500D02*
D03*
X63750Y74000D02*
D03*
Y59000D02*
D03*
X60000Y51500D02*
D03*
X63750Y44000D02*
D03*
Y29000D02*
D03*
X60000Y21500D02*
D03*
Y6500D02*
D03*
X52500Y96500D02*
D03*
X56250Y29000D02*
D03*
X45000Y96500D02*
D03*
X48750Y89000D02*
D03*
X30000Y111500D02*
D03*
X33750Y104000D02*
D03*
Y89000D02*
D03*
X30000Y81500D02*
D03*
X33750Y74000D02*
D03*
X22500Y111500D02*
D03*
X26250Y104000D02*
D03*
X22500Y96500D02*
D03*
X26250Y89000D02*
D03*
X22500Y81500D02*
D03*
X26250Y74000D02*
D03*
X15000Y111500D02*
D03*
X18750Y104000D02*
D03*
X15000Y96500D02*
D03*
X18750Y89000D02*
D03*
X15000Y81500D02*
D03*
X18750Y74000D02*
D03*
X7500Y111500D02*
D03*
X11250Y104000D02*
D03*
X7500Y96500D02*
D03*
X11250Y89000D02*
D03*
X7500Y81500D02*
D03*
X11250Y74000D02*
D03*
X488000Y365000D02*
D03*
X473000D02*
D03*
X445000Y365040D02*
D03*
D88*
X461200Y356350D02*
D03*
X5500Y144249D02*
D03*
Y167000D02*
D03*
X466800Y301700D02*
D03*
X462400Y302200D02*
D03*
Y276900D02*
D03*
X445500Y276600D02*
D03*
X449800Y276000D02*
D03*
X462400Y251100D02*
D03*
X466800Y250800D02*
D03*
X465500Y226400D02*
D03*
X462451Y225951D02*
D03*
X448478Y251622D02*
D03*
X445451Y251451D02*
D03*
X465722Y277422D02*
D03*
X449800Y168300D02*
D03*
X445400Y168900D02*
D03*
X465500Y169200D02*
D03*
X462400Y194200D02*
D03*
X450000Y225200D02*
D03*
X445400Y226000D02*
D03*
X462451Y168818D02*
D03*
X466963Y193728D02*
D03*
X448516Y200816D02*
D03*
X445451Y200551D02*
D03*
Y143749D02*
D03*
X462451Y143600D02*
D03*
X449565Y117135D02*
D03*
X462300Y118000D02*
D03*
X448506Y143906D02*
D03*
X466935Y142835D02*
D03*
X465722Y118522D02*
D03*
X445400Y91900D02*
D03*
X448400Y92800D02*
D03*
X445500Y117500D02*
D03*
X-42200Y242520D02*
D03*
Y248819D02*
D03*
X10500Y152361D02*
D03*
X141200Y121243D02*
D03*
X54000Y181000D02*
D03*
X140900Y232000D02*
D03*
X139500Y307000D02*
D03*
X430100Y105051D02*
D03*
Y131000D02*
D03*
Y156551D02*
D03*
Y181551D02*
D03*
Y213051D02*
D03*
Y238500D02*
D03*
Y264051D02*
D03*
Y289551D02*
D03*
X8301Y380621D02*
D03*
X542200Y291000D02*
D03*
X548800Y273300D02*
D03*
X9700Y129582D02*
D03*
X-42000Y163800D02*
D03*
X108900Y376529D02*
D03*
X140000Y301000D02*
D03*
X-42000Y261500D02*
D03*
X-42100Y233100D02*
D03*
X-42000Y255000D02*
D03*
Y135449D02*
D03*
X-42200Y223622D02*
D03*
X78300Y150100D02*
D03*
X82500Y145300D02*
D03*
X-42100Y214173D02*
D03*
X-42000Y204724D02*
D03*
Y182677D02*
D03*
Y173228D02*
D03*
Y154331D02*
D03*
Y144882D02*
D03*
X324200Y43500D02*
D03*
Y46400D02*
D03*
X327500Y43600D02*
D03*
X331846Y34500D02*
D03*
Y37400D02*
D03*
Y40350D02*
D03*
X327500Y46400D02*
D03*
X270500Y89000D02*
D03*
X502000Y43500D02*
D03*
X507000D02*
D03*
X504500D02*
D03*
Y73500D02*
D03*
X507000D02*
D03*
X502000D02*
D03*
X298500Y250000D02*
D03*
X299000Y104500D02*
D03*
X403000Y300500D02*
D03*
Y275000D02*
D03*
Y249500D02*
D03*
Y224000D02*
D03*
Y192500D02*
D03*
Y167000D02*
D03*
Y141500D02*
D03*
Y116000D02*
D03*
X258000Y304500D02*
D03*
X258500Y180000D02*
D03*
X236500Y238500D02*
D03*
X198500Y347000D02*
D03*
X203000Y281000D02*
D03*
X195320Y152819D02*
D03*
X140500Y238000D02*
D03*
Y188000D02*
D03*
X196320Y83819D02*
D03*
X265600Y341300D02*
D03*
X266900Y336100D02*
D03*
X260800Y298700D02*
D03*
X231000Y233500D02*
D03*
X273500Y276000D02*
D03*
X276900Y270100D02*
D03*
X202425Y338425D02*
D03*
X225000Y326000D02*
D03*
Y344500D02*
D03*
X260000Y349500D02*
D03*
Y332500D02*
D03*
X238000Y329000D02*
D03*
X224000Y316000D02*
D03*
X163000Y307000D02*
D03*
Y288500D02*
D03*
X197500Y312500D02*
D03*
Y294500D02*
D03*
X176000Y291500D02*
D03*
X162000Y278500D02*
D03*
X203500Y273000D02*
D03*
X226500Y279000D02*
D03*
Y260500D02*
D03*
X261000Y285000D02*
D03*
Y266500D02*
D03*
X239500Y263500D02*
D03*
X225500Y250500D02*
D03*
X198500Y243500D02*
D03*
Y226000D02*
D03*
X164000Y238000D02*
D03*
Y219500D02*
D03*
X177000Y222500D02*
D03*
X163000Y209669D02*
D03*
X59000Y175700D02*
D03*
X105500Y114000D02*
D03*
X113400Y107858D02*
D03*
X197500Y71300D02*
D03*
X191000Y75800D02*
D03*
X253000Y186000D02*
D03*
X141000Y182500D02*
D03*
X164000Y188500D02*
D03*
Y170500D02*
D03*
X198500Y194000D02*
D03*
Y176500D02*
D03*
X177000Y173000D02*
D03*
X163000Y160000D02*
D03*
X268000Y148000D02*
D03*
X274000Y141500D02*
D03*
X228500Y158000D02*
D03*
Y139500D02*
D03*
X263000Y163000D02*
D03*
Y146000D02*
D03*
X241600Y142700D02*
D03*
X205800Y151600D02*
D03*
X227400Y55700D02*
D03*
X162700Y92200D02*
D03*
X227500Y129600D02*
D03*
X207500Y118800D02*
D03*
X199500Y114000D02*
D03*
X177000Y105000D02*
D03*
X198500Y126000D02*
D03*
Y108000D02*
D03*
X164000Y120500D02*
D03*
X141000Y114500D02*
D03*
X164000Y102000D02*
D03*
X228500Y84000D02*
D03*
Y65000D02*
D03*
X-18000Y119000D02*
D03*
X205500Y77500D02*
D03*
X264500Y81500D02*
D03*
X262500Y89500D02*
D03*
Y72000D02*
D03*
X241551Y68500D02*
D03*
X338500Y291000D02*
D03*
Y281000D02*
D03*
Y271000D02*
D03*
Y261000D02*
D03*
X293500Y290000D02*
D03*
X293209Y280000D02*
D03*
Y269791D02*
D03*
Y260000D02*
D03*
X338500Y145200D02*
D03*
Y135200D02*
D03*
Y125100D02*
D03*
Y115400D02*
D03*
X293500Y114000D02*
D03*
Y124000D02*
D03*
Y134000D02*
D03*
Y144000D02*
D03*
D89*
X152484Y232941D02*
D03*
X156815D02*
D03*
X152484Y228610D02*
D03*
X156815D02*
D03*
X152484Y224279D02*
D03*
X156815D02*
D03*
X152484Y115441D02*
D03*
X156815D02*
D03*
X152484Y111110D02*
D03*
X156815D02*
D03*
X152484Y106780D02*
D03*
X156815D02*
D03*
X155815Y293280D02*
D03*
X151484D02*
D03*
X155815Y297610D02*
D03*
X151484D02*
D03*
X155815Y301941D02*
D03*
X151484D02*
D03*
X152484Y183441D02*
D03*
X156815D02*
D03*
X152484Y179110D02*
D03*
X156815D02*
D03*
X152484Y174779D02*
D03*
X156815D02*
D03*
X221315Y70315D02*
D03*
X216984D02*
D03*
X221315Y74646D02*
D03*
X216984D02*
D03*
X221315Y78976D02*
D03*
X216984D02*
D03*
X219315Y265299D02*
D03*
X214984D02*
D03*
X219315Y269630D02*
D03*
X214984D02*
D03*
X219315Y273961D02*
D03*
X214984D02*
D03*
X216984Y152941D02*
D03*
X221315D02*
D03*
X216984Y148610D02*
D03*
X221315D02*
D03*
X216984Y144280D02*
D03*
X221315D02*
D03*
X217815Y330780D02*
D03*
X213484D02*
D03*
X217815Y335110D02*
D03*
X213484D02*
D03*
X217815Y339441D02*
D03*
X213484D02*
D03*
M02*
