G04*
G04 #@! TF.GenerationSoftware,Altium Limited,Altium Designer,19.1.9 (167)*
G04*
G04 Layer_Physical_Order=1*
G04 Layer_Color=255*
%FSLAX25Y25*%
%MOIN*%
G70*
G01*
G75*
%ADD11C,0.00500*%
%ADD16C,0.01000*%
%ADD22R,0.11024X0.02165*%
%ADD23R,0.06299X0.11811*%
%ADD24R,0.03347X0.03347*%
%ADD25R,0.03543X0.03347*%
%ADD26R,0.03268X0.02953*%
%ADD27R,0.03937X0.02756*%
%ADD28R,0.05512X0.03937*%
%ADD29R,0.02756X0.03937*%
%ADD30R,0.03150X0.03150*%
%ADD31R,0.03347X0.03543*%
%ADD32R,0.01772X0.05709*%
%ADD33R,0.10630X0.14173*%
%ADD34R,0.06614X0.07559*%
%ADD35R,0.07165X0.04764*%
%ADD36R,0.04764X0.07165*%
G04:AMPARAMS|DCode=37|XSize=59.06mil|YSize=17.72mil|CornerRadius=1.95mil|HoleSize=0mil|Usage=FLASHONLY|Rotation=0.000|XOffset=0mil|YOffset=0mil|HoleType=Round|Shape=RoundedRectangle|*
%AMROUNDEDRECTD37*
21,1,0.05906,0.01382,0,0,0.0*
21,1,0.05516,0.01772,0,0,0.0*
1,1,0.00390,0.02758,-0.00691*
1,1,0.00390,-0.02758,-0.00691*
1,1,0.00390,-0.02758,0.00691*
1,1,0.00390,0.02758,0.00691*
%
%ADD37ROUNDEDRECTD37*%
%ADD38R,0.06890X0.11614*%
%ADD39O,0.05709X0.01201*%
%ADD40R,0.07087X0.04331*%
%ADD41R,0.01772X0.03937*%
%ADD42R,0.03937X0.05512*%
%ADD43O,0.06299X0.01181*%
%ADD44R,0.04803X0.02362*%
%ADD45R,0.02362X0.04803*%
%ADD46R,0.02441X0.04803*%
%ADD81C,0.03937*%
%ADD82C,0.02000*%
%ADD83C,0.03000*%
%ADD84C,0.05906*%
%ADD85R,0.05906X0.05906*%
%ADD86R,0.05512X0.05512*%
%ADD87C,0.05512*%
%ADD88C,0.12795*%
%ADD89C,0.09449*%
%ADD90C,0.06000*%
%ADD91C,0.12205*%
%ADD92C,0.02362*%
%ADD93C,0.01772*%
%ADD94C,0.01968*%
G36*
X490554Y382705D02*
X491274Y382406D01*
X491922Y381973D01*
X492473Y381422D01*
X492906Y380774D01*
X493205Y380054D01*
X493357Y379290D01*
Y378900D01*
Y378510D01*
X493205Y377746D01*
X492906Y377026D01*
X492473Y376378D01*
X491922Y375827D01*
X491274Y375394D01*
X490554Y375095D01*
X489790Y374943D01*
X489010D01*
X488246Y375095D01*
X487526Y375394D01*
X486878Y375827D01*
X486327Y376378D01*
X485894Y377026D01*
X485595Y377746D01*
X485443Y378510D01*
Y378900D01*
Y379290D01*
X485595Y380054D01*
X485894Y380774D01*
X486327Y381422D01*
X486878Y381973D01*
X487526Y382406D01*
X488246Y382705D01*
X489010Y382857D01*
X489790D01*
X490554Y382705D01*
D02*
G37*
G36*
X59895Y388813D02*
X75767D01*
X90180Y374400D01*
X95393Y374400D01*
X95393Y379999D01*
X95748Y380351D01*
X101761Y380298D01*
X101761Y372652D01*
X101391Y372304D01*
X100942Y372348D01*
Y372450D01*
X96698D01*
Y372450D01*
X96517Y372269D01*
X90475Y372275D01*
X90475Y368724D01*
X91565Y367634D01*
X91559Y366933D01*
X91414Y366794D01*
X90981D01*
Y363440D01*
Y360085D01*
X91867D01*
X91919Y359607D01*
X91920Y358168D01*
X91567Y357814D01*
X84615Y357814D01*
X84262Y358168D01*
X84262Y365897D01*
X82420Y367718D01*
Y372558D01*
X82055Y372922D01*
Y373232D01*
X81746D01*
X80578Y374400D01*
X38342D01*
Y391662D01*
X59890D01*
X59895Y388813D01*
D02*
G37*
G36*
X120800Y335500D02*
X114887Y329587D01*
X114387Y329794D01*
Y349738D01*
X117453D01*
Y355202D01*
X109587D01*
Y349738D01*
X112653D01*
Y329939D01*
X83914Y301200D01*
X78878D01*
X78877Y304641D01*
X91968Y317732D01*
X92079Y318000D01*
X92079Y327798D01*
X92079Y339519D01*
X92579Y339726D01*
X93043Y339262D01*
Y336441D01*
X96499D01*
Y339970D01*
X96961Y340162D01*
X98646Y338477D01*
Y336657D01*
X102692D01*
Y340900D01*
X98674D01*
X97273Y342301D01*
X97465Y342762D01*
X97659D01*
Y346117D01*
Y349471D01*
X96773D01*
Y349321D01*
X94364D01*
Y349321D01*
X94276D01*
Y349321D01*
X92179D01*
X92079Y349471D01*
Y352268D01*
X91968Y352536D01*
X91700Y352647D01*
X72214D01*
X72076Y352590D01*
X71961Y352542D01*
X71841Y352591D01*
X71707Y352647D01*
X33475D01*
X33341Y352591D01*
X33208Y352537D01*
X26344Y345701D01*
X2039D01*
Y385700D01*
Y386287D01*
X2268Y387439D01*
X2718Y388524D01*
X3370Y389500D01*
X4200Y390331D01*
X5177Y390983D01*
X6262Y391432D01*
X7414Y391662D01*
X37963D01*
Y374400D01*
X38074Y374132D01*
X38342Y374021D01*
X58396D01*
Y371827D01*
X62479D01*
X66561D01*
Y374021D01*
X67896D01*
Y371827D01*
X71979D01*
X76061D01*
Y374021D01*
X80130D01*
X80230Y373882D01*
X79974Y373382D01*
X78449D01*
Y371413D01*
X80327D01*
Y370913D01*
X80827D01*
Y368445D01*
X82041D01*
Y367718D01*
X82041Y367717D01*
X82041Y367716D01*
X82097Y367584D01*
X82152Y367450D01*
X82153Y367450D01*
X82153Y367449D01*
X83291Y366324D01*
X83101Y365862D01*
X80929D01*
Y361582D01*
Y357303D01*
X84237D01*
X84237Y357303D01*
Y357303D01*
X84682Y357435D01*
X91567Y357435D01*
X91567Y357435D01*
X91567Y357435D01*
X91705Y357492D01*
X91835Y357546D01*
X91835Y357546D01*
X91835Y357546D01*
X92188Y357900D01*
X92188Y357900D01*
X92188Y357900D01*
X92245Y358037D01*
X92299Y358168D01*
X92299Y358168D01*
X92299Y358168D01*
X92298Y359607D01*
X92290Y359627D01*
X92296Y359648D01*
X92286Y359735D01*
X92711Y360235D01*
X94276D01*
Y360235D01*
X94364D01*
Y360235D01*
X96423D01*
X96835Y360235D01*
X97335Y360235D01*
X99394D01*
Y362573D01*
X103398D01*
Y361806D01*
X107642D01*
Y362963D01*
X109587D01*
Y361155D01*
X117453D01*
Y366619D01*
X109587D01*
Y364696D01*
X107642D01*
Y365853D01*
X106387D01*
Y368404D01*
X107642D01*
Y372450D01*
X103398D01*
Y368404D01*
X104653D01*
Y365853D01*
X103398D01*
Y364306D01*
X99394D01*
Y366644D01*
X96970Y366644D01*
X96807Y366841D01*
X96763Y367144D01*
X98022Y368404D01*
X100942D01*
Y371595D01*
X101217Y371845D01*
X101380Y371925D01*
X101505Y371972D01*
X101632Y372011D01*
X101638Y372023D01*
X101651Y372028D01*
X102021Y372376D01*
X102023Y372382D01*
X102029Y372384D01*
X102083Y372513D01*
X102140Y372641D01*
X102138Y372646D01*
X102140Y372652D01*
X102140Y380298D01*
X102085Y380430D01*
X102031Y380563D01*
X102030Y380564D01*
X102029Y380566D01*
X101897Y380620D01*
X101765Y380677D01*
X95752Y380730D01*
X95751Y380729D01*
X95750Y380730D01*
X95616Y380675D01*
X95483Y380621D01*
X95483Y380620D01*
X95482Y380620D01*
X95127Y380268D01*
X95126Y380267D01*
X95125Y380267D01*
X95070Y380134D01*
X95015Y380001D01*
X95015Y380000D01*
X95015Y379999D01*
X95015Y378412D01*
X93420D01*
Y376534D01*
X92920D01*
Y376034D01*
X90452D01*
Y375372D01*
X89951Y375164D01*
X76035Y389081D01*
X75767Y389191D01*
X60273D01*
X60269Y391308D01*
X60623Y391662D01*
X120800D01*
Y335500D01*
D02*
G37*
G36*
X91700Y349471D02*
X90981D01*
Y346117D01*
Y342762D01*
X91700D01*
X91700Y327798D01*
X91700Y318000D01*
X78498Y304798D01*
X78500Y295786D01*
X77306Y294592D01*
X76844Y294783D01*
Y294878D01*
X74671D01*
Y295378D01*
X74171D01*
Y297650D01*
X72701D01*
X72201Y298027D01*
X72214Y352268D01*
X91700D01*
Y349471D01*
D02*
G37*
G36*
X71782Y299253D02*
X71429Y298899D01*
X56874Y298899D01*
Y290378D01*
X27379Y290378D01*
Y297500D01*
X27268Y297768D01*
X26768Y298268D01*
X26500Y298379D01*
X25909D01*
Y299609D01*
X20406D01*
Y296588D01*
X20293Y296443D01*
X20282Y296404D01*
X20252Y296377D01*
X20245Y296269D01*
X20216Y296164D01*
X20236Y296128D01*
X20233Y296088D01*
X20298Y295897D01*
X20356Y295832D01*
X20389Y295751D01*
X20406Y295744D01*
Y293449D01*
X20177Y293028D01*
X20088Y292966D01*
X19988Y292925D01*
X19972Y292887D01*
X19938Y292863D01*
X19682Y292469D01*
X19663Y292363D01*
X19621Y292263D01*
Y291425D01*
X19327Y291047D01*
X19121Y291047D01*
X17449D01*
Y288078D01*
Y285110D01*
X19121D01*
X19327Y285110D01*
X19621Y284732D01*
Y276200D01*
X15673D01*
Y279578D01*
X8909D01*
Y276200D01*
X618D01*
X569Y276700D01*
X780Y276742D01*
X1442Y277184D01*
X1884Y277846D01*
X2039Y278626D01*
Y345322D01*
X26500D01*
X33475Y352268D01*
X71707D01*
X71782Y299253D01*
D02*
G37*
G36*
X27000Y297500D02*
Y284380D01*
X26591Y284161D01*
X26500Y284161D01*
X24209D01*
Y280078D01*
Y275996D01*
X26500D01*
X26591Y275996D01*
X27000Y275777D01*
Y271000D01*
X26374D01*
Y271578D01*
X23118D01*
Y272078D01*
X22618D01*
Y274547D01*
X20000D01*
Y292263D01*
X20256Y292657D01*
X20500Y292657D01*
X22658D01*
Y294338D01*
Y296019D01*
X20657D01*
X20592Y296210D01*
X20855Y296547D01*
X25909D01*
Y298000D01*
X26500D01*
X27000Y297500D01*
D02*
G37*
G36*
X44121Y100500D02*
X44232Y100232D01*
X44500Y100121D01*
X54917D01*
X55007Y100159D01*
X55067Y100119D01*
Y100119D01*
X62933D01*
Y100119D01*
X62993Y100159D01*
X63083Y100121D01*
X64917D01*
X65008Y100159D01*
X65067Y100119D01*
Y100119D01*
X72704D01*
Y99968D01*
X72754Y99847D01*
X72795Y99722D01*
X73097Y99369D01*
X73111Y99362D01*
X73117Y99348D01*
X78034Y94430D01*
X77842Y93968D01*
X77449D01*
Y91500D01*
X79327D01*
Y92484D01*
X79789Y92676D01*
X80443Y92021D01*
X80513Y91992D01*
X80566Y91939D01*
X80642D01*
X80711Y91910D01*
X80781Y91939D01*
X80856D01*
X81323Y91591D01*
Y88837D01*
X81232Y88799D01*
X81121Y88532D01*
Y87283D01*
X77409D01*
Y83004D01*
X81217D01*
Y84041D01*
X81717Y84248D01*
X85046Y80919D01*
X85115Y80890D01*
X85169Y80836D01*
X85244D01*
X85314Y80808D01*
X85383Y80836D01*
X85459D01*
X85926Y80489D01*
Y80457D01*
X88397D01*
Y80457D01*
X88485D01*
Y80457D01*
X90544D01*
X90956Y80457D01*
X91456Y80457D01*
X93515Y80457D01*
X94015Y80457D01*
X96074D01*
Y82795D01*
X100610D01*
X100942Y82861D01*
X101192Y83028D01*
X104122D01*
Y83842D01*
X106067D01*
Y81977D01*
X113633D01*
X113933Y81977D01*
X114133Y81560D01*
Y76440D01*
X113933Y76023D01*
X113633Y76023D01*
X106067D01*
Y70560D01*
X109133D01*
Y50359D01*
X72519Y13745D01*
X72074Y14007D01*
X72074Y14325D01*
Y17467D01*
X72287Y17898D01*
X72385Y17959D01*
X72492Y18004D01*
X72505Y18034D01*
X72533Y18052D01*
X72808Y18437D01*
X72834Y18550D01*
X72879Y18657D01*
Y26843D01*
X78719Y32684D01*
X78748Y32753D01*
X78801Y32807D01*
Y32882D01*
X78830Y32951D01*
X78801Y33021D01*
Y33096D01*
X79149Y33563D01*
X79413D01*
Y33827D01*
X79880Y34175D01*
X79955D01*
X80025Y34146D01*
X80095Y34175D01*
X80170D01*
X80223Y34228D01*
X80293Y34257D01*
X88768Y42732D01*
X88879Y43000D01*
Y56547D01*
X89323Y56682D01*
Y56682D01*
X92779D01*
Y61237D01*
X93190Y61533D01*
X94926Y59798D01*
Y56878D01*
X98972D01*
Y61122D01*
X96053D01*
X95152Y62022D01*
X95344Y62484D01*
X96724D01*
Y65839D01*
X94839D01*
Y66339D01*
X94339D01*
Y70193D01*
X92953D01*
Y69897D01*
X92599Y69543D01*
X91044Y69543D01*
X90544Y69543D01*
X88485D01*
Y69543D01*
X88397D01*
Y69543D01*
X86137D01*
X86044Y69768D01*
X85776Y69879D01*
X83157D01*
X81446Y71589D01*
X81377Y71618D01*
X81323Y71671D01*
X81248D01*
X81178Y71700D01*
X81109Y71671D01*
X81033D01*
X80567Y71830D01*
Y71830D01*
X80567Y71830D01*
X73252D01*
Y63800D01*
X73102D01*
X73004Y63759D01*
X72900Y63741D01*
X72874Y63706D01*
X72834Y63689D01*
X72794Y63591D01*
X72733Y63504D01*
X72630Y63046D01*
X72638Y63004D01*
X72621Y62964D01*
Y53657D01*
X68281Y49316D01*
X68252Y49247D01*
X68199Y49194D01*
Y49118D01*
X68170Y49049D01*
X68199Y48979D01*
Y48904D01*
X68083Y48437D01*
X68083D01*
X68083Y48437D01*
Y33792D01*
X68000D01*
X67732Y33681D01*
X67621Y33413D01*
Y18272D01*
X67732Y18004D01*
X68000Y17893D01*
X68028D01*
Y13878D01*
X71384D01*
X71657Y13482D01*
X71674Y13378D01*
X71667Y13367D01*
X67808D01*
X65972Y15202D01*
Y18122D01*
X61926D01*
Y16867D01*
X59779D01*
Y18318D01*
X56323D01*
Y13681D01*
X59779D01*
Y15133D01*
X61926D01*
Y13878D01*
X64845D01*
X66836Y11887D01*
X67117Y11699D01*
X67449Y11633D01*
X72030D01*
X72244Y11151D01*
X72021Y10867D01*
X58308D01*
X53677Y15498D01*
Y18163D01*
X53768Y18201D01*
X53879Y18469D01*
Y48843D01*
X60768Y55732D01*
X60879Y56000D01*
Y66584D01*
X60874Y66596D01*
X60878Y66608D01*
X60847Y67095D01*
X60787Y67215D01*
X60736Y67339D01*
X60724Y67344D01*
X60719Y67356D01*
X60592Y67399D01*
X60469Y67450D01*
X60318D01*
Y70677D01*
X55910D01*
Y70827D01*
X55881Y70898D01*
X55880Y70975D01*
X55828Y71026D01*
X55799Y71095D01*
X55728Y71124D01*
X55674Y71178D01*
X55245Y71351D01*
X55172Y71351D01*
X55103Y71379D01*
X2039D01*
Y115437D01*
X2039Y115437D01*
X38669D01*
X38821Y114937D01*
X38666Y114834D01*
X38257Y114222D01*
X38242Y114146D01*
X37548Y113452D01*
X37139Y112840D01*
X37036Y112319D01*
X35776D01*
Y107682D01*
X41988D01*
Y112319D01*
X41988D01*
X41803Y112819D01*
X41886Y113236D01*
Y113500D01*
X41743Y114222D01*
X41334Y114834D01*
X41179Y114937D01*
X41331Y115437D01*
X44121D01*
X44121Y100500D01*
D02*
G37*
G36*
X63175Y123424D02*
X87500Y99100D01*
X87500Y89000D01*
X88500Y88000D01*
Y87016D01*
X87661D01*
Y83661D01*
X87161D01*
Y83161D01*
X85776D01*
Y81378D01*
X85314Y81186D01*
X81500Y85000D01*
Y88532D01*
X82551D01*
Y91000D01*
Y93468D01*
X81173D01*
Y92480D01*
X80711Y92289D01*
X73385Y99615D01*
X73083Y99968D01*
X73083D01*
X73083Y99968D01*
Y102350D01*
X69000D01*
X64917D01*
Y100500D01*
X63083D01*
Y102350D01*
X59000D01*
X54917D01*
Y100500D01*
X44500D01*
X44500Y123424D01*
X63175Y123424D01*
D02*
G37*
G36*
X536000Y75000D02*
X531933D01*
X531506Y75176D01*
X531485Y75500D01*
X531513Y75504D01*
X532170Y75590D01*
X533021Y75943D01*
X533752Y76504D01*
X534313Y77235D01*
X534666Y78086D01*
X534720Y78500D01*
X531256D01*
X527792D01*
X527846Y78086D01*
X528199Y77235D01*
X528760Y76504D01*
X529491Y75943D01*
X530342Y75590D01*
X530999Y75504D01*
X531027Y75500D01*
X531005Y75176D01*
X530578Y75000D01*
X521933D01*
X521507Y75176D01*
X521485Y75500D01*
X521513Y75504D01*
X522170Y75590D01*
X523021Y75943D01*
X523752Y76504D01*
X524313Y77235D01*
X524666Y78086D01*
X524720Y78500D01*
X521256D01*
X517792D01*
X517846Y78086D01*
X518199Y77235D01*
X518760Y76504D01*
X519491Y75943D01*
X520342Y75590D01*
X520999Y75504D01*
X521027Y75500D01*
X521005Y75176D01*
X520578Y75000D01*
X515397D01*
X514968Y75173D01*
X514968Y75500D01*
Y76551D01*
X512500D01*
X510032D01*
Y75173D01*
X509603Y75000D01*
X507307D01*
X507000Y75061D01*
X506693Y75000D01*
X504807D01*
X504500Y75061D01*
X504193Y75000D01*
X502307D01*
X502000Y75061D01*
X501693Y75000D01*
X500000D01*
Y78127D01*
X500417Y78327D01*
X500500Y78327D01*
X504000D01*
Y81209D01*
Y84091D01*
X500500D01*
X500000Y84290D01*
Y85000D01*
X508500Y93500D01*
X536000D01*
X536000Y75000D01*
D02*
G37*
G36*
X514672Y74974D02*
X514701Y74905D01*
X514772Y74876D01*
X514826Y74822D01*
X515255Y74649D01*
X515329Y74649D01*
X515397Y74621D01*
X520578D01*
X520648Y74650D01*
X520723Y74650D01*
X521150Y74826D01*
X521256Y74891D01*
X521362Y74826D01*
X521789Y74650D01*
X521864Y74650D01*
X521933Y74621D01*
X530578D01*
X530648Y74650D01*
X530723Y74650D01*
X531150Y74826D01*
X531256Y74891D01*
X531362Y74826D01*
X531789Y74650D01*
X531864Y74650D01*
X531933Y74621D01*
X535500D01*
Y70513D01*
X535000Y70414D01*
X534750Y71017D01*
X534109Y71853D01*
X533273Y72494D01*
X532300Y72897D01*
X531756Y72969D01*
Y69000D01*
Y65031D01*
X532300Y65103D01*
X533273Y65506D01*
X534109Y66147D01*
X534750Y66983D01*
X535000Y67586D01*
X535500Y67487D01*
Y63379D01*
X531933D01*
X531863Y63350D01*
X531787Y63350D01*
X531361Y63172D01*
X531151Y63172D01*
X530724Y63350D01*
X530649Y63350D01*
X530579Y63379D01*
X521933D01*
X521863Y63350D01*
X521787Y63350D01*
X521361Y63172D01*
X521151Y63172D01*
X520724Y63350D01*
X520649Y63350D01*
X520579Y63379D01*
X507000D01*
X506732Y63268D01*
X500462Y56998D01*
X500000Y57189D01*
Y66409D01*
X504000D01*
Y69791D01*
Y73173D01*
X500000D01*
Y74621D01*
X501693D01*
X501729Y74636D01*
X501767Y74628D01*
X502000Y74675D01*
X502233Y74628D01*
X502271Y74636D01*
X502307Y74621D01*
X504193D01*
X504229Y74636D01*
X504267Y74628D01*
X504500Y74675D01*
X504733Y74628D01*
X504771Y74636D01*
X504807Y74621D01*
X506693D01*
X506729Y74636D01*
X506767Y74628D01*
X507000Y74675D01*
X507233Y74628D01*
X507271Y74636D01*
X507307Y74621D01*
X509603D01*
X509671Y74649D01*
X509745Y74649D01*
X510174Y74822D01*
X510228Y74876D01*
X510299Y74905D01*
X510328Y74974D01*
X510355Y75000D01*
X514645D01*
X514672Y74974D01*
D02*
G37*
G36*
X124000Y50897D02*
X123827Y50468D01*
X123500Y50468D01*
X122449D01*
Y48000D01*
Y45531D01*
X123827D01*
X124000Y45103D01*
Y38000D01*
X123374D01*
X122980Y38256D01*
X122980Y38500D01*
Y40657D01*
X121260D01*
X119539D01*
Y38500D01*
X119539Y38256D01*
X119145Y38000D01*
X116000D01*
Y51699D01*
X116409Y51917D01*
X116500Y51917D01*
X118791D01*
Y56000D01*
Y60083D01*
X116500D01*
X116409Y60083D01*
X116000Y60301D01*
Y64866D01*
X116500Y64915D01*
X116559Y64620D01*
X116675Y64037D01*
X117220Y63220D01*
X118037Y62675D01*
X118500Y62583D01*
Y65000D01*
Y67417D01*
X118037Y67325D01*
X117220Y66780D01*
X116675Y65963D01*
X116559Y65380D01*
X116500Y65085D01*
X116000Y65134D01*
Y69000D01*
X124000D01*
Y50897D01*
D02*
G37*
G36*
X535500Y45500D02*
X533231D01*
X533128Y45717D01*
X533096Y46000D01*
X533752Y46504D01*
X534313Y47235D01*
X534666Y48086D01*
X534720Y48500D01*
X531256D01*
X527792D01*
X527846Y48086D01*
X528199Y47235D01*
X528760Y46504D01*
X529416Y46000D01*
X529384Y45717D01*
X529280Y45500D01*
X523232D01*
X523128Y45717D01*
X523096Y46000D01*
X523752Y46504D01*
X524313Y47235D01*
X524666Y48086D01*
X524720Y48500D01*
X521256D01*
X517792D01*
X517846Y48086D01*
X518199Y47235D01*
X518760Y46504D01*
X519416Y46000D01*
X519383Y45717D01*
X519280Y45500D01*
X514968D01*
Y46551D01*
X512500D01*
X510032D01*
Y45500D01*
X500000D01*
Y48127D01*
X500417Y48327D01*
X500500Y48327D01*
X504000D01*
Y51209D01*
Y54090D01*
X500500D01*
X500417Y54091D01*
X500000Y54290D01*
Y56000D01*
X507000Y63000D01*
X520579D01*
X521005Y62823D01*
Y62823D01*
D01*
X521027Y62500D01*
X520999Y62496D01*
X520342Y62410D01*
X519491Y62057D01*
X518760Y61496D01*
X518199Y60765D01*
X517846Y59914D01*
X517792Y59500D01*
X521256D01*
X524720D01*
X524666Y59914D01*
X524313Y60765D01*
X523752Y61496D01*
X523021Y62057D01*
X522170Y62410D01*
X521513Y62496D01*
X521485Y62500D01*
X521507Y62823D01*
X521933Y63000D01*
X530579D01*
X531005Y62823D01*
Y62823D01*
D01*
X531027Y62500D01*
X530999Y62496D01*
X530342Y62410D01*
X529491Y62057D01*
X528760Y61496D01*
X528199Y60765D01*
X527846Y59914D01*
X527792Y59500D01*
X531256D01*
Y59000D01*
D01*
Y59500D01*
X534720D01*
X534666Y59914D01*
X534313Y60765D01*
X533752Y61496D01*
X533021Y62057D01*
X532170Y62410D01*
X531513Y62496D01*
X531485Y62500D01*
X531506Y62823D01*
X531933Y63000D01*
X535500D01*
Y45500D01*
D02*
G37*
G36*
X113933Y70559D02*
X114133Y70143D01*
Y52859D01*
X111367Y50092D01*
X110867Y50299D01*
Y70560D01*
X113933Y70559D01*
D02*
G37*
G36*
X530381Y45736D02*
X531256Y45621D01*
X532130Y45736D01*
X532236Y45780D01*
X532547Y45716D01*
X532786Y45554D01*
X532889Y45337D01*
X532938Y45293D01*
X532964Y45232D01*
X533042Y45200D01*
X533105Y45143D01*
X533171Y45146D01*
X533231Y45121D01*
X535500D01*
Y40513D01*
X535000Y40413D01*
X534750Y41017D01*
X534109Y41853D01*
X533273Y42494D01*
X532300Y42897D01*
X531756Y42969D01*
Y39000D01*
X531256D01*
Y38500D01*
X527287D01*
X527359Y37956D01*
X527762Y36983D01*
X528403Y36147D01*
X529239Y35506D01*
X529253Y35500D01*
X529154Y35000D01*
X523358D01*
X523259Y35500D01*
X523273Y35506D01*
X524109Y36147D01*
X524750Y36983D01*
X525153Y37956D01*
X525225Y38500D01*
X521256D01*
X517287D01*
X517359Y37956D01*
X517762Y36983D01*
X518403Y36147D01*
X519239Y35506D01*
X519253Y35500D01*
X519154Y35000D01*
X500000D01*
Y36409D01*
X504000D01*
Y39791D01*
Y43173D01*
X500000D01*
Y45121D01*
X510032D01*
X510299Y45232D01*
X510337Y45323D01*
X514663D01*
X514701Y45232D01*
X514968Y45121D01*
X519280D01*
X519341Y45146D01*
X519407Y45143D01*
X519470Y45200D01*
X519548Y45232D01*
X519573Y45293D01*
X519622Y45337D01*
X519726Y45554D01*
X519965Y45716D01*
X520275Y45780D01*
X520381Y45736D01*
X521256Y45621D01*
X522130Y45736D01*
X522236Y45780D01*
X522547Y45716D01*
X522786Y45554D01*
X522889Y45337D01*
X522938Y45293D01*
X522964Y45232D01*
X523042Y45200D01*
X523105Y45143D01*
X523171Y45146D01*
X523232Y45121D01*
X529280D01*
X529341Y45146D01*
X529407Y45143D01*
X529470Y45200D01*
X529548Y45232D01*
X529573Y45293D01*
X529622Y45337D01*
X529726Y45554D01*
X529965Y45716D01*
X530275Y45780D01*
X530381Y45736D01*
D02*
G37*
G36*
X138000Y70100D02*
X138000Y2039D01*
X53879D01*
Y12191D01*
X54341Y12382D01*
X57336Y9387D01*
X57617Y9199D01*
X57949Y9133D01*
X72500D01*
X72832Y9199D01*
X73113Y9387D01*
X115121Y51395D01*
X115621Y51188D01*
Y38000D01*
X115732Y37732D01*
X116000Y37621D01*
X119145D01*
X119245Y37663D01*
X119352Y37682D01*
X119746Y37938D01*
X119769Y37972D01*
X119807Y37988D01*
X119849Y38088D01*
X119910Y38177D01*
X120331Y38406D01*
X122189D01*
X122610Y38177D01*
X122671Y38088D01*
X122712Y37988D01*
X122751Y37972D01*
X122774Y37938D01*
X123168Y37682D01*
X123274Y37663D01*
X123374Y37621D01*
X124000D01*
X124268Y37732D01*
X124379Y38000D01*
Y45103D01*
X124351Y45171D01*
X124351Y45245D01*
X124178Y45674D01*
X124124Y45728D01*
X124095Y45799D01*
X124026Y45828D01*
X123975Y45880D01*
X123898Y45881D01*
X123827Y45910D01*
X123677D01*
Y50090D01*
X123827D01*
X123898Y50119D01*
X123975Y50120D01*
X124026Y50172D01*
X124095Y50201D01*
X124124Y50272D01*
X124178Y50326D01*
X124351Y50755D01*
X124351Y50828D01*
X124379Y50897D01*
Y69000D01*
X124268Y69268D01*
X124000Y69379D01*
X116000D01*
X115867Y69468D01*
Y88500D01*
X115801Y88832D01*
X115613Y89113D01*
X107062Y97664D01*
X106781Y97852D01*
X106449Y97918D01*
X104122D01*
Y99074D01*
X99878D01*
Y95028D01*
X104122D01*
Y96184D01*
X106090D01*
X114133Y88141D01*
Y87857D01*
X113933Y87441D01*
X113633Y87441D01*
X106067D01*
Y85575D01*
X104122D01*
Y87074D01*
X102867D01*
Y88926D01*
X104122D01*
Y92972D01*
X99878D01*
Y88926D01*
X101133D01*
Y87074D01*
X99878D01*
Y84528D01*
X96074D01*
Y86866D01*
X93850Y86866D01*
X93642Y87366D01*
X95202Y88926D01*
X98122D01*
Y92972D01*
X93878D01*
Y90053D01*
X92691Y88865D01*
X92318Y89200D01*
Y92629D01*
X87879D01*
Y93133D01*
X92949D01*
X93281Y93199D01*
X93562Y93387D01*
X95202Y95028D01*
X98122D01*
Y99074D01*
X93878D01*
Y96155D01*
X93430Y95707D01*
X92968Y95899D01*
Y96504D01*
X90000D01*
Y97004D01*
X89500D01*
Y99382D01*
X87754D01*
X72161Y114975D01*
X72352Y115437D01*
X92663D01*
X138000Y70100D01*
D02*
G37*
G36*
X83000Y69500D02*
X85776D01*
Y66839D01*
X87161D01*
Y66339D01*
X87661D01*
Y62984D01*
X88500D01*
Y43000D01*
X80025Y34525D01*
X79563Y34716D01*
Y40500D01*
X74248D01*
Y33413D01*
X78260D01*
X78451Y32951D01*
X72500Y27000D01*
Y18657D01*
X72224Y18272D01*
X70551D01*
Y16000D01*
X69551D01*
Y18272D01*
X68000D01*
Y33413D01*
X73248D01*
Y41000D01*
Y48587D01*
X68740D01*
X68549Y49049D01*
X73000Y53500D01*
Y62964D01*
X73102Y63421D01*
X76410D01*
Y67701D01*
X76910D01*
Y68201D01*
X80717D01*
Y71130D01*
X81178Y71321D01*
X83000Y69500D01*
D02*
G37*
G36*
X329468Y45900D02*
X331846D01*
Y45400D01*
X332347D01*
Y42432D01*
X334087D01*
Y32800D01*
X329465D01*
Y36400D01*
X326083D01*
Y36900D01*
X325583D01*
Y41483D01*
X322701D01*
X322300Y41722D01*
Y47700D01*
X329468D01*
Y45900D01*
D02*
G37*
G36*
X503454Y13805D02*
X504174Y13506D01*
X504822Y13073D01*
X505373Y12522D01*
X505806Y11874D01*
X506105Y11154D01*
X506257Y10390D01*
Y10000D01*
Y9610D01*
X506105Y8846D01*
X505806Y8126D01*
X505373Y7478D01*
X504822Y6927D01*
X504174Y6494D01*
X503454Y6195D01*
X502690Y6043D01*
X501910D01*
X501146Y6195D01*
X500426Y6494D01*
X499778Y6927D01*
X499227Y7478D01*
X498794Y8126D01*
X498495Y8846D01*
X498343Y9610D01*
Y10000D01*
Y10390D01*
X498495Y11154D01*
X498794Y11874D01*
X499227Y12522D01*
X499778Y13073D01*
X500426Y13506D01*
X501146Y13805D01*
X501910Y13957D01*
X502690D01*
X503454Y13805D01*
D02*
G37*
G36*
X38554Y11805D02*
X39274Y11506D01*
X39922Y11073D01*
X40473Y10522D01*
X40906Y9874D01*
X41205Y9154D01*
X41357Y8390D01*
Y8000D01*
Y7610D01*
X41205Y6846D01*
X40906Y6126D01*
X40473Y5478D01*
X39922Y4927D01*
X39274Y4494D01*
X38554Y4195D01*
X37790Y4043D01*
X37010D01*
X36246Y4195D01*
X35526Y4494D01*
X34878Y4927D01*
X34327Y5478D01*
X33894Y6126D01*
X33595Y6846D01*
X33443Y7610D01*
Y8000D01*
Y8390D01*
X33595Y9154D01*
X33894Y9874D01*
X34327Y10522D01*
X34878Y11073D01*
X35526Y11506D01*
X36246Y11805D01*
X37010Y11957D01*
X37790D01*
X38554Y11805D01*
D02*
G37*
G36*
X55532Y70827D02*
X55532Y70500D01*
Y69449D01*
X58000D01*
Y68949D01*
X58500D01*
Y67071D01*
X60469Y67071D01*
X60500Y66584D01*
Y56000D01*
X53500Y49000D01*
Y18469D01*
X52449D01*
Y16000D01*
Y13532D01*
X53500D01*
Y2039D01*
X41431D01*
X41279Y2539D01*
X41668Y2799D01*
X42601Y3732D01*
X43334Y4828D01*
X43838Y6047D01*
X44096Y7340D01*
Y8659D01*
X43838Y9953D01*
X43334Y11172D01*
X42601Y12268D01*
X41668Y13201D01*
X40572Y13934D01*
X39353Y14438D01*
X38059Y14696D01*
X36740D01*
X35447Y14438D01*
X34228Y13934D01*
X33132Y13201D01*
X32199Y12268D01*
X31466Y11172D01*
X30962Y9953D01*
X30704Y8659D01*
Y7340D01*
X30962Y6047D01*
X31466Y4828D01*
X32199Y3732D01*
X33132Y2799D01*
X33521Y2539D01*
X33369Y2039D01*
X8100D01*
X8087Y2037D01*
X8074Y2039D01*
X7487Y2032D01*
X6333Y2246D01*
X5242Y2682D01*
X4258Y3322D01*
X3417Y4142D01*
X2753Y5110D01*
X2290Y6190D01*
X2046Y7338D01*
X2039Y7913D01*
Y71000D01*
X55103D01*
X55532Y70827D01*
D02*
G37*
%LPC*%
G36*
X44600Y389238D02*
Y387320D01*
X46517D01*
X46425Y387784D01*
X45880Y388600D01*
X45063Y389146D01*
X44600Y389238D01*
D02*
G37*
G36*
X43600D02*
X43137Y389146D01*
X42320Y388600D01*
X41775Y387784D01*
X41683Y387320D01*
X43600D01*
Y389238D01*
D02*
G37*
G36*
X46517Y386320D02*
X44600D01*
Y384403D01*
X45063Y384495D01*
X45880Y385041D01*
X46425Y385857D01*
X46517Y386320D01*
D02*
G37*
G36*
X43600D02*
X41683D01*
X41775Y385857D01*
X42320Y385041D01*
X43137Y384495D01*
X43600Y384403D01*
Y386320D01*
D02*
G37*
G36*
X76061Y385626D02*
X72479D01*
Y383244D01*
X76061D01*
Y385626D01*
D02*
G37*
G36*
X66561D02*
X62979D01*
Y383244D01*
X66561D01*
Y385626D01*
D02*
G37*
G36*
X71479D02*
X67896D01*
Y383244D01*
X71479D01*
Y385626D01*
D02*
G37*
G36*
X61979D02*
X58396D01*
Y383244D01*
X61979D01*
Y385626D01*
D02*
G37*
G36*
X76061Y382244D02*
X72479D01*
Y379862D01*
X76061D01*
Y382244D01*
D02*
G37*
G36*
X71479D02*
X67896D01*
Y379862D01*
X71479D01*
Y382244D01*
D02*
G37*
G36*
X66561D02*
X62979D01*
Y379862D01*
X66561D01*
Y382244D01*
D02*
G37*
G36*
X61979D02*
X58396D01*
Y379862D01*
X61979D01*
Y382244D01*
D02*
G37*
G36*
X46474Y381169D02*
X43718D01*
Y379200D01*
X46474D01*
Y381169D01*
D02*
G37*
G36*
X42718D02*
X39962D01*
Y379200D01*
X42718D01*
Y381169D01*
D02*
G37*
G36*
X101092Y378703D02*
X99320D01*
Y377029D01*
X101092D01*
Y378703D01*
D02*
G37*
G36*
X98320D02*
X96548D01*
Y377029D01*
X98320D01*
Y378703D01*
D02*
G37*
G36*
X46474Y378200D02*
X43718D01*
Y376232D01*
X46474D01*
Y378200D01*
D02*
G37*
G36*
X42718D02*
X39962D01*
Y376232D01*
X42718D01*
Y378200D01*
D02*
G37*
G36*
X101092Y376029D02*
X99320D01*
Y374356D01*
X101092D01*
Y376029D01*
D02*
G37*
G36*
X98320D02*
X96548D01*
Y374356D01*
X98320D01*
Y376029D01*
D02*
G37*
G36*
X88308Y373382D02*
X86930D01*
Y371413D01*
X88308D01*
Y373382D01*
D02*
G37*
G36*
X85930D02*
X84552D01*
Y371413D01*
X85930D01*
Y373382D01*
D02*
G37*
G36*
X88308Y370413D02*
X86930D01*
Y368445D01*
X88308D01*
Y370413D01*
D02*
G37*
G36*
X85930D02*
X84552D01*
Y368445D01*
X85930D01*
Y370413D01*
D02*
G37*
G36*
X89981Y366794D02*
X89096D01*
Y363940D01*
X89981D01*
Y366794D01*
D02*
G37*
G36*
Y362940D02*
X89096D01*
Y360085D01*
X89981D01*
Y362940D01*
D02*
G37*
G36*
X12700Y379064D02*
X11795Y378884D01*
X11028Y378372D01*
X10516Y377605D01*
X10501Y377527D01*
X9549Y377510D01*
X9405Y377725D01*
X8899Y378064D01*
X8301Y378182D01*
X7704Y378064D01*
X7197Y377725D01*
X6859Y377219D01*
X6740Y376621D01*
X6859Y376024D01*
X7197Y375517D01*
X7704Y375179D01*
X8301Y375060D01*
X8899Y375179D01*
X9405Y375517D01*
X9579Y375777D01*
X10517Y375794D01*
X11028Y375028D01*
X11795Y374516D01*
X12700Y374336D01*
X13605Y374516D01*
X14371Y375028D01*
X14884Y375795D01*
X15064Y376700D01*
X14884Y377605D01*
X14371Y378372D01*
X13605Y378884D01*
X12700Y379064D01*
D02*
G37*
G36*
X92420Y378412D02*
X90452D01*
Y377034D01*
X92420D01*
Y378412D01*
D02*
G37*
G36*
X107642Y378553D02*
X103398D01*
Y374506D01*
X107642D01*
Y374927D01*
X108142Y375195D01*
X108303Y375087D01*
X108900Y374968D01*
X109497Y375087D01*
X110004Y375426D01*
X110342Y375932D01*
X110461Y376529D01*
X110342Y377127D01*
X110004Y377633D01*
X109497Y377972D01*
X108900Y378091D01*
X108303Y377972D01*
X108142Y377864D01*
X107642Y378131D01*
Y378553D01*
D02*
G37*
G36*
X36088Y381018D02*
X29876D01*
Y376381D01*
X31014D01*
Y373800D01*
X31157Y373078D01*
X31566Y372466D01*
X32178Y372057D01*
X32900Y371914D01*
X33622Y372057D01*
X34234Y372466D01*
X34643Y373078D01*
X34786Y373800D01*
Y376381D01*
X36088D01*
Y381018D01*
D02*
G37*
G36*
X79827Y370413D02*
X78449D01*
Y368445D01*
X79827D01*
Y370413D01*
D02*
G37*
G36*
X76061Y370827D02*
X72479D01*
Y368445D01*
X76061D01*
Y370827D01*
D02*
G37*
G36*
X71479D02*
X67896D01*
Y368445D01*
X71479D01*
Y370827D01*
D02*
G37*
G36*
X66561D02*
X62979D01*
Y368445D01*
X66561D01*
Y370827D01*
D02*
G37*
G36*
X61979D02*
X58396D01*
Y368445D01*
X61979D01*
Y370827D01*
D02*
G37*
G36*
X13200Y368717D02*
Y366800D01*
X15117D01*
X15025Y367263D01*
X14480Y368080D01*
X13663Y368625D01*
X13200Y368717D01*
D02*
G37*
G36*
X12200D02*
X11737Y368625D01*
X10920Y368080D01*
X10375Y367263D01*
X10283Y366800D01*
X12200D01*
Y368717D01*
D02*
G37*
G36*
X15117Y365800D02*
X13200D01*
Y363883D01*
X13663Y363975D01*
X14480Y364520D01*
X15025Y365337D01*
X15117Y365800D01*
D02*
G37*
G36*
X12200D02*
X10283D01*
X10375Y365337D01*
X10920Y364520D01*
X11737Y363975D01*
X12200Y363883D01*
Y365800D01*
D02*
G37*
G36*
X79929Y365862D02*
X76622D01*
Y362082D01*
X79929D01*
Y365862D01*
D02*
G37*
G36*
X107792Y359900D02*
X106020D01*
Y358227D01*
X107792D01*
Y359900D01*
D02*
G37*
G36*
X105020D02*
X103248D01*
Y358227D01*
X105020D01*
Y359900D01*
D02*
G37*
G36*
X53053Y360569D02*
X49470D01*
Y358187D01*
X53053D01*
Y360569D01*
D02*
G37*
G36*
X43203D02*
X39620D01*
Y358187D01*
X43203D01*
Y360569D01*
D02*
G37*
G36*
X48470D02*
X44887D01*
Y358187D01*
X48470D01*
Y360569D01*
D02*
G37*
G36*
X38620D02*
X35037D01*
Y358187D01*
X38620D01*
Y360569D01*
D02*
G37*
G36*
X79929Y361082D02*
X76622D01*
Y357303D01*
X79929D01*
Y361082D01*
D02*
G37*
G36*
X60388Y357007D02*
X58420D01*
Y355629D01*
X60388D01*
Y357007D01*
D02*
G37*
G36*
X57420D02*
X55452D01*
Y355629D01*
X57420D01*
Y357007D01*
D02*
G37*
G36*
X107792Y357227D02*
X106020D01*
Y355554D01*
X107792D01*
Y357227D01*
D02*
G37*
G36*
X105020D02*
X103248D01*
Y355554D01*
X105020D01*
Y357227D01*
D02*
G37*
G36*
X53053Y357187D02*
X49470D01*
Y354805D01*
X53053D01*
Y357187D01*
D02*
G37*
G36*
X48470D02*
X44887D01*
Y354805D01*
X48470D01*
Y357187D01*
D02*
G37*
G36*
X43203D02*
X39620D01*
Y354805D01*
X43203D01*
Y357187D01*
D02*
G37*
G36*
X38620D02*
X35037D01*
Y354805D01*
X38620D01*
Y357187D01*
D02*
G37*
G36*
X20850Y360567D02*
X17700D01*
Y354661D01*
X20850D01*
Y360567D01*
D02*
G37*
G36*
X16700D02*
X13550D01*
Y354661D01*
X16700D01*
Y360567D01*
D02*
G37*
G36*
X60388Y354629D02*
X58420D01*
Y353252D01*
X60388D01*
Y354629D01*
D02*
G37*
G36*
X57420D02*
X55452D01*
Y353252D01*
X57420D01*
Y354629D01*
D02*
G37*
G36*
X20850Y353661D02*
X17700D01*
Y347756D01*
X20850D01*
Y353661D01*
D02*
G37*
G36*
X16700D02*
X13550D01*
Y347756D01*
X16700D01*
Y353661D01*
D02*
G37*
G36*
X99544Y349471D02*
X98659D01*
Y346617D01*
X99544D01*
Y349471D01*
D02*
G37*
G36*
Y345617D02*
X98659D01*
Y342762D01*
X99544D01*
Y345617D01*
D02*
G37*
G36*
X108944Y341050D02*
X107271D01*
Y339278D01*
X108944D01*
Y341050D01*
D02*
G37*
G36*
X106271D02*
X104598D01*
Y339278D01*
X106271D01*
Y341050D01*
D02*
G37*
G36*
X108944Y338278D02*
X107271D01*
Y336507D01*
X108944D01*
Y338278D01*
D02*
G37*
G36*
X106271D02*
X104598D01*
Y336507D01*
X106271D01*
Y338278D01*
D02*
G37*
G36*
X84237Y351059D02*
X80929D01*
Y347279D01*
X84237D01*
Y351059D01*
D02*
G37*
G36*
X79929D02*
X76622D01*
Y347279D01*
X79929D01*
Y351059D01*
D02*
G37*
G36*
X89981Y349471D02*
X89096D01*
Y346617D01*
X89981D01*
Y349471D01*
D02*
G37*
G36*
Y345617D02*
X89096D01*
Y342762D01*
X89981D01*
Y345617D01*
D02*
G37*
G36*
X84237Y346279D02*
X80929D01*
Y342499D01*
X84237D01*
Y346279D01*
D02*
G37*
G36*
X79929D02*
X76622D01*
Y342499D01*
X79929D01*
Y346279D01*
D02*
G37*
G36*
X90547Y341228D02*
X89169D01*
Y339260D01*
X90547D01*
Y341228D01*
D02*
G37*
G36*
X88169D02*
X86791D01*
Y339260D01*
X88169D01*
Y341228D01*
D02*
G37*
G36*
X90547Y338260D02*
X89169D01*
Y336291D01*
X90547D01*
Y338260D01*
D02*
G37*
G36*
X88169D02*
X86791D01*
Y336291D01*
X88169D01*
Y338260D01*
D02*
G37*
G36*
X84383Y328265D02*
X79068D01*
Y321178D01*
X84383D01*
Y328265D01*
D02*
G37*
G36*
X78068D02*
X72753D01*
Y321178D01*
X78068D01*
Y328265D01*
D02*
G37*
G36*
X84383Y320178D02*
X79068D01*
Y313092D01*
X84383D01*
Y320178D01*
D02*
G37*
G36*
X78068D02*
X72753D01*
Y313092D01*
X78068D01*
Y320178D01*
D02*
G37*
G36*
X76844Y297650D02*
X75171D01*
Y295878D01*
X76844D01*
Y297650D01*
D02*
G37*
G36*
X60888Y351405D02*
X58420D01*
Y349527D01*
X60888D01*
Y351405D01*
D02*
G37*
G36*
X57420D02*
X54952D01*
Y349527D01*
X57420D01*
Y351405D01*
D02*
G37*
G36*
X53553Y349652D02*
X49470D01*
Y346770D01*
X53553D01*
Y349652D01*
D02*
G37*
G36*
X43703D02*
X39620D01*
Y346770D01*
X43703D01*
Y349652D01*
D02*
G37*
G36*
X48470D02*
X44387D01*
Y346770D01*
X48470D01*
Y349652D01*
D02*
G37*
G36*
X38620D02*
X34537D01*
Y346770D01*
X38620D01*
Y349652D01*
D02*
G37*
G36*
X60888Y348527D02*
X58420D01*
Y346649D01*
X60888D01*
Y348527D01*
D02*
G37*
G36*
X57420D02*
X54952D01*
Y346649D01*
X57420D01*
Y348527D01*
D02*
G37*
G36*
X53553Y345770D02*
X49470D01*
Y342888D01*
X53553D01*
Y345770D01*
D02*
G37*
G36*
X48470D02*
X44387D01*
Y342888D01*
X48470D01*
Y345770D01*
D02*
G37*
G36*
X43703D02*
X39620D01*
Y342888D01*
X43703D01*
Y345770D01*
D02*
G37*
G36*
X38620D02*
X34537D01*
Y342888D01*
X38620D01*
Y345770D01*
D02*
G37*
G36*
X21350Y343744D02*
X17700D01*
Y337339D01*
X21350D01*
Y343744D01*
D02*
G37*
G36*
X16700D02*
X13050D01*
Y337339D01*
X16700D01*
Y343744D01*
D02*
G37*
G36*
X21350Y336339D02*
X17700D01*
Y329933D01*
X21350D01*
Y336339D01*
D02*
G37*
G36*
X16700D02*
X13050D01*
Y329933D01*
X16700D01*
Y336339D01*
D02*
G37*
G36*
X53387Y328765D02*
X47572D01*
Y321178D01*
X53387D01*
Y328765D01*
D02*
G37*
G36*
X46572D02*
X40757D01*
Y321178D01*
X46572D01*
Y328765D01*
D02*
G37*
G36*
X15673Y320661D02*
X12791D01*
Y316578D01*
X15673D01*
Y320661D01*
D02*
G37*
G36*
X11791D02*
X8909D01*
Y316578D01*
X11791D01*
Y320661D01*
D02*
G37*
G36*
X53387Y320178D02*
X47572D01*
Y312592D01*
X53387D01*
Y320178D01*
D02*
G37*
G36*
X46572D02*
X40757D01*
Y312592D01*
X46572D01*
Y320178D01*
D02*
G37*
G36*
X11791Y315578D02*
X8909D01*
Y311496D01*
X11791D01*
Y315578D01*
D02*
G37*
G36*
X15673D02*
X12791D01*
Y311496D01*
X13447D01*
X13571Y311047D01*
X13571Y310996D01*
Y308578D01*
X15949D01*
X18327D01*
Y311047D01*
X15797D01*
X15673Y311496D01*
X15673Y311547D01*
Y315578D01*
D02*
G37*
G36*
X18327Y307578D02*
X16449D01*
Y305110D01*
X18327D01*
Y307578D01*
D02*
G37*
G36*
X15449D02*
X13571D01*
Y305110D01*
X15449D01*
Y307578D01*
D02*
G37*
G36*
X16244Y304000D02*
X13342D01*
Y302319D01*
X16244D01*
Y304000D01*
D02*
G37*
G36*
X12342D02*
X9441D01*
Y302319D01*
X12342D01*
Y304000D01*
D02*
G37*
G36*
X34100Y322929D02*
X20600D01*
X20332Y322818D01*
X20221Y322550D01*
Y320567D01*
X20258Y320478D01*
X20269Y320382D01*
X20496Y319976D01*
X20538Y319943D01*
X20559Y319893D01*
X20648Y319856D01*
X20723Y319796D01*
X20977Y319385D01*
Y312771D01*
X20723Y312360D01*
X20648Y312300D01*
X20559Y312263D01*
X20538Y312214D01*
X20496Y312180D01*
X20269Y311774D01*
X20258Y311679D01*
X20221Y311590D01*
Y310547D01*
X20323Y310300D01*
Y305856D01*
X20221Y305610D01*
Y303500D01*
X20332Y303232D01*
X20406Y303201D01*
Y300287D01*
X25909D01*
Y301571D01*
X26059Y301671D01*
X27100D01*
X27368Y301782D01*
X27479Y302050D01*
Y309393D01*
X34368Y316282D01*
X34479Y316550D01*
Y322550D01*
X34368Y322818D01*
X34100Y322929D01*
D02*
G37*
G36*
X16244Y301319D02*
X12843D01*
X9441D01*
Y299637D01*
Y298578D01*
X12843D01*
X16244D01*
Y299637D01*
Y301319D01*
D02*
G37*
G36*
X54947Y298347D02*
X53069D01*
Y295878D01*
X54947D01*
Y298347D01*
D02*
G37*
G36*
X52069D02*
X50191D01*
Y295878D01*
X52069D01*
Y298347D01*
D02*
G37*
G36*
X16244Y297578D02*
X12843D01*
X9441D01*
Y295897D01*
X9602D01*
X10091Y295869D01*
X10091Y295397D01*
Y292807D01*
X15594D01*
X15594Y295869D01*
X16082Y295897D01*
X16244D01*
Y297578D01*
D02*
G37*
G36*
X54947Y294878D02*
X53069D01*
Y292410D01*
X54947D01*
Y294878D01*
D02*
G37*
G36*
X52069D02*
X50191D01*
Y292410D01*
X52069D01*
Y294878D01*
D02*
G37*
G36*
X16449Y291047D02*
X14571D01*
Y288578D01*
X16449D01*
Y291047D01*
D02*
G37*
G36*
Y287578D02*
X14571D01*
Y285161D01*
X14571Y285110D01*
X14447Y284661D01*
X12791D01*
Y280578D01*
X15673D01*
Y284610D01*
X15673Y284661D01*
X15797Y285110D01*
X16449D01*
Y287578D01*
D02*
G37*
G36*
X11791Y284661D02*
X8909D01*
Y280578D01*
X11791D01*
Y284661D01*
D02*
G37*
%LPD*%
G36*
X34100Y316550D02*
X27100Y309550D01*
Y302050D01*
X26059D01*
Y303500D01*
X23658D01*
Y301818D01*
X22658D01*
Y303500D01*
X20600D01*
Y305610D01*
X21551D01*
Y308078D01*
Y310547D01*
X20600D01*
Y311590D01*
X20827Y311996D01*
X21100Y311996D01*
X23209D01*
Y316078D01*
Y320161D01*
X21100D01*
X20827Y320161D01*
X20600Y320567D01*
Y322550D01*
X34100D01*
Y316550D01*
D02*
G37*
%LPC*%
G36*
X31500Y321196D02*
Y319278D01*
X33417D01*
X33325Y319742D01*
X32780Y320558D01*
X31963Y321104D01*
X31500Y321196D01*
D02*
G37*
G36*
X30500D02*
X30037Y321104D01*
X29220Y320558D01*
X28675Y319742D01*
X28583Y319278D01*
X30500D01*
Y321196D01*
D02*
G37*
G36*
X24209Y320161D02*
Y316578D01*
X26591D01*
Y320161D01*
X24209D01*
D02*
G37*
G36*
X33417Y318278D02*
X31500D01*
Y316361D01*
X31963Y316453D01*
X32780Y316999D01*
X33325Y317815D01*
X33417Y318278D01*
D02*
G37*
G36*
X30500D02*
X28583D01*
X28675Y317815D01*
X29220Y316999D01*
X30037Y316453D01*
X30500Y316361D01*
Y318278D01*
D02*
G37*
G36*
X26591Y315578D02*
X24209D01*
Y311996D01*
X26591D01*
Y315578D01*
D02*
G37*
G36*
X23929Y310547D02*
X22551D01*
Y308578D01*
X23929D01*
Y310547D01*
D02*
G37*
G36*
Y307578D02*
X22551D01*
Y305610D01*
X23929D01*
Y307578D01*
D02*
G37*
G36*
X23658Y296019D02*
Y294838D01*
X26059D01*
Y296019D01*
X23658D01*
D02*
G37*
G36*
X26059Y293838D02*
X23658D01*
Y292657D01*
X26059D01*
Y293838D01*
D02*
G37*
G36*
X24929Y290547D02*
X23551D01*
Y288578D01*
X24929D01*
Y290547D01*
D02*
G37*
G36*
X22551D02*
X21173D01*
Y288578D01*
X22551D01*
Y290547D01*
D02*
G37*
G36*
X24929Y287578D02*
X23551D01*
Y285610D01*
X24929D01*
Y287578D01*
D02*
G37*
G36*
X22551D02*
X21173D01*
Y285610D01*
X22551D01*
Y287578D01*
D02*
G37*
G36*
X23209Y284161D02*
X20827D01*
Y280578D01*
X23209D01*
Y284161D01*
D02*
G37*
G36*
Y279578D02*
X20827D01*
Y275996D01*
X23209D01*
Y279578D01*
D02*
G37*
G36*
X26374Y274547D02*
X23618D01*
Y272578D01*
X26374D01*
Y274547D01*
D02*
G37*
G36*
X30500Y100928D02*
Y98500D01*
X32928D01*
X32892Y98775D01*
X32593Y99497D01*
X32117Y100117D01*
X31497Y100593D01*
X30775Y100892D01*
X30500Y100928D01*
D02*
G37*
G36*
X29500D02*
X29225Y100892D01*
X28503Y100593D01*
X27883Y100117D01*
X27407Y99497D01*
X27108Y98775D01*
X27072Y98500D01*
X29500D01*
Y100928D01*
D02*
G37*
G36*
X32928Y97500D02*
X30500D01*
Y95072D01*
X30775Y95108D01*
X31497Y95407D01*
X32117Y95883D01*
X32593Y96503D01*
X32892Y97225D01*
X32928Y97500D01*
D02*
G37*
G36*
X29500D02*
X27072D01*
X27108Y97225D01*
X27407Y96503D01*
X27883Y95883D01*
X28503Y95407D01*
X29225Y95108D01*
X29500Y95072D01*
Y97500D01*
D02*
G37*
G36*
X73583Y94815D02*
X69500D01*
Y91933D01*
X73583D01*
Y94815D01*
D02*
G37*
G36*
X63583D02*
X59500D01*
Y91933D01*
X63583D01*
Y94815D01*
D02*
G37*
G36*
X58500D02*
X54417D01*
Y91933D01*
X58500D01*
Y94815D01*
D02*
G37*
G36*
X68500D02*
X64417D01*
Y91933D01*
X68500D01*
Y94815D01*
D02*
G37*
G36*
X76449Y93968D02*
X74571D01*
Y91500D01*
X76449D01*
Y93968D01*
D02*
G37*
G36*
X73583Y90933D02*
X69500D01*
Y88051D01*
X73583D01*
Y90933D01*
D02*
G37*
G36*
X68500D02*
X64417D01*
Y88051D01*
X68500D01*
Y90933D01*
D02*
G37*
G36*
X63583D02*
X59500D01*
Y88051D01*
X63583D01*
Y90933D01*
D02*
G37*
G36*
X58500D02*
X54417D01*
Y88051D01*
X58500D01*
Y90933D01*
D02*
G37*
G36*
X79327Y90500D02*
X77449D01*
Y88032D01*
X79327D01*
Y90500D01*
D02*
G37*
G36*
X76449D02*
X74571D01*
Y88032D01*
X76449D01*
Y90500D01*
D02*
G37*
G36*
X76410Y87283D02*
X72602D01*
Y83004D01*
X76410D01*
Y87283D01*
D02*
G37*
G36*
X104772Y81622D02*
X102500D01*
Y79449D01*
X104772D01*
Y81622D01*
D02*
G37*
G36*
X101500D02*
X99228D01*
Y79449D01*
X101500D01*
Y81622D01*
D02*
G37*
G36*
X44583Y81090D02*
X40500D01*
Y78209D01*
X44583D01*
Y81090D01*
D02*
G37*
G36*
X49500D02*
X45417D01*
Y78209D01*
X49500D01*
Y81090D01*
D02*
G37*
G36*
X39500D02*
X35417D01*
Y78209D01*
X39500D01*
Y81090D01*
D02*
G37*
G36*
X81217Y82004D02*
X77409D01*
Y77724D01*
X81217D01*
Y82004D01*
D02*
G37*
G36*
X76410D02*
X72602D01*
Y77724D01*
X76410D01*
Y82004D01*
D02*
G37*
G36*
X104772Y78449D02*
X102500D01*
Y76276D01*
X104772D01*
Y78449D01*
D02*
G37*
G36*
X101500D02*
X99228D01*
Y76276D01*
X101500D01*
Y78449D01*
D02*
G37*
G36*
X58500Y77429D02*
Y75551D01*
X60969D01*
Y77429D01*
X58500D01*
D02*
G37*
G36*
X44583Y77209D02*
X40500D01*
Y74327D01*
X44583D01*
Y77209D01*
D02*
G37*
G36*
X39500D02*
X35417D01*
Y74327D01*
X39500D01*
Y77209D01*
D02*
G37*
G36*
X49500D02*
X45417D01*
Y74327D01*
X49500D01*
Y77209D01*
D02*
G37*
G36*
X60969Y74551D02*
X58500D01*
Y72673D01*
X60969D01*
Y74551D01*
D02*
G37*
G36*
X54583Y81090D02*
X50500D01*
Y77709D01*
Y74327D01*
X54532D01*
X54583Y74327D01*
X55032Y74203D01*
Y72673D01*
X57500D01*
Y75051D01*
Y77429D01*
X55083D01*
X55032Y77429D01*
X54583Y77553D01*
Y81090D01*
D02*
G37*
G36*
X96724Y70193D02*
X95339D01*
Y66839D01*
X96724D01*
Y70193D01*
D02*
G37*
G36*
X105724Y61772D02*
X103551D01*
Y59500D01*
X105724D01*
Y61772D01*
D02*
G37*
G36*
X102551D02*
X100378D01*
Y59500D01*
X102551D01*
Y61772D01*
D02*
G37*
G36*
X105724Y58500D02*
X103551D01*
Y56228D01*
X105724D01*
Y58500D01*
D02*
G37*
G36*
X102551D02*
X100378D01*
Y56228D01*
X102551D01*
Y58500D01*
D02*
G37*
G36*
X51700Y122454D02*
Y120537D01*
X53617D01*
X53525Y121000D01*
X52980Y121817D01*
X52163Y122362D01*
X51700Y122454D01*
D02*
G37*
G36*
X50700D02*
X50237Y122362D01*
X49420Y121817D01*
X48875Y121000D01*
X48783Y120537D01*
X50700D01*
Y122454D01*
D02*
G37*
G36*
X53617Y119537D02*
X51700D01*
Y117619D01*
X52163Y117712D01*
X52980Y118257D01*
X53525Y119074D01*
X53617Y119537D01*
D02*
G37*
G36*
X50700D02*
X48783D01*
X48875Y119074D01*
X49420Y118257D01*
X50237Y117712D01*
X50700Y117619D01*
Y119537D01*
D02*
G37*
G36*
X52374Y112469D02*
X49618D01*
Y110500D01*
X52374D01*
Y112469D01*
D02*
G37*
G36*
X48618D02*
X45862D01*
Y110500D01*
X48618D01*
Y112469D01*
D02*
G37*
G36*
X52374Y109500D02*
X49618D01*
Y107531D01*
X52374D01*
Y109500D01*
D02*
G37*
G36*
X48618D02*
X45862D01*
Y107531D01*
X48618D01*
Y109500D01*
D02*
G37*
G36*
X73083Y105732D02*
X69500D01*
Y103350D01*
X73083D01*
Y105732D01*
D02*
G37*
G36*
X63083D02*
X59500D01*
Y103350D01*
X63083D01*
Y105732D01*
D02*
G37*
G36*
X68500D02*
X64917D01*
Y103350D01*
X68500D01*
Y105732D01*
D02*
G37*
G36*
X58500D02*
X54917D01*
Y103350D01*
X58500D01*
Y105732D01*
D02*
G37*
G36*
X84929Y93468D02*
X83551D01*
Y91500D01*
X84929D01*
Y93468D01*
D02*
G37*
G36*
Y90500D02*
X83551D01*
Y88532D01*
X84929D01*
Y90500D01*
D02*
G37*
G36*
X86661Y87016D02*
X85776D01*
Y84161D01*
X86661D01*
Y87016D01*
D02*
G37*
G36*
X531756Y92464D02*
Y89500D01*
X534720D01*
X534666Y89914D01*
X534313Y90765D01*
X533752Y91496D01*
X533021Y92057D01*
X532170Y92410D01*
X531756Y92464D01*
D02*
G37*
G36*
X521756D02*
Y89500D01*
X524720D01*
X524666Y89914D01*
X524313Y90765D01*
X523752Y91496D01*
X523021Y92057D01*
X522170Y92410D01*
X521756Y92464D01*
D02*
G37*
G36*
X530756D02*
X530342Y92410D01*
X529491Y92057D01*
X528760Y91496D01*
X528199Y90765D01*
X527846Y89914D01*
X527792Y89500D01*
X530756D01*
Y92464D01*
D02*
G37*
G36*
X520756D02*
X520342Y92410D01*
X519491Y92057D01*
X518760Y91496D01*
X518199Y90765D01*
X517846Y89914D01*
X517792Y89500D01*
X520756D01*
Y92464D01*
D02*
G37*
G36*
X534720Y88500D02*
X531756D01*
Y85536D01*
X532170Y85590D01*
X533021Y85943D01*
X533752Y86504D01*
X534313Y87235D01*
X534666Y88086D01*
X534720Y88500D01*
D02*
G37*
G36*
X524720D02*
X521756D01*
Y85536D01*
X522170Y85590D01*
X523021Y85943D01*
X523752Y86504D01*
X524313Y87235D01*
X524666Y88086D01*
X524720Y88500D01*
D02*
G37*
G36*
X530756D02*
X527792D01*
X527846Y88086D01*
X528199Y87235D01*
X528760Y86504D01*
X529491Y85943D01*
X530342Y85590D01*
X530756Y85536D01*
Y88500D01*
D02*
G37*
G36*
X520756D02*
X517792D01*
X517846Y88086D01*
X518199Y87235D01*
X518760Y86504D01*
X519491Y85943D01*
X520342Y85590D01*
X520756Y85536D01*
Y88500D01*
D02*
G37*
G36*
X508583Y84091D02*
X505000D01*
Y81709D01*
X508583D01*
Y84091D01*
D02*
G37*
G36*
X531756Y82464D02*
Y79500D01*
X534720D01*
X534666Y79914D01*
X534313Y80765D01*
X533752Y81496D01*
X533021Y82057D01*
X532170Y82410D01*
X531756Y82464D01*
D02*
G37*
G36*
X521756D02*
Y79500D01*
X524720D01*
X524666Y79914D01*
X524313Y80765D01*
X523752Y81496D01*
X523021Y82057D01*
X522170Y82410D01*
X521756Y82464D01*
D02*
G37*
G36*
X530756D02*
X530342Y82410D01*
X529491Y82057D01*
X528760Y81496D01*
X528199Y80765D01*
X527846Y79914D01*
X527792Y79500D01*
X530756D01*
Y82464D01*
D02*
G37*
G36*
X520756D02*
X520342Y82410D01*
X519491Y82057D01*
X518760Y81496D01*
X518199Y80765D01*
X517846Y79914D01*
X517792Y79500D01*
X520756D01*
Y82464D01*
D02*
G37*
G36*
X508583Y80709D02*
X505000D01*
Y78327D01*
X508583D01*
Y80709D01*
D02*
G37*
G36*
X514968Y78929D02*
X513000D01*
Y77551D01*
X514968D01*
Y78929D01*
D02*
G37*
G36*
X512000D02*
X510032D01*
Y77551D01*
X512000D01*
Y78929D01*
D02*
G37*
G36*
X515469Y73327D02*
X513000D01*
Y71449D01*
X515469D01*
Y73327D01*
D02*
G37*
G36*
X521756Y72969D02*
Y69500D01*
X525225D01*
X525153Y70044D01*
X524750Y71017D01*
X524109Y71853D01*
X523273Y72494D01*
X522300Y72897D01*
X521756Y72969D01*
D02*
G37*
G36*
X530756Y72969D02*
X530212Y72897D01*
X529239Y72494D01*
X528403Y71853D01*
X527762Y71017D01*
X527359Y70044D01*
X527287Y69500D01*
X530756D01*
Y72969D01*
D02*
G37*
G36*
X520756D02*
X520212Y72897D01*
X519239Y72494D01*
X518403Y71853D01*
X517762Y71017D01*
X517359Y70044D01*
X517287Y69500D01*
X520756D01*
Y72969D01*
D02*
G37*
G36*
X515469Y70449D02*
X513000D01*
Y68571D01*
X515469D01*
Y70449D01*
D02*
G37*
G36*
X512000Y73327D02*
X509531D01*
Y73297D01*
X509083Y73173D01*
X509031Y73173D01*
X505000D01*
Y69791D01*
Y66409D01*
X509083D01*
Y68447D01*
X509531Y68571D01*
X509583Y68571D01*
X512000D01*
Y70949D01*
Y73327D01*
D02*
G37*
G36*
X525225Y68500D02*
X521756D01*
Y65031D01*
X522300Y65103D01*
X523273Y65506D01*
X524109Y66147D01*
X524750Y66983D01*
X525153Y67956D01*
X525225Y68500D01*
D02*
G37*
G36*
X530756D02*
X527287D01*
X527359Y67956D01*
X527762Y66983D01*
X528403Y66147D01*
X529239Y65506D01*
X530212Y65103D01*
X530756Y65031D01*
Y68500D01*
D02*
G37*
G36*
X520756D02*
X517287D01*
X517359Y67956D01*
X517762Y66983D01*
X518403Y66147D01*
X519239Y65506D01*
X520212Y65103D01*
X520756Y65031D01*
Y68500D01*
D02*
G37*
G36*
X119500Y67417D02*
Y65500D01*
X121417D01*
X121325Y65963D01*
X120780Y66780D01*
X119963Y67325D01*
X119500Y67417D01*
D02*
G37*
G36*
X121417Y64500D02*
X119500D01*
Y62583D01*
X119963Y62675D01*
X120780Y63220D01*
X121325Y64037D01*
X121417Y64500D01*
D02*
G37*
G36*
X119791Y60083D02*
Y56500D01*
X122173D01*
Y60083D01*
X119791D01*
D02*
G37*
G36*
X122173Y55500D02*
X119791D01*
Y51917D01*
X122173D01*
Y55500D01*
D02*
G37*
G36*
X121449Y50468D02*
X120071D01*
Y48500D01*
X121449D01*
Y50468D01*
D02*
G37*
G36*
Y47500D02*
X120071D01*
Y45531D01*
X121449D01*
Y47500D01*
D02*
G37*
G36*
X122980Y44059D02*
X121760D01*
Y41658D01*
X122980D01*
Y44059D01*
D02*
G37*
G36*
X120760D02*
X119539D01*
Y41658D01*
X120760D01*
Y44059D01*
D02*
G37*
G36*
X534720Y58500D02*
X531756D01*
Y55536D01*
X532170Y55590D01*
X533021Y55943D01*
X533752Y56504D01*
X534313Y57235D01*
X534666Y58086D01*
X534720Y58500D01*
D02*
G37*
G36*
X524720D02*
X521756D01*
Y55536D01*
X522170Y55590D01*
X523021Y55943D01*
X523752Y56504D01*
X524313Y57235D01*
X524666Y58086D01*
X524720Y58500D01*
D02*
G37*
G36*
X530756D02*
X527792D01*
X527846Y58086D01*
X528199Y57235D01*
X528760Y56504D01*
X529491Y55943D01*
X530342Y55590D01*
X530756Y55536D01*
Y58500D01*
D02*
G37*
G36*
X520756D02*
X517792D01*
X517846Y58086D01*
X518199Y57235D01*
X518760Y56504D01*
X519491Y55943D01*
X520342Y55590D01*
X520756Y55536D01*
Y58500D01*
D02*
G37*
G36*
X505000Y54090D02*
Y51709D01*
X508583D01*
Y54090D01*
X505000D01*
D02*
G37*
G36*
X531756Y52464D02*
Y49500D01*
X534720D01*
X534666Y49914D01*
X534313Y50765D01*
X533752Y51496D01*
X533021Y52057D01*
X532170Y52410D01*
X531756Y52464D01*
D02*
G37*
G36*
X521756D02*
Y49500D01*
X524720D01*
X524666Y49914D01*
X524313Y50765D01*
X523752Y51496D01*
X523021Y52057D01*
X522170Y52410D01*
X521756Y52464D01*
D02*
G37*
G36*
X530756D02*
X530342Y52410D01*
X529491Y52057D01*
X528760Y51496D01*
X528199Y50765D01*
X527846Y49914D01*
X527792Y49500D01*
X530756D01*
Y52464D01*
D02*
G37*
G36*
X520756D02*
X520342Y52410D01*
X519491Y52057D01*
X518760Y51496D01*
X518199Y50765D01*
X517846Y49914D01*
X517792Y49500D01*
X520756D01*
Y52464D01*
D02*
G37*
G36*
X508583Y50709D02*
X505000D01*
Y48327D01*
X508583D01*
Y50709D01*
D02*
G37*
G36*
X514968Y48929D02*
X513000D01*
Y47551D01*
X514968D01*
Y48929D01*
D02*
G37*
G36*
X512000D02*
X510032D01*
Y47551D01*
X512000D01*
Y48929D01*
D02*
G37*
G36*
X515469Y43327D02*
X513000D01*
Y41449D01*
X515469D01*
Y43327D01*
D02*
G37*
G36*
X521756Y42969D02*
Y39500D01*
X525225D01*
X525153Y40044D01*
X524750Y41017D01*
X524109Y41853D01*
X523273Y42494D01*
X522300Y42897D01*
X521756Y42969D01*
D02*
G37*
G36*
X530756Y42969D02*
X530212Y42897D01*
X529239Y42494D01*
X528403Y41853D01*
X527762Y41017D01*
X527359Y40044D01*
X527287Y39500D01*
X530756D01*
Y42969D01*
D02*
G37*
G36*
X520756D02*
X520212Y42897D01*
X519239Y42494D01*
X518403Y41853D01*
X517762Y41017D01*
X517359Y40044D01*
X517287Y39500D01*
X520756D01*
Y42969D01*
D02*
G37*
G36*
X515469Y40449D02*
X513000D01*
Y38571D01*
X515469D01*
Y40449D01*
D02*
G37*
G36*
X512000Y43327D02*
X509531D01*
Y43297D01*
X509083Y43173D01*
X509031Y43173D01*
X505000D01*
Y39791D01*
Y36409D01*
X509083D01*
Y38447D01*
X509531Y38571D01*
X509583Y38571D01*
X512000D01*
Y40949D01*
Y43327D01*
D02*
G37*
G36*
X92968Y99382D02*
X90500D01*
Y97504D01*
X92968D01*
Y99382D01*
D02*
G37*
G36*
X134091Y60583D02*
X131209D01*
Y56500D01*
X134091D01*
Y60583D01*
D02*
G37*
G36*
X130209D02*
X127327D01*
Y56500D01*
X130209D01*
Y60583D01*
D02*
G37*
G36*
X134091Y55500D02*
X130709D01*
X127327D01*
Y51468D01*
X127327Y51417D01*
X127203Y50968D01*
X125673D01*
Y48500D01*
X128051D01*
X130429D01*
Y50917D01*
X130429Y50968D01*
X130553Y51417D01*
X134091D01*
Y55500D01*
D02*
G37*
G36*
X130429Y47500D02*
X128051D01*
X125673D01*
Y45031D01*
X126453D01*
X126520Y44559D01*
X126520Y44532D01*
Y41658D01*
X128740D01*
X130961D01*
Y44559D01*
X130496D01*
X130429Y45031D01*
X130429Y45059D01*
Y47500D01*
D02*
G37*
G36*
X130961Y40657D02*
X129240D01*
Y37756D01*
X130961D01*
Y40657D01*
D02*
G37*
G36*
X128240D02*
X126520D01*
Y37756D01*
X128240D01*
Y40657D01*
D02*
G37*
G36*
X127181Y34244D02*
X125500D01*
Y30843D01*
X124500D01*
Y34244D01*
X122819D01*
Y33828D01*
X122673Y33768D01*
X122601Y33594D01*
X119729D01*
X119729Y33594D01*
Y33594D01*
X119229Y33427D01*
X119224Y33429D01*
X119148D01*
X119079Y33458D01*
X119009Y33429D01*
X118934D01*
X118880Y33375D01*
X118811Y33347D01*
X116843Y31379D01*
X116301D01*
X116248Y31357D01*
X116191Y31363D01*
X116119Y31304D01*
X116033Y31268D01*
X116011Y31215D01*
X115967Y31178D01*
X115749Y30769D01*
X115739Y30676D01*
X115704Y30591D01*
X115704Y30500D01*
X115242Y30441D01*
X108758D01*
X108296Y30500D01*
X108296Y30591D01*
X108261Y30676D01*
X108252Y30769D01*
X108033Y31178D01*
X107989Y31215D01*
X107967Y31268D01*
X107881Y31304D01*
X107809Y31363D01*
X107752Y31357D01*
X107699Y31379D01*
X100000D01*
X99732Y31268D01*
X99621Y31000D01*
Y24042D01*
X99621Y24023D01*
X99621Y24023D01*
X99651Y23949D01*
X99653Y23870D01*
X99654Y23870D01*
X99705Y23821D01*
X99728Y23765D01*
X99728Y23765D01*
X99732Y23755D01*
X99805Y23724D01*
X99862Y23670D01*
X99862D01*
X99894Y23658D01*
X99894Y23657D01*
X99931Y23658D01*
X99961Y23638D01*
X99962Y23638D01*
X99996Y23645D01*
X100000Y23644D01*
X100011Y23649D01*
X100072Y23661D01*
X100183Y23664D01*
X100184Y23663D01*
X100209Y23690D01*
X100245Y23698D01*
X100705Y24012D01*
X104628D01*
X105090Y24000D01*
X105090Y23862D01*
X105142Y23735D01*
X105190Y23606D01*
X105522Y23244D01*
X105530Y23240D01*
X105533Y23232D01*
X105660Y23179D01*
X105785Y23122D01*
X105793Y23124D01*
X105801Y23121D01*
X117532D01*
X117799Y23232D01*
X117837Y23323D01*
X122163D01*
X122201Y23232D01*
X122468Y23121D01*
X126000D01*
X126268Y23232D01*
X130209Y27173D01*
X130238Y27243D01*
X130291Y27296D01*
Y27371D01*
X130320Y27441D01*
X130291Y27511D01*
Y27586D01*
X130286Y27597D01*
X130271Y28091D01*
X130271Y28091D01*
X130271Y28091D01*
Y33594D01*
X127399D01*
X127327Y33768D01*
X127181Y33828D01*
Y34244D01*
D02*
G37*
G36*
X122968Y21327D02*
X120500D01*
Y19449D01*
X122968D01*
Y21327D01*
D02*
G37*
G36*
X111500Y19673D02*
X107417D01*
Y16791D01*
X111500D01*
Y19673D01*
D02*
G37*
G36*
X122968Y18449D02*
X120500D01*
Y16571D01*
X122968D01*
Y18449D01*
D02*
G37*
G36*
X119500Y21327D02*
X117032D01*
Y19797D01*
X116583Y19673D01*
X116532Y19673D01*
X112500D01*
Y16291D01*
Y12910D01*
X116583D01*
Y16447D01*
X117032Y16571D01*
X117083Y16571D01*
X119500D01*
Y18949D01*
Y21327D01*
D02*
G37*
G36*
X111500Y15791D02*
X107417D01*
Y12910D01*
X111500D01*
Y15791D01*
D02*
G37*
G36*
X105318Y19988D02*
X100681D01*
Y14678D01*
X100166Y14334D01*
X99757Y13722D01*
X99614Y13000D01*
X99757Y12278D01*
X100166Y11666D01*
X100778Y11257D01*
X101500Y11114D01*
X104000D01*
X104722Y11257D01*
X105334Y11666D01*
X105743Y12278D01*
X105886Y13000D01*
X105743Y13722D01*
X105334Y14334D01*
X105318Y14344D01*
Y19988D01*
D02*
G37*
%LPD*%
G36*
X127059Y31343D02*
X128740D01*
Y30843D01*
X129240D01*
Y27941D01*
X129734D01*
X129941Y27441D01*
X126000Y23500D01*
X122468D01*
Y24551D01*
X117532D01*
Y23500D01*
X105801D01*
X105468Y23862D01*
X105468Y24000D01*
Y26618D01*
X103000D01*
X100531D01*
Y24352D01*
X100031Y24010D01*
X100000Y24023D01*
Y31000D01*
X107699D01*
X107917Y30591D01*
X107917Y30500D01*
Y28209D01*
X112000D01*
X116083D01*
Y30500D01*
X116083Y30591D01*
X116301Y31000D01*
X117000D01*
X119079Y33079D01*
X119579Y32872D01*
Y31343D01*
X121260D01*
X122941D01*
Y33500D01*
X123469D01*
Y28091D01*
X126531D01*
Y33500D01*
X127059D01*
Y31343D01*
D02*
G37*
%LPC*%
G36*
X128240Y30343D02*
X127059D01*
Y27941D01*
X128240D01*
Y30343D01*
D02*
G37*
G36*
X122941D02*
X121760D01*
Y27941D01*
X122941D01*
Y30343D01*
D02*
G37*
G36*
X120760D02*
X119579D01*
Y27941D01*
X120760D01*
Y30343D01*
D02*
G37*
G36*
X105468Y30374D02*
X103500D01*
Y27618D01*
X105468D01*
Y30374D01*
D02*
G37*
G36*
X102500D02*
X100531D01*
Y27618D01*
X102500D01*
Y30374D01*
D02*
G37*
G36*
X122468Y26929D02*
X120500D01*
Y25551D01*
X122468D01*
Y26929D01*
D02*
G37*
G36*
X119500D02*
X117532D01*
Y25551D01*
X119500D01*
Y26929D01*
D02*
G37*
G36*
X116083Y27209D02*
X112500D01*
Y24827D01*
X116083D01*
Y27209D01*
D02*
G37*
G36*
X111500D02*
X107917D01*
Y24827D01*
X111500D01*
Y27209D01*
D02*
G37*
G36*
X80717Y67201D02*
X77409D01*
Y63421D01*
X80717D01*
Y67201D01*
D02*
G37*
G36*
X86661Y65839D02*
X85776D01*
Y62984D01*
X86661D01*
Y65839D01*
D02*
G37*
G36*
X86827Y61468D02*
X85449D01*
Y59500D01*
X86827D01*
Y61468D01*
D02*
G37*
G36*
X84449D02*
X83071D01*
Y59500D01*
X84449D01*
Y61468D01*
D02*
G37*
G36*
X86827Y58500D02*
X85449D01*
Y56532D01*
X86827D01*
Y58500D01*
D02*
G37*
G36*
X84449D02*
X83071D01*
Y56532D01*
X84449D01*
Y58500D01*
D02*
G37*
G36*
X79563Y48587D02*
X74248D01*
Y41500D01*
X79563D01*
Y48587D01*
D02*
G37*
G36*
X331347Y44900D02*
X329468D01*
Y42432D01*
X331347D01*
Y44900D01*
D02*
G37*
G36*
X326583Y41483D02*
Y37400D01*
X329465D01*
Y41483D01*
X326583D01*
D02*
G37*
G36*
X57500Y68449D02*
X55532D01*
Y67071D01*
X57500D01*
Y68449D01*
D02*
G37*
G36*
X54083Y69173D02*
X50500D01*
Y66791D01*
X54083D01*
Y69173D01*
D02*
G37*
G36*
X44083D02*
X40500D01*
Y66791D01*
X44083D01*
Y69173D01*
D02*
G37*
G36*
X49500D02*
X45917D01*
Y66791D01*
X49500D01*
Y69173D01*
D02*
G37*
G36*
X39500D02*
X35917D01*
Y66791D01*
X39500D01*
Y69173D01*
D02*
G37*
G36*
X11500Y65917D02*
Y64000D01*
X13417D01*
X13325Y64463D01*
X12780Y65280D01*
X11963Y65825D01*
X11500Y65917D01*
D02*
G37*
G36*
X10500D02*
X10037Y65825D01*
X9220Y65280D01*
X8675Y64463D01*
X8583Y64000D01*
X10500D01*
Y65917D01*
D02*
G37*
G36*
X54083Y65791D02*
X50500D01*
Y63410D01*
X54083D01*
Y65791D01*
D02*
G37*
G36*
X49500D02*
X45917D01*
Y63410D01*
X49500D01*
Y65791D01*
D02*
G37*
G36*
X44083D02*
X40500D01*
Y63410D01*
X44083D01*
Y65791D01*
D02*
G37*
G36*
X39500D02*
X35917D01*
Y63410D01*
X39500D01*
Y65791D01*
D02*
G37*
G36*
X13417Y63000D02*
X11500D01*
Y61083D01*
X11963Y61175D01*
X12780Y61720D01*
X13325Y62537D01*
X13417Y63000D01*
D02*
G37*
G36*
X10500D02*
X8583D01*
X8675Y62537D01*
X9220Y61720D01*
X10037Y61175D01*
X10500Y61083D01*
Y63000D01*
D02*
G37*
G36*
X48067Y48587D02*
X42752D01*
Y41500D01*
X48067D01*
Y48587D01*
D02*
G37*
G36*
X41752D02*
X36437D01*
Y41500D01*
X41752D01*
Y48587D01*
D02*
G37*
G36*
X22450Y40867D02*
X19300D01*
Y34961D01*
X22450D01*
Y40867D01*
D02*
G37*
G36*
X18300D02*
X15150D01*
Y34961D01*
X18300D01*
Y40867D01*
D02*
G37*
G36*
X48067Y40500D02*
X42752D01*
Y33413D01*
X48067D01*
Y40500D01*
D02*
G37*
G36*
X41752D02*
X36437D01*
Y33413D01*
X41752D01*
Y40500D01*
D02*
G37*
G36*
X22450Y33961D02*
X19300D01*
Y28056D01*
X22450D01*
Y33961D01*
D02*
G37*
G36*
X18300D02*
X15150D01*
Y28056D01*
X18300D01*
Y33961D01*
D02*
G37*
G36*
X21300Y26261D02*
X20703Y26142D01*
X20196Y25804D01*
X19904D01*
X19397Y26142D01*
X18800Y26261D01*
X18203Y26142D01*
X17696Y25804D01*
X17404D01*
X16897Y26142D01*
X16300Y26261D01*
X15703Y26142D01*
X15196Y25804D01*
X14858Y25297D01*
X14739Y24700D01*
X14858Y24103D01*
X15063Y23796D01*
X15300Y23394D01*
Y10883D01*
X22300D01*
Y23394D01*
X22537Y23796D01*
X22742Y24103D01*
X22861Y24700D01*
X22742Y25297D01*
X22404Y25804D01*
X21897Y26142D01*
X21300Y26261D01*
D02*
G37*
G36*
X51449Y18469D02*
X50071D01*
Y16500D01*
X51449D01*
Y18469D01*
D02*
G37*
G36*
Y15500D02*
X50071D01*
Y13532D01*
X51449D01*
Y15500D01*
D02*
G37*
%LPD*%
D11*
X128600Y190705D02*
G03*
X128650Y190655I50J0D01*
G01*
X129550D02*
G03*
X129600Y190705I0J50D01*
G01*
X136274Y206248D02*
G03*
X136345Y206248I35J35D01*
G01*
X136981Y206884D02*
G03*
X136981Y206955I-35J35D01*
G01*
X133658Y210349D02*
G03*
X133658Y210278I35J-35D01*
G01*
X134365Y210985D02*
G03*
X134294Y210985I-35J-35D01*
G01*
X137688Y207662D02*
G03*
X137759Y207662I35J35D01*
G01*
X138395Y208298D02*
G03*
X138395Y208369I-35J35D01*
G01*
X135072Y211763D02*
G03*
X135072Y211692I35J-35D01*
G01*
X135779Y212399D02*
G03*
X135709Y212399I-35J-35D01*
G01*
X139102Y209076D02*
G03*
X139173Y209076I35J35D01*
G01*
X139809Y209713D02*
G03*
X139809Y209784I-35J35D01*
G01*
X85130Y207240D02*
X132140D01*
X133300Y208400D01*
X130100Y191000D02*
X148303D01*
X85071Y192200D02*
X148800D01*
X147689Y174189D02*
X149000Y175500D01*
Y190303D01*
X148303Y191000D02*
X149000Y190303D01*
X85271Y191000D02*
X128000D01*
X128600D01*
Y190705D02*
Y191000D01*
X128650Y190655D02*
X129550D01*
X129600Y190705D02*
Y191000D01*
X130100D01*
X81771Y187500D02*
X85271Y191000D01*
X137600Y212700D02*
X139400Y214500D01*
X133300Y208400D02*
X133711Y208811D01*
X136274Y206248D01*
X136345D02*
X136981Y206884D01*
X134418Y209518D02*
X136981Y206955D01*
X133658Y210278D02*
X134418Y209518D01*
X133658Y210349D02*
X134294Y210985D01*
X134365D02*
X135125Y210225D01*
X137688Y207662D01*
X137759D02*
X138395Y208298D01*
X135832Y210932D02*
X138395Y208369D01*
X135072Y211692D02*
X135832Y210932D01*
X135072Y211763D02*
X135709Y212399D01*
X135779D02*
X136539Y211639D01*
X139102Y209076D01*
X139173D02*
X139809Y209713D01*
X137247Y212347D02*
X139809Y209784D01*
X137247Y212347D02*
X137600Y212700D01*
X81771Y203881D02*
X85130Y207240D01*
X142103Y220472D02*
X143351Y221721D01*
X142103Y218931D02*
Y220472D01*
X140972Y217800D02*
X142103Y218931D01*
X139431Y217800D02*
X140972D01*
X130431Y208800D02*
X139431Y217800D01*
X140172Y219731D02*
Y221272D01*
X142589Y223689D01*
X145299Y104220D02*
X147721D01*
X150500Y107000D01*
X147992Y106189D02*
X149300Y107497D01*
X145299Y106189D02*
X147992D01*
X81771Y212000D02*
X84971Y208800D01*
X130431D01*
X143351Y221721D02*
X145299D01*
X142589Y223689D02*
X145299D01*
X150500Y223817D02*
Y241000D01*
X148404Y221721D02*
X150500Y223817D01*
X81771Y195500D02*
X85071Y192200D01*
X148800D02*
X150200Y190800D01*
X149300Y224497D02*
Y241497D01*
X149652Y121349D02*
X163003Y134700D01*
X149652Y121349D02*
Y121349D01*
X149300Y120997D02*
X149652Y121349D01*
X149300Y107497D02*
Y120997D01*
X150500Y120500D02*
X163500Y133500D01*
X150500Y107000D02*
Y120500D01*
X206049Y327971D02*
X206299Y328221D01*
X200522Y327971D02*
X206049D01*
X194000Y321449D02*
X200522Y327971D01*
X206997Y285200D02*
X212349Y279849D01*
X189700Y285200D02*
X206997D01*
X189527Y323900D02*
X191978Y321449D01*
X194000D01*
X176000Y323900D02*
X189527D01*
X163100Y311000D02*
X176000Y323900D01*
X151500Y311000D02*
X163100D01*
X149500Y309000D02*
X151500Y311000D01*
X149500Y292817D02*
Y309000D01*
X212349Y279849D02*
Y279849D01*
X212700Y265658D02*
Y279497D01*
X212349Y279849D02*
X212700Y279497D01*
X209782Y262740D02*
X212700Y265658D01*
X207799Y262740D02*
X209782D01*
X207549Y262490D02*
X207799Y262740D01*
X196990Y262490D02*
X207549D01*
X186800Y252300D02*
X196990Y262490D01*
X176000Y271500D02*
X189700Y285200D01*
X161800Y252300D02*
X186800D01*
X150500Y241000D02*
X161800Y252300D01*
X144299Y290721D02*
X147404D01*
X149500Y292817D01*
X144049Y290471D02*
X144299Y290721D01*
X140471Y290471D02*
X144049D01*
X149000Y271500D02*
X176000D01*
X137000Y283500D02*
X149000Y271500D01*
X137000Y287000D02*
X140471Y290471D01*
X137000Y283500D02*
Y287000D01*
X145299Y221721D02*
X148404D01*
X198659Y330189D02*
X206299D01*
X196022Y327551D02*
X198659Y330189D01*
X194000Y327551D02*
X196022D01*
X206500Y284000D02*
X211500Y279000D01*
X191978Y327551D02*
X194000D01*
X190197Y284000D02*
X206500D01*
X175503Y325100D02*
X189527D01*
X191978Y327551D01*
X162603Y312200D02*
X175503Y325100D01*
X148300Y309497D02*
X151003Y312200D01*
X176848Y270652D02*
X176848D01*
X190197Y284000D01*
X151003Y312200D02*
X162603D01*
X148300Y293585D02*
Y309497D01*
X211500Y266426D02*
Y279000D01*
X210032Y264959D02*
X211500Y266426D01*
X208049Y264959D02*
X210032D01*
X207799Y264709D02*
X208049Y264959D01*
X207549Y264459D02*
X207799Y264709D01*
X197262Y264459D02*
X207549D01*
X186303Y253500D02*
X197262Y264459D01*
X176497Y270300D02*
X176848Y270652D01*
X161303Y253500D02*
X186303D01*
X148503Y270300D02*
X176497D01*
X149652Y241848D02*
X161303Y253500D01*
X149652Y241848D02*
Y241848D01*
X149300Y241497D02*
X149652Y241848D01*
X148492Y223689D02*
X149300Y224497D01*
X144299Y292689D02*
X147404D01*
X148300Y293585D01*
X144049Y292439D02*
X144299Y292689D01*
X148152Y270652D02*
X148152D01*
X148503Y270300D01*
X140742Y292439D02*
X144049D01*
X136152Y282651D02*
X148152Y270652D01*
X136152Y287848D02*
X140742Y292439D01*
X136152Y287848D02*
Y287848D01*
X135800Y287497D02*
X136152Y287848D01*
X135800Y283003D02*
Y287497D01*
Y283003D02*
X136152Y282651D01*
Y282651D02*
Y282651D01*
X145299Y223689D02*
X148492D01*
X210697Y162500D02*
X214700Y158497D01*
Y143517D02*
Y158497D01*
X210197Y163000D02*
X210697Y162500D01*
X210697D01*
X209799Y141720D02*
X212903D01*
X214700Y143517D01*
X198352Y89851D02*
X212846D01*
X198400Y163000D02*
X210197D01*
X198251Y162852D02*
X198400Y163000D01*
X198251Y162852D02*
X198251D01*
X191900Y156500D02*
X198251Y162852D01*
X206311Y142105D02*
X206695Y141720D01*
X209799D01*
X202500Y142105D02*
X206311D01*
X193895Y133500D02*
X202500Y142105D01*
X213197Y89500D02*
X214700Y87997D01*
Y70674D02*
Y87997D01*
X212846Y89851D02*
X213197Y89500D01*
X213197D01*
X210049Y68006D02*
X212032D01*
X214700Y70674D01*
X209799Y67756D02*
X210049Y68006D01*
X198000Y89500D02*
X198352Y89851D01*
X209549Y67506D02*
X209799Y67756D01*
X198000Y89500D02*
X198000D01*
X196200Y87700D02*
X198000Y89500D01*
X204057Y67506D02*
X209549D01*
X197500Y60949D02*
X204057Y67506D01*
X150200Y175003D02*
Y190800D01*
X147417Y172221D02*
X150200Y175003D01*
X145299Y172221D02*
X147417D01*
X141220D02*
X145299D01*
X140000Y171000D02*
X141220Y172221D01*
X163500Y133500D02*
X193895D01*
X140000Y164500D02*
X148000Y156500D01*
X191900D01*
X143300Y87700D02*
X196200D01*
X140000Y164500D02*
Y171000D01*
X139720Y104220D02*
X145299D01*
X137500Y93500D02*
Y102000D01*
Y93500D02*
X143300Y87700D01*
X137500Y102000D02*
X139720Y104220D01*
X209700Y161800D02*
X213500Y158000D01*
Y144285D02*
Y158000D01*
X198897Y161800D02*
X209700D01*
X209799Y143689D02*
X212903D01*
X213500Y144285D01*
X206695Y143689D02*
X209799D01*
X206311Y143305D02*
X206695Y143689D01*
X192397Y155300D02*
X198897Y161800D01*
X202003Y143305D02*
X206311D01*
X193398Y134700D02*
X202003Y143305D01*
X163003Y134700D02*
X193398D01*
X212349Y88652D02*
X213500Y87500D01*
Y71442D02*
Y87500D01*
X198848Y88652D02*
X212349D01*
X212032Y69974D02*
X213500Y71442D01*
X210049Y69974D02*
X212032D01*
X209799Y69724D02*
X210049Y69974D01*
X202195Y69724D02*
X209799D01*
X197500Y67051D02*
X199522D01*
X202195Y69724D01*
X196697Y86500D02*
X198848Y88652D01*
X145299Y174189D02*
X147689D01*
X141492D02*
X145299D01*
X139152Y171848D02*
X141492Y174189D01*
X147503Y155300D02*
X192397D01*
X139152Y171848D02*
Y171848D01*
X138800Y171497D02*
X139152Y171848D01*
X138800Y164003D02*
Y171497D01*
Y164003D02*
X147503Y155300D01*
X142803Y86500D02*
X196697D01*
X139992Y106189D02*
X145299D01*
X141651Y87651D02*
X142803Y86500D01*
X136652Y102848D02*
X139992Y106189D01*
X136652Y102848D02*
Y102848D01*
X136300Y102497D02*
X136652Y102848D01*
X136300Y93003D02*
Y102497D01*
X136652Y92651D02*
X141651Y87651D01*
X141651D01*
X136300Y93003D02*
X136652Y92651D01*
Y92651D02*
Y92651D01*
D16*
X209799Y79567D02*
G03*
X208754Y80000I-1046J-1046D01*
G01*
X205500D02*
G03*
X202590Y78795I0J-4115D01*
G01*
X206958Y75630D02*
G03*
X206542Y75458I0J-588D01*
G01*
X205437Y75000D02*
G03*
X206542Y75458I0J1563D01*
G01*
X203643Y75562D02*
G03*
X205000Y75000I1357J1358D01*
G01*
X192400Y266711D02*
G03*
X192300Y266811I-100J0D01*
G01*
X192400Y264028D02*
G03*
X192500Y263928I100J0D01*
G01*
X194300D02*
G03*
X194400Y264028I0J100D01*
G01*
X194500Y266811D02*
G03*
X194400Y266711I0J-100D01*
G01*
X65249Y268511D02*
G03*
X58178Y265582I0J-10000D01*
G01*
X66658Y266811D02*
G03*
X58385Y263385I0J-11700D01*
G01*
X129400Y178092D02*
G03*
X129500Y177992I100J0D01*
G01*
X129400Y180340D02*
G03*
X129300Y180440I-100J0D01*
G01*
X127500D02*
G03*
X127400Y180340I0J-100D01*
G01*
X127300Y177992D02*
G03*
X127400Y178092I0J100D01*
G01*
X51276Y182128D02*
G03*
X54000Y181000I2724J2724D01*
G01*
X141811Y176292D02*
G03*
X142135Y176157I324J324D01*
G01*
X8564Y224840D02*
G03*
X-186Y228465I-8749J-8749D01*
G01*
X196100Y147626D02*
G03*
X196000Y147526I0J-100D01*
G01*
X195900Y147126D02*
G03*
X196000Y147226I0J100D01*
G01*
X194000D02*
G03*
X194100Y147126I100J0D01*
G01*
X194000Y149891D02*
G03*
X193900Y149991I-100J0D01*
G01*
X192100D02*
G03*
X192000Y149891I0J-100D01*
G01*
X191900Y147626D02*
G03*
X192000Y147726I0J100D01*
G01*
X124000Y110126D02*
G03*
X124100Y110226I0J100D01*
G01*
X124200Y112149D02*
G03*
X124100Y112049I0J-100D01*
G01*
X126100D02*
G03*
X126000Y112149I-100J0D01*
G01*
X126100Y109726D02*
G03*
X126200Y109626I100J0D01*
G01*
X128000D02*
G03*
X128100Y109726I0J100D01*
G01*
X128200Y110126D02*
G03*
X128100Y110026I0J-100D01*
G01*
X187700Y73400D02*
G03*
X187600Y73500I-100J0D01*
G01*
X187700Y70893D02*
G03*
X187800Y70793I100J0D01*
G01*
X189600D02*
G03*
X189700Y70893I0J100D01*
G01*
X189800Y73500D02*
G03*
X189700Y73400I0J-100D01*
G01*
X138054Y76200D02*
G03*
X144579Y73500I6525J6532D01*
G01*
X140061Y76761D02*
G03*
X143109Y75500I3048J3053D01*
G01*
X22045Y194764D02*
G03*
X10700Y200073I-12997J-12997D01*
G01*
X107629Y114775D02*
G03*
X109500Y114000I1871J1871D01*
G01*
X16829Y205575D02*
G03*
X8785Y209414I-8487J-7437D01*
G01*
X107000Y113000D02*
G03*
X113938Y110126I6938J6938D01*
G01*
X15259Y204741D02*
G03*
X8162Y207845I-7515J-7515D01*
G01*
X76422Y151482D02*
G03*
X80000Y150000I3578J3578D01*
G01*
X12288Y215616D02*
G03*
X4143Y218990I-8145J-8145D01*
G01*
X74945Y150555D02*
G03*
X82016Y147626I7071J7071D01*
G01*
X11310Y214190D02*
G03*
X3754Y217320I-7557J-7557D01*
G01*
X206238Y77598D02*
G03*
X206000Y77500I0J-336D01*
G01*
X128300Y225792D02*
G03*
X128200Y225692I0J-100D01*
G01*
X128100Y224643D02*
G03*
X128200Y224743I0J100D01*
G01*
X126200D02*
G03*
X126300Y224643I100J0D01*
G01*
X126200Y225692D02*
G03*
X126100Y225792I-100J0D01*
G01*
X124300D02*
G03*
X124200Y225692I0J-100D01*
G01*
X124100Y224643D02*
G03*
X124200Y224743I0J100D01*
G01*
X122200D02*
G03*
X122300Y224643I100J0D01*
G01*
X122200Y225692D02*
G03*
X122100Y225792I-100J0D01*
G01*
X165600Y332292D02*
G03*
X155791Y328229I0J-13871D01*
G01*
X12000Y242800D02*
G03*
X20194Y246194I0J11588D01*
G01*
X11903Y242800D02*
G03*
X10500Y242219I0J-1984D01*
G01*
X391300Y233900D02*
G03*
X391200Y234000I-100J0D01*
G01*
X391300Y224909D02*
G03*
X391400Y224809I100J0D01*
G01*
X393200D02*
G03*
X393300Y224909I0J100D01*
G01*
X393400Y234000D02*
G03*
X393300Y233900I0J-100D01*
G01*
X391141Y213651D02*
G03*
X390999Y213651I-71J-71D01*
G01*
X385524Y208317D02*
G03*
X385666Y208317I71J71D01*
G01*
X384251Y209732D02*
G03*
X384251Y209590I71J-71D01*
G01*
X390965Y216445D02*
G03*
X390965Y216586I-71J71D01*
G01*
X389692Y217859D02*
G03*
X389550Y217859I-71J-71D01*
G01*
X388171Y216621D02*
G03*
X388312Y216621I71J71D01*
G01*
X392349Y172208D02*
G03*
X392208Y172208I-71J-71D01*
G01*
X394796Y169761D02*
G03*
X394938Y169761I71J71D01*
G01*
X396211Y171034D02*
G03*
X396211Y171175I-71J71D01*
G01*
X393764Y173764D02*
G03*
X393764Y173622I71J-71D01*
G01*
X391700Y151322D02*
G03*
X391600Y151422I-100J0D01*
G01*
X391700Y148316D02*
G03*
X391800Y148216I100J0D01*
G01*
X393600D02*
G03*
X393700Y148316I0J100D01*
G01*
X393800Y151422D02*
G03*
X393700Y151322I0J-100D01*
G01*
X392400Y126098D02*
G03*
X392300Y126198I-100J0D01*
G01*
X392400Y120656D02*
G03*
X392500Y120555I100J0D01*
G01*
X394300D02*
G03*
X394400Y120656I0J100D01*
G01*
X394500Y126198D02*
G03*
X394400Y126098I0J-100D01*
G01*
X392700Y100404D02*
G03*
X392600Y100504I-100J0D01*
G01*
X392700Y95147D02*
G03*
X392800Y95047I100J0D01*
G01*
X394600D02*
G03*
X394700Y95147I0J100D01*
G01*
X394800Y100504D02*
G03*
X394700Y100404I0J-100D01*
G01*
X518100Y184628D02*
G03*
X518200Y184528I100J0D01*
G01*
X518100Y185200D02*
G03*
X518000Y185300I-100J0D01*
G01*
X516200D02*
G03*
X516100Y185200I0J-100D01*
G01*
X516000Y184528D02*
G03*
X516100Y184628I0J100D01*
G01*
X503500Y159025D02*
G03*
X503600Y159125I0J100D01*
G01*
X503700Y162500D02*
G03*
X503600Y162400I0J-100D01*
G01*
X505600D02*
G03*
X505500Y162500I-100J0D01*
G01*
X505600Y156700D02*
G03*
X505700Y156600I100J0D01*
G01*
X507500D02*
G03*
X507600Y156700I0J100D01*
G01*
X507700Y159025D02*
G03*
X507600Y158925I0J-100D01*
G01*
X517349Y155508D02*
G03*
X517208Y155508I-71J-71D01*
G01*
X519554Y153303D02*
G03*
X519696Y153303I71J71D01*
G01*
X520969Y154576D02*
G03*
X520969Y154717I-71J71D01*
G01*
X518764Y157064D02*
G03*
X518764Y156922I71J-71D01*
G01*
X521350Y215928D02*
G03*
X521250Y215828I0J-100D01*
G01*
X521150Y212800D02*
G03*
X521250Y212900I0J100D01*
G01*
X519250D02*
G03*
X519350Y212800I100J0D01*
G01*
X519250Y218100D02*
G03*
X519150Y218200I-100J0D01*
G01*
X517350D02*
G03*
X517250Y218100I0J-100D01*
G01*
X517150Y215928D02*
G03*
X517250Y216028I0J100D01*
G01*
X524798Y143840D02*
G03*
X524940Y143840I71J71D01*
G01*
X522993Y145645D02*
G03*
X522852Y145645I-71J-71D01*
G01*
X521579Y144372D02*
G03*
X521579Y144231I71J-71D01*
G01*
X523384Y142284D02*
G03*
X523384Y142426I-71J71D01*
G01*
X521970Y141011D02*
G03*
X522111Y141011I71J71D01*
G01*
X520165Y142816D02*
G03*
X520024Y142816I-71J-71D01*
G01*
X518751Y141544D02*
G03*
X518751Y141402I71J-71D01*
G01*
X520556Y139456D02*
G03*
X520556Y139597I-71J71D01*
G01*
X518900Y235628D02*
G03*
X519000Y235528I100J0D01*
G01*
X518900Y237172D02*
G03*
X518800Y237272I-100J0D01*
G01*
X517000D02*
G03*
X516900Y237172I0J-100D01*
G01*
X516800Y232600D02*
G03*
X516900Y232700I0J100D01*
G01*
X514900D02*
G03*
X515000Y232600I100J0D01*
G01*
X514900Y237172D02*
G03*
X514800Y237271I-100J0D01*
G01*
X513000D02*
G03*
X512900Y237172I0J-100D01*
G01*
X512800Y235528D02*
G03*
X512900Y235628I0J100D01*
G01*
X516406Y245094D02*
G03*
X516265Y245094I-71J-71D01*
G01*
X514329Y243299D02*
G03*
X514470Y243299I71J71D01*
G01*
X513056Y244713D02*
G03*
X513056Y244572I71J-71D01*
G01*
X515597Y247254D02*
G03*
X515597Y247396I-71J71D01*
G01*
X514324Y248669D02*
G03*
X514183Y248669I-71J-71D01*
G01*
X513436Y248064D02*
G03*
X513578Y248064I71J71D01*
G01*
X525256Y245744D02*
G03*
X525115Y245744I-71J-71D01*
G01*
X523392Y244163D02*
G03*
X523534Y244163I71J71D01*
G01*
X522120Y245577D02*
G03*
X522120Y245436I71J-71D01*
G01*
X523701Y247158D02*
G03*
X523701Y247299I-71J71D01*
G01*
X162100Y333992D02*
G03*
X155700Y331341I0J-9051D01*
G01*
X12000Y244500D02*
G03*
X18992Y247396I0J9888D01*
G01*
X10500Y245081D02*
G03*
X11903Y244500I1403J1403D01*
G01*
X346898Y136000D02*
G03*
X342277Y137914I-4620J-4620D01*
G01*
X330432Y137779D02*
G03*
X330756Y137914I0J458D01*
G01*
X275300Y160558D02*
G03*
X272371Y167629I-10000J0D01*
G01*
X284298Y138798D02*
G03*
X289841Y136502I5543J5543D01*
G01*
X275300Y152642D02*
G03*
X278727Y144369I11700J0D01*
G01*
X195551Y188221D02*
G03*
X200912Y186000I5361J5361D01*
G01*
X260207Y179793D02*
G03*
X258500Y180500I-1707J-1707D01*
G01*
X298298Y136502D02*
G03*
X299500Y137000I0J1700D01*
G01*
X97964Y296492D02*
G03*
X70077Y284940I0J-39439D01*
G01*
X17912Y235659D02*
G03*
X22760Y237667I0J6857D01*
G01*
X97655Y294792D02*
G03*
X71599Y283999I0J-36848D01*
G01*
X18300Y233500D02*
G03*
X23080Y235480I0J6760D01*
G01*
X184600Y332292D02*
G03*
X184500Y332192I0J-100D01*
G01*
X182500D02*
G03*
X182400Y332292I-100J0D01*
G01*
X188600D02*
G03*
X188500Y332192I0J-100D01*
G01*
X186500D02*
G03*
X186400Y332292I-100J0D01*
G01*
X188400Y330510D02*
G03*
X188500Y330610I0J100D01*
G01*
X186500D02*
G03*
X186600Y330510I100J0D01*
G01*
X184400Y330510D02*
G03*
X184500Y330610I0J100D01*
G01*
X182500D02*
G03*
X182600Y330510I100J0D01*
G01*
X21097Y193100D02*
G03*
X9752Y198409I-12997J-12997D01*
G01*
X142135Y178126D02*
G03*
X141811Y177992I0J-458D01*
G01*
X7362Y223638D02*
G03*
X-182Y226763I-7544J-7544D01*
G01*
X50079Y180921D02*
G03*
X57150Y177992I7071J7071D01*
G01*
X179051Y231821D02*
G03*
X179151Y231720I100J0D01*
G01*
X179051Y232541D02*
G03*
X178951Y232641I-100J0D01*
G01*
X177151D02*
G03*
X177051Y232541I0J-100D01*
G01*
X176951Y231720D02*
G03*
X177051Y231821I0J100D01*
G01*
X178500Y114269D02*
G03*
X178600Y114169I100J0D01*
G01*
X178500Y115011D02*
G03*
X178400Y115111I-100J0D01*
G01*
X176600D02*
G03*
X176500Y115011I0J-100D01*
G01*
X176400Y114169D02*
G03*
X176500Y114269I0J100D01*
G01*
X176000Y182069D02*
G03*
X175900Y182169I-100J0D01*
G01*
X176000Y181327D02*
G03*
X176100Y181227I100J0D01*
G01*
X177900D02*
G03*
X178000Y181327I0J100D01*
G01*
X178100Y182169D02*
G03*
X178000Y182069I0J-100D01*
G01*
X175500Y300569D02*
G03*
X175400Y300669I-100J0D01*
G01*
X175500Y299827D02*
G03*
X175600Y299727I100J0D01*
G01*
X177400D02*
G03*
X177500Y299827I0J100D01*
G01*
X177600Y300669D02*
G03*
X177500Y300569I0J-100D01*
G01*
X283500Y301100D02*
G03*
X283600Y301000I100J0D01*
G01*
X286724Y300900D02*
G03*
X286624Y301000I-100J0D01*
G01*
Y299000D02*
G03*
X286724Y299100I0J100D01*
G01*
X283600Y299000D02*
G03*
X283500Y298900I0J-100D01*
G01*
X277065Y286278D02*
G03*
X277206Y286278I71J71D01*
G01*
X279114Y288044D02*
G03*
X278973Y288044I-71J-71D01*
G01*
X280387Y286629D02*
G03*
X280387Y286771I-71J71D01*
G01*
X278621Y284863D02*
G03*
X278621Y284722I71J-71D01*
G01*
X268954Y273600D02*
G03*
X268854Y273700I-100J0D01*
G01*
X268954Y271150D02*
G03*
X269054Y271050I100J0D01*
G01*
X270854D02*
G03*
X270954Y271150I0J100D01*
G01*
X271054Y273700D02*
G03*
X270954Y273600I0J-100D01*
G01*
X282500Y252400D02*
G03*
X282400Y252500I-100J0D01*
G01*
X282500Y250518D02*
G03*
X282600Y250418I100J0D01*
G01*
X284400D02*
G03*
X284500Y250518I0J100D01*
G01*
X284600Y252500D02*
G03*
X284500Y252400I0J-100D01*
G01*
X277000Y157742D02*
G03*
X277100Y157642I100J0D01*
G01*
X279735Y157542D02*
G03*
X279635Y157642I-100J0D01*
G01*
Y155642D02*
G03*
X279735Y155742I0J100D01*
G01*
X277100Y155642D02*
G03*
X277000Y155542I0J-100D01*
G01*
X280126Y133874D02*
G03*
X280267Y133874I71J71D01*
G01*
X282406Y135871D02*
G03*
X282264Y135871I-71J-71D01*
G01*
X283679Y134457D02*
G03*
X283679Y134598I-71J71D01*
G01*
X281682Y132460D02*
G03*
X281682Y132318I71J-71D01*
G01*
X281000Y116406D02*
G03*
X280900Y116506I-100J0D01*
G01*
X281000Y114572D02*
G03*
X281100Y114472I100J0D01*
G01*
X282900D02*
G03*
X283000Y114572I0J100D01*
G01*
X283100Y116506D02*
G03*
X283000Y116406I0J-100D01*
G01*
X287975Y101833D02*
G03*
X287833Y101833I-71J-71D01*
G01*
X290156Y99651D02*
G03*
X290298Y99651I71J71D01*
G01*
X291570Y100924D02*
G03*
X291570Y101066I-71J71D01*
G01*
X289389Y103389D02*
G03*
X289389Y103247I71J-71D01*
G01*
X295938Y108200D02*
G03*
X288867Y105271I0J-10000D01*
G01*
X260051Y77756D02*
G03*
X261254Y78254I0J1701D01*
G01*
X194551Y306720D02*
G03*
X201119Y304000I6568J6568D01*
G01*
X287369Y273570D02*
G03*
X289946Y272502I2577J2577D01*
G01*
X298798D02*
G03*
X300000Y273000I0J1700D01*
G01*
X127500Y293161D02*
G03*
X127600Y293061I100J0D01*
G01*
X129400D02*
G03*
X129500Y293161I0J100D01*
G01*
X129600Y294792D02*
G03*
X129500Y294692I0J-100D01*
G01*
X131500D02*
G03*
X131400Y294792I-100J0D01*
G01*
X131500Y293161D02*
G03*
X131600Y293061I100J0D01*
G01*
X133400D02*
G03*
X133500Y293161I0J100D01*
G01*
X133600Y294792D02*
G03*
X133500Y294692I0J-100D01*
G01*
X240500Y77605D02*
G03*
X240400Y77705I-100J0D01*
G01*
X240500Y76863D02*
G03*
X240600Y76763I100J0D01*
G01*
X242400D02*
G03*
X242500Y76863I0J100D01*
G01*
X242600Y77705D02*
G03*
X242500Y77605I0J-100D01*
G01*
X240500Y151569D02*
G03*
X240400Y151669I-100J0D01*
G01*
X240500Y150827D02*
G03*
X240600Y150727I100J0D01*
G01*
X242400D02*
G03*
X242500Y150827I0J100D01*
G01*
X242600Y151669D02*
G03*
X242500Y151569I0J-100D01*
G01*
X238500Y272589D02*
G03*
X238400Y272689I-100J0D01*
G01*
X238500Y271847D02*
G03*
X238600Y271747I100J0D01*
G01*
X240400D02*
G03*
X240500Y271847I0J100D01*
G01*
X240600Y272689D02*
G03*
X240500Y272589I0J-100D01*
G01*
X237500Y337963D02*
G03*
X237400Y338063I-100J0D01*
G01*
X237500Y337242D02*
G03*
X237600Y337142I100J0D01*
G01*
X239400D02*
G03*
X239500Y337242I0J100D01*
G01*
X239600Y338063D02*
G03*
X239500Y337963I0J-100D01*
G01*
X258051Y278740D02*
G03*
X264667Y276000I6615J6615D01*
G01*
X277664Y270432D02*
G03*
X277500Y270500I-164J-164D01*
G01*
X282798Y265298D02*
G03*
X289553Y262500I6755J6755D01*
G01*
X346340Y116558D02*
G03*
X342630Y118095I-3710J-3710D01*
G01*
X196337Y119435D02*
G03*
X203408Y116506I7071J7071D01*
G01*
X296000Y106500D02*
G03*
X290025Y104025I0J-8450D01*
G01*
X265000Y83800D02*
G03*
X273194Y87194I0J11588D01*
G01*
X260158Y83800D02*
G03*
X260051Y83756I0J-151D01*
G01*
X346315Y106582D02*
G03*
X342605Y108119I-3710J-3710D01*
G01*
X345967Y131000D02*
G03*
X343846Y130122I0J-2999D01*
G01*
X343000Y129771D02*
G03*
X343846Y130122I0J1197D01*
G01*
X330756Y129771D02*
G03*
X330432Y129905I-324J-324D01*
G01*
X267209Y148792D02*
G03*
X260137Y151720I-7071J-7071D01*
G01*
X274000Y141314D02*
G03*
X274929Y139071I3172J0D01*
G01*
X283732Y130268D02*
G03*
X288719Y128202I4987J4987D01*
G01*
X262131Y180273D02*
G03*
X253858Y183700I-8273J-8273D01*
G01*
X277000Y160558D02*
G03*
X273573Y168831I-11700J0D01*
G01*
X199123Y183700D02*
G03*
X195551Y182220I0J-5051D01*
G01*
X285500Y140000D02*
G03*
X289841Y138202I4341J4341D01*
G01*
X277000Y152642D02*
G03*
X279929Y145571I10000J0D01*
G01*
X343551Y139614D02*
G03*
X346898Y141000I0J4733D01*
G01*
X330756Y139614D02*
G03*
X330432Y139748I-324J-324D01*
G01*
X298798Y283002D02*
G03*
X300000Y283500I0J1700D01*
G01*
X265209Y341291D02*
G03*
X258137Y344220I-7071J-7071D01*
G01*
X281800Y291000D02*
G03*
X283711Y286384I6528J0D01*
G01*
X281800Y318058D02*
G03*
X278871Y325129I-10000J0D01*
G01*
X285798Y284298D02*
G03*
X288926Y283002I3128J3128D01*
G01*
X269702Y336702D02*
G03*
X263672Y339200I-6030J-6030D01*
G01*
X258916D02*
G03*
X256551Y338221I0J-3344D01*
G01*
X267854Y336146D02*
G03*
X267000Y336500I-854J-854D01*
G01*
X283500Y318058D02*
G03*
X280073Y326331I-11700J0D01*
G01*
X283500Y291000D02*
G03*
X284914Y287586I4828J0D01*
G01*
X287000Y285500D02*
G03*
X288926Y284702I1926J1926D01*
G01*
X198123Y302200D02*
G03*
X194551Y300721I0J-5051D01*
G01*
X262602Y298337D02*
G03*
X261000Y299000I-1602J-1602D01*
G01*
X264569Y298773D02*
G03*
X256296Y302200I-8273J-8273D01*
G01*
X288571Y274772D02*
G03*
X289946Y274202I1375J1375D01*
G01*
X195551Y237720D02*
G03*
X200188Y235800I4636J4636D01*
G01*
X199847Y233500D02*
G03*
X195551Y231720I0J-6076D01*
G01*
X236603Y238000D02*
G03*
X238298Y238702I0J2397D01*
G01*
X257938Y254200D02*
G03*
X250867Y251271I0J-10000D01*
G01*
X235396Y235800D02*
G03*
X239500Y237500I0J5804D01*
G01*
X259346Y252500D02*
G03*
X251073Y249073I0J-11700D01*
G01*
X260368Y273700D02*
G03*
X258051Y272740I0J-3277D01*
G01*
X280227Y270273D02*
G03*
X271954Y273700I-8273J-8273D01*
G01*
X284000Y266500D02*
G03*
X289553Y264200I5553J5553D01*
G01*
X268000Y155000D02*
G03*
X261432Y157720I-6568J-6568D01*
G01*
X270300Y149447D02*
G03*
X268000Y155000I-7853J0D01*
G01*
X270300Y146142D02*
G03*
X273727Y137869I11700J0D01*
G01*
X298798Y126502D02*
G03*
X300000Y127000I0J1700D01*
G01*
X282530Y129066D02*
G03*
X288719Y126502I6189J6189D01*
G01*
X199500Y114000D02*
G03*
X198968Y114220I-532J-532D01*
G01*
X330432Y127937D02*
G03*
X330756Y128071I0J458D01*
G01*
X346118Y126780D02*
G03*
X343000Y128071I-3118J-3118D01*
G01*
X344046Y109819D02*
G03*
X346898Y111000I0J4033D01*
G01*
X344046Y119819D02*
G03*
X346898Y121000I0J4033D01*
G01*
X205500Y80000D02*
X208754D01*
X206958Y75630D02*
X209799D01*
X205000Y75000D02*
X205437D01*
X201500Y77705D02*
X202590Y78795D01*
X201500Y77705D02*
X203643Y75562D01*
X133000Y182500D02*
X133331Y182169D01*
X20800Y21600D02*
X21300Y22100D01*
Y24700D01*
X18700Y21600D02*
X18800Y21700D01*
Y24700D01*
X16200Y21800D02*
X16300Y21900D01*
Y24700D01*
X482951Y41149D02*
Y43337D01*
Y41149D02*
X483000Y41100D01*
X480451Y41449D02*
Y43337D01*
Y41449D02*
X480600Y41300D01*
X480451Y49951D02*
X480500Y50000D01*
X485451Y41351D02*
Y43337D01*
X482800Y50300D02*
X482951Y50149D01*
X485451Y46837D02*
Y49049D01*
X482951Y46837D02*
Y50149D01*
X485400Y41300D02*
X485451Y41351D01*
X480451Y46837D02*
Y49951D01*
X485300Y49200D02*
X485451Y49049D01*
X80243Y205409D02*
X81771Y203881D01*
X73900Y205409D02*
X80243D01*
X195400Y266811D02*
X204311D01*
X66658D02*
X192200D01*
X192300D01*
X192400Y264028D02*
Y266711D01*
X192500Y263928D02*
X194300D01*
X194400Y264028D02*
Y266711D01*
X194500Y266811D02*
X195400D01*
X204445Y268646D02*
X207799D01*
X65249Y268511D02*
X204311D01*
X22096Y229500D02*
X58178Y265582D01*
X204311Y268511D02*
X204445Y268646D01*
X24181Y229181D02*
X58385Y263385D01*
X204311Y266811D02*
X204445Y266677D01*
X15951Y142100D02*
X20000D01*
X-7982Y245700D02*
X-4784D01*
X-41824Y245669D02*
X-18218D01*
X-6200Y145792D02*
X-5950D01*
X-11107Y150949D02*
X-5950Y145792D01*
X-400Y140242D02*
Y145792D01*
X19393D01*
X-5950D02*
X-400D01*
Y140242D02*
X4583Y135259D01*
X-400Y160039D02*
X4583D01*
X-6200D02*
X-400D01*
X-18449Y157000D02*
X-12500Y157021D01*
X-400Y151000D02*
Y160039D01*
Y151000D02*
X3200Y147400D01*
X19694D01*
X19393Y145792D02*
X22253Y142931D01*
X-12500Y150949D02*
X-11107D01*
X22253Y142931D02*
X43569D01*
X44800Y141700D01*
X19694Y147400D02*
X22813Y144281D01*
X47019D01*
X47500Y143800D01*
X-9217Y157021D02*
X-6200Y160039D01*
X-26116Y151000D02*
X-24551D01*
X-27500Y157000D02*
X-24551D01*
X-35800Y165300D02*
X-27500Y157000D01*
X43626Y146400D02*
X53000D01*
X131500Y177992D02*
X141811D01*
X57150D02*
X126400D01*
X129500D02*
X131500D01*
X129400Y178092D02*
Y180340D01*
X127500Y180440D02*
X129300D01*
X127400Y178092D02*
Y180340D01*
X126400Y177992D02*
X127300D01*
X54000Y181000D02*
X60000D01*
X65592Y176292D02*
X141811Y176292D01*
X142135Y176157D02*
X145299D01*
X-186Y228465D02*
X-186D01*
X-42461D02*
X-186D01*
X8564Y224840D02*
X51276Y182128D01*
X65000Y175700D02*
X65592Y176292D01*
X44600Y137800D02*
X53000D01*
X42500Y139900D02*
X44600Y137800D01*
X40087Y139900D02*
X42500D01*
X43352Y133000D02*
X53000D01*
X42152Y134200D02*
X43352Y133000D01*
X40087Y134200D02*
X42152D01*
X42752Y128900D02*
X53000D01*
X42352Y128500D02*
X42752Y128900D01*
X40087Y128500D02*
X42352D01*
X44800Y125200D02*
X53000D01*
X42400Y122800D02*
X44800Y125200D01*
X42426Y147600D02*
X43626Y146400D01*
X40087Y147600D02*
X42426D01*
X50200Y156200D02*
X53000D01*
X41700Y164700D02*
X50200Y156200D01*
X40087Y164700D02*
X41700D01*
X47800Y152900D02*
X53000D01*
X41700Y159000D02*
X47800Y152900D01*
X40087Y159000D02*
X41700D01*
X45600Y149700D02*
X53000D01*
X42000Y153300D02*
X45600Y149700D01*
X40087Y153300D02*
X42000D01*
X196900Y147626D02*
X209799D01*
X82016D02*
X191000D01*
X196100D02*
X196900D01*
X196000Y147226D02*
Y147526D01*
X194100Y147126D02*
X195900D01*
X194000Y147226D02*
Y147626D01*
Y149891D01*
X192100Y149991D02*
X193900D01*
X192000Y147726D02*
Y149891D01*
X191000Y147626D02*
X191900D01*
X129100Y110126D02*
X145299D01*
X113938D02*
X120800D01*
X124000D01*
X124100Y110226D02*
Y112049D01*
X124200Y112149D02*
X126000D01*
X126100Y110126D02*
Y112049D01*
Y109726D02*
Y110126D01*
X126200Y109626D02*
X128000D01*
X128100Y109726D02*
Y110026D01*
X128200Y110126D02*
X129100D01*
X190700Y73500D02*
X209799D01*
X144579D02*
X187000D01*
X187600D01*
X187700Y70893D02*
Y73400D01*
X187800Y70793D02*
X189600D01*
X189700Y70893D02*
Y73400D01*
X189800Y73500D02*
X190700D01*
X198027Y71827D02*
X209799D01*
X143109Y75500D02*
X191000D01*
X-42415Y200073D02*
X10700D01*
X22045Y194764D02*
X140100Y76709D01*
X197500Y71300D02*
X198027Y71827D01*
X-41824Y209414D02*
X8785D01*
X16851Y205553D02*
X107629Y114775D01*
X15259Y204741D02*
X107000Y113000D01*
X-49000Y207845D02*
X8162D01*
X-42435Y218990D02*
X4143D01*
X12288Y215616D02*
X76422Y151482D01*
X84500Y145300D02*
X84857Y145658D01*
X117500Y108158D02*
X145299D01*
X11310Y214190D02*
X74945Y150555D01*
X3754Y217320D02*
X3754D01*
X-49000D02*
X3754D01*
X89000Y145658D02*
X209799Y145658D01*
X-18372Y179528D02*
X-7000Y190900D01*
X-49000Y179528D02*
X-18372D01*
X-13322Y176378D02*
X-6900Y182800D01*
X-49000Y176378D02*
X-13322D01*
X-11943Y170078D02*
X-7060Y174960D01*
X-49000Y170078D02*
X-11943D01*
X32058Y139900D02*
X33984D01*
X32484Y132700D02*
X33984Y134200D01*
X33066Y127582D02*
X33984Y128500D01*
X15951Y133051D02*
Y142100D01*
X73900Y187500D02*
X81771D01*
X49100D02*
X73900D01*
Y193849D01*
X67100Y205409D02*
X73900D01*
Y199951D02*
Y205409D01*
X80471Y196800D02*
X81771Y195500D01*
X55651Y196800D02*
X80471D01*
X52700Y193849D02*
X55651Y196800D01*
X60700Y212000D02*
X81771D01*
X56635D02*
X60700D01*
Y205409D02*
Y212000D01*
X48751Y203900D02*
X52700Y199951D01*
X67100Y189800D02*
Y193991D01*
X60700Y189800D02*
Y193991D01*
X58000Y202600D02*
X64200D01*
X45400Y215200D02*
X58000Y202600D01*
X30353Y215200D02*
X45400D01*
X58900Y199700D02*
X60700D01*
X45319Y213281D02*
X58900Y199700D01*
X29934Y213281D02*
X45319D01*
X64200Y202600D02*
X67100Y199700D01*
X44798Y193849D02*
X52700D01*
X7300Y238253D02*
X30353Y215200D01*
X7300Y238253D02*
Y239000D01*
X3500Y239716D02*
X29934Y213281D01*
X3500Y239716D02*
Y240581D01*
X380Y236221D02*
X49100Y187500D01*
X800Y237847D02*
X44798Y193849D01*
X-42394Y237847D02*
X800D01*
X-49000Y236221D02*
X380D01*
X24181Y228597D02*
Y229181D01*
X22000Y226638D02*
X22222D01*
X22000Y229500D02*
X22096D01*
X-4784Y245700D02*
X29816Y211100D01*
X31300D01*
X-43335Y238787D02*
X-42394Y237847D01*
X7362Y223638D02*
X50079Y180921D01*
X338500Y271291D02*
X341051Y268740D01*
X293000Y269791D02*
X294209Y271000D01*
X338500Y145000D02*
X339000D01*
X338500Y135000D02*
X339000D01*
X337500Y136000D02*
X338500Y135000D01*
Y125000D02*
X339000D01*
X337500Y126000D02*
X338500Y125000D01*
X337500Y116000D02*
X338500Y115000D01*
X339000D01*
X220134Y149594D02*
X228500D01*
X220134Y75630D02*
X228500D01*
X216634Y336094D02*
X225000D01*
X154634Y298594D02*
X163000D01*
X218134Y270614D02*
X226500D01*
X177051Y219721D02*
Y222949D01*
X155634Y229594D02*
X164000D01*
X-49000Y261411D02*
X-42089D01*
X-49000Y233069D02*
X-42100D01*
X155634Y180095D02*
X164000D01*
X141500Y114000D02*
X141563Y114063D01*
X206238Y77598D02*
X209799D01*
X205500Y77500D02*
X206000D01*
X155634Y112094D02*
X164000D01*
X29600Y227700D02*
X145299Y227626D01*
X16200Y236100D02*
X16500D01*
X16941Y235659D01*
X22222Y226638D02*
X24181Y228597D01*
X16500Y233000D02*
X17000Y233500D01*
X130500Y225792D02*
X141811D01*
X31876D02*
X119200D01*
X128300D02*
X130500D01*
X128200Y224743D02*
Y225692D01*
X126300Y224643D02*
X128100D01*
X126200Y224743D02*
Y225692D01*
X124300Y225792D02*
X126100D01*
X124200Y224743D02*
Y225692D01*
X122300Y224643D02*
X124100D01*
X122200Y224743D02*
Y225692D01*
X120200Y225792D02*
X122100D01*
X119200D02*
X120200D01*
X27600Y225500D02*
X28452D01*
X28633Y225319D01*
X165600Y332292D02*
X179500D01*
X144081Y316519D02*
X155791Y328229D01*
X11903Y242800D02*
X12000D01*
X20194Y246194D02*
X56800Y282800D01*
X58000D01*
X355854Y286740D02*
X359616Y290502D01*
X353051Y286740D02*
X355854D01*
X398550Y265200D02*
X401806Y268456D01*
X360360Y276740D02*
X371900Y265200D01*
X353051Y276740D02*
X360360D01*
X398650Y259400D02*
X402960Y255090D01*
X370196Y259400D02*
X398650D01*
X357856Y271740D02*
X370196Y259400D01*
X384100Y259458D02*
Y261600D01*
X374100Y265200D02*
Y267600D01*
Y265200D02*
X398550D01*
X398657Y284728D02*
X402743Y280642D01*
X389100Y284728D02*
Y287200D01*
Y284728D02*
X398657D01*
X369100Y290502D02*
Y293000D01*
Y290502D02*
X398657D01*
X387300Y234000D02*
X391200D01*
X391300Y224909D02*
Y233900D01*
X391400Y224809D02*
X393200D01*
X393300Y224909D02*
Y233900D01*
X393400Y234000D02*
X394300D01*
X398650D01*
X383100D02*
X387300D01*
X362500Y254600D02*
X383100Y234000D01*
X391141Y213651D02*
X393700Y211091D01*
X385666Y208317D02*
X390999Y213651D01*
X384251Y209590D02*
X385524Y208317D01*
X384251Y209732D02*
X389656Y215136D01*
X390965Y216445D01*
X389692Y217859D02*
X390965Y216586D01*
X388312Y216621D02*
X389550Y217859D01*
X387534Y217257D02*
X388171Y216621D01*
X393700Y211091D02*
X396591Y208200D01*
X366200Y238591D02*
X387534Y217257D01*
X396591Y208200D02*
X398928D01*
X394400Y174400D02*
X396849Y176849D01*
X366200Y146200D02*
X391700Y171700D01*
X392208Y172208D01*
X392349D02*
X394796Y169761D01*
X394938D02*
X396211Y171034D01*
X393764Y173622D02*
X396211Y171175D01*
X393764Y173764D02*
X394400Y174400D01*
X394700Y151422D02*
X398709D01*
X384218D02*
X390800D01*
X391600D01*
X391700Y148316D02*
Y151322D01*
X391800Y148216D02*
X393600D01*
X393700Y148316D02*
Y151322D01*
X393800Y151422D02*
X394700D01*
X362500Y129704D02*
X384218Y151422D01*
X395400Y126198D02*
X398750D01*
X384100D02*
X390800D01*
X392300D01*
X392400Y120656D02*
Y126098D01*
X392500Y120555D02*
X394300D01*
X394400Y120656D02*
Y126098D01*
X394500Y126198D02*
X395400D01*
X398750D02*
X398849Y126100D01*
X395700Y100504D02*
X398849D01*
X389100D02*
X392300D01*
X392600D01*
X392700Y95147D02*
Y100404D01*
X392800Y95047D02*
X394600D01*
X394700Y95147D02*
Y100404D01*
X394800Y100504D02*
X395700D01*
X389100Y97700D02*
Y100504D01*
X363496D02*
X389100D01*
X358000Y106000D02*
X363496Y100504D01*
X353000Y106000D02*
X358000D01*
X403211Y96142D02*
X411161D01*
X398849Y100504D02*
X403211Y96142D01*
X411161D02*
X413721D01*
X356000Y136000D02*
X366200Y146200D01*
Y149100D01*
X398687Y176849D02*
X402894Y172642D01*
X398237Y182350D02*
X401793Y185906D01*
X360300Y146400D02*
Y149300D01*
X354900Y141000D02*
X360300Y146400D01*
X353000Y141000D02*
X354900D01*
X396250Y182350D02*
X398237D01*
X360300Y146400D02*
X396250Y182350D01*
X353000Y136000D02*
X356000D01*
X396849Y176849D02*
X398687D01*
X398650Y234000D02*
X403009Y229642D01*
X358815Y126019D02*
X362500Y129704D01*
Y133000D01*
X355360Y261740D02*
X362500Y254600D01*
Y251600D02*
Y254600D01*
X360100Y250900D02*
X396901Y214099D01*
X354260Y256740D02*
X360100Y250900D01*
Y247800D02*
Y250900D01*
X353051Y251740D02*
X366200Y238591D01*
Y235100D02*
Y238591D01*
X359616Y290502D02*
X369100D01*
X398750Y132000D02*
X401950Y135200D01*
X484849Y342949D02*
X487900D01*
X484749D02*
X484849D01*
X295689Y267000D02*
X296000Y266689D01*
X484800Y342900D02*
X484849Y342949D01*
X19900Y167000D02*
X20000Y166900D01*
X15933Y167000D02*
X19900D01*
X357300Y131100D02*
X357353Y131153D01*
X357200Y131000D02*
X357300Y131100D01*
Y134200D01*
X383300Y157100D02*
X398808D01*
X357353Y131153D02*
X383300Y157100D01*
X353000Y131000D02*
X357200D01*
X353000Y126000D02*
X358834D01*
X353051Y261740D02*
X355360D01*
X357700Y262700D02*
Y265700D01*
X353051Y256740D02*
X354260D01*
X396901Y214099D02*
X398899D01*
X357700Y265700D02*
X383500Y239900D01*
X356660Y266740D02*
X357700Y265700D01*
X398650Y239900D02*
X401753Y243003D01*
X383500Y239900D02*
X398650D01*
X353051Y266740D02*
X356660D01*
X371900Y265200D02*
X374100D01*
X358788Y284728D02*
X389100D01*
X402167Y217367D02*
X411767D01*
X398899Y214099D02*
X402167Y217367D01*
X398928Y208200D02*
X402986Y204142D01*
X411161D01*
X413721Y219321D02*
Y221858D01*
X411767Y217367D02*
X413721Y219321D01*
Y244820D02*
Y247358D01*
X411903Y243003D02*
X413721Y244820D01*
X401753Y243003D02*
X411903D01*
X398755Y290600D02*
X401885Y293729D01*
X398657Y290502D02*
X398755Y290600D01*
X401885Y293729D02*
X411629D01*
X413721Y270321D02*
Y272807D01*
X411856Y268456D02*
X413721Y270321D01*
X401806Y268456D02*
X411856D01*
X355800Y281740D02*
X358788Y284728D01*
X353051Y281740D02*
X355800D01*
X413721Y295820D02*
Y298358D01*
X411629Y293729D02*
X413721Y295820D01*
X369100Y106100D02*
X398500D01*
X363200D02*
X369100D01*
Y103500D02*
Y106100D01*
X398500D02*
X402000Y109600D01*
X358300Y111000D02*
X363200Y106100D01*
X374100Y132000D02*
X398750D01*
X368000D02*
X374100D01*
Y129500D02*
Y132000D01*
X357000Y121000D02*
X368000Y132000D01*
X368198Y126198D02*
X384100D01*
X358000Y116000D02*
X368198Y126198D01*
X384100Y124000D02*
Y126198D01*
X353000Y111000D02*
X358300D01*
X401950Y135200D02*
X411715D01*
X403307Y121642D02*
X411161D01*
X398849Y126100D02*
X403307Y121642D01*
X413721Y111421D02*
Y113858D01*
X411900Y109600D02*
X413721Y111421D01*
X402000Y109600D02*
X411900D01*
X413721Y137206D02*
Y139358D01*
X411715Y135200D02*
X413721Y137206D01*
X398709Y151422D02*
X398808Y151323D01*
X402989Y147142D02*
X411161D01*
X398808Y151323D02*
X402989Y147142D01*
X402894Y172642D02*
X411161D01*
X401793Y185906D02*
X411506D01*
X402101Y160393D02*
X411593D01*
X398808Y157100D02*
X402101Y160393D01*
X405500Y190500D02*
X406551D01*
X404000Y189000D02*
X405500Y190500D01*
X413721Y162521D02*
Y164858D01*
X411593Y160393D02*
X413721Y162521D01*
Y188120D02*
Y190358D01*
X411506Y185906D02*
X413721Y188120D01*
X353051Y271740D02*
X357856D01*
X353000Y116000D02*
X358000D01*
X442800Y337600D02*
X458000Y322400D01*
X442800Y337600D02*
Y342449D01*
X-49000Y245669D02*
X-41824D01*
X-49000Y242520D02*
X-42200D01*
X4583Y132700D02*
X16302D01*
X457900Y342449D02*
Y345000D01*
X454650Y351801D02*
X457900Y348551D01*
X454650Y351801D02*
Y357400D01*
X457900Y360650D01*
X16197Y157480D02*
X18756Y154920D01*
X15933Y157743D02*
X16197Y157480D01*
X15933Y157743D02*
Y167000D01*
X4583Y157480D02*
X16197D01*
X18756Y154920D02*
X27417D01*
X16302Y132700D02*
X18861Y130141D01*
X27417D01*
X21600Y122800D02*
X33984D01*
X14259Y130141D02*
X21600Y122800D01*
X4583Y130141D02*
X14259D01*
X5500Y142249D02*
X9800D01*
X5500Y167000D02*
X9831D01*
X4583Y127582D02*
X9700D01*
X4583Y154920D02*
X14580D01*
X21900Y147600D01*
X33984D01*
X27417Y160039D02*
X32079Y164700D01*
X33984D01*
X27417Y157480D02*
X32464D01*
X33984Y159000D01*
X27417Y152361D02*
X33046D01*
X33984Y153300D01*
X4583Y152361D02*
X10500D01*
X27417Y127582D02*
X33066D01*
X27417Y135259D02*
X32058Y139900D01*
X27417Y132700D02*
X32484D01*
X418839Y241500D02*
X431194D01*
X520972Y184528D02*
X522500Y183000D01*
X519700Y184528D02*
X520972D01*
X482951D02*
X515100D01*
X518200D02*
X519700D01*
X518100Y184628D02*
Y185200D01*
X516200Y185300D02*
X518000D01*
X516100Y184628D02*
Y185200D01*
X515100Y184528D02*
X516000D01*
X508600Y159025D02*
X510525D01*
X465951D02*
X502900D01*
X503500D01*
X503600Y159125D02*
Y162400D01*
X503700Y162500D02*
X505500D01*
X505600Y159025D02*
Y162400D01*
Y156700D02*
Y159025D01*
X505700Y156600D02*
X507500D01*
X507600Y156700D02*
Y158925D01*
X507700Y159025D02*
X508600D01*
X510525D02*
X511500Y160000D01*
X508013Y153013D02*
X527000Y172000D01*
X465902Y153013D02*
X508013D01*
X527000Y172000D02*
X536500D01*
X528401Y180000D02*
X536500D01*
X526829Y178428D02*
X528401Y180000D01*
X482902Y178428D02*
X526829D01*
X519400Y157700D02*
X529500Y167800D01*
X489428Y127728D02*
X514150Y152450D01*
X514450Y152750D01*
X515865Y154165D01*
X517208Y155508D01*
X517349D02*
X519554Y153303D01*
X519696D02*
X520969Y154576D01*
X518764Y156922D02*
X520969Y154717D01*
X518764Y157064D02*
X519400Y157700D01*
X482902Y127728D02*
X489428D01*
X482951Y133528D02*
X492624D01*
X521350Y215928D02*
X522100D01*
X521250Y212900D02*
Y215828D01*
X519350Y212800D02*
X521150D01*
X519250Y212900D02*
Y215928D01*
Y218100D01*
X517350Y218200D02*
X519150D01*
X517250Y216028D02*
Y218100D01*
X516250Y215928D02*
X517150D01*
X522100D02*
X526172D01*
X528250Y213850D01*
X465951Y215928D02*
X516250D01*
X465902Y210100D02*
X531100Y210100D01*
X536500Y215500D01*
X526283Y145183D02*
X526400Y145300D01*
X524940Y143840D02*
X526283Y145183D01*
X522993Y145645D02*
X524798Y143840D01*
X521579Y144372D02*
X522852Y145645D01*
X521579Y144231D02*
X523384Y142426D01*
X522111Y141011D02*
X523384Y142284D01*
X520165Y142816D02*
X521970Y141011D01*
X518751Y141544D02*
X520024Y142816D01*
X518751Y141402D02*
X520556Y139597D01*
X519919Y138819D02*
X520556Y139456D01*
X526400Y145300D02*
X529431Y148331D01*
X488768Y107669D02*
X519919Y138819D01*
X465951Y107669D02*
X488768D01*
X517350Y239350D02*
X522262D01*
X515191Y241509D02*
X517350Y239350D01*
X522262D02*
X527612Y234000D01*
X523680Y235528D02*
X529208Y230000D01*
X520400Y235528D02*
X523680D01*
X482902D02*
X511900D01*
X519000D02*
X520400D01*
X518900Y235628D02*
Y237172D01*
X517000Y237272D02*
X518800D01*
X516900Y235528D02*
Y237172D01*
Y232700D02*
Y235528D01*
X515000Y232600D02*
X516800D01*
X514900Y232700D02*
Y235528D01*
Y237172D01*
X513000Y237271D02*
X514800D01*
X512900Y235628D02*
Y237172D01*
X511900Y235528D02*
X512800D01*
X517100Y244400D02*
X519500Y242000D01*
X500672Y260828D02*
X512800Y248700D01*
X516406Y245094D02*
X517100Y244400D01*
X514470Y243299D02*
X516265Y245094D01*
X513056Y244572D02*
X514329Y243299D01*
X513056Y244713D02*
X514921Y246579D01*
X515597Y247254D01*
X514324Y248669D02*
X515597Y247396D01*
X513578Y248064D02*
X514183Y248669D01*
X512800Y248700D02*
X513436Y248064D01*
X465902Y260828D02*
X500672D01*
X529000Y242000D02*
X536500D01*
X526150Y244850D02*
X529000Y242000D01*
X484472Y286528D02*
X521650Y249350D01*
X525256Y245744D02*
X526150Y244850D01*
X523534Y244163D02*
X525115Y245744D01*
X522120Y245436D02*
X523392Y244163D01*
X522120Y245577D02*
X523701Y247158D01*
X522357Y248643D02*
X523701Y247299D01*
X521650Y249350D02*
X522357Y248643D01*
X482902Y286528D02*
X484472D01*
X466800Y301700D02*
X470465D01*
X470500Y301735D01*
X462400Y298651D02*
Y302200D01*
Y276900D02*
Y280426D01*
X462451Y280477D01*
X445500Y272979D02*
Y276600D01*
X449800Y276000D02*
X453465D01*
X453500Y276035D01*
X462400Y247751D02*
Y251100D01*
X466800Y250800D02*
X470484D01*
X470500Y250816D01*
X465500Y226400D02*
X468995D01*
X469017Y226422D01*
X465722Y277422D02*
X469017D01*
X448478Y251622D02*
X452017D01*
X445451Y251451D02*
Y254777D01*
X462451Y225951D02*
Y229528D01*
X449800Y168300D02*
X453469D01*
X453500Y168331D01*
X445400Y165376D02*
Y168900D01*
X465500Y169200D02*
X468995D01*
X469017Y169222D01*
X462400Y190651D02*
Y194200D01*
X450000Y225200D02*
X453496D01*
X453500Y225204D01*
X445400Y222280D02*
Y226000D01*
Y222280D02*
X445500Y222180D01*
X448516Y200816D02*
X452017D01*
X445451Y200551D02*
Y203971D01*
X466963Y193728D02*
X470500D01*
X462451Y168818D02*
Y172377D01*
X445400Y165376D02*
X445500Y165276D01*
X445451Y143749D02*
Y147061D01*
X462451Y139902D02*
Y143600D01*
X462400Y139851D02*
X462451Y139902D01*
X449565Y117135D02*
X453500D01*
X462300Y118000D02*
Y121526D01*
X462451Y121677D01*
X465722Y118522D02*
X469017D01*
X466935Y142835D02*
X470500D01*
X448506Y143906D02*
X452017D01*
X445400Y91900D02*
Y95926D01*
X445451Y95977D01*
X448400Y92800D02*
X452002D01*
X452017Y92816D01*
X445500Y114079D02*
Y117500D01*
X530599Y234000D02*
X536500Y228099D01*
X527612Y234000D02*
X530599D01*
X482951Y241509D02*
X515191D01*
X469013Y235631D02*
X469116Y235528D01*
X431100Y286500D02*
X434100Y283500D01*
Y283594D02*
X437085Y286579D01*
X434100Y295406D02*
X436957Y292549D01*
X434100Y258043D02*
X436936Y260879D01*
X434100Y269854D02*
X437077Y266877D01*
X434100Y244406D02*
X436857Y241649D01*
X434100Y232594D02*
X437136Y235631D01*
X437079Y210073D02*
X445451D01*
X434100Y207095D02*
X437079Y210073D01*
X434100Y218905D02*
X436928Y216077D01*
X404789Y176849D02*
X416159D01*
X434100Y175594D02*
X436985Y178480D01*
X434100Y187406D02*
X436957Y184549D01*
X434100Y150094D02*
X437169Y153164D01*
X434100Y161906D02*
X436832Y159174D01*
X436757Y133749D02*
X462400D01*
X434100Y136406D02*
X436757Y133749D01*
X437285Y127779D02*
X462451D01*
X434100Y124594D02*
X437285Y127779D01*
X434100Y110906D02*
X437028Y107977D01*
X434100Y99094D02*
X437085Y102079D01*
X465902Y102028D02*
X485432D01*
X465951Y266828D02*
X498172D01*
X482951Y291549D02*
Y292428D01*
Y291549D02*
X529500Y245000D01*
X437085Y286579D02*
X462451D01*
X436957Y292549D02*
X462400D01*
X476694Y286635D02*
X476800Y286528D01*
X469017Y286635D02*
X476694D01*
X468962Y286579D02*
X469017Y286635D01*
X462451Y286579D02*
X468962D01*
X470473Y292549D02*
X470500Y292522D01*
X462400Y292549D02*
X470473D01*
X470500Y292522D02*
X470594Y292428D01*
X476849D01*
X436936Y260879D02*
X445451D01*
X437077Y266877D02*
X445500D01*
X459794Y260835D02*
X459800Y260828D01*
X452017Y260835D02*
X459794D01*
X451972Y260879D02*
X452017Y260835D01*
X445451Y260879D02*
X451972D01*
X459842Y266822D02*
X459849Y266828D01*
X453500Y266822D02*
X459842D01*
X453445Y266877D02*
X453500Y266822D01*
X445500Y266877D02*
X453445D01*
X437136Y235631D02*
X462451D01*
X436857Y241649D02*
X462400D01*
X469116Y235528D02*
X476800D01*
X470500Y241603D02*
X470594Y241509D01*
X470454Y241649D02*
X470500Y241603D01*
X470594Y241509D02*
X476849D01*
X469013Y235631D02*
X469017Y235635D01*
X462451Y235631D02*
X469013D01*
X462400Y241649D02*
X470454D01*
X436928Y216077D02*
X445500D01*
X452017Y210028D02*
X459800D01*
X451972Y210073D02*
X452017Y210028D01*
X445451Y210073D02*
X451972D01*
X445500Y216077D02*
X445586Y215991D01*
X453500D01*
X453563Y215928D01*
X459849D01*
X436985Y178480D02*
X462451D01*
X436957Y184549D02*
X462400D01*
X468972Y178480D02*
X469017Y178435D01*
X462451Y178480D02*
X468972D01*
X469017Y178435D02*
X469024Y178428D01*
X476800D01*
X462400Y184549D02*
X462433Y184516D01*
X470500D01*
X470513Y184528D01*
X476849D01*
X436832Y159174D02*
X445500D01*
X437169Y153164D02*
X445451D01*
X445496Y153119D01*
X452017D01*
X459694D01*
X459800Y153013D01*
X445500Y159174D02*
X445555Y159119D01*
X453500D01*
X453594Y159025D01*
X459849D01*
X462400Y133749D02*
X462527Y133622D01*
X470500D01*
X476755D02*
X476849Y133528D01*
X470500Y133622D02*
X476755D01*
X476794Y127735D02*
X476800Y127728D01*
X469017Y127735D02*
X476794D01*
X468972Y127779D02*
X469017Y127735D01*
X462451Y127779D02*
X468972D01*
X437085Y102079D02*
X445451D01*
X437028Y107977D02*
X445500D01*
X452017Y102028D02*
X459800D01*
X459842Y107922D02*
X459849Y107928D01*
X453500Y107922D02*
X459842D01*
X453445Y107977D02*
X453500Y107922D01*
X445500Y107977D02*
X453445D01*
X451966Y102079D02*
X452017Y102028D01*
X445451Y102079D02*
X451966D01*
X-49000Y248819D02*
X-42200D01*
X145299Y118000D02*
Y120229D01*
X127100Y123200D02*
X127324Y123424D01*
X142103D02*
X145299Y120229D01*
X127324Y123424D02*
X142103D01*
X227000Y322272D02*
X229000Y320272D01*
Y320000D02*
Y320272D01*
X143200Y307100D02*
X143900D01*
X144299Y306701D01*
X146800Y250100D02*
X147000Y250300D01*
X144299Y304500D02*
Y306701D01*
X21126Y193129D02*
X138051Y76204D01*
X125300Y250100D02*
X146800D01*
X140900Y232000D02*
X141000D01*
X139997Y234181D02*
X142313D01*
X138719Y232903D02*
X139997Y234181D01*
X138719Y232803D02*
Y232903D01*
X137585Y231669D02*
X138719Y232803D01*
X141000Y232000D02*
X141437Y231563D01*
X142313Y234181D02*
X142963Y233531D01*
X162100Y333992D02*
X202811D01*
X141008Y316692D02*
X155678Y331363D01*
X11903Y244500D02*
X12000D01*
X139272Y306772D02*
X139500Y307000D01*
X136000Y306772D02*
X139272D01*
X140228Y120272D02*
X141200Y121243D01*
X133000Y114000D02*
X133169Y114169D01*
X145299Y235500D02*
Y237799D01*
X145500Y238000D01*
X40087Y122800D02*
X42400D01*
X425800Y105051D02*
X430100D01*
X430049Y131051D02*
X430100Y131000D01*
X425800Y131051D02*
X430049D01*
X425800Y156551D02*
X430100D01*
X425800Y181551D02*
X430100D01*
X425800Y213051D02*
X430100D01*
X430049Y238551D02*
X430100Y238500D01*
X425800Y238551D02*
X430049D01*
X425800Y264051D02*
X430100D01*
X425800Y289551D02*
X430100D01*
X404851Y182800D02*
X416351D01*
X404789D02*
X404851D01*
X145299Y186000D02*
Y188201D01*
X145000Y188500D02*
X145299Y188201D01*
X8301Y376621D02*
X12700Y376700D01*
X320798Y182798D02*
X326000Y177596D01*
X319000Y181000D02*
X320798Y182798D01*
X326000Y148000D02*
Y177596D01*
X326972Y137779D02*
X330432D01*
X330756Y137914D02*
X342277D01*
X306000Y177296D02*
X311602Y182898D01*
X306000Y147904D02*
Y177296D01*
X311602Y182898D02*
X312898Y181602D01*
X260207Y179793D02*
X272371Y167629D01*
X278727Y144369D02*
X284298Y138798D01*
X275300Y152642D02*
Y160558D01*
X200912Y186000D02*
X253000D01*
X258500Y180000D02*
Y180500D01*
X289841Y136502D02*
X298298D01*
X299500Y137000D02*
X300279Y137779D01*
X-12500Y157021D02*
X-9217D01*
X533000Y260000D02*
Y273300D01*
X534502D01*
X532691D02*
X533000D01*
X534502D02*
X542200Y280998D01*
X544109Y273300D02*
X548800D01*
X542200Y287100D02*
Y291000D01*
X-42045Y166929D02*
X-26116Y151000D01*
X-49000Y166929D02*
X-42045D01*
X-42010Y163790D02*
X-42000Y163800D01*
X-18449Y151000D02*
X-12500Y150949D01*
X56635Y285100D02*
X59300D01*
X18392Y246857D02*
X56635Y285100D01*
X105520Y376529D02*
X108900D01*
X71191Y292757D02*
X76696D01*
X68569Y295378D02*
X71191Y292757D01*
X113520Y329580D02*
Y352470D01*
X76696Y292757D02*
X113520Y329580D01*
X97964Y296492D02*
X140811D01*
X22761Y237667D02*
X70052Y284962D01*
X22760Y237667D02*
X22761Y237667D01*
X16941Y235659D02*
X17912D01*
X97655Y294792D02*
X127500D01*
X23080Y235480D02*
X71599Y283999D01*
X17000Y233500D02*
X18300D01*
X113462Y363829D02*
X113520Y363887D01*
X105520Y363829D02*
X113462D01*
X105520D02*
Y370427D01*
X105130Y363440D02*
X105520Y363829D01*
X98159Y363440D02*
X105130D01*
X95600Y367207D02*
X98820Y370427D01*
X95600Y363440D02*
Y367207D01*
X92920Y370432D02*
X93041Y370311D01*
Y363440D02*
Y370311D01*
X99570Y338778D02*
X100669D01*
X95600Y342749D02*
X99570Y338778D01*
X95600Y342749D02*
Y346117D01*
X93041Y340491D02*
X94771Y338760D01*
X93041Y340491D02*
Y346117D01*
X58671Y295378D02*
X68569D01*
X140811Y296492D02*
X140945Y296626D01*
X133000Y300500D02*
X133169Y300669D01*
X202811Y332292D02*
X202945Y332157D01*
X188600Y332292D02*
X189500D01*
X202945Y332157D02*
X206299D01*
X189500Y332292D02*
X202811D01*
X184600D02*
X186400D01*
X188500Y330610D02*
Y332192D01*
X186500Y330610D02*
Y332192D01*
X186600Y330510D02*
X188400D01*
X184500Y330610D02*
Y332192D01*
X182500Y330610D02*
Y332192D01*
X182600Y330510D02*
X184400D01*
X179500Y332292D02*
X182400D01*
X202945Y334126D02*
X206299D01*
X202811Y333992D02*
X202945Y334126D01*
X140000Y301000D02*
X140437Y300563D01*
X144299D01*
X139000Y303500D02*
X140585D01*
X136169Y300669D02*
X139000Y303500D01*
X140585D02*
X141553Y302532D01*
X-49000Y198425D02*
X9752D01*
X-42851Y210441D02*
X-41824Y209414D01*
X-43335Y229339D02*
X-42461Y228465D01*
X-49000Y211024D02*
X-48417Y210441D01*
X-42851D01*
X-43335Y219890D02*
X-42435Y218990D01*
X-42089Y261411D02*
X-42000Y261500D01*
X-42118Y255118D02*
X-42000Y255000D01*
X-49000Y255118D02*
X-42118D01*
X-42000Y261500D02*
Y261996D01*
X-31405Y128205D02*
X-12153D01*
X142135Y178126D02*
X145299D01*
X-182Y226763D02*
X-182D01*
X-49000D02*
X-182D01*
X-48417Y238787D02*
X-43335D01*
Y200992D02*
X-42415Y200073D01*
X180000Y231720D02*
X189449D01*
X164157D02*
X176051D01*
X179151D02*
X180000D01*
X179051Y231821D02*
Y232541D01*
X177151Y232641D02*
X178951D01*
X177051Y231821D02*
Y232541D01*
X176051Y231720D02*
X176951D01*
X179500Y114169D02*
X183500D01*
X167461D02*
X175500D01*
X178600D02*
X179500D01*
X178500Y114269D02*
Y115011D01*
X176600Y115111D02*
X178400D01*
X176500Y114269D02*
Y115011D01*
X175500Y114169D02*
X176400D01*
X-49000Y223622D02*
X-42200D01*
X141811Y225792D02*
X141945Y225658D01*
X145299D01*
X31403Y225319D02*
X31876Y225792D01*
X28633Y225319D02*
X31403D01*
X-49000Y239370D02*
X-48417Y238787D01*
X-49000Y229921D02*
X-48417Y229339D01*
X-43335D01*
X-49000Y220472D02*
X-48417Y219890D01*
X-43335D01*
X84857Y145658D02*
X89000D01*
X-48417Y200992D02*
X-43335D01*
X-49000Y201575D02*
X-48417Y200992D01*
X-44571Y264567D02*
X-42000Y261996D01*
X-49000Y264567D02*
X-44571D01*
X-49000Y214173D02*
X-42100D01*
X-49000Y204724D02*
X-42000D01*
X-49000Y129134D02*
X-32334D01*
X-31405Y128205D01*
X174500Y182169D02*
X175900D01*
X176000Y181327D02*
Y182069D01*
X176100Y181227D02*
X177900D01*
X178000Y181327D02*
Y182069D01*
X178100Y182169D02*
X179000D01*
X174500Y300669D02*
X175400D01*
X175500Y299827D02*
Y300569D01*
X175600Y299727D02*
X177400D01*
X177500Y299827D02*
Y300569D01*
X177600Y300669D02*
X178500D01*
X418839Y292500D02*
X431194D01*
X418051D02*
X418839D01*
Y298358D01*
X404857Y290600D02*
X416151D01*
X418051Y292500D01*
X404857Y284728D02*
X416280D01*
X402743Y280642D02*
X411161D01*
X402960Y255090D02*
X411161D01*
X413721D01*
X418839Y267000D02*
Y272807D01*
X404851Y265300D02*
X416351D01*
X418051Y267000D01*
X418839D02*
X431246D01*
X418051D02*
X418839D01*
X404851Y259400D02*
X416108D01*
X416280Y259228D01*
X529208Y230000D02*
X529500D01*
X418051Y241500D02*
X418839D01*
Y247358D01*
X404851Y239900D02*
X416451D01*
X418051Y241500D01*
X404851Y234000D02*
X416008D01*
X416280Y233728D01*
X403009Y229642D02*
X411161D01*
X528250Y213850D02*
X529350D01*
X529500Y214000D01*
X418839Y216000D02*
X431194D01*
X418051D02*
X418839D01*
Y221858D01*
X405002Y214099D02*
X416150D01*
X418051Y216000D01*
X405002Y208228D02*
X416280D01*
X418839Y184500D02*
X431194D01*
X418051D02*
X418839D01*
X416159Y176849D02*
X416280Y176728D01*
X416351Y182800D02*
X418051Y184500D01*
X416280Y147142D02*
Y151728D01*
X418839Y159000D02*
X431194D01*
X418051D02*
X418839D01*
X404910Y151323D02*
X415874D01*
X416280Y151728D01*
X404910Y157100D02*
X416151D01*
X418051Y159000D01*
X492624Y133528D02*
X521542Y162446D01*
X529500Y167800D02*
Y168000D01*
X521542Y162446D02*
Y163458D01*
X418839Y133500D02*
X431194D01*
X418051D02*
X418839D01*
X404951Y126100D02*
X416151D01*
X416280Y126228D01*
X404951Y132000D02*
X416551D01*
X418051Y133500D01*
X404000Y137500D02*
X406000Y139500D01*
X406551D01*
X418051Y108000D02*
X418839D01*
X431194D01*
X529500Y148400D02*
Y152000D01*
X485432Y102028D02*
X536500Y153096D01*
Y156000D01*
X404951Y100504D02*
X416004D01*
X416280Y100228D01*
X404951Y106283D02*
X416335D01*
X418051Y108000D01*
X404000Y112000D02*
X406000Y114000D01*
X406551D01*
X418051Y286500D02*
X431100D01*
X416280Y280642D02*
Y284728D01*
X418051Y286500D01*
X431194Y292500D02*
X434100Y295406D01*
X416280Y176728D02*
X418051Y178500D01*
X416280Y172642D02*
Y176728D01*
X418839Y184500D02*
Y190358D01*
X335898Y132000D02*
X337500D01*
X335500Y112000D02*
X337500D01*
X335500D02*
X335750Y112250D01*
X283500Y307500D02*
Y318058D01*
Y291000D02*
Y296000D01*
Y301100D02*
Y307500D01*
X283600Y301000D02*
X286624D01*
X286724Y299100D02*
Y300900D01*
X283600Y299000D02*
X286624D01*
X283500Y297000D02*
Y298900D01*
Y296000D02*
Y297000D01*
X280671Y282671D02*
X288571Y274772D01*
X264569Y298773D02*
X269671Y293671D01*
X277065Y286278D01*
X277206D02*
X278973Y288044D01*
X279114D02*
X280387Y286771D01*
X278621Y284863D02*
X280387Y286629D01*
X278621Y284722D02*
X279964Y283378D01*
X280671Y282671D01*
X260368Y273700D02*
X263500D01*
X268854D01*
X268954Y271150D02*
Y273600D01*
X269054Y271050D02*
X270854D01*
X270954Y271150D02*
Y273600D01*
X271054Y273700D02*
X271954D01*
X299835Y252500D02*
X301327Y253992D01*
X285500Y252500D02*
X299835D01*
X259346D02*
X280000D01*
X282400D01*
X282500Y250518D02*
Y252400D01*
X282600Y250418D02*
X284400D01*
X284500Y250518D02*
Y252400D01*
X284600Y252500D02*
X285500D01*
X277000Y158500D02*
Y160558D01*
Y157742D02*
Y158500D01*
X277100Y157642D02*
X279635D01*
X279735Y155742D02*
Y157542D01*
X277100Y155642D02*
X279635D01*
X277000Y153642D02*
Y155542D01*
Y152642D02*
Y153642D01*
X274929Y139071D02*
X278000Y136000D01*
X280126Y133874D01*
X280267D02*
X282264Y135871D01*
X282406D02*
X283679Y134598D01*
X281682Y132460D02*
X283679Y134457D01*
X281682Y132318D02*
X283025Y130975D01*
X283732Y130268D01*
X284000Y116506D02*
X298994D01*
X203408D02*
X278500D01*
X280900D01*
X281000Y114572D02*
Y116406D01*
X281100Y114472D02*
X282900D01*
X283000Y114572D02*
Y116406D01*
X283100Y116506D02*
X284000D01*
X273194Y87194D02*
X286750Y100750D01*
X287833Y101833D01*
X287975D02*
X290156Y99651D01*
X290298D02*
X291570Y100924D01*
X289389Y103247D02*
X291570Y101066D01*
X289389Y103389D02*
X290025Y104025D01*
X270500Y89000D02*
X272596D01*
X295938Y108200D02*
X297211D01*
X272596Y89000D02*
X288867Y105271D01*
X261254Y78254D02*
X264500Y81500D01*
X309000Y303000D02*
X311345Y305345D01*
X304976Y273946D02*
X308308D01*
X300000Y273000D02*
X300677Y273677D01*
X201119Y304000D02*
X257500D01*
X289946Y272502D02*
X298798D01*
X257500Y304000D02*
X258000Y304500D01*
X134500Y294792D02*
X140811D01*
X127500Y293161D02*
Y294792D01*
X127600Y293061D02*
X129400D01*
X129500Y293161D02*
Y294692D01*
X129600Y294792D02*
X131400D01*
X131500Y293161D02*
Y294692D01*
X131600Y293061D02*
X133400D01*
X133500Y293161D02*
Y294692D01*
X133600Y294792D02*
X134500D01*
X243500Y77705D02*
X248000D01*
X228606D02*
X240000D01*
X240400D01*
X240500Y76863D02*
Y77605D01*
X240600Y76763D02*
X242400D01*
X242500Y76863D02*
Y77605D01*
X242600Y77705D02*
X243500D01*
Y151669D02*
X248000D01*
X228606D02*
X239000D01*
X240400D01*
X240500Y150827D02*
Y151569D01*
X240600Y150727D02*
X242400D01*
X242500Y150827D02*
Y151569D01*
X242600Y151669D02*
X243500D01*
X179000Y182169D02*
X183500D01*
X164106D02*
X174500D01*
X241500Y272689D02*
X246000D01*
X226606D02*
X237500D01*
X238400D01*
X238500Y271847D02*
Y272589D01*
X238600Y271747D02*
X240400D01*
X240500Y271847D02*
Y272589D01*
X240600Y272689D02*
X241500D01*
X240500Y338063D02*
X244394D01*
X225000D02*
X235500D01*
X237400D01*
X237500Y337242D02*
Y337963D01*
X237600Y337142D02*
X239400D01*
X239500Y337242D02*
Y337963D01*
X239600Y338063D02*
X240500D01*
X178500Y300669D02*
X182500D01*
X163106D02*
X174500D01*
X353000Y121000D02*
X357000D01*
X498172Y266828D02*
X523000Y242000D01*
X536500Y226000D02*
Y228099D01*
Y215500D02*
Y218000D01*
X431194Y184500D02*
X434100Y187406D01*
X215650Y335110D02*
X216634Y336094D01*
X153650Y297610D02*
X154634Y298594D01*
X217150Y269630D02*
X218134Y270614D01*
X154650Y111110D02*
X155634Y112094D01*
X154650Y228610D02*
X155634Y229594D01*
X154650Y179110D02*
X155634Y180095D01*
X219150Y148610D02*
X220134Y149594D01*
X219150Y74646D02*
X220134Y75630D01*
X228500Y81535D02*
Y84000D01*
X301500Y250000D02*
X302953D01*
X298500D02*
X301500D01*
X301958Y104500D02*
X302642D01*
X299000D02*
X301958D01*
X337941Y281559D02*
X338500Y281000D01*
X332559Y281559D02*
X337941D01*
X330583Y279583D02*
X332559Y281559D01*
X327024Y279583D02*
X330583D01*
X337941Y271559D02*
X338500Y271000D01*
X332059Y271559D02*
X337941D01*
X330240Y269740D02*
X332059Y271559D01*
X327024Y269740D02*
X330240D01*
X299500Y281000D02*
X300917Y279583D01*
X304976D01*
X293209Y280000D02*
X294209Y281000D01*
X299500D01*
X300051Y281551D01*
X304976D01*
X300500Y271000D02*
X301760Y269740D01*
X304976D01*
X294209Y271000D02*
X300500D01*
X301209Y271709D01*
X304976D01*
X301000Y261000D02*
X302102Y259898D01*
X304976D01*
X293209Y260000D02*
X294209Y261000D01*
X301000D01*
X301866Y261866D01*
X304976D01*
X301500Y250000D02*
X303500Y252000D01*
X302953Y250000D02*
X304976Y252024D01*
X299131Y254200D02*
X300891Y255961D01*
X257938Y254200D02*
X299131D01*
X332500Y136000D02*
X337500D01*
X330343Y133843D02*
X332500Y136000D01*
X326972Y133843D02*
X330343D01*
X332500Y126000D02*
X337500D01*
X330500Y124000D02*
X332500Y126000D01*
X326972Y124000D02*
X330500D01*
X332500Y116000D02*
X337500D01*
X330658Y114157D02*
X332500Y116000D01*
X326972Y114157D02*
X330658D01*
X302642Y104500D02*
X304425Y106283D01*
X299001Y108381D02*
X300840Y110221D01*
X297392Y108381D02*
X299001D01*
X297211Y108200D02*
X297392Y108381D01*
X299705Y106681D02*
X301276Y108252D01*
X298097Y106681D02*
X299705D01*
X297916Y106500D02*
X298097Y106681D01*
X296000Y106500D02*
X297916D01*
X301958Y104500D02*
X302243Y104785D01*
X300000Y135000D02*
X301157Y133843D01*
X304925D01*
X293500Y134000D02*
X294500Y135000D01*
X300000D01*
X300811Y135811D01*
X304925D01*
X300612Y125092D02*
X301705Y124000D01*
X304925D01*
X300513Y115150D02*
X301505Y114157D01*
X304925D01*
X293500Y114000D02*
X294650Y115150D01*
X300513D01*
X293500Y124000D02*
X294592Y125092D01*
X300612D01*
X289553Y262500D02*
X299992D01*
X264667Y276000D02*
X273500D01*
X277664Y270432D02*
X282798Y265298D01*
X277000Y270500D02*
X277500D01*
X311547Y235047D02*
X312949Y236449D01*
X309500Y237093D02*
X311547Y235047D01*
X309500Y237093D02*
Y244096D01*
X307800Y236389D02*
Y244800D01*
X326972Y118095D02*
X342630D01*
X346340Y116558D02*
X346898Y116000D01*
X323000Y91404D02*
Y98000D01*
X320798Y89202D02*
X323000Y91404D01*
X319000Y91000D02*
X320798Y89202D01*
X324700Y90700D02*
Y98704D01*
X319000Y85000D02*
X324700Y90700D01*
X195551Y120220D02*
X196337Y119435D01*
X309000Y91904D02*
Y98000D01*
Y91904D02*
X311401Y89503D01*
X312898Y91000D01*
X307300Y91200D02*
X312898Y85602D01*
X307300Y91200D02*
Y98704D01*
X260158Y83800D02*
X265000D01*
X310802Y65500D02*
X311398D01*
X305500Y70802D02*
X310802Y65500D01*
X305500Y70802D02*
Y99596D01*
X303800Y70098D02*
Y100300D01*
X330319Y108119D02*
X342605D01*
X346316Y106582D02*
X346898Y106000D01*
X326428Y70832D02*
Y99800D01*
X320798Y65202D02*
X326428Y70832D01*
X319000Y67000D02*
X320798Y65202D01*
X328128Y70128D02*
Y100504D01*
X319000Y61000D02*
X328128Y70128D01*
X323316Y137779D02*
X326972D01*
X320800Y140296D02*
X323316Y137779D01*
X323752Y139748D02*
X326972D01*
X322500Y141000D02*
X323752Y139748D01*
X345967Y131000D02*
X346898D01*
X326972Y129905D02*
X330432D01*
X330756Y129771D02*
X343000D01*
X322500Y149500D02*
Y156296D01*
X320398Y158398D02*
X322500Y156296D01*
X319000Y157000D02*
X320398Y158398D01*
X324200Y148700D02*
Y157000D01*
X288719Y128202D02*
X298798D01*
X267209Y148792D02*
X268000Y148000D01*
X260051Y151720D02*
X260137D01*
X274000Y141314D02*
Y141500D01*
X311302Y159000D02*
X311500D01*
X309500Y157198D02*
X311302Y159000D01*
X309500Y149404D02*
Y157198D01*
X307800Y148700D02*
Y157902D01*
X262131Y180273D02*
X273573Y168831D01*
X199123Y183700D02*
X253858D01*
X289841Y138202D02*
X298298D01*
X279929Y145571D02*
X285500Y140000D01*
X304300Y147200D02*
Y178000D01*
X326972Y139748D02*
X330432D01*
X330756Y139614D02*
X343551D01*
X327700Y147200D02*
Y178300D01*
X301746Y104785D02*
X303244Y106283D01*
X301746Y104785D02*
X302243D01*
X303244Y106283D02*
X304925D01*
X506500Y47000D02*
X507000D01*
X431143Y261000D02*
X434100Y258043D01*
X413721Y221858D02*
X416280D01*
X411161Y204142D02*
X413721D01*
Y190358D02*
X416280D01*
X411161Y172642D02*
X413721D01*
Y164858D02*
X416280D01*
X411161Y147142D02*
X413721D01*
Y139358D02*
X416280D01*
X411161Y121642D02*
X413721D01*
Y113858D02*
X416280D01*
X411161Y280642D02*
X413721D01*
Y298358D02*
X416280D01*
X406551Y298500D02*
X406693Y298358D01*
X411161D01*
X403000Y300000D02*
Y300500D01*
X401500Y298500D02*
X403000Y300000D01*
X400449Y298500D02*
X401500D01*
X404000Y297000D02*
X405051D01*
X406551Y298500D01*
X401000Y273000D02*
X403000Y275000D01*
X400449Y273000D02*
X401000D01*
X404000Y271500D02*
X405051D01*
X406551Y273000D01*
X406744Y272807D01*
X411161D01*
X413721D02*
X416280D01*
X431246Y267000D02*
X434100Y269854D01*
X416280Y255090D02*
Y259228D01*
X418051Y261000D01*
X431143D01*
X403000Y249000D02*
Y249500D01*
X401500Y247500D02*
X403000Y249000D01*
X400449Y247500D02*
X401500D01*
X404000Y245500D02*
Y246000D01*
X405500Y247500D01*
X406551D01*
X406693Y247358D01*
X411161D01*
X413721D02*
X416280D01*
X411161Y229642D02*
X413721D01*
X431194Y241500D02*
X434100Y244406D01*
X416280Y229642D02*
Y233728D01*
X418051Y235500D01*
X431194D01*
X434100Y232594D01*
X401000Y222000D02*
X403000Y224000D01*
X400449Y222000D02*
X401000D01*
X404000Y220500D02*
X405500Y222000D01*
X406551D01*
X406693Y221858D01*
X411161D01*
X431194Y216000D02*
X434100Y218905D01*
X416280Y204142D02*
Y208228D01*
X418051Y210000D01*
X431194D01*
X434100Y207095D01*
X401000Y190500D02*
X403000Y192500D01*
X400449Y190500D02*
X401000D01*
Y165000D02*
X403000Y167000D01*
X400449Y165000D02*
X401000D01*
X404000Y163000D02*
X406000Y165000D01*
X406551D01*
X430694Y153500D02*
X434100Y150094D01*
X430694Y128000D02*
X434100Y124594D01*
X401000Y139500D02*
X403000Y141500D01*
X400449Y139500D02*
X401000D01*
Y114000D02*
X403000Y116000D01*
X400449Y114000D02*
X401000D01*
X406551Y190500D02*
X406693Y190358D01*
X411161D01*
X418051Y178500D02*
X431194D01*
X434100Y175594D01*
X406551Y165000D02*
X406693Y164858D01*
X411161D01*
X418839Y159000D02*
Y164858D01*
X431194Y159000D02*
X434100Y161906D01*
X416280Y151728D02*
X418051Y153500D01*
X430694D01*
X406551Y139500D02*
X406693Y139358D01*
X411161D01*
X418839Y133500D02*
Y139358D01*
X431194Y133500D02*
X434100Y136406D01*
X416280Y121642D02*
Y126228D01*
X418051Y128000D01*
X430694D01*
X411020Y114000D02*
X411161Y113858D01*
X406551Y114000D02*
X411020D01*
X418839Y108000D02*
Y113858D01*
X431194Y108000D02*
X434100Y110906D01*
X416280Y96142D02*
Y100228D01*
X418051Y102000D01*
X431194D01*
X434100Y99094D01*
X300000Y283500D02*
X300020Y283520D01*
X288926Y283002D02*
X298798D01*
X256551Y344220D02*
X258137D01*
X265209Y341291D02*
X265500Y341000D01*
X283711Y286384D02*
X285798Y284298D01*
X281800Y291000D02*
Y318058D01*
X267900Y336100D02*
X278871Y325129D01*
X266900Y336100D02*
X267900D01*
X236500Y238103D02*
Y238500D01*
Y238103D02*
X236603Y238000D01*
X198500Y344272D02*
Y347000D01*
X203000Y280500D02*
Y281000D01*
X201291Y278791D02*
X203000Y280500D01*
X199500Y278791D02*
X201291D01*
X195320Y152819D02*
X198501Y156000D01*
X200128D01*
X201900Y157772D01*
X140272Y237772D02*
X140500Y238000D01*
X137000Y237772D02*
X140272D01*
X136500Y120272D02*
X140228D01*
Y188272D02*
X140500Y188000D01*
X136500Y188272D02*
X140228D01*
X196320Y83819D02*
X196501Y84000D01*
X197500D01*
X197693Y83807D01*
X201500D01*
X167500Y96000D02*
Y96772D01*
X166000Y98272D02*
X167500Y96772D01*
Y164000D02*
Y164772D01*
X166000Y166272D02*
X167500Y164772D01*
X166000Y215000D02*
X167500Y213500D01*
X166000Y215000D02*
Y215772D01*
X166500Y282500D02*
Y283272D01*
X165000Y284772D02*
X166500Y283272D01*
X228500Y320000D02*
X229000D01*
X230000Y254500D02*
Y255291D01*
X228500Y256791D02*
X230000Y255291D01*
X232000Y133500D02*
Y134272D01*
X230500Y135772D02*
X232000Y134272D01*
X230500Y61000D02*
X232000Y59500D01*
X230500Y61000D02*
Y61807D01*
X195000Y338500D02*
X195331Y338169D01*
X198500D01*
Y151500D02*
X198669Y151669D01*
X201900D01*
X196000Y272500D02*
X196189Y272689D01*
X199500D01*
X133169Y300669D02*
X136000D01*
X133500Y231500D02*
X133669Y231669D01*
X137000D01*
X133331Y182169D02*
X136500D01*
X133169Y114169D02*
X136500D01*
X198500Y77500D02*
X198705Y77705D01*
X201500D01*
X206000Y344500D02*
X206299Y344201D01*
Y342000D02*
Y344201D01*
X209000Y157500D02*
Y158000D01*
Y157500D02*
X209799Y156701D01*
Y155500D02*
Y156701D01*
Y83299D02*
X210000Y83500D01*
X209799Y81535D02*
Y83299D01*
X207500Y278500D02*
X207799Y278201D01*
Y276520D02*
Y278201D01*
X140945Y296626D02*
X144299D01*
X140945Y294657D02*
X144299D01*
X140811Y294792D02*
X140945Y294657D01*
X204445Y266677D02*
X207799D01*
X258916Y339200D02*
X263672D01*
X269702Y336702D02*
X280073Y326331D01*
X284914Y287586D02*
X287000Y285500D01*
X288926Y284702D02*
X298798D01*
X312949Y333740D02*
Y339740D01*
X312336Y333740D02*
X312949D01*
X309000Y287000D02*
Y288029D01*
X308976Y286976D02*
X309000Y287000D01*
X308976Y286860D02*
Y286976D01*
X307604Y285488D02*
X308976Y286860D01*
X303300Y324704D02*
X312336Y333740D01*
X303300Y293729D02*
X309000Y288029D01*
X303300Y293729D02*
Y324704D01*
X304976Y285488D02*
X307604D01*
X311689Y329000D02*
X312949Y327740D01*
X310000Y329000D02*
X311689D01*
X312949Y321740D02*
Y327740D01*
X310700Y286180D02*
Y288734D01*
X308040Y283520D02*
X310700Y286180D01*
X305000Y324000D02*
X310000Y329000D01*
X305000Y294433D02*
Y324000D01*
Y294433D02*
X310700Y288734D01*
X304976Y283520D02*
X308040D01*
X298798Y284702D02*
X299584Y285488D01*
X304976D01*
X300020Y283520D02*
X304976D01*
X198123Y302200D02*
X256296D01*
X289946Y274202D02*
X298798D01*
X262602Y298337D02*
X287369Y273570D01*
X312949Y309740D02*
Y315740D01*
X307000Y303791D02*
X312949Y309740D01*
X313000Y281042D02*
Y289000D01*
X307604Y275646D02*
X313000Y281042D01*
X307000Y295000D02*
Y303791D01*
Y295000D02*
X313000Y289000D01*
X304976Y275646D02*
X307604D01*
X311345Y305345D02*
X312949Y303740D01*
Y297740D02*
Y303740D01*
X309000Y295404D02*
X314700Y289704D01*
Y280337D02*
Y289704D01*
X309000Y295404D02*
Y303000D01*
X308308Y273946D02*
X314700Y280337D01*
X304976Y273677D02*
Y273946D01*
X298798Y274202D02*
X300241Y275646D01*
X304976D01*
X300677Y273677D02*
X304976D01*
X337669Y261831D02*
X338500Y261000D01*
X332331Y261831D02*
X337669D01*
X330398Y259898D02*
X332331Y261831D01*
X327024Y259898D02*
X330398D01*
X200188Y235800D02*
X235396D01*
X199847Y233500D02*
X231000D01*
X238298Y238702D02*
X250867Y251271D01*
X239500Y237500D02*
X251073Y249073D01*
X309000Y251000D02*
Y253000D01*
X312356Y207240D02*
X312949D01*
X308008Y253992D02*
X309000Y253000D01*
X312949Y201240D02*
Y207240D01*
X304976Y253992D02*
X308008D01*
X304000Y246000D02*
X309000Y251000D01*
X304000Y215596D02*
Y246000D01*
Y215596D02*
X312356Y207240D01*
X306000Y245596D02*
X310700Y250296D01*
X308539Y255961D02*
X310700Y253800D01*
Y250296D02*
Y253800D01*
X312949Y213240D02*
Y219240D01*
X311709Y212000D02*
X312949Y213240D01*
X310000Y212000D02*
X311709D01*
X304976Y255961D02*
X308539D01*
X306000Y216000D02*
X310000Y212000D01*
X306000Y216000D02*
Y245596D01*
X300891Y255961D02*
X304976D01*
X301327Y253992D02*
X304976D01*
X280227Y270273D02*
X284000Y266500D01*
X314200Y248796D02*
Y260204D01*
X309500Y244096D02*
X314200Y248796D01*
X312949Y237240D02*
Y243240D01*
Y236449D02*
Y237240D01*
X304976Y265803D02*
X308601D01*
X300891D02*
X304976D01*
X299288Y264200D02*
X300891Y265803D01*
X308601D02*
X314200Y260204D01*
X289553Y264200D02*
X299288D01*
X312500Y249500D02*
Y259500D01*
X308165Y263835D02*
X312500Y259500D01*
X307800Y236389D02*
X312949Y231240D01*
Y225240D02*
Y231240D01*
X304976Y263835D02*
X308165D01*
X301327D02*
X304976D01*
X299992Y262500D02*
X301327Y263835D01*
X307800Y244800D02*
X312500Y249500D01*
X203903Y340032D02*
X206299D01*
X203329Y340606D02*
X203903Y340032D01*
X203150Y340606D02*
X203329D01*
X202756Y341000D02*
X203150Y340606D01*
X201331Y341000D02*
X202756D01*
X198500Y338169D02*
X201331Y341000D01*
X200575Y336094D02*
X206299D01*
X198500Y338169D02*
X200575Y336094D01*
X202425Y338425D02*
X202787Y338063D01*
X206299D01*
X221000Y322272D02*
Y328782D01*
X222407Y330189D01*
X225000D01*
X227000Y322272D02*
X229000Y324272D01*
Y331000D01*
X227842Y332157D02*
X229000Y331000D01*
X225000Y332157D02*
X227842D01*
X231949Y323051D02*
X232000Y323000D01*
X231949Y323051D02*
Y326220D01*
Y332221D01*
X230043Y334126D02*
X231949Y332221D01*
X225000Y334126D02*
X230043D01*
X225000Y326000D02*
Y328221D01*
Y342000D02*
Y344500D01*
X228223Y340032D02*
X232412Y344220D01*
X250449D01*
X225000Y340032D02*
X228223D01*
X244394Y338063D02*
X244500Y338169D01*
X244551Y338221D01*
X250449D01*
Y332221D02*
Y338221D01*
Y344220D02*
Y350220D01*
X259279D02*
X260000Y349500D01*
X256551Y350220D02*
X259279D01*
X259720Y332221D02*
X260000Y332500D01*
X256551Y332221D02*
X259720D01*
X238000Y326272D02*
X238051Y326220D01*
X238000Y326272D02*
Y329000D01*
X238051Y329051D01*
Y332221D01*
X224169Y316169D02*
X227000D01*
X224000Y316000D02*
X224169Y316169D01*
X223831D02*
X224000Y316000D01*
X221000Y316169D02*
X223831D01*
X163000Y304500D02*
Y307000D01*
Y288500D02*
Y290721D01*
X141553Y302532D02*
X144299D01*
X136000Y300669D02*
X136169D01*
X138075Y298594D02*
X144299D01*
X136000Y300669D02*
X138075Y298594D01*
X159000Y284772D02*
Y291106D01*
X160583Y292689D01*
X163000D01*
X165000Y284772D02*
X167000Y286772D01*
Y293500D01*
X165842Y294657D02*
X167000Y293500D01*
X163000Y294657D02*
X165842D01*
X169949Y285551D02*
X170000Y285500D01*
X169949Y285551D02*
Y288720D01*
Y294721D01*
X168043Y296626D02*
X169949Y294721D01*
X163000Y296626D02*
X168043D01*
X166223Y302532D02*
X170463Y306772D01*
X163000Y302532D02*
X166223D01*
X170463Y306772D02*
X182500D01*
X182551Y306720D01*
X188449D01*
Y312720D01*
X163000Y300563D02*
X163106Y300669D01*
X182500D02*
X182551Y300721D01*
X188449D01*
Y294721D02*
Y300721D01*
X197280Y312720D02*
X197500Y312500D01*
X194551Y312720D02*
X197280D01*
Y294721D02*
X197500Y294500D01*
X194551Y294721D02*
X197280D01*
X176000Y288772D02*
X176051Y288720D01*
X176000Y288772D02*
Y291500D01*
X176051Y291551D01*
Y294721D01*
X164831Y278500D02*
X165000Y278669D01*
X162000Y278500D02*
X164831D01*
X161831Y278669D02*
X162000Y278500D01*
X159000Y278669D02*
X161831D01*
X205463Y274551D02*
X207799D01*
X204514Y275500D02*
X205463Y274551D01*
X202311Y275500D02*
X204514D01*
X199500Y272689D02*
X202311Y275500D01*
X201575Y270614D02*
X207799D01*
X199500Y272689D02*
X201575Y270614D01*
X203500Y273000D02*
X203917Y272583D01*
X207799D01*
X226500Y276520D02*
Y279000D01*
Y260500D02*
Y262740D01*
X222500Y256791D02*
X222739Y257030D01*
Y263365D01*
X224083Y264709D01*
X226500D01*
X228500Y256791D02*
X230500Y258791D01*
Y265500D01*
X229323Y266677D02*
X230500Y265500D01*
X226500Y266677D02*
X229323D01*
X233449Y257551D02*
X233500Y257500D01*
X233449Y257551D02*
Y260740D01*
Y266740D01*
X231543Y268646D02*
X233449Y266740D01*
X226500Y268646D02*
X231543D01*
X229723Y274551D02*
X233963Y278791D01*
X226500Y274551D02*
X229723D01*
X233963Y278791D02*
X246000D01*
X246051Y278740D01*
X251949D01*
Y284740D01*
X226500Y272583D02*
X226606Y272689D01*
X246000D02*
X246051Y272740D01*
X251949D01*
Y266740D02*
Y272740D01*
X260740Y284740D02*
X261000Y285000D01*
X258051Y284740D02*
X260740D01*
X260760Y266740D02*
X261000Y266500D01*
X258051Y266740D02*
X260760D01*
X239500Y260791D02*
X239551Y260740D01*
X239500Y260791D02*
Y263500D01*
X239551Y263551D01*
Y266740D01*
X228311Y250500D02*
X228500Y250689D01*
X225500Y250500D02*
X228311D01*
X225311Y250689D02*
X225500Y250500D01*
X222500Y250689D02*
X225311D01*
X137000Y231669D02*
X137585D01*
X142963Y233531D02*
X145299D01*
X139075Y229594D02*
X145299D01*
X137000Y231669D02*
X139075Y229594D01*
X141437Y231563D02*
X145299D01*
X198280Y243721D02*
X198500Y243500D01*
X195551Y243721D02*
X198280D01*
X167223Y233531D02*
X171412Y237720D01*
X189449D01*
X164000Y233531D02*
X167223D01*
X189449Y237720D02*
Y243721D01*
X164000Y231563D02*
X164157Y231720D01*
X189449Y225721D02*
Y231720D01*
X198221Y225721D02*
X198500Y226000D01*
X195551Y225721D02*
X198221D01*
X164000Y235500D02*
Y238000D01*
Y219500D02*
Y221721D01*
X160000Y215772D02*
Y222106D01*
X161583Y223689D01*
X164000D01*
X166000Y215772D02*
X168000Y217772D01*
Y224500D01*
X166842Y225658D02*
X168000Y224500D01*
X164000Y225658D02*
X166842D01*
X170949Y216551D02*
X171000Y216500D01*
X170949Y216551D02*
Y219721D01*
Y225721D01*
X169043Y227626D02*
X170949Y225721D01*
X164000Y227626D02*
X169043D01*
X177000Y223000D02*
Y225669D01*
X177051Y225721D01*
X177000Y222500D02*
Y223000D01*
X177051Y222949D01*
X163000Y209669D02*
X166000D01*
X160000D02*
X163000D01*
X312898Y187000D02*
Y193000D01*
Y186598D02*
Y187000D01*
X304300Y178000D02*
X312898Y186598D01*
X309000Y141000D02*
Y142500D01*
X307748Y139748D02*
X309000Y141000D01*
X304300Y147200D02*
X309000Y142500D01*
X304925Y139748D02*
X307748D01*
X312898Y181000D02*
Y181602D01*
Y175000D02*
Y181000D01*
X310700Y140296D02*
Y143204D01*
X308184Y137779D02*
X310700Y140296D01*
X306000Y147904D02*
X310700Y143204D01*
X304925Y137779D02*
X308184D01*
X298298Y138202D02*
X299844Y139748D01*
X304925D01*
X300279Y137779D02*
X304925D01*
X136500Y182169D02*
X139012Y184681D01*
X142313D01*
X142963Y184031D01*
X145299D01*
X138575Y180095D02*
X145299D01*
X136500Y182169D02*
X138575Y180095D01*
X141000Y182500D02*
X141450D01*
X141513Y182563D01*
X142013Y182063D01*
X145299D01*
X160777Y174189D02*
X164000D01*
X160000Y173412D02*
X160777Y174189D01*
X160000Y166272D02*
Y173412D01*
X166000Y166272D02*
X168000Y168272D01*
Y175000D01*
X166842Y176157D02*
X168000Y175000D01*
X164000Y176157D02*
X166842D01*
X164000Y186000D02*
Y188500D01*
Y170500D02*
Y172221D01*
X170949Y167051D02*
X171000Y167000D01*
X170949Y167051D02*
Y170220D01*
Y176221D01*
X169043Y178126D02*
X170949Y176221D01*
X164000Y178126D02*
X169043D01*
X166778Y184031D02*
X171019Y188272D01*
X164000Y184031D02*
X166778D01*
X171019Y188272D02*
X183500D01*
X164000Y182063D02*
X164106Y182169D01*
X183500D02*
X183551Y182220D01*
X189449D01*
Y176221D02*
Y182220D01*
X183500Y188272D02*
X183551Y188221D01*
X189449D01*
Y194220D01*
X198280D02*
X198500Y194000D01*
X195551Y194220D02*
X198280D01*
X198221Y176221D02*
X198500Y176500D01*
X195551Y176221D02*
X198221D01*
X177000Y176169D02*
X177051Y176221D01*
X177000Y173000D02*
Y176169D01*
Y173000D02*
X177051Y172949D01*
Y170220D02*
Y172949D01*
X165831Y160000D02*
X166000Y160169D01*
X163000Y160000D02*
X165831D01*
X162831Y160169D02*
X163000Y160000D01*
X160000Y160169D02*
X162831D01*
X300612Y125092D02*
X301488Y125969D01*
X304925D01*
X300513Y115150D02*
X301488Y116126D01*
X304925D01*
X270300Y146142D02*
Y149447D01*
X260051Y157720D02*
X261432D01*
X300000Y127000D02*
X300937Y127937D01*
X288719Y126502D02*
X298798D01*
X311500Y159000D02*
X312898Y157602D01*
Y157000D02*
Y157602D01*
X309500Y149404D02*
X314200Y144704D01*
Y133296D02*
Y144704D01*
X312898Y151000D02*
Y157000D01*
X308841Y127937D02*
X314200Y133296D01*
X304925Y127937D02*
X308841D01*
X300937D02*
X304925D01*
X312898Y163000D02*
Y169000D01*
X307800Y157902D02*
X312898Y163000D01*
X312500Y134000D02*
Y144000D01*
X308405Y129905D02*
X312500Y134000D01*
X307800Y148700D02*
X312500Y144000D01*
X304925Y129905D02*
X308405D01*
X300501D02*
X304925D01*
X298798Y128202D02*
X300501Y129905D01*
X273727Y137869D02*
X282530Y129066D01*
X225277Y143689D02*
X228500D01*
X224500Y142912D02*
X225277Y143689D01*
X224500Y135772D02*
Y142912D01*
X228500Y145658D02*
X231723D01*
X232286Y145094D01*
Y137558D02*
Y145094D01*
X230500Y135772D02*
X232286Y137558D01*
X228500Y155500D02*
Y158000D01*
Y139500D02*
Y141720D01*
Y151563D02*
X228606Y151669D01*
X231723Y153532D02*
X235963Y157772D01*
X228500Y153532D02*
X231723D01*
X235963Y157772D02*
X248000D01*
X248051Y157720D01*
X253949D01*
X248000Y151669D02*
X248051Y151720D01*
X253949D01*
Y157720D02*
Y163721D01*
Y145721D02*
Y151720D01*
X262280Y163721D02*
X263000Y163000D01*
X260051Y163721D02*
X262280D01*
X262720Y145721D02*
X263000Y146000D01*
X260051Y145721D02*
X262720D01*
X241551D02*
X241600Y145672D01*
Y142700D02*
Y145672D01*
X241551Y142651D02*
X241600Y142700D01*
X241551Y139720D02*
Y142651D01*
X235400Y136600D02*
X235449Y136649D01*
Y139720D01*
Y145721D01*
X233543Y147626D02*
X235449Y145721D01*
X228500Y147626D02*
X233543D01*
X206968Y153532D02*
X209799D01*
X206400Y154100D02*
X206968Y153532D01*
X204331Y154100D02*
X206400D01*
X201900Y151669D02*
X204331Y154100D01*
X209624Y149419D02*
X209799Y149594D01*
X204150Y149419D02*
X209624D01*
X201900Y151669D02*
X204150Y149419D01*
X205800Y151600D02*
X205837Y151563D01*
X209799D01*
X230495Y55700D02*
X230500Y55705D01*
X227400Y55700D02*
X230495D01*
X227395Y55705D02*
X227400Y55700D01*
X224500Y55705D02*
X227395D01*
X165969Y92200D02*
X166000Y92169D01*
X162700Y92200D02*
X165969D01*
X160000Y92169D02*
X162669D01*
X162700Y92200D01*
X230431Y129600D02*
X230500Y129669D01*
X227500Y129600D02*
X230431D01*
X227431Y129669D02*
X227500Y129600D01*
X224500Y129669D02*
X227431D01*
X207500Y118206D02*
X298983D01*
X195551Y114220D02*
X198968D01*
X308906Y118095D02*
X312500Y114500D01*
Y103904D02*
Y114500D01*
X312898Y85000D02*
Y85602D01*
Y79000D02*
Y85000D01*
X304925Y118095D02*
X308906D01*
X307300Y98704D02*
X312500Y103904D01*
X309437Y120063D02*
X314200Y115300D01*
Y103200D02*
Y115300D01*
X312898Y91000D02*
Y97000D01*
X304925Y120063D02*
X309437D01*
X309000Y98000D02*
X314200Y103200D01*
X298994Y116506D02*
X299000Y116500D01*
X298983Y118206D02*
X300840Y120063D01*
X304925D01*
X299000Y116500D02*
X299681D01*
X301276Y118095D01*
X304925D01*
X177000Y102272D02*
X177051Y102220D01*
X177000Y102272D02*
Y105000D01*
X177051Y105051D01*
Y108221D01*
X167354Y116032D02*
X171595Y120272D01*
X183500D02*
X183551Y120220D01*
X189449D01*
Y126221D01*
X183500Y114169D02*
X183551Y114220D01*
X189449D01*
Y108221D02*
Y114220D01*
X164000Y116032D02*
X167354D01*
X171595Y120272D02*
X183500D01*
X164000Y114063D02*
X167354D01*
X167461Y114169D01*
X198280Y126221D02*
X198500Y126000D01*
X195551Y126221D02*
X198280D01*
Y108221D02*
X198500Y108000D01*
X195551Y108221D02*
X198280D01*
X164000Y118000D02*
Y120500D01*
X138575Y112094D02*
X145299D01*
X136500Y114169D02*
X138575Y112094D01*
X142963Y116032D02*
X145299D01*
X141994Y117000D02*
X142963Y116032D01*
X139331Y117000D02*
X141994D01*
X136500Y114169D02*
X139331Y117000D01*
X141000Y114500D02*
X141500Y114000D01*
X141563Y114063D02*
X145299D01*
X164000Y102000D02*
Y104220D01*
X160777Y106189D02*
X164000D01*
X160000Y105412D02*
X160777Y106189D01*
X160000Y98272D02*
Y105412D01*
X164000Y108158D02*
X166778D01*
X167762Y107174D01*
Y100033D02*
Y107174D01*
X166000Y98272D02*
X167762Y100033D01*
X170949Y99051D02*
X171000Y99000D01*
X170949Y99051D02*
Y102220D01*
Y108221D01*
X169043Y110126D02*
X170949Y108221D01*
X164000Y110126D02*
X169043D01*
X487900Y348551D02*
Y354350D01*
X472900Y348551D02*
Y354350D01*
X442800Y348551D02*
Y354350D01*
X228500Y65000D02*
Y67756D01*
X225277Y69724D02*
X228500D01*
X224500Y68947D02*
X225277Y69724D01*
X224500Y61807D02*
Y68947D01*
X228500Y71693D02*
X231307D01*
X232500Y70500D01*
Y63807D02*
Y70500D01*
X230500Y61807D02*
X232500Y63807D01*
X-28000Y122500D02*
X-27606Y122106D01*
X-23900D01*
X-18000Y119000D02*
Y122106D01*
X-9106D02*
X-9000Y122000D01*
X-12149Y122106D02*
X-9106D01*
X-12153Y128205D02*
X-12149Y128209D01*
X51949Y16000D02*
X57949Y10000D01*
X72500D01*
X115000Y52500D01*
Y88500D01*
X106449Y97051D02*
X115000Y88500D01*
X102000Y97051D02*
X106449D01*
X110000Y50000D02*
Y73291D01*
X72500Y12500D02*
X110000Y50000D01*
X67449Y12500D02*
X72500D01*
X63949Y16000D02*
X67449Y12500D01*
X100610Y83661D02*
X102000Y85051D01*
X94839Y83661D02*
X100610D01*
X102000Y85051D02*
X102342Y84709D01*
X110000D01*
X102000Y85051D02*
Y90949D01*
X86000Y94000D02*
X92949D01*
X96000Y97051D01*
X92279Y87228D02*
X96000Y90949D01*
X92279Y83661D02*
Y87228D01*
X89720Y90622D02*
X90000Y90902D01*
X89720Y83661D02*
Y90622D01*
X92279Y63669D02*
X96949Y59000D01*
X92279Y63669D02*
Y66339D01*
X89720Y60331D02*
X91051Y59000D01*
X89720Y60331D02*
Y66339D01*
X58051Y16000D02*
X63949D01*
X310625Y104721D02*
Y107584D01*
X307989Y110221D02*
X310625Y107584D01*
X305500Y99596D02*
X310625Y104721D01*
X312898Y67000D02*
Y73000D01*
X311398Y65500D02*
X312898Y67000D01*
X304925Y110221D02*
X307989D01*
X300840D02*
X304925D01*
X308925Y105425D02*
Y106880D01*
X307553Y108252D02*
X308925Y106880D01*
X303800Y100300D02*
X308925Y105425D01*
X304925Y108252D02*
X307553D01*
X303800Y70098D02*
X312898Y61000D01*
Y55000D02*
Y61000D01*
X301276Y108252D02*
X304925D01*
X262244Y89756D02*
X262500Y89500D01*
X260051Y89756D02*
X262244D01*
X262256Y71756D02*
X262500Y72000D01*
X260051Y71756D02*
X262256D01*
X228500Y79567D02*
X231532D01*
X235500Y83535D01*
X235772Y83807D01*
X248000D01*
X248051Y83756D01*
X253949D01*
Y89756D01*
X228500Y77598D02*
X228606Y77705D01*
X248000D02*
X248051Y77756D01*
X253949D01*
Y71756D02*
Y77756D01*
X241551Y68500D02*
Y71756D01*
X235449Y62551D02*
X235500Y62500D01*
X235449Y62551D02*
Y65756D01*
Y71756D01*
X233543Y73661D02*
X235449Y71756D01*
X228500Y73661D02*
X233543D01*
X472900Y342449D02*
Y345000D01*
X345260Y281740D02*
X346949D01*
X343480Y283520D02*
X345260Y281740D01*
X327024Y283520D02*
X343480D01*
X327024Y285488D02*
X327193Y285319D01*
X343354D02*
X344776Y286740D01*
X327193Y285319D02*
X343354D01*
X322000Y329000D02*
X326596Y324404D01*
Y295000D02*
Y324404D01*
X320311Y329000D02*
X322000D01*
X323076Y283520D02*
X327024D01*
X319051Y327740D02*
X320311Y329000D01*
X319051Y321740D02*
Y327740D01*
X320300Y288704D02*
X326596Y295000D01*
X320300Y286296D02*
X323076Y283520D01*
X320300Y286296D02*
Y288704D01*
X328296Y294296D02*
Y325108D01*
X322000Y288000D02*
X328296Y294296D01*
X323512Y285488D02*
X327024D01*
X319051Y333740D02*
Y339740D01*
Y333740D02*
X319664D01*
X328296Y325108D01*
X322000Y287000D02*
X323512Y285488D01*
X322000Y287000D02*
Y288000D01*
X344776Y286740D02*
X346949D01*
X322650Y273946D02*
X326755D01*
X321000Y305000D02*
X323000Y303000D01*
Y296404D02*
Y303000D01*
X326755Y273946D02*
X327024Y273677D01*
X320311Y305000D02*
X321000D01*
X319051Y303740D02*
X320311Y305000D01*
X319051Y297740D02*
Y303740D01*
X316800Y290204D02*
X323000Y296404D01*
X316800Y279796D02*
X322650Y273946D01*
X316800Y279796D02*
Y290204D01*
X319051Y309353D02*
Y309740D01*
X324700Y295700D02*
Y303704D01*
X323354Y275646D02*
X327024D01*
X319051Y309353D02*
X324700Y303704D01*
X319051Y309740D02*
Y315740D01*
X318500Y289500D02*
X324700Y295700D01*
X318500Y280500D02*
X323354Y275646D01*
X318500Y280500D02*
Y289500D01*
X344776Y271740D02*
X346949D01*
X343016Y273500D02*
X344776Y271740D01*
Y276740D02*
X346949D01*
X343235Y275200D02*
X344776Y276740D01*
X331555Y275200D02*
X343235D01*
X330850Y273500D02*
X343016D01*
X331109Y275646D02*
X331555Y275200D01*
X327024Y275646D02*
X331109D01*
X330673Y273677D02*
X330850Y273500D01*
X327024Y273677D02*
X330673D01*
X344260Y261740D02*
X346949D01*
X342819Y263181D02*
X344260Y261740D01*
X331327Y263181D02*
X342819D01*
X330673Y263835D02*
X331327Y263181D01*
X331109Y265803D02*
X332031Y264881D01*
X342916D02*
X344776Y266740D01*
X332031Y264881D02*
X342916D01*
X323835Y263835D02*
X327024D01*
X324000Y236189D02*
Y245404D01*
X319051Y225240D02*
Y231240D01*
X319000Y259000D02*
X323835Y263835D01*
X319000Y250404D02*
X324000Y245404D01*
X319000Y250404D02*
Y259000D01*
X319051Y231240D02*
X324000Y236189D01*
X322803Y265803D02*
X327024D01*
X322000Y237000D02*
Y245000D01*
X321000Y236000D02*
X322000Y237000D01*
X320000Y236000D02*
X321000D01*
X317300Y260300D02*
X322803Y265803D01*
X317300Y249700D02*
X322000Y245000D01*
X317300Y249700D02*
Y260300D01*
X319051Y236949D02*
X320000Y236000D01*
X319051Y237240D02*
Y243240D01*
Y236949D02*
Y237240D01*
X344776Y266740D02*
X346949D01*
X327024Y265803D02*
X331109D01*
X327024Y263835D02*
X330673D01*
X323992Y253992D02*
X327024D01*
X323000Y251000D02*
X327700Y246300D01*
Y215889D02*
Y246300D01*
X323000Y253000D02*
X323992Y253992D01*
X319051Y207240D02*
X327700Y215889D01*
X323000Y251000D02*
Y253000D01*
X319051Y201240D02*
Y207240D01*
X323556Y255961D02*
X327024D01*
X321300Y250296D02*
X326000Y245596D01*
X321300Y250296D02*
Y253704D01*
X326000Y217000D02*
Y245596D01*
X321300Y253704D02*
X323556Y255961D01*
X321000Y212000D02*
X326000Y217000D01*
X319051Y213240D02*
Y219240D01*
X320291Y212000D02*
X321000D01*
X319051Y213240D02*
X320291Y212000D01*
X344776Y251740D02*
X346949D01*
X343516Y253000D02*
X344776Y251740D01*
Y256740D02*
X346949D01*
X342735Y254700D02*
X344776Y256740D01*
X332369Y254700D02*
X342735D01*
X331109Y255961D02*
X332369Y254700D01*
X327024Y255961D02*
X331109D01*
X331665Y253000D02*
X343516D01*
X330673Y253992D02*
X331665Y253000D01*
X327024Y253992D02*
X330673D01*
X338500Y291000D02*
X338791D01*
X341051Y288740D01*
X336189Y287500D02*
X337500D01*
X334949Y288740D02*
X336189Y287500D01*
X338500Y281000D02*
X338791D01*
X341051Y278740D01*
X336189Y277500D02*
X337500D01*
X334949Y278740D02*
X336189Y277500D01*
X338500Y271000D02*
Y271291D01*
X336189Y267500D02*
X337500D01*
X334949Y268740D02*
X336189Y267500D01*
X338500Y261000D02*
X338791D01*
X341051Y258740D01*
X336189Y257500D02*
X337500D01*
X334949Y258740D02*
X336189Y257500D01*
X334138Y257929D02*
X334949Y258740D01*
X327024Y257929D02*
X334138D01*
X333980Y267772D02*
X334949Y268740D01*
X327024Y267772D02*
X333980D01*
X333823Y277614D02*
X334949Y278740D01*
X327024Y277614D02*
X333823D01*
X333665Y287457D02*
X334949Y288740D01*
X327024Y287457D02*
X333665D01*
X293209Y290000D02*
X293500D01*
X290949Y287740D02*
X293209Y290000D01*
X290949Y277740D02*
X293209Y280000D01*
X293000Y269791D02*
X293209D01*
X290949Y267740D02*
X293000Y269791D01*
X290949Y257740D02*
X293209Y260000D01*
X294500Y257000D02*
X296311D01*
X297051Y257740D01*
X297240Y257929D01*
X304976D01*
X294000Y267000D02*
X294500D01*
X295689D01*
X296000Y266689D02*
X297051Y267740D01*
X297083Y267772D01*
X304976D01*
X294500Y277000D02*
X296311D01*
X297051Y277740D01*
X297177Y277614D01*
X304976D01*
X294500Y287000D02*
X296311D01*
X297051Y287740D01*
X297335Y287457D01*
X304976D01*
X339000Y145000D02*
X341000Y143000D01*
X339000Y135000D02*
X341000Y133000D01*
X339000Y125000D02*
X341000Y123000D01*
X339000Y115000D02*
X341000Y113000D01*
X292898Y114000D02*
X293500D01*
X290898Y112000D02*
X292898Y114000D01*
Y124000D02*
X293500D01*
X290898Y122000D02*
X292898Y124000D01*
Y134000D02*
X293500D01*
X290898Y132000D02*
X292898Y134000D01*
Y144000D02*
X293500D01*
X290898Y142000D02*
X292898Y144000D01*
X294500Y141000D02*
X296000D01*
X297000Y142000D01*
X294500Y131000D02*
X296000D01*
X297000Y132000D01*
X294500Y121000D02*
X296000D01*
X297000Y122000D01*
X294500Y111000D02*
X296000D01*
X297000Y112000D01*
Y142000D02*
X297284Y141717D01*
X304925D01*
X297000Y132000D02*
X297126Y131874D01*
X304925D01*
X297000Y122000D02*
X297031Y122031D01*
X304925D01*
X297000Y112000D02*
X297189Y112189D01*
X304925D01*
X319000Y187000D02*
X327700Y178300D01*
X322500Y142000D02*
X327700Y147200D01*
X320800Y142800D02*
X326000Y148000D01*
X320800Y140296D02*
Y142800D01*
X322500Y141000D02*
Y142000D01*
X330756Y128071D02*
X343000D01*
X326972Y127937D02*
X330432D01*
X317300Y133700D02*
Y144300D01*
X322500Y149500D01*
X319000Y134500D02*
Y143500D01*
X324200Y148700D01*
X319000Y162200D02*
X324200Y157000D01*
X319000Y162200D02*
Y163000D01*
Y187000D02*
Y193000D01*
Y175000D02*
Y181000D01*
Y163000D02*
Y169000D01*
Y151000D02*
Y157000D01*
X317300Y133700D02*
X323063Y127937D01*
X326972D01*
X319000Y134500D02*
X323594Y129905D01*
X326972D01*
X322973Y105660D02*
X328128Y100504D01*
X317800Y103200D02*
Y114204D01*
X323390Y119794D01*
X326704D01*
X326972Y120063D01*
X319500Y113500D02*
X324095Y118095D01*
X319500Y103904D02*
Y113500D01*
Y103904D02*
X324700Y98704D01*
X317800Y103200D02*
X323000Y98000D01*
X331024Y109819D02*
X344046D01*
X321273Y104955D02*
Y107677D01*
Y104955D02*
X326428Y99800D01*
X321273Y107677D02*
X323816Y110221D01*
X322973Y106973D02*
X324252Y108252D01*
X322973Y105660D02*
Y106973D01*
X324095Y118095D02*
X326972D01*
X323816Y110221D02*
X326972D01*
X324252Y108252D02*
X326972D01*
X319000Y67000D02*
Y73000D01*
X326972Y110221D02*
X330622D01*
X331024Y109819D01*
X319000Y55000D02*
Y61000D01*
X330186Y108252D02*
X330319Y108119D01*
X326972Y108252D02*
X330186D01*
X319000Y79000D02*
Y85000D01*
Y91000D02*
Y97000D01*
X346118Y126780D02*
X346898Y126000D01*
X330866Y119819D02*
X344046D01*
X326972Y120063D02*
X330622D01*
X330866Y119819D01*
X335000Y113000D02*
X335750Y112250D01*
X334898Y113000D02*
X335000D01*
X335898Y122000D02*
X337500D01*
X334898Y123000D02*
X335898Y122000D01*
Y142000D02*
X337500D01*
X334898Y143000D02*
X335898Y142000D01*
X334898Y133000D02*
X335898Y132000D01*
X333614Y141717D02*
X334898Y143000D01*
X326972Y141717D02*
X333614D01*
X333772Y131874D02*
X334898Y133000D01*
X326972Y131874D02*
X333772D01*
X334087Y112189D02*
X334898Y113000D01*
X326972Y112189D02*
X334087D01*
X333929Y122031D02*
X334898Y123000D01*
X326972Y122031D02*
X333929D01*
D22*
X-49000Y129134D02*
D03*
Y132283D02*
D03*
Y135433D02*
D03*
Y138583D02*
D03*
Y141732D02*
D03*
Y144882D02*
D03*
Y148031D02*
D03*
Y151181D02*
D03*
Y154331D02*
D03*
Y157480D02*
D03*
Y160630D02*
D03*
Y163779D02*
D03*
Y166929D02*
D03*
Y170079D02*
D03*
Y173228D02*
D03*
Y176378D02*
D03*
Y179528D02*
D03*
Y182677D02*
D03*
Y198425D02*
D03*
Y201575D02*
D03*
Y204724D02*
D03*
Y207874D02*
D03*
Y211024D02*
D03*
Y214173D02*
D03*
Y217323D02*
D03*
Y220472D02*
D03*
Y223622D02*
D03*
Y226772D02*
D03*
Y229921D02*
D03*
Y233071D02*
D03*
Y236221D02*
D03*
Y239370D02*
D03*
Y242520D02*
D03*
Y245669D02*
D03*
Y248819D02*
D03*
Y251969D02*
D03*
Y255118D02*
D03*
Y258268D02*
D03*
Y261417D02*
D03*
Y264567D02*
D03*
D23*
X17200Y354161D02*
D03*
Y336839D02*
D03*
X482951Y36460D02*
D03*
Y53783D02*
D03*
X18800Y17139D02*
D03*
Y34461D02*
D03*
D24*
X60700Y199700D02*
D03*
Y205409D02*
D03*
Y193991D02*
D03*
X67100D02*
D03*
Y205409D02*
D03*
Y199700D02*
D03*
X60700Y193991D02*
D03*
Y205409D02*
D03*
Y199700D02*
D03*
X67100Y193991D02*
D03*
Y205409D02*
D03*
Y199700D02*
D03*
D25*
X52700Y199951D02*
D03*
Y193849D02*
D03*
X73900Y199951D02*
D03*
Y193849D02*
D03*
X457900Y348551D02*
D03*
Y342449D02*
D03*
X105520Y357727D02*
D03*
Y363829D02*
D03*
Y370427D02*
D03*
Y376529D02*
D03*
X98820D02*
D03*
Y370427D02*
D03*
X542200Y280998D02*
D03*
Y287100D02*
D03*
X160000Y215772D02*
D03*
Y209669D02*
D03*
Y98272D02*
D03*
Y92169D02*
D03*
X159000Y278669D02*
D03*
Y284772D02*
D03*
X160000Y166272D02*
D03*
Y160169D02*
D03*
X337700Y28351D02*
D03*
Y22249D02*
D03*
X487900Y349051D02*
D03*
Y342949D02*
D03*
X442800Y348551D02*
D03*
Y342449D02*
D03*
X472900D02*
D03*
Y348551D02*
D03*
X224500Y55705D02*
D03*
Y61807D02*
D03*
X222500Y250689D02*
D03*
Y256791D02*
D03*
X224500Y135772D02*
D03*
Y129669D02*
D03*
X221000Y316169D02*
D03*
Y322272D02*
D03*
X197500Y60949D02*
D03*
Y67051D02*
D03*
X194000Y327551D02*
D03*
Y321449D02*
D03*
X-12149Y128209D02*
D03*
Y122106D02*
D03*
X-23900Y128209D02*
D03*
Y122106D02*
D03*
X-18000Y128209D02*
D03*
Y122106D02*
D03*
X96000Y97051D02*
D03*
Y90949D02*
D03*
X102000D02*
D03*
Y97051D02*
D03*
Y78949D02*
D03*
Y85051D02*
D03*
X-12500Y157051D02*
D03*
Y150949D02*
D03*
D26*
X453500Y215991D02*
D03*
Y225204D02*
D03*
X452017Y210028D02*
D03*
Y200816D02*
D03*
X470500Y184516D02*
D03*
Y193728D02*
D03*
X453500Y159119D02*
D03*
Y168331D02*
D03*
X470500Y250816D02*
D03*
Y241603D02*
D03*
X469017Y226422D02*
D03*
Y235635D02*
D03*
X452017Y143906D02*
D03*
Y153119D02*
D03*
X470500Y142835D02*
D03*
Y133622D02*
D03*
X469017Y118522D02*
D03*
Y127735D02*
D03*
X452017Y251622D02*
D03*
Y260835D02*
D03*
X453500Y117135D02*
D03*
Y107922D02*
D03*
X452017Y92816D02*
D03*
Y102028D02*
D03*
X453500Y276035D02*
D03*
Y266822D02*
D03*
X469017Y169222D02*
D03*
Y178435D02*
D03*
Y277422D02*
D03*
Y286635D02*
D03*
X470500Y301735D02*
D03*
Y292522D02*
D03*
D27*
X445500Y222180D02*
D03*
Y216077D02*
D03*
X445451Y203971D02*
D03*
Y210073D02*
D03*
X462400Y190651D02*
D03*
Y184549D02*
D03*
X445500Y165276D02*
D03*
Y159174D02*
D03*
X462451Y172377D02*
D03*
Y178480D02*
D03*
Y235631D02*
D03*
Y229528D02*
D03*
X462400Y241649D02*
D03*
Y247751D02*
D03*
X445451Y153164D02*
D03*
Y147061D02*
D03*
X462400Y133749D02*
D03*
Y139851D02*
D03*
X462451Y127779D02*
D03*
Y121677D02*
D03*
X445451Y260879D02*
D03*
Y254777D02*
D03*
X445500Y107977D02*
D03*
Y114079D02*
D03*
X445451Y102079D02*
D03*
Y95977D02*
D03*
X445500Y266877D02*
D03*
Y272979D02*
D03*
X462451Y286579D02*
D03*
Y280477D02*
D03*
X462400Y292549D02*
D03*
Y298651D02*
D03*
X92920Y376534D02*
D03*
Y370432D02*
D03*
X57920Y349027D02*
D03*
Y355129D02*
D03*
X425800Y156551D02*
D03*
Y150449D02*
D03*
Y181551D02*
D03*
Y175449D02*
D03*
Y213051D02*
D03*
Y206949D02*
D03*
Y238551D02*
D03*
Y232449D02*
D03*
Y264051D02*
D03*
Y257949D02*
D03*
Y289551D02*
D03*
Y283449D02*
D03*
Y131051D02*
D03*
Y124949D02*
D03*
Y105051D02*
D03*
Y98949D02*
D03*
X137000Y237772D02*
D03*
Y231669D02*
D03*
X136500Y120272D02*
D03*
Y114169D02*
D03*
X136000Y306772D02*
D03*
Y300669D02*
D03*
X136500Y188272D02*
D03*
Y182169D02*
D03*
X166000Y209669D02*
D03*
Y215772D02*
D03*
Y92169D02*
D03*
Y98272D02*
D03*
X165000Y278669D02*
D03*
Y284772D02*
D03*
X166000Y160169D02*
D03*
Y166272D02*
D03*
X183500Y237772D02*
D03*
Y231669D02*
D03*
Y120272D02*
D03*
Y114169D02*
D03*
X182500Y306772D02*
D03*
Y300669D02*
D03*
X183500Y188272D02*
D03*
Y182169D02*
D03*
X512500Y100949D02*
D03*
Y107051D02*
D03*
Y77051D02*
D03*
Y70949D02*
D03*
X201500Y83807D02*
D03*
Y77705D02*
D03*
X199500Y278791D02*
D03*
Y272689D02*
D03*
X201900Y157772D02*
D03*
Y151669D02*
D03*
X198500Y344272D02*
D03*
Y338169D02*
D03*
X230500Y55705D02*
D03*
Y61807D02*
D03*
X228500Y250689D02*
D03*
Y256791D02*
D03*
X230500Y129669D02*
D03*
Y135772D02*
D03*
X227000Y316169D02*
D03*
Y322272D02*
D03*
X248000Y83807D02*
D03*
Y77705D02*
D03*
X246000Y278791D02*
D03*
Y272689D02*
D03*
X248000Y157772D02*
D03*
Y151669D02*
D03*
X244500Y344272D02*
D03*
Y338169D02*
D03*
X58000Y68949D02*
D03*
Y75051D02*
D03*
X90000Y97004D02*
D03*
Y90902D02*
D03*
X120000Y18949D02*
D03*
Y25051D02*
D03*
X512500Y47051D02*
D03*
Y40949D02*
D03*
D28*
X-7982Y245700D02*
D03*
X-18218D02*
D03*
X49118Y110000D02*
D03*
X38882D02*
D03*
X32982Y378700D02*
D03*
X43218D02*
D03*
X12882Y272078D02*
D03*
X23118D02*
D03*
D29*
X15951Y142200D02*
D03*
X9849D02*
D03*
X15933Y167000D02*
D03*
X9831D02*
D03*
X80327Y370913D02*
D03*
X86430D02*
D03*
X58671Y295378D02*
D03*
X52569D02*
D03*
X94771Y338760D02*
D03*
X88669D02*
D03*
X83051Y91000D02*
D03*
X76949D02*
D03*
X177051Y225721D02*
D03*
X170949D02*
D03*
X177051Y108221D02*
D03*
X170949D02*
D03*
X176051Y294721D02*
D03*
X169949D02*
D03*
X177051Y176221D02*
D03*
X170949D02*
D03*
X177051Y219721D02*
D03*
X170949D02*
D03*
X177051Y102220D02*
D03*
X170949D02*
D03*
X176051Y288720D02*
D03*
X169949D02*
D03*
X177051Y170220D02*
D03*
X170949D02*
D03*
X189449Y225721D02*
D03*
X195551D02*
D03*
X189449Y108221D02*
D03*
X195551D02*
D03*
X188449Y294721D02*
D03*
X194551D02*
D03*
X189449Y176221D02*
D03*
X195551D02*
D03*
Y243721D02*
D03*
X189449D02*
D03*
X195551Y126221D02*
D03*
X189449D02*
D03*
X194551Y312720D02*
D03*
X188449D02*
D03*
X195551Y194220D02*
D03*
X189449D02*
D03*
X312898Y55000D02*
D03*
X319000D02*
D03*
X312949Y201240D02*
D03*
X319051D02*
D03*
X312898Y73000D02*
D03*
X319000D02*
D03*
X312949Y219240D02*
D03*
X319051D02*
D03*
X312898Y79000D02*
D03*
X319000D02*
D03*
X312949Y225240D02*
D03*
X319051D02*
D03*
X312898Y97000D02*
D03*
X319000D02*
D03*
X312949Y243240D02*
D03*
X319051D02*
D03*
X312898Y151000D02*
D03*
X319000D02*
D03*
X312949Y297740D02*
D03*
X319051D02*
D03*
X312898Y169000D02*
D03*
X319000D02*
D03*
X312949Y315740D02*
D03*
X319051D02*
D03*
X312898Y175000D02*
D03*
X319000D02*
D03*
X312949Y321740D02*
D03*
X319051D02*
D03*
X312898Y193000D02*
D03*
X319000D02*
D03*
X312949Y339740D02*
D03*
X319051D02*
D03*
X341000Y143000D02*
D03*
X334898D02*
D03*
X341051Y288740D02*
D03*
X334949D02*
D03*
X341000Y133000D02*
D03*
X334898D02*
D03*
X341051Y278740D02*
D03*
X334949D02*
D03*
X341000Y123000D02*
D03*
X334898D02*
D03*
X341051Y268740D02*
D03*
X334949D02*
D03*
X341000Y113000D02*
D03*
X334898D02*
D03*
X341051Y258740D02*
D03*
X334949D02*
D03*
X290898Y142000D02*
D03*
X297000D02*
D03*
X290949Y287740D02*
D03*
X297051D02*
D03*
X290898Y132000D02*
D03*
X297000D02*
D03*
X290949Y277740D02*
D03*
X297051D02*
D03*
X290898Y122000D02*
D03*
X297000D02*
D03*
X290949Y267740D02*
D03*
X297051D02*
D03*
X290898Y112000D02*
D03*
X297000D02*
D03*
X290949Y257740D02*
D03*
X297051D02*
D03*
X400449Y114000D02*
D03*
X406551D02*
D03*
X400449Y222000D02*
D03*
X406551D02*
D03*
X400449Y139500D02*
D03*
X406551D02*
D03*
X400449Y247500D02*
D03*
X406551D02*
D03*
X400449Y165000D02*
D03*
X406551D02*
D03*
X400449Y273000D02*
D03*
X406551D02*
D03*
X400449Y190500D02*
D03*
X406551D02*
D03*
X400449Y298500D02*
D03*
X406551D02*
D03*
X241551Y71756D02*
D03*
X235449D02*
D03*
X239551Y266740D02*
D03*
X233449D02*
D03*
X241551Y145721D02*
D03*
X235449D02*
D03*
X238051Y332221D02*
D03*
X231949D02*
D03*
X241551Y65756D02*
D03*
X235449D02*
D03*
X239551Y260740D02*
D03*
X233449D02*
D03*
X241551Y139720D02*
D03*
X235449D02*
D03*
X238051Y326220D02*
D03*
X231949D02*
D03*
X253949Y71756D02*
D03*
X260051D02*
D03*
X251949Y266740D02*
D03*
X258051D02*
D03*
X253949Y145721D02*
D03*
X260051D02*
D03*
X250449Y332221D02*
D03*
X256551D02*
D03*
X260051Y89756D02*
D03*
X253949D02*
D03*
X258051Y284740D02*
D03*
X251949D02*
D03*
X260051Y163721D02*
D03*
X253949D02*
D03*
X256551Y350220D02*
D03*
X250449D02*
D03*
X84949Y59000D02*
D03*
X91051D02*
D03*
X58051Y16000D02*
D03*
X51949D02*
D03*
X128051Y48000D02*
D03*
X121949D02*
D03*
X16949Y288078D02*
D03*
X23051D02*
D03*
X15949Y308078D02*
D03*
X22051D02*
D03*
X331846Y45400D02*
D03*
X337949D02*
D03*
D30*
X457900Y360650D02*
D03*
Y354350D02*
D03*
X442800Y360650D02*
D03*
Y354350D02*
D03*
X472900D02*
D03*
Y360650D02*
D03*
X487900D02*
D03*
Y354350D02*
D03*
D31*
X459800Y260828D02*
D03*
X465902D02*
D03*
X459849Y266828D02*
D03*
X465951D02*
D03*
X459800Y210028D02*
D03*
X465902D02*
D03*
X459849Y215928D02*
D03*
X465951D02*
D03*
X459800Y153013D02*
D03*
X465902D02*
D03*
X459849Y159025D02*
D03*
X465951D02*
D03*
X459800Y102028D02*
D03*
X465902D02*
D03*
X459849Y107928D02*
D03*
X465951D02*
D03*
X476800Y127728D02*
D03*
X482902D02*
D03*
X476849Y133528D02*
D03*
X482951D02*
D03*
X476800Y178428D02*
D03*
X482902D02*
D03*
X476849Y184528D02*
D03*
X482951D02*
D03*
X476800Y235528D02*
D03*
X482902D02*
D03*
X476849Y241509D02*
D03*
X482951D02*
D03*
X476800Y286528D02*
D03*
X482902D02*
D03*
X476849Y292428D02*
D03*
X482951D02*
D03*
X100669Y338778D02*
D03*
X106771D02*
D03*
X74671Y295378D02*
D03*
X68569D02*
D03*
X33984Y164700D02*
D03*
X40087D02*
D03*
X33984Y159000D02*
D03*
X40087D02*
D03*
X33984Y153300D02*
D03*
X40087D02*
D03*
X33984Y147600D02*
D03*
X40087D02*
D03*
X33984Y139900D02*
D03*
X40087D02*
D03*
X33984Y134200D02*
D03*
X40087D02*
D03*
X33984Y128500D02*
D03*
X40087D02*
D03*
X33984Y122800D02*
D03*
X40087D02*
D03*
X189449Y231720D02*
D03*
X195551D02*
D03*
X189449Y114220D02*
D03*
X195551D02*
D03*
X194551Y300721D02*
D03*
X188449D02*
D03*
X189449Y182220D02*
D03*
X195551D02*
D03*
X189449Y237720D02*
D03*
X195551D02*
D03*
X189449Y120220D02*
D03*
X195551D02*
D03*
X194551Y306720D02*
D03*
X188449D02*
D03*
X189449Y188221D02*
D03*
X195551D02*
D03*
X404910Y151323D02*
D03*
X398808D02*
D03*
X398755Y284728D02*
D03*
Y290600D02*
D03*
X398749Y259400D02*
D03*
Y265300D02*
D03*
Y234000D02*
D03*
Y239900D02*
D03*
X353051Y261740D02*
D03*
Y266740D02*
D03*
Y251740D02*
D03*
Y256740D02*
D03*
X398899Y208228D02*
D03*
Y214099D02*
D03*
X353000Y136000D02*
D03*
Y141000D02*
D03*
X398749Y176800D02*
D03*
Y182800D02*
D03*
X353000Y131000D02*
D03*
X398808Y157100D02*
D03*
X398849Y126100D02*
D03*
Y132000D02*
D03*
X353000Y116000D02*
D03*
Y121000D02*
D03*
Y106000D02*
D03*
Y111000D02*
D03*
X398849Y100504D02*
D03*
Y106283D02*
D03*
X404857Y284728D02*
D03*
X404851Y239900D02*
D03*
Y234000D02*
D03*
X405002Y214099D02*
D03*
Y208228D02*
D03*
X404851Y176800D02*
D03*
X404951Y132000D02*
D03*
Y126100D02*
D03*
Y100504D02*
D03*
Y106283D02*
D03*
X346898Y106000D02*
D03*
X346949Y251740D02*
D03*
X312898Y61000D02*
D03*
X319000D02*
D03*
X319051Y207240D02*
D03*
X312949D02*
D03*
X346898Y111000D02*
D03*
X346949Y256740D02*
D03*
X312898Y67000D02*
D03*
X319000D02*
D03*
X319051Y213240D02*
D03*
X312949D02*
D03*
X404851Y259400D02*
D03*
X404910Y157100D02*
D03*
X404851Y265300D02*
D03*
Y182800D02*
D03*
X404857Y290600D02*
D03*
X346898Y116000D02*
D03*
X346949Y261740D02*
D03*
X312898Y85000D02*
D03*
X319000D02*
D03*
X319051Y231240D02*
D03*
X312949D02*
D03*
X346898Y121000D02*
D03*
X346949Y266740D02*
D03*
X312898Y91000D02*
D03*
X319000D02*
D03*
X319051Y237240D02*
D03*
X312949D02*
D03*
X346898Y126000D02*
D03*
X353000D02*
D03*
X353051Y271740D02*
D03*
X346949D02*
D03*
X312898Y157000D02*
D03*
X319000D02*
D03*
X319051Y303740D02*
D03*
X312949D02*
D03*
X346898Y131000D02*
D03*
X346949Y276740D02*
D03*
X353051D02*
D03*
X312898Y163000D02*
D03*
X319000D02*
D03*
X319051Y309740D02*
D03*
X312949D02*
D03*
X346898Y136000D02*
D03*
X353051Y281740D02*
D03*
X346949D02*
D03*
X312898Y181000D02*
D03*
X319000D02*
D03*
X319051Y327740D02*
D03*
X312949D02*
D03*
X346898Y141000D02*
D03*
X346949Y286740D02*
D03*
X353051D02*
D03*
X312898Y187000D02*
D03*
X319000D02*
D03*
X319051Y333740D02*
D03*
X312949D02*
D03*
X260051Y77756D02*
D03*
X253949D02*
D03*
X258051Y272740D02*
D03*
X251949D02*
D03*
X253949Y151720D02*
D03*
X260051D02*
D03*
X256551Y338221D02*
D03*
X250449D02*
D03*
X260051Y83756D02*
D03*
X253949D02*
D03*
X258051Y278740D02*
D03*
X251949D02*
D03*
X253949Y157720D02*
D03*
X260051D02*
D03*
X256551Y344220D02*
D03*
X250449D02*
D03*
X63949Y16000D02*
D03*
X70051D02*
D03*
X96949Y59000D02*
D03*
X103051D02*
D03*
X-24551Y157000D02*
D03*
X-18449D02*
D03*
X-24551Y151000D02*
D03*
X-18449D02*
D03*
D32*
X98159Y363440D02*
D03*
X95600D02*
D03*
X93041D02*
D03*
X90481D02*
D03*
X98159Y346117D02*
D03*
X95600D02*
D03*
X93041D02*
D03*
X90481D02*
D03*
X87161Y66339D02*
D03*
X89720D02*
D03*
X92279D02*
D03*
X94839D02*
D03*
X87161Y83661D02*
D03*
X89720D02*
D03*
X92279D02*
D03*
X94839D02*
D03*
D33*
X47072Y320678D02*
D03*
X78568D02*
D03*
X42252Y41000D02*
D03*
X73748D02*
D03*
D34*
X80429Y346779D02*
D03*
Y361582D02*
D03*
X76910Y67701D02*
D03*
Y82504D02*
D03*
D35*
X113520Y352470D02*
D03*
Y363887D02*
D03*
X39120Y357687D02*
D03*
Y346270D02*
D03*
X48970Y357687D02*
D03*
Y346270D02*
D03*
X71979Y371327D02*
D03*
Y382744D02*
D03*
X62479Y371327D02*
D03*
Y382744D02*
D03*
X504000Y97791D02*
D03*
Y109209D02*
D03*
X504500Y51209D02*
D03*
Y39791D02*
D03*
Y69791D02*
D03*
Y81209D02*
D03*
X59000Y91433D02*
D03*
Y102850D02*
D03*
X69000Y91433D02*
D03*
Y102850D02*
D03*
X110000Y84709D02*
D03*
Y73291D02*
D03*
X40000Y77709D02*
D03*
Y66291D02*
D03*
X50000Y77709D02*
D03*
Y66291D02*
D03*
X112000Y16291D02*
D03*
Y27709D02*
D03*
D36*
X544109Y273300D02*
D03*
X532691D02*
D03*
X130709Y56000D02*
D03*
X119291D02*
D03*
X12291Y280078D02*
D03*
X23709D02*
D03*
X12291Y316078D02*
D03*
X23709D02*
D03*
X326083Y36900D02*
D03*
X337500D02*
D03*
D37*
X27417Y160039D02*
D03*
Y157480D02*
D03*
Y154920D02*
D03*
Y152361D02*
D03*
X4583D02*
D03*
Y154920D02*
D03*
Y157480D02*
D03*
Y160039D02*
D03*
X27417Y135259D02*
D03*
Y132700D02*
D03*
Y130141D02*
D03*
Y127582D02*
D03*
X4583D02*
D03*
Y130141D02*
D03*
Y132700D02*
D03*
Y135259D02*
D03*
D38*
X154650Y228610D02*
D03*
Y111110D02*
D03*
X153650Y297610D02*
D03*
X154650Y179110D02*
D03*
X219150Y74646D02*
D03*
X217150Y269630D02*
D03*
X219150Y148610D02*
D03*
X215650Y335110D02*
D03*
D39*
X145299Y235500D02*
D03*
Y233531D02*
D03*
Y231563D02*
D03*
Y229594D02*
D03*
Y227626D02*
D03*
Y225658D02*
D03*
Y223689D02*
D03*
Y221721D02*
D03*
X164000Y235500D02*
D03*
Y233531D02*
D03*
Y231563D02*
D03*
Y229594D02*
D03*
Y227626D02*
D03*
Y225658D02*
D03*
Y223689D02*
D03*
Y221721D02*
D03*
X145299Y118000D02*
D03*
Y116032D02*
D03*
Y114063D02*
D03*
Y112094D02*
D03*
Y110126D02*
D03*
Y108158D02*
D03*
Y106189D02*
D03*
Y104220D02*
D03*
X164000Y118000D02*
D03*
Y116032D02*
D03*
Y114063D02*
D03*
Y112094D02*
D03*
Y110126D02*
D03*
Y108158D02*
D03*
Y106189D02*
D03*
Y104220D02*
D03*
X163000Y290721D02*
D03*
Y292689D02*
D03*
Y294657D02*
D03*
Y296626D02*
D03*
Y298594D02*
D03*
Y300563D02*
D03*
Y302532D02*
D03*
Y304500D02*
D03*
X144299Y290721D02*
D03*
Y292689D02*
D03*
Y294657D02*
D03*
Y296626D02*
D03*
Y298594D02*
D03*
Y300563D02*
D03*
Y302532D02*
D03*
Y304500D02*
D03*
X145299Y186000D02*
D03*
Y184031D02*
D03*
Y182063D02*
D03*
Y180095D02*
D03*
Y178126D02*
D03*
Y176157D02*
D03*
Y174189D02*
D03*
Y172221D02*
D03*
X164000Y186000D02*
D03*
Y184031D02*
D03*
Y182063D02*
D03*
Y180095D02*
D03*
Y178126D02*
D03*
Y176157D02*
D03*
Y174189D02*
D03*
Y172221D02*
D03*
X228500Y67756D02*
D03*
Y69724D02*
D03*
Y71693D02*
D03*
Y73661D02*
D03*
Y75630D02*
D03*
Y77598D02*
D03*
Y79567D02*
D03*
Y81535D02*
D03*
X209799Y67756D02*
D03*
Y69724D02*
D03*
Y71693D02*
D03*
Y73661D02*
D03*
Y75630D02*
D03*
Y77598D02*
D03*
Y79567D02*
D03*
Y81535D02*
D03*
X226500Y262740D02*
D03*
Y264709D02*
D03*
Y266677D02*
D03*
Y268646D02*
D03*
Y270614D02*
D03*
Y272583D02*
D03*
Y274551D02*
D03*
Y276520D02*
D03*
X207799Y262740D02*
D03*
Y264709D02*
D03*
Y266677D02*
D03*
Y268646D02*
D03*
Y270614D02*
D03*
Y272583D02*
D03*
Y274551D02*
D03*
Y276520D02*
D03*
X209799Y155500D02*
D03*
Y153532D02*
D03*
Y151563D02*
D03*
Y149594D02*
D03*
Y147626D02*
D03*
Y145658D02*
D03*
Y143689D02*
D03*
Y141720D02*
D03*
X228500Y155500D02*
D03*
Y153532D02*
D03*
Y151563D02*
D03*
Y149594D02*
D03*
Y147626D02*
D03*
Y145658D02*
D03*
Y143689D02*
D03*
Y141720D02*
D03*
X225000Y328221D02*
D03*
Y330189D02*
D03*
Y332157D02*
D03*
Y334126D02*
D03*
Y336094D02*
D03*
Y338063D02*
D03*
Y340032D02*
D03*
Y342000D02*
D03*
X206299Y328221D02*
D03*
Y330189D02*
D03*
Y332157D02*
D03*
Y334126D02*
D03*
Y336094D02*
D03*
Y338063D02*
D03*
Y340032D02*
D03*
Y342000D02*
D03*
D40*
X434100Y175594D02*
D03*
Y187406D02*
D03*
Y150094D02*
D03*
Y161906D02*
D03*
Y124594D02*
D03*
Y136406D02*
D03*
Y99094D02*
D03*
Y110906D02*
D03*
Y218905D02*
D03*
Y207095D02*
D03*
Y244406D02*
D03*
Y232594D02*
D03*
Y269854D02*
D03*
Y258043D02*
D03*
Y295406D02*
D03*
Y283594D02*
D03*
D41*
X418839Y221858D02*
D03*
X416280D02*
D03*
X413721D02*
D03*
X411161D02*
D03*
X418839Y204142D02*
D03*
X416280D02*
D03*
X413721D02*
D03*
X411161D02*
D03*
X418839Y298358D02*
D03*
X416280D02*
D03*
X413721D02*
D03*
X411161D02*
D03*
X418839Y280642D02*
D03*
X416280D02*
D03*
X413721D02*
D03*
X411161D02*
D03*
X418839Y190358D02*
D03*
X416280D02*
D03*
X413721D02*
D03*
X411161D02*
D03*
X418839Y172642D02*
D03*
X416280D02*
D03*
X413721D02*
D03*
X411161D02*
D03*
X418839Y272807D02*
D03*
X416280D02*
D03*
X413721D02*
D03*
X411161D02*
D03*
X418839Y255090D02*
D03*
X416280D02*
D03*
X413721D02*
D03*
X411161D02*
D03*
X418839Y164858D02*
D03*
X416280D02*
D03*
X413721D02*
D03*
X411161D02*
D03*
X418839Y147142D02*
D03*
X416280D02*
D03*
X413721D02*
D03*
X411161D02*
D03*
X418839Y247358D02*
D03*
X416280D02*
D03*
X413721D02*
D03*
X411161D02*
D03*
X418839Y229642D02*
D03*
X416280D02*
D03*
X413721D02*
D03*
X411161D02*
D03*
X418839Y139358D02*
D03*
X416280D02*
D03*
X413721D02*
D03*
X411161D02*
D03*
X418839Y121642D02*
D03*
X416280D02*
D03*
X413721D02*
D03*
X411161D02*
D03*
Y96142D02*
D03*
X413721D02*
D03*
X416280D02*
D03*
X418839D02*
D03*
X411161Y113858D02*
D03*
X413721D02*
D03*
X416280D02*
D03*
X418839D02*
D03*
D42*
X103000Y16882D02*
D03*
Y27118D02*
D03*
D43*
X326972Y106283D02*
D03*
Y108252D02*
D03*
Y110221D02*
D03*
Y112189D02*
D03*
Y114157D02*
D03*
Y116126D02*
D03*
Y118095D02*
D03*
Y120063D02*
D03*
Y122031D02*
D03*
Y124000D02*
D03*
Y125969D02*
D03*
Y127937D02*
D03*
Y129905D02*
D03*
Y131874D02*
D03*
Y133843D02*
D03*
Y135811D02*
D03*
Y137779D02*
D03*
Y139748D02*
D03*
Y141717D02*
D03*
X304925Y106283D02*
D03*
Y108252D02*
D03*
Y110221D02*
D03*
Y112189D02*
D03*
Y114157D02*
D03*
Y116126D02*
D03*
Y118095D02*
D03*
Y120063D02*
D03*
Y122031D02*
D03*
Y124000D02*
D03*
Y125969D02*
D03*
Y127937D02*
D03*
Y129905D02*
D03*
Y131874D02*
D03*
Y133843D02*
D03*
Y135811D02*
D03*
Y137779D02*
D03*
Y139748D02*
D03*
Y141717D02*
D03*
X327024Y252024D02*
D03*
Y253992D02*
D03*
Y255961D02*
D03*
Y257929D02*
D03*
Y259898D02*
D03*
Y261866D02*
D03*
Y263835D02*
D03*
Y265803D02*
D03*
Y267772D02*
D03*
Y269740D02*
D03*
Y271709D02*
D03*
Y273677D02*
D03*
Y275646D02*
D03*
Y277614D02*
D03*
Y279583D02*
D03*
Y281551D02*
D03*
Y283520D02*
D03*
Y285488D02*
D03*
Y287457D02*
D03*
X304976Y252024D02*
D03*
Y253992D02*
D03*
Y255961D02*
D03*
Y257929D02*
D03*
Y259898D02*
D03*
Y261866D02*
D03*
Y263835D02*
D03*
Y265803D02*
D03*
Y267772D02*
D03*
Y269740D02*
D03*
Y271709D02*
D03*
Y273677D02*
D03*
Y275646D02*
D03*
Y277614D02*
D03*
Y279583D02*
D03*
Y281551D02*
D03*
Y283520D02*
D03*
Y285488D02*
D03*
Y287457D02*
D03*
D44*
X12843Y301818D02*
D03*
Y298078D02*
D03*
Y294338D02*
D03*
X23157D02*
D03*
Y298078D02*
D03*
Y301818D02*
D03*
D45*
X121260Y30843D02*
D03*
X125000D02*
D03*
X128740D02*
D03*
D46*
Y41157D02*
D03*
X121260D02*
D03*
D81*
X12700Y376700D02*
D03*
X44100Y386820D02*
D03*
X12700Y366300D02*
D03*
X171000Y231500D02*
D03*
X171000Y114000D02*
D03*
X170000Y300500D02*
D03*
X171000Y182000D02*
D03*
Y237500D02*
D03*
Y120000D02*
D03*
X170000Y306500D02*
D03*
X171000Y188000D02*
D03*
X235500Y77535D02*
D03*
X232000Y338000D02*
D03*
X235500Y151500D02*
D03*
X233500Y272520D02*
D03*
X232000Y344000D02*
D03*
X235500Y157500D02*
D03*
X233500Y278520D02*
D03*
X235500Y83535D02*
D03*
X81771Y187500D02*
D03*
Y195500D02*
D03*
Y203881D02*
D03*
Y212000D02*
D03*
X-7000Y190900D02*
D03*
Y182900D02*
D03*
Y174900D02*
D03*
X-6200Y160200D02*
D03*
Y146300D02*
D03*
X51200Y120037D02*
D03*
X30000Y98000D02*
D03*
X11000Y63500D02*
D03*
X119000Y65000D02*
D03*
X31000Y318778D02*
D03*
X351200Y36200D02*
D03*
D82*
X504500Y71000D02*
X507000Y73500D01*
X502000D02*
X504500Y71000D01*
Y41000D02*
X507000Y43500D01*
X502000D02*
X504500Y41000D01*
X-49000Y135433D02*
X-42000D01*
X472900Y360650D02*
Y363000D01*
X442800Y360650D02*
Y363040D01*
X457900Y354350D02*
X461200D01*
X-49000Y258268D02*
X-42000D01*
X-49000Y182677D02*
X-42000D01*
X-49000Y173228D02*
X-42000D01*
X-48990Y163790D02*
X-42010D01*
X-49000Y154331D02*
X-42000D01*
X-49000Y144882D02*
X-42000D01*
X338200Y36200D02*
X351200D01*
X487900Y360650D02*
Y363000D01*
X504500Y39791D02*
Y41000D01*
X505657Y40949D02*
X512500D01*
X504500Y69791D02*
X505657Y70949D01*
X512500D01*
X504500Y69791D02*
Y71000D01*
D83*
X103000Y13000D02*
X104000D01*
X103000D02*
Y16882D01*
X101500Y13000D02*
X103000D01*
X32900Y373800D02*
Y378700D01*
X421646Y283449D02*
X425800D01*
X419248Y281052D02*
X421646Y283449D01*
X425400Y283049D02*
X425800Y283449D01*
X425400Y279200D02*
Y283049D01*
X421697Y257949D02*
X425800D01*
X419224Y255476D02*
X421697Y257949D01*
X425400Y257549D02*
X425800Y257949D01*
X425400Y253700D02*
Y257549D01*
X421646Y232449D02*
X425800D01*
X419248Y230052D02*
X421646Y232449D01*
X425400Y232049D02*
X425800Y232449D01*
X425400Y228000D02*
Y232049D01*
X421646Y206949D02*
X425800D01*
X419273Y204576D02*
X421646Y206949D01*
X425400Y206549D02*
X425800Y206949D01*
X425400Y202100D02*
Y206549D01*
X421646Y175449D02*
X425800D01*
X419160Y172964D02*
X421646Y175449D01*
X425400Y175049D02*
X425800Y175449D01*
X425400Y171000D02*
Y175049D01*
X422146Y150449D02*
X425800D01*
X419198Y147502D02*
X422146Y150449D01*
X425400Y150049D02*
X425800Y150449D01*
X425400Y145100D02*
Y150049D01*
X425500Y124649D02*
X425800Y124949D01*
X425500Y120100D02*
Y124649D01*
X422146Y124949D02*
X425800D01*
X419198Y122002D02*
X422146Y124949D01*
X421646Y98949D02*
X425800D01*
X419179Y96482D02*
X421646Y98949D01*
X425500Y98649D02*
X425800Y98949D01*
X425500Y94500D02*
Y98649D01*
X12829Y268471D02*
Y272078D01*
Y268471D02*
X14000Y267300D01*
X497400Y105309D02*
X500100D01*
X504000Y109209D01*
X337500Y36900D02*
X338200Y36200D01*
X337500Y36900D02*
Y55900D01*
Y28651D02*
Y36900D01*
X337400Y28551D02*
X337500Y28651D01*
X337400Y28551D02*
X337700Y28251D01*
Y19300D02*
Y22249D01*
X500141Y101650D02*
X504000Y97791D01*
X521256Y99000D02*
X531256D01*
X519307Y100949D02*
X521256Y99000D01*
X512500Y100949D02*
X519307D01*
X507158D02*
X512500D01*
X504000Y97791D02*
X507158Y100949D01*
X521256Y109000D02*
X531256D01*
X519307Y107051D02*
X521256Y109000D01*
X512500Y107051D02*
X519307D01*
X506157D02*
X512500D01*
X504000Y109209D02*
X506157Y107051D01*
X38882Y112118D02*
X40000Y113236D01*
Y113500D01*
D84*
X384100Y319800D02*
D03*
Y309800D02*
D03*
X374100Y319800D02*
D03*
X361500Y228600D02*
D03*
Y218600D02*
D03*
X351500Y228600D02*
D03*
X361500Y175500D02*
D03*
Y165500D02*
D03*
X351500Y175500D02*
D03*
X384100Y84700D02*
D03*
Y74700D02*
D03*
X374100Y84700D02*
D03*
D85*
Y309800D02*
D03*
X351500Y218600D02*
D03*
Y165500D02*
D03*
X374100Y74700D02*
D03*
D86*
X536500Y180000D02*
D03*
Y242000D02*
D03*
D87*
X529500Y176000D02*
D03*
X536500Y172000D02*
D03*
X529500Y168000D02*
D03*
X536500Y164000D02*
D03*
X529500Y160000D02*
D03*
X536500Y156000D02*
D03*
X529500Y152000D02*
D03*
Y214000D02*
D03*
X536500Y218000D02*
D03*
X529500Y222000D02*
D03*
X536500Y226000D02*
D03*
X529500Y230000D02*
D03*
X536500Y234000D02*
D03*
X529500Y238000D02*
D03*
D88*
X546500Y141000D02*
D03*
Y253000D02*
D03*
D89*
X533000Y134000D02*
D03*
Y260000D02*
D03*
D90*
X531256Y59000D02*
D03*
Y69000D02*
D03*
Y79000D02*
D03*
Y89000D02*
D03*
Y99000D02*
D03*
Y109000D02*
D03*
Y49000D02*
D03*
Y39000D02*
D03*
X521256Y109000D02*
D03*
Y99000D02*
D03*
Y89000D02*
D03*
Y79000D02*
D03*
Y69000D02*
D03*
Y59000D02*
D03*
Y49000D02*
D03*
Y39000D02*
D03*
D91*
X543307Y372047D02*
D03*
Y21654D02*
D03*
D92*
X80327Y355202D02*
D03*
X62199D02*
D03*
X119900Y358227D02*
D03*
X110351D02*
D03*
X94017Y355202D02*
D03*
X48970Y362550D02*
D03*
X39120D02*
D03*
X31000Y359200D02*
D03*
X27000D02*
D03*
X23000D02*
D03*
X133300Y203881D02*
D03*
X133000Y182500D02*
D03*
X16500Y43000D02*
D03*
Y53000D02*
D03*
X19000Y48000D02*
D03*
X29000D02*
D03*
X31500Y33000D02*
D03*
X24000Y38000D02*
D03*
X26500Y53000D02*
D03*
Y43000D02*
D03*
X31500Y53000D02*
D03*
X26500Y33000D02*
D03*
X24000Y48000D02*
D03*
X29000Y38000D02*
D03*
X11500Y33000D02*
D03*
X31500Y43000D02*
D03*
X11500Y53000D02*
D03*
X14000Y48000D02*
D03*
X21500Y53000D02*
D03*
Y43000D02*
D03*
X11500D02*
D03*
X16300Y24700D02*
D03*
X18800D02*
D03*
X21300D02*
D03*
X482951Y43337D02*
D03*
Y46837D02*
D03*
X485451Y43337D02*
D03*
X480451D02*
D03*
Y46837D02*
D03*
X485451D02*
D03*
X47500Y143800D02*
D03*
X44800Y141700D02*
D03*
X53000Y125200D02*
D03*
X140172Y219731D02*
D03*
X53000Y146400D02*
D03*
Y149700D02*
D03*
Y156200D02*
D03*
Y152900D02*
D03*
X56635Y212100D02*
D03*
X48751Y203900D02*
D03*
X67100Y189800D02*
D03*
X60700D02*
D03*
X60000Y181000D02*
D03*
X139400Y214500D02*
D03*
X22000Y226638D02*
D03*
Y229500D02*
D03*
X7300Y239000D02*
D03*
X3500Y240581D02*
D03*
X10500Y242219D02*
D03*
X31300Y211100D02*
D03*
X29600Y227700D02*
D03*
X16200Y236100D02*
D03*
Y233000D02*
D03*
X27600Y225500D02*
D03*
X389100Y97700D02*
D03*
X362500Y133000D02*
D03*
X360300Y149300D02*
D03*
X360100Y247800D02*
D03*
X366200Y235100D02*
D03*
X369100Y293000D02*
D03*
X484700Y342900D02*
D03*
X20000Y166900D02*
D03*
Y142100D02*
D03*
X357300Y134200D02*
D03*
X362500Y251600D02*
D03*
X357700Y262700D02*
D03*
X384100Y261600D02*
D03*
X374100Y267600D02*
D03*
X389100Y287200D02*
D03*
X366200Y149100D02*
D03*
X374100Y129500D02*
D03*
X369100Y103500D02*
D03*
X384100Y124000D02*
D03*
X32900Y373800D02*
D03*
X-41824Y245669D02*
D03*
X457900Y345000D02*
D03*
X461200Y354350D02*
D03*
X458000Y322400D02*
D03*
X5500Y142249D02*
D03*
Y167000D02*
D03*
X425400Y279200D02*
D03*
Y253700D02*
D03*
Y228000D02*
D03*
Y202100D02*
D03*
Y171000D02*
D03*
Y145100D02*
D03*
X425500Y120100D02*
D03*
Y94500D02*
D03*
X466800Y301700D02*
D03*
X462400Y302200D02*
D03*
Y276900D02*
D03*
X445500Y276600D02*
D03*
X449800Y276000D02*
D03*
X462400Y251100D02*
D03*
X466800Y250800D02*
D03*
X465500Y226400D02*
D03*
X462451Y225951D02*
D03*
X448478Y251622D02*
D03*
X445451Y251451D02*
D03*
X465722Y277422D02*
D03*
X449800Y168300D02*
D03*
X445400Y168900D02*
D03*
X465500Y169200D02*
D03*
X462400Y194200D02*
D03*
X450000Y225200D02*
D03*
X445400Y226000D02*
D03*
X462451Y168818D02*
D03*
X466963Y193728D02*
D03*
X448516Y200816D02*
D03*
X445451Y200551D02*
D03*
Y143749D02*
D03*
X462451Y143600D02*
D03*
X449565Y117135D02*
D03*
X462300Y118000D02*
D03*
X448506Y143906D02*
D03*
X466935Y142835D02*
D03*
X465722Y118522D02*
D03*
X445400Y91900D02*
D03*
X448400Y92800D02*
D03*
X445500Y117500D02*
D03*
X519500Y242000D02*
D03*
X522500Y183000D02*
D03*
X-42200Y242520D02*
D03*
Y248819D02*
D03*
X-35800Y165300D02*
D03*
X10500Y152361D02*
D03*
X133000Y125700D02*
D03*
X127100Y123200D02*
D03*
X141200Y121243D02*
D03*
X143200Y307100D02*
D03*
X145500Y238000D02*
D03*
X147000Y250300D02*
D03*
X125300Y250100D02*
D03*
X140900Y232000D02*
D03*
X139500Y307000D02*
D03*
X144000Y316600D02*
D03*
X140900Y316800D02*
D03*
X133000Y114000D02*
D03*
X53000Y128900D02*
D03*
Y133000D02*
D03*
Y137800D02*
D03*
X430100Y105051D02*
D03*
Y131000D02*
D03*
Y156551D02*
D03*
Y181551D02*
D03*
Y213051D02*
D03*
Y238500D02*
D03*
Y264051D02*
D03*
Y289551D02*
D03*
X26800Y314100D02*
D03*
Y316900D02*
D03*
X8301Y376621D02*
D03*
X542200Y291000D02*
D03*
X548800Y273300D02*
D03*
X9700Y127582D02*
D03*
X-42000Y163800D02*
D03*
X59800Y285200D02*
D03*
X58000Y282800D02*
D03*
X108900Y376529D02*
D03*
X133000Y300500D02*
D03*
X10500Y245081D02*
D03*
X140000Y301000D02*
D03*
X11500Y267300D02*
D03*
X14000D02*
D03*
X-42000Y258268D02*
D03*
Y261500D02*
D03*
X-42100Y233100D02*
D03*
X-42000Y255000D02*
D03*
Y135449D02*
D03*
X-42200Y223622D02*
D03*
X80300Y150100D02*
D03*
X84500Y145300D02*
D03*
X-42100Y214173D02*
D03*
X-42000Y204724D02*
D03*
Y182677D02*
D03*
Y173228D02*
D03*
Y154331D02*
D03*
Y144882D02*
D03*
X404000Y137500D02*
D03*
Y112000D02*
D03*
X529500Y245000D02*
D03*
X324200Y43500D02*
D03*
Y46400D02*
D03*
X327500Y43600D02*
D03*
X331846Y34500D02*
D03*
Y37400D02*
D03*
Y40350D02*
D03*
X327500Y46400D02*
D03*
X337500Y55900D02*
D03*
X337700Y19300D02*
D03*
X270500Y89000D02*
D03*
X523000Y242000D02*
D03*
X521542Y163458D02*
D03*
X511500Y160000D02*
D03*
X502000Y43500D02*
D03*
X507000D02*
D03*
X504500D02*
D03*
Y73500D02*
D03*
X507000D02*
D03*
X502000D02*
D03*
X298500Y250000D02*
D03*
X299000Y104500D02*
D03*
X502000Y77000D02*
D03*
X507000D02*
D03*
X504500D02*
D03*
X507000Y47000D02*
D03*
X504500D02*
D03*
X502000D02*
D03*
X403000Y300500D02*
D03*
X404000Y297000D02*
D03*
X403000Y275000D02*
D03*
X404000Y271500D02*
D03*
X403000Y249500D02*
D03*
X404000Y245500D02*
D03*
X403000Y224000D02*
D03*
X404000Y220500D02*
D03*
X403000Y192500D02*
D03*
X404000Y189000D02*
D03*
X403000Y167000D02*
D03*
X404000Y163000D02*
D03*
X403000Y141500D02*
D03*
Y116000D02*
D03*
X337500Y112200D02*
D03*
X258000Y304500D02*
D03*
X258500Y180000D02*
D03*
X236500Y238500D02*
D03*
X198500Y347000D02*
D03*
X203000Y281000D02*
D03*
X195320Y152819D02*
D03*
X140500Y238000D02*
D03*
Y188000D02*
D03*
X196320Y83819D02*
D03*
X167500Y96000D02*
D03*
Y164000D02*
D03*
Y213500D02*
D03*
X166500Y282500D02*
D03*
X228500Y320000D02*
D03*
X230000Y254500D02*
D03*
X232000Y133500D02*
D03*
Y59500D02*
D03*
X118500Y47000D02*
D03*
Y49500D02*
D03*
X195000Y338500D02*
D03*
X198500Y151500D02*
D03*
X196000Y272500D02*
D03*
X133500Y231500D02*
D03*
X198500Y77500D02*
D03*
X209000Y158000D02*
D03*
X210000Y83500D02*
D03*
X145000Y188500D02*
D03*
X207500Y278500D02*
D03*
X206000Y344500D02*
D03*
X40000Y113500D02*
D03*
X265600Y341300D02*
D03*
X266900Y336100D02*
D03*
X260800Y298700D02*
D03*
X231000Y233500D02*
D03*
X273500Y276000D02*
D03*
X276900Y270100D02*
D03*
X202425Y338425D02*
D03*
X232000Y323000D02*
D03*
X225000Y326000D02*
D03*
Y344500D02*
D03*
X260000Y349500D02*
D03*
Y332500D02*
D03*
X238000Y329000D02*
D03*
X224000Y316000D02*
D03*
X163000Y307000D02*
D03*
Y288500D02*
D03*
X170000Y285500D02*
D03*
X197500Y312500D02*
D03*
Y294500D02*
D03*
X176000Y291500D02*
D03*
X162000Y278500D02*
D03*
X203500Y273000D02*
D03*
X226500Y279000D02*
D03*
Y260500D02*
D03*
X233500Y257500D02*
D03*
X261000Y285000D02*
D03*
Y266500D02*
D03*
X239500Y263500D02*
D03*
X225500Y250500D02*
D03*
X198500Y243500D02*
D03*
Y226000D02*
D03*
X164000Y238000D02*
D03*
Y219500D02*
D03*
X171000Y216500D02*
D03*
X177000Y222500D02*
D03*
X163000Y209669D02*
D03*
X65000Y175700D02*
D03*
X109500Y114000D02*
D03*
X117400Y107858D02*
D03*
X197500Y71300D02*
D03*
X191000Y75800D02*
D03*
X253000Y186000D02*
D03*
X141000Y182500D02*
D03*
X164000Y188500D02*
D03*
Y170500D02*
D03*
X171000Y167000D02*
D03*
X198500Y194000D02*
D03*
Y176500D02*
D03*
X177000Y173000D02*
D03*
X163000Y160000D02*
D03*
X268000Y148000D02*
D03*
X274000Y141500D02*
D03*
X228500Y158000D02*
D03*
Y139500D02*
D03*
X263000Y163000D02*
D03*
Y146000D02*
D03*
X241600Y142700D02*
D03*
X235400Y136600D02*
D03*
X205800Y151600D02*
D03*
X227400Y55700D02*
D03*
X162700Y92200D02*
D03*
X227500Y129600D02*
D03*
X207500Y118800D02*
D03*
X199500Y114000D02*
D03*
X177000Y105000D02*
D03*
X198500Y126000D02*
D03*
Y108000D02*
D03*
X164000Y120500D02*
D03*
X141000Y114500D02*
D03*
X164000Y102000D02*
D03*
X171000Y99000D02*
D03*
X228500Y84000D02*
D03*
Y65000D02*
D03*
X-28000Y122500D02*
D03*
X-18000Y119000D02*
D03*
X-9000Y122000D02*
D03*
X101500Y13000D02*
D03*
X104000D02*
D03*
X205500Y77500D02*
D03*
X264500Y81500D02*
D03*
X262500Y89500D02*
D03*
Y72000D02*
D03*
X241551Y68500D02*
D03*
X235500Y62500D02*
D03*
X472900Y345000D02*
D03*
X338500Y291000D02*
D03*
X337500Y287500D02*
D03*
X338500Y281000D02*
D03*
X337500Y277500D02*
D03*
X338500Y271000D02*
D03*
X337500Y267500D02*
D03*
X338500Y261000D02*
D03*
X337500Y257500D02*
D03*
X293500Y290000D02*
D03*
X293209Y280000D02*
D03*
Y269791D02*
D03*
Y260000D02*
D03*
X294500Y257000D02*
D03*
Y267000D02*
D03*
Y277000D02*
D03*
Y287000D02*
D03*
X338500Y145200D02*
D03*
Y135200D02*
D03*
Y125100D02*
D03*
Y115400D02*
D03*
X293500Y114000D02*
D03*
Y124000D02*
D03*
Y134000D02*
D03*
Y144000D02*
D03*
X294500Y141000D02*
D03*
Y131000D02*
D03*
Y121000D02*
D03*
Y111000D02*
D03*
X337500Y122000D02*
D03*
Y132200D02*
D03*
Y142000D02*
D03*
D93*
X472900Y363000D02*
D03*
X67500Y344000D02*
D03*
Y329000D02*
D03*
X60000Y344000D02*
D03*
X63750Y336500D02*
D03*
X60000Y329000D02*
D03*
X63750Y321500D02*
D03*
Y306500D02*
D03*
X56250Y336500D02*
D03*
Y321500D02*
D03*
Y306500D02*
D03*
X48750Y336500D02*
D03*
Y306500D02*
D03*
X45000Y299000D02*
D03*
X48750Y291500D02*
D03*
X41250Y336500D02*
D03*
X37500Y329000D02*
D03*
X41250Y306500D02*
D03*
X37500Y299000D02*
D03*
X41250Y291500D02*
D03*
X30000Y344000D02*
D03*
X33750Y336500D02*
D03*
X30000Y329000D02*
D03*
X33750Y306500D02*
D03*
X30000Y299000D02*
D03*
X33750Y291500D02*
D03*
X22500Y344000D02*
D03*
X26250Y336500D02*
D03*
X22500Y329000D02*
D03*
X15000Y344000D02*
D03*
Y329000D02*
D03*
X18750Y321500D02*
D03*
X7500Y344000D02*
D03*
X11250Y336500D02*
D03*
X7500Y329000D02*
D03*
Y314000D02*
D03*
X11250Y306500D02*
D03*
X7500Y299000D02*
D03*
X11250Y291500D02*
D03*
X7500Y284000D02*
D03*
X131250Y74000D02*
D03*
X127500Y66500D02*
D03*
Y36500D02*
D03*
X131250Y14000D02*
D03*
X127500Y6500D02*
D03*
X123750Y74000D02*
D03*
Y14000D02*
D03*
X120000Y6500D02*
D03*
X112500Y66500D02*
D03*
Y36500D02*
D03*
Y21500D02*
D03*
Y6500D02*
D03*
X108750Y89000D02*
D03*
X105000Y66500D02*
D03*
Y51500D02*
D03*
Y36500D02*
D03*
Y21500D02*
D03*
Y6500D02*
D03*
X97500Y81500D02*
D03*
X101250Y74000D02*
D03*
X97500Y51500D02*
D03*
X101250Y44000D02*
D03*
X97500Y21500D02*
D03*
Y6500D02*
D03*
X93750Y74000D02*
D03*
X90000Y51500D02*
D03*
X93750Y44000D02*
D03*
X90000Y36500D02*
D03*
Y21500D02*
D03*
X93750Y14000D02*
D03*
X90000Y6500D02*
D03*
X82500Y111500D02*
D03*
Y81500D02*
D03*
X86250Y74000D02*
D03*
Y29000D02*
D03*
X82500Y6500D02*
D03*
X78750Y74000D02*
D03*
Y29000D02*
D03*
X75000Y6500D02*
D03*
X67500Y96500D02*
D03*
Y81500D02*
D03*
X71250Y74000D02*
D03*
X67500Y66500D02*
D03*
X71250Y59000D02*
D03*
X67500Y51500D02*
D03*
Y6500D02*
D03*
X60000Y96500D02*
D03*
Y81500D02*
D03*
X63750Y74000D02*
D03*
Y59000D02*
D03*
X60000Y51500D02*
D03*
X63750Y44000D02*
D03*
Y29000D02*
D03*
X60000Y21500D02*
D03*
Y6500D02*
D03*
X52500Y96500D02*
D03*
X56250Y29000D02*
D03*
X45000Y96500D02*
D03*
X48750Y89000D02*
D03*
X30000Y111500D02*
D03*
X33750Y104000D02*
D03*
Y89000D02*
D03*
X30000Y81500D02*
D03*
X33750Y74000D02*
D03*
X22500Y111500D02*
D03*
X26250Y104000D02*
D03*
X22500Y96500D02*
D03*
X26250Y89000D02*
D03*
X22500Y81500D02*
D03*
X26250Y74000D02*
D03*
X15000Y111500D02*
D03*
X18750Y104000D02*
D03*
X15000Y96500D02*
D03*
X18750Y89000D02*
D03*
X15000Y81500D02*
D03*
X18750Y74000D02*
D03*
X7500Y111500D02*
D03*
X11250Y104000D02*
D03*
X7500Y96500D02*
D03*
X11250Y89000D02*
D03*
X7500Y81500D02*
D03*
X11250Y74000D02*
D03*
X497400Y105309D02*
D03*
X500141Y101650D02*
D03*
X487900Y363000D02*
D03*
X442800Y363040D02*
D03*
D94*
X152484Y232941D02*
D03*
X156815D02*
D03*
X152484Y228610D02*
D03*
X156815D02*
D03*
X152484Y224279D02*
D03*
X156815D02*
D03*
X152484Y115441D02*
D03*
X156815D02*
D03*
X152484Y111110D02*
D03*
X156815D02*
D03*
X152484Y106780D02*
D03*
X156815D02*
D03*
X155815Y293280D02*
D03*
X151484D02*
D03*
X155815Y297610D02*
D03*
X151484D02*
D03*
X155815Y301941D02*
D03*
X151484D02*
D03*
X152484Y183441D02*
D03*
X156815D02*
D03*
X152484Y179110D02*
D03*
X156815D02*
D03*
X152484Y174779D02*
D03*
X156815D02*
D03*
X221315Y70315D02*
D03*
X216984D02*
D03*
X221315Y74646D02*
D03*
X216984D02*
D03*
X221315Y78976D02*
D03*
X216984D02*
D03*
X219315Y265299D02*
D03*
X214984D02*
D03*
X219315Y269630D02*
D03*
X214984D02*
D03*
X219315Y273961D02*
D03*
X214984D02*
D03*
X216984Y152941D02*
D03*
X221315D02*
D03*
X216984Y148610D02*
D03*
X221315D02*
D03*
X216984Y144280D02*
D03*
X221315D02*
D03*
X217815Y330780D02*
D03*
X213484D02*
D03*
X217815Y335110D02*
D03*
X213484D02*
D03*
X217815Y339441D02*
D03*
X213484D02*
D03*
M02*
