G04*
G04 #@! TF.GenerationSoftware,Altium Limited,Altium Designer,21.1.1 (26)*
G04*
G04 Layer_Color=16711935*
%FSLAX25Y25*%
%MOIN*%
G70*
G04*
G04 #@! TF.SameCoordinates,D65CCEB4-39F3-483E-ABB8-C81B868D3380*
G04*
G04*
G04 #@! TF.FilePolarity,Negative*
G04*
G01*
G75*
%ADD53C,0.04737*%
%ADD66R,0.11417X0.02559*%
%ADD81C,0.06600*%
%ADD82R,0.06312X0.06312*%
%ADD83C,0.06312*%
%ADD84C,0.10249*%
%ADD85C,0.13595*%
%ADD86C,0.13005*%
%ADD88C,0.02800*%
%ADD89C,0.03162*%
D53*
X-2800Y190700D02*
D03*
Y182677D02*
D03*
Y174534D02*
D03*
D66*
X-49000Y264567D02*
D03*
Y261417D02*
D03*
Y258268D02*
D03*
Y255118D02*
D03*
Y251969D02*
D03*
Y248819D02*
D03*
Y245669D02*
D03*
Y242520D02*
D03*
Y233071D02*
D03*
Y229921D02*
D03*
Y226772D02*
D03*
Y223622D02*
D03*
Y220472D02*
D03*
Y217323D02*
D03*
Y214173D02*
D03*
Y211024D02*
D03*
Y207874D02*
D03*
Y204724D02*
D03*
Y201575D02*
D03*
Y198425D02*
D03*
Y182677D02*
D03*
Y179528D02*
D03*
Y176378D02*
D03*
Y173228D02*
D03*
Y170079D02*
D03*
Y166929D02*
D03*
Y163779D02*
D03*
Y160630D02*
D03*
Y157480D02*
D03*
Y154331D02*
D03*
Y151181D02*
D03*
Y148031D02*
D03*
Y144882D02*
D03*
Y141732D02*
D03*
Y138583D02*
D03*
Y135433D02*
D03*
Y132283D02*
D03*
Y129134D02*
D03*
Y239370D02*
D03*
Y236221D02*
D03*
D81*
X521256Y39000D02*
D03*
Y49000D02*
D03*
Y59000D02*
D03*
Y69000D02*
D03*
Y79000D02*
D03*
Y89000D02*
D03*
Y99000D02*
D03*
Y109000D02*
D03*
X531256Y39000D02*
D03*
Y49000D02*
D03*
Y109000D02*
D03*
Y99000D02*
D03*
Y89000D02*
D03*
Y79000D02*
D03*
Y69000D02*
D03*
Y59000D02*
D03*
D82*
X536500Y242000D02*
D03*
Y180000D02*
D03*
D83*
X529500Y238000D02*
D03*
X536500Y234000D02*
D03*
X529500Y230000D02*
D03*
X536500Y226000D02*
D03*
X529500Y222000D02*
D03*
X536500Y218000D02*
D03*
X529500Y214000D02*
D03*
Y152000D02*
D03*
X536500Y156000D02*
D03*
X529500Y160000D02*
D03*
X536500Y164000D02*
D03*
X529500Y168000D02*
D03*
X536500Y172000D02*
D03*
X529500Y176000D02*
D03*
D84*
X533000Y260000D02*
D03*
Y134000D02*
D03*
D85*
X546500Y253000D02*
D03*
Y141000D02*
D03*
D86*
X543307Y372047D02*
D03*
Y21654D02*
D03*
D88*
X173411Y27934D02*
D03*
X169868D02*
D03*
X173411Y32658D02*
D03*
X169868D02*
D03*
X171639Y30296D02*
D03*
X149986Y367126D02*
D03*
X146442D02*
D03*
X149986Y371850D02*
D03*
X146442D02*
D03*
X148214Y369488D02*
D03*
D89*
X497400Y105309D02*
D03*
X500141Y101650D02*
D03*
M02*
