G04*
G04 #@! TF.GenerationSoftware,Altium Limited,Altium Designer,19.1.9 (167)*
G04*
G04 Layer_Color=8388736*
%FSLAX25Y25*%
%MOIN*%
G70*
G01*
G75*
%ADD33R,0.04147X0.04343*%
%ADD34R,0.04343X0.04147*%
G04:AMPARAMS|DCode=35|XSize=25.72mil|YSize=61.15mil|CornerRadius=5.95mil|HoleSize=0mil|Usage=FLASHONLY|Rotation=0.000|XOffset=0mil|YOffset=0mil|HoleType=Round|Shape=RoundedRectangle|*
%AMROUNDEDRECTD35*
21,1,0.02572,0.04925,0,0,0.0*
21,1,0.01382,0.06115,0,0,0.0*
1,1,0.01190,0.00691,-0.02463*
1,1,0.01190,-0.00691,-0.02463*
1,1,0.01190,-0.00691,0.02463*
1,1,0.01190,0.00691,0.02463*
%
%ADD35ROUNDEDRECTD35*%
%ADD36R,0.02172X0.04337*%
%ADD37R,0.02572X0.06509*%
%ADD38R,0.06509X0.02572*%
%ADD39R,0.11430X0.14973*%
%ADD40R,0.06312X0.04737*%
%ADD41R,0.14973X0.11430*%
%ADD42R,0.04737X0.06312*%
%ADD43R,0.07414X0.08359*%
%ADD44R,0.08359X0.07414*%
%ADD45R,0.04737X0.03556*%
%ADD46R,0.07965X0.05564*%
%ADD47R,0.03556X0.04737*%
%ADD48R,0.05564X0.07965*%
%ADD49R,0.07887X0.05131*%
%ADD50C,0.06902*%
%ADD51R,0.06902X0.06902*%
%ADD52C,0.09068*%
%ADD53C,0.07099*%
%ADD54C,0.13005*%
%ADD55R,0.07887X0.07887*%
%ADD56C,0.07887*%
%ADD57R,0.07887X0.07887*%
%ADD58R,0.05918X0.05918*%
%ADD59C,0.05918*%
%ADD60R,0.05918X0.05918*%
%ADD61C,0.03166*%
D33*
X282175Y226066D02*
D03*
X276073D02*
D03*
X273449Y180200D02*
D03*
X279551D02*
D03*
X228023Y192406D02*
D03*
X234125D02*
D03*
X228023Y198706D02*
D03*
X234125D02*
D03*
X273449Y211300D02*
D03*
X279551D02*
D03*
X150149Y67500D02*
D03*
X156251D02*
D03*
X124551Y24000D02*
D03*
X118449D02*
D03*
X70949Y354800D02*
D03*
X77051D02*
D03*
X51251Y351300D02*
D03*
X45149D02*
D03*
X57749Y354800D02*
D03*
X63851D02*
D03*
Y348200D02*
D03*
X57749D02*
D03*
D34*
X291868Y217178D02*
D03*
Y223280D02*
D03*
X291868Y228825D02*
D03*
Y234927D02*
D03*
X256423Y192604D02*
D03*
Y198706D02*
D03*
X265600Y179051D02*
D03*
Y172949D02*
D03*
X259750Y179051D02*
D03*
Y172949D02*
D03*
X277923Y192604D02*
D03*
Y198706D02*
D03*
X155000Y86449D02*
D03*
Y92551D02*
D03*
X151700Y112849D02*
D03*
Y118951D02*
D03*
X155000Y99149D02*
D03*
Y105251D02*
D03*
X148300D02*
D03*
Y99149D02*
D03*
X95801Y349749D02*
D03*
Y355851D02*
D03*
X138700Y318549D02*
D03*
Y324651D02*
D03*
D35*
X263184Y186895D02*
D03*
X265743D02*
D03*
X268302D02*
D03*
X263184Y204415D02*
D03*
X265743D02*
D03*
X268302D02*
D03*
X270862D02*
D03*
Y186895D02*
D03*
D36*
X323562Y204413D02*
D03*
X321002D02*
D03*
X318443D02*
D03*
X315884D02*
D03*
X323562Y186697D02*
D03*
X321002D02*
D03*
X318443D02*
D03*
X315884D02*
D03*
D37*
X147639Y92161D02*
D03*
X145080D02*
D03*
X142520D02*
D03*
X139961D02*
D03*
X147639Y74839D02*
D03*
X145080D02*
D03*
X142520D02*
D03*
X139961D02*
D03*
D38*
X70939Y347539D02*
D03*
Y344980D02*
D03*
Y342421D02*
D03*
Y339861D02*
D03*
X88261Y347539D02*
D03*
Y344980D02*
D03*
Y342421D02*
D03*
Y339861D02*
D03*
D39*
X96552Y49400D02*
D03*
X128048D02*
D03*
D40*
X92919Y111000D02*
D03*
X82682D02*
D03*
D41*
X113600Y296504D02*
D03*
Y328000D02*
D03*
D42*
X51556Y299918D02*
D03*
Y289682D02*
D03*
D43*
X129909Y75501D02*
D03*
Y90304D02*
D03*
D44*
X87599Y329609D02*
D03*
X72796D02*
D03*
D45*
X330000Y186849D02*
D03*
Y192951D02*
D03*
X308823Y198901D02*
D03*
Y205004D02*
D03*
X261100Y217551D02*
D03*
Y211449D02*
D03*
X267400Y217551D02*
D03*
Y211449D02*
D03*
X250400Y192649D02*
D03*
Y198751D02*
D03*
X228300Y180049D02*
D03*
Y186151D02*
D03*
X221174Y192555D02*
D03*
Y198658D02*
D03*
X228300Y205300D02*
D03*
Y211402D02*
D03*
X283900Y192649D02*
D03*
Y198751D02*
D03*
X142400Y105256D02*
D03*
Y99154D02*
D03*
X157800Y118951D02*
D03*
Y112849D02*
D03*
X105000Y77749D02*
D03*
Y83851D02*
D03*
X63551Y329449D02*
D03*
Y335551D02*
D03*
X138700Y308467D02*
D03*
Y302365D02*
D03*
X95900Y337849D02*
D03*
Y343951D02*
D03*
D46*
X86200Y86409D02*
D03*
Y74991D02*
D03*
X96050Y86409D02*
D03*
Y74991D02*
D03*
X163000Y81191D02*
D03*
Y92609D02*
D03*
X121459Y100048D02*
D03*
Y111466D02*
D03*
X111959Y100048D02*
D03*
Y111466D02*
D03*
D47*
X129807Y99635D02*
D03*
X135910D02*
D03*
X108551Y24000D02*
D03*
X102449D02*
D03*
X144251Y67481D02*
D03*
X138149D02*
D03*
X57749Y342200D02*
D03*
X63851D02*
D03*
X45149Y344800D02*
D03*
X51251D02*
D03*
X85951Y307300D02*
D03*
X79849D02*
D03*
D48*
X77191Y289100D02*
D03*
X88609D02*
D03*
X77191Y299000D02*
D03*
X88609D02*
D03*
X70891Y362600D02*
D03*
X82309D02*
D03*
X63137Y321594D02*
D03*
X51720D02*
D03*
X63137Y311800D02*
D03*
X51720D02*
D03*
D49*
X339700Y189795D02*
D03*
Y201606D02*
D03*
D50*
X174398Y190606D02*
D03*
X288958Y247701D02*
D03*
X279498Y167735D02*
D03*
X249544Y167752D02*
D03*
X249300Y223600D02*
D03*
X46200Y97700D02*
D03*
X191510Y92551D02*
D03*
X98640Y123476D02*
D03*
X142500Y48970D02*
D03*
X60741Y128380D02*
D03*
X147601Y284533D02*
D03*
X38800Y301400D02*
D03*
X362523Y200955D02*
D03*
D51*
X174398Y200606D02*
D03*
X362523Y190955D02*
D03*
D52*
X374747Y146600D02*
D03*
X350102D02*
D03*
Y121954D02*
D03*
X374747D02*
D03*
Y269023D02*
D03*
X350102D02*
D03*
Y244377D02*
D03*
X374747D02*
D03*
X206623Y256423D02*
D03*
X181977D02*
D03*
Y231777D02*
D03*
X206623D02*
D03*
Y158923D02*
D03*
X181977D02*
D03*
Y134277D02*
D03*
X206623D02*
D03*
D53*
X362424D02*
D03*
Y256700D02*
D03*
X194300Y244100D02*
D03*
Y146600D02*
D03*
D54*
X383800Y9200D02*
D03*
Y383800D02*
D03*
X9200Y9200D02*
D03*
Y383800D02*
D03*
D55*
X47200Y208800D02*
D03*
D56*
Y183800D02*
D03*
X227700Y44500D02*
D03*
D57*
X202700D02*
D03*
D58*
X64300Y67210D02*
D03*
D59*
Y80990D02*
D03*
X115779Y272500D02*
D03*
X96700Y195700D02*
D03*
D60*
X102000Y272500D02*
D03*
X82920Y195700D02*
D03*
D61*
X296258Y216992D02*
D03*
M02*
