G04*
G04 #@! TF.GenerationSoftware,Altium Limited,Altium Designer,19.1.9 (167)*
G04*
G04 Layer_Physical_Order=2*
G04 Layer_Color=16711680*
%FSLAX25Y25*%
%MOIN*%
G70*
G01*
G75*
%ADD65C,0.06102*%
%ADD66R,0.06102X0.06102*%
%ADD67C,0.08268*%
%ADD68C,0.06299*%
%ADD69C,0.12205*%
%ADD70R,0.07087X0.07087*%
%ADD71C,0.07087*%
%ADD72R,0.07087X0.07087*%
%ADD73R,0.05118X0.05118*%
%ADD74C,0.05118*%
%ADD75R,0.05118X0.05118*%
%ADD76C,0.02366*%
G36*
X377538Y392538D02*
X363500Y378500D01*
Y372500D01*
X372500Y363500D01*
X378478D01*
X392535Y377520D01*
X392997Y377329D01*
Y56003D01*
X393000Y56000D01*
Y15653D01*
X392538Y15462D01*
X378500Y29500D01*
X372500D01*
X363500Y20500D01*
Y14500D01*
X377538Y462D01*
X377347Y0D01*
X15669D01*
X15478Y462D01*
X29517Y14501D01*
Y20397D01*
X20457Y29478D01*
X14504Y29504D01*
X462Y15462D01*
X0Y15653D01*
X-0Y377347D01*
X462Y377538D01*
X14502Y363498D01*
X20498Y363498D01*
X29517Y372517D01*
X29517Y378483D01*
X15462Y392538D01*
X15653Y393000D01*
X377347Y393000D01*
X377538Y392538D01*
D02*
G37*
%LPC*%
G36*
X38800Y304930D02*
X37886Y304810D01*
X37035Y304457D01*
X36304Y303896D01*
X35743Y303165D01*
X35390Y302314D01*
X35270Y301400D01*
X35390Y300486D01*
X35743Y299635D01*
X36304Y298904D01*
X37035Y298343D01*
X37886Y297990D01*
X38800Y297870D01*
X39714Y297990D01*
X40565Y298343D01*
X41296Y298904D01*
X41857Y299635D01*
X42210Y300486D01*
X42330Y301400D01*
X42210Y302314D01*
X41857Y303165D01*
X41296Y303896D01*
X40565Y304457D01*
X39714Y304810D01*
X38800Y304930D01*
D02*
G37*
G36*
X147601Y288063D02*
X146687Y287943D01*
X145836Y287590D01*
X145105Y287029D01*
X144544Y286298D01*
X144191Y285447D01*
X144071Y284533D01*
X144191Y283619D01*
X144544Y282768D01*
X145105Y282037D01*
X145836Y281476D01*
X146687Y281123D01*
X147601Y281003D01*
X148514Y281123D01*
X149366Y281476D01*
X150097Y282037D01*
X150658Y282768D01*
X151011Y283619D01*
X151131Y284533D01*
X151011Y285447D01*
X150658Y286298D01*
X150097Y287029D01*
X149366Y287590D01*
X148514Y287943D01*
X147601Y288063D01*
D02*
G37*
G36*
X116279Y276024D02*
Y273000D01*
X119303D01*
X119247Y273429D01*
X118888Y274295D01*
X118318Y275038D01*
X117574Y275609D01*
X116709Y275967D01*
X116279Y276024D01*
D02*
G37*
G36*
X115279D02*
X114850Y275967D01*
X113985Y275609D01*
X113241Y275038D01*
X112671Y274295D01*
X112312Y273429D01*
X112256Y273000D01*
X115279D01*
Y276024D01*
D02*
G37*
G36*
X104909Y275409D02*
X99091D01*
Y269591D01*
X104909D01*
Y275409D01*
D02*
G37*
G36*
X350602Y274135D02*
Y269523D01*
X355214D01*
X355103Y270363D01*
X354586Y271612D01*
X353763Y272684D01*
X352691Y273507D01*
X351442Y274025D01*
X350602Y274135D01*
D02*
G37*
G36*
X349602D02*
X348761Y274025D01*
X347513Y273507D01*
X346440Y272684D01*
X345617Y271612D01*
X345100Y270363D01*
X344989Y269523D01*
X349602D01*
Y274135D01*
D02*
G37*
G36*
X375247D02*
Y269523D01*
X379860D01*
X379749Y270363D01*
X379232Y271612D01*
X378409Y272684D01*
X377336Y273507D01*
X376087Y274025D01*
X375247Y274135D01*
D02*
G37*
G36*
X374247D02*
X373407Y274025D01*
X372158Y273507D01*
X371086Y272684D01*
X370263Y271612D01*
X369746Y270363D01*
X369635Y269523D01*
X374247D01*
Y274135D01*
D02*
G37*
G36*
X119303Y272000D02*
X116279D01*
Y268976D01*
X116709Y269033D01*
X117574Y269391D01*
X118318Y269962D01*
X118888Y270705D01*
X119247Y271571D01*
X119303Y272000D01*
D02*
G37*
G36*
X115279D02*
X112256D01*
X112312Y271571D01*
X112671Y270705D01*
X113241Y269962D01*
X113985Y269391D01*
X114850Y269033D01*
X115279Y268976D01*
Y272000D01*
D02*
G37*
G36*
X355214Y268523D02*
X350602D01*
Y263911D01*
X351442Y264021D01*
X352691Y264538D01*
X353763Y265361D01*
X354586Y266434D01*
X355103Y267683D01*
X355214Y268523D01*
D02*
G37*
G36*
X379860Y268523D02*
X375247D01*
Y263911D01*
X376087Y264021D01*
X377336Y264538D01*
X378409Y265361D01*
X379232Y266434D01*
X379749Y267683D01*
X379860Y268523D01*
D02*
G37*
G36*
X374247D02*
X369635D01*
X369746Y267683D01*
X370263Y266434D01*
X371086Y265361D01*
X372158Y264538D01*
X373407Y264021D01*
X374247Y263911D01*
Y268523D01*
D02*
G37*
G36*
X349602Y268523D02*
X344989D01*
X345100Y267683D01*
X345617Y266434D01*
X346440Y265361D01*
X347513Y264538D01*
X348761Y264021D01*
X349602Y263911D01*
Y268523D01*
D02*
G37*
G36*
X182477Y261535D02*
Y256923D01*
X187090D01*
X186979Y257763D01*
X186462Y259012D01*
X185639Y260084D01*
X184566Y260907D01*
X183317Y261424D01*
X182477Y261535D01*
D02*
G37*
G36*
X181477D02*
X180637Y261424D01*
X179388Y260907D01*
X178316Y260084D01*
X177493Y259012D01*
X176976Y257763D01*
X176865Y256923D01*
X181477D01*
Y261535D01*
D02*
G37*
G36*
X207123D02*
Y256923D01*
X211735D01*
X211625Y257763D01*
X211107Y259012D01*
X210284Y260084D01*
X209212Y260907D01*
X207963Y261424D01*
X207123Y261535D01*
D02*
G37*
G36*
X206123D02*
X205283Y261424D01*
X204034Y260907D01*
X202961Y260084D01*
X202138Y259012D01*
X201621Y257763D01*
X201511Y256923D01*
X206123D01*
Y261535D01*
D02*
G37*
G36*
X362424Y260230D02*
X361511Y260109D01*
X360660Y259757D01*
X359928Y259196D01*
X359368Y258465D01*
X359015Y257614D01*
X358895Y256700D01*
X359015Y255786D01*
X359368Y254935D01*
X359928Y254204D01*
X360660Y253643D01*
X361511Y253291D01*
X362424Y253170D01*
X363338Y253291D01*
X364189Y253643D01*
X364920Y254204D01*
X365481Y254935D01*
X365834Y255786D01*
X365954Y256700D01*
X365834Y257614D01*
X365481Y258465D01*
X364920Y259196D01*
X364189Y259757D01*
X363338Y260109D01*
X362424Y260230D01*
D02*
G37*
G36*
X187090Y255923D02*
X182477D01*
Y251310D01*
X183317Y251421D01*
X184566Y251938D01*
X185639Y252761D01*
X186462Y253834D01*
X186979Y255083D01*
X187090Y255923D01*
D02*
G37*
G36*
X211735Y255923D02*
X207123D01*
Y251310D01*
X207963Y251421D01*
X209212Y251938D01*
X210284Y252761D01*
X211107Y253834D01*
X211625Y255083D01*
X211735Y255923D01*
D02*
G37*
G36*
X206123D02*
X201511D01*
X201621Y255083D01*
X202138Y253834D01*
X202961Y252761D01*
X204034Y251938D01*
X205283Y251421D01*
X206123Y251310D01*
Y255923D01*
D02*
G37*
G36*
X181477Y255923D02*
X176865D01*
X176976Y255083D01*
X177493Y253834D01*
X178316Y252761D01*
X179388Y251938D01*
X180637Y251421D01*
X181477Y251310D01*
Y255923D01*
D02*
G37*
G36*
X289458Y251821D02*
Y248201D01*
X293078D01*
X293001Y248784D01*
X292583Y249794D01*
X291918Y250660D01*
X291051Y251326D01*
X290041Y251744D01*
X289458Y251821D01*
D02*
G37*
G36*
X288458Y251821D02*
X287874Y251744D01*
X286865Y251326D01*
X285998Y250660D01*
X285333Y249794D01*
X284915Y248784D01*
X284838Y248201D01*
X288458D01*
Y251821D01*
D02*
G37*
G36*
X375247Y249489D02*
Y244877D01*
X379860D01*
X379749Y245717D01*
X379232Y246966D01*
X378409Y248039D01*
X377336Y248862D01*
X376087Y249379D01*
X375247Y249489D01*
D02*
G37*
G36*
X374247Y249489D02*
X373407Y249379D01*
X372158Y248862D01*
X371086Y248039D01*
X370263Y246966D01*
X369746Y245717D01*
X369635Y244877D01*
X374247D01*
Y249489D01*
D02*
G37*
G36*
X350602D02*
Y244877D01*
X355214D01*
X355103Y245717D01*
X354586Y246966D01*
X353763Y248039D01*
X352691Y248862D01*
X351442Y249379D01*
X350602Y249489D01*
D02*
G37*
G36*
X349602Y249489D02*
X348761Y249379D01*
X347513Y248862D01*
X346440Y248039D01*
X345617Y246966D01*
X345100Y245717D01*
X344989Y244877D01*
X349602D01*
Y249489D01*
D02*
G37*
G36*
X293078Y247201D02*
X289458D01*
Y243581D01*
X290041Y243657D01*
X291051Y244076D01*
X291918Y244741D01*
X292583Y245608D01*
X293001Y246617D01*
X293078Y247201D01*
D02*
G37*
G36*
X288458D02*
X284838D01*
X284915Y246617D01*
X285333Y245608D01*
X285998Y244741D01*
X286865Y244076D01*
X287874Y243657D01*
X288458Y243581D01*
Y247201D01*
D02*
G37*
G36*
X194300Y247630D02*
X193386Y247510D01*
X192535Y247157D01*
X191804Y246596D01*
X191243Y245865D01*
X190891Y245014D01*
X190770Y244100D01*
X190891Y243186D01*
X191243Y242335D01*
X191804Y241604D01*
X192535Y241043D01*
X193386Y240690D01*
X194300Y240570D01*
X195214Y240690D01*
X196065Y241043D01*
X196796Y241604D01*
X197357Y242335D01*
X197710Y243186D01*
X197830Y244100D01*
X197710Y245014D01*
X197357Y245865D01*
X196796Y246596D01*
X196065Y247157D01*
X195214Y247510D01*
X194300Y247630D01*
D02*
G37*
G36*
X379860Y243877D02*
X375247D01*
Y239265D01*
X376087Y239375D01*
X377336Y239893D01*
X378409Y240716D01*
X379232Y241788D01*
X379749Y243037D01*
X379860Y243877D01*
D02*
G37*
G36*
X349602Y243877D02*
X344989D01*
X345100Y243037D01*
X345617Y241788D01*
X346440Y240716D01*
X347513Y239893D01*
X348761Y239375D01*
X349602Y239265D01*
Y243877D01*
D02*
G37*
G36*
X355214D02*
X350602D01*
Y239265D01*
X351442Y239375D01*
X352691Y239893D01*
X353763Y240716D01*
X354586Y241788D01*
X355103Y243037D01*
X355214Y243877D01*
D02*
G37*
G36*
X374247Y243877D02*
X369635D01*
X369746Y243037D01*
X370263Y241788D01*
X371086Y240716D01*
X372158Y239893D01*
X373407Y239375D01*
X374247Y239265D01*
Y243877D01*
D02*
G37*
G36*
X207123Y236890D02*
Y232277D01*
X211735D01*
X211625Y233117D01*
X211107Y234366D01*
X210284Y235439D01*
X209212Y236262D01*
X207963Y236779D01*
X207123Y236890D01*
D02*
G37*
G36*
X206123Y236890D02*
X205283Y236779D01*
X204034Y236262D01*
X202961Y235439D01*
X202138Y234366D01*
X201621Y233117D01*
X201511Y232277D01*
X206123D01*
Y236890D01*
D02*
G37*
G36*
X182477D02*
Y232277D01*
X187090D01*
X186979Y233117D01*
X186462Y234366D01*
X185639Y235439D01*
X184566Y236262D01*
X183317Y236779D01*
X182477Y236890D01*
D02*
G37*
G36*
X181477Y236890D02*
X180637Y236779D01*
X179388Y236262D01*
X178316Y235439D01*
X177493Y234366D01*
X176976Y233117D01*
X176865Y232277D01*
X181477D01*
Y236890D01*
D02*
G37*
G36*
X211735Y231277D02*
X207123D01*
Y226665D01*
X207963Y226776D01*
X209212Y227293D01*
X210284Y228116D01*
X211107Y229188D01*
X211625Y230437D01*
X211735Y231277D01*
D02*
G37*
G36*
X181477Y231277D02*
X176865D01*
X176976Y230437D01*
X177493Y229188D01*
X178316Y228116D01*
X179388Y227293D01*
X180637Y226776D01*
X181477Y226665D01*
Y231277D01*
D02*
G37*
G36*
X187090D02*
X182477D01*
Y226665D01*
X183317Y226776D01*
X184566Y227293D01*
X185639Y228116D01*
X186462Y229188D01*
X186979Y230437D01*
X187090Y231277D01*
D02*
G37*
G36*
X206123Y231277D02*
X201511D01*
X201621Y230437D01*
X202138Y229188D01*
X202961Y228116D01*
X204034Y227293D01*
X205283Y226776D01*
X206123Y226665D01*
Y231277D01*
D02*
G37*
G36*
X249300Y227130D02*
X248386Y227010D01*
X247535Y226657D01*
X246804Y226096D01*
X246243Y225365D01*
X245890Y224514D01*
X245770Y223600D01*
X245890Y222686D01*
X246243Y221835D01*
X246804Y221104D01*
X247535Y220543D01*
X248386Y220190D01*
X249300Y220070D01*
X250214Y220190D01*
X251065Y220543D01*
X251796Y221104D01*
X252357Y221835D01*
X252710Y222686D01*
X252830Y223600D01*
X252710Y224514D01*
X252357Y225365D01*
X251796Y226096D01*
X251065Y226657D01*
X250214Y227010D01*
X249300Y227130D01*
D02*
G37*
G36*
X51093Y212693D02*
X43307D01*
Y204907D01*
X51093D01*
Y212693D01*
D02*
G37*
G36*
X362523Y204386D02*
X361635Y204269D01*
X360808Y203926D01*
X360097Y203381D01*
X359552Y202670D01*
X359209Y201843D01*
X359092Y200955D01*
X359209Y200067D01*
X359552Y199240D01*
X360097Y198529D01*
X360808Y197984D01*
X361635Y197642D01*
X362523Y197525D01*
X363411Y197642D01*
X364238Y197984D01*
X364949Y198529D01*
X365494Y199240D01*
X365837Y200067D01*
X365953Y200955D01*
X365837Y201843D01*
X365494Y202670D01*
X364949Y203381D01*
X364238Y203926D01*
X363411Y204269D01*
X362523Y204386D01*
D02*
G37*
G36*
X177800Y204008D02*
X170997D01*
Y197205D01*
X177800D01*
Y204008D01*
D02*
G37*
G36*
X97200Y199224D02*
Y196200D01*
X100224D01*
X100167Y196629D01*
X99809Y197495D01*
X99238Y198238D01*
X98495Y198809D01*
X97629Y199167D01*
X97200Y199224D01*
D02*
G37*
G36*
X96200D02*
X95771Y199167D01*
X94905Y198809D01*
X94162Y198238D01*
X93591Y197495D01*
X93233Y196629D01*
X93176Y196200D01*
X96200D01*
Y199224D01*
D02*
G37*
G36*
X85830Y198609D02*
X80011D01*
Y192791D01*
X85830D01*
Y198609D01*
D02*
G37*
G36*
X100224Y195200D02*
X97200D01*
Y192176D01*
X97629Y192233D01*
X98495Y192591D01*
X99238Y193162D01*
X99809Y193905D01*
X100167Y194771D01*
X100224Y195200D01*
D02*
G37*
G36*
X96200D02*
X93176D01*
X93233Y194771D01*
X93591Y193905D01*
X94162Y193162D01*
X94905Y192591D01*
X95771Y192233D01*
X96200Y192176D01*
Y195200D01*
D02*
G37*
G36*
X365924Y194356D02*
X359122D01*
Y187554D01*
X365924D01*
Y194356D01*
D02*
G37*
G36*
X174398Y194037D02*
X173511Y193920D01*
X172683Y193577D01*
X171973Y193032D01*
X171428Y192322D01*
X171085Y191494D01*
X170968Y190606D01*
X171085Y189718D01*
X171428Y188891D01*
X171973Y188181D01*
X172683Y187635D01*
X173511Y187293D01*
X174398Y187176D01*
X175286Y187293D01*
X176114Y187635D01*
X176824Y188181D01*
X177369Y188891D01*
X177712Y189718D01*
X177829Y190606D01*
X177712Y191494D01*
X177369Y192322D01*
X176824Y193032D01*
X176114Y193577D01*
X175286Y193920D01*
X174398Y194037D01*
D02*
G37*
G36*
X47700Y188317D02*
Y184300D01*
X51717D01*
X51626Y184986D01*
X51169Y186091D01*
X50440Y187040D01*
X49491Y187769D01*
X48386Y188226D01*
X47700Y188317D01*
D02*
G37*
G36*
X46700D02*
X46014Y188226D01*
X44909Y187769D01*
X43960Y187040D01*
X43231Y186091D01*
X42774Y184986D01*
X42683Y184300D01*
X46700D01*
Y188317D01*
D02*
G37*
G36*
X51717Y183300D02*
X47700D01*
Y179283D01*
X48386Y179374D01*
X49491Y179831D01*
X50440Y180560D01*
X51169Y181509D01*
X51626Y182614D01*
X51717Y183300D01*
D02*
G37*
G36*
X46700D02*
X42683D01*
X42774Y182614D01*
X43231Y181509D01*
X43960Y180560D01*
X44909Y179831D01*
X46014Y179374D01*
X46700Y179283D01*
Y183300D01*
D02*
G37*
G36*
X249544Y171282D02*
X248630Y171162D01*
X247779Y170809D01*
X247048Y170248D01*
X246487Y169517D01*
X246134Y168666D01*
X246014Y167752D01*
X246134Y166839D01*
X246487Y165987D01*
X247048Y165256D01*
X247779Y164695D01*
X248630Y164342D01*
X249544Y164222D01*
X250458Y164342D01*
X251309Y164695D01*
X252040Y165256D01*
X252601Y165987D01*
X252954Y166839D01*
X253074Y167752D01*
X252954Y168666D01*
X252601Y169517D01*
X252040Y170248D01*
X251309Y170809D01*
X250458Y171162D01*
X249544Y171282D01*
D02*
G37*
G36*
X279498Y171265D02*
X278584Y171145D01*
X277733Y170792D01*
X277002Y170231D01*
X276441Y169500D01*
X276088Y168648D01*
X275968Y167735D01*
X276088Y166821D01*
X276441Y165970D01*
X277002Y165238D01*
X277733Y164678D01*
X278584Y164325D01*
X279498Y164205D01*
X280412Y164325D01*
X281263Y164678D01*
X281994Y165238D01*
X282555Y165970D01*
X282908Y166821D01*
X283028Y167735D01*
X282908Y168648D01*
X282555Y169500D01*
X281994Y170231D01*
X281263Y170792D01*
X280412Y171145D01*
X279498Y171265D01*
D02*
G37*
G36*
X182477Y164035D02*
Y159423D01*
X187090D01*
X186979Y160263D01*
X186462Y161512D01*
X185639Y162584D01*
X184566Y163407D01*
X183317Y163925D01*
X182477Y164035D01*
D02*
G37*
G36*
X181477D02*
X180637Y163925D01*
X179388Y163407D01*
X178316Y162584D01*
X177493Y161512D01*
X176976Y160263D01*
X176865Y159423D01*
X181477D01*
Y164035D01*
D02*
G37*
G36*
X207123D02*
Y159423D01*
X211735D01*
X211625Y160263D01*
X211107Y161512D01*
X210284Y162584D01*
X209212Y163407D01*
X207963Y163925D01*
X207123Y164035D01*
D02*
G37*
G36*
X206123D02*
X205283Y163925D01*
X204034Y163407D01*
X202961Y162584D01*
X202138Y161512D01*
X201621Y160263D01*
X201511Y159423D01*
X206123D01*
Y164035D01*
D02*
G37*
G36*
X187090Y158423D02*
X182477D01*
Y153811D01*
X183317Y153921D01*
X184566Y154438D01*
X185639Y155261D01*
X186462Y156334D01*
X186979Y157583D01*
X187090Y158423D01*
D02*
G37*
G36*
X211735Y158423D02*
X207123D01*
Y153811D01*
X207963Y153921D01*
X209212Y154438D01*
X210284Y155261D01*
X211107Y156334D01*
X211625Y157583D01*
X211735Y158423D01*
D02*
G37*
G36*
X206123D02*
X201511D01*
X201621Y157583D01*
X202138Y156334D01*
X202961Y155261D01*
X204034Y154438D01*
X205283Y153921D01*
X206123Y153811D01*
Y158423D01*
D02*
G37*
G36*
X181477Y158423D02*
X176865D01*
X176976Y157583D01*
X177493Y156334D01*
X178316Y155261D01*
X179388Y154438D01*
X180637Y153921D01*
X181477Y153811D01*
Y158423D01*
D02*
G37*
G36*
X350602Y151712D02*
Y147100D01*
X355214D01*
X355103Y147940D01*
X354586Y149189D01*
X353763Y150261D01*
X352691Y151084D01*
X351442Y151602D01*
X350602Y151712D01*
D02*
G37*
G36*
X349602Y151712D02*
X348761Y151602D01*
X347513Y151084D01*
X346440Y150261D01*
X345617Y149189D01*
X345100Y147940D01*
X344989Y147100D01*
X349602D01*
Y151712D01*
D02*
G37*
G36*
X375247D02*
Y147100D01*
X379860D01*
X379749Y147940D01*
X379232Y149189D01*
X378409Y150261D01*
X377336Y151084D01*
X376087Y151602D01*
X375247Y151712D01*
D02*
G37*
G36*
X374247D02*
X373407Y151602D01*
X372158Y151084D01*
X371086Y150261D01*
X370263Y149189D01*
X369746Y147940D01*
X369635Y147100D01*
X374247D01*
Y151712D01*
D02*
G37*
G36*
X194300Y150130D02*
X193386Y150010D01*
X192535Y149657D01*
X191804Y149096D01*
X191243Y148365D01*
X190891Y147514D01*
X190770Y146600D01*
X190891Y145686D01*
X191243Y144835D01*
X191804Y144104D01*
X192535Y143543D01*
X193386Y143191D01*
X194300Y143070D01*
X195214Y143191D01*
X196065Y143543D01*
X196796Y144104D01*
X197357Y144835D01*
X197710Y145686D01*
X197830Y146600D01*
X197710Y147514D01*
X197357Y148365D01*
X196796Y149096D01*
X196065Y149657D01*
X195214Y150010D01*
X194300Y150130D01*
D02*
G37*
G36*
X349602Y146100D02*
X344989D01*
X345100Y145260D01*
X345617Y144011D01*
X346440Y142938D01*
X347513Y142116D01*
X348761Y141598D01*
X349602Y141488D01*
Y146100D01*
D02*
G37*
G36*
X379860Y146100D02*
X375247D01*
Y141488D01*
X376087Y141598D01*
X377336Y142116D01*
X378409Y142938D01*
X379232Y144011D01*
X379749Y145260D01*
X379860Y146100D01*
D02*
G37*
G36*
X374247D02*
X369635D01*
X369746Y145260D01*
X370263Y144011D01*
X371086Y142938D01*
X372158Y142116D01*
X373407Y141598D01*
X374247Y141488D01*
Y146100D01*
D02*
G37*
G36*
X355214Y146100D02*
X350602D01*
Y141488D01*
X351442Y141598D01*
X352691Y142116D01*
X353763Y142938D01*
X354586Y144011D01*
X355103Y145260D01*
X355214Y146100D01*
D02*
G37*
G36*
X207123Y139390D02*
Y134777D01*
X211735D01*
X211625Y135617D01*
X211107Y136866D01*
X210284Y137939D01*
X209212Y138762D01*
X207963Y139279D01*
X207123Y139390D01*
D02*
G37*
G36*
X206123Y139390D02*
X205283Y139279D01*
X204034Y138762D01*
X202961Y137939D01*
X202138Y136866D01*
X201621Y135617D01*
X201511Y134777D01*
X206123D01*
Y139390D01*
D02*
G37*
G36*
X182477D02*
Y134777D01*
X187090D01*
X186979Y135617D01*
X186462Y136866D01*
X185639Y137939D01*
X184566Y138762D01*
X183317Y139279D01*
X182477Y139390D01*
D02*
G37*
G36*
X181477Y139390D02*
X180637Y139279D01*
X179388Y138762D01*
X178316Y137939D01*
X177493Y136866D01*
X176976Y135617D01*
X176865Y134777D01*
X181477D01*
Y139390D01*
D02*
G37*
G36*
X362424Y137807D02*
X361511Y137687D01*
X360660Y137334D01*
X359928Y136773D01*
X359368Y136042D01*
X359015Y135191D01*
X358895Y134277D01*
X359015Y133364D01*
X359368Y132512D01*
X359928Y131781D01*
X360660Y131220D01*
X361511Y130868D01*
X362424Y130747D01*
X363338Y130868D01*
X364189Y131220D01*
X364920Y131781D01*
X365481Y132512D01*
X365834Y133364D01*
X365954Y134277D01*
X365834Y135191D01*
X365481Y136042D01*
X364920Y136773D01*
X364189Y137334D01*
X363338Y137687D01*
X362424Y137807D01*
D02*
G37*
G36*
X211735Y133777D02*
X207123D01*
Y129165D01*
X207963Y129276D01*
X209212Y129793D01*
X210284Y130616D01*
X211107Y131688D01*
X211625Y132937D01*
X211735Y133777D01*
D02*
G37*
G36*
X181477Y133777D02*
X176865D01*
X176976Y132937D01*
X177493Y131688D01*
X178316Y130616D01*
X179388Y129793D01*
X180637Y129276D01*
X181477Y129165D01*
Y133777D01*
D02*
G37*
G36*
X187090D02*
X182477D01*
Y129165D01*
X183317Y129276D01*
X184566Y129793D01*
X185639Y130616D01*
X186462Y131688D01*
X186979Y132937D01*
X187090Y133777D01*
D02*
G37*
G36*
X206123Y133777D02*
X201511D01*
X201621Y132937D01*
X202138Y131688D01*
X202961Y130616D01*
X204034Y129793D01*
X205283Y129276D01*
X206123Y129165D01*
Y133777D01*
D02*
G37*
G36*
X61241Y132500D02*
Y128880D01*
X64861D01*
X64784Y129464D01*
X64366Y130473D01*
X63701Y131340D01*
X62834Y132005D01*
X61824Y132423D01*
X61241Y132500D01*
D02*
G37*
G36*
X60241D02*
X59658Y132423D01*
X58648Y132005D01*
X57781Y131340D01*
X57116Y130473D01*
X56698Y129464D01*
X56621Y128880D01*
X60241D01*
Y132500D01*
D02*
G37*
G36*
Y127880D02*
X56621D01*
X56698Y127297D01*
X57116Y126287D01*
X57781Y125420D01*
X58648Y124755D01*
X59658Y124337D01*
X60241Y124260D01*
Y127880D01*
D02*
G37*
G36*
X64861D02*
X61241D01*
Y124260D01*
X61824Y124337D01*
X62834Y124755D01*
X63701Y125420D01*
X64366Y126287D01*
X64784Y127297D01*
X64861Y127880D01*
D02*
G37*
G36*
X375247Y127067D02*
Y122454D01*
X379860D01*
X379749Y123295D01*
X379232Y124543D01*
X378409Y125616D01*
X377336Y126439D01*
X376087Y126956D01*
X375247Y127067D01*
D02*
G37*
G36*
X374247Y127067D02*
X373407Y126956D01*
X372158Y126439D01*
X371086Y125616D01*
X370263Y124543D01*
X369746Y123295D01*
X369635Y122454D01*
X374247D01*
Y127067D01*
D02*
G37*
G36*
X350602D02*
Y122454D01*
X355214D01*
X355103Y123295D01*
X354586Y124543D01*
X353763Y125616D01*
X352691Y126439D01*
X351442Y126956D01*
X350602Y127067D01*
D02*
G37*
G36*
X349602Y127067D02*
X348761Y126956D01*
X347513Y126439D01*
X346440Y125616D01*
X345617Y124543D01*
X345100Y123295D01*
X344989Y122454D01*
X349602D01*
Y127067D01*
D02*
G37*
G36*
X98640Y127006D02*
X97726Y126886D01*
X96874Y126533D01*
X96143Y125972D01*
X95582Y125241D01*
X95230Y124390D01*
X95109Y123476D01*
X95230Y122562D01*
X95582Y121711D01*
X96143Y120980D01*
X96874Y120419D01*
X97726Y120066D01*
X98640Y119946D01*
X99553Y120066D01*
X100405Y120419D01*
X101136Y120980D01*
X101697Y121711D01*
X102050Y122562D01*
X102170Y123476D01*
X102050Y124390D01*
X101697Y125241D01*
X101136Y125972D01*
X100405Y126533D01*
X99553Y126886D01*
X98640Y127006D01*
D02*
G37*
G36*
X349602Y121454D02*
X344989D01*
X345100Y120614D01*
X345617Y119365D01*
X346440Y118293D01*
X347513Y117470D01*
X348761Y116953D01*
X349602Y116842D01*
Y121454D01*
D02*
G37*
G36*
X379860Y121454D02*
X375247D01*
Y116842D01*
X376087Y116953D01*
X377336Y117470D01*
X378409Y118293D01*
X379232Y119365D01*
X379749Y120614D01*
X379860Y121454D01*
D02*
G37*
G36*
X374247D02*
X369635D01*
X369746Y120614D01*
X370263Y119365D01*
X371086Y118293D01*
X372158Y117470D01*
X373407Y116953D01*
X374247Y116842D01*
Y121454D01*
D02*
G37*
G36*
X355214Y121454D02*
X350602D01*
Y116842D01*
X351442Y116953D01*
X352691Y117470D01*
X353763Y118293D01*
X354586Y119365D01*
X355103Y120614D01*
X355214Y121454D01*
D02*
G37*
G36*
X46200Y101230D02*
X45286Y101110D01*
X44435Y100757D01*
X43704Y100196D01*
X43143Y99465D01*
X42790Y98614D01*
X42670Y97700D01*
X42790Y96786D01*
X43143Y95935D01*
X43704Y95204D01*
X44435Y94643D01*
X45286Y94290D01*
X46200Y94170D01*
X47114Y94290D01*
X47965Y94643D01*
X48696Y95204D01*
X49257Y95935D01*
X49610Y96786D01*
X49730Y97700D01*
X49610Y98614D01*
X49257Y99465D01*
X48696Y100196D01*
X47965Y100757D01*
X47114Y101110D01*
X46200Y101230D01*
D02*
G37*
G36*
X191510Y96081D02*
X190597Y95961D01*
X189745Y95608D01*
X189014Y95047D01*
X188453Y94316D01*
X188101Y93465D01*
X187980Y92551D01*
X188101Y91637D01*
X188453Y90786D01*
X189014Y90055D01*
X189745Y89494D01*
X190597Y89141D01*
X191510Y89021D01*
X192424Y89141D01*
X193276Y89494D01*
X194007Y90055D01*
X194568Y90786D01*
X194920Y91637D01*
X195041Y92551D01*
X194920Y93465D01*
X194568Y94316D01*
X194007Y95047D01*
X193276Y95608D01*
X192424Y95961D01*
X191510Y96081D01*
D02*
G37*
G36*
X64300Y83924D02*
X63541Y83824D01*
X62833Y83531D01*
X62225Y83065D01*
X61759Y82457D01*
X61466Y81749D01*
X61366Y80990D01*
X61466Y80230D01*
X61759Y79523D01*
X62225Y78915D01*
X62833Y78449D01*
X63541Y78156D01*
X64300Y78056D01*
X65059Y78156D01*
X65767Y78449D01*
X66375Y78915D01*
X66841Y79523D01*
X67134Y80230D01*
X67234Y80990D01*
X67134Y81749D01*
X66841Y82457D01*
X66375Y83065D01*
X65767Y83531D01*
X65059Y83824D01*
X64300Y83924D01*
D02*
G37*
G36*
X67859Y70769D02*
X64800D01*
Y67710D01*
X67859D01*
Y70769D01*
D02*
G37*
G36*
X63800D02*
X60741D01*
Y67710D01*
X63800D01*
Y70769D01*
D02*
G37*
G36*
X67859Y66710D02*
X64800D01*
Y63651D01*
X67859D01*
Y66710D01*
D02*
G37*
G36*
X63800D02*
X60741D01*
Y63651D01*
X63800D01*
Y66710D01*
D02*
G37*
G36*
X142500Y52500D02*
X141586Y52380D01*
X140735Y52027D01*
X140004Y51466D01*
X139443Y50735D01*
X139090Y49883D01*
X138970Y48970D01*
X139090Y48056D01*
X139443Y47205D01*
X140004Y46474D01*
X140735Y45913D01*
X141586Y45560D01*
X142500Y45440D01*
X143414Y45560D01*
X144265Y45913D01*
X144996Y46474D01*
X145557Y47205D01*
X145910Y48056D01*
X146030Y48970D01*
X145910Y49883D01*
X145557Y50735D01*
X144996Y51466D01*
X144265Y52027D01*
X143414Y52380D01*
X142500Y52500D01*
D02*
G37*
G36*
X228200Y49017D02*
Y45000D01*
X232217D01*
X232126Y45686D01*
X231669Y46791D01*
X230940Y47740D01*
X229991Y48469D01*
X228886Y48926D01*
X228200Y49017D01*
D02*
G37*
G36*
X227200D02*
X226514Y48926D01*
X225409Y48469D01*
X224460Y47740D01*
X223731Y46791D01*
X223274Y45686D01*
X223183Y45000D01*
X227200D01*
Y49017D01*
D02*
G37*
G36*
X206593Y48393D02*
X198807D01*
Y40607D01*
X206593D01*
Y48393D01*
D02*
G37*
G36*
X232217Y44000D02*
X228200D01*
Y39983D01*
X228886Y40074D01*
X229991Y40531D01*
X230940Y41260D01*
X231669Y42209D01*
X232126Y43314D01*
X232217Y44000D01*
D02*
G37*
G36*
X227200D02*
X223183D01*
X223274Y43314D01*
X223731Y42209D01*
X224460Y41260D01*
X225409Y40531D01*
X226514Y40074D01*
X227200Y39983D01*
Y44000D01*
D02*
G37*
%LPD*%
D65*
X174398Y190606D02*
D03*
X288958Y247701D02*
D03*
X279498Y167735D02*
D03*
X249544Y167752D02*
D03*
X249300Y223600D02*
D03*
X46200Y97700D02*
D03*
X191510Y92551D02*
D03*
X98640Y123476D02*
D03*
X142500Y48970D02*
D03*
X60741Y128380D02*
D03*
X147601Y284533D02*
D03*
X38800Y301400D02*
D03*
X362523Y200955D02*
D03*
D66*
X174398Y200606D02*
D03*
X362523Y190955D02*
D03*
D67*
X374747Y146600D02*
D03*
X350102D02*
D03*
Y121954D02*
D03*
X374747D02*
D03*
Y269023D02*
D03*
X350102D02*
D03*
Y244377D02*
D03*
X374747D02*
D03*
X206623Y256423D02*
D03*
X181977D02*
D03*
Y231777D02*
D03*
X206623D02*
D03*
Y158923D02*
D03*
X181977D02*
D03*
Y134277D02*
D03*
X206623D02*
D03*
D68*
X362424D02*
D03*
Y256700D02*
D03*
X194300Y244100D02*
D03*
Y146600D02*
D03*
D69*
X383800Y9200D02*
D03*
Y383800D02*
D03*
X9200Y9200D02*
D03*
Y383800D02*
D03*
D70*
X47200Y208800D02*
D03*
D71*
Y183800D02*
D03*
X227700Y44500D02*
D03*
D72*
X202700D02*
D03*
D73*
X64300Y67210D02*
D03*
D74*
Y80990D02*
D03*
X115779Y272500D02*
D03*
X96700Y195700D02*
D03*
D75*
X102000Y272500D02*
D03*
X82920Y195700D02*
D03*
D76*
X296258Y216992D02*
D03*
X159670Y105509D02*
D03*
X267372Y223551D02*
D03*
X228300Y215761D02*
D03*
X59344Y313178D02*
D03*
X59100Y323372D02*
D03*
X324755Y193368D02*
D03*
X314985Y198961D02*
D03*
X130000Y330000D02*
D03*
X125000Y340000D02*
D03*
Y320000D02*
D03*
X120000Y50000D02*
D03*
Y30000D02*
D03*
X110000Y350000D02*
D03*
X115000Y320000D02*
D03*
X110000Y70000D02*
D03*
X115000Y60000D02*
D03*
X110000Y50000D02*
D03*
X115000Y40000D02*
D03*
X110000Y30000D02*
D03*
X100000Y350000D02*
D03*
X105000Y320000D02*
D03*
X100000Y70000D02*
D03*
X105000Y60000D02*
D03*
Y40000D02*
D03*
X100000Y30000D02*
D03*
X95000Y320000D02*
D03*
X90000Y70000D02*
D03*
X95000Y60000D02*
D03*
Y40000D02*
D03*
X90000Y30000D02*
D03*
X80000Y330000D02*
D03*
X85000Y320000D02*
D03*
X80000Y70000D02*
D03*
X85000Y60000D02*
D03*
X80000Y50000D02*
D03*
X85000Y40000D02*
D03*
X80000Y30000D02*
D03*
X75000Y320000D02*
D03*
X70000Y310000D02*
D03*
Y290000D02*
D03*
X75000Y280000D02*
D03*
X70000Y70000D02*
D03*
X75000Y60000D02*
D03*
X70000Y50000D02*
D03*
X75000Y40000D02*
D03*
X70000Y30000D02*
D03*
X65000Y300000D02*
D03*
X60000Y290000D02*
D03*
X65000Y280000D02*
D03*
Y60000D02*
D03*
X60000Y50000D02*
D03*
X65000Y40000D02*
D03*
X60000Y30000D02*
D03*
X50000Y70000D02*
D03*
X55000Y60000D02*
D03*
X50000Y50000D02*
D03*
X55000Y40000D02*
D03*
X50000Y30000D02*
D03*
X40000Y350000D02*
D03*
X45000Y340000D02*
D03*
X40000Y330000D02*
D03*
X45000Y60000D02*
D03*
Y40000D02*
D03*
X97500Y79700D02*
D03*
X87700D02*
D03*
X259723Y167754D02*
D03*
X261100Y223551D02*
D03*
X79849Y347039D02*
D03*
X228332Y176817D02*
D03*
M02*
