G04*
G04 #@! TF.GenerationSoftware,Altium Limited,Altium Designer,19.1.9 (167)*
G04*
G04 Layer_Physical_Order=1*
G04 Layer_Color=255*
%FSLAX25Y25*%
%MOIN*%
G70*
G01*
G75*
%ADD15C,0.01000*%
%ADD16R,0.03347X0.03543*%
%ADD17R,0.03543X0.03347*%
G04:AMPARAMS|DCode=18|XSize=17.72mil|YSize=53.15mil|CornerRadius=1.95mil|HoleSize=0mil|Usage=FLASHONLY|Rotation=0.000|XOffset=0mil|YOffset=0mil|HoleType=Round|Shape=RoundedRectangle|*
%AMROUNDEDRECTD18*
21,1,0.01772,0.04925,0,0,0.0*
21,1,0.01382,0.05315,0,0,0.0*
1,1,0.00390,0.00691,-0.02463*
1,1,0.00390,-0.00691,-0.02463*
1,1,0.00390,-0.00691,0.02463*
1,1,0.00390,0.00691,0.02463*
%
%ADD18ROUNDEDRECTD18*%
%ADD19R,0.01772X0.03937*%
%ADD20R,0.01772X0.05709*%
%ADD21R,0.05709X0.01772*%
%ADD22R,0.10630X0.14173*%
%ADD23R,0.05512X0.03937*%
%ADD24R,0.14173X0.10630*%
%ADD25R,0.03937X0.05512*%
%ADD26R,0.06614X0.07559*%
%ADD27R,0.07559X0.06614*%
%ADD28R,0.03937X0.02756*%
%ADD29R,0.07165X0.04764*%
%ADD30R,0.02756X0.03937*%
%ADD31R,0.04764X0.07165*%
%ADD32R,0.07087X0.04331*%
%ADD62C,0.03000*%
%ADD63C,0.02000*%
%ADD64C,0.01200*%
%ADD65C,0.08268*%
%ADD66C,0.06299*%
%ADD67C,0.06102*%
%ADD68C,0.12205*%
%ADD69R,0.06102X0.06102*%
%ADD70R,0.07087X0.07087*%
%ADD71C,0.07087*%
%ADD72R,0.07087X0.07087*%
%ADD73R,0.05118X0.05118*%
%ADD74C,0.05118*%
%ADD75R,0.05118X0.05118*%
%ADD76C,0.02366*%
G36*
X377538Y392538D02*
X363500Y378500D01*
Y372500D01*
X372500Y363500D01*
X378516D01*
X392535Y377519D01*
X392997Y377328D01*
X393000Y196854D01*
X392647Y196500D01*
X280469D01*
X280045Y196683D01*
Y197840D01*
X281581D01*
Y197023D01*
X286219D01*
Y200479D01*
X281581D01*
Y199573D01*
X280045D01*
Y200730D01*
X275801D01*
Y199573D01*
X272582D01*
X271728Y200427D01*
Y201435D01*
X271970Y201535D01*
X272142Y201952D01*
Y206878D01*
X271970Y207295D01*
X271728Y207395D01*
Y208255D01*
X272651Y209178D01*
X275472D01*
Y213422D01*
X271426D01*
Y210404D01*
X270249Y209227D01*
X270061Y208946D01*
X269995Y208614D01*
Y207594D01*
X269495Y207411D01*
X269169Y207695D01*
Y209721D01*
X269719D01*
Y212243D01*
X269735Y212327D01*
Y212558D01*
X276686Y219509D01*
X276874Y219790D01*
X276940Y220122D01*
Y223944D01*
X278096D01*
Y228187D01*
X274050D01*
Y223944D01*
X275206D01*
Y220481D01*
X268256Y213530D01*
X268068Y213249D01*
X268054Y213177D01*
X265082D01*
Y209721D01*
X267436D01*
Y208247D01*
X266936Y207980D01*
X266900Y208003D01*
X266434Y208096D01*
X266243D01*
Y204415D01*
X265243D01*
Y208096D01*
X265052D01*
X264586Y208003D01*
X264191Y207739D01*
X263980Y207424D01*
X263875Y207467D01*
X262493D01*
X262076Y207295D01*
X261904Y206878D01*
Y205282D01*
X250215D01*
Y220191D01*
X251065Y220543D01*
X251796Y221104D01*
X252357Y221835D01*
X252710Y222686D01*
X252830Y223600D01*
X252710Y224514D01*
X252357Y225365D01*
X251796Y226096D01*
X251065Y226657D01*
X250214Y227010D01*
X249300Y227130D01*
X248386Y227010D01*
X247535Y226657D01*
X246804Y226096D01*
X246243Y225365D01*
X245890Y224514D01*
X245770Y223600D01*
X245890Y222686D01*
X246243Y221835D01*
X246804Y221104D01*
X247535Y220543D01*
X248386Y220190D01*
X248482Y220178D01*
Y204611D01*
X248487Y204584D01*
X243477Y199573D01*
X236149D01*
Y200828D01*
X232102D01*
Y197000D01*
X231637Y196500D01*
X230511D01*
X230046Y196585D01*
X230046Y197000D01*
Y200828D01*
X228890D01*
Y203572D01*
X230619D01*
Y207028D01*
X225981D01*
Y203572D01*
X227156D01*
Y200828D01*
X226000D01*
Y199524D01*
X223493D01*
Y200385D01*
X218856D01*
Y199524D01*
X206706D01*
X185167Y221064D01*
Y230684D01*
X185214Y230691D01*
X186065Y231043D01*
X186796Y231604D01*
X187357Y232335D01*
X187709Y233186D01*
X187830Y234100D01*
X187709Y235014D01*
X187357Y235865D01*
X186796Y236596D01*
X186065Y237157D01*
X185214Y237509D01*
X184300Y237630D01*
X183386Y237509D01*
X182535Y237157D01*
X181804Y236596D01*
X181243Y235865D01*
X180891Y235014D01*
X180770Y234100D01*
X180891Y233186D01*
X181243Y232335D01*
X181804Y231604D01*
X182535Y231043D01*
X183386Y230691D01*
X183433Y230684D01*
Y220705D01*
X183499Y220373D01*
X183687Y220092D01*
X205734Y198045D01*
X206016Y197857D01*
X206347Y197791D01*
X218856D01*
Y197000D01*
X218686Y196500D01*
X99517Y196500D01*
X99241Y197167D01*
X98775Y197775D01*
X98167Y198241D01*
X97459Y198534D01*
X96700Y198634D01*
X95941Y198534D01*
X95233Y198241D01*
X94625Y197775D01*
X94159Y197167D01*
X93883Y196500D01*
X85830D01*
Y198609D01*
X84610D01*
Y242813D01*
X84466Y243535D01*
X84057Y244147D01*
X53442Y274762D01*
Y286576D01*
X53874D01*
Y292788D01*
X49237D01*
Y286576D01*
X49670D01*
Y273981D01*
X49813Y273259D01*
X50222Y272647D01*
X80837Y242032D01*
Y198609D01*
X80011D01*
Y197586D01*
X60315D01*
X51126Y206776D01*
X51093Y206939D01*
Y212693D01*
X43307D01*
Y204907D01*
X47743D01*
X47910Y204657D01*
X55604Y196962D01*
X55413Y196500D01*
X-0D01*
Y377347D01*
X462Y377538D01*
X14502Y363498D01*
X20498D01*
X29517Y372517D01*
Y378483D01*
X15462Y392538D01*
X15653Y393000D01*
X377347D01*
X377538Y392538D01*
D02*
G37*
G36*
X393000Y15653D02*
X392538Y15462D01*
X378500Y29500D01*
X372500D01*
X363500Y20500D01*
Y14500D01*
X377538Y462D01*
X377347Y0D01*
X15669D01*
X15478Y462D01*
X29517Y14501D01*
Y20418D01*
X20431Y29504D01*
X14504D01*
X462Y15462D01*
X0Y15653D01*
X-0Y195005D01*
X57561Y195005D01*
X58200Y194366D01*
X58812Y193957D01*
X59534Y193814D01*
X80011D01*
Y192791D01*
X81034D01*
Y113318D01*
X79576D01*
Y108681D01*
X85788D01*
Y113318D01*
X84807D01*
Y192791D01*
X85830D01*
Y195005D01*
X93857D01*
X93866Y194941D01*
X94159Y194233D01*
X94625Y193625D01*
X95233Y193159D01*
X95941Y192866D01*
X96700Y192766D01*
X97459Y192866D01*
X98167Y193159D01*
X98775Y193625D01*
X99241Y194233D01*
X99534Y194941D01*
X99543Y195005D01*
X225944Y195005D01*
X226000Y194505D01*
Y193422D01*
X223493D01*
Y194283D01*
X218856D01*
Y193422D01*
X206162D01*
X205830Y193356D01*
X205549Y193168D01*
X183687Y171306D01*
X183499Y171025D01*
X183433Y170694D01*
Y160016D01*
X183386Y160010D01*
X182535Y159657D01*
X181804Y159096D01*
X181243Y158365D01*
X180891Y157514D01*
X180770Y156600D01*
X180891Y155686D01*
X181243Y154835D01*
X181804Y154104D01*
X182535Y153543D01*
X183386Y153191D01*
X184300Y153070D01*
X185214Y153191D01*
X186065Y153543D01*
X186796Y154104D01*
X187357Y154835D01*
X187709Y155686D01*
X187830Y156600D01*
X187709Y157514D01*
X187357Y158365D01*
X186796Y159096D01*
X186065Y159657D01*
X185214Y160010D01*
X185167Y160016D01*
Y170334D01*
X206521Y191689D01*
X218856D01*
Y190827D01*
X223493D01*
Y191689D01*
X226000D01*
Y190285D01*
X227156D01*
Y187879D01*
X225981D01*
Y184423D01*
X230619D01*
Y187879D01*
X228890D01*
Y190285D01*
X230046D01*
Y194505D01*
X230046Y194528D01*
X230101Y195005D01*
X232047D01*
X232102Y194505D01*
Y190285D01*
X236149D01*
Y191540D01*
X243479D01*
X248677Y186341D01*
Y171168D01*
X248630Y171162D01*
X247779Y170809D01*
X247048Y170248D01*
X246487Y169517D01*
X246134Y168666D01*
X246014Y167752D01*
X246134Y166839D01*
X246487Y165987D01*
X247048Y165256D01*
X247779Y164695D01*
X248630Y164342D01*
X249544Y164222D01*
X250458Y164342D01*
X251309Y164695D01*
X252040Y165256D01*
X252601Y165987D01*
X252954Y166839D01*
X253074Y167752D01*
X252954Y168666D01*
X252601Y169517D01*
X252040Y170248D01*
X251309Y170809D01*
X250458Y171162D01*
X250411Y171168D01*
Y186029D01*
X261904D01*
Y184433D01*
X262076Y184016D01*
X262493Y183843D01*
X263875D01*
X264292Y184016D01*
X264418Y184016D01*
X264635Y183827D01*
X264447Y183327D01*
X260502D01*
X260170Y183261D01*
X259889Y183073D01*
X259138Y182322D01*
X258950Y182040D01*
X258884Y181709D01*
Y181074D01*
X257629D01*
Y177028D01*
X261872D01*
Y181074D01*
X261630D01*
X261363Y181574D01*
X261375Y181593D01*
X264877D01*
Y181074D01*
X263478D01*
Y177028D01*
X267722D01*
Y181074D01*
X266610D01*
Y183716D01*
X267110Y183900D01*
X267436Y183616D01*
Y183074D01*
X267502Y182743D01*
X267690Y182462D01*
X268692Y181459D01*
Y177674D01*
X268758Y177342D01*
X268946Y177061D01*
X276470Y169537D01*
X276441Y169500D01*
X276088Y168648D01*
X275968Y167735D01*
X276088Y166821D01*
X276441Y165970D01*
X277002Y165238D01*
X277733Y164678D01*
X278584Y164325D01*
X279498Y164205D01*
X280412Y164325D01*
X281263Y164678D01*
X281994Y165238D01*
X282555Y165970D01*
X282908Y166821D01*
X283028Y167735D01*
X282908Y168648D01*
X282555Y169500D01*
X281994Y170231D01*
X281263Y170792D01*
X280412Y171145D01*
X279498Y171265D01*
X278584Y171145D01*
X277733Y170792D01*
X277695Y170763D01*
X270426Y178033D01*
Y181389D01*
X270926Y181596D01*
X271426Y181096D01*
Y178078D01*
X275472D01*
Y182322D01*
X272651D01*
X271728Y183245D01*
Y183916D01*
X271970Y184016D01*
X272142Y184433D01*
Y189358D01*
X271970Y189775D01*
X271728Y189875D01*
Y190269D01*
X271662Y190601D01*
X271474Y190882D01*
X268190Y194166D01*
X268355Y194709D01*
X268429Y194723D01*
X271161Y191991D01*
X271443Y191803D01*
X271774Y191737D01*
X275801D01*
Y190581D01*
X280045D01*
Y191737D01*
X281581D01*
Y190921D01*
X286219D01*
Y194377D01*
X281581D01*
Y193471D01*
X280045D01*
Y194627D01*
X280339Y195005D01*
X323545Y195005D01*
X323697Y194505D01*
X323650Y194474D01*
X323311Y193966D01*
X323192Y193368D01*
X323311Y192770D01*
X323650Y192263D01*
X324157Y191924D01*
X324755Y191805D01*
X325353Y191924D01*
X325860Y192263D01*
X325880Y192293D01*
X327681D01*
Y191223D01*
X332318D01*
Y194505D01*
X332318Y194679D01*
X332683Y195005D01*
X393000Y195005D01*
X393000Y15653D01*
D02*
G37*
%LPC*%
G36*
X85040Y366533D02*
X79577D01*
Y359085D01*
X73623D01*
Y366533D01*
X68160D01*
Y358667D01*
X70082D01*
Y356922D01*
X68926D01*
Y355207D01*
X65874D01*
Y356922D01*
X61828D01*
Y352678D01*
X65874D01*
Y353474D01*
X68926D01*
Y352678D01*
X70072D01*
Y348774D01*
X67734D01*
Y346303D01*
X67734Y346303D01*
X67629Y345846D01*
X67132D01*
X65874Y347104D01*
Y350322D01*
X62854D01*
X61050Y352125D01*
X60769Y352313D01*
X60438Y352379D01*
X60422D01*
Y354300D01*
X57749D01*
X55076D01*
Y352379D01*
X53274D01*
Y353422D01*
X49632D01*
X49632Y355551D01*
X49521Y355819D01*
X49253Y355930D01*
X42508D01*
X42241Y355819D01*
X35434Y349013D01*
X35434Y349012D01*
X35434Y349012D01*
X35379Y348879D01*
X35324Y348745D01*
X35324Y348745D01*
X35324Y348744D01*
X35332Y346110D01*
X35334Y327655D01*
X35386Y327529D01*
X35424Y327438D01*
X35324Y327194D01*
Y315278D01*
X29559Y309514D01*
X29448Y309246D01*
Y297773D01*
X29559Y297505D01*
X33665Y293399D01*
X33933Y293288D01*
X57566D01*
X57741Y293171D01*
Y278520D01*
X57852Y278252D01*
X58120Y278141D01*
X82895D01*
X83163Y278252D01*
X83274Y278520D01*
Y303956D01*
X83573Y304331D01*
X83774Y304331D01*
X85451D01*
Y307300D01*
Y310268D01*
X83774D01*
X83573Y310268D01*
X83274Y310644D01*
Y312460D01*
X83550Y312738D01*
X128751D01*
X129019Y312849D01*
X129130Y313117D01*
X129130Y321225D01*
X129576Y321725D01*
X135928D01*
X136196Y321836D01*
X136307Y322104D01*
Y322240D01*
X136578Y322628D01*
X140822D01*
X141129Y322255D01*
X141130Y322238D01*
X141179Y322195D01*
X141204Y322134D01*
X141283Y322102D01*
X141347Y322045D01*
X141642Y321941D01*
X141685Y321944D01*
X141723Y321923D01*
X141825Y321952D01*
X141931Y321958D01*
X141960Y321990D01*
X142002Y322002D01*
X142333Y322264D01*
X142731Y322141D01*
X142833Y322070D01*
Y319494D01*
X142755Y319415D01*
X140822D01*
Y320572D01*
X136578D01*
Y316526D01*
X137833D01*
Y310195D01*
X136381D01*
Y306739D01*
X141018D01*
Y310195D01*
X139567D01*
Y316526D01*
X140822D01*
Y317682D01*
X143114D01*
X143446Y317748D01*
X143727Y317936D01*
X144313Y318522D01*
X144501Y318803D01*
X144567Y319135D01*
Y328649D01*
X144501Y328981D01*
X144313Y329262D01*
X110362Y363213D01*
X110081Y363401D01*
X109749Y363467D01*
X85040D01*
Y366533D01*
D02*
G37*
G36*
X60422Y357572D02*
X58249D01*
Y355300D01*
X60422D01*
Y357572D01*
D02*
G37*
G36*
X57249D02*
X55076D01*
Y355300D01*
X57249D01*
Y357572D01*
D02*
G37*
G36*
X86451Y310268D02*
Y307800D01*
X88329D01*
Y310268D01*
X86451D01*
D02*
G37*
G36*
X88329Y306800D02*
X86451D01*
Y304331D01*
X88329D01*
Y306800D01*
D02*
G37*
G36*
X141668Y304743D02*
X139200D01*
Y302865D01*
X141668D01*
Y304743D01*
D02*
G37*
G36*
X138200D02*
X135731D01*
Y302865D01*
X138200D01*
Y304743D01*
D02*
G37*
G36*
X141668Y301865D02*
X139200D01*
Y299987D01*
X141668D01*
Y301865D01*
D02*
G37*
G36*
X138200D02*
X135731D01*
Y299987D01*
X138200D01*
Y301865D01*
D02*
G37*
G36*
X91991Y303583D02*
X89109D01*
Y299500D01*
X91991D01*
Y303583D01*
D02*
G37*
G36*
X88109D02*
X85227D01*
Y299500D01*
X88109D01*
Y303583D01*
D02*
G37*
G36*
X121687Y302819D02*
X114100D01*
Y297004D01*
X121687D01*
Y302819D01*
D02*
G37*
G36*
X113100D02*
X105513D01*
Y297004D01*
X113100D01*
Y302819D01*
D02*
G37*
G36*
X91991Y298500D02*
X89109D01*
Y294417D01*
X91991D01*
Y298500D01*
D02*
G37*
G36*
X88109D02*
X85227D01*
Y294417D01*
X88109D01*
Y298500D01*
D02*
G37*
G36*
X121687Y296004D02*
X114100D01*
Y290189D01*
X121687D01*
Y296004D01*
D02*
G37*
G36*
X113100D02*
X105513D01*
Y290189D01*
X113100D01*
Y296004D01*
D02*
G37*
G36*
X91991Y293683D02*
X89109D01*
Y289600D01*
X91991D01*
Y293683D01*
D02*
G37*
G36*
X88109D02*
X85227D01*
Y289600D01*
X88109D01*
Y293683D01*
D02*
G37*
G36*
X148101Y288653D02*
Y285033D01*
X151721D01*
X151644Y285616D01*
X151226Y286626D01*
X150561Y287493D01*
X149694Y288158D01*
X148684Y288576D01*
X148101Y288653D01*
D02*
G37*
G36*
X147101D02*
X146518Y288576D01*
X145508Y288158D01*
X144641Y287493D01*
X143976Y286626D01*
X143558Y285616D01*
X143481Y285033D01*
X147101D01*
Y288653D01*
D02*
G37*
G36*
X91991Y288600D02*
X89109D01*
Y284517D01*
X91991D01*
Y288600D01*
D02*
G37*
G36*
X88109D02*
X85227D01*
Y284517D01*
X88109D01*
Y288600D01*
D02*
G37*
G36*
X151721Y284033D02*
X148101D01*
Y280413D01*
X148684Y280490D01*
X149694Y280908D01*
X150561Y281573D01*
X151226Y282440D01*
X151644Y283450D01*
X151721Y284033D01*
D02*
G37*
G36*
X147101D02*
X143481D01*
X143558Y283450D01*
X143976Y282440D01*
X144641Y281573D01*
X145508Y280908D01*
X146518Y280490D01*
X147101Y280413D01*
Y284033D01*
D02*
G37*
G36*
X105559Y276059D02*
X102500D01*
Y273000D01*
X105559D01*
Y276059D01*
D02*
G37*
G36*
X101500D02*
X98441D01*
Y273000D01*
X101500D01*
Y276059D01*
D02*
G37*
G36*
X115779Y275434D02*
X115020Y275334D01*
X114312Y275041D01*
X113705Y274575D01*
X113239Y273967D01*
X112945Y273259D01*
X112845Y272500D01*
X112945Y271741D01*
X113239Y271033D01*
X113705Y270425D01*
X114312Y269959D01*
X115020Y269666D01*
X115779Y269566D01*
X116539Y269666D01*
X117247Y269959D01*
X117854Y270425D01*
X118321Y271033D01*
X118614Y271741D01*
X118714Y272500D01*
X118614Y273259D01*
X118321Y273967D01*
X117854Y274575D01*
X117247Y275041D01*
X116539Y275334D01*
X115779Y275434D01*
D02*
G37*
G36*
X105559Y272000D02*
X102500D01*
Y268941D01*
X105559D01*
Y272000D01*
D02*
G37*
G36*
X101500D02*
X98441D01*
Y268941D01*
X101500D01*
Y272000D01*
D02*
G37*
G36*
X374747Y273545D02*
X373577Y273391D01*
X372486Y272939D01*
X371549Y272221D01*
X370831Y271284D01*
X370379Y270193D01*
X370225Y269023D01*
X370379Y267852D01*
X370831Y266762D01*
X371549Y265825D01*
X372486Y265106D01*
X373577Y264654D01*
X374747Y264500D01*
X375918Y264654D01*
X377009Y265106D01*
X377945Y265825D01*
X378664Y266762D01*
X379116Y267852D01*
X379270Y269023D01*
X379116Y270193D01*
X378664Y271284D01*
X377945Y272221D01*
X377009Y272939D01*
X375918Y273391D01*
X374747Y273545D01*
D02*
G37*
G36*
X350102D02*
X348931Y273391D01*
X347840Y272939D01*
X346904Y272221D01*
X346185Y271284D01*
X345733Y270193D01*
X345579Y269023D01*
X345733Y267852D01*
X346185Y266762D01*
X346904Y265825D01*
X347840Y265106D01*
X348931Y264654D01*
X350102Y264500D01*
X351272Y264654D01*
X352363Y265106D01*
X353300Y265825D01*
X354018Y266762D01*
X354470Y267852D01*
X354624Y269023D01*
X354470Y270193D01*
X354018Y271284D01*
X353300Y272221D01*
X352363Y272939D01*
X351272Y273391D01*
X350102Y273545D01*
D02*
G37*
G36*
X288958Y251231D02*
X288044Y251111D01*
X287193Y250758D01*
X286462Y250197D01*
X285901Y249466D01*
X285548Y248614D01*
X285428Y247701D01*
X285548Y246787D01*
X285901Y245936D01*
X286462Y245204D01*
X287193Y244643D01*
X288044Y244291D01*
X288958Y244170D01*
X289872Y244291D01*
X290723Y244643D01*
X291454Y245204D01*
X292015Y245936D01*
X292368Y246787D01*
X292488Y247701D01*
X292368Y248614D01*
X292015Y249466D01*
X291454Y250197D01*
X290723Y250758D01*
X289872Y251111D01*
X288958Y251231D01*
D02*
G37*
G36*
X196623Y250945D02*
X195452Y250791D01*
X194362Y250340D01*
X193425Y249621D01*
X192706Y248684D01*
X192254Y247593D01*
X192100Y246423D01*
X192254Y245252D01*
X192706Y244162D01*
X193425Y243225D01*
X194362Y242506D01*
X195452Y242054D01*
X196623Y241900D01*
X197793Y242054D01*
X198884Y242506D01*
X199821Y243225D01*
X200539Y244162D01*
X200991Y245252D01*
X201145Y246423D01*
X200991Y247593D01*
X200539Y248684D01*
X199821Y249621D01*
X198884Y250340D01*
X197793Y250791D01*
X196623Y250945D01*
D02*
G37*
G36*
X171977D02*
X170807Y250791D01*
X169716Y250340D01*
X168779Y249621D01*
X168061Y248684D01*
X167609Y247593D01*
X167455Y246423D01*
X167609Y245252D01*
X168061Y244162D01*
X168779Y243225D01*
X169716Y242506D01*
X170807Y242054D01*
X171977Y241900D01*
X173148Y242054D01*
X174238Y242506D01*
X175175Y243225D01*
X175894Y244162D01*
X176346Y245252D01*
X176500Y246423D01*
X176346Y247593D01*
X175894Y248684D01*
X175175Y249621D01*
X174238Y250340D01*
X173148Y250791D01*
X171977Y250945D01*
D02*
G37*
G36*
X374747Y248900D02*
X373577Y248746D01*
X372486Y248294D01*
X371549Y247575D01*
X370831Y246638D01*
X370379Y245548D01*
X370225Y244377D01*
X370379Y243207D01*
X370831Y242116D01*
X371549Y241179D01*
X372486Y240460D01*
X373577Y240009D01*
X374747Y239855D01*
X375918Y240009D01*
X377009Y240460D01*
X377945Y241179D01*
X378664Y242116D01*
X379116Y243207D01*
X379270Y244377D01*
X379116Y245548D01*
X378664Y246638D01*
X377945Y247575D01*
X377009Y248294D01*
X375918Y248746D01*
X374747Y248900D01*
D02*
G37*
G36*
X350102D02*
X348931Y248746D01*
X347840Y248294D01*
X346904Y247575D01*
X346185Y246638D01*
X345733Y245548D01*
X345579Y244377D01*
X345733Y243207D01*
X346185Y242116D01*
X346904Y241179D01*
X347840Y240460D01*
X348931Y240009D01*
X350102Y239855D01*
X351272Y240009D01*
X352363Y240460D01*
X353300Y241179D01*
X354018Y242116D01*
X354470Y243207D01*
X354624Y244377D01*
X354470Y245548D01*
X354018Y246638D01*
X353300Y247575D01*
X352363Y248294D01*
X351272Y248746D01*
X350102Y248900D01*
D02*
G37*
G36*
X294639Y237600D02*
X292368D01*
Y235427D01*
X294639D01*
Y237600D01*
D02*
G37*
G36*
X291368D02*
X289096D01*
Y235427D01*
X291368D01*
Y237600D01*
D02*
G37*
G36*
X294639Y234427D02*
X292368D01*
Y232254D01*
X294639D01*
Y234427D01*
D02*
G37*
G36*
X291368D02*
X289096D01*
Y232254D01*
X291368D01*
Y234427D01*
D02*
G37*
G36*
X293989Y230848D02*
X289746D01*
Y226933D01*
X284199D01*
Y228187D01*
X280152D01*
Y223944D01*
X284199D01*
Y225199D01*
X289746D01*
Y221257D01*
X293989D01*
Y225303D01*
X292734D01*
Y226801D01*
X293989D01*
Y230848D01*
D02*
G37*
G36*
X196623Y226300D02*
X195452Y226146D01*
X194362Y225694D01*
X193425Y224975D01*
X192706Y224038D01*
X192254Y222948D01*
X192100Y221777D01*
X192254Y220607D01*
X192706Y219516D01*
X193425Y218579D01*
X194362Y217861D01*
X195452Y217409D01*
X196623Y217255D01*
X197793Y217409D01*
X198884Y217861D01*
X199821Y218579D01*
X200539Y219516D01*
X200991Y220607D01*
X201145Y221777D01*
X200991Y222948D01*
X200539Y224038D01*
X199821Y224975D01*
X198884Y225694D01*
X197793Y226146D01*
X196623Y226300D01*
D02*
G37*
G36*
X171977D02*
X170807Y226146D01*
X169716Y225694D01*
X168779Y224975D01*
X168061Y224038D01*
X167609Y222948D01*
X167455Y221777D01*
X167609Y220607D01*
X168061Y219516D01*
X168779Y218579D01*
X169716Y217861D01*
X170807Y217409D01*
X171977Y217255D01*
X173148Y217409D01*
X174238Y217861D01*
X175175Y218579D01*
X175894Y219516D01*
X176346Y220607D01*
X176500Y221777D01*
X176346Y222948D01*
X175894Y224038D01*
X175175Y224975D01*
X174238Y225694D01*
X173148Y226146D01*
X171977Y226300D01*
D02*
G37*
G36*
X267372Y225115D02*
X266774Y224996D01*
X266266Y224657D01*
X265928Y224150D01*
X265809Y223551D01*
X265928Y222953D01*
X266266Y222446D01*
X266505Y222287D01*
Y219279D01*
X265082D01*
Y215823D01*
X269719D01*
Y219279D01*
X268238D01*
Y222287D01*
X268477Y222446D01*
X268816Y222953D01*
X268935Y223551D01*
X268816Y224150D01*
X268477Y224657D01*
X267970Y224996D01*
X267372Y225115D01*
D02*
G37*
G36*
X260921D02*
X260322Y224996D01*
X259815Y224657D01*
X259476Y224150D01*
X259357Y223551D01*
X259476Y222953D01*
X259815Y222446D01*
X260054Y222287D01*
Y219279D01*
X258602D01*
Y215823D01*
X263239D01*
Y219279D01*
X261787D01*
Y222287D01*
X262026Y222446D01*
X262365Y222953D01*
X262484Y223551D01*
X262365Y224150D01*
X262026Y224657D01*
X261519Y224996D01*
X260921Y225115D01*
D02*
G37*
G36*
X293989Y219201D02*
X289746D01*
Y215154D01*
X293989D01*
Y216311D01*
X294869D01*
X295152Y215887D01*
X295660Y215548D01*
X296258Y215429D01*
X296856Y215548D01*
X297363Y215887D01*
X297702Y216394D01*
X297821Y216992D01*
X297702Y217590D01*
X297363Y218097D01*
X296856Y218436D01*
X296258Y218555D01*
X295660Y218436D01*
X295152Y218097D01*
X295117Y218044D01*
X293989D01*
Y219201D01*
D02*
G37*
G36*
X263889Y213827D02*
X261421D01*
Y211949D01*
X263889D01*
Y213827D01*
D02*
G37*
G36*
X260421D02*
X257952D01*
Y211949D01*
X260421D01*
Y213827D01*
D02*
G37*
G36*
X228300Y217325D02*
X227702Y217206D01*
X227195Y216867D01*
X226856Y216360D01*
X226737Y215761D01*
X226856Y215163D01*
X227195Y214656D01*
X227433Y214497D01*
Y213130D01*
X225981D01*
Y209674D01*
X230619D01*
Y213130D01*
X229167D01*
Y214497D01*
X229405Y214656D01*
X229744Y215163D01*
X229863Y215761D01*
X229744Y216360D01*
X229405Y216867D01*
X228898Y217206D01*
X228300Y217325D01*
D02*
G37*
G36*
X263889Y210949D02*
X261421D01*
Y209071D01*
X263889D01*
Y210949D01*
D02*
G37*
G36*
X260421D02*
X257952D01*
Y209071D01*
X260421D01*
Y210949D01*
D02*
G37*
G36*
X311791Y207382D02*
X309323D01*
Y205504D01*
X311791D01*
Y207382D01*
D02*
G37*
G36*
X308323D02*
X305854D01*
Y205504D01*
X308323D01*
Y207382D01*
D02*
G37*
G36*
X315384Y207382D02*
X313999D01*
Y204913D01*
X315384D01*
Y207382D01*
D02*
G37*
G36*
X311791Y204504D02*
X309323D01*
Y202626D01*
X311791D01*
Y204504D01*
D02*
G37*
G36*
X308323D02*
X305854D01*
Y202626D01*
X308323D01*
Y204504D01*
D02*
G37*
G36*
X362424Y260230D02*
X361511Y260109D01*
X360660Y259757D01*
X359928Y259196D01*
X359368Y258465D01*
X359015Y257614D01*
X358895Y256700D01*
X359015Y255786D01*
X359368Y254935D01*
X359928Y254204D01*
X360660Y253643D01*
X361511Y253291D01*
X361656Y253271D01*
Y204272D01*
X361635Y204269D01*
X360808Y203926D01*
X360097Y203381D01*
X359552Y202670D01*
X359209Y201843D01*
X359193Y201722D01*
X343593D01*
Y204121D01*
X335807D01*
Y202472D01*
X324797D01*
Y206732D01*
X322738D01*
X322326Y206732D01*
X321826Y206732D01*
X319767D01*
X319767Y206732D01*
X319310Y206837D01*
Y209718D01*
X319244Y210050D01*
X319056Y210331D01*
X317474Y211913D01*
X317193Y212101D01*
X316862Y212167D01*
X281574D01*
Y213422D01*
X277528D01*
Y209178D01*
X281574D01*
Y210433D01*
X316502D01*
X317577Y209359D01*
Y207382D01*
X316384D01*
Y204413D01*
Y201445D01*
X317770D01*
Y202095D01*
X319679D01*
Y202095D01*
X319767D01*
Y202095D01*
X321826D01*
X322238Y202095D01*
X322766Y202095D01*
X322813Y201860D01*
X323001Y201578D01*
X323587Y200993D01*
X323868Y200805D01*
X324200Y200739D01*
X335807D01*
Y199090D01*
X343593D01*
Y199988D01*
X359242D01*
X359552Y199240D01*
X360097Y198529D01*
X360808Y197984D01*
X361635Y197642D01*
X362523Y197525D01*
X363411Y197642D01*
X364238Y197984D01*
X364949Y198529D01*
X365494Y199240D01*
X365837Y200067D01*
X365953Y200955D01*
X365837Y201843D01*
X365494Y202670D01*
X364949Y203381D01*
X364238Y203926D01*
X363411Y204269D01*
X363390Y204272D01*
Y253312D01*
X364189Y253643D01*
X364920Y254204D01*
X365481Y254935D01*
X365834Y255786D01*
X365954Y256700D01*
X365834Y257614D01*
X365481Y258465D01*
X364920Y259196D01*
X364189Y259757D01*
X363338Y260109D01*
X362424Y260230D01*
D02*
G37*
G36*
X315384Y203913D02*
X313999D01*
Y201445D01*
X315384D01*
Y203913D01*
D02*
G37*
G36*
X311141Y200629D02*
X306504D01*
Y197173D01*
X311141D01*
Y198035D01*
X313760D01*
X313879Y197856D01*
X314387Y197517D01*
X314985Y197398D01*
X315583Y197517D01*
X316090Y197856D01*
X316429Y198363D01*
X316548Y198961D01*
X316429Y199559D01*
X316090Y200066D01*
X315583Y200405D01*
X314985Y200524D01*
X314387Y200405D01*
X313879Y200066D01*
X313680Y199768D01*
X311141D01*
Y200629D01*
D02*
G37*
%LPD*%
G36*
X142027Y329097D02*
X141820Y328596D01*
X129639Y328596D01*
X116863Y341373D01*
X116595Y341484D01*
X116201D01*
X116055Y341630D01*
X92559Y341630D01*
X92352Y342130D01*
X93081Y342860D01*
X93581Y342653D01*
Y342223D01*
X98219D01*
Y345679D01*
X93660D01*
X93362Y346088D01*
X94999Y347726D01*
X97922D01*
Y351772D01*
X93679D01*
Y348857D01*
X92578Y347756D01*
X92116Y347947D01*
Y349424D01*
X88761D01*
Y347539D01*
X88261D01*
Y347039D01*
X84407D01*
Y345653D01*
X84703D01*
X85057Y345299D01*
X85057Y343744D01*
X85057Y343244D01*
Y341984D01*
X84703Y341630D01*
X81850Y341630D01*
X81700Y341480D01*
X81700Y341193D01*
Y335592D01*
X81700Y321600D01*
X128751Y321594D01*
X128751Y313117D01*
X83393D01*
X82895Y312617D01*
Y278520D01*
X58120D01*
Y297584D01*
X58152Y327617D01*
X60120Y329585D01*
X60582Y329393D01*
Y327071D01*
X63051D01*
Y329449D01*
Y331827D01*
X63016D01*
X62824Y332289D01*
X62979Y332443D01*
X63008Y332513D01*
X63061Y332566D01*
Y332612D01*
X63449Y333000D01*
X67516Y333000D01*
X68016Y332572D01*
Y330109D01*
X72296D01*
Y333916D01*
X69543D01*
X69363Y334383D01*
X70719Y335612D01*
X76078Y335602D01*
Y336007D01*
X76118Y336103D01*
Y341373D01*
X76078Y341470D01*
X76078Y347847D01*
X73524Y350400D01*
X73524Y358667D01*
X73623D01*
Y358706D01*
X79577D01*
Y358667D01*
X85040D01*
Y358706D01*
X86251D01*
X88668Y361123D01*
X110000D01*
X142027Y329097D01*
D02*
G37*
G36*
X55076Y348700D02*
X57749D01*
X60422D01*
Y349649D01*
X60884Y349840D01*
X61828Y348896D01*
Y346078D01*
X62100D01*
X62100Y339852D01*
X65666Y339852D01*
X66622Y340808D01*
X67084Y340617D01*
Y340361D01*
X70939D01*
X74793D01*
Y341373D01*
X75739D01*
Y336103D01*
X70697Y336103D01*
X67806Y333483D01*
X66519Y333483D01*
Y335051D01*
X60582D01*
Y333173D01*
X62520D01*
X62711Y332711D01*
X57560Y327560D01*
X57561Y323492D01*
X57537Y323372D01*
X57561Y323251D01*
X57566Y298071D01*
Y293667D01*
X33933D01*
X29827Y297773D01*
Y309246D01*
X35702Y315121D01*
Y327194D01*
X46095D01*
X56616Y337716D01*
X58297D01*
X59502Y338921D01*
X59523Y344864D01*
X53802Y344864D01*
X53802Y350645D01*
X55076D01*
Y348700D01*
D02*
G37*
G36*
X49253Y353422D02*
X49228D01*
Y349178D01*
X49253D01*
X49253Y344131D01*
X49523D01*
Y342481D01*
X52979D01*
Y344131D01*
X55371D01*
Y342700D01*
X57749D01*
Y342200D01*
X58249D01*
Y339231D01*
X58561D01*
X58770Y338732D01*
X58398Y338352D01*
X58140Y338095D01*
X56616D01*
X56604Y338090D01*
X56181D01*
X45746Y327655D01*
X35713Y327655D01*
X35710Y346111D01*
X35702Y348745D01*
X42508Y355551D01*
X49253D01*
X49253Y353422D01*
D02*
G37*
G36*
X84407Y341105D02*
Y340361D01*
X88261D01*
X92116D01*
Y341105D01*
X116595Y341105D01*
X129600Y328100D01*
X142190Y328100D01*
X142201Y322642D01*
X141767Y322299D01*
X141472Y322402D01*
Y324151D01*
X135928D01*
Y322104D01*
X121687D01*
Y327500D01*
X105513D01*
Y322104D01*
X82235D01*
X82190Y322148D01*
Y341105D01*
X84407D01*
D02*
G37*
%LPC*%
G36*
X98572Y358524D02*
X96301D01*
Y356351D01*
X98572D01*
Y358524D01*
D02*
G37*
G36*
X95301D02*
X93029D01*
Y356351D01*
X95301D01*
Y358524D01*
D02*
G37*
G36*
X79724Y357572D02*
X77551D01*
Y355300D01*
X79724D01*
Y357572D01*
D02*
G37*
G36*
X76551D02*
X74378D01*
Y355300D01*
X76551D01*
Y357572D01*
D02*
G37*
G36*
X98572Y355351D02*
X96301D01*
Y353178D01*
X98572D01*
Y355351D01*
D02*
G37*
G36*
X95301D02*
X93029D01*
Y353178D01*
X95301D01*
Y355351D01*
D02*
G37*
G36*
X79724Y354300D02*
X77551D01*
Y352028D01*
X79724D01*
Y354300D01*
D02*
G37*
G36*
X76551D02*
X74378D01*
Y352028D01*
X76551D01*
Y354300D01*
D02*
G37*
G36*
X87761Y349424D02*
X84407D01*
Y348039D01*
X87761D01*
Y349424D01*
D02*
G37*
G36*
X77576Y333916D02*
X73296D01*
Y330109D01*
X77576D01*
Y333916D01*
D02*
G37*
G36*
X66519Y331827D02*
X64051D01*
Y329949D01*
X66519D01*
Y331827D01*
D02*
G37*
G36*
Y328949D02*
X64051D01*
Y327071D01*
X66519D01*
Y328949D01*
D02*
G37*
G36*
X77576Y329109D02*
X73296D01*
Y325302D01*
X77576D01*
Y329109D01*
D02*
G37*
G36*
X72296D02*
X68016D01*
Y325302D01*
X72296D01*
Y329109D01*
D02*
G37*
G36*
X66519Y326177D02*
X63637D01*
Y322094D01*
X66519D01*
Y326177D01*
D02*
G37*
G36*
X62637D02*
X59755D01*
Y322094D01*
X62637D01*
Y326177D01*
D02*
G37*
G36*
X66519Y321094D02*
X63637D01*
Y317011D01*
X66519D01*
Y321094D01*
D02*
G37*
G36*
X62637D02*
X59755D01*
Y317011D01*
X62637D01*
Y321094D01*
D02*
G37*
G36*
X66519Y316383D02*
X63637D01*
Y312300D01*
X66519D01*
Y316383D01*
D02*
G37*
G36*
X62637D02*
X59755D01*
Y312300D01*
X62637D01*
Y316383D01*
D02*
G37*
G36*
X82227Y310268D02*
X80349D01*
Y307800D01*
X82227D01*
Y310268D01*
D02*
G37*
G36*
X79349D02*
X77471D01*
Y307800D01*
X79349D01*
Y310268D01*
D02*
G37*
G36*
X66519Y311300D02*
X63637D01*
Y307217D01*
X66519D01*
Y311300D01*
D02*
G37*
G36*
X62637D02*
X59755D01*
Y307217D01*
X62637D01*
Y311300D01*
D02*
G37*
G36*
X82227Y306800D02*
X80349D01*
Y304331D01*
X82227D01*
Y306800D01*
D02*
G37*
G36*
X79349D02*
X77471D01*
Y304331D01*
X79349D01*
Y306800D01*
D02*
G37*
G36*
X80573Y303583D02*
X77691D01*
Y299500D01*
X80573D01*
Y303583D01*
D02*
G37*
G36*
X76691D02*
X73809D01*
Y299500D01*
X76691D01*
Y303583D01*
D02*
G37*
G36*
X80573Y298500D02*
X77691D01*
Y294417D01*
X80573D01*
Y298500D01*
D02*
G37*
G36*
X76691D02*
X73809D01*
Y294417D01*
X76691D01*
Y298500D01*
D02*
G37*
G36*
X80573Y293683D02*
X77691D01*
Y289600D01*
X80573D01*
Y293683D01*
D02*
G37*
G36*
X76691D02*
X73809D01*
Y289600D01*
X76691D01*
Y293683D01*
D02*
G37*
G36*
X80573Y288600D02*
X77691D01*
Y284517D01*
X80573D01*
Y288600D01*
D02*
G37*
G36*
X76691D02*
X73809D01*
Y284517D01*
X76691D01*
Y288600D01*
D02*
G37*
G36*
X60422Y347700D02*
X58249D01*
Y345428D01*
X60422D01*
Y347700D01*
D02*
G37*
G36*
X57249D02*
X55076D01*
Y345428D01*
X57249D01*
Y347700D01*
D02*
G37*
G36*
X74793Y339362D02*
X71439D01*
Y337976D01*
X74793D01*
Y339362D01*
D02*
G37*
G36*
X70439D02*
X67084D01*
Y337976D01*
X70439D01*
Y339362D01*
D02*
G37*
G36*
X66519Y337929D02*
X64051D01*
Y336051D01*
X66519D01*
Y337929D01*
D02*
G37*
G36*
X63051D02*
X60582D01*
Y336051D01*
X63051D01*
Y337929D01*
D02*
G37*
G36*
X55102Y326177D02*
X52220D01*
Y322094D01*
X55102D01*
Y326177D01*
D02*
G37*
G36*
X51220D02*
X48338D01*
Y322094D01*
X51220D01*
Y326177D01*
D02*
G37*
G36*
X55102Y321094D02*
X52220D01*
Y317011D01*
X55102D01*
Y321094D01*
D02*
G37*
G36*
X51220D02*
X48338D01*
Y317011D01*
X51220D01*
Y321094D01*
D02*
G37*
G36*
X55102Y316383D02*
X52220D01*
Y312300D01*
X55102D01*
Y316383D01*
D02*
G37*
G36*
X51220D02*
X48338D01*
Y312300D01*
X51220D01*
Y316383D01*
D02*
G37*
G36*
X55102Y311300D02*
X52220D01*
Y307217D01*
X55102D01*
Y311300D01*
D02*
G37*
G36*
X51220D02*
X48338D01*
Y307217D01*
X51220D01*
Y311300D01*
D02*
G37*
G36*
X39300Y305520D02*
Y301900D01*
X42920D01*
X42843Y302483D01*
X42425Y303493D01*
X41760Y304360D01*
X40893Y305025D01*
X39883Y305443D01*
X39300Y305520D01*
D02*
G37*
G36*
X38300D02*
X37717Y305443D01*
X36707Y305025D01*
X35840Y304360D01*
X35175Y303493D01*
X34757Y302483D01*
X34680Y301900D01*
X38300D01*
Y305520D01*
D02*
G37*
G36*
X54524Y303674D02*
X52056D01*
Y300418D01*
X54524D01*
Y303674D01*
D02*
G37*
G36*
X51056D02*
X48587D01*
Y300418D01*
X51056D01*
Y303674D01*
D02*
G37*
G36*
X42920Y300900D02*
X39300D01*
Y297280D01*
X39883Y297357D01*
X40893Y297775D01*
X41760Y298440D01*
X42425Y299307D01*
X42843Y300317D01*
X42920Y300900D01*
D02*
G37*
G36*
X38300D02*
X34680D01*
X34757Y300317D01*
X35175Y299307D01*
X35840Y298440D01*
X36707Y297775D01*
X37717Y297357D01*
X38300Y297280D01*
Y300900D01*
D02*
G37*
G36*
X54524Y299418D02*
X52056D01*
Y296162D01*
X54524D01*
Y299418D01*
D02*
G37*
G36*
X51056D02*
X48587D01*
Y296162D01*
X51056D01*
Y299418D01*
D02*
G37*
G36*
X47822Y354072D02*
X45649D01*
Y351800D01*
X47822D01*
Y354072D01*
D02*
G37*
G36*
X44649D02*
X42476D01*
Y351800D01*
X44649D01*
Y354072D01*
D02*
G37*
G36*
X47822Y350800D02*
X45649D01*
Y348528D01*
X47822D01*
Y350800D01*
D02*
G37*
G36*
X44649D02*
X42476D01*
Y348528D01*
X44649D01*
Y350800D01*
D02*
G37*
G36*
X47527Y347768D02*
X45649D01*
Y345300D01*
X47527D01*
Y347768D01*
D02*
G37*
G36*
X44649D02*
X42771D01*
Y345300D01*
X44649D01*
Y347768D01*
D02*
G37*
G36*
X47527Y344300D02*
X45649D01*
Y341831D01*
X47527D01*
Y344300D01*
D02*
G37*
G36*
X44649D02*
X42771D01*
Y341831D01*
X44649D01*
Y344300D01*
D02*
G37*
G36*
X57249Y341700D02*
X55371D01*
Y339231D01*
X57249D01*
Y341700D01*
D02*
G37*
G36*
X98869Y340227D02*
X96400D01*
Y338349D01*
X98869D01*
Y340227D01*
D02*
G37*
G36*
X95400D02*
X92931D01*
Y338349D01*
X95400D01*
Y340227D01*
D02*
G37*
G36*
X92116Y339361D02*
X88761D01*
Y337976D01*
X92116D01*
Y339361D01*
D02*
G37*
G36*
X87761D02*
X84407D01*
Y337976D01*
X87761D01*
Y339361D01*
D02*
G37*
G36*
X98869Y337349D02*
X96400D01*
Y335471D01*
X98869D01*
Y337349D01*
D02*
G37*
G36*
X95400D02*
X92931D01*
Y335471D01*
X95400D01*
Y337349D01*
D02*
G37*
G36*
X92379Y333916D02*
X88099D01*
Y330109D01*
X92379D01*
Y333916D01*
D02*
G37*
G36*
X87099D02*
X82820D01*
Y330109D01*
X87099D01*
Y333916D01*
D02*
G37*
G36*
X121687Y334315D02*
X114100D01*
Y328500D01*
X121687D01*
Y334315D01*
D02*
G37*
G36*
X113100D02*
X105513D01*
Y328500D01*
X113100D01*
Y334315D01*
D02*
G37*
G36*
X92379Y329109D02*
X88099D01*
Y325302D01*
X92379D01*
Y329109D01*
D02*
G37*
G36*
X87099D02*
X82820D01*
Y325302D01*
X87099D01*
Y329109D01*
D02*
G37*
G36*
X141472Y327324D02*
X139200D01*
Y325151D01*
X141472D01*
Y327324D01*
D02*
G37*
G36*
X138200D02*
X135928D01*
Y325151D01*
X138200D01*
Y327324D01*
D02*
G37*
G36*
X365924Y194356D02*
X359122D01*
Y191447D01*
X343593D01*
Y192310D01*
X335807D01*
Y190661D01*
X322210D01*
X321879Y190595D01*
X321598Y190407D01*
X320390Y189199D01*
X320267Y189015D01*
X319767Y189015D01*
X319267Y189015D01*
X317208D01*
Y189015D01*
X317120D01*
Y189015D01*
X314649D01*
Y184378D01*
X315018D01*
Y181672D01*
X314732Y181267D01*
X281574D01*
Y182322D01*
X277528D01*
Y178078D01*
X281574D01*
Y179533D01*
X315164D01*
X315495Y179599D01*
X315777Y179787D01*
X316497Y180508D01*
X316685Y180789D01*
X316751Y181121D01*
Y181672D01*
X316751Y181673D01*
Y184274D01*
X317208Y184378D01*
X317208Y184378D01*
X317208Y184378D01*
X319267D01*
X319679Y184378D01*
X320179Y184378D01*
X321676D01*
Y183728D01*
X323061D01*
Y186697D01*
X323562D01*
Y187197D01*
X325447D01*
Y188928D01*
X327031D01*
Y187349D01*
X332968D01*
Y188928D01*
X335807D01*
Y187279D01*
X343593D01*
Y189714D01*
X359122D01*
Y187554D01*
X361558D01*
Y137693D01*
X361511Y137687D01*
X360660Y137334D01*
X359928Y136773D01*
X359368Y136042D01*
X359015Y135191D01*
X358895Y134277D01*
X359015Y133364D01*
X359368Y132512D01*
X359928Y131781D01*
X360660Y131220D01*
X361511Y130868D01*
X362424Y130747D01*
X363338Y130868D01*
X364189Y131220D01*
X364920Y131781D01*
X365481Y132512D01*
X365834Y133364D01*
X365954Y134277D01*
X365834Y135191D01*
X365481Y136042D01*
X364920Y136773D01*
X364189Y137334D01*
X363338Y137687D01*
X363291Y137693D01*
Y187554D01*
X365924D01*
Y194356D01*
D02*
G37*
G36*
X332968Y186349D02*
X330500D01*
Y184471D01*
X332968D01*
Y186349D01*
D02*
G37*
G36*
X329500D02*
X327031D01*
Y184471D01*
X329500D01*
Y186349D01*
D02*
G37*
G36*
X325447Y186197D02*
X324061D01*
Y183728D01*
X325447D01*
Y186197D01*
D02*
G37*
G36*
X47200Y187727D02*
X46184Y187593D01*
X45237Y187201D01*
X44423Y186577D01*
X43799Y185763D01*
X43407Y184816D01*
X43273Y183800D01*
X43407Y182784D01*
X43799Y181837D01*
X44423Y181023D01*
X45237Y180399D01*
X46184Y180007D01*
X47200Y179873D01*
X48216Y180007D01*
X49163Y180399D01*
X49977Y181023D01*
X50601Y181837D01*
X50993Y182784D01*
X51127Y183800D01*
X50993Y184816D01*
X50601Y185763D01*
X49977Y186577D01*
X49163Y187201D01*
X48216Y187593D01*
X47200Y187727D01*
D02*
G37*
G36*
X230619Y181777D02*
X225981D01*
Y178321D01*
X226937D01*
X227038Y178183D01*
X227159Y177821D01*
X226888Y177415D01*
X226769Y176817D01*
X226888Y176219D01*
X227227Y175712D01*
X227734Y175373D01*
X228332Y175254D01*
X228930Y175373D01*
X229437Y175712D01*
X229776Y176219D01*
X229895Y176817D01*
X229776Y177415D01*
X229505Y177821D01*
X229626Y178183D01*
X229727Y178321D01*
X230619D01*
Y181777D01*
D02*
G37*
G36*
X268372Y175622D02*
X266100D01*
Y173449D01*
X268372D01*
Y175622D01*
D02*
G37*
G36*
X265100D02*
X262828D01*
Y173449D01*
X265100D01*
Y175622D01*
D02*
G37*
G36*
X268372Y172449D02*
X266100D01*
Y170276D01*
X268372D01*
Y172449D01*
D02*
G37*
G36*
X265100D02*
X262828D01*
Y170276D01*
X265100D01*
Y172449D01*
D02*
G37*
G36*
X261872Y174972D02*
X257629D01*
Y170926D01*
X258856D01*
Y169019D01*
X258618Y168860D01*
X258279Y168353D01*
X258160Y167754D01*
X258279Y167156D01*
X258618Y166649D01*
X259125Y166310D01*
X259723Y166191D01*
X260321Y166310D01*
X260828Y166649D01*
X261167Y167156D01*
X261286Y167754D01*
X261167Y168353D01*
X260828Y168860D01*
X260590Y169019D01*
Y170926D01*
X261872D01*
Y174972D01*
D02*
G37*
G36*
X196623Y173445D02*
X195452Y173291D01*
X194362Y172839D01*
X193425Y172121D01*
X192706Y171184D01*
X192254Y170093D01*
X192100Y168923D01*
X192254Y167752D01*
X192706Y166662D01*
X193425Y165725D01*
X194362Y165006D01*
X195452Y164554D01*
X196623Y164400D01*
X197793Y164554D01*
X198884Y165006D01*
X199821Y165725D01*
X200539Y166662D01*
X200991Y167752D01*
X201145Y168923D01*
X200991Y170093D01*
X200539Y171184D01*
X199821Y172121D01*
X198884Y172839D01*
X197793Y173291D01*
X196623Y173445D01*
D02*
G37*
G36*
X171977D02*
X170807Y173291D01*
X169716Y172839D01*
X168779Y172121D01*
X168061Y171184D01*
X167609Y170093D01*
X167455Y168923D01*
X167609Y167752D01*
X168061Y166662D01*
X168779Y165725D01*
X169716Y165006D01*
X170807Y164554D01*
X171977Y164400D01*
X173148Y164554D01*
X174238Y165006D01*
X175175Y165725D01*
X175894Y166662D01*
X176346Y167752D01*
X176500Y168923D01*
X176346Y170093D01*
X175894Y171184D01*
X175175Y172121D01*
X174238Y172839D01*
X173148Y173291D01*
X171977Y173445D01*
D02*
G37*
G36*
X374747Y151123D02*
X373577Y150969D01*
X372486Y150517D01*
X371549Y149798D01*
X370831Y148861D01*
X370379Y147771D01*
X370225Y146600D01*
X370379Y145430D01*
X370831Y144339D01*
X371549Y143402D01*
X372486Y142683D01*
X373577Y142232D01*
X374747Y142077D01*
X375918Y142232D01*
X377009Y142683D01*
X377945Y143402D01*
X378664Y144339D01*
X379116Y145430D01*
X379270Y146600D01*
X379116Y147771D01*
X378664Y148861D01*
X377945Y149798D01*
X377009Y150517D01*
X375918Y150969D01*
X374747Y151123D01*
D02*
G37*
G36*
X350102D02*
X348931Y150969D01*
X347840Y150517D01*
X346904Y149798D01*
X346185Y148861D01*
X345733Y147771D01*
X345579Y146600D01*
X345733Y145430D01*
X346185Y144339D01*
X346904Y143402D01*
X347840Y142683D01*
X348931Y142232D01*
X350102Y142077D01*
X351272Y142232D01*
X352363Y142683D01*
X353300Y143402D01*
X354018Y144339D01*
X354470Y145430D01*
X354624Y146600D01*
X354470Y147771D01*
X354018Y148861D01*
X353300Y149798D01*
X352363Y150517D01*
X351272Y150969D01*
X350102Y151123D01*
D02*
G37*
G36*
X196623Y148800D02*
X195452Y148646D01*
X194362Y148194D01*
X193425Y147475D01*
X192706Y146538D01*
X192254Y145448D01*
X192100Y144277D01*
X192254Y143107D01*
X192706Y142016D01*
X193425Y141079D01*
X194362Y140360D01*
X195452Y139909D01*
X196623Y139755D01*
X197793Y139909D01*
X198884Y140360D01*
X199821Y141079D01*
X200539Y142016D01*
X200991Y143107D01*
X201145Y144277D01*
X200991Y145448D01*
X200539Y146538D01*
X199821Y147475D01*
X198884Y148194D01*
X197793Y148646D01*
X196623Y148800D01*
D02*
G37*
G36*
X171977D02*
X170807Y148646D01*
X169716Y148194D01*
X168779Y147475D01*
X168061Y146538D01*
X167609Y145448D01*
X167455Y144277D01*
X167609Y143107D01*
X168061Y142016D01*
X168779Y141079D01*
X169716Y140360D01*
X170807Y139909D01*
X171977Y139755D01*
X173148Y139909D01*
X174238Y140360D01*
X175175Y141079D01*
X175894Y142016D01*
X176346Y143107D01*
X176500Y144277D01*
X176346Y145448D01*
X175894Y146538D01*
X175175Y147475D01*
X174238Y148194D01*
X173148Y148646D01*
X171977Y148800D01*
D02*
G37*
G36*
X60741Y131910D02*
X59827Y131790D01*
X58976Y131437D01*
X58245Y130876D01*
X57684Y130145D01*
X57331Y129294D01*
X57211Y128380D01*
X57331Y127466D01*
X57684Y126615D01*
X58245Y125884D01*
X58976Y125323D01*
X59827Y124970D01*
X60741Y124850D01*
X61655Y124970D01*
X62506Y125323D01*
X63237Y125884D01*
X63798Y126615D01*
X64151Y127466D01*
X64271Y128380D01*
X64151Y129294D01*
X63798Y130145D01*
X63237Y130876D01*
X62506Y131437D01*
X61655Y131790D01*
X60741Y131910D01*
D02*
G37*
G36*
X158300Y121329D02*
Y119451D01*
X160768D01*
Y121329D01*
X158300D01*
D02*
G37*
G36*
X151200Y121624D02*
X148928D01*
Y119451D01*
X151200D01*
Y121624D01*
D02*
G37*
G36*
X374747Y126477D02*
X373577Y126323D01*
X372486Y125871D01*
X371549Y125152D01*
X370831Y124216D01*
X370379Y123125D01*
X370225Y121954D01*
X370379Y120784D01*
X370831Y119693D01*
X371549Y118756D01*
X372486Y118038D01*
X373577Y117586D01*
X374747Y117432D01*
X375918Y117586D01*
X377009Y118038D01*
X377945Y118756D01*
X378664Y119693D01*
X379116Y120784D01*
X379270Y121954D01*
X379116Y123125D01*
X378664Y124216D01*
X377945Y125152D01*
X377009Y125871D01*
X375918Y126323D01*
X374747Y126477D01*
D02*
G37*
G36*
X350102D02*
X348931Y126323D01*
X347840Y125871D01*
X346904Y125152D01*
X346185Y124216D01*
X345733Y123125D01*
X345579Y121954D01*
X345733Y120784D01*
X346185Y119693D01*
X346904Y118756D01*
X347840Y118038D01*
X348931Y117586D01*
X350102Y117432D01*
X351272Y117586D01*
X352363Y118038D01*
X353300Y118756D01*
X354018Y119693D01*
X354470Y120784D01*
X354624Y121954D01*
X354470Y123125D01*
X354018Y124216D01*
X353300Y125152D01*
X352363Y125871D01*
X351272Y126323D01*
X350102Y126477D01*
D02*
G37*
G36*
X160768Y118451D02*
X158300D01*
Y116573D01*
X160768D01*
Y118451D01*
D02*
G37*
G36*
X151200D02*
X148928D01*
Y116278D01*
X151200D01*
Y118451D01*
D02*
G37*
G36*
X154472Y121624D02*
X154454Y121624D01*
X152200D01*
Y118951D01*
Y116278D01*
X154472Y116278D01*
X154849Y116573D01*
X154972Y116573D01*
X157300D01*
Y118951D01*
Y121329D01*
X154972D01*
X154849Y121329D01*
X154472Y121624D01*
D02*
G37*
G36*
X109372Y131080D02*
X87842D01*
X87574Y130969D01*
X87463Y130701D01*
Y103200D01*
X87574Y102932D01*
X87842Y102821D01*
X107376D01*
Y100549D01*
X111959D01*
Y100048D01*
X112459D01*
Y96667D01*
X116541D01*
Y96667D01*
X116876D01*
Y96667D01*
X120959D01*
Y100048D01*
X121459D01*
Y100549D01*
X126041D01*
Y102821D01*
X127020D01*
X127430Y102604D01*
Y100135D01*
X129807D01*
Y99635D01*
X130307D01*
Y96667D01*
X131078D01*
X131541Y96516D01*
X131597Y96384D01*
X131652Y96250D01*
X131653Y96250D01*
X131653Y96249D01*
X132364Y95546D01*
X132175Y95083D01*
X130409D01*
Y90304D01*
Y85524D01*
X134216D01*
Y86235D01*
X141067Y86235D01*
X141067Y86235D01*
X141067Y86235D01*
X141205Y86292D01*
X141335Y86346D01*
X141335Y86346D01*
X141335Y86346D01*
X141688Y86700D01*
X141688Y86700D01*
X141688Y86700D01*
X141745Y86837D01*
X141799Y86968D01*
X141799Y86968D01*
X141799Y86968D01*
X141798Y88307D01*
X141743Y88440D01*
X141736Y88457D01*
X141958Y88957D01*
X143756D01*
Y88957D01*
X143844D01*
Y88957D01*
X145903D01*
X146315Y88957D01*
X146815Y88957D01*
X148874D01*
Y91295D01*
X152878D01*
Y90528D01*
X157122D01*
Y91785D01*
X159067D01*
Y89877D01*
X166933D01*
Y91642D01*
X188100D01*
X188101Y91637D01*
X188453Y90786D01*
X189014Y90055D01*
X189745Y89494D01*
X190597Y89141D01*
X191510Y89021D01*
X192424Y89141D01*
X193276Y89494D01*
X194007Y90055D01*
X194568Y90786D01*
X194920Y91637D01*
X195041Y92551D01*
X194920Y93465D01*
X194568Y94316D01*
X194007Y95047D01*
X193276Y95608D01*
X192424Y95961D01*
X191510Y96081D01*
X190597Y95961D01*
X189745Y95608D01*
X189014Y95047D01*
X188453Y94316D01*
X188101Y93465D01*
X188089Y93375D01*
X166933D01*
Y95341D01*
X159067D01*
Y93518D01*
X157122D01*
Y94574D01*
X155467D01*
Y97126D01*
X157122D01*
Y101172D01*
X152878D01*
Y97126D01*
X153733D01*
Y94574D01*
X152878D01*
Y93028D01*
X148874D01*
Y95366D01*
X146403Y95366D01*
X146332Y95836D01*
Y95854D01*
X147604Y97126D01*
X150422D01*
Y99946D01*
X151845Y101369D01*
X151978Y101396D01*
X152259Y101584D01*
X152447Y101865D01*
X152513Y102197D01*
Y102903D01*
X152878Y103228D01*
X153013Y103228D01*
X157122D01*
Y104643D01*
X158405D01*
X158565Y104404D01*
X159072Y104065D01*
X159670Y103946D01*
X160268Y104065D01*
X160775Y104404D01*
X161114Y104911D01*
X161233Y105509D01*
X161114Y106107D01*
X160775Y106614D01*
X160268Y106953D01*
X159670Y107072D01*
X159072Y106953D01*
X158565Y106614D01*
X158405Y106376D01*
X157122D01*
Y107274D01*
X153013D01*
X152878Y107274D01*
X152513Y107599D01*
Y110826D01*
X153822D01*
Y111982D01*
X155482D01*
Y111121D01*
X160118D01*
Y114577D01*
X155482D01*
Y113716D01*
X153822D01*
Y114872D01*
X149578D01*
Y110826D01*
X150779D01*
Y109836D01*
X150424Y109484D01*
X145252Y109530D01*
X145251Y109529D01*
X145250Y109530D01*
X145116Y109475D01*
X144983Y109421D01*
X144983Y109420D01*
X144982Y109420D01*
X144627Y109068D01*
X144626Y109067D01*
X144625Y109067D01*
X144570Y108934D01*
X144515Y108801D01*
X144515Y108800D01*
X144515Y108799D01*
Y107634D01*
X142900D01*
Y105256D01*
X142400D01*
Y104756D01*
X139432D01*
Y104638D01*
X138970Y104446D01*
X125535Y117880D01*
X125267Y117991D01*
X109773D01*
X109751Y130702D01*
X109695Y130835D01*
X109640Y130969D01*
X109640Y130969D01*
X109639Y130970D01*
X109505Y131025D01*
X109372Y131080D01*
D02*
G37*
G36*
X141900Y107634D02*
X139432D01*
Y105756D01*
X141900D01*
Y107634D01*
D02*
G37*
G36*
X46700Y101820D02*
Y98200D01*
X50320D01*
X50243Y98783D01*
X49825Y99793D01*
X49160Y100660D01*
X48293Y101325D01*
X47283Y101743D01*
X46700Y101820D01*
D02*
G37*
G36*
X45700D02*
X45117Y101743D01*
X44107Y101325D01*
X43240Y100660D01*
X42575Y99793D01*
X42157Y98783D01*
X42080Y98200D01*
X45700D01*
Y101820D01*
D02*
G37*
G36*
X129307Y99135D02*
X127430D01*
Y96667D01*
X129307D01*
Y99135D01*
D02*
G37*
G36*
X126041Y99549D02*
X121959D01*
Y96667D01*
X126041D01*
Y99549D01*
D02*
G37*
G36*
X111459D02*
X107376D01*
Y96667D01*
X111459D01*
Y99549D01*
D02*
G37*
G36*
X50320Y97200D02*
X46700D01*
Y93580D01*
X47283Y93657D01*
X48293Y94075D01*
X49160Y94740D01*
X49825Y95607D01*
X50243Y96617D01*
X50320Y97200D01*
D02*
G37*
G36*
X45700D02*
X42080D01*
X42157Y96617D01*
X42575Y95607D01*
X43240Y94740D01*
X44107Y94075D01*
X45117Y93657D01*
X45700Y93580D01*
Y97200D01*
D02*
G37*
G36*
X129409Y95083D02*
X125602D01*
Y90804D01*
X129409D01*
Y95083D01*
D02*
G37*
G36*
X157772Y89122D02*
X155500D01*
Y86949D01*
X157772D01*
Y89122D01*
D02*
G37*
G36*
X154500D02*
X152228D01*
Y86949D01*
X154500D01*
Y89122D01*
D02*
G37*
G36*
X100633Y89790D02*
X96550D01*
Y86909D01*
X100633D01*
Y89790D01*
D02*
G37*
G36*
X90783D02*
X86700D01*
Y86909D01*
X90783D01*
Y89790D01*
D02*
G37*
G36*
X95550D02*
X91467D01*
Y86909D01*
X95550D01*
Y89790D01*
D02*
G37*
G36*
X85700D02*
X81617D01*
Y86909D01*
X85700D01*
Y89790D01*
D02*
G37*
G36*
X129409Y89804D02*
X125602D01*
Y85524D01*
X129409D01*
Y89804D01*
D02*
G37*
G36*
X107968Y86229D02*
X105500D01*
Y84351D01*
X107968D01*
Y86229D01*
D02*
G37*
G36*
X104500D02*
X102032D01*
Y84351D01*
X104500D01*
Y86229D01*
D02*
G37*
G36*
X157772Y85949D02*
X155500D01*
Y83776D01*
X157772D01*
Y85949D01*
D02*
G37*
G36*
X154500D02*
X152228D01*
Y83776D01*
X154500D01*
Y85949D01*
D02*
G37*
G36*
X100633Y85909D02*
X96550D01*
Y83027D01*
X100633D01*
Y85909D01*
D02*
G37*
G36*
X95550D02*
X91467D01*
Y83027D01*
X95550D01*
Y85909D01*
D02*
G37*
G36*
X90783D02*
X86700D01*
Y83027D01*
X90783D01*
Y85909D01*
D02*
G37*
G36*
X85700D02*
X81617D01*
Y83027D01*
X85700D01*
Y85909D01*
D02*
G37*
G36*
X64800Y84514D02*
Y81490D01*
X67824D01*
X67767Y81919D01*
X67409Y82785D01*
X66838Y83528D01*
X66095Y84099D01*
X65229Y84457D01*
X64800Y84514D01*
D02*
G37*
G36*
X63800D02*
X63371Y84457D01*
X62505Y84099D01*
X61762Y83528D01*
X61191Y82785D01*
X60833Y81919D01*
X60776Y81490D01*
X63800D01*
Y84514D01*
D02*
G37*
G36*
X67824Y80490D02*
X64800D01*
Y77466D01*
X65229Y77522D01*
X66095Y77881D01*
X66838Y78451D01*
X67409Y79195D01*
X67767Y80061D01*
X67824Y80490D01*
D02*
G37*
G36*
X63800D02*
X60776D01*
X60833Y80061D01*
X61191Y79195D01*
X61762Y78451D01*
X62505Y77881D01*
X63371Y77522D01*
X63800Y77466D01*
Y80490D01*
D02*
G37*
G36*
X149524Y78693D02*
X148139D01*
Y75339D01*
X149524D01*
Y78693D01*
D02*
G37*
G36*
X158924Y70272D02*
X156751D01*
Y68000D01*
X158924D01*
Y70272D01*
D02*
G37*
G36*
X155751D02*
X153578D01*
Y68000D01*
X155751D01*
Y70272D01*
D02*
G37*
G36*
X166933Y83923D02*
X159067D01*
Y78460D01*
X162133D01*
Y56756D01*
X154847Y49470D01*
X151278D01*
X150429Y48621D01*
X149929Y48828D01*
Y55897D01*
X149818Y56165D01*
X141579Y64404D01*
Y68586D01*
X142079Y68793D01*
X142523Y68349D01*
Y65163D01*
X145979D01*
Y69035D01*
X146051Y69125D01*
X146479Y69390D01*
X146623Y69361D01*
X147160D01*
X148126Y68396D01*
Y65378D01*
X152172D01*
Y69622D01*
X149351D01*
X148489Y70484D01*
X148696Y70984D01*
X149524D01*
Y74339D01*
X147639D01*
Y74839D01*
X147139D01*
Y78693D01*
X145753D01*
Y78043D01*
X143844D01*
Y78043D01*
X143756D01*
Y78043D01*
X141739D01*
X141517Y78543D01*
X141579Y78693D01*
Y80990D01*
X141468Y81258D01*
X141200Y81369D01*
X121714D01*
X121434Y81287D01*
X121434Y81287D01*
X121434Y81287D01*
X121300Y81342D01*
X121167Y81397D01*
X108437D01*
X107968Y81473D01*
X107968Y81897D01*
Y83351D01*
X102032D01*
X102032Y81473D01*
X101563Y81397D01*
X82863D01*
X82730Y81343D01*
X82596Y81287D01*
X74370Y73096D01*
X39200D01*
X38932Y72985D01*
X38821Y72717D01*
Y19200D01*
X38932Y18932D01*
X39200Y18821D01*
X106333Y18821D01*
X106600Y18932D01*
X106711Y19200D01*
Y21228D01*
X106823Y21681D01*
X110279D01*
Y23233D01*
X116426D01*
Y21878D01*
X119345D01*
X121055Y20168D01*
X121336Y19981D01*
X121668Y19915D01*
X127384D01*
X127716Y19981D01*
X127997Y20168D01*
X163613Y55784D01*
X163801Y56065D01*
X163867Y56397D01*
Y78460D01*
X166933D01*
Y83923D01*
D02*
G37*
G36*
X158924Y67000D02*
X156751D01*
Y64728D01*
X158924D01*
Y67000D01*
D02*
G37*
G36*
X155751D02*
X153578D01*
Y64728D01*
X155751D01*
Y67000D01*
D02*
G37*
G36*
X207243Y49043D02*
X203200D01*
Y45000D01*
X207243D01*
Y49043D01*
D02*
G37*
G36*
X202200D02*
X198157D01*
Y45000D01*
X202200D01*
Y49043D01*
D02*
G37*
G36*
X227700Y48427D02*
X226684Y48293D01*
X225736Y47901D01*
X224923Y47277D01*
X224299Y46464D01*
X223907Y45516D01*
X223773Y44500D01*
X223907Y43484D01*
X224299Y42537D01*
X224923Y41723D01*
X225736Y41099D01*
X226684Y40707D01*
X227700Y40573D01*
X228716Y40707D01*
X229663Y41099D01*
X230477Y41723D01*
X231101Y42537D01*
X231493Y43484D01*
X231627Y44500D01*
X231493Y45516D01*
X231101Y46464D01*
X230477Y47277D01*
X229663Y47901D01*
X228716Y48293D01*
X227700Y48427D01*
D02*
G37*
G36*
X207243Y44000D02*
X203200D01*
Y39957D01*
X207243D01*
Y44000D01*
D02*
G37*
G36*
X202200D02*
X198157D01*
Y39957D01*
X202200D01*
Y44000D01*
D02*
G37*
%LPD*%
G36*
X109395Y117613D02*
X125267D01*
X139680Y103200D01*
X144893Y103200D01*
X144893Y108799D01*
X145248Y109151D01*
X150779Y109102D01*
Y107924D01*
X148800D01*
Y105251D01*
Y102578D01*
X149949D01*
X150140Y102116D01*
X149196Y101172D01*
X146178D01*
Y101172D01*
X146076Y101069D01*
X139976Y101075D01*
X139976Y97524D01*
X140983Y96516D01*
X140776Y96016D01*
X140461D01*
Y92161D01*
Y88307D01*
X141419D01*
X141420Y86968D01*
X141067Y86614D01*
X134115Y86614D01*
X133762Y86968D01*
X133762Y94697D01*
X131920Y96518D01*
Y101358D01*
X131535Y101742D01*
Y101954D01*
X131324D01*
X130078Y103200D01*
X87842D01*
Y130701D01*
X109372D01*
X109395Y117613D01*
D02*
G37*
%LPC*%
G36*
X99140Y127596D02*
Y123976D01*
X102760D01*
X102683Y124559D01*
X102265Y125569D01*
X101600Y126436D01*
X100733Y127101D01*
X99723Y127519D01*
X99140Y127596D01*
D02*
G37*
G36*
X98140D02*
X97556Y127519D01*
X96547Y127101D01*
X95680Y126436D01*
X95015Y125569D01*
X94596Y124559D01*
X94520Y123976D01*
X98140D01*
Y127596D01*
D02*
G37*
G36*
Y122976D02*
X94520D01*
X94596Y122393D01*
X95015Y121383D01*
X95680Y120516D01*
X96547Y119851D01*
X97556Y119433D01*
X98140Y119356D01*
Y122976D01*
D02*
G37*
G36*
X102760D02*
X99140D01*
Y119356D01*
X99723Y119433D01*
X100733Y119851D01*
X101600Y120516D01*
X102265Y121383D01*
X102683Y122393D01*
X102760Y122976D01*
D02*
G37*
G36*
X121959Y114848D02*
Y111966D01*
X126041D01*
Y114848D01*
X121959D01*
D02*
G37*
G36*
X111459D02*
X107376D01*
Y111966D01*
X111459D01*
Y114848D01*
D02*
G37*
G36*
X96675Y113968D02*
X93419D01*
Y111500D01*
X96675D01*
Y113968D01*
D02*
G37*
G36*
X92419D02*
X89163D01*
Y111500D01*
X92419D01*
Y113968D01*
D02*
G37*
G36*
X126041Y110966D02*
X121959D01*
Y108084D01*
X126041D01*
Y110966D01*
D02*
G37*
G36*
X111459D02*
X107376D01*
Y108084D01*
X111459D01*
Y110966D01*
D02*
G37*
G36*
X116541Y114848D02*
X116376Y114848D01*
X112459D01*
Y111466D01*
Y108084D01*
X116376D01*
X116876Y108084D01*
X117041Y108084D01*
X120959D01*
Y111466D01*
Y114848D01*
X117041D01*
X116541Y114848D01*
D02*
G37*
G36*
X96675Y110500D02*
X93419D01*
Y108031D01*
X96675D01*
Y110500D01*
D02*
G37*
G36*
X92419D02*
X89163D01*
Y108031D01*
X92419D01*
Y110500D01*
D02*
G37*
G36*
X147800Y107924D02*
X145528D01*
Y105751D01*
X147800D01*
Y107924D01*
D02*
G37*
G36*
Y104751D02*
X145528D01*
Y102578D01*
X147800D01*
Y104751D01*
D02*
G37*
G36*
X138288Y102604D02*
X136410D01*
Y100135D01*
X138288D01*
Y102604D01*
D02*
G37*
G36*
X135410D02*
X133532D01*
Y100135D01*
X135410D01*
Y102604D01*
D02*
G37*
G36*
X138288Y99135D02*
X136410D01*
Y96667D01*
X138288D01*
Y99135D01*
D02*
G37*
G36*
X135410D02*
X133532D01*
Y96667D01*
X135410D01*
Y99135D01*
D02*
G37*
G36*
X139461Y96016D02*
X138076D01*
Y92661D01*
X139461D01*
Y96016D01*
D02*
G37*
G36*
Y91661D02*
X138076D01*
Y88307D01*
X139461D01*
Y91661D01*
D02*
G37*
%LPD*%
G36*
X141200Y78693D02*
X140461D01*
Y74839D01*
Y70984D01*
X141200D01*
Y64247D01*
X149550Y55897D01*
Y48548D01*
X128198Y27196D01*
Y22821D01*
X127686Y22309D01*
X127224Y22501D01*
Y23500D01*
X124551D01*
Y24000D01*
X124051D01*
Y26772D01*
X122201D01*
X121702Y27199D01*
X121705Y40825D01*
X121733Y41313D01*
X122205Y41313D01*
X127548D01*
Y49400D01*
Y57487D01*
X122209D01*
X121709Y57977D01*
X121714Y80990D01*
X141200D01*
Y78693D01*
D02*
G37*
G36*
X121242Y28075D02*
X120888Y27721D01*
X106333Y27721D01*
Y19200D01*
X39200Y19200D01*
Y72717D01*
X74526D01*
X82863Y81019D01*
X121167D01*
X121242Y28075D01*
D02*
G37*
%LPC*%
G36*
X134216Y80280D02*
X130409D01*
Y76001D01*
X134216D01*
Y80280D01*
D02*
G37*
G36*
X129409D02*
X125602D01*
Y76001D01*
X129409D01*
Y80280D01*
D02*
G37*
G36*
X139461Y78693D02*
X138076D01*
Y75339D01*
X139461D01*
Y78693D01*
D02*
G37*
G36*
Y74339D02*
X138076D01*
Y70984D01*
X139461D01*
Y74339D01*
D02*
G37*
G36*
X134216Y75001D02*
X130409D01*
Y70721D01*
X134216D01*
Y75001D01*
D02*
G37*
G36*
X129409D02*
X125602D01*
Y70721D01*
X129409D01*
Y75001D01*
D02*
G37*
G36*
X140527Y70450D02*
X138649D01*
Y67981D01*
X140527D01*
Y70450D01*
D02*
G37*
G36*
X137649D02*
X135771D01*
Y67981D01*
X137649D01*
Y70450D01*
D02*
G37*
G36*
X140527Y66982D02*
X138649D01*
Y64513D01*
X140527D01*
Y66982D01*
D02*
G37*
G36*
X137649D02*
X135771D01*
Y64513D01*
X137649D01*
Y66982D01*
D02*
G37*
G36*
X134363Y57487D02*
X128548D01*
Y49900D01*
X134363D01*
Y57487D01*
D02*
G37*
G36*
X143000Y53090D02*
Y49470D01*
X146620D01*
X146543Y50053D01*
X146125Y51063D01*
X145460Y51930D01*
X144593Y52595D01*
X143583Y53013D01*
X143000Y53090D01*
D02*
G37*
G36*
X142000D02*
X141417Y53013D01*
X140407Y52595D01*
X139540Y51930D01*
X138875Y51063D01*
X138457Y50053D01*
X138380Y49470D01*
X142000D01*
Y53090D01*
D02*
G37*
G36*
X146620Y48470D02*
X143000D01*
Y44850D01*
X143583Y44927D01*
X144593Y45345D01*
X145460Y46010D01*
X146125Y46877D01*
X146543Y47886D01*
X146620Y48470D01*
D02*
G37*
G36*
X142000D02*
X138380D01*
X138457Y47886D01*
X138875Y46877D01*
X139540Y46010D01*
X140407Y45345D01*
X141417Y44927D01*
X142000Y44850D01*
Y48470D01*
D02*
G37*
G36*
X134363Y48900D02*
X128548D01*
Y41313D01*
X134363D01*
Y48900D01*
D02*
G37*
G36*
X127224Y26772D02*
X125051D01*
Y24500D01*
X127224D01*
Y26772D01*
D02*
G37*
G36*
X107968Y80127D02*
X105500D01*
Y78249D01*
X107968D01*
Y80127D01*
D02*
G37*
G36*
X104500D02*
X102032D01*
Y78249D01*
X104500D01*
Y80127D01*
D02*
G37*
G36*
X100633Y78373D02*
X96550D01*
Y75491D01*
X100633D01*
Y78373D01*
D02*
G37*
G36*
X90783D02*
X86700D01*
Y75491D01*
X90783D01*
Y78373D01*
D02*
G37*
G36*
X95550D02*
X91467D01*
Y75491D01*
X95550D01*
Y78373D01*
D02*
G37*
G36*
X85700D02*
X81617D01*
Y75491D01*
X85700D01*
Y78373D01*
D02*
G37*
G36*
X107968Y77249D02*
X105500D01*
Y75371D01*
X107968D01*
Y77249D01*
D02*
G37*
G36*
X104500D02*
X102032D01*
Y75371D01*
X104500D01*
Y77249D01*
D02*
G37*
G36*
X100633Y74491D02*
X96550D01*
Y71609D01*
X100633D01*
Y74491D01*
D02*
G37*
G36*
X95550D02*
X91467D01*
Y71609D01*
X95550D01*
Y74491D01*
D02*
G37*
G36*
X90783D02*
X86700D01*
Y71609D01*
X90783D01*
Y74491D01*
D02*
G37*
G36*
X85700D02*
X81617D01*
Y71609D01*
X85700D01*
Y74491D01*
D02*
G37*
G36*
X67859Y70769D02*
X64800D01*
Y67710D01*
X67859D01*
Y70769D01*
D02*
G37*
G36*
X63800D02*
X60741D01*
Y67710D01*
X63800D01*
Y70769D01*
D02*
G37*
G36*
X67859Y66710D02*
X64800D01*
Y63651D01*
X67859D01*
Y66710D01*
D02*
G37*
G36*
X63800D02*
X60741D01*
Y63651D01*
X63800D01*
Y66710D01*
D02*
G37*
G36*
X102867Y57487D02*
X97052D01*
Y49900D01*
X102867D01*
Y57487D01*
D02*
G37*
G36*
X96052D02*
X90237D01*
Y49900D01*
X96052D01*
Y57487D01*
D02*
G37*
G36*
X102867Y48900D02*
X97052D01*
Y41313D01*
X102867D01*
Y48900D01*
D02*
G37*
G36*
X96052D02*
X90237D01*
Y41313D01*
X96052D01*
Y48900D01*
D02*
G37*
G36*
X104827Y26969D02*
X102949D01*
Y24500D01*
X104827D01*
Y26969D01*
D02*
G37*
G36*
X101949D02*
X100071D01*
Y24500D01*
X101949D01*
Y26969D01*
D02*
G37*
G36*
X104827Y23500D02*
X102949D01*
Y21032D01*
X104827D01*
Y23500D01*
D02*
G37*
G36*
X101949D02*
X100071D01*
Y21032D01*
X101949D01*
Y23500D01*
D02*
G37*
%LPD*%
D15*
X121668Y20781D02*
X127384D01*
X118449Y24000D02*
X121668Y20781D01*
X127384D02*
X163000Y56397D01*
X108600Y24100D02*
X118449D01*
X163000Y56397D02*
Y81191D01*
Y81283D01*
X118449Y24000D02*
Y24100D01*
X146623Y70228D02*
X147519D01*
X150149Y67598D01*
X145029Y71822D02*
X146623Y70228D01*
X145029Y71822D02*
Y74788D01*
X163100Y92509D02*
X191468D01*
X191510Y92551D01*
X296072Y217178D02*
X296258Y216992D01*
X291868Y217178D02*
X296072D01*
X291868Y225937D02*
Y228825D01*
Y223280D02*
Y225937D01*
X291739Y226066D02*
X291868Y225937D01*
X282175Y226066D02*
X291739D01*
X291868Y228825D02*
X291868Y228825D01*
X267425Y211449D02*
X267990D01*
X267400D02*
X267425D01*
X268868Y212917D02*
X276073Y220122D01*
X268868Y212327D02*
Y212917D01*
X267990Y211449D02*
X268868Y212327D01*
X276073Y220122D02*
Y226066D01*
X340450Y200855D02*
X362523D01*
X362424Y256700D02*
X362523Y256602D01*
Y200955D02*
Y256602D01*
X362248Y190581D02*
X362424Y190405D01*
Y134277D02*
Y190405D01*
X57761Y354341D02*
Y361221D01*
X91417Y342421D02*
X92947Y343951D01*
X88261Y342421D02*
X88261Y342421D01*
X91417D01*
X92947Y343951D02*
X95500D01*
X88647Y345365D02*
X91413D01*
X88261Y344980D02*
X88647Y345365D01*
X94529Y348576D02*
X95702Y349749D01*
X91413Y345365D02*
X94529Y348481D01*
X95702Y349749D02*
X95801D01*
X94529Y348481D02*
Y348576D01*
X51251Y344800D02*
Y351300D01*
X155042Y105509D02*
X159670D01*
X270862Y204415D02*
Y208614D01*
X273449Y211202D01*
Y211300D01*
X260921Y217551D02*
Y223551D01*
X267372Y218212D02*
Y223551D01*
Y218212D02*
X267400Y218183D01*
X268302Y204415D02*
Y210571D01*
X267425Y211449D02*
X268302Y210571D01*
X279551Y211300D02*
X316862D01*
X259723Y172921D02*
X259750Y172949D01*
X259723Y167754D02*
Y172921D01*
X269559Y177674D02*
X279498Y167735D01*
X269559Y177674D02*
Y181818D01*
X268302Y183074D02*
Y186895D01*
Y183074D02*
X269559Y181818D01*
X265743Y182527D02*
Y186895D01*
Y179819D02*
Y182527D01*
X260502Y182460D02*
X265676D01*
X265743Y182527D01*
X259750Y181709D02*
X260502Y182460D01*
X259750Y179051D02*
Y181709D01*
X265544Y179620D02*
X265743Y179819D01*
X228300Y211402D02*
Y215761D01*
X51251Y351300D02*
X51463Y351512D01*
X60438D02*
X63851Y348098D01*
X51463Y351512D02*
X60438D01*
X150149Y67500D02*
Y67598D01*
X145029Y74788D02*
X145080Y74839D01*
X151400Y112849D02*
X151646Y112603D01*
X151700Y112849D02*
X157800D01*
X148202Y98952D02*
X151446Y102197D01*
X148202Y98949D02*
Y98952D01*
X151446Y102197D02*
X151646D01*
Y112603D01*
X145080Y92161D02*
X145465Y92547D01*
Y96213D01*
X148202Y98949D01*
X273449Y180200D02*
Y180298D01*
X270862Y182886D02*
X273449Y180298D01*
X270862Y182886D02*
Y186895D01*
X329791Y193160D02*
X330000Y192951D01*
X324963Y193160D02*
X329791D01*
X324755Y193368D02*
X324963Y193160D01*
X314925Y198901D02*
X314985Y198961D01*
X308823Y198901D02*
X314925D01*
X323614Y202191D02*
Y204361D01*
X324200Y201606D02*
X339700D01*
X323614Y202191D02*
X324200Y201606D01*
X323562Y204413D02*
X323614Y204361D01*
X340450Y190581D02*
X362248D01*
X340450Y190545D02*
Y190581D01*
X339700Y189795D02*
X340450Y190545D01*
X339700Y201606D02*
X340450Y200855D01*
X322210Y189795D02*
X339700D01*
X321002Y188587D02*
X322210Y189795D01*
X321002Y186697D02*
Y188587D01*
X316862Y211300D02*
X318443Y209718D01*
Y204413D02*
Y209718D01*
Y204413D02*
X321002D01*
X279551Y180400D02*
X315164D01*
X315884Y181121D02*
Y181672D01*
X315164Y180400D02*
X315884Y181121D01*
X315884Y181672D02*
X315884Y181672D01*
X315884Y181672D02*
Y186697D01*
X318443D01*
X138700Y302365D02*
X139291D01*
X145500Y308574D01*
Y329616D01*
X243835Y198706D02*
X249544Y204415D01*
X249300Y223600D02*
X249349Y223551D01*
Y204611D02*
Y223551D01*
X154600Y105551D02*
X154642Y105509D01*
X63851Y348000D02*
Y348098D01*
X66773Y344980D02*
X70939D01*
X63851Y347902D02*
X66773Y344980D01*
X63851Y347902D02*
Y348000D01*
X206162Y192555D02*
X221174D01*
X184300Y156600D02*
Y170694D01*
X206162Y192555D01*
X206347Y198658D02*
X221174D01*
X184300Y220705D02*
Y234100D01*
Y220705D02*
X206347Y198658D01*
X154600Y92651D02*
X162951D01*
X163000Y92700D01*
Y92609D02*
X163100Y92509D01*
X249544Y167752D02*
Y186700D01*
X221174Y198658D02*
X227974D01*
X228023Y198706D01*
Y205258D01*
Y180055D02*
X228055Y180023D01*
X228332Y176817D02*
Y180017D01*
X57761Y361221D02*
X65400Y368860D01*
X106256D02*
X145500Y329616D01*
X65400Y368860D02*
X106256D01*
X109749Y362600D02*
X143700Y328649D01*
X81909Y362600D02*
X109749D01*
X143700Y319135D02*
Y328649D01*
X138700Y318549D02*
X143114D01*
X143700Y319135D01*
X163000Y92609D02*
X163391Y93000D01*
X70791Y362600D02*
X70949Y362442D01*
Y354400D02*
Y362442D01*
X70939Y347539D02*
Y354390D01*
X70949Y354400D01*
X63863Y354341D02*
X70349D01*
X63610Y342421D02*
X70939D01*
X63577Y342387D02*
X63610Y342421D01*
X147639Y92161D02*
X154110D01*
X154600Y92651D01*
Y99449D01*
X142520Y92161D02*
Y99449D01*
X249349Y204611D02*
X249544Y204415D01*
X249349Y186895D02*
X249544Y186700D01*
X221174Y192555D02*
X227874D01*
X228023Y192406D01*
Y186158D02*
Y192406D01*
X249349Y186895D02*
X263184D01*
X234125Y192406D02*
X243838D01*
X249349Y186895D01*
X262799Y187281D02*
X262997Y187083D01*
X234125Y198706D02*
X243835D01*
X249544Y204415D02*
X263184D01*
X263349Y201029D02*
Y203003D01*
X262424Y198706D02*
X270862Y190269D01*
X256423Y198706D02*
X262424D01*
X271774Y192604D02*
X277923D01*
X263349Y201029D02*
X271774Y192604D01*
X259695D02*
X262799Y189500D01*
Y187281D02*
Y189500D01*
X256423Y192604D02*
X259695D01*
X270862Y186895D02*
Y190269D01*
X250123Y192704D02*
X256323D01*
X256423Y192604D01*
X250123Y198806D02*
X256421D01*
X272223Y198706D02*
X277923D01*
X270862Y200068D02*
Y204415D01*
Y200068D02*
X272223Y198706D01*
X277923Y192604D02*
X284023D01*
X277923Y198706D02*
X284023D01*
X138700Y308467D02*
Y318549D01*
D16*
X282175Y226066D02*
D03*
X276073D02*
D03*
X273449Y180200D02*
D03*
X279551D02*
D03*
X228023Y192406D02*
D03*
X234125D02*
D03*
X228023Y198706D02*
D03*
X234125D02*
D03*
X273449Y211300D02*
D03*
X279551D02*
D03*
X150149Y67500D02*
D03*
X156251D02*
D03*
X124551Y24000D02*
D03*
X118449D02*
D03*
X70949Y354800D02*
D03*
X77051D02*
D03*
X51251Y351300D02*
D03*
X45149D02*
D03*
X57749Y354800D02*
D03*
X63851D02*
D03*
Y348200D02*
D03*
X57749D02*
D03*
D17*
X291868Y217178D02*
D03*
Y223280D02*
D03*
X291868Y228825D02*
D03*
Y234927D02*
D03*
X256423Y192604D02*
D03*
Y198706D02*
D03*
X265600Y179051D02*
D03*
Y172949D02*
D03*
X259750Y179051D02*
D03*
Y172949D02*
D03*
X277923Y192604D02*
D03*
Y198706D02*
D03*
X155000Y86449D02*
D03*
Y92551D02*
D03*
X151700Y112849D02*
D03*
Y118951D02*
D03*
X155000Y99149D02*
D03*
Y105251D02*
D03*
X148300D02*
D03*
Y99149D02*
D03*
X95801Y349749D02*
D03*
Y355851D02*
D03*
X138700Y318549D02*
D03*
Y324651D02*
D03*
D18*
X263184Y186895D02*
D03*
X265743D02*
D03*
X268302D02*
D03*
X263184Y204415D02*
D03*
X265743D02*
D03*
X268302D02*
D03*
X270862D02*
D03*
Y186895D02*
D03*
D19*
X323562Y204413D02*
D03*
X321002D02*
D03*
X318443D02*
D03*
X315884D02*
D03*
X323562Y186697D02*
D03*
X321002D02*
D03*
X318443D02*
D03*
X315884D02*
D03*
D20*
X147639Y92161D02*
D03*
X145080D02*
D03*
X142520D02*
D03*
X139961D02*
D03*
X147639Y74839D02*
D03*
X145080D02*
D03*
X142520D02*
D03*
X139961D02*
D03*
D21*
X70939Y347539D02*
D03*
Y344980D02*
D03*
Y342421D02*
D03*
Y339861D02*
D03*
X88261Y347539D02*
D03*
Y344980D02*
D03*
Y342421D02*
D03*
Y339861D02*
D03*
D22*
X96552Y49400D02*
D03*
X128048D02*
D03*
D23*
X92919Y111000D02*
D03*
X82682D02*
D03*
D24*
X113600Y296504D02*
D03*
Y328000D02*
D03*
D25*
X51556Y299918D02*
D03*
Y289682D02*
D03*
D26*
X129909Y75501D02*
D03*
Y90304D02*
D03*
D27*
X87599Y329609D02*
D03*
X72796D02*
D03*
D28*
X330000Y186849D02*
D03*
Y192951D02*
D03*
X308823Y198901D02*
D03*
Y205004D02*
D03*
X260921Y217551D02*
D03*
Y211449D02*
D03*
X267400Y217551D02*
D03*
Y211449D02*
D03*
X250400Y192649D02*
D03*
Y198751D02*
D03*
X228300Y180049D02*
D03*
Y186151D02*
D03*
X221174Y192555D02*
D03*
Y198658D02*
D03*
X228300Y205300D02*
D03*
Y211402D02*
D03*
X283900Y192649D02*
D03*
Y198751D02*
D03*
X142400Y105256D02*
D03*
Y99154D02*
D03*
X157800Y118951D02*
D03*
Y112849D02*
D03*
X105000Y77749D02*
D03*
Y83851D02*
D03*
X63551Y329449D02*
D03*
Y335551D02*
D03*
X138700Y308467D02*
D03*
Y302365D02*
D03*
X95900Y337849D02*
D03*
Y343951D02*
D03*
D29*
X86200Y86409D02*
D03*
Y74991D02*
D03*
X96050Y86409D02*
D03*
Y74991D02*
D03*
X163000Y81191D02*
D03*
Y92609D02*
D03*
X121459Y100048D02*
D03*
Y111466D02*
D03*
X111959Y100048D02*
D03*
Y111466D02*
D03*
D30*
X129807Y99635D02*
D03*
X135910D02*
D03*
X108551Y24000D02*
D03*
X102449D02*
D03*
X144251Y67481D02*
D03*
X138149D02*
D03*
X57749Y342200D02*
D03*
X63851D02*
D03*
X45149Y344800D02*
D03*
X51251D02*
D03*
X85951Y307300D02*
D03*
X79849D02*
D03*
D31*
X77191Y289100D02*
D03*
X88609D02*
D03*
X77191Y299000D02*
D03*
X88609D02*
D03*
X70891Y362600D02*
D03*
X82309D02*
D03*
X63137Y321594D02*
D03*
X51720D02*
D03*
X63137Y311800D02*
D03*
X51720D02*
D03*
D32*
X339700Y189795D02*
D03*
Y201606D02*
D03*
D62*
X308823Y205004D02*
X315498D01*
X324061Y186197D02*
X324713Y186849D01*
X330000D01*
X82724Y195700D02*
Y242813D01*
X82920Y110765D02*
Y195700D01*
X51556Y273981D02*
Y289682D01*
Y273981D02*
X82724Y242813D01*
X59534Y195700D02*
X82724D01*
X47200Y208800D02*
X49243Y206757D01*
Y205991D02*
Y206757D01*
Y205991D02*
X59534Y195700D01*
D63*
X261889Y211071D02*
X265743Y207217D01*
Y204415D02*
Y207217D01*
X260921Y211449D02*
X261298Y211071D01*
X261889D01*
D64*
X142520Y69721D02*
Y74839D01*
Y69721D02*
X144351Y67891D01*
Y67300D02*
Y67891D01*
D65*
X374747Y146600D02*
D03*
X350102D02*
D03*
Y121954D02*
D03*
X374747D02*
D03*
Y269023D02*
D03*
X350102D02*
D03*
Y244377D02*
D03*
X374747D02*
D03*
X196623Y246423D02*
D03*
X171977D02*
D03*
Y221777D02*
D03*
X196623D02*
D03*
Y168923D02*
D03*
X171977D02*
D03*
Y144277D02*
D03*
X196623D02*
D03*
D66*
X362424Y134277D02*
D03*
Y256700D02*
D03*
X184300Y234100D02*
D03*
Y156600D02*
D03*
D67*
X288958Y247701D02*
D03*
X279498Y167735D02*
D03*
X249544Y167752D02*
D03*
X249300Y223600D02*
D03*
X46200Y97700D02*
D03*
X191510Y92551D02*
D03*
X98640Y123476D02*
D03*
X142500Y48970D02*
D03*
X60741Y128380D02*
D03*
X147601Y284533D02*
D03*
X38800Y301400D02*
D03*
X362523Y200955D02*
D03*
D68*
X383800Y9200D02*
D03*
Y383800D02*
D03*
X9200Y9200D02*
D03*
Y383800D02*
D03*
D69*
X362523Y190955D02*
D03*
D70*
X47200Y208800D02*
D03*
D71*
Y183800D02*
D03*
X227700Y44500D02*
D03*
D72*
X202700D02*
D03*
D73*
X64300Y67210D02*
D03*
D74*
Y80990D02*
D03*
X115779Y272500D02*
D03*
X96700Y195700D02*
D03*
D75*
X102000Y272500D02*
D03*
X82920Y195700D02*
D03*
D76*
X296258Y216992D02*
D03*
X159670Y105509D02*
D03*
X267372Y223551D02*
D03*
X228300Y215761D02*
D03*
X59344Y313178D02*
D03*
X59100Y323372D02*
D03*
X324755Y193368D02*
D03*
X314985Y198961D02*
D03*
X130000Y330000D02*
D03*
X125000Y340000D02*
D03*
Y320000D02*
D03*
X120000Y50000D02*
D03*
Y30000D02*
D03*
X110000Y350000D02*
D03*
X115000Y320000D02*
D03*
X110000Y70000D02*
D03*
X115000Y60000D02*
D03*
X110000Y50000D02*
D03*
X115000Y40000D02*
D03*
X110000Y30000D02*
D03*
X100000Y350000D02*
D03*
X105000Y320000D02*
D03*
X100000Y70000D02*
D03*
X105000Y60000D02*
D03*
Y40000D02*
D03*
X100000Y30000D02*
D03*
X95000Y320000D02*
D03*
X90000Y70000D02*
D03*
X95000Y60000D02*
D03*
Y40000D02*
D03*
X90000Y30000D02*
D03*
X80000Y330000D02*
D03*
X85000Y320000D02*
D03*
X80000Y70000D02*
D03*
X85000Y60000D02*
D03*
X80000Y50000D02*
D03*
X85000Y40000D02*
D03*
X80000Y30000D02*
D03*
X75000Y320000D02*
D03*
X70000Y310000D02*
D03*
Y290000D02*
D03*
X75000Y280000D02*
D03*
X70000Y70000D02*
D03*
X75000Y60000D02*
D03*
X70000Y50000D02*
D03*
X75000Y40000D02*
D03*
X70000Y30000D02*
D03*
X65000Y300000D02*
D03*
X60000Y290000D02*
D03*
X65000Y280000D02*
D03*
Y60000D02*
D03*
X60000Y50000D02*
D03*
X65000Y40000D02*
D03*
X60000Y30000D02*
D03*
X50000Y70000D02*
D03*
X55000Y60000D02*
D03*
X50000Y50000D02*
D03*
X55000Y40000D02*
D03*
X50000Y30000D02*
D03*
X40000Y350000D02*
D03*
X45000Y340000D02*
D03*
X40000Y330000D02*
D03*
X45000Y60000D02*
D03*
Y40000D02*
D03*
X97500Y79700D02*
D03*
X87700D02*
D03*
X259723Y167754D02*
D03*
X260921Y223551D02*
D03*
X79849Y347039D02*
D03*
X228332Y176817D02*
D03*
M02*
