G04*
G04 #@! TF.GenerationSoftware,Altium Limited,Altium Designer,24.1.2 (44)*
G04*
G04 Layer_Physical_Order=4*
G04 Layer_Color=16711680*
%FSLAX25Y25*%
%MOIN*%
G70*
G04*
G04 #@! TF.SameCoordinates,8524D637-8D87-4EFB-A983-0F764336EB6B*
G04*
G04*
G04 #@! TF.FilePolarity,Positive*
G04*
G01*
G75*
%ADD11C,0.02362*%
%ADD16C,0.00500*%
%ADD17C,0.00787*%
%ADD19C,0.01000*%
%ADD105C,0.03937*%
%ADD106R,0.11024X0.02165*%
%ADD107C,0.00400*%
%ADD108C,0.03000*%
%ADD110C,0.02000*%
%ADD111C,0.06000*%
%ADD112R,0.05512X0.05512*%
%ADD113C,0.05512*%
%ADD114C,0.09449*%
%ADD115C,0.12795*%
%ADD116C,0.12205*%
%ADD117C,0.01772*%
%ADD118C,0.02362*%
%ADD119C,0.01968*%
%ADD120C,0.02000*%
G36*
X332283Y16929D02*
X324410D01*
Y29528D01*
X332283D01*
Y16929D01*
D02*
G37*
G36*
X342761Y47638D02*
X334887D01*
Y54724D01*
X342761D01*
Y47638D01*
D02*
G37*
G36*
X114567Y327559D02*
X103150D01*
Y361024D01*
X114567D01*
Y327559D01*
D02*
G37*
G36*
X192913Y362205D02*
Y355512D01*
X200000D01*
Y362205D01*
X192913D01*
D02*
G37*
G36*
X315748Y367022D02*
X296850D01*
Y373715D01*
X315748D01*
Y367022D01*
D02*
G37*
D11*
X-42000Y254913D02*
X-35582D01*
X-39232Y258268D02*
Y259193D01*
X-42000Y258268D02*
X-39232D01*
D16*
X49422Y117228D02*
X133472D01*
X46421Y120229D02*
Y120229D01*
Y120229D02*
X49422Y117228D01*
X-5512Y218898D02*
Y232730D01*
X-3150Y216547D02*
Y233858D01*
X61804Y123200D02*
X127100D01*
X46421Y138583D02*
X61804Y123200D01*
X46421Y133075D02*
X58227Y121269D01*
X134769D01*
X55374Y119000D02*
X134748D01*
X46421Y127953D02*
X55374Y119000D01*
X43395Y175119D02*
X43502D01*
X44605Y174016D02*
X78376D01*
X43502Y175119D02*
X44605Y174016D01*
X78376D02*
X127165Y222805D01*
X43468Y168504D02*
X79556D01*
X43395Y162992D02*
X78053D01*
X147638Y232577D01*
X79556Y168504D02*
X143200Y230707D01*
X80147Y172047D02*
X128900Y220800D01*
X43468Y172047D02*
X80147D01*
X134748Y119000D02*
X146791Y131043D01*
X134769Y121269D02*
X145000Y131500D01*
X-8661Y239370D02*
X-3150Y233858D01*
X-9002Y236221D02*
X-5512Y232730D01*
X148340Y83502D02*
X207238D01*
X146791Y142461D02*
X152941Y148610D01*
X146791Y131043D02*
Y142461D01*
X133472Y117228D02*
X141732Y108968D01*
X127165Y222805D02*
Y304724D01*
X131876Y309435D01*
X128900Y220800D02*
Y300000D01*
X138900Y310000D01*
X147638Y232577D02*
Y239370D01*
X145701Y233208D02*
Y242249D01*
X143200Y230707D02*
X145701Y233208D01*
Y242249D02*
X163148Y259695D01*
X131876Y309435D02*
Y309449D01*
X163148Y259695D02*
X177806D01*
X191732Y273622D01*
Y273622D01*
X196610Y278500D01*
X207449D01*
X185000Y344500D02*
X206000D01*
X150500Y310000D02*
X185000Y344500D01*
X138900Y310000D02*
X150500D01*
X152941Y148610D02*
X189161D01*
X198551Y158000D02*
X205955D01*
X189161Y148610D02*
X198551Y158000D01*
X141732Y90109D02*
X148340Y83502D01*
X141732Y90109D02*
Y108968D01*
X-49000Y239370D02*
X-8661D01*
X-49000Y236221D02*
X-9002D01*
X205955Y158000D02*
X206211Y157744D01*
X139443Y191449D02*
X139534Y191358D01*
X139443Y191449D02*
Y195207D01*
X139370Y195280D02*
X139443Y195207D01*
X145000Y131500D02*
Y188500D01*
D17*
X-49000Y176378D02*
X-8268D01*
D19*
X388331Y370189D02*
X491720D01*
X-37567Y173500D02*
X-3834D01*
X-48417Y167512D02*
X-43555D01*
X-49000Y166929D02*
X-48417Y167512D01*
X-43555D02*
X-37567Y173500D01*
X-42118Y251850D02*
X-42000Y251732D01*
X-49000Y251969D02*
X-48882Y251850D01*
X-42118D01*
X330709Y19300D02*
X422056Y19300D01*
X476378Y73622D02*
Y322933D01*
X422056Y19300D02*
X476378Y73622D01*
X388331Y368898D02*
Y370189D01*
X488845Y335400D02*
X521770D01*
X476378Y322933D02*
X488845Y335400D01*
X482185Y317825D02*
Y321260D01*
Y317825D02*
X497400Y302610D01*
X521770Y335400D02*
X524070Y337700D01*
Y342900D01*
X491720Y370189D02*
X497270Y364639D01*
Y345000D02*
Y364639D01*
X512422Y160000D02*
X529500D01*
X512337Y160085D02*
X512422Y160000D01*
X511415Y160085D02*
X512337D01*
X511155Y160345D02*
X511415Y160085D01*
X521542Y163542D02*
X522000Y164000D01*
X521542Y163458D02*
Y163542D01*
X522000Y164000D02*
X536500D01*
X521500Y163416D02*
X521542Y163458D01*
X507800Y159200D02*
Y234800D01*
X533000Y260000D01*
X507800Y159200D02*
X533000Y134000D01*
X497400Y105309D02*
Y302610D01*
X16623Y79122D02*
X22883Y85382D01*
X5940Y79122D02*
X16623D01*
X-42010Y163790D02*
X-42000Y163800D01*
X-3834Y173500D02*
X-2800Y174534D01*
X-13972Y179528D02*
X-2800Y190700D01*
X-49000Y179528D02*
X-13972D01*
X-49000Y245669D02*
X-41824D01*
X522500Y183000D02*
X529500Y176000D01*
X519500Y242000D02*
X527500Y234000D01*
X536500D01*
X-49000Y129134D02*
X-34634D01*
X529500Y238000D02*
Y245000D01*
X-34634Y129134D02*
X-28000Y122500D01*
D105*
X-2800Y190700D02*
D03*
Y174534D02*
D03*
D106*
X-49000Y264567D02*
D03*
Y261417D02*
D03*
Y258268D02*
D03*
Y255118D02*
D03*
Y251969D02*
D03*
Y248819D02*
D03*
Y245669D02*
D03*
Y242520D02*
D03*
Y233071D02*
D03*
Y229921D02*
D03*
Y226772D02*
D03*
Y223622D02*
D03*
Y220472D02*
D03*
Y217323D02*
D03*
Y214173D02*
D03*
Y211024D02*
D03*
Y207874D02*
D03*
Y204724D02*
D03*
Y201575D02*
D03*
Y198425D02*
D03*
Y182677D02*
D03*
Y179528D02*
D03*
Y176378D02*
D03*
Y173228D02*
D03*
Y170079D02*
D03*
Y166929D02*
D03*
Y163779D02*
D03*
Y160630D02*
D03*
Y157480D02*
D03*
Y154331D02*
D03*
Y151181D02*
D03*
Y148031D02*
D03*
Y144882D02*
D03*
Y141732D02*
D03*
Y138583D02*
D03*
Y135433D02*
D03*
Y132283D02*
D03*
Y129134D02*
D03*
Y239370D02*
D03*
Y236221D02*
D03*
D107*
X14669Y222845D02*
Y238844D01*
X5885Y214061D02*
X14669Y222845D01*
X5512Y214961D02*
X13769Y223217D01*
Y238844D01*
X15354Y239529D02*
Y239764D01*
X13083Y239529D02*
Y239764D01*
Y239529D02*
X13769Y238844D01*
X14669D02*
X15354Y239529D01*
X-4999Y214061D02*
X5885D01*
X-11396Y211698D02*
X7853D01*
X19291Y235986D02*
Y236221D01*
X17020Y235986D02*
Y236221D01*
X18606Y222451D02*
Y235300D01*
X17706Y222824D02*
Y235300D01*
X18606D02*
X19291Y235986D01*
X7480Y212598D02*
X17706Y222824D01*
X7853Y211698D02*
X18606Y222451D01*
X17020Y235986D02*
X17706Y235300D01*
X-43454Y208999D02*
X13230D01*
X25591Y233624D02*
Y233858D01*
X23319Y233624D02*
Y233858D01*
X13230Y208999D02*
X24905Y220674D01*
X24005Y221047D02*
Y232938D01*
X12857Y209899D02*
X24005Y221047D01*
X24905Y220674D02*
Y232938D01*
X23319Y233624D02*
X24005Y232938D01*
X24905D02*
X25591Y233624D01*
X65249Y176021D02*
Y176187D01*
X62900Y178537D02*
X65249Y176187D01*
X62900Y178537D02*
Y179683D01*
X63005Y179789D01*
X-43454Y228797D02*
X-18462D01*
X-18834Y227896D02*
X-4999Y214061D01*
X-43454Y227896D02*
X-18834D01*
X-18462Y228797D02*
X-4626Y214961D01*
X5512D01*
X-17773Y219348D02*
X-11024Y212598D01*
X7480D01*
X-18146Y218448D02*
X-11396Y211698D01*
X119704Y110885D02*
X119967Y110622D01*
Y109906D02*
Y110622D01*
Y109906D02*
X121873Y108000D01*
X122047D01*
X19256Y200450D02*
X28729Y209923D01*
X29629Y225976D02*
X29629Y225976D01*
X28729Y225604D02*
Y228071D01*
Y225604D02*
X28729Y225604D01*
Y209923D02*
Y225604D01*
X29629Y209550D02*
Y225976D01*
X19629Y199550D02*
X29629Y209550D01*
X30315Y228757D02*
Y228991D01*
X28043Y228757D02*
Y228991D01*
X29629Y225976D02*
Y228071D01*
X30315Y228757D01*
X28043D02*
X28729Y228071D01*
X-43454Y199550D02*
X19629D01*
X-43454Y218448D02*
X-18146D01*
X-43688Y200684D02*
Y200692D01*
X-43454Y200450D02*
X19256D01*
X-44571Y198425D02*
X-43688Y199308D01*
X-49000Y198425D02*
X-44571D01*
X-43688Y199316D02*
X-43454Y199550D01*
X-43688Y199308D02*
Y199316D01*
Y200684D02*
X-43454Y200450D01*
X-44571Y201575D02*
X-43688Y200692D01*
Y208765D02*
X-43454Y208999D01*
X-43688Y210133D02*
Y210141D01*
X-43454Y209899D02*
X12857D01*
X-44571Y207874D02*
X-43688Y208757D01*
X-49000Y211024D02*
X-44571D01*
X-43688Y210133D02*
X-43454Y209899D01*
X-49000Y207874D02*
X-44571D01*
X-43688Y208757D02*
Y208765D01*
X-44571Y211024D02*
X-43688Y210141D01*
Y218213D02*
X-43454Y218448D01*
X-43688Y218205D02*
Y218213D01*
X-49000Y220472D02*
X-44571D01*
Y217323D02*
X-43688Y218205D01*
Y219582D02*
Y219590D01*
X-49000Y217323D02*
X-44571D01*
X-43454Y219348D02*
X-17773D01*
X-43688Y219582D02*
X-43454Y219348D01*
X-44571Y220472D02*
X-43688Y219590D01*
Y227662D02*
X-43454Y227896D01*
X-43688Y227654D02*
Y227662D01*
Y229031D02*
Y229039D01*
Y229031D02*
X-43454Y228797D01*
X-49000Y226772D02*
X-44571D01*
X-49000Y229921D02*
X-44571D01*
X-43688Y229039D01*
X-44571Y226772D02*
X-43688Y227654D01*
X93064Y148443D02*
Y148678D01*
Y148443D02*
X95903Y145604D01*
X-49000Y201575D02*
X-44571D01*
X95903Y145506D02*
Y145604D01*
X194435Y74850D02*
X195551Y71541D01*
D108*
X39500Y113100D02*
X40000Y113600D01*
X39500Y61000D02*
Y113100D01*
X40000Y113600D02*
Y249500D01*
X22200Y267300D02*
X40000Y249500D01*
X133000Y211740D02*
X133465Y212205D01*
X133000Y125700D02*
Y211740D01*
X-31125Y267300D02*
X14000D01*
X-39232Y259193D02*
X-31125Y267300D01*
X35400Y58100D02*
Y246100D01*
Y58100D02*
X88000Y5500D01*
X210246Y359449D02*
X210541Y359154D01*
X275689D02*
X292520Y375984D01*
X210541Y359154D02*
X275689D01*
X195185Y359449D02*
X210246D01*
X14000Y267300D02*
Y281907D01*
X14272Y282178D01*
X322047Y14173D02*
X326772Y18898D01*
X118500Y32000D02*
X136327Y14173D01*
X322047D01*
X292520Y375984D02*
X318504D01*
X325590Y368898D01*
X19500Y262000D02*
X35400Y246100D01*
X303458Y9819D02*
X420843D01*
X495669Y84646D01*
Y103578D01*
X500141Y82641D02*
Y101650D01*
X88000Y5500D02*
X423000D01*
X500141Y82641D01*
X326772Y18898D02*
X327953D01*
X330270D01*
X337894Y51083D02*
Y52756D01*
X388331Y368898D02*
X392379D01*
X325590D02*
X388331D01*
X398237Y335947D02*
Y363040D01*
X392379Y368898D02*
X398237Y363040D01*
X306299Y244314D02*
Y282677D01*
Y168263D02*
Y208669D01*
Y320527D02*
Y357087D01*
Y372441D01*
X118500Y49500D02*
X199500D01*
X213000Y63000D01*
X238367Y138973D02*
X247098D01*
X236492Y259695D02*
X246500D01*
X90681Y9819D02*
X303458D01*
X306299Y132762D02*
Y168263D01*
X319482Y155080D02*
X320414D01*
X320588Y154905D01*
X306299Y168263D02*
X319482Y155080D01*
X320565Y231056D02*
X320588Y231033D01*
X319558Y231056D02*
X320565D01*
X306299Y244314D02*
X319558Y231056D01*
X306299Y282677D02*
Y320527D01*
X320414Y307345D02*
X320588Y307170D01*
X319482Y307345D02*
X320414D01*
X306299Y320527D02*
X319482Y307345D01*
X289971Y193255D02*
X290144Y193428D01*
X291058D01*
X306299Y208669D01*
Y244314D01*
Y92453D02*
Y132762D01*
X290406Y117802D02*
X291338D01*
X306299Y132762D01*
X289967Y117362D02*
X290406Y117802D01*
X289967Y268667D02*
X292289D01*
X306299Y282677D01*
X210630Y257870D02*
Y322870D01*
X195000Y338500D02*
X210630Y322870D01*
X196000Y272500D02*
X210630Y257870D01*
X213000Y255500D01*
X198500Y77500D02*
X213000Y63000D01*
X133000Y232626D02*
X133488Y232138D01*
X133000Y232626D02*
Y300500D01*
X213000Y63000D02*
Y137000D01*
Y154500D02*
X213000Y154500D01*
Y255500D01*
X118000Y49000D02*
Y99000D01*
X337053Y72767D02*
X337500Y73215D01*
X337053Y52756D02*
Y72767D01*
X337500Y73215D02*
Y96339D01*
Y73215D02*
X346668Y82382D01*
X337500Y172295D02*
Y223750D01*
Y147623D02*
Y172295D01*
X315352Y194444D02*
X337500Y172295D01*
Y223750D02*
Y248653D01*
Y223750D02*
X346668Y232918D01*
X337500Y248653D02*
Y299887D01*
X315352Y270802D02*
X337500Y248653D01*
Y299887D02*
Y322294D01*
Y299887D02*
X346668Y309055D01*
X290174Y342608D02*
X291821D01*
X318255Y80497D02*
X320588D01*
X306299Y92453D02*
X318255Y80497D01*
X291821Y342608D02*
X306299Y357087D01*
X337500Y96339D02*
Y147623D01*
X346668Y156790D01*
X315352Y118487D02*
X337500Y96339D01*
X315352Y344443D02*
X337500Y322294D01*
X-35582Y254918D02*
X-28500Y262000D01*
X19500D01*
X14000Y267300D02*
X22200D01*
X398237Y300033D02*
Y335947D01*
Y262306D02*
Y300033D01*
Y223895D02*
Y262306D01*
Y185948D02*
Y223895D01*
Y147768D02*
Y185948D01*
Y109992D02*
Y147768D01*
Y73360D02*
Y109992D01*
X495669Y103578D02*
X497400Y105309D01*
X198500Y151500D02*
X213000Y137000D01*
Y154500D01*
X118000Y99000D02*
X133000Y114000D01*
X39500Y61000D02*
X90681Y9819D01*
X118500Y47000D02*
Y49500D01*
Y32000D02*
Y47000D01*
D110*
X-49000Y255000D02*
X-42000D01*
X-49000Y233100D02*
X-42100D01*
X-49000Y135433D02*
X-42000D01*
X222407Y359449D02*
Y361547D01*
X-49000Y204724D02*
X-42126D01*
X-49000Y214173D02*
X-44488Y214256D01*
X-42297Y214370D01*
X-49000Y223622D02*
X-42200D01*
X-49000Y242520D02*
X-42200D01*
X-49000Y248819D02*
X-42200D01*
X-42181Y261417D02*
X-42098Y261500D01*
X-42000D01*
X-49000Y261417D02*
X-42181D01*
X-42000Y261500D02*
Y261996D01*
X-44571Y264567D02*
X-42000Y261996D01*
X-49000Y264567D02*
X-44571D01*
X-49000Y182677D02*
X-42000D01*
X-49000Y173228D02*
X-42000D01*
X-48990Y163790D02*
X-42010D01*
X-49000Y154331D02*
X-42000D01*
X-49000Y144882D02*
X-42000D01*
X-49000Y258268D02*
X-42000D01*
D111*
X521256Y39000D02*
D03*
Y49000D02*
D03*
Y59000D02*
D03*
Y69000D02*
D03*
Y79000D02*
D03*
Y89000D02*
D03*
Y99000D02*
D03*
Y109000D02*
D03*
X531256Y39000D02*
D03*
Y49000D02*
D03*
Y109000D02*
D03*
Y99000D02*
D03*
Y89000D02*
D03*
Y79000D02*
D03*
Y69000D02*
D03*
Y59000D02*
D03*
D112*
X536500Y242000D02*
D03*
Y180000D02*
D03*
D113*
X529500Y238000D02*
D03*
X536500Y234000D02*
D03*
X529500Y230000D02*
D03*
X536500Y226000D02*
D03*
X529500Y222000D02*
D03*
X536500Y218000D02*
D03*
X529500Y214000D02*
D03*
Y152000D02*
D03*
X536500Y156000D02*
D03*
X529500Y160000D02*
D03*
X536500Y164000D02*
D03*
X529500Y168000D02*
D03*
X536500Y172000D02*
D03*
X529500Y176000D02*
D03*
D114*
X533000Y260000D02*
D03*
Y134000D02*
D03*
D115*
X546500Y253000D02*
D03*
Y141000D02*
D03*
D116*
X543307Y372047D02*
D03*
Y21654D02*
D03*
D117*
X-8661Y255118D02*
D03*
Y258268D02*
D03*
X-8268Y242126D02*
D03*
X-14173D02*
D03*
Y204724D02*
D03*
X-12205Y202756D02*
D03*
X-10236Y204724D02*
D03*
X-8268Y202756D02*
D03*
X15354Y239764D02*
D03*
X13083D02*
D03*
X19291Y236221D02*
D03*
X17020D02*
D03*
X25591Y233858D02*
D03*
X23319D02*
D03*
X46421Y120229D02*
D03*
X-5512Y218898D02*
D03*
X-3150Y216547D02*
D03*
X18862Y145965D02*
D03*
X46421Y127953D02*
D03*
Y133075D02*
D03*
Y138583D02*
D03*
X26446Y176476D02*
D03*
X24752Y145965D02*
D03*
X10792Y134318D02*
D03*
X20268Y176308D02*
D03*
X43395Y175119D02*
D03*
X43468Y172047D02*
D03*
X65249Y176021D02*
D03*
X43468Y168504D02*
D03*
Y162992D02*
D03*
X213484Y379921D02*
D03*
X131876Y309449D02*
D03*
X119704Y110885D02*
D03*
X122047Y108000D02*
D03*
X28043Y228991D02*
D03*
X30315D02*
D03*
X93064Y148678D02*
D03*
X63005Y179789D02*
D03*
X95903Y145506D02*
D03*
X195551Y71541D02*
D03*
X194435Y74850D02*
D03*
X432568Y77829D02*
D03*
Y89896D02*
D03*
Y152237D02*
D03*
Y164304D02*
D03*
Y228364D02*
D03*
Y240431D02*
D03*
Y114581D02*
D03*
Y126602D02*
D03*
Y190537D02*
D03*
Y202558D02*
D03*
Y266895D02*
D03*
Y278916D02*
D03*
Y340536D02*
D03*
Y352557D02*
D03*
Y316569D02*
D03*
Y304502D02*
D03*
X512270Y363000D02*
D03*
X527270D02*
D03*
X482170Y363040D02*
D03*
D118*
X-8268Y176378D02*
D03*
X-14173Y245276D02*
D03*
X1575Y273228D02*
D03*
X25984Y159744D02*
D03*
X13146Y149108D02*
D03*
X40000Y113600D02*
D03*
X20268Y124016D02*
D03*
X6693Y126378D02*
D03*
X1431Y129188D02*
D03*
X28445Y114691D02*
D03*
X-11811Y156299D02*
D03*
X14272Y176021D02*
D03*
X-8134Y162303D02*
D03*
X15302Y159744D02*
D03*
X-9000Y154331D02*
D03*
X1431Y162303D02*
D03*
X-17618Y155512D02*
D03*
Y165010D02*
D03*
X18862Y114691D02*
D03*
X133465Y212205D02*
D03*
X140913Y231913D02*
D03*
X203150Y272648D02*
D03*
X140628Y114570D02*
D03*
X202425Y338276D02*
D03*
X378346Y97425D02*
D03*
X378264Y172047D02*
D03*
X378737Y248031D02*
D03*
X378556Y324197D02*
D03*
X259845Y374247D02*
D03*
X222407Y359154D02*
D03*
Y361547D02*
D03*
X14272Y282178D02*
D03*
X229724Y19100D02*
D03*
X176378Y19291D02*
D03*
X225886Y19100D02*
D03*
X222047D02*
D03*
X147842Y20366D02*
D03*
X224016Y21260D02*
D03*
X231890D02*
D03*
X227953D02*
D03*
X300407Y385433D02*
D03*
X292520Y375984D02*
D03*
X304376Y368898D02*
D03*
Y371654D02*
D03*
X307874Y368898D02*
D03*
Y371654D02*
D03*
X296457Y379921D02*
D03*
X378737Y317716D02*
D03*
Y241578D02*
D03*
X378346Y165451D02*
D03*
X378264Y91429D02*
D03*
X268504Y373622D02*
D03*
X157087Y377165D02*
D03*
X179528Y367323D02*
D03*
X170472Y381496D02*
D03*
X111382Y374063D02*
D03*
X93665Y362252D02*
D03*
Y338630D02*
D03*
X87760Y374063D02*
D03*
X81854Y362252D02*
D03*
X87760Y350441D02*
D03*
X81854Y338630D02*
D03*
X75949Y374063D02*
D03*
X70043Y338630D02*
D03*
X64138Y374063D02*
D03*
X58232Y362252D02*
D03*
X64138Y350441D02*
D03*
X58232Y338630D02*
D03*
X16256Y353166D02*
D03*
X17003Y298216D02*
D03*
X28484Y305828D02*
D03*
X43758Y312112D02*
D03*
X96389Y371575D02*
D03*
X105512Y329528D02*
D03*
Y333465D02*
D03*
X107480Y354331D02*
D03*
Y358340D02*
D03*
X109843Y329528D02*
D03*
Y333465D02*
D03*
X111417Y354331D02*
D03*
Y358268D02*
D03*
X303458Y26268D02*
D03*
X147638Y239370D02*
D03*
X207449Y278500D02*
D03*
X199487Y275761D02*
D03*
X182551Y276000D02*
D03*
X206000Y344500D02*
D03*
X182500Y157945D02*
D03*
X154829Y93140D02*
D03*
X183142Y89945D02*
D03*
X171900Y96110D02*
D03*
X12992Y115354D02*
D03*
X-42126Y204724D02*
D03*
X-42297Y214370D02*
D03*
X-42200Y223622D02*
D03*
X205200Y77181D02*
D03*
X163488Y238138D02*
D03*
X163000Y307000D02*
D03*
X207500Y118800D02*
D03*
X201887Y154741D02*
D03*
X206211Y157744D02*
D03*
X139534Y191358D02*
D03*
X139370Y195280D02*
D03*
X275714Y378740D02*
D03*
X268376Y382300D02*
D03*
X198380Y357480D02*
D03*
Y360236D02*
D03*
X470079Y24016D02*
D03*
X441732Y19291D02*
D03*
X435827Y29528D02*
D03*
X445669Y19291D02*
D03*
Y22835D02*
D03*
X194882Y357480D02*
D03*
X-42000Y251732D02*
D03*
X463386Y29921D02*
D03*
X455118Y26181D02*
D03*
Y33661D02*
D03*
Y29921D02*
D03*
X443215Y44000D02*
D03*
X163003Y169630D02*
D03*
X504500Y73500D02*
D03*
X502000D02*
D03*
X507000D02*
D03*
X482677Y43500D02*
D03*
X485177D02*
D03*
X480177D02*
D03*
X303458Y9819D02*
D03*
X209842Y28740D02*
D03*
X124409Y360630D02*
D03*
X148425Y357087D02*
D03*
X132677Y381102D02*
D03*
X187795Y364961D02*
D03*
X194882Y360236D02*
D03*
X272760Y22339D02*
D03*
X252760Y27048D02*
D03*
X244760Y25146D02*
D03*
X247098Y138973D02*
D03*
X238393Y142154D02*
D03*
X246500Y259695D02*
D03*
X256126Y22079D02*
D03*
X280760Y25216D02*
D03*
X173500Y222100D02*
D03*
X173303Y104992D02*
D03*
X236900Y133579D02*
D03*
X320593Y238024D02*
D03*
Y314162D02*
D03*
X289741Y196609D02*
D03*
X254130Y186000D02*
D03*
X243938Y50000D02*
D03*
Y124164D02*
D03*
Y245628D02*
D03*
X182551Y207283D02*
D03*
X320875Y234237D02*
D03*
X320588Y231033D02*
D03*
Y307170D02*
D03*
X277953Y271036D02*
D03*
X273500Y276000D02*
D03*
X320799Y310526D02*
D03*
Y158261D02*
D03*
X320588Y154905D02*
D03*
X320593Y161897D02*
D03*
X246738Y35068D02*
D03*
X243938D02*
D03*
X289971Y193255D02*
D03*
X290003Y273000D02*
D03*
X289967Y268667D02*
D03*
X198487Y341241D02*
D03*
X201500Y80764D02*
D03*
X136000Y303728D02*
D03*
X136975Y234879D02*
D03*
X137091Y117228D02*
D03*
X136500Y185228D02*
D03*
X330270Y21654D02*
D03*
X326772D02*
D03*
X330270Y18898D02*
D03*
X326772D02*
D03*
X337053Y50000D02*
D03*
X340551D02*
D03*
X337053Y52756D02*
D03*
X340551D02*
D03*
X375737Y131392D02*
D03*
Y283706D02*
D03*
Y207348D02*
D03*
X273123Y339441D02*
D03*
X290174Y342608D02*
D03*
X315367Y121892D02*
D03*
X285039Y157720D02*
D03*
X289741Y154741D02*
D03*
X289967Y349500D02*
D03*
X290092Y345959D02*
D03*
X272065Y83819D02*
D03*
X263249Y71251D02*
D03*
X263000Y146000D02*
D03*
X265600Y341300D02*
D03*
X263000Y163000D02*
D03*
X262500Y89500D02*
D03*
X261432Y186000D02*
D03*
X261000Y266500D02*
D03*
X482185Y321260D02*
D03*
X217373Y317541D02*
D03*
X225000Y327765D02*
D03*
X197500Y294500D02*
D03*
X236492Y259695D02*
D03*
X238367Y138973D02*
D03*
X238400Y64961D02*
D03*
X173411Y101800D02*
D03*
X172992Y168681D02*
D03*
X42681Y73291D02*
D03*
X15643Y71739D02*
D03*
X50000Y73291D02*
D03*
X126100Y56000D02*
D03*
X112000Y21452D02*
D03*
X21300Y24700D02*
D03*
X171400Y282610D02*
D03*
X161514Y288827D02*
D03*
X226538Y259842D02*
D03*
X219315Y252300D02*
D03*
X234900Y254630D02*
D03*
X236500Y263343D02*
D03*
X164000Y101800D02*
D03*
X207238Y83502D02*
D03*
X238500Y68660D02*
D03*
X228400Y64961D02*
D03*
X236900Y59646D02*
D03*
X220502Y57480D02*
D03*
X140878Y182055D02*
D03*
X155815Y161800D02*
D03*
X173000Y173262D02*
D03*
X171500Y164079D02*
D03*
X228606Y138998D02*
D03*
X220134Y131445D02*
D03*
X171988Y213717D02*
D03*
X155217Y211614D02*
D03*
X173480Y218738D02*
D03*
X133488Y232138D02*
D03*
X198488Y226138D02*
D03*
Y243138D02*
D03*
X163488Y219638D02*
D03*
X133000Y182500D02*
D03*
Y114000D02*
D03*
Y125700D02*
D03*
X198500Y77500D02*
D03*
Y151500D02*
D03*
X172933Y291634D02*
D03*
X172992Y287992D02*
D03*
X416613Y77880D02*
D03*
X416662Y89896D02*
D03*
X424662Y75434D02*
D03*
Y92256D02*
D03*
X346687Y85744D02*
D03*
X346668Y82382D02*
D03*
X320593Y87489D02*
D03*
X398237Y73360D02*
D03*
X402837Y83911D02*
D03*
X320799Y83853D02*
D03*
X320588Y80497D02*
D03*
X416613Y152288D02*
D03*
X416662Y164304D02*
D03*
X424662Y149842D02*
D03*
Y166664D02*
D03*
X346687Y160152D02*
D03*
X346668Y156790D02*
D03*
X398237Y147768D02*
D03*
X402837Y158319D02*
D03*
X416613Y228416D02*
D03*
X416662Y240431D02*
D03*
X424662Y225970D02*
D03*
Y242791D02*
D03*
X346687Y236280D02*
D03*
X346668Y232918D02*
D03*
X398237Y223895D02*
D03*
X402837Y234446D02*
D03*
X346687Y312417D02*
D03*
X346668Y309055D02*
D03*
X289967Y276362D02*
D03*
Y124345D02*
D03*
X290021Y120983D02*
D03*
X289967Y117362D02*
D03*
X290003Y199961D02*
D03*
X416929Y114195D02*
D03*
X416611Y126700D02*
D03*
X424662Y111491D02*
D03*
Y129250D02*
D03*
X315352Y118487D02*
D03*
X376737Y127392D02*
D03*
X398237Y109992D02*
D03*
X402837Y120892D02*
D03*
X416929Y190152D02*
D03*
X416611Y202656D02*
D03*
X424662Y187447D02*
D03*
Y205207D02*
D03*
X315367Y197848D02*
D03*
X315352Y194444D02*
D03*
X376737Y203348D02*
D03*
X398237Y185948D02*
D03*
X402837Y196848D02*
D03*
X416929Y266509D02*
D03*
X416611Y279014D02*
D03*
X424662Y263805D02*
D03*
Y281565D02*
D03*
X315367Y274206D02*
D03*
X315352Y270802D02*
D03*
X376737Y279706D02*
D03*
X398237Y262306D02*
D03*
X402837Y273206D02*
D03*
X315367Y347848D02*
D03*
X315352Y344443D02*
D03*
X238319Y310330D02*
D03*
X233500Y320079D02*
D03*
X235012Y328462D02*
D03*
X234992Y325100D02*
D03*
X402837Y346848D02*
D03*
X398237Y335947D02*
D03*
X376737Y353347D02*
D03*
X375737Y357347D02*
D03*
X424662Y355206D02*
D03*
Y337446D02*
D03*
X416611Y352655D02*
D03*
X416929Y340151D02*
D03*
X264173Y298819D02*
D03*
X264500Y81500D02*
D03*
X129098Y74850D02*
D03*
X133036Y66976D02*
D03*
Y35480D02*
D03*
X121224Y74850D02*
D03*
X125162Y35480D02*
D03*
Y19732D02*
D03*
X113350Y43354D02*
D03*
X105476Y90598D02*
D03*
X109414Y35480D02*
D03*
X97602Y106347D02*
D03*
Y74850D02*
D03*
X101540Y66976D02*
D03*
Y51228D02*
D03*
X97602Y43354D02*
D03*
X101540Y35480D02*
D03*
X97602Y27606D02*
D03*
X89728Y106347D02*
D03*
Y74850D02*
D03*
X93665Y51228D02*
D03*
Y19732D02*
D03*
X81854Y74850D02*
D03*
X85791Y35480D02*
D03*
X81854Y27606D02*
D03*
X85791Y19732D02*
D03*
X73980Y74850D02*
D03*
X70043Y82724D02*
D03*
X66106Y74850D02*
D03*
X70043Y66976D02*
D03*
X66106Y59102D02*
D03*
X62169Y82724D02*
D03*
Y66976D02*
D03*
Y51228D02*
D03*
X58232Y27606D02*
D03*
X62169Y19732D02*
D03*
X50358Y90598D02*
D03*
X54295Y82724D02*
D03*
X46421D02*
D03*
X26736Y90598D02*
D03*
X30673Y82724D02*
D03*
X26736Y74850D02*
D03*
X18862Y106347D02*
D03*
Y90598D02*
D03*
X402837Y310584D02*
D03*
X523000Y242000D02*
D03*
X519500D02*
D03*
X511155Y160345D02*
D03*
X521542Y163458D02*
D03*
X497400Y105309D02*
D03*
X500141Y101650D02*
D03*
X231000Y233500D02*
D03*
X398237Y300033D02*
D03*
X424662Y318929D02*
D03*
Y302107D02*
D03*
X416662Y316569D02*
D03*
X416613Y304553D02*
D03*
X260000Y332500D02*
D03*
X22883Y85382D02*
D03*
X16300Y24700D02*
D03*
X18800D02*
D03*
X500570Y354350D02*
D03*
X-42200Y242520D02*
D03*
Y248819D02*
D03*
X542200Y291000D02*
D03*
X548800Y273300D02*
D03*
X-42000Y163800D02*
D03*
X140000Y301000D02*
D03*
X-42000Y261500D02*
D03*
X-42100Y233100D02*
D03*
X-42000Y255000D02*
D03*
Y135449D02*
D03*
Y182677D02*
D03*
Y173228D02*
D03*
Y154331D02*
D03*
Y144882D02*
D03*
X324200Y43500D02*
D03*
Y46400D02*
D03*
X327500Y43500D02*
D03*
X331846Y34500D02*
D03*
Y37400D02*
D03*
Y40350D02*
D03*
X327500Y46400D02*
D03*
X502000Y43500D02*
D03*
X507000D02*
D03*
X504500D02*
D03*
X225000Y344500D02*
D03*
X260000Y349500D02*
D03*
X197500Y312500D02*
D03*
X155585Y280445D02*
D03*
X226500Y279000D02*
D03*
X261000Y285000D02*
D03*
X164000Y188500D02*
D03*
X198500Y194000D02*
D03*
Y176500D02*
D03*
X228500Y158000D02*
D03*
X205800Y151600D02*
D03*
X198500Y126000D02*
D03*
Y108000D02*
D03*
X164000Y120500D02*
D03*
X228500Y84000D02*
D03*
X-18000Y119000D02*
D03*
X5940Y79122D02*
D03*
X524070Y342900D02*
D03*
X-41824Y245669D02*
D03*
X497270Y345000D02*
D03*
X522500Y183000D02*
D03*
X127100Y123200D02*
D03*
X133000Y300500D02*
D03*
X-42000Y258268D02*
D03*
X529500Y245000D02*
D03*
X258000Y304500D02*
D03*
X236500Y238500D02*
D03*
X118500Y47000D02*
D03*
Y49500D02*
D03*
X195000Y338500D02*
D03*
X196000Y272500D02*
D03*
X145000Y188500D02*
D03*
X199500Y114000D02*
D03*
X-28000Y122500D02*
D03*
X-9000Y122000D02*
D03*
X512270Y345000D02*
D03*
D119*
X151972Y233079D02*
D03*
X156303D02*
D03*
X151972Y228748D02*
D03*
X156303D02*
D03*
X151972Y224417D02*
D03*
X156303D02*
D03*
X221215Y144280D02*
D03*
X216884D02*
D03*
X221215Y148610D02*
D03*
X216884D02*
D03*
X221215Y152941D02*
D03*
X216884D02*
D03*
X155815Y174779D02*
D03*
X151484D02*
D03*
X155815Y179110D02*
D03*
X151484D02*
D03*
X155815Y183441D02*
D03*
X151484D02*
D03*
X151984Y115441D02*
D03*
X156315D02*
D03*
X151984Y111110D02*
D03*
X156315D02*
D03*
X151984Y106780D02*
D03*
X156315D02*
D03*
X155815Y293280D02*
D03*
X151484D02*
D03*
X155815Y297610D02*
D03*
X151484D02*
D03*
X155815Y301941D02*
D03*
X151484D02*
D03*
X221315Y70315D02*
D03*
X216984D02*
D03*
X221315Y74646D02*
D03*
X216984D02*
D03*
X221315Y78976D02*
D03*
X216984D02*
D03*
X219315Y265299D02*
D03*
X214984D02*
D03*
X219315Y269630D02*
D03*
X214984D02*
D03*
X219315Y273961D02*
D03*
X214984D02*
D03*
X217815Y330780D02*
D03*
X213484D02*
D03*
X217815Y335110D02*
D03*
X213484D02*
D03*
X217815Y339441D02*
D03*
X213484D02*
D03*
D120*
X173411Y27934D02*
D03*
X169868D02*
D03*
X173411Y32658D02*
D03*
X169868D02*
D03*
X171639Y30296D02*
D03*
X149986Y367126D02*
D03*
X146442D02*
D03*
X149986Y371850D02*
D03*
X146442D02*
D03*
X148214Y369488D02*
D03*
M02*
