M48
;Layer_Color=9474304
;FILE_FORMAT=2:5
INCH,TZ
;TYPE=PLATED
T1F00S00C0.00787
T2F00S00C0.01181
T3F00S00C0.03543
T4F00S00C0.04000
T5F00S00C0.06299
;TYPE=NON_PLATED
T6F00S00C0.12795
T7F00S00C0.13386
%
T01
X169868Y22028
X173411
X171639Y24390
X169868Y26753
X173411
X432568Y77829
Y89896
Y114581
Y126602
Y152237
Y164304
X221215Y152941
Y148610
Y144280
X216884
Y148610
Y152941
X216984Y78976
Y74646
Y70315
X221315
Y74646
Y78976
X194435Y74850
X195551Y71541
X156315Y106780
Y111110
Y115441
X151984
Y111110
Y106780
X122047Y108000
X119704Y110885
X95903Y145506
X93064Y148678
X151484Y174779
Y179110
X155815
Y174779
Y183441
X151484
X63005Y179789
X65249Y176021
X30315Y228991
X28043
X22539Y238480
X20268
X14272Y244488
X12000
X8954Y251969
X6682
X1969Y217110
X-1969Y219291
X151972Y224417
Y228748
X156303
Y224417
Y233079
X151972
X151484Y293280
Y297610
X155815
Y293280
Y301941
X151484
X131876Y309449
X213484Y330780
Y335110
X217815
Y330780
Y339441
X213484
X214984Y273961
Y269630
Y265299
X219315
Y269630
Y273961
X432568Y278916
Y266895
Y240431
Y228364
Y202558
Y190537
Y304502
Y316569
Y340536
Y352557
X482170Y363040
X512270Y363000
X527270
X149986Y373031
X146442
X148214Y375394
X149986Y377756
X146442
T02
X16300Y24700
X18800
X21300
X58232Y27606
X66106
X62169Y19732
X85791
X93665
X97602Y27606
X81854
Y11858
X112000Y21452
X125162Y19732
X147842Y14461
X176378Y13386
X209842Y22835
X224016Y15354
X227953
X225886Y13194
X222047
X229724
X231890Y15354
X244760Y25146
X252760Y27048
X256126Y22079
X272760Y22339
X280760Y25216
X303458Y24216
Y9819
X326772Y18898
Y21654
X330270
Y18898
X441732Y19291
X445669
Y22835
X455118Y26181
Y29921
Y33661
X463386Y29921
X470079Y24016
X435827Y29528
X443215Y44000
X480177Y43500
X482677
X485177
X502000
X504500
X507000
Y73500
X504500
X502000
X500141Y101650
X497400Y105309
X511155Y160345
X521542Y163458
X522500Y183000
X424662Y187447
X416929Y190152
X398237Y185948
X402837Y158319
X398237Y147768
X416613Y152288
X424662Y149842
Y166664
X416662Y164304
X416611Y126700
X424662Y129250
Y111491
X416929Y114195
X402837Y120892
X398237Y109992
X402837Y83911
X398237Y73360
X416613Y77880
X424662Y75434
Y92256
X416662Y89896
X376737Y90860
X375737Y94860
X376737Y127392
X375737Y131392
X376737Y165268
X375737Y169268
X346687Y160152
X346668Y156790
X320799Y158261
X320588Y154905
X320593Y161897
X289741Y154741
X285039Y157720
X263000Y163000
Y146000
X247098Y138973
X238367
X238393Y142154
X236900Y133579
X243938Y124164
X289967Y124345
X290021Y120983
X289967Y117362
X315352Y118487
X315367Y121892
X320593Y87489
X320799Y83853
X320588Y80497
X346668Y82382
X346687Y85744
X340551Y52756
Y50000
X337053
Y52756
X327500Y46400
Y43500
X324200
Y46400
X331846Y40350
Y37400
Y34500
X246738Y35068
X243938
Y50000
X236900Y59646
X238400Y64961
X238500Y68660
X263249Y71251
X264500Y81500
X272065Y83819
X262500Y89500
X261432Y186000
X254130
X228500Y158000
X228606Y138998
X220134Y131445
X207500Y118800
X199500Y114000
X198500Y108000
Y126000
Y151500
X201887Y154741
X205800Y151600
X206211Y157744
X182500Y157945
X171500Y164079
X172992Y168681
X173000Y173262
X163003Y169630
X155815Y161800
X164000Y188500
X145000
X140878Y182055
X136500Y185228
X133000Y182500
Y125700
X127100Y123200
X133000Y114000
X137091Y117228
X140720Y114662
X164000Y120500
Y101800
X173411
X173303Y104992
X171900Y96110
X183142Y89945
X201500Y80764
X198500Y77500
X205200Y77181
X207238Y83502
X228500Y84000
X228400Y64961
X220502Y57480
X126100Y56000
X118500Y49500
Y47000
X113350Y43354
X109414Y35480
X101540
X97602Y43354
X101540Y51228
X93665
X101540Y66976
X97602Y74850
X89728
X81854
X73980
X121224
X129098
X133036Y66976
Y35480
X125162
X85791
X105476Y90598
X97602Y106347
X89728
X154829Y93140
X198500Y176500
X45000Y164250
Y159000
Y153300
Y147600
Y134794
Y129921
Y124409
Y119409
X40000Y114691
X34610Y106347
Y90598
X26736
X18862
X22883Y85382
X30673Y82724
X26736Y74850
X15643Y71739
X5940Y79122
X18862Y106347
X12992Y115354
X9752Y123582
X12908Y138189
X5500Y138200
X10024Y152361
X12890Y167323
X5500Y167000
X-42000Y163800
Y173228
Y182677
Y154331
Y144882
Y135449
X-28000Y122500
X-18000Y119000
X-9000Y122000
X50358Y90598
X54295Y82724
X62169
X70043
X66106Y74850
X70043Y66976
X62169
X66106Y59102
X62169Y51228
X50000Y73291
X42681
X46421Y82724
X-42126Y204724
X-42297Y214370
X-42200Y223622
X-42100Y233100
X-42200Y242520
X-41824Y245669
X-42200Y248819
X-42000Y251732
Y255000
Y258268
Y261500
X14173Y287214
X17003Y304122
X28484Y311733
X43758Y318017
X58232Y338630
X105512Y339370
Y335433
X109843
Y339370
X136000Y303728
X133000Y300500
X140000Y301000
X163000Y307000
X161514Y288827
X172992Y287992
X172933Y291634
X171400Y282610
X182551Y276000
X196000Y272500
X199487Y275761
X203500Y273000
X207449Y278500
X226500Y279000
X226538Y259842
X219315Y252300
X198488Y243138
Y226138
X173500Y222100
X173480Y218738
X171988Y213717
X163488Y219638
X155217Y211614
X133300Y203881
X139370Y195280
X139534Y191358
X140913Y232063
X136975Y234879
X133488Y232138
X147638Y239370
X163488Y238138
X182551Y207283
X198500Y194000
X197500Y294500
Y312500
X217373Y317541
X225000Y327765
Y344500
X206000
X202425Y338425
X198487Y341241
X195000Y338500
X155585Y280445
X236500Y263343
X236492Y259695
X234900Y254630
X246500Y259695
X243938Y245628
X236500Y238500
X231000Y233500
X261000Y266500
Y285000
X264173Y298819
X258000Y304500
X238319Y310330
X233500Y320079
X234992Y325100
X235012Y328462
X260000Y332500
X265600Y341300
X273123Y339441
X290174Y342608
X290092Y345959
X315352Y344443
X320593Y314162
X320799Y310526
X320588Y307170
X346668Y309055
X346687Y312417
X376737Y317533
X375737Y321533
Y283706
X376737Y279706
X375737Y245395
X376737Y241395
X375737Y207348
X376737Y203348
X346668Y232918
X346687Y236280
X320593Y238024
X320875Y234237
X320588Y231033
X315367Y197848
X315352Y194444
X289971Y193255
X289741Y196609
X290003Y199961
X289967Y268667
X290003Y273000
X289967Y276362
X273500Y276000
X277953Y271036
X315352Y270802
X315367Y274206
X402837Y273206
X398237Y262306
X416929Y266509
X424662Y263805
Y281565
X416611Y279014
X416613Y304553
X424662Y302107
Y318929
X416662Y316569
X402837Y310584
X398237Y300033
Y335947
X416929Y340151
X424662Y337446
X482185Y321260
X497270Y345000
X512270
X524070Y342900
X523000Y242000
X519500
X529500Y245000
X424662Y242791
X416662Y240431
X416613Y228416
X424662Y225970
Y205207
X416611Y202656
X402837Y196848
X398237Y223895
X402837Y234446
X548800Y273300
X542200Y291000
X500570Y354350
X424662Y355206
X416611Y352655
X402837Y346848
X376737Y353347
X375737Y357347
X325590Y368898
X303543Y370472
Y373228
X300045
Y370472
X279921Y377953
Y382300
X283858Y382283
X275836Y382300
X266929Y375984
X256299Y375590
X246063Y381496
X260000Y349500
X289967
X315367Y347848
X219685Y378346
X212205Y383071
X198380Y366142
Y363386
X194882
Y366142
X187795Y370866
X179134Y372835
X159291Y385122
X132677Y387008
X124409Y366535
X111417Y364173
Y360236
X107480
Y364246
X93665Y362252
X81854
X87760Y374063
X75949
X81854Y385874
X93665
X96389Y377480
X87760Y350441
X75949
X148425Y362992
X58232Y362252
X64138Y374063
X70043Y385874
X58232
X64138Y350441
X16256Y359072
T03
X529500Y152000
Y160000
Y168000
Y176000
X536500Y180000
Y172000
Y164000
Y156000
Y218000
Y226000
Y234000
Y242000
X529500Y238000
Y230000
Y222000
Y214000
T04
X521256Y39000
X531256
Y49000
Y59000
Y69000
Y79000
Y89000
Y99000
Y109000
X521256
Y99000
Y89000
Y79000
Y69000
Y59000
Y49000
T05
X533000Y134000
Y260000
T06
X546500Y141000
Y253000
T07
X543307Y21654
Y372047
M30
