G04*
G04 #@! TF.GenerationSoftware,Altium Limited,Altium Designer,21.1.1 (26)*
G04*
G04 Layer_Color=16711935*
%FSLAX25Y25*%
%MOIN*%
G70*
G04*
G04 #@! TF.SameCoordinates,5D8C7B31-2579-4D81-B40E-B9CEBD91A3CB*
G04*
G04*
G04 #@! TF.FilePolarity,Positive*
G04*
G01*
G75*
%ADD17C,0.01000*%
D17*
X555669Y385669D02*
G03*
X547638Y393701I-8032J0D01*
G01*
Y0D02*
G03*
X555669Y8032I0J8032D01*
G01*
X-0Y7900D02*
G03*
X8100Y0I8000J100D01*
G01*
X8001Y393701D02*
G03*
X0Y385700I0J-8001D01*
G01*
X-38028Y186008D02*
G03*
X-38028Y195457I0J4724D01*
G01*
X-27870Y282563D02*
G03*
X-23933Y278626I3937J0D01*
G01*
Y115437D02*
G03*
X-27870Y111500I0J-3937D01*
G01*
X-34877Y121343D02*
G03*
X-38814Y125279I-3937J0D01*
G01*
X-27870Y284925D02*
G03*
X-29445Y286500I-1575J0D01*
G01*
Y107563D02*
G03*
X-27870Y109138I0J1575D01*
G01*
X-38814Y268783D02*
G03*
X-34877Y272721I0J3937D01*
G01*
X555669Y8032D02*
Y385669D01*
X8001Y393701D02*
X547638D01*
X8100Y0D02*
X547638D01*
X0Y278626D02*
Y385700D01*
X-23933Y278626D02*
X0D01*
X-0Y7900D02*
Y115437D01*
X-75D02*
X-0D01*
X-55431Y195457D02*
X-38028D01*
X-55431Y186008D02*
X-38028D01*
X-58500Y195457D02*
X-55431D01*
X-58500Y186008D02*
X-55431D01*
X-58500Y195457D02*
Y268783D01*
Y125279D02*
Y186008D01*
X-23933Y115437D02*
X-75D01*
X-55431Y268783D02*
X-38814D01*
X-55431Y125279D02*
X-38814D01*
X-34877Y286500D02*
X-29445D01*
X-34877Y107563D02*
X-29445D01*
X-34877D02*
Y121343D01*
Y272721D02*
Y286500D01*
X-27870Y282563D02*
Y284925D01*
Y109138D02*
Y111500D01*
X-58500Y268783D02*
X-55431D01*
X-58500Y125279D02*
X-55431D01*
M02*
