G04*
G04 #@! TF.GenerationSoftware,Altium Limited,Altium Designer,24.0.1 (36)*
G04*
G04 Layer_Color=8421504*
%FSLAX25Y25*%
%MOIN*%
G70*
G04*
G04 #@! TF.SameCoordinates,12A0DDA4-788C-4C1E-B99E-8536AA2CD936*
G04*
G04*
G04 #@! TF.FilePolarity,Positive*
G04*
G01*
G75*
G04:AMPARAMS|DCode=24|XSize=23.62mil|YSize=57.09mil|CornerRadius=2.01mil|HoleSize=0mil|Usage=FLASHONLY|Rotation=90.000|XOffset=0mil|YOffset=0mil|HoleType=Round|Shape=RoundedRectangle|*
%AMROUNDEDRECTD24*
21,1,0.02362,0.05307,0,0,90.0*
21,1,0.01961,0.05709,0,0,90.0*
1,1,0.00402,0.02653,0.00980*
1,1,0.00402,0.02653,-0.00980*
1,1,0.00402,-0.02653,-0.00980*
1,1,0.00402,-0.02653,0.00980*
%
%ADD24ROUNDEDRECTD24*%
%ADD25R,0.04000X0.03200*%
%ADD26R,0.02756X0.03543*%
%ADD27R,0.03347X0.03740*%
%ADD28R,0.03740X0.03347*%
%ADD29R,0.03347X0.03543*%
%ADD30R,0.02756X0.03937*%
%ADD31R,0.03937X0.02756*%
G04:AMPARAMS|DCode=32|XSize=59.06mil|YSize=17.72mil|CornerRadius=1.95mil|HoleSize=0mil|Usage=FLASHONLY|Rotation=0.000|XOffset=0mil|YOffset=0mil|HoleType=Round|Shape=RoundedRectangle|*
%AMROUNDEDRECTD32*
21,1,0.05906,0.01382,0,0,0.0*
21,1,0.05516,0.01772,0,0,0.0*
1,1,0.00390,0.02758,-0.00691*
1,1,0.00390,-0.02758,-0.00691*
1,1,0.00390,-0.02758,0.00691*
1,1,0.00390,0.02758,0.00691*
%
%ADD32ROUNDEDRECTD32*%
%ADD33O,0.06299X0.01772*%
%ADD34R,0.03543X0.03347*%
%ADD35R,0.03937X0.05512*%
G04:AMPARAMS|DCode=36|XSize=61.02mil|YSize=23.62mil|CornerRadius=2.01mil|HoleSize=0mil|Usage=FLASHONLY|Rotation=0.000|XOffset=0mil|YOffset=0mil|HoleType=Round|Shape=RoundedRectangle|*
%AMROUNDEDRECTD36*
21,1,0.06102,0.01961,0,0,0.0*
21,1,0.05701,0.02362,0,0,0.0*
1,1,0.00402,0.02850,-0.00980*
1,1,0.00402,-0.02850,-0.00980*
1,1,0.00402,-0.02850,0.00980*
1,1,0.00402,0.02850,0.00980*
%
%ADD36ROUNDEDRECTD36*%
%ADD37R,0.06299X0.11811*%
%ADD38R,0.07165X0.04764*%
%ADD39R,0.10630X0.14173*%
%ADD40R,0.06614X0.07559*%
%ADD41R,0.04764X0.07165*%
%ADD42R,0.05512X0.03937*%
%ADD43R,0.01772X0.05709*%
%ADD44R,0.02362X0.04803*%
%ADD45R,0.01772X0.03937*%
%ADD46R,0.06890X0.11614*%
%ADD47O,0.05709X0.01201*%
%ADD48R,0.03268X0.02953*%
%ADD49R,0.07087X0.04331*%
G04:AMPARAMS|DCode=50|XSize=17.72mil|YSize=53.15mil|CornerRadius=1.95mil|HoleSize=0mil|Usage=FLASHONLY|Rotation=0.000|XOffset=0mil|YOffset=0mil|HoleType=Round|Shape=RoundedRectangle|*
%AMROUNDEDRECTD50*
21,1,0.01772,0.04925,0,0,0.0*
21,1,0.01382,0.05315,0,0,0.0*
1,1,0.00390,0.00691,-0.02463*
1,1,0.00390,-0.00691,-0.02463*
1,1,0.00390,-0.00691,0.02463*
1,1,0.00390,0.00691,0.02463*
%
%ADD50ROUNDEDRECTD50*%
%ADD51R,0.06000X0.04000*%
%ADD52R,0.06181X0.07441*%
%ADD53O,0.06693X0.01772*%
%ADD54R,0.04803X0.02362*%
%ADD55R,0.04803X0.02441*%
%ADD56R,0.03150X0.03150*%
%ADD57R,0.04000X0.06000*%
%ADD58R,0.02441X0.04803*%
G36*
X15779Y264367D02*
X13780Y262367D01*
X11779Y264367D01*
Y265367D01*
X15779D01*
Y264367D01*
D02*
G37*
G36*
Y260367D02*
X11779D01*
Y263367D01*
X13780Y261367D01*
X15779Y263367D01*
Y260367D01*
D02*
G37*
D24*
X-14665Y263799D02*
D03*
Y258799D02*
D03*
Y253799D02*
D03*
Y248799D02*
D03*
X6791Y263799D02*
D03*
Y258799D02*
D03*
Y253799D02*
D03*
Y248799D02*
D03*
D25*
X13780Y266367D02*
D03*
Y259617D02*
D03*
D26*
X1575Y269685D02*
D03*
X7087D02*
D03*
D27*
X13386Y253937D02*
D03*
X18504D02*
D03*
X13583Y248031D02*
D03*
X18701D02*
D03*
D28*
X-21654Y259252D02*
D03*
Y264370D02*
D03*
Y253740D02*
D03*
Y248622D02*
D03*
D29*
X235276Y313033D02*
D03*
X229173D02*
D03*
X173176Y275590D02*
D03*
X167073D02*
D03*
X236676Y247638D02*
D03*
X230573D02*
D03*
X173764Y207283D02*
D03*
X167661D02*
D03*
X173276Y157087D02*
D03*
X167173D02*
D03*
X238676Y126772D02*
D03*
X232573D02*
D03*
X173676Y89370D02*
D03*
X167573D02*
D03*
X238676Y52756D02*
D03*
X232573D02*
D03*
X3445Y181496D02*
D03*
X-2657D02*
D03*
X16006Y122655D02*
D03*
X9904D02*
D03*
X43075Y138976D02*
D03*
X36972D02*
D03*
X43075Y127953D02*
D03*
X36972D02*
D03*
X43075Y133465D02*
D03*
X36972D02*
D03*
X35827Y151969D02*
D03*
X29724D02*
D03*
X35827Y157579D02*
D03*
X29724D02*
D03*
X35827Y163189D02*
D03*
X29724D02*
D03*
X35827Y174409D02*
D03*
X29724D02*
D03*
X35827Y168799D02*
D03*
X29724D02*
D03*
X10138Y146083D02*
D03*
X4035D02*
D03*
X8957Y176378D02*
D03*
X26632Y353150D02*
D03*
X32735D02*
D03*
X218996Y376772D02*
D03*
X225098D02*
D03*
X2854Y176378D02*
D03*
X297356Y21654D02*
D03*
X303458D02*
D03*
X297356Y14801D02*
D03*
X303458D02*
D03*
X164349Y377559D02*
D03*
X170451D02*
D03*
Y370807D02*
D03*
X164349D02*
D03*
X187382Y40973D02*
D03*
X193484D02*
D03*
Y34394D02*
D03*
X187382D02*
D03*
X259951Y157720D02*
D03*
X253849D02*
D03*
X259951Y151720D02*
D03*
X253849D02*
D03*
X195039Y231858D02*
D03*
X188937D02*
D03*
X195039Y237858D02*
D03*
X188937D02*
D03*
X194551Y182220D02*
D03*
X188449D02*
D03*
X194551Y188221D02*
D03*
X188449D02*
D03*
X446266Y275955D02*
D03*
X440164D02*
D03*
X446266Y269986D02*
D03*
X440164D02*
D03*
X314429Y286624D02*
D03*
X320532D02*
D03*
X314429Y281506D02*
D03*
X320532D02*
D03*
Y263906D02*
D03*
X314429D02*
D03*
Y258789D02*
D03*
X320532D02*
D03*
X377688Y274206D02*
D03*
X371586D02*
D03*
X377688Y268306D02*
D03*
X371586D02*
D03*
X314429Y360266D02*
D03*
X320532D02*
D03*
X314429Y332430D02*
D03*
X320532D02*
D03*
X440164Y349596D02*
D03*
X446266D02*
D03*
X440164Y343627D02*
D03*
X446266D02*
D03*
X371586Y341948D02*
D03*
X377688D02*
D03*
X314429Y355148D02*
D03*
X320532D02*
D03*
Y337547D02*
D03*
X314429D02*
D03*
X371586Y347848D02*
D03*
X377688D02*
D03*
X371586Y79364D02*
D03*
X377688D02*
D03*
X371586Y85143D02*
D03*
X377688D02*
D03*
X371586Y159551D02*
D03*
X377688D02*
D03*
Y153772D02*
D03*
X371586D02*
D03*
Y229899D02*
D03*
X377688D02*
D03*
X371586Y235679D02*
D03*
X377688D02*
D03*
X371586Y311816D02*
D03*
X377688D02*
D03*
X351559Y296120D02*
D03*
X345457D02*
D03*
X377688Y306037D02*
D03*
X371586D02*
D03*
X345457Y301773D02*
D03*
X351559D02*
D03*
Y319292D02*
D03*
X345457D02*
D03*
X446266Y313461D02*
D03*
X440164D02*
D03*
X446266Y307561D02*
D03*
X440164D02*
D03*
X351559Y324945D02*
D03*
X345457D02*
D03*
X446266Y237323D02*
D03*
X440164D02*
D03*
X446266Y231423D02*
D03*
X440164D02*
D03*
X351559Y248808D02*
D03*
X345457D02*
D03*
Y243155D02*
D03*
X351559D02*
D03*
Y219983D02*
D03*
X345457D02*
D03*
Y225635D02*
D03*
X351559D02*
D03*
X446266Y199597D02*
D03*
X440164D02*
D03*
X446266Y193628D02*
D03*
X440164D02*
D03*
X377688Y191948D02*
D03*
X371586D02*
D03*
X314429Y210266D02*
D03*
X320532D02*
D03*
X314429Y205148D02*
D03*
X320532D02*
D03*
X314429Y182431D02*
D03*
X320532D02*
D03*
X314429Y187548D02*
D03*
X320532D02*
D03*
X377688Y197848D02*
D03*
X371586D02*
D03*
X446266Y161196D02*
D03*
X440164D02*
D03*
X446266Y155296D02*
D03*
X440164D02*
D03*
X345457Y172680D02*
D03*
X351559D02*
D03*
X345457Y167028D02*
D03*
X351559D02*
D03*
X345457Y143855D02*
D03*
X351559D02*
D03*
Y149508D02*
D03*
X345457D02*
D03*
X440164Y123641D02*
D03*
X446266D02*
D03*
X440164Y117672D02*
D03*
X446266D02*
D03*
X377688Y121892D02*
D03*
X371586D02*
D03*
X377688Y115992D02*
D03*
X371586D02*
D03*
X320532Y134310D02*
D03*
X314429D02*
D03*
X320532Y129192D02*
D03*
X314429D02*
D03*
X320532Y106475D02*
D03*
X314429D02*
D03*
X320532Y111592D02*
D03*
X314429D02*
D03*
X446266Y80888D02*
D03*
X440164D02*
D03*
X446266Y86788D02*
D03*
X440164D02*
D03*
X188949Y114220D02*
D03*
X195051D02*
D03*
X194551Y300721D02*
D03*
X188449D02*
D03*
X188949Y120220D02*
D03*
X195051D02*
D03*
X194551Y306720D02*
D03*
X188449D02*
D03*
X351559Y75100D02*
D03*
Y92619D02*
D03*
X345457Y75100D02*
D03*
X351559Y69447D02*
D03*
X345457D02*
D03*
Y92619D02*
D03*
X351559Y98272D02*
D03*
X345457D02*
D03*
X260051Y77756D02*
D03*
X253949D02*
D03*
X258051Y272740D02*
D03*
X251949D02*
D03*
X256551Y338221D02*
D03*
X250449D02*
D03*
X260051Y83756D02*
D03*
X253949D02*
D03*
X258051Y278740D02*
D03*
X251949D02*
D03*
X256551Y344220D02*
D03*
X250449D02*
D03*
X63949Y16000D02*
D03*
X70051D02*
D03*
X96949Y59000D02*
D03*
X103051D02*
D03*
D30*
X-11516Y160157D02*
D03*
X-17618D02*
D03*
X15811Y145965D02*
D03*
X21913D02*
D03*
X17323Y176378D02*
D03*
X23425D02*
D03*
X225098Y360236D02*
D03*
X218996D02*
D03*
X13222Y353150D02*
D03*
X19324D02*
D03*
X26632Y340559D02*
D03*
X32735D02*
D03*
X41234Y308810D02*
D03*
X35132D02*
D03*
X460335Y21260D02*
D03*
X466437D02*
D03*
X24752Y97004D02*
D03*
X30854D02*
D03*
X164272Y363779D02*
D03*
X170374D02*
D03*
X253849Y163721D02*
D03*
X259951D02*
D03*
Y145721D02*
D03*
X253849D02*
D03*
X235349Y139720D02*
D03*
X241451D02*
D03*
X235349Y145061D02*
D03*
X241451D02*
D03*
X170437Y225268D02*
D03*
X176539D02*
D03*
X170437Y219858D02*
D03*
X176539D02*
D03*
X195039Y225858D02*
D03*
X188937D02*
D03*
Y243858D02*
D03*
X195039D02*
D03*
X169949Y175630D02*
D03*
X176051D02*
D03*
X169949Y170220D02*
D03*
X176051D02*
D03*
X194551Y176221D02*
D03*
X188449D02*
D03*
Y194220D02*
D03*
X194551D02*
D03*
X169949Y294265D02*
D03*
X176051D02*
D03*
X231960Y331935D02*
D03*
X238063D02*
D03*
X323631Y237486D02*
D03*
X317528D02*
D03*
Y231305D02*
D03*
X323631D02*
D03*
X299529Y331148D02*
D03*
X305632D02*
D03*
X286908Y269676D02*
D03*
X293010D02*
D03*
X379288Y281565D02*
D03*
X373186D02*
D03*
X293010Y275859D02*
D03*
X286908D02*
D03*
X306025Y287513D02*
D03*
X299923D02*
D03*
X312308Y272706D02*
D03*
X318411D02*
D03*
X305632Y257506D02*
D03*
X299529D02*
D03*
X286908Y343317D02*
D03*
X293010D02*
D03*
X373186Y355206D02*
D03*
X379288D02*
D03*
X286908Y349500D02*
D03*
X293010D02*
D03*
X318411Y346347D02*
D03*
X312308D02*
D03*
X299923Y361154D02*
D03*
X306025D02*
D03*
X317528Y80769D02*
D03*
X323631D02*
D03*
X317528Y155177D02*
D03*
X323631D02*
D03*
X193265Y27934D02*
D03*
X187163D02*
D03*
X139351Y41157D02*
D03*
X133249D02*
D03*
X323631Y307442D02*
D03*
X317528D02*
D03*
X293010Y193318D02*
D03*
X286908D02*
D03*
X293010Y117362D02*
D03*
X286908D02*
D03*
X323631Y313623D02*
D03*
X317528D02*
D03*
X336659Y294488D02*
D03*
X330557D02*
D03*
X343624Y310533D02*
D03*
X349727D02*
D03*
X336659Y326220D02*
D03*
X330557D02*
D03*
X343624Y234395D02*
D03*
X349727D02*
D03*
X336659Y250083D02*
D03*
X330557D02*
D03*
X336659Y218351D02*
D03*
X330557D02*
D03*
X379288Y205207D02*
D03*
X373186D02*
D03*
X293010Y199501D02*
D03*
X286908D02*
D03*
X312308Y196348D02*
D03*
X318411D02*
D03*
X306025Y211155D02*
D03*
X299923D02*
D03*
X305632Y181148D02*
D03*
X299529D02*
D03*
X323631Y161358D02*
D03*
X317528D02*
D03*
X343624Y158268D02*
D03*
X349727D02*
D03*
X336659Y173956D02*
D03*
X330557D02*
D03*
X336659Y142223D02*
D03*
X330557D02*
D03*
X379288Y129250D02*
D03*
X373186D02*
D03*
X293010Y123545D02*
D03*
X286908D02*
D03*
X312308Y120392D02*
D03*
X318411D02*
D03*
X306025Y135198D02*
D03*
X299923D02*
D03*
X299529Y105192D02*
D03*
X305632D02*
D03*
X331846Y45400D02*
D03*
X337949D02*
D03*
X349727Y83860D02*
D03*
X343624D02*
D03*
X317528Y86950D02*
D03*
X323631D02*
D03*
X11892Y101339D02*
D03*
X17994D02*
D03*
X10792Y79122D02*
D03*
X16894D02*
D03*
X83051Y91000D02*
D03*
X76949D02*
D03*
X176551Y107765D02*
D03*
X170449D02*
D03*
X176551Y102220D02*
D03*
X170449D02*
D03*
X176051Y288720D02*
D03*
X169949D02*
D03*
X188949Y108221D02*
D03*
X195051D02*
D03*
X188449Y294721D02*
D03*
X194551D02*
D03*
X195051Y126221D02*
D03*
X188949D02*
D03*
X194551Y312720D02*
D03*
X188449D02*
D03*
X330557Y67815D02*
D03*
X336659D02*
D03*
X330557Y99547D02*
D03*
X336659D02*
D03*
X241551Y71300D02*
D03*
X235449D02*
D03*
X239551Y266284D02*
D03*
X233449D02*
D03*
X241551Y65756D02*
D03*
X235449D02*
D03*
X239551Y260740D02*
D03*
X233449D02*
D03*
X238051Y326220D02*
D03*
X231949D02*
D03*
X253949Y71756D02*
D03*
X260051D02*
D03*
X251949Y266740D02*
D03*
X258051D02*
D03*
X250449Y332221D02*
D03*
X256551D02*
D03*
X260051Y89756D02*
D03*
X253949D02*
D03*
X258051Y284740D02*
D03*
X251949D02*
D03*
X256551Y350220D02*
D03*
X250449D02*
D03*
X84949Y59000D02*
D03*
X91051D02*
D03*
X58051Y16000D02*
D03*
X51949D02*
D03*
X128051Y48000D02*
D03*
X121949D02*
D03*
D31*
X23874Y123127D02*
D03*
Y117025D02*
D03*
X63484Y330291D02*
D03*
Y324189D02*
D03*
X28484Y302784D02*
D03*
Y308887D02*
D03*
X259842Y371358D02*
D03*
Y377461D02*
D03*
X222047Y371555D02*
D03*
Y365453D02*
D03*
X443701Y27953D02*
D03*
Y34055D02*
D03*
X275836Y368836D02*
D03*
Y374938D02*
D03*
X467323Y33504D02*
D03*
Y27402D02*
D03*
X252760Y30319D02*
D03*
Y24216D02*
D03*
X272760Y31319D02*
D03*
Y25216D02*
D03*
X132761Y376870D02*
D03*
Y370768D02*
D03*
X179357Y358340D02*
D03*
Y364442D02*
D03*
X132761Y359154D02*
D03*
Y365256D02*
D03*
X247900Y151669D02*
D03*
Y157772D02*
D03*
X201900Y151669D02*
D03*
Y157772D02*
D03*
X136988Y231807D02*
D03*
Y237910D02*
D03*
X182988Y231807D02*
D03*
Y237910D02*
D03*
X136500Y182169D02*
D03*
Y188272D02*
D03*
X182500Y182169D02*
D03*
Y188272D02*
D03*
X416611Y275955D02*
D03*
Y282057D02*
D03*
X398237Y273257D02*
D03*
Y267155D02*
D03*
X416662Y269986D02*
D03*
Y263883D02*
D03*
X398237Y340796D02*
D03*
Y346899D02*
D03*
X416611Y349596D02*
D03*
Y355699D02*
D03*
X416662Y343627D02*
D03*
Y337525D02*
D03*
X416613Y80939D02*
D03*
Y74837D02*
D03*
X416662Y86837D02*
D03*
Y92939D02*
D03*
X378346Y100295D02*
D03*
Y94193D02*
D03*
X398137Y77808D02*
D03*
Y83911D02*
D03*
X416613Y155347D02*
D03*
Y149245D02*
D03*
X416662Y167347D02*
D03*
Y161245D02*
D03*
X378346Y174705D02*
D03*
Y168602D02*
D03*
X398137Y152216D02*
D03*
Y158319D02*
D03*
X416613Y225372D02*
D03*
Y231475D02*
D03*
X416662Y243475D02*
D03*
Y237372D02*
D03*
X378737Y250689D02*
D03*
Y244587D02*
D03*
X398137Y228344D02*
D03*
Y234446D02*
D03*
X207507Y25248D02*
D03*
Y19146D02*
D03*
X155301Y25965D02*
D03*
Y19863D02*
D03*
Y31871D02*
D03*
Y37973D02*
D03*
X378346Y320965D02*
D03*
Y327067D02*
D03*
X398137Y310584D02*
D03*
Y304481D02*
D03*
X416662Y319612D02*
D03*
Y313510D02*
D03*
X416613Y301510D02*
D03*
Y307612D02*
D03*
X398237Y196900D02*
D03*
Y190797D02*
D03*
X416611Y199597D02*
D03*
Y205700D02*
D03*
X416662Y193628D02*
D03*
Y187525D02*
D03*
X398237Y120943D02*
D03*
Y114841D02*
D03*
X416611Y123641D02*
D03*
Y129743D02*
D03*
X416662Y117672D02*
D03*
Y111569D02*
D03*
X136500Y120272D02*
D03*
Y114169D02*
D03*
X136000Y306772D02*
D03*
Y300669D02*
D03*
X183000Y120272D02*
D03*
Y114169D02*
D03*
X182500Y306772D02*
D03*
Y300669D02*
D03*
X512500Y100949D02*
D03*
Y107051D02*
D03*
Y77051D02*
D03*
Y70949D02*
D03*
X201500Y83807D02*
D03*
Y77705D02*
D03*
X199500Y278791D02*
D03*
Y272689D02*
D03*
X198500Y344272D02*
D03*
Y338169D02*
D03*
X248000Y83807D02*
D03*
Y77705D02*
D03*
X246000Y278791D02*
D03*
Y272689D02*
D03*
X244500Y344272D02*
D03*
Y338169D02*
D03*
X58000Y68949D02*
D03*
Y75051D02*
D03*
X90000Y97004D02*
D03*
Y90902D02*
D03*
X120000Y18949D02*
D03*
Y25051D02*
D03*
X512500Y47051D02*
D03*
Y40949D02*
D03*
D32*
X29412Y136877D02*
D03*
Y129200D02*
D03*
Y134318D02*
D03*
X6577Y131758D02*
D03*
X29412D02*
D03*
X6577Y129200D02*
D03*
Y134318D02*
D03*
Y136877D02*
D03*
D33*
X-3347Y169980D02*
D03*
Y167421D02*
D03*
Y164862D02*
D03*
Y162303D02*
D03*
Y159744D02*
D03*
Y157185D02*
D03*
Y154626D02*
D03*
Y152067D02*
D03*
X20669D02*
D03*
Y154626D02*
D03*
Y157185D02*
D03*
Y159744D02*
D03*
Y162303D02*
D03*
Y164862D02*
D03*
Y167421D02*
D03*
Y169980D02*
D03*
D34*
X-1575Y140157D02*
D03*
X22047Y340256D02*
D03*
Y346358D02*
D03*
X22583Y302789D02*
D03*
Y308891D02*
D03*
X15883Y321591D02*
D03*
Y315489D02*
D03*
X16909Y308887D02*
D03*
Y302784D02*
D03*
X213386Y377067D02*
D03*
Y370965D02*
D03*
Y366043D02*
D03*
Y359941D02*
D03*
X432568Y355600D02*
D03*
Y349498D02*
D03*
X-1575Y146260D02*
D03*
X520854Y7816D02*
D03*
Y13919D02*
D03*
X224400Y129669D02*
D03*
Y135772D02*
D03*
X159488Y209807D02*
D03*
Y215910D02*
D03*
X159000Y160169D02*
D03*
Y166272D02*
D03*
X432568Y117640D02*
D03*
Y111538D02*
D03*
Y123543D02*
D03*
Y129645D02*
D03*
Y193596D02*
D03*
Y187494D02*
D03*
Y199499D02*
D03*
Y205601D02*
D03*
Y269954D02*
D03*
Y263852D02*
D03*
Y275857D02*
D03*
Y281959D02*
D03*
Y343596D02*
D03*
Y337493D02*
D03*
Y80888D02*
D03*
Y74786D02*
D03*
Y86837D02*
D03*
Y92939D02*
D03*
Y155296D02*
D03*
Y149194D02*
D03*
Y161245D02*
D03*
Y167347D02*
D03*
Y231423D02*
D03*
Y225321D02*
D03*
Y237372D02*
D03*
Y243475D02*
D03*
Y307561D02*
D03*
Y301459D02*
D03*
Y313510D02*
D03*
Y319612D02*
D03*
X497270Y348551D02*
D03*
Y342449D02*
D03*
X542200Y280998D02*
D03*
Y287100D02*
D03*
X159500Y98272D02*
D03*
Y92169D02*
D03*
X159000Y278669D02*
D03*
Y284772D02*
D03*
X527270Y349051D02*
D03*
Y342949D02*
D03*
X482170Y348551D02*
D03*
Y342449D02*
D03*
X512270D02*
D03*
Y348551D02*
D03*
X224500Y55705D02*
D03*
Y61807D02*
D03*
X222500Y250689D02*
D03*
Y256791D02*
D03*
X221000Y316169D02*
D03*
Y322272D02*
D03*
X197500Y60949D02*
D03*
Y67051D02*
D03*
X194000Y327551D02*
D03*
Y321449D02*
D03*
X-12149Y128209D02*
D03*
Y122106D02*
D03*
X-23900Y128209D02*
D03*
Y122106D02*
D03*
X-18000Y128209D02*
D03*
Y122106D02*
D03*
X96000Y97051D02*
D03*
Y90949D02*
D03*
X102000D02*
D03*
Y97051D02*
D03*
Y78949D02*
D03*
Y85051D02*
D03*
D35*
X284646Y380056D02*
D03*
Y369820D02*
D03*
X292527Y380056D02*
D03*
Y369820D02*
D03*
X300407Y380056D02*
D03*
Y369820D02*
D03*
X288760Y21150D02*
D03*
Y31386D02*
D03*
X426849Y24449D02*
D03*
Y34685D02*
D03*
X115537Y356077D02*
D03*
Y366313D02*
D03*
X138962Y26477D02*
D03*
Y16241D02*
D03*
X103000Y16882D02*
D03*
Y27118D02*
D03*
D36*
X252906Y376398D02*
D03*
Y371398D02*
D03*
Y366398D02*
D03*
Y361398D02*
D03*
X231646D02*
D03*
Y366398D02*
D03*
Y371398D02*
D03*
Y376398D02*
D03*
D37*
X100000Y344094D02*
D03*
Y326772D02*
D03*
X482677Y36011D02*
D03*
Y53334D02*
D03*
X18800Y17139D02*
D03*
Y34461D02*
D03*
D38*
X82284Y321632D02*
D03*
Y333049D02*
D03*
X12205Y338779D02*
D03*
Y327362D02*
D03*
X72434Y321632D02*
D03*
Y333049D02*
D03*
X268504Y366142D02*
D03*
Y377559D02*
D03*
X436221Y23642D02*
D03*
Y35059D02*
D03*
X244760Y31976D02*
D03*
Y20559D02*
D03*
X280760Y31976D02*
D03*
Y20559D02*
D03*
X187598Y369758D02*
D03*
Y358340D02*
D03*
X124395Y355269D02*
D03*
Y366687D02*
D03*
X215748Y19146D02*
D03*
Y30563D02*
D03*
X147820Y26851D02*
D03*
Y15434D02*
D03*
X504000Y97791D02*
D03*
Y109209D02*
D03*
X504500Y51209D02*
D03*
Y39791D02*
D03*
Y69791D02*
D03*
Y81209D02*
D03*
X59000Y91433D02*
D03*
Y102850D02*
D03*
X69000Y91433D02*
D03*
Y102850D02*
D03*
X110000Y84709D02*
D03*
Y73291D02*
D03*
X40000Y77709D02*
D03*
Y66291D02*
D03*
X50000Y77709D02*
D03*
Y66291D02*
D03*
X112000Y16291D02*
D03*
Y27709D02*
D03*
D39*
X74331Y358640D02*
D03*
X42835D02*
D03*
X73748Y41000D02*
D03*
X42252D02*
D03*
D40*
X40974Y332539D02*
D03*
Y317736D02*
D03*
X76910Y67701D02*
D03*
Y82504D02*
D03*
D41*
X53431Y301096D02*
D03*
X42014D02*
D03*
X53431Y291596D02*
D03*
X42014D02*
D03*
X142693Y357120D02*
D03*
X154110D02*
D03*
X182260Y17764D02*
D03*
X170843D02*
D03*
X12135Y108739D02*
D03*
X23552D02*
D03*
X8135Y71739D02*
D03*
X19552D02*
D03*
X544109Y273300D02*
D03*
X532691D02*
D03*
X130709Y56000D02*
D03*
X119291D02*
D03*
X326661Y36900D02*
D03*
X338078D02*
D03*
D42*
X24409Y292913D02*
D03*
X34646D02*
D03*
X190433Y18898D02*
D03*
X200669D02*
D03*
X328490Y26268D02*
D03*
X338726D02*
D03*
X162284Y356385D02*
D03*
X172520D02*
D03*
X18558Y63692D02*
D03*
X8322D02*
D03*
X49118Y110000D02*
D03*
X38882D02*
D03*
D43*
X23245Y315879D02*
D03*
X25804D02*
D03*
X28363D02*
D03*
X30922D02*
D03*
X23245Y333202D02*
D03*
X25804D02*
D03*
X28363D02*
D03*
X30922D02*
D03*
X87161Y66339D02*
D03*
X89720D02*
D03*
X92279D02*
D03*
X94839D02*
D03*
X87161Y83661D02*
D03*
X89720D02*
D03*
X92279D02*
D03*
X94839D02*
D03*
D44*
X259020Y31425D02*
D03*
X262760D02*
D03*
X266500D02*
D03*
Y21110D02*
D03*
X262760D02*
D03*
X259020D02*
D03*
X19383Y85382D02*
D03*
X15643D02*
D03*
X11903D02*
D03*
X121260Y30843D02*
D03*
X125000D02*
D03*
X128740D02*
D03*
D45*
X383898Y225537D02*
D03*
X386457D02*
D03*
X389016D02*
D03*
X391576D02*
D03*
X383898Y243253D02*
D03*
X386457D02*
D03*
X389016D02*
D03*
X391576D02*
D03*
Y281565D02*
D03*
X389016D02*
D03*
X386457D02*
D03*
X383898D02*
D03*
X391576Y263848D02*
D03*
X389016D02*
D03*
X386457D02*
D03*
X383898D02*
D03*
X391576Y355206D02*
D03*
X389016D02*
D03*
X386457D02*
D03*
X383898D02*
D03*
X391576Y337489D02*
D03*
X389016D02*
D03*
X386457D02*
D03*
X383898D02*
D03*
Y75001D02*
D03*
X386457D02*
D03*
X389016D02*
D03*
X391576D02*
D03*
X383898Y92718D02*
D03*
X386457D02*
D03*
X389016D02*
D03*
X391576D02*
D03*
Y167126D02*
D03*
X389016D02*
D03*
X386457D02*
D03*
X383898D02*
D03*
X391576Y149409D02*
D03*
X389016D02*
D03*
X386457D02*
D03*
X383898D02*
D03*
Y301674D02*
D03*
X386457D02*
D03*
X389016D02*
D03*
X391576D02*
D03*
X383898Y319391D02*
D03*
X386457D02*
D03*
X389016D02*
D03*
X391576D02*
D03*
X383898Y187490D02*
D03*
X386457D02*
D03*
X389016D02*
D03*
X391576D02*
D03*
X383898Y205207D02*
D03*
X386457D02*
D03*
X389016D02*
D03*
X391576D02*
D03*
Y129250D02*
D03*
X389016D02*
D03*
X386457D02*
D03*
X383898D02*
D03*
X391576Y111534D02*
D03*
X389016D02*
D03*
X386457D02*
D03*
X383898D02*
D03*
D46*
X154138Y228748D02*
D03*
X219050Y148610D02*
D03*
X153650Y179110D02*
D03*
X154150Y111110D02*
D03*
X153650Y297610D02*
D03*
X219150Y74646D02*
D03*
X217150Y269630D02*
D03*
X215650Y335110D02*
D03*
D47*
X144787Y235638D02*
D03*
Y233669D02*
D03*
Y231701D02*
D03*
Y229732D02*
D03*
Y227764D02*
D03*
Y225795D02*
D03*
Y223827D02*
D03*
Y221858D02*
D03*
X163488Y235638D02*
D03*
Y233669D02*
D03*
Y231701D02*
D03*
Y229732D02*
D03*
Y227764D02*
D03*
Y225795D02*
D03*
Y223827D02*
D03*
Y221858D02*
D03*
X228400Y141720D02*
D03*
Y143689D02*
D03*
Y145658D02*
D03*
Y147626D02*
D03*
Y149594D02*
D03*
Y151563D02*
D03*
Y153532D02*
D03*
Y155500D02*
D03*
X209699Y141720D02*
D03*
Y143689D02*
D03*
Y145658D02*
D03*
Y147626D02*
D03*
Y149594D02*
D03*
Y151563D02*
D03*
Y153532D02*
D03*
Y155500D02*
D03*
X163000Y172221D02*
D03*
Y174189D02*
D03*
Y176157D02*
D03*
Y178126D02*
D03*
Y180095D02*
D03*
Y182063D02*
D03*
Y184031D02*
D03*
Y186000D02*
D03*
X144299Y172221D02*
D03*
Y174189D02*
D03*
Y176157D02*
D03*
Y178126D02*
D03*
Y180095D02*
D03*
Y182063D02*
D03*
Y184031D02*
D03*
Y186000D02*
D03*
X144799Y118000D02*
D03*
Y116032D02*
D03*
Y114063D02*
D03*
Y112094D02*
D03*
Y110126D02*
D03*
Y108158D02*
D03*
Y106189D02*
D03*
Y104220D02*
D03*
X163500Y118000D02*
D03*
Y116032D02*
D03*
Y114063D02*
D03*
Y112094D02*
D03*
Y110126D02*
D03*
Y108158D02*
D03*
Y106189D02*
D03*
Y104220D02*
D03*
X163000Y290721D02*
D03*
Y292689D02*
D03*
Y294657D02*
D03*
Y296626D02*
D03*
Y298594D02*
D03*
Y300563D02*
D03*
Y302532D02*
D03*
Y304500D02*
D03*
X144299Y290721D02*
D03*
Y292689D02*
D03*
Y294657D02*
D03*
Y296626D02*
D03*
Y298594D02*
D03*
Y300563D02*
D03*
Y302532D02*
D03*
Y304500D02*
D03*
X228500Y67756D02*
D03*
Y69724D02*
D03*
Y71693D02*
D03*
Y73661D02*
D03*
Y75630D02*
D03*
Y77598D02*
D03*
Y79567D02*
D03*
Y81535D02*
D03*
X209799Y67756D02*
D03*
Y69724D02*
D03*
Y71693D02*
D03*
Y73661D02*
D03*
Y75630D02*
D03*
Y77598D02*
D03*
Y79567D02*
D03*
Y81535D02*
D03*
X226500Y262740D02*
D03*
Y264709D02*
D03*
Y266677D02*
D03*
Y268646D02*
D03*
Y270614D02*
D03*
Y272583D02*
D03*
Y274551D02*
D03*
Y276520D02*
D03*
X207799Y262740D02*
D03*
Y264709D02*
D03*
Y266677D02*
D03*
Y268646D02*
D03*
Y270614D02*
D03*
Y272583D02*
D03*
Y274551D02*
D03*
Y276520D02*
D03*
X225000Y328221D02*
D03*
Y330189D02*
D03*
Y332157D02*
D03*
Y334126D02*
D03*
Y336094D02*
D03*
Y338063D02*
D03*
Y340032D02*
D03*
Y342000D02*
D03*
X206299Y328221D02*
D03*
Y330189D02*
D03*
Y332157D02*
D03*
Y334126D02*
D03*
Y336094D02*
D03*
Y338063D02*
D03*
Y340032D02*
D03*
Y342000D02*
D03*
D48*
X424662Y285168D02*
D03*
Y275955D02*
D03*
Y349596D02*
D03*
Y358809D02*
D03*
Y313510D02*
D03*
Y322722D02*
D03*
Y237372D02*
D03*
Y246585D02*
D03*
Y199597D02*
D03*
Y208810D02*
D03*
Y161245D02*
D03*
Y170457D02*
D03*
Y123641D02*
D03*
Y132854D02*
D03*
Y86837D02*
D03*
Y96049D02*
D03*
Y343627D02*
D03*
Y334414D02*
D03*
Y307612D02*
D03*
Y298399D02*
D03*
Y269986D02*
D03*
Y260773D02*
D03*
Y231475D02*
D03*
Y222262D02*
D03*
Y193628D02*
D03*
Y184415D02*
D03*
Y155347D02*
D03*
Y146135D02*
D03*
Y117672D02*
D03*
Y108459D02*
D03*
Y80939D02*
D03*
Y71727D02*
D03*
D49*
X406837Y278612D02*
D03*
Y266801D02*
D03*
Y352253D02*
D03*
Y340442D02*
D03*
Y77954D02*
D03*
Y89765D02*
D03*
Y152362D02*
D03*
Y164173D02*
D03*
Y240301D02*
D03*
Y228490D02*
D03*
Y304627D02*
D03*
Y316438D02*
D03*
Y202254D02*
D03*
Y190443D02*
D03*
Y114487D02*
D03*
Y126298D02*
D03*
D50*
X306419Y263946D02*
D03*
Y281466D02*
D03*
X303860D02*
D03*
X301301D02*
D03*
X298742D02*
D03*
X303860Y263946D02*
D03*
X301301D02*
D03*
X298742D02*
D03*
Y337588D02*
D03*
X301301D02*
D03*
X303860D02*
D03*
X298742Y355107D02*
D03*
X301301D02*
D03*
X303860D02*
D03*
X306419D02*
D03*
Y337588D02*
D03*
X337446Y301773D02*
D03*
Y319292D02*
D03*
X334887D02*
D03*
X332328D02*
D03*
X329769D02*
D03*
X334887Y301773D02*
D03*
X332328D02*
D03*
X329769D02*
D03*
X337446Y225635D02*
D03*
Y243155D02*
D03*
X334887D02*
D03*
X332328D02*
D03*
X329769D02*
D03*
X334887Y225635D02*
D03*
X332328D02*
D03*
X329769D02*
D03*
X306419Y187589D02*
D03*
Y205108D02*
D03*
X303860D02*
D03*
X301301D02*
D03*
X298742D02*
D03*
X303860Y187589D02*
D03*
X301301D02*
D03*
X298742D02*
D03*
X337446Y149508D02*
D03*
Y167028D02*
D03*
X334887D02*
D03*
X332328D02*
D03*
X329769D02*
D03*
X334887Y149508D02*
D03*
X332328D02*
D03*
X329769D02*
D03*
X298742Y111632D02*
D03*
X301301D02*
D03*
X303860D02*
D03*
X298742Y129152D02*
D03*
X301301D02*
D03*
X303860D02*
D03*
X306419D02*
D03*
Y111632D02*
D03*
X329769Y75100D02*
D03*
X332328D02*
D03*
X334887D02*
D03*
X329769Y92619D02*
D03*
X332328D02*
D03*
X334887D02*
D03*
X337446D02*
D03*
Y75100D02*
D03*
D51*
X214984Y321945D02*
D03*
Y313945D02*
D03*
X218384Y53480D02*
D03*
Y61480D02*
D03*
Y127445D02*
D03*
Y135445D02*
D03*
X153472Y207583D02*
D03*
Y215583D02*
D03*
X152984Y157945D02*
D03*
Y165945D02*
D03*
X153384Y89945D02*
D03*
Y97945D02*
D03*
X152884Y276445D02*
D03*
Y284445D02*
D03*
X216384Y248465D02*
D03*
Y256465D02*
D03*
D52*
X171639Y30296D02*
D03*
X148214Y369488D02*
D03*
D53*
X163372Y34135D02*
D03*
Y31576D02*
D03*
Y29017D02*
D03*
Y26458D02*
D03*
X179907Y34135D02*
D03*
Y31576D02*
D03*
Y29017D02*
D03*
Y26458D02*
D03*
X139946Y373327D02*
D03*
Y370768D02*
D03*
Y368209D02*
D03*
Y365650D02*
D03*
X156482Y373327D02*
D03*
Y370768D02*
D03*
Y368209D02*
D03*
Y365650D02*
D03*
D54*
X449961Y33661D02*
D03*
Y29921D02*
D03*
Y26181D02*
D03*
D55*
X460276D02*
D03*
Y33661D02*
D03*
D56*
X520854Y20326D02*
D03*
Y26625D02*
D03*
X497270Y360650D02*
D03*
Y354350D02*
D03*
X482170Y360650D02*
D03*
Y354350D02*
D03*
X512270D02*
D03*
Y360650D02*
D03*
X527270D02*
D03*
Y354350D02*
D03*
D57*
X240900Y133579D02*
D03*
X232900D02*
D03*
X175988Y213717D02*
D03*
X167988D02*
D03*
X175500Y164079D02*
D03*
X167500D02*
D03*
X237500Y320079D02*
D03*
X229500D02*
D03*
X175400Y282610D02*
D03*
X167400D02*
D03*
X238900Y254630D02*
D03*
X230900D02*
D03*
X175900Y96110D02*
D03*
X167900D02*
D03*
X240900Y59646D02*
D03*
X232900D02*
D03*
D58*
X11903Y95697D02*
D03*
X19383D02*
D03*
X128740Y41157D02*
D03*
X121260D02*
D03*
M02*
