M48
;Layer_Color=9474304
;FILE_FORMAT=2:5
INCH,TZ
;TYPE=PLATED
T1F00S00C0.01181
T2F00S00C0.03150
T3F00S00C0.04016
T4F00S00C0.04331
T5F00S00C0.05118
T6F00S00C0.06299
T7F00S00C0.06300
;TYPE=NON_PLATED
T8F00S00C0.13386
%
T01
X50000Y30000
X55000Y40000
X45000
X50000Y50000
X60000
X70000
X80000
X85000Y40000
X95000
X105000
X115000
X120000Y50000
X110000
Y30000
X120000
X100000
X90000
X80000
X70000
X60000
X65000Y40000
X75000
X228332Y176817
X259723Y167754
X314985Y198961
X324755Y193368
X159670Y105509
X110000Y70000
X100000
X90000
X80000
X70000
X75000Y60000
X85000
X95000
X105000
X115000
X97500Y79700
X87700
X65000Y60000
X55000
X45000
X50000Y70000
X40000Y330000
X45000Y340000
X40000Y350000
X79849Y347039
X80000Y330000
X85000Y320000
X95000
X105000
X115000
X125000
X130000Y330000
X125000Y340000
X110000Y350000
X100000
X75000Y320000
X70000Y310000
X59344Y313178
X59100Y323372
X65000Y300000
X70000Y290000
X60000
X65000Y280000
X75000
X228300Y215761
X260921Y223551
X267372
X296258Y216992
T02
X64300Y67210
Y80990
X82920Y195700
X96700
X102000Y272500
X115779
T03
X362523Y190955
Y200955
T04
X362424Y134277
X184300Y156600
Y234100
X362424Y256700
T05
X202700Y44500
X227700
X47200Y183800
Y208800
T06
X374747Y121954
Y146600
X350102
Y121954
X196623Y144277
Y168923
X171977
Y144277
Y221777
Y246423
X196623
Y221777
X350102Y244377
Y269023
X374747
Y244377
T07
X142500Y48970
X249544Y167752
X279498Y167735
X191510Y92551
X98640Y123476
X60741Y128380
X46200Y97700
X38800Y301400
X147601Y284533
X249300Y223600
X288958Y247701
T08
X9200Y9200
X383800
Y383800
X9200
M30
