G04*
G04 #@! TF.GenerationSoftware,Altium Limited,Altium Designer,19.1.9 (167)*
G04*
G04 Layer_Physical_Order=3*
G04 Layer_Color=16440176*
%FSLAX25Y25*%
%MOIN*%
G70*
G01*
G75*
%ADD16C,0.01000*%
%ADD83C,0.03000*%
%ADD87C,0.05512*%
%ADD92C,0.02362*%
G36*
X553630Y254477D02*
X553130Y254403D01*
X552768Y255596D01*
X552141Y256769D01*
X551298Y257798D01*
X550269Y258641D01*
X549096Y259268D01*
X547824Y259654D01*
X546500Y259785D01*
X545176Y259654D01*
X543904Y259268D01*
X542731Y258641D01*
X541703Y257798D01*
X540859Y256769D01*
X540232Y255596D01*
X539846Y254324D01*
X539715Y253000D01*
X539846Y251676D01*
X540232Y250404D01*
X540859Y249231D01*
X541703Y248202D01*
X542731Y247359D01*
X543904Y246732D01*
X545176Y246346D01*
X546500Y246215D01*
X547824Y246346D01*
X549096Y246732D01*
X550269Y247359D01*
X551298Y248202D01*
X552141Y249231D01*
X552768Y250404D01*
X553130Y251597D01*
X553630Y251523D01*
Y142477D01*
X553130Y142403D01*
X552768Y143596D01*
X552141Y144769D01*
X551298Y145798D01*
X550269Y146641D01*
X549096Y147268D01*
X547824Y147654D01*
X546500Y147785D01*
X545176Y147654D01*
X543904Y147268D01*
X542731Y146641D01*
X541703Y145798D01*
X540859Y144769D01*
X540232Y143596D01*
X539846Y142324D01*
X539715Y141000D01*
X539846Y139676D01*
X540232Y138404D01*
X540859Y137231D01*
X541703Y136203D01*
X542731Y135359D01*
X543904Y134732D01*
X545176Y134346D01*
X546500Y134215D01*
X547824Y134346D01*
X549096Y134732D01*
X550269Y135359D01*
X551298Y136203D01*
X552141Y137231D01*
X552768Y138404D01*
X553130Y139597D01*
X553630Y139523D01*
Y115500D01*
X516500D01*
Y2039D01*
X8100D01*
X8087Y2037D01*
X8074Y2039D01*
X7487Y2032D01*
X6333Y2246D01*
X5242Y2682D01*
X4258Y3322D01*
X3417Y4142D01*
X2753Y5110D01*
X2290Y6190D01*
X2046Y7338D01*
X2039Y7913D01*
Y115437D01*
X1884Y116217D01*
X1442Y116879D01*
X780Y117321D01*
X-0Y117476D01*
X-16617D01*
X-16744Y117667D01*
X-16838Y117976D01*
X-16554Y118401D01*
X-16434Y119000D01*
X-16554Y119599D01*
X-16893Y120107D01*
X-17401Y120446D01*
X-18000Y120565D01*
X-18599Y120446D01*
X-19107Y120107D01*
X-19446Y119599D01*
X-19566Y119000D01*
X-19446Y118401D01*
X-19162Y117976D01*
X-19256Y117667D01*
X-19383Y117476D01*
X-23933D01*
X-23983Y117466D01*
X-24033Y117474D01*
X-24419Y117455D01*
X-24566Y117418D01*
X-24717D01*
X-25474Y117267D01*
X-25659Y117191D01*
X-25856Y117151D01*
X-26569Y116856D01*
X-26736Y116744D01*
X-26922Y116668D01*
X-27564Y116239D01*
X-27706Y116097D01*
X-27873Y115985D01*
X-28418Y115439D01*
X-28530Y115272D01*
X-28672Y115130D01*
X-29101Y114489D01*
X-29178Y114303D01*
X-29289Y114136D01*
X-29585Y113423D01*
X-29624Y113226D01*
X-29700Y113041D01*
X-29851Y112284D01*
Y112133D01*
X-29888Y111986D01*
X-29907Y111600D01*
X-29899Y111550D01*
X-29909Y111500D01*
Y109602D01*
X-32838D01*
Y121343D01*
X-32848Y121392D01*
X-32841Y121443D01*
X-32860Y121828D01*
X-32896Y121975D01*
Y122126D01*
X-33047Y122883D01*
X-33124Y123069D01*
X-33163Y123266D01*
X-33458Y123979D01*
X-33570Y124146D01*
X-33647Y124331D01*
X-34076Y124973D01*
X-34218Y125115D01*
X-34329Y125282D01*
X-34875Y125828D01*
X-35042Y125939D01*
X-35184Y126081D01*
X-35826Y126510D01*
X-36011Y126587D01*
X-36178Y126699D01*
X-36891Y126994D01*
X-37088Y127033D01*
X-37274Y127110D01*
X-38031Y127260D01*
X-38182D01*
X-38328Y127297D01*
X-38714Y127316D01*
X-38765Y127309D01*
X-38814Y127319D01*
X-54000D01*
Y183969D01*
X-43585D01*
X-43318Y183469D01*
X-43446Y183276D01*
X-43565Y182677D01*
X-43446Y182078D01*
X-43107Y181570D01*
X-42599Y181231D01*
X-42000Y181112D01*
X-41401Y181231D01*
X-40893Y181570D01*
X-40554Y182078D01*
X-40435Y182677D01*
X-40554Y183276D01*
X-40682Y183469D01*
X-40415Y183969D01*
X-38028D01*
X-37961Y183982D01*
X-37894Y183973D01*
X-37278Y184013D01*
X-37084Y184065D01*
X-36883Y184079D01*
X-35692Y184398D01*
X-35453Y184516D01*
X-35200Y184602D01*
X-34132Y185218D01*
X-33931Y185394D01*
X-33710Y185542D01*
X-32838Y186414D01*
X-32689Y186636D01*
X-32513Y186837D01*
X-31897Y187905D01*
X-31811Y188157D01*
X-31693Y188397D01*
X-31374Y189588D01*
X-31356Y189854D01*
X-31304Y190116D01*
Y191349D01*
X-31356Y191611D01*
X-31374Y191877D01*
X-31693Y193068D01*
X-31811Y193307D01*
X-31897Y193560D01*
X-32513Y194628D01*
X-32689Y194828D01*
X-32838Y195050D01*
X-33710Y195922D01*
X-33931Y196071D01*
X-34132Y196246D01*
X-35200Y196863D01*
X-35453Y196949D01*
X-35692Y197067D01*
X-36883Y197386D01*
X-37084Y197399D01*
X-37278Y197451D01*
X-37894Y197492D01*
X-37961Y197483D01*
X-38028Y197496D01*
X-54000D01*
Y266744D01*
X-38814D01*
X-38765Y266754D01*
X-38714Y266747D01*
X-38328Y266766D01*
X-38182Y266803D01*
X-38031D01*
X-37274Y266953D01*
X-37088Y267030D01*
X-36891Y267069D01*
X-36178Y267364D01*
X-36011Y267476D01*
X-35826Y267553D01*
X-35184Y267982D01*
X-35042Y268124D01*
X-34875Y268235D01*
X-34329Y268781D01*
X-34218Y268948D01*
X-34076Y269090D01*
X-33647Y269732D01*
X-33570Y269917D01*
X-33458Y270084D01*
X-33163Y270797D01*
X-33124Y270994D01*
X-33047Y271180D01*
X-32896Y271937D01*
Y272088D01*
X-32860Y272235D01*
X-32841Y272620D01*
X-32848Y272671D01*
X-32838Y272721D01*
Y284461D01*
X-29909D01*
Y282563D01*
X-29899Y282513D01*
X-29907Y282463D01*
X-29888Y282077D01*
X-29851Y281930D01*
Y281779D01*
X-29700Y281022D01*
X-29624Y280837D01*
X-29585Y280640D01*
X-29289Y279927D01*
X-29177Y279760D01*
X-29101Y279574D01*
X-28672Y278932D01*
X-28530Y278790D01*
X-28418Y278624D01*
X-27873Y278078D01*
X-27706Y277966D01*
X-27564Y277824D01*
X-26922Y277395D01*
X-26736Y277319D01*
X-26569Y277207D01*
X-25856Y276912D01*
X-25659Y276872D01*
X-25474Y276796D01*
X-24717Y276645D01*
X-24566D01*
X-24419Y276608D01*
X-24033Y276589D01*
X-23983Y276597D01*
X-23933Y276587D01*
X-0D01*
X780Y276742D01*
X1442Y277184D01*
X2106D01*
X59261D01*
X59800Y276645D01*
X119900Y336745D01*
Y356662D01*
X120499Y356781D01*
X121007Y357120D01*
X121346Y357628D01*
X121466Y358227D01*
X121346Y358826D01*
X121007Y359334D01*
X120499Y359673D01*
X119900Y359793D01*
Y391662D01*
X553630D01*
Y254477D01*
D02*
G37*
%LPC*%
G36*
X543307Y379129D02*
X541926Y378993D01*
X540597Y378590D01*
X539373Y377935D01*
X538300Y377055D01*
X537419Y375981D01*
X536765Y374757D01*
X536362Y373429D01*
X536226Y372047D01*
X536362Y370666D01*
X536765Y369337D01*
X537419Y368113D01*
X538300Y367040D01*
X539373Y366159D01*
X540597Y365505D01*
X541926Y365102D01*
X543307Y364966D01*
X544689Y365102D01*
X546017Y365505D01*
X547241Y366159D01*
X548314Y367040D01*
X549195Y368113D01*
X549849Y369337D01*
X550252Y370666D01*
X550388Y372047D01*
X550252Y373429D01*
X549849Y374757D01*
X549195Y375981D01*
X548314Y377055D01*
X547241Y377935D01*
X546017Y378590D01*
X544689Y378993D01*
X543307Y379129D01*
D02*
G37*
G36*
X442800Y364304D02*
X442316Y364208D01*
X441906Y363934D01*
X441632Y363524D01*
X441536Y363040D01*
X441632Y362556D01*
X441906Y362146D01*
X442316Y361872D01*
X442800Y361775D01*
X443284Y361872D01*
X443694Y362146D01*
X443968Y362556D01*
X444065Y363040D01*
X443968Y363524D01*
X443694Y363934D01*
X443284Y364208D01*
X442800Y364304D01*
D02*
G37*
G36*
X487900Y364264D02*
X487416Y364168D01*
X487006Y363894D01*
X486732Y363484D01*
X486635Y363000D01*
X486732Y362516D01*
X487006Y362106D01*
X487416Y361832D01*
X487900Y361736D01*
X488384Y361832D01*
X488794Y362106D01*
X489068Y362516D01*
X489164Y363000D01*
X489068Y363484D01*
X488794Y363894D01*
X488384Y364168D01*
X487900Y364264D01*
D02*
G37*
G36*
X472900D02*
X472416Y364168D01*
X472006Y363894D01*
X471732Y363484D01*
X471635Y363000D01*
X471732Y362516D01*
X472006Y362106D01*
X472416Y361832D01*
X472900Y361736D01*
X473384Y361832D01*
X473794Y362106D01*
X474068Y362516D01*
X474164Y363000D01*
X474068Y363484D01*
X473794Y363894D01*
X473384Y364168D01*
X472900Y364264D01*
D02*
G37*
G36*
X461200Y355916D02*
X460601Y355797D01*
X460093Y355457D01*
X459754Y354949D01*
X459634Y354350D01*
X459754Y353751D01*
X460093Y353243D01*
X460601Y352904D01*
X461200Y352785D01*
X461799Y352904D01*
X462307Y353243D01*
X462646Y353751D01*
X462766Y354350D01*
X462646Y354949D01*
X462307Y355457D01*
X461799Y355797D01*
X461200Y355916D01*
D02*
G37*
G36*
X260000Y351065D02*
X259401Y350946D01*
X258893Y350607D01*
X258554Y350099D01*
X258435Y349500D01*
X258554Y348901D01*
X258893Y348393D01*
X259401Y348054D01*
X260000Y347935D01*
X260599Y348054D01*
X261107Y348393D01*
X261446Y348901D01*
X261565Y349500D01*
X261446Y350099D01*
X261107Y350607D01*
X260599Y350946D01*
X260000Y351065D01*
D02*
G37*
G36*
X198500Y348566D02*
X197901Y348446D01*
X197393Y348107D01*
X197054Y347599D01*
X196934Y347000D01*
X197054Y346401D01*
X197393Y345893D01*
X197901Y345554D01*
X198500Y345434D01*
X199099Y345554D01*
X199607Y345893D01*
X199946Y346401D01*
X200065Y347000D01*
X199946Y347599D01*
X199607Y348107D01*
X199099Y348446D01*
X198500Y348566D01*
D02*
G37*
G36*
X457900Y346566D02*
X457301Y346446D01*
X456793Y346107D01*
X456454Y345599D01*
X456334Y345000D01*
X456454Y344401D01*
X456793Y343893D01*
X457301Y343554D01*
X457900Y343435D01*
X458499Y343554D01*
X459007Y343893D01*
X459346Y344401D01*
X459466Y345000D01*
X459346Y345599D01*
X459007Y346107D01*
X458499Y346446D01*
X457900Y346566D01*
D02*
G37*
G36*
X225000Y346065D02*
X224401Y345946D01*
X223893Y345607D01*
X223554Y345099D01*
X223434Y344500D01*
X223554Y343901D01*
X223893Y343393D01*
X224401Y343054D01*
X225000Y342934D01*
X225599Y343054D01*
X226107Y343393D01*
X226446Y343901D01*
X226566Y344500D01*
X226446Y345099D01*
X226107Y345607D01*
X225599Y345946D01*
X225000Y346065D01*
D02*
G37*
G36*
X206000D02*
X205401Y345946D01*
X204893Y345607D01*
X204554Y345099D01*
X204434Y344500D01*
X204554Y343901D01*
X204893Y343393D01*
X205401Y343054D01*
X206000Y342934D01*
X206599Y343054D01*
X207107Y343393D01*
X207446Y343901D01*
X207565Y344500D01*
X207446Y345099D01*
X207107Y345607D01*
X206599Y345946D01*
X206000Y346065D01*
D02*
G37*
G36*
X484700Y344465D02*
X484101Y344346D01*
X483593Y344007D01*
X483254Y343499D01*
X483135Y342900D01*
X483254Y342301D01*
X483593Y341793D01*
X484101Y341454D01*
X484700Y341335D01*
X485299Y341454D01*
X485807Y341793D01*
X486146Y342301D01*
X486266Y342900D01*
X486146Y343499D01*
X485807Y344007D01*
X485299Y344346D01*
X484700Y344465D01*
D02*
G37*
G36*
X265600Y342865D02*
X265001Y342746D01*
X264493Y342407D01*
X264154Y341899D01*
X264035Y341300D01*
X264154Y340701D01*
X264493Y340193D01*
X265001Y339854D01*
X265600Y339735D01*
X266199Y339854D01*
X266707Y340193D01*
X267046Y340701D01*
X267165Y341300D01*
X267046Y341899D01*
X266707Y342407D01*
X266199Y342746D01*
X265600Y342865D01*
D02*
G37*
G36*
X195000Y340066D02*
X194401Y339946D01*
X193893Y339607D01*
X193554Y339099D01*
X193435Y338500D01*
X193554Y337901D01*
X193893Y337393D01*
X194401Y337054D01*
X195000Y336934D01*
X195599Y337054D01*
X196107Y337393D01*
X196446Y337901D01*
X196565Y338500D01*
X196446Y339099D01*
X196107Y339607D01*
X195599Y339946D01*
X195000Y340066D01*
D02*
G37*
G36*
X202425Y339991D02*
X201826Y339872D01*
X201318Y339532D01*
X200979Y339024D01*
X200860Y338425D01*
X200979Y337826D01*
X201318Y337318D01*
X201826Y336979D01*
X202425Y336860D01*
X203024Y336979D01*
X203532Y337318D01*
X203871Y337826D01*
X203991Y338425D01*
X203871Y339024D01*
X203532Y339532D01*
X203024Y339872D01*
X202425Y339991D01*
D02*
G37*
G36*
X266900Y337666D02*
X266301Y337546D01*
X265793Y337207D01*
X265454Y336699D01*
X265335Y336100D01*
X265454Y335501D01*
X265793Y334993D01*
X266301Y334654D01*
X266900Y334535D01*
X267499Y334654D01*
X268007Y334993D01*
X268346Y335501D01*
X268465Y336100D01*
X268346Y336699D01*
X268007Y337207D01*
X267499Y337546D01*
X266900Y337666D01*
D02*
G37*
G36*
X260000Y334066D02*
X259401Y333946D01*
X258893Y333607D01*
X258554Y333099D01*
X258435Y332500D01*
X258554Y331901D01*
X258893Y331393D01*
X259401Y331054D01*
X260000Y330935D01*
X260599Y331054D01*
X261107Y331393D01*
X261446Y331901D01*
X261565Y332500D01*
X261446Y333099D01*
X261107Y333607D01*
X260599Y333946D01*
X260000Y334066D01*
D02*
G37*
G36*
X219100Y340900D02*
X212200D01*
Y339846D01*
X212120Y339441D01*
X212200Y339036D01*
Y335515D01*
X212120Y335110D01*
X212200Y334705D01*
Y331185D01*
X212120Y330780D01*
X212200Y330375D01*
Y329300D01*
X219100D01*
Y330379D01*
X219180Y330780D01*
X219100Y331181D01*
Y334709D01*
X219180Y335110D01*
X219100Y335511D01*
Y339040D01*
X219180Y339441D01*
X219100Y339842D01*
Y340900D01*
D02*
G37*
G36*
X238000Y330566D02*
X237401Y330446D01*
X236893Y330107D01*
X236554Y329599D01*
X236435Y329000D01*
X236554Y328401D01*
X236893Y327893D01*
X237401Y327554D01*
X238000Y327434D01*
X238599Y327554D01*
X239107Y327893D01*
X239446Y328401D01*
X239565Y329000D01*
X239446Y329599D01*
X239107Y330107D01*
X238599Y330446D01*
X238000Y330566D01*
D02*
G37*
G36*
X225000Y327566D02*
X224401Y327446D01*
X223893Y327107D01*
X223554Y326599D01*
X223434Y326000D01*
X223554Y325401D01*
X223893Y324893D01*
X224401Y324554D01*
X225000Y324434D01*
X225599Y324554D01*
X226107Y324893D01*
X226446Y325401D01*
X226566Y326000D01*
X226446Y326599D01*
X226107Y327107D01*
X225599Y327446D01*
X225000Y327566D01*
D02*
G37*
G36*
X458000Y323966D02*
X457401Y323846D01*
X456893Y323507D01*
X456554Y322999D01*
X456434Y322400D01*
X456554Y321801D01*
X456893Y321293D01*
X457401Y320954D01*
X458000Y320834D01*
X458599Y320954D01*
X459107Y321293D01*
X459446Y321801D01*
X459565Y322400D01*
X459446Y322999D01*
X459107Y323507D01*
X458599Y323846D01*
X458000Y323966D01*
D02*
G37*
G36*
X228500Y321566D02*
X227901Y321446D01*
X227393Y321107D01*
X227054Y320599D01*
X226935Y320000D01*
X227054Y319401D01*
X227393Y318893D01*
X227901Y318554D01*
X228500Y318435D01*
X229099Y318554D01*
X229607Y318893D01*
X229946Y319401D01*
X230065Y320000D01*
X229946Y320599D01*
X229607Y321107D01*
X229099Y321446D01*
X228500Y321566D01*
D02*
G37*
G36*
X384100Y323136D02*
X383237Y323022D01*
X382432Y322689D01*
X381741Y322159D01*
X381211Y321468D01*
X380878Y320663D01*
X380764Y319800D01*
X380878Y318937D01*
X381211Y318132D01*
X381741Y317441D01*
X382432Y316911D01*
X383237Y316578D01*
X384100Y316464D01*
X384963Y316578D01*
X385768Y316911D01*
X386459Y317441D01*
X386989Y318132D01*
X387322Y318937D01*
X387436Y319800D01*
X387322Y320663D01*
X386989Y321468D01*
X386459Y322159D01*
X385768Y322689D01*
X384963Y323022D01*
X384100Y323136D01*
D02*
G37*
G36*
X374100D02*
X373237Y323022D01*
X372432Y322689D01*
X371741Y322159D01*
X371211Y321468D01*
X370878Y320663D01*
X370764Y319800D01*
X370878Y318937D01*
X371211Y318132D01*
X371741Y317441D01*
X372432Y316911D01*
X373237Y316578D01*
X374100Y316464D01*
X374963Y316578D01*
X375768Y316911D01*
X376459Y317441D01*
X376989Y318132D01*
X377322Y318937D01*
X377436Y319800D01*
X377322Y320663D01*
X376989Y321468D01*
X376459Y322159D01*
X375768Y322689D01*
X374963Y323022D01*
X374100Y323136D01*
D02*
G37*
G36*
X140900Y318366D02*
X140301Y318246D01*
X139793Y317907D01*
X139454Y317399D01*
X139334Y316800D01*
X139454Y316201D01*
X139793Y315693D01*
X140301Y315354D01*
X140900Y315234D01*
X141499Y315354D01*
X142007Y315693D01*
X142105Y315840D01*
X142131Y315849D01*
X142684Y315806D01*
X142893Y315493D01*
X143401Y315154D01*
X144000Y315035D01*
X144599Y315154D01*
X145107Y315493D01*
X145446Y316001D01*
X145565Y316600D01*
X145446Y317199D01*
X145107Y317707D01*
X144599Y318046D01*
X144000Y318165D01*
X143401Y318046D01*
X142893Y317707D01*
X142795Y317560D01*
X142769Y317550D01*
X142216Y317594D01*
X142007Y317907D01*
X141499Y318246D01*
X140900Y318366D01*
D02*
G37*
G36*
X224000Y317565D02*
X223401Y317446D01*
X222893Y317107D01*
X222554Y316599D01*
X222434Y316000D01*
X222554Y315401D01*
X222893Y314893D01*
X223401Y314554D01*
X224000Y314435D01*
X224599Y314554D01*
X225107Y314893D01*
X225446Y315401D01*
X225566Y316000D01*
X225446Y316599D01*
X225107Y317107D01*
X224599Y317446D01*
X224000Y317565D01*
D02*
G37*
G36*
X197500Y314066D02*
X196901Y313946D01*
X196393Y313607D01*
X196054Y313099D01*
X195934Y312500D01*
X196054Y311901D01*
X196393Y311393D01*
X196901Y311054D01*
X197500Y310934D01*
X198099Y311054D01*
X198607Y311393D01*
X198946Y311901D01*
X199065Y312500D01*
X198946Y313099D01*
X198607Y313607D01*
X198099Y313946D01*
X197500Y314066D01*
D02*
G37*
G36*
X377407Y313107D02*
X370793D01*
Y306493D01*
X377407D01*
Y313107D01*
D02*
G37*
G36*
X384100Y313136D02*
X383237Y313022D01*
X382432Y312689D01*
X381741Y312159D01*
X381211Y311468D01*
X380878Y310663D01*
X380764Y309800D01*
X380878Y308937D01*
X381211Y308132D01*
X381741Y307441D01*
X382432Y306911D01*
X383237Y306578D01*
X384100Y306464D01*
X384963Y306578D01*
X385768Y306911D01*
X386459Y307441D01*
X386989Y308132D01*
X387322Y308937D01*
X387436Y309800D01*
X387322Y310663D01*
X386989Y311468D01*
X386459Y312159D01*
X385768Y312689D01*
X384963Y313022D01*
X384100Y313136D01*
D02*
G37*
G36*
X143200Y308665D02*
X142601Y308546D01*
X142093Y308207D01*
X141754Y307699D01*
X141635Y307100D01*
X141754Y306501D01*
X142093Y305993D01*
X142601Y305654D01*
X143200Y305535D01*
X143799Y305654D01*
X144307Y305993D01*
X144646Y306501D01*
X144765Y307100D01*
X144646Y307699D01*
X144307Y308207D01*
X143799Y308546D01*
X143200Y308665D01*
D02*
G37*
G36*
X163000Y308565D02*
X162401Y308446D01*
X161893Y308107D01*
X161554Y307599D01*
X161434Y307000D01*
X161554Y306401D01*
X161893Y305893D01*
X162401Y305554D01*
X163000Y305434D01*
X163599Y305554D01*
X164107Y305893D01*
X164446Y306401D01*
X164566Y307000D01*
X164446Y307599D01*
X164107Y308107D01*
X163599Y308446D01*
X163000Y308565D01*
D02*
G37*
G36*
X139500D02*
X138901Y308446D01*
X138393Y308107D01*
X138054Y307599D01*
X137935Y307000D01*
X138054Y306401D01*
X138393Y305893D01*
X138901Y305554D01*
X139500Y305434D01*
X140099Y305554D01*
X140607Y305893D01*
X140946Y306401D01*
X141066Y307000D01*
X140946Y307599D01*
X140607Y308107D01*
X140099Y308446D01*
X139500Y308565D01*
D02*
G37*
G36*
X258000Y306066D02*
X257401Y305946D01*
X256893Y305607D01*
X256554Y305099D01*
X256434Y304500D01*
X256554Y303901D01*
X256893Y303393D01*
X257401Y303054D01*
X258000Y302935D01*
X258599Y303054D01*
X259107Y303393D01*
X259446Y303901D01*
X259565Y304500D01*
X259446Y305099D01*
X259107Y305607D01*
X258599Y305946D01*
X258000Y306066D01*
D02*
G37*
G36*
X462400Y303766D02*
X461801Y303646D01*
X461293Y303307D01*
X460954Y302799D01*
X460835Y302200D01*
X460954Y301601D01*
X461293Y301093D01*
X461801Y300754D01*
X462400Y300635D01*
X462999Y300754D01*
X463507Y301093D01*
X463846Y301601D01*
X463966Y302200D01*
X463846Y302799D01*
X463507Y303307D01*
X462999Y303646D01*
X462400Y303766D01*
D02*
G37*
G36*
X466800Y303266D02*
X466201Y303146D01*
X465693Y302807D01*
X465354Y302299D01*
X465235Y301700D01*
X465354Y301101D01*
X465693Y300593D01*
X466201Y300254D01*
X466800Y300134D01*
X467399Y300254D01*
X467907Y300593D01*
X468246Y301101D01*
X468365Y301700D01*
X468246Y302299D01*
X467907Y302807D01*
X467399Y303146D01*
X466800Y303266D01*
D02*
G37*
G36*
X140000Y302566D02*
X139401Y302446D01*
X138893Y302107D01*
X138554Y301599D01*
X138435Y301000D01*
X138554Y300401D01*
X138893Y299893D01*
X139401Y299554D01*
X140000Y299434D01*
X140599Y299554D01*
X141107Y299893D01*
X141446Y300401D01*
X141566Y301000D01*
X141446Y301599D01*
X141107Y302107D01*
X140599Y302446D01*
X140000Y302566D01*
D02*
G37*
G36*
X403000Y302065D02*
X402401Y301946D01*
X401893Y301607D01*
X401554Y301099D01*
X401435Y300500D01*
X401554Y299901D01*
X401893Y299393D01*
X402401Y299054D01*
X403000Y298935D01*
X403599Y299054D01*
X404107Y299393D01*
X404446Y299901D01*
X404565Y300500D01*
X404446Y301099D01*
X404107Y301607D01*
X403599Y301946D01*
X403000Y302065D01*
D02*
G37*
G36*
X133000D02*
X132401Y301946D01*
X131893Y301607D01*
X131554Y301099D01*
X131435Y300500D01*
X131554Y299901D01*
X131893Y299393D01*
X132401Y299054D01*
X133000Y298935D01*
X133599Y299054D01*
X134107Y299393D01*
X134446Y299901D01*
X134565Y300500D01*
X134446Y301099D01*
X134107Y301607D01*
X133599Y301946D01*
X133000Y302065D01*
D02*
G37*
G36*
X260800Y300266D02*
X260201Y300146D01*
X259693Y299807D01*
X259354Y299299D01*
X259234Y298700D01*
X259354Y298101D01*
X259693Y297593D01*
X260201Y297254D01*
X260800Y297134D01*
X261399Y297254D01*
X261907Y297593D01*
X262246Y298101D01*
X262366Y298700D01*
X262246Y299299D01*
X261907Y299807D01*
X261399Y300146D01*
X260800Y300266D01*
D02*
G37*
G36*
X197500Y296065D02*
X196901Y295946D01*
X196393Y295607D01*
X196054Y295099D01*
X195934Y294500D01*
X196054Y293901D01*
X196393Y293393D01*
X196901Y293054D01*
X197500Y292934D01*
X198099Y293054D01*
X198607Y293393D01*
X198946Y293901D01*
X199065Y294500D01*
X198946Y295099D01*
X198607Y295607D01*
X198099Y295946D01*
X197500Y296065D01*
D02*
G37*
G36*
X157100Y303400D02*
X150200D01*
Y302346D01*
X150119Y301941D01*
X150200Y301536D01*
Y298015D01*
X150119Y297610D01*
X150200Y297205D01*
Y293685D01*
X150119Y293280D01*
X150200Y292875D01*
Y291800D01*
X157100D01*
Y292879D01*
X157180Y293280D01*
X157100Y293681D01*
Y297209D01*
X157180Y297610D01*
X157100Y298011D01*
Y301540D01*
X157180Y301941D01*
X157100Y302342D01*
Y303400D01*
D02*
G37*
G36*
X369100Y294566D02*
X368501Y294446D01*
X367993Y294107D01*
X367654Y293599D01*
X367534Y293000D01*
X367654Y292401D01*
X367993Y291893D01*
X368501Y291554D01*
X369100Y291435D01*
X369699Y291554D01*
X370207Y291893D01*
X370546Y292401D01*
X370666Y293000D01*
X370546Y293599D01*
X370207Y294107D01*
X369699Y294446D01*
X369100Y294566D01*
D02*
G37*
G36*
X176000Y293066D02*
X175401Y292946D01*
X174893Y292607D01*
X174554Y292099D01*
X174434Y291500D01*
X174554Y290901D01*
X174893Y290393D01*
X175401Y290054D01*
X176000Y289934D01*
X176599Y290054D01*
X177107Y290393D01*
X177446Y290901D01*
X177566Y291500D01*
X177446Y292099D01*
X177107Y292607D01*
X176599Y292946D01*
X176000Y293066D01*
D02*
G37*
G36*
X542200Y292565D02*
X541601Y292446D01*
X541093Y292107D01*
X540754Y291599D01*
X540634Y291000D01*
X540754Y290401D01*
X541093Y289893D01*
X541601Y289554D01*
X542200Y289435D01*
X542799Y289554D01*
X543307Y289893D01*
X543646Y290401D01*
X543765Y291000D01*
X543646Y291599D01*
X543307Y292107D01*
X542799Y292446D01*
X542200Y292565D01*
D02*
G37*
G36*
X338500D02*
X337901Y292446D01*
X337393Y292107D01*
X337054Y291599D01*
X336934Y291000D01*
X337054Y290401D01*
X337393Y289893D01*
X337901Y289554D01*
X338500Y289435D01*
X339099Y289554D01*
X339607Y289893D01*
X339946Y290401D01*
X340066Y291000D01*
X339946Y291599D01*
X339607Y292107D01*
X339099Y292446D01*
X338500Y292565D01*
D02*
G37*
G36*
X293500Y291565D02*
X292901Y291446D01*
X292393Y291107D01*
X292054Y290599D01*
X291934Y290000D01*
X292054Y289401D01*
X292393Y288893D01*
X292901Y288554D01*
X293500Y288435D01*
X294099Y288554D01*
X294607Y288893D01*
X294946Y289401D01*
X295065Y290000D01*
X294946Y290599D01*
X294607Y291107D01*
X294099Y291446D01*
X293500Y291565D01*
D02*
G37*
G36*
X430100Y291117D02*
X429501Y290998D01*
X428993Y290658D01*
X428654Y290150D01*
X428535Y289551D01*
X428654Y288952D01*
X428993Y288444D01*
X429501Y288105D01*
X430100Y287986D01*
X430699Y288105D01*
X431207Y288444D01*
X431546Y288952D01*
X431666Y289551D01*
X431546Y290150D01*
X431207Y290658D01*
X430699Y290998D01*
X430100Y291117D01*
D02*
G37*
G36*
X163000Y290066D02*
X162401Y289946D01*
X161893Y289607D01*
X161554Y289099D01*
X161434Y288500D01*
X161554Y287901D01*
X161893Y287393D01*
X162401Y287054D01*
X163000Y286934D01*
X163599Y287054D01*
X164107Y287393D01*
X164446Y287901D01*
X164566Y288500D01*
X164446Y289099D01*
X164107Y289607D01*
X163599Y289946D01*
X163000Y290066D01*
D02*
G37*
G36*
X337500Y289066D02*
X336901Y288946D01*
X336393Y288607D01*
X336054Y288099D01*
X335934Y287500D01*
X336054Y286901D01*
X336393Y286393D01*
X336901Y286054D01*
X337500Y285934D01*
X338099Y286054D01*
X338607Y286393D01*
X338946Y286901D01*
X339066Y287500D01*
X338946Y288099D01*
X338607Y288607D01*
X338099Y288946D01*
X337500Y289066D01*
D02*
G37*
G36*
X389100Y288766D02*
X388501Y288646D01*
X387993Y288307D01*
X387654Y287799D01*
X387534Y287200D01*
X387654Y286601D01*
X387993Y286093D01*
X388501Y285754D01*
X389100Y285634D01*
X389699Y285754D01*
X390207Y286093D01*
X390546Y286601D01*
X390666Y287200D01*
X390546Y287799D01*
X390207Y288307D01*
X389699Y288646D01*
X389100Y288766D01*
D02*
G37*
G36*
X261000Y286565D02*
X260401Y286446D01*
X259893Y286107D01*
X259554Y285599D01*
X259435Y285000D01*
X259554Y284401D01*
X259893Y283893D01*
X260401Y283554D01*
X261000Y283435D01*
X261599Y283554D01*
X262107Y283893D01*
X262446Y284401D01*
X262565Y285000D01*
X262446Y285599D01*
X262107Y286107D01*
X261599Y286446D01*
X261000Y286565D01*
D02*
G37*
G36*
X166500Y284066D02*
X165901Y283946D01*
X165393Y283607D01*
X165054Y283099D01*
X164935Y282500D01*
X165054Y281901D01*
X165393Y281393D01*
X165901Y281054D01*
X166500Y280935D01*
X167099Y281054D01*
X167607Y281393D01*
X167946Y281901D01*
X168066Y282500D01*
X167946Y283099D01*
X167607Y283607D01*
X167099Y283946D01*
X166500Y284066D01*
D02*
G37*
G36*
X338500Y282565D02*
X337901Y282446D01*
X337393Y282107D01*
X337054Y281599D01*
X336934Y281000D01*
X337054Y280401D01*
X337393Y279893D01*
X337901Y279554D01*
X338500Y279434D01*
X339099Y279554D01*
X339607Y279893D01*
X339946Y280401D01*
X340066Y281000D01*
X339946Y281599D01*
X339607Y282107D01*
X339099Y282446D01*
X338500Y282565D01*
D02*
G37*
G36*
X203000D02*
X202401Y282446D01*
X201893Y282107D01*
X201554Y281599D01*
X201434Y281000D01*
X201554Y280401D01*
X201893Y279893D01*
X202401Y279554D01*
X203000Y279434D01*
X203599Y279554D01*
X204107Y279893D01*
X204446Y280401D01*
X204566Y281000D01*
X204446Y281599D01*
X204107Y282107D01*
X203599Y282446D01*
X203000Y282565D01*
D02*
G37*
G36*
X293209Y281565D02*
X292610Y281446D01*
X292102Y281107D01*
X291762Y280599D01*
X291643Y280000D01*
X291762Y279401D01*
X292102Y278893D01*
X292610Y278554D01*
X293209Y278434D01*
X293808Y278554D01*
X294316Y278893D01*
X294655Y279401D01*
X294774Y280000D01*
X294655Y280599D01*
X294316Y281107D01*
X293808Y281446D01*
X293209Y281565D01*
D02*
G37*
G36*
X465722Y278988D02*
X465123Y278868D01*
X464615Y278529D01*
X464276Y278021D01*
X464235Y277817D01*
X463704Y277712D01*
X463507Y278007D01*
X462999Y278346D01*
X462400Y278466D01*
X461801Y278346D01*
X461293Y278007D01*
X460954Y277499D01*
X460835Y276900D01*
X460954Y276301D01*
X461293Y275793D01*
X461801Y275454D01*
X462400Y275335D01*
X462999Y275454D01*
X463507Y275793D01*
X463846Y276301D01*
X463887Y276505D01*
X464418Y276610D01*
X464615Y276315D01*
X465123Y275976D01*
X465722Y275856D01*
X466321Y275976D01*
X466829Y276315D01*
X467168Y276823D01*
X467288Y277422D01*
X467168Y278021D01*
X466829Y278529D01*
X466321Y278868D01*
X465722Y278988D01*
D02*
G37*
G36*
X425400Y280766D02*
X424801Y280646D01*
X424293Y280307D01*
X423954Y279799D01*
X423835Y279200D01*
X423954Y278601D01*
X424293Y278093D01*
X424801Y277754D01*
X425400Y277635D01*
X425999Y277754D01*
X426507Y278093D01*
X426846Y278601D01*
X426966Y279200D01*
X426846Y279799D01*
X426507Y280307D01*
X425999Y280646D01*
X425400Y280766D01*
D02*
G37*
G36*
X226500Y280566D02*
X225901Y280446D01*
X225393Y280107D01*
X225054Y279599D01*
X224935Y279000D01*
X225054Y278401D01*
X225393Y277893D01*
X225901Y277554D01*
X226500Y277434D01*
X227099Y277554D01*
X227607Y277893D01*
X227946Y278401D01*
X228065Y279000D01*
X227946Y279599D01*
X227607Y280107D01*
X227099Y280446D01*
X226500Y280566D01*
D02*
G37*
G36*
X207500Y280065D02*
X206901Y279946D01*
X206393Y279607D01*
X206054Y279099D01*
X205935Y278500D01*
X206054Y277901D01*
X206393Y277393D01*
X206901Y277054D01*
X207500Y276935D01*
X208099Y277054D01*
X208607Y277393D01*
X208946Y277901D01*
X209066Y278500D01*
X208946Y279099D01*
X208607Y279607D01*
X208099Y279946D01*
X207500Y280065D01*
D02*
G37*
G36*
X162000D02*
X161401Y279946D01*
X160893Y279607D01*
X160554Y279099D01*
X160434Y278500D01*
X160554Y277901D01*
X160893Y277393D01*
X161401Y277054D01*
X162000Y276935D01*
X162599Y277054D01*
X163107Y277393D01*
X163446Y277901D01*
X163566Y278500D01*
X163446Y279099D01*
X163107Y279607D01*
X162599Y279946D01*
X162000Y280065D01*
D02*
G37*
G36*
X337500Y279065D02*
X336901Y278946D01*
X336393Y278607D01*
X336054Y278099D01*
X335934Y277500D01*
X336054Y276901D01*
X336393Y276393D01*
X336901Y276054D01*
X337500Y275935D01*
X338099Y276054D01*
X338607Y276393D01*
X338946Y276901D01*
X339066Y277500D01*
X338946Y278099D01*
X338607Y278607D01*
X338099Y278946D01*
X337500Y279065D01*
D02*
G37*
G36*
X445500Y278166D02*
X444901Y278046D01*
X444393Y277707D01*
X444054Y277199D01*
X443934Y276600D01*
X444054Y276001D01*
X444393Y275493D01*
X444901Y275154D01*
X445500Y275034D01*
X446099Y275154D01*
X446607Y275493D01*
X446946Y276001D01*
X447065Y276600D01*
X446946Y277199D01*
X446607Y277707D01*
X446099Y278046D01*
X445500Y278166D01*
D02*
G37*
G36*
X449800Y277566D02*
X449201Y277446D01*
X448693Y277107D01*
X448354Y276599D01*
X448235Y276000D01*
X448354Y275401D01*
X448693Y274893D01*
X449201Y274554D01*
X449800Y274434D01*
X450399Y274554D01*
X450907Y274893D01*
X451246Y275401D01*
X451366Y276000D01*
X451246Y276599D01*
X450907Y277107D01*
X450399Y277446D01*
X449800Y277566D01*
D02*
G37*
G36*
X273500D02*
X272901Y277446D01*
X272393Y277107D01*
X272054Y276599D01*
X271935Y276000D01*
X272054Y275401D01*
X272393Y274893D01*
X272901Y274554D01*
X273500Y274434D01*
X274099Y274554D01*
X274607Y274893D01*
X274946Y275401D01*
X275065Y276000D01*
X274946Y276599D01*
X274607Y277107D01*
X274099Y277446D01*
X273500Y277566D01*
D02*
G37*
G36*
X403000Y276566D02*
X402401Y276446D01*
X401893Y276107D01*
X401554Y275599D01*
X401435Y275000D01*
X401554Y274401D01*
X401893Y273893D01*
X402401Y273554D01*
X403000Y273434D01*
X403599Y273554D01*
X404107Y273893D01*
X404446Y274401D01*
X404565Y275000D01*
X404446Y275599D01*
X404107Y276107D01*
X403599Y276446D01*
X403000Y276566D01*
D02*
G37*
G36*
X548800Y274866D02*
X548201Y274746D01*
X547693Y274407D01*
X547354Y273899D01*
X547234Y273300D01*
X547354Y272701D01*
X547693Y272193D01*
X548201Y271854D01*
X548800Y271734D01*
X549399Y271854D01*
X549907Y272193D01*
X550246Y272701D01*
X550365Y273300D01*
X550246Y273899D01*
X549907Y274407D01*
X549399Y274746D01*
X548800Y274866D01*
D02*
G37*
G36*
X203500Y274566D02*
X202901Y274446D01*
X202393Y274107D01*
X202054Y273599D01*
X201935Y273000D01*
X202054Y272401D01*
X202393Y271893D01*
X202901Y271554D01*
X203500Y271434D01*
X204099Y271554D01*
X204607Y271893D01*
X204946Y272401D01*
X205065Y273000D01*
X204946Y273599D01*
X204607Y274107D01*
X204099Y274446D01*
X203500Y274566D01*
D02*
G37*
G36*
X196000Y274065D02*
X195401Y273946D01*
X194893Y273607D01*
X194554Y273099D01*
X194434Y272500D01*
X194554Y271901D01*
X194893Y271393D01*
X195401Y271054D01*
X196000Y270935D01*
X196599Y271054D01*
X197107Y271393D01*
X197446Y271901D01*
X197565Y272500D01*
X197446Y273099D01*
X197107Y273607D01*
X196599Y273946D01*
X196000Y274065D01*
D02*
G37*
G36*
X338500Y272566D02*
X337901Y272446D01*
X337393Y272107D01*
X337054Y271599D01*
X336934Y271000D01*
X337054Y270401D01*
X337393Y269893D01*
X337901Y269554D01*
X338500Y269434D01*
X339099Y269554D01*
X339607Y269893D01*
X339946Y270401D01*
X340066Y271000D01*
X339946Y271599D01*
X339607Y272107D01*
X339099Y272446D01*
X338500Y272566D01*
D02*
G37*
G36*
X276900Y271666D02*
X276301Y271546D01*
X275793Y271207D01*
X275454Y270699D01*
X275335Y270100D01*
X275454Y269501D01*
X275793Y268993D01*
X276301Y268654D01*
X276900Y268534D01*
X277499Y268654D01*
X278007Y268993D01*
X278346Y269501D01*
X278466Y270100D01*
X278346Y270699D01*
X278007Y271207D01*
X277499Y271546D01*
X276900Y271666D01*
D02*
G37*
G36*
X14000Y268865D02*
X13401Y268746D01*
X12893Y268407D01*
X12607D01*
X12099Y268746D01*
X11500Y268865D01*
X10901Y268746D01*
X10393Y268407D01*
X10054Y267899D01*
X9934Y267300D01*
X10054Y266701D01*
X10393Y266193D01*
X10901Y265854D01*
X11500Y265735D01*
X12099Y265854D01*
X12607Y266193D01*
X12893D01*
X13401Y265854D01*
X14000Y265735D01*
X14599Y265854D01*
X15107Y266193D01*
X15446Y266701D01*
X15565Y267300D01*
X15446Y267899D01*
X15107Y268407D01*
X14599Y268746D01*
X14000Y268865D01*
D02*
G37*
G36*
X293209Y271357D02*
X292610Y271238D01*
X292102Y270898D01*
X291762Y270390D01*
X291643Y269791D01*
X291762Y269192D01*
X292102Y268684D01*
X292610Y268345D01*
X293209Y268226D01*
X293808Y268345D01*
X294316Y268684D01*
X294655Y269192D01*
X294774Y269791D01*
X294655Y270390D01*
X294316Y270898D01*
X293808Y271238D01*
X293209Y271357D01*
D02*
G37*
G36*
X374100Y269165D02*
X373501Y269046D01*
X372993Y268707D01*
X372654Y268199D01*
X372534Y267600D01*
X372654Y267001D01*
X372993Y266493D01*
X373501Y266154D01*
X374100Y266035D01*
X374699Y266154D01*
X375207Y266493D01*
X375546Y267001D01*
X375665Y267600D01*
X375546Y268199D01*
X375207Y268707D01*
X374699Y269046D01*
X374100Y269165D01*
D02*
G37*
G36*
X337500Y269065D02*
X336901Y268946D01*
X336393Y268607D01*
X336054Y268099D01*
X335934Y267500D01*
X336054Y266901D01*
X336393Y266393D01*
X336901Y266054D01*
X337500Y265934D01*
X338099Y266054D01*
X338607Y266393D01*
X338946Y266901D01*
X339066Y267500D01*
X338946Y268099D01*
X338607Y268607D01*
X338099Y268946D01*
X337500Y269065D01*
D02*
G37*
G36*
X261000Y268066D02*
X260401Y267946D01*
X259893Y267607D01*
X259554Y267099D01*
X259435Y266500D01*
X259554Y265901D01*
X259893Y265393D01*
X260401Y265054D01*
X261000Y264934D01*
X261599Y265054D01*
X262107Y265393D01*
X262446Y265901D01*
X262565Y266500D01*
X262446Y267099D01*
X262107Y267607D01*
X261599Y267946D01*
X261000Y268066D01*
D02*
G37*
G36*
X220600Y275500D02*
X213700D01*
Y274366D01*
X213619Y273961D01*
X213700Y273556D01*
Y270035D01*
X213619Y269630D01*
X213700Y269225D01*
Y265704D01*
X213619Y265299D01*
X213700Y264894D01*
Y263900D01*
X220600D01*
Y264898D01*
X220680Y265299D01*
X220600Y265700D01*
Y269229D01*
X220680Y269630D01*
X220600Y270031D01*
Y273560D01*
X220680Y273961D01*
X220600Y274362D01*
Y275500D01*
D02*
G37*
G36*
X430100Y265617D02*
X429501Y265497D01*
X428993Y265158D01*
X428654Y264650D01*
X428535Y264051D01*
X428654Y263452D01*
X428993Y262944D01*
X429501Y262605D01*
X430100Y262486D01*
X430699Y262605D01*
X431207Y262944D01*
X431546Y263452D01*
X431666Y264051D01*
X431546Y264650D01*
X431207Y265158D01*
X430699Y265497D01*
X430100Y265617D01*
D02*
G37*
G36*
X239500Y265066D02*
X238901Y264946D01*
X238393Y264607D01*
X238054Y264099D01*
X237934Y263500D01*
X238054Y262901D01*
X238393Y262393D01*
X238901Y262054D01*
X239500Y261934D01*
X240099Y262054D01*
X240607Y262393D01*
X240946Y262901D01*
X241066Y263500D01*
X240946Y264099D01*
X240607Y264607D01*
X240099Y264946D01*
X239500Y265066D01*
D02*
G37*
G36*
X357700Y264265D02*
X357101Y264146D01*
X356593Y263807D01*
X356254Y263299D01*
X356135Y262700D01*
X356254Y262101D01*
X356593Y261593D01*
X357101Y261254D01*
X357700Y261135D01*
X358299Y261254D01*
X358807Y261593D01*
X359146Y262101D01*
X359265Y262700D01*
X359146Y263299D01*
X358807Y263807D01*
X358299Y264146D01*
X357700Y264265D01*
D02*
G37*
G36*
X384100Y263165D02*
X383501Y263046D01*
X382993Y262707D01*
X382654Y262199D01*
X382535Y261600D01*
X382654Y261001D01*
X382993Y260493D01*
X383501Y260154D01*
X384100Y260034D01*
X384699Y260154D01*
X385207Y260493D01*
X385546Y261001D01*
X385665Y261600D01*
X385546Y262199D01*
X385207Y262707D01*
X384699Y263046D01*
X384100Y263165D01*
D02*
G37*
G36*
X338500Y262565D02*
X337901Y262446D01*
X337393Y262107D01*
X337054Y261599D01*
X336934Y261000D01*
X337054Y260401D01*
X337393Y259893D01*
X337901Y259554D01*
X338500Y259435D01*
X339099Y259554D01*
X339607Y259893D01*
X339946Y260401D01*
X340066Y261000D01*
X339946Y261599D01*
X339607Y262107D01*
X339099Y262446D01*
X338500Y262565D01*
D02*
G37*
G36*
X226500Y262066D02*
X225901Y261946D01*
X225393Y261607D01*
X225054Y261099D01*
X224935Y260500D01*
X225054Y259901D01*
X225393Y259393D01*
X225901Y259054D01*
X226500Y258934D01*
X227099Y259054D01*
X227607Y259393D01*
X227946Y259901D01*
X228065Y260500D01*
X227946Y261099D01*
X227607Y261607D01*
X227099Y261946D01*
X226500Y262066D01*
D02*
G37*
G36*
X293209Y261565D02*
X292610Y261446D01*
X292102Y261107D01*
X291762Y260599D01*
X291643Y260000D01*
X291762Y259401D01*
X292102Y258893D01*
X292610Y258554D01*
X293209Y258435D01*
X293808Y258554D01*
X294316Y258893D01*
X294655Y259401D01*
X294774Y260000D01*
X294655Y260599D01*
X294316Y261107D01*
X293808Y261446D01*
X293209Y261565D01*
D02*
G37*
G36*
X337500Y259066D02*
X336901Y258946D01*
X336393Y258607D01*
X336054Y258099D01*
X335934Y257500D01*
X336054Y256901D01*
X336393Y256393D01*
X336901Y256054D01*
X337500Y255935D01*
X338099Y256054D01*
X338607Y256393D01*
X338946Y256901D01*
X339066Y257500D01*
X338946Y258099D01*
X338607Y258607D01*
X338099Y258946D01*
X337500Y259066D01*
D02*
G37*
G36*
X533000Y265123D02*
X531674Y264948D01*
X530439Y264436D01*
X529378Y263622D01*
X528564Y262561D01*
X528052Y261326D01*
X527877Y260000D01*
X528052Y258674D01*
X528564Y257439D01*
X529378Y256378D01*
X530439Y255564D01*
X531674Y255052D01*
X533000Y254877D01*
X534326Y255052D01*
X535561Y255564D01*
X536622Y256378D01*
X537436Y257439D01*
X537948Y258674D01*
X538123Y260000D01*
X537948Y261326D01*
X537436Y262561D01*
X536622Y263622D01*
X535561Y264436D01*
X534326Y264948D01*
X533000Y265123D01*
D02*
G37*
G36*
X-42000Y263066D02*
X-42599Y262946D01*
X-43107Y262607D01*
X-43446Y262099D01*
X-43565Y261500D01*
X-43446Y260901D01*
X-43107Y260393D01*
X-42761Y260162D01*
X-42751Y260134D01*
Y259634D01*
X-42761Y259606D01*
X-43107Y259375D01*
X-43446Y258867D01*
X-43565Y258268D01*
X-43446Y257669D01*
X-43107Y257161D01*
X-42734Y256912D01*
X-42710Y256827D01*
Y256440D01*
X-42734Y256356D01*
X-43107Y256107D01*
X-43446Y255599D01*
X-43565Y255000D01*
X-43446Y254401D01*
X-43107Y253893D01*
X-42599Y253554D01*
X-42000Y253434D01*
X-41401Y253554D01*
X-40893Y253893D01*
X-40554Y254401D01*
X-40435Y255000D01*
X-40554Y255599D01*
X-40893Y256107D01*
X-41266Y256356D01*
X-41290Y256440D01*
Y256827D01*
X-41266Y256912D01*
X-40893Y257161D01*
X-40554Y257669D01*
X-40435Y258268D01*
X-40554Y258867D01*
X-40893Y259375D01*
X-41239Y259606D01*
X-41249Y259634D01*
Y260134D01*
X-41239Y260162D01*
X-40893Y260393D01*
X-40554Y260901D01*
X-40435Y261500D01*
X-40554Y262099D01*
X-40893Y262607D01*
X-41401Y262946D01*
X-42000Y263066D01*
D02*
G37*
G36*
X230000Y256066D02*
X229401Y255946D01*
X228893Y255607D01*
X228554Y255099D01*
X228434Y254500D01*
X228554Y253901D01*
X228893Y253393D01*
X229401Y253054D01*
X230000Y252935D01*
X230599Y253054D01*
X231107Y253393D01*
X231446Y253901D01*
X231565Y254500D01*
X231446Y255099D01*
X231107Y255607D01*
X230599Y255946D01*
X230000Y256066D01*
D02*
G37*
G36*
X448478Y253188D02*
X447879Y253068D01*
X447371Y252729D01*
X447208Y252485D01*
X446612Y252478D01*
X446558Y252558D01*
X446050Y252898D01*
X445451Y253017D01*
X444852Y252898D01*
X444344Y252558D01*
X444005Y252050D01*
X443886Y251451D01*
X444005Y250852D01*
X444344Y250344D01*
X444852Y250005D01*
X445451Y249886D01*
X446050Y250005D01*
X446558Y250344D01*
X446721Y250588D01*
X447317Y250595D01*
X447371Y250515D01*
X447879Y250176D01*
X448478Y250057D01*
X449077Y250176D01*
X449585Y250515D01*
X449924Y251023D01*
X450043Y251622D01*
X449924Y252221D01*
X449585Y252729D01*
X449077Y253068D01*
X448478Y253188D01*
D02*
G37*
G36*
X425400Y255265D02*
X424801Y255146D01*
X424293Y254807D01*
X423954Y254299D01*
X423835Y253700D01*
X423954Y253101D01*
X424293Y252593D01*
X424801Y252254D01*
X425400Y252134D01*
X425999Y252254D01*
X426507Y252593D01*
X426846Y253101D01*
X426966Y253700D01*
X426846Y254299D01*
X426507Y254807D01*
X425999Y255146D01*
X425400Y255265D01*
D02*
G37*
G36*
X332000Y290500D02*
X300000D01*
Y251400D01*
X299876Y251308D01*
X299500Y251179D01*
X299099Y251446D01*
X298500Y251566D01*
X297901Y251446D01*
X297393Y251107D01*
X297054Y250599D01*
X296935Y250000D01*
X297054Y249401D01*
X297393Y248893D01*
X297901Y248554D01*
X298500Y248434D01*
X299099Y248554D01*
X299500Y248821D01*
X299876Y248692D01*
X300000Y248600D01*
Y248500D01*
X332000D01*
Y290500D01*
D02*
G37*
G36*
X362500Y253166D02*
X361901Y253046D01*
X361393Y252707D01*
X361054Y252199D01*
X360934Y251600D01*
X361054Y251001D01*
X361393Y250493D01*
X361901Y250154D01*
X362500Y250034D01*
X363099Y250154D01*
X363607Y250493D01*
X363946Y251001D01*
X364066Y251600D01*
X363946Y252199D01*
X363607Y252707D01*
X363099Y253046D01*
X362500Y253166D01*
D02*
G37*
G36*
X462400Y252665D02*
X461801Y252546D01*
X461293Y252207D01*
X460954Y251699D01*
X460835Y251100D01*
X460954Y250501D01*
X461293Y249993D01*
X461801Y249654D01*
X462400Y249535D01*
X462999Y249654D01*
X463507Y249993D01*
X463846Y250501D01*
X463966Y251100D01*
X463846Y251699D01*
X463507Y252207D01*
X462999Y252546D01*
X462400Y252665D01*
D02*
G37*
G36*
X466800Y252365D02*
X466201Y252246D01*
X465693Y251907D01*
X465354Y251399D01*
X465235Y250800D01*
X465354Y250201D01*
X465693Y249693D01*
X466201Y249354D01*
X466800Y249235D01*
X467399Y249354D01*
X467907Y249693D01*
X468246Y250201D01*
X468365Y250800D01*
X468246Y251399D01*
X467907Y251907D01*
X467399Y252246D01*
X466800Y252365D01*
D02*
G37*
G36*
X225500Y252065D02*
X224901Y251946D01*
X224393Y251607D01*
X224054Y251099D01*
X223935Y250500D01*
X224054Y249901D01*
X224393Y249393D01*
X224901Y249054D01*
X225500Y248935D01*
X226099Y249054D01*
X226607Y249393D01*
X226946Y249901D01*
X227065Y250500D01*
X226946Y251099D01*
X226607Y251607D01*
X226099Y251946D01*
X225500Y252065D01*
D02*
G37*
G36*
X147000Y251866D02*
X146401Y251746D01*
X145893Y251407D01*
X145554Y250899D01*
X145434Y250300D01*
X145554Y249701D01*
X145893Y249193D01*
X146401Y248854D01*
X147000Y248734D01*
X147599Y248854D01*
X148107Y249193D01*
X148446Y249701D01*
X148565Y250300D01*
X148446Y250899D01*
X148107Y251407D01*
X147599Y251746D01*
X147000Y251866D01*
D02*
G37*
G36*
X125300Y251665D02*
X124701Y251546D01*
X124193Y251207D01*
X123854Y250699D01*
X123734Y250100D01*
X123854Y249501D01*
X124193Y248993D01*
X124701Y248654D01*
X125300Y248534D01*
X125899Y248654D01*
X126407Y248993D01*
X126746Y249501D01*
X126865Y250100D01*
X126746Y250699D01*
X126407Y251207D01*
X125899Y251546D01*
X125300Y251665D01*
D02*
G37*
G36*
X403000Y251065D02*
X402401Y250946D01*
X401893Y250607D01*
X401554Y250099D01*
X401435Y249500D01*
X401554Y248901D01*
X401893Y248393D01*
X402401Y248054D01*
X403000Y247935D01*
X403599Y248054D01*
X404107Y248393D01*
X404446Y248901D01*
X404565Y249500D01*
X404446Y250099D01*
X404107Y250607D01*
X403599Y250946D01*
X403000Y251065D01*
D02*
G37*
G36*
X360100Y249365D02*
X359501Y249246D01*
X358993Y248907D01*
X358654Y248399D01*
X358535Y247800D01*
X358654Y247201D01*
X358993Y246693D01*
X359501Y246354D01*
X360100Y246234D01*
X360699Y246354D01*
X361207Y246693D01*
X361546Y247201D01*
X361666Y247800D01*
X361546Y248399D01*
X361207Y248907D01*
X360699Y249246D01*
X360100Y249365D01*
D02*
G37*
G36*
X529500Y246566D02*
X528901Y246446D01*
X528393Y246107D01*
X528054Y245599D01*
X527935Y245000D01*
X528054Y244401D01*
X528393Y243893D01*
X528901Y243554D01*
X529500Y243435D01*
X530099Y243554D01*
X530607Y243893D01*
X530946Y244401D01*
X531066Y245000D01*
X530946Y245599D01*
X530607Y246107D01*
X530099Y246446D01*
X529500Y246566D01*
D02*
G37*
G36*
X523000Y243566D02*
X522401Y243446D01*
X521893Y243107D01*
X521554Y242599D01*
X521505Y242354D01*
X520995D01*
X520946Y242599D01*
X520607Y243107D01*
X520099Y243446D01*
X519500Y243566D01*
X518901Y243446D01*
X518393Y243107D01*
X518054Y242599D01*
X517935Y242000D01*
X518054Y241401D01*
X518393Y240893D01*
X518901Y240554D01*
X519500Y240435D01*
X520099Y240554D01*
X520607Y240893D01*
X520946Y241401D01*
X520995Y241646D01*
X521505D01*
X521554Y241401D01*
X521893Y240893D01*
X522129Y240735D01*
Y228500D01*
X522195Y228167D01*
X522384Y227884D01*
X526759Y223509D01*
X526470Y222812D01*
X526363Y222000D01*
X526470Y221188D01*
X526783Y220431D01*
X527282Y219782D01*
X527931Y219283D01*
X528688Y218970D01*
X529500Y218863D01*
X530312Y218970D01*
X531069Y219283D01*
X531718Y219782D01*
X532217Y220431D01*
X532530Y221188D01*
X532637Y222000D01*
X532530Y222812D01*
X532217Y223569D01*
X531718Y224218D01*
X531069Y224717D01*
X530312Y225030D01*
X529500Y225137D01*
X528688Y225030D01*
X527991Y224741D01*
X523871Y228861D01*
Y240735D01*
X524107Y240893D01*
X524446Y241401D01*
X524566Y242000D01*
X524446Y242599D01*
X524107Y243107D01*
X523599Y243446D01*
X523000Y243566D01*
D02*
G37*
G36*
X198500Y245065D02*
X197901Y244946D01*
X197393Y244607D01*
X197054Y244099D01*
X196934Y243500D01*
X197054Y242901D01*
X197393Y242393D01*
X197901Y242054D01*
X198500Y241934D01*
X199099Y242054D01*
X199607Y242393D01*
X199946Y242901D01*
X200065Y243500D01*
X199946Y244099D01*
X199607Y244607D01*
X199099Y244946D01*
X198500Y245065D01*
D02*
G37*
G36*
X-42200Y250384D02*
X-42799Y250265D01*
X-43307Y249926D01*
X-43646Y249418D01*
X-43766Y248819D01*
X-43646Y248220D01*
X-43307Y247712D01*
X-42869Y247419D01*
X-42800Y247098D01*
X-42801Y246863D01*
X-42931Y246776D01*
X-43271Y246268D01*
X-43390Y245669D01*
X-43271Y245070D01*
X-42931Y244562D01*
X-42801Y244475D01*
X-42800Y244241D01*
X-42869Y243919D01*
X-43307Y243627D01*
X-43646Y243119D01*
X-43766Y242520D01*
X-43646Y241921D01*
X-43307Y241413D01*
X-42799Y241073D01*
X-42200Y240954D01*
X-41601Y241073D01*
X-41093Y241413D01*
X-40754Y241921D01*
X-40635Y242520D01*
X-40754Y243119D01*
X-41093Y243627D01*
X-41223Y243714D01*
X-41224Y243948D01*
X-41155Y244270D01*
X-40718Y244562D01*
X-40378Y245070D01*
X-40259Y245669D01*
X-40378Y246268D01*
X-40718Y246776D01*
X-41155Y247069D01*
X-41224Y247391D01*
X-41223Y247625D01*
X-41093Y247712D01*
X-40754Y248220D01*
X-40635Y248819D01*
X-40754Y249418D01*
X-41093Y249926D01*
X-41601Y250265D01*
X-42200Y250384D01*
D02*
G37*
G36*
X10500Y246647D02*
X9901Y246527D01*
X9393Y246188D01*
X9054Y245680D01*
X8935Y245081D01*
X9054Y244482D01*
X9393Y243974D01*
X9504Y243900D01*
Y243400D01*
X9393Y243326D01*
X9054Y242818D01*
X8935Y242219D01*
X9054Y241620D01*
X9393Y241112D01*
X9901Y240773D01*
X10500Y240653D01*
X11099Y240773D01*
X11607Y241112D01*
X11946Y241620D01*
X12066Y242219D01*
X11946Y242818D01*
X11607Y243326D01*
X11496Y243400D01*
Y243900D01*
X11607Y243974D01*
X11946Y244482D01*
X12066Y245081D01*
X11946Y245680D01*
X11607Y246188D01*
X11099Y246527D01*
X10500Y246647D01*
D02*
G37*
G36*
X3500Y242147D02*
X2901Y242027D01*
X2393Y241688D01*
X2054Y241180D01*
X1935Y240581D01*
X2054Y239982D01*
X2393Y239474D01*
X2901Y239135D01*
X3500Y239016D01*
X4099Y239135D01*
X4607Y239474D01*
X4946Y239982D01*
X5065Y240581D01*
X4946Y241180D01*
X4607Y241688D01*
X4099Y242027D01*
X3500Y242147D01*
D02*
G37*
G36*
X539610Y245110D02*
X533390D01*
Y238890D01*
X539610D01*
Y245110D01*
D02*
G37*
G36*
X7300Y240565D02*
X6701Y240446D01*
X6193Y240107D01*
X5854Y239599D01*
X5734Y239000D01*
X5854Y238401D01*
X6193Y237893D01*
X6701Y237554D01*
X7300Y237435D01*
X7899Y237554D01*
X8407Y237893D01*
X8746Y238401D01*
X8866Y239000D01*
X8746Y239599D01*
X8407Y240107D01*
X7899Y240446D01*
X7300Y240565D01*
D02*
G37*
G36*
X430100Y240066D02*
X429501Y239946D01*
X428993Y239607D01*
X428654Y239099D01*
X428535Y238500D01*
X428654Y237901D01*
X428993Y237393D01*
X429501Y237054D01*
X430100Y236934D01*
X430699Y237054D01*
X431207Y237393D01*
X431546Y237901D01*
X431666Y238500D01*
X431546Y239099D01*
X431207Y239607D01*
X430699Y239946D01*
X430100Y240066D01*
D02*
G37*
G36*
X236500D02*
X235901Y239946D01*
X235393Y239607D01*
X235054Y239099D01*
X234934Y238500D01*
X235054Y237901D01*
X235393Y237393D01*
X235901Y237054D01*
X236500Y236934D01*
X237099Y237054D01*
X237607Y237393D01*
X237946Y237901D01*
X238066Y238500D01*
X237946Y239099D01*
X237607Y239607D01*
X237099Y239946D01*
X236500Y240066D01*
D02*
G37*
G36*
X164000Y239565D02*
X163401Y239446D01*
X162893Y239107D01*
X162554Y238599D01*
X162434Y238000D01*
X162554Y237401D01*
X162893Y236893D01*
X163401Y236554D01*
X164000Y236435D01*
X164599Y236554D01*
X165107Y236893D01*
X165446Y237401D01*
X165566Y238000D01*
X165446Y238599D01*
X165107Y239107D01*
X164599Y239446D01*
X164000Y239565D01*
D02*
G37*
G36*
X145500D02*
X144901Y239446D01*
X144393Y239107D01*
X144054Y238599D01*
X143935Y238000D01*
X144054Y237401D01*
X144393Y236893D01*
X144901Y236554D01*
X145500Y236435D01*
X146099Y236554D01*
X146607Y236893D01*
X146946Y237401D01*
X147065Y238000D01*
X146946Y238599D01*
X146607Y239107D01*
X146099Y239446D01*
X145500Y239565D01*
D02*
G37*
G36*
X140500D02*
X139901Y239446D01*
X139393Y239107D01*
X139054Y238599D01*
X138935Y238000D01*
X139054Y237401D01*
X139393Y236893D01*
X139901Y236554D01*
X140500Y236435D01*
X141099Y236554D01*
X141607Y236893D01*
X141946Y237401D01*
X142066Y238000D01*
X141946Y238599D01*
X141607Y239107D01*
X141099Y239446D01*
X140500Y239565D01*
D02*
G37*
G36*
X529500Y241137D02*
X528688Y241030D01*
X527931Y240717D01*
X527282Y240218D01*
X526783Y239568D01*
X526470Y238812D01*
X526363Y238000D01*
X526470Y237188D01*
X526783Y236432D01*
X527282Y235782D01*
X527931Y235283D01*
X528688Y234970D01*
X529500Y234863D01*
X530312Y234970D01*
X531069Y235283D01*
X531718Y235782D01*
X532217Y236432D01*
X532530Y237188D01*
X532637Y238000D01*
X532530Y238812D01*
X532217Y239568D01*
X531718Y240218D01*
X531069Y240717D01*
X530312Y241030D01*
X529500Y241137D01*
D02*
G37*
G36*
X366200Y236666D02*
X365601Y236546D01*
X365093Y236207D01*
X364754Y235699D01*
X364634Y235100D01*
X364754Y234501D01*
X365093Y233993D01*
X365601Y233654D01*
X366200Y233535D01*
X366799Y233654D01*
X367307Y233993D01*
X367646Y234501D01*
X367765Y235100D01*
X367646Y235699D01*
X367307Y236207D01*
X366799Y236546D01*
X366200Y236666D01*
D02*
G37*
G36*
X231000Y235066D02*
X230401Y234946D01*
X229893Y234607D01*
X229554Y234099D01*
X229434Y233500D01*
X229554Y232901D01*
X229893Y232393D01*
X230401Y232054D01*
X231000Y231934D01*
X231599Y232054D01*
X232107Y232393D01*
X232446Y232901D01*
X232565Y233500D01*
X232446Y234099D01*
X232107Y234607D01*
X231599Y234946D01*
X231000Y235066D01*
D02*
G37*
G36*
X-42100Y234665D02*
X-42699Y234546D01*
X-43207Y234207D01*
X-43546Y233699D01*
X-43666Y233100D01*
X-43546Y232501D01*
X-43207Y231993D01*
X-42699Y231654D01*
X-42100Y231535D01*
X-41501Y231654D01*
X-40993Y231993D01*
X-40654Y232501D01*
X-40534Y233100D01*
X-40654Y233699D01*
X-40993Y234207D01*
X-41501Y234546D01*
X-42100Y234665D01*
D02*
G37*
G36*
X16200Y237666D02*
X15601Y237546D01*
X15093Y237207D01*
X14754Y236699D01*
X14635Y236100D01*
X14754Y235501D01*
X15093Y234993D01*
X15306Y234851D01*
Y234249D01*
X15093Y234107D01*
X14754Y233599D01*
X14635Y233000D01*
X14754Y232401D01*
X15093Y231893D01*
X15601Y231554D01*
X16200Y231434D01*
X16799Y231554D01*
X17307Y231893D01*
X17646Y232401D01*
X17765Y233000D01*
X17646Y233599D01*
X17307Y234107D01*
X17094Y234249D01*
Y234851D01*
X17307Y234993D01*
X17646Y235501D01*
X17765Y236100D01*
X17646Y236699D01*
X17307Y237207D01*
X16799Y237546D01*
X16200Y237666D01*
D02*
G37*
G36*
X536500Y237137D02*
X535688Y237030D01*
X534932Y236717D01*
X534282Y236218D01*
X533783Y235568D01*
X533470Y234812D01*
X533363Y234000D01*
X533470Y233188D01*
X533783Y232432D01*
X534282Y231782D01*
X534932Y231283D01*
X535688Y230970D01*
X536500Y230863D01*
X537312Y230970D01*
X538068Y231283D01*
X538718Y231782D01*
X539217Y232432D01*
X539530Y233188D01*
X539637Y234000D01*
X539530Y234812D01*
X539217Y235568D01*
X538718Y236218D01*
X538068Y236717D01*
X537312Y237030D01*
X536500Y237137D01*
D02*
G37*
G36*
X140900Y233565D02*
X140301Y233446D01*
X139793Y233107D01*
X139454Y232599D01*
X139334Y232000D01*
X139454Y231401D01*
X139793Y230893D01*
X140301Y230554D01*
X140900Y230434D01*
X141499Y230554D01*
X142007Y230893D01*
X142346Y231401D01*
X142465Y232000D01*
X142346Y232599D01*
X142007Y233107D01*
X141499Y233446D01*
X140900Y233565D01*
D02*
G37*
G36*
X29600Y229265D02*
X29001Y229146D01*
X28493Y228807D01*
X28154Y228299D01*
X28034Y227700D01*
X28078Y227480D01*
X27653Y227055D01*
X27600Y227065D01*
X27001Y226946D01*
X26493Y226607D01*
X26154Y226099D01*
X26035Y225500D01*
X26154Y224901D01*
X26493Y224393D01*
X27001Y224054D01*
X27600Y223935D01*
X28199Y224054D01*
X28707Y224393D01*
X29046Y224901D01*
X29166Y225500D01*
X29122Y225720D01*
X29547Y226145D01*
X29600Y226134D01*
X30199Y226254D01*
X30707Y226593D01*
X31046Y227101D01*
X31166Y227700D01*
X31046Y228299D01*
X30707Y228807D01*
X30199Y229146D01*
X29600Y229265D01*
D02*
G37*
G36*
X465500Y227965D02*
X464901Y227846D01*
X464393Y227507D01*
X464126Y227108D01*
X463719Y227039D01*
X463558Y227058D01*
X463050Y227397D01*
X462451Y227517D01*
X461852Y227397D01*
X461344Y227058D01*
X461005Y226550D01*
X460886Y225951D01*
X461005Y225352D01*
X461344Y224844D01*
X461852Y224505D01*
X462451Y224386D01*
X463050Y224505D01*
X463558Y224844D01*
X463825Y225243D01*
X464232Y225312D01*
X464393Y225293D01*
X464901Y224954D01*
X465500Y224834D01*
X466099Y224954D01*
X466607Y225293D01*
X466946Y225801D01*
X467065Y226400D01*
X466946Y226999D01*
X466607Y227507D01*
X466099Y227846D01*
X465500Y227965D01*
D02*
G37*
G36*
X529500Y233137D02*
X528688Y233030D01*
X527931Y232717D01*
X527282Y232218D01*
X526783Y231569D01*
X526470Y230812D01*
X526363Y230000D01*
X526470Y229188D01*
X526783Y228432D01*
X527282Y227782D01*
X527931Y227283D01*
X528688Y226970D01*
X529500Y226863D01*
X530312Y226970D01*
X531069Y227283D01*
X531718Y227782D01*
X532217Y228432D01*
X532530Y229188D01*
X532637Y230000D01*
X532530Y230812D01*
X532217Y231569D01*
X531718Y232218D01*
X531069Y232717D01*
X530312Y233030D01*
X529500Y233137D01*
D02*
G37*
G36*
X425400Y229566D02*
X424801Y229446D01*
X424293Y229107D01*
X423954Y228599D01*
X423835Y228000D01*
X423954Y227401D01*
X424293Y226893D01*
X424801Y226554D01*
X425400Y226434D01*
X425999Y226554D01*
X426507Y226893D01*
X426846Y227401D01*
X426966Y228000D01*
X426846Y228599D01*
X426507Y229107D01*
X425999Y229446D01*
X425400Y229566D01*
D02*
G37*
G36*
X361500Y231936D02*
X360637Y231822D01*
X359832Y231489D01*
X359141Y230959D01*
X358611Y230268D01*
X358278Y229463D01*
X358164Y228600D01*
X358278Y227737D01*
X358611Y226932D01*
X359141Y226241D01*
X359832Y225711D01*
X360637Y225378D01*
X361500Y225264D01*
X362363Y225378D01*
X363168Y225711D01*
X363859Y226241D01*
X364389Y226932D01*
X364722Y227737D01*
X364836Y228600D01*
X364722Y229463D01*
X364389Y230268D01*
X363859Y230959D01*
X363168Y231489D01*
X362363Y231822D01*
X361500Y231936D01*
D02*
G37*
G36*
X351500D02*
X350637Y231822D01*
X349832Y231489D01*
X349141Y230959D01*
X348611Y230268D01*
X348278Y229463D01*
X348164Y228600D01*
X348278Y227737D01*
X348611Y226932D01*
X349141Y226241D01*
X349832Y225711D01*
X350637Y225378D01*
X351500Y225264D01*
X352363Y225378D01*
X353168Y225711D01*
X353859Y226241D01*
X354389Y226932D01*
X354722Y227737D01*
X354836Y228600D01*
X354722Y229463D01*
X354389Y230268D01*
X353859Y230959D01*
X353168Y231489D01*
X352363Y231822D01*
X351500Y231936D01*
D02*
G37*
G36*
X22000Y231066D02*
X21401Y230946D01*
X20893Y230607D01*
X20554Y230099D01*
X20435Y229500D01*
X20554Y228901D01*
X20893Y228393D01*
X21004Y228319D01*
Y227819D01*
X20893Y227745D01*
X20554Y227237D01*
X20435Y226638D01*
X20554Y226039D01*
X20893Y225531D01*
X21401Y225191D01*
X22000Y225072D01*
X22599Y225191D01*
X23107Y225531D01*
X23446Y226039D01*
X23565Y226638D01*
X23446Y227237D01*
X23107Y227745D01*
X22996Y227819D01*
Y228319D01*
X23107Y228393D01*
X23446Y228901D01*
X23565Y229500D01*
X23446Y230099D01*
X23107Y230607D01*
X22599Y230946D01*
X22000Y231066D01*
D02*
G37*
G36*
X445400Y227566D02*
X444801Y227446D01*
X444293Y227107D01*
X443954Y226599D01*
X443834Y226000D01*
X443954Y225401D01*
X444293Y224893D01*
X444801Y224554D01*
X445400Y224434D01*
X445999Y224554D01*
X446507Y224893D01*
X446846Y225401D01*
X446966Y226000D01*
X446846Y226599D01*
X446507Y227107D01*
X445999Y227446D01*
X445400Y227566D01*
D02*
G37*
G36*
X198500D02*
X197901Y227446D01*
X197393Y227107D01*
X197054Y226599D01*
X196934Y226000D01*
X197054Y225401D01*
X197393Y224893D01*
X197901Y224554D01*
X198500Y224434D01*
X199099Y224554D01*
X199607Y224893D01*
X199946Y225401D01*
X200065Y226000D01*
X199946Y226599D01*
X199607Y227107D01*
X199099Y227446D01*
X198500Y227566D01*
D02*
G37*
G36*
X450000Y226765D02*
X449401Y226646D01*
X448893Y226307D01*
X448554Y225799D01*
X448434Y225200D01*
X448554Y224601D01*
X448893Y224093D01*
X449401Y223754D01*
X450000Y223635D01*
X450599Y223754D01*
X451107Y224093D01*
X451446Y224601D01*
X451566Y225200D01*
X451446Y225799D01*
X451107Y226307D01*
X450599Y226646D01*
X450000Y226765D01*
D02*
G37*
G36*
X536500Y229137D02*
X535688Y229030D01*
X534932Y228717D01*
X534282Y228218D01*
X533783Y227569D01*
X533470Y226812D01*
X533363Y226000D01*
X533470Y225188D01*
X533783Y224431D01*
X534282Y223782D01*
X534932Y223283D01*
X535688Y222970D01*
X536500Y222863D01*
X537312Y222970D01*
X538068Y223283D01*
X538718Y223782D01*
X539217Y224431D01*
X539530Y225188D01*
X539637Y226000D01*
X539530Y226812D01*
X539217Y227569D01*
X538718Y228218D01*
X538068Y228717D01*
X537312Y229030D01*
X536500Y229137D01*
D02*
G37*
G36*
X158100Y234400D02*
X151200D01*
Y233346D01*
X151119Y232941D01*
X151200Y232536D01*
Y229015D01*
X151119Y228610D01*
X151200Y228205D01*
Y224685D01*
X151119Y224279D01*
X151200Y223875D01*
Y222800D01*
X158100D01*
Y223879D01*
X158180Y224279D01*
X158100Y224680D01*
Y228209D01*
X158180Y228610D01*
X158100Y229011D01*
Y232540D01*
X158180Y232941D01*
X158100Y233342D01*
Y234400D01*
D02*
G37*
G36*
X403000Y225566D02*
X402401Y225446D01*
X401893Y225107D01*
X401554Y224599D01*
X401435Y224000D01*
X401554Y223401D01*
X401893Y222893D01*
X402401Y222554D01*
X403000Y222434D01*
X403599Y222554D01*
X404107Y222893D01*
X404446Y223401D01*
X404565Y224000D01*
X404446Y224599D01*
X404107Y225107D01*
X403599Y225446D01*
X403000Y225566D01*
D02*
G37*
G36*
X-42200Y225188D02*
X-42799Y225068D01*
X-43307Y224729D01*
X-43646Y224221D01*
X-43766Y223622D01*
X-43646Y223023D01*
X-43307Y222515D01*
X-42799Y222176D01*
X-42200Y222057D01*
X-41601Y222176D01*
X-41093Y222515D01*
X-40754Y223023D01*
X-40635Y223622D01*
X-40754Y224221D01*
X-41093Y224729D01*
X-41601Y225068D01*
X-42200Y225188D01*
D02*
G37*
G36*
X177000Y224065D02*
X176401Y223946D01*
X175893Y223607D01*
X175554Y223099D01*
X175435Y222500D01*
X175554Y221901D01*
X175893Y221393D01*
X176401Y221054D01*
X177000Y220935D01*
X177599Y221054D01*
X178107Y221393D01*
X178446Y221901D01*
X178566Y222500D01*
X178446Y223099D01*
X178107Y223607D01*
X177599Y223946D01*
X177000Y224065D01*
D02*
G37*
G36*
X140172Y221296D02*
X139573Y221177D01*
X139065Y220838D01*
X138726Y220330D01*
X138607Y219731D01*
X138726Y219132D01*
X139065Y218624D01*
X139573Y218284D01*
X140172Y218165D01*
X140771Y218284D01*
X141279Y218624D01*
X141618Y219132D01*
X141738Y219731D01*
X141618Y220330D01*
X141279Y220838D01*
X140771Y221177D01*
X140172Y221296D01*
D02*
G37*
G36*
X164000Y221065D02*
X163401Y220946D01*
X162893Y220607D01*
X162554Y220099D01*
X162434Y219500D01*
X162554Y218901D01*
X162893Y218393D01*
X163401Y218054D01*
X164000Y217934D01*
X164599Y218054D01*
X165107Y218393D01*
X165446Y218901D01*
X165566Y219500D01*
X165446Y220099D01*
X165107Y220607D01*
X164599Y220946D01*
X164000Y221065D01*
D02*
G37*
G36*
X354807Y221907D02*
X348193D01*
Y215293D01*
X354807D01*
Y221907D01*
D02*
G37*
G36*
X361500Y221936D02*
X360637Y221822D01*
X359832Y221489D01*
X359141Y220959D01*
X358611Y220268D01*
X358278Y219463D01*
X358164Y218600D01*
X358278Y217737D01*
X358611Y216932D01*
X359141Y216241D01*
X359832Y215711D01*
X360637Y215378D01*
X361500Y215264D01*
X362363Y215378D01*
X363168Y215711D01*
X363859Y216241D01*
X364389Y216932D01*
X364722Y217737D01*
X364836Y218600D01*
X364722Y219463D01*
X364389Y220268D01*
X363859Y220959D01*
X363168Y221489D01*
X362363Y221822D01*
X361500Y221936D01*
D02*
G37*
G36*
X536500Y221137D02*
X535688Y221030D01*
X534932Y220717D01*
X534282Y220218D01*
X533783Y219568D01*
X533470Y218812D01*
X533363Y218000D01*
X533470Y217188D01*
X533783Y216431D01*
X534282Y215782D01*
X534932Y215283D01*
X535688Y214970D01*
X536500Y214863D01*
X537312Y214970D01*
X538068Y215283D01*
X538718Y215782D01*
X539217Y216431D01*
X539530Y217188D01*
X539637Y218000D01*
X539530Y218812D01*
X539217Y219568D01*
X538718Y220218D01*
X538068Y220717D01*
X537312Y221030D01*
X536500Y221137D01*
D02*
G37*
G36*
X139400Y216066D02*
X138801Y215946D01*
X138293Y215607D01*
X137954Y215099D01*
X137835Y214500D01*
X137954Y213901D01*
X138293Y213393D01*
X138801Y213054D01*
X139400Y212934D01*
X139999Y213054D01*
X140507Y213393D01*
X140846Y213901D01*
X140965Y214500D01*
X140846Y215099D01*
X140507Y215607D01*
X139999Y215946D01*
X139400Y216066D01*
D02*
G37*
G36*
X-42100Y215739D02*
X-42699Y215620D01*
X-43207Y215280D01*
X-43546Y214772D01*
X-43666Y214173D01*
X-43546Y213574D01*
X-43207Y213066D01*
X-42699Y212727D01*
X-42100Y212608D01*
X-41501Y212727D01*
X-40993Y213066D01*
X-40654Y213574D01*
X-40534Y214173D01*
X-40654Y214772D01*
X-40993Y215280D01*
X-41501Y215620D01*
X-42100Y215739D01*
D02*
G37*
G36*
X167500Y215066D02*
X166901Y214946D01*
X166393Y214607D01*
X166054Y214099D01*
X165935Y213500D01*
X166054Y212901D01*
X166393Y212393D01*
X166901Y212054D01*
X167500Y211934D01*
X168099Y212054D01*
X168607Y212393D01*
X168946Y212901D01*
X169065Y213500D01*
X168946Y214099D01*
X168607Y214607D01*
X168099Y214946D01*
X167500Y215066D01*
D02*
G37*
G36*
X430100Y214617D02*
X429501Y214497D01*
X428993Y214158D01*
X428654Y213650D01*
X428535Y213051D01*
X428654Y212452D01*
X428993Y211944D01*
X429501Y211605D01*
X430100Y211486D01*
X430699Y211605D01*
X431207Y211944D01*
X431546Y212452D01*
X431666Y213051D01*
X431546Y213650D01*
X431207Y214158D01*
X430699Y214497D01*
X430100Y214617D01*
D02*
G37*
G36*
X529500Y217137D02*
X528688Y217030D01*
X527931Y216717D01*
X527282Y216218D01*
X526783Y215568D01*
X526470Y214812D01*
X526363Y214000D01*
X526470Y213188D01*
X526783Y212432D01*
X527282Y211782D01*
X527931Y211283D01*
X528688Y210970D01*
X529500Y210863D01*
X530312Y210970D01*
X531069Y211283D01*
X531718Y211782D01*
X532217Y212432D01*
X532530Y213188D01*
X532637Y214000D01*
X532530Y214812D01*
X532217Y215568D01*
X531718Y216218D01*
X531069Y216717D01*
X530312Y217030D01*
X529500Y217137D01*
D02*
G37*
G36*
X56635Y213666D02*
X56036Y213546D01*
X55528Y213207D01*
X55189Y212699D01*
X55070Y212100D01*
X55189Y211501D01*
X55528Y210993D01*
X56036Y210654D01*
X56635Y210535D01*
X57234Y210654D01*
X57742Y210993D01*
X58082Y211501D01*
X58201Y212100D01*
X58082Y212699D01*
X57742Y213207D01*
X57234Y213546D01*
X56635Y213666D01*
D02*
G37*
G36*
X31300Y212666D02*
X30701Y212546D01*
X30193Y212207D01*
X29854Y211699D01*
X29735Y211100D01*
X29854Y210501D01*
X30193Y209993D01*
X30701Y209654D01*
X31300Y209535D01*
X31899Y209654D01*
X32407Y209993D01*
X32746Y210501D01*
X32866Y211100D01*
X32746Y211699D01*
X32407Y212207D01*
X31899Y212546D01*
X31300Y212666D01*
D02*
G37*
G36*
X163000Y211235D02*
X162401Y211116D01*
X161893Y210776D01*
X161554Y210268D01*
X161434Y209669D01*
X161554Y209070D01*
X161893Y208562D01*
X162401Y208223D01*
X163000Y208104D01*
X163599Y208223D01*
X164107Y208562D01*
X164446Y209070D01*
X164566Y209669D01*
X164446Y210268D01*
X164107Y210776D01*
X163599Y211116D01*
X163000Y211235D01*
D02*
G37*
G36*
X-42000Y206290D02*
X-42599Y206171D01*
X-43107Y205831D01*
X-43446Y205324D01*
X-43565Y204724D01*
X-43446Y204125D01*
X-43107Y203617D01*
X-42599Y203278D01*
X-42000Y203159D01*
X-41401Y203278D01*
X-40893Y203617D01*
X-40554Y204125D01*
X-40435Y204724D01*
X-40554Y205324D01*
X-40893Y205831D01*
X-41401Y206171D01*
X-42000Y206290D01*
D02*
G37*
G36*
X48751Y205466D02*
X48152Y205346D01*
X47644Y205007D01*
X47305Y204499D01*
X47186Y203900D01*
X47305Y203301D01*
X47644Y202793D01*
X48152Y202454D01*
X48751Y202334D01*
X49350Y202454D01*
X49858Y202793D01*
X50197Y203301D01*
X50317Y203900D01*
X50197Y204499D01*
X49858Y205007D01*
X49350Y205346D01*
X48751Y205466D01*
D02*
G37*
G36*
X133500Y233391D02*
X132776Y233247D01*
X132163Y232837D01*
X131753Y232224D01*
X131609Y231500D01*
Y204689D01*
X131553Y204605D01*
X131409Y203881D01*
X131553Y203158D01*
X131963Y202544D01*
X132577Y202134D01*
X133300Y201990D01*
X134023Y202134D01*
X134637Y202544D01*
X134837Y202744D01*
X135247Y203358D01*
X135391Y204081D01*
Y231500D01*
X135247Y232224D01*
X134837Y232837D01*
X134223Y233247D01*
X133500Y233391D01*
D02*
G37*
G36*
X448516Y202381D02*
X447917Y202262D01*
X447409Y201923D01*
X447196Y201604D01*
X446651Y201558D01*
X446617Y201570D01*
X446558Y201658D01*
X446050Y201997D01*
X445451Y202117D01*
X444852Y201997D01*
X444344Y201658D01*
X444005Y201150D01*
X443886Y200551D01*
X444005Y199952D01*
X444344Y199444D01*
X444852Y199105D01*
X445451Y198986D01*
X446050Y199105D01*
X446558Y199444D01*
X446771Y199763D01*
X447316Y199809D01*
X447350Y199797D01*
X447409Y199709D01*
X447917Y199369D01*
X448516Y199250D01*
X449115Y199369D01*
X449623Y199709D01*
X449962Y200217D01*
X450081Y200816D01*
X449962Y201415D01*
X449623Y201923D01*
X449115Y202262D01*
X448516Y202381D01*
D02*
G37*
G36*
X425400Y203665D02*
X424801Y203546D01*
X424293Y203207D01*
X423954Y202699D01*
X423835Y202100D01*
X423954Y201501D01*
X424293Y200993D01*
X424801Y200654D01*
X425400Y200535D01*
X425999Y200654D01*
X426507Y200993D01*
X426846Y201501D01*
X426966Y202100D01*
X426846Y202699D01*
X426507Y203207D01*
X425999Y203546D01*
X425400Y203665D01*
D02*
G37*
G36*
X462400Y195765D02*
X461801Y195646D01*
X461293Y195307D01*
X460954Y194799D01*
X460835Y194200D01*
X460954Y193601D01*
X461293Y193093D01*
X461801Y192754D01*
X462400Y192634D01*
X462999Y192754D01*
X463507Y193093D01*
X463846Y193601D01*
X463966Y194200D01*
X463846Y194799D01*
X463507Y195307D01*
X462999Y195646D01*
X462400Y195765D01*
D02*
G37*
G36*
X198500Y195565D02*
X197901Y195446D01*
X197393Y195107D01*
X197054Y194599D01*
X196934Y194000D01*
X197054Y193401D01*
X197393Y192893D01*
X197901Y192554D01*
X198500Y192435D01*
X199099Y192554D01*
X199607Y192893D01*
X199946Y193401D01*
X200065Y194000D01*
X199946Y194599D01*
X199607Y195107D01*
X199099Y195446D01*
X198500Y195565D01*
D02*
G37*
G36*
X466963Y195294D02*
X466364Y195175D01*
X465856Y194835D01*
X465517Y194327D01*
X465398Y193728D01*
X465517Y193129D01*
X465856Y192621D01*
X466364Y192282D01*
X466963Y192163D01*
X467562Y192282D01*
X468070Y192621D01*
X468409Y193129D01*
X468529Y193728D01*
X468409Y194327D01*
X468070Y194835D01*
X467562Y195175D01*
X466963Y195294D01*
D02*
G37*
G36*
X403000Y194065D02*
X402401Y193946D01*
X401893Y193607D01*
X401554Y193099D01*
X401435Y192500D01*
X401554Y191901D01*
X401893Y191393D01*
X402401Y191054D01*
X403000Y190935D01*
X403599Y191054D01*
X404107Y191393D01*
X404446Y191901D01*
X404565Y192500D01*
X404446Y193099D01*
X404107Y193607D01*
X403599Y193946D01*
X403000Y194065D01*
D02*
G37*
G36*
X67100Y191366D02*
X66501Y191246D01*
X65993Y190907D01*
X65654Y190399D01*
X65535Y189800D01*
X65654Y189201D01*
X65993Y188693D01*
X66501Y188354D01*
X67100Y188234D01*
X67699Y188354D01*
X68207Y188693D01*
X68546Y189201D01*
X68665Y189800D01*
X68546Y190399D01*
X68207Y190907D01*
X67699Y191246D01*
X67100Y191366D01*
D02*
G37*
G36*
X60700D02*
X60101Y191246D01*
X59593Y190907D01*
X59254Y190399D01*
X59135Y189800D01*
X59254Y189201D01*
X59593Y188693D01*
X60101Y188354D01*
X60700Y188234D01*
X61299Y188354D01*
X61807Y188693D01*
X62146Y189201D01*
X62265Y189800D01*
X62146Y190399D01*
X61807Y190907D01*
X61299Y191246D01*
X60700Y191366D01*
D02*
G37*
G36*
X164000Y190066D02*
X163401Y189946D01*
X162893Y189607D01*
X162554Y189099D01*
X162434Y188500D01*
X162554Y187901D01*
X162893Y187393D01*
X163401Y187054D01*
X164000Y186934D01*
X164599Y187054D01*
X165107Y187393D01*
X165446Y187901D01*
X165566Y188500D01*
X165446Y189099D01*
X165107Y189607D01*
X164599Y189946D01*
X164000Y190066D01*
D02*
G37*
G36*
X145000D02*
X144401Y189946D01*
X143893Y189607D01*
X143554Y189099D01*
X143435Y188500D01*
X143554Y187901D01*
X143893Y187393D01*
X144401Y187054D01*
X145000Y186934D01*
X145599Y187054D01*
X146107Y187393D01*
X146446Y187901D01*
X146565Y188500D01*
X146446Y189099D01*
X146107Y189607D01*
X145599Y189946D01*
X145000Y190066D01*
D02*
G37*
G36*
X140500Y189566D02*
X139901Y189446D01*
X139393Y189107D01*
X139054Y188599D01*
X138935Y188000D01*
X139054Y187401D01*
X139393Y186893D01*
X139901Y186554D01*
X140500Y186434D01*
X141099Y186554D01*
X141607Y186893D01*
X141946Y187401D01*
X142066Y188000D01*
X141946Y188599D01*
X141607Y189107D01*
X141099Y189446D01*
X140500Y189566D01*
D02*
G37*
G36*
X253000Y187566D02*
X252401Y187446D01*
X251893Y187107D01*
X251554Y186599D01*
X251434Y186000D01*
X251554Y185401D01*
X251893Y184893D01*
X252401Y184554D01*
X253000Y184434D01*
X253599Y184554D01*
X254107Y184893D01*
X254446Y185401D01*
X254566Y186000D01*
X254446Y186599D01*
X254107Y187107D01*
X253599Y187446D01*
X253000Y187566D01*
D02*
G37*
G36*
X522500Y184565D02*
X521901Y184446D01*
X521393Y184107D01*
X521054Y183599D01*
X520934Y183000D01*
X521054Y182401D01*
X521393Y181893D01*
X521901Y181554D01*
X522500Y181435D01*
X523099Y181554D01*
X523607Y181893D01*
X523946Y182401D01*
X524065Y183000D01*
X523946Y183599D01*
X523607Y184107D01*
X523099Y184446D01*
X522500Y184565D01*
D02*
G37*
G36*
X141000Y184065D02*
X140401Y183946D01*
X139893Y183607D01*
X139554Y183099D01*
X139435Y182500D01*
X139554Y181901D01*
X139893Y181393D01*
X140401Y181054D01*
X141000Y180935D01*
X141599Y181054D01*
X142107Y181393D01*
X142446Y181901D01*
X142566Y182500D01*
X142446Y183099D01*
X142107Y183607D01*
X141599Y183946D01*
X141000Y184065D01*
D02*
G37*
G36*
X133000D02*
X132401Y183946D01*
X131893Y183607D01*
X131554Y183099D01*
X131435Y182500D01*
X131554Y181901D01*
X131893Y181393D01*
X132401Y181054D01*
X133000Y180935D01*
X133599Y181054D01*
X134107Y181393D01*
X134446Y181901D01*
X134565Y182500D01*
X134446Y183099D01*
X134107Y183607D01*
X133599Y183946D01*
X133000Y184065D01*
D02*
G37*
G36*
X430100Y183117D02*
X429501Y182998D01*
X428993Y182658D01*
X428654Y182150D01*
X428535Y181551D01*
X428654Y180952D01*
X428993Y180444D01*
X429501Y180105D01*
X430100Y179986D01*
X430699Y180105D01*
X431207Y180444D01*
X431546Y180952D01*
X431666Y181551D01*
X431546Y182150D01*
X431207Y182658D01*
X430699Y182998D01*
X430100Y183117D01*
D02*
G37*
G36*
X60000Y182565D02*
X59401Y182446D01*
X58893Y182107D01*
X58554Y181599D01*
X58434Y181000D01*
X58554Y180401D01*
X58893Y179893D01*
X59401Y179554D01*
X60000Y179435D01*
X60599Y179554D01*
X61107Y179893D01*
X61446Y180401D01*
X61566Y181000D01*
X61446Y181599D01*
X61107Y182107D01*
X60599Y182446D01*
X60000Y182565D01*
D02*
G37*
G36*
X258500Y181565D02*
X257901Y181446D01*
X257393Y181107D01*
X257054Y180599D01*
X256934Y180000D01*
X257054Y179401D01*
X257393Y178893D01*
X257901Y178554D01*
X258500Y178435D01*
X259099Y178554D01*
X259607Y178893D01*
X259946Y179401D01*
X260066Y180000D01*
X259946Y180599D01*
X259607Y181107D01*
X259099Y181446D01*
X258500Y181565D01*
D02*
G37*
G36*
X539610Y183110D02*
X533390D01*
Y176890D01*
X539610D01*
Y183110D01*
D02*
G37*
G36*
X198500Y178066D02*
X197901Y177946D01*
X197393Y177607D01*
X197054Y177099D01*
X196934Y176500D01*
X197054Y175901D01*
X197393Y175393D01*
X197901Y175054D01*
X198500Y174934D01*
X199099Y175054D01*
X199607Y175393D01*
X199946Y175901D01*
X200065Y176500D01*
X199946Y177099D01*
X199607Y177607D01*
X199099Y177946D01*
X198500Y178066D01*
D02*
G37*
G36*
X65000Y177266D02*
X64401Y177146D01*
X63893Y176807D01*
X63554Y176299D01*
X63434Y175700D01*
X63554Y175101D01*
X63893Y174593D01*
X64401Y174254D01*
X65000Y174135D01*
X65599Y174254D01*
X66107Y174593D01*
X66446Y175101D01*
X66566Y175700D01*
X66446Y176299D01*
X66107Y176807D01*
X65599Y177146D01*
X65000Y177266D01*
D02*
G37*
G36*
X158100Y184900D02*
X151200D01*
Y183846D01*
X151119Y183441D01*
X151200Y183036D01*
Y179515D01*
X151119Y179110D01*
X151200Y178705D01*
Y175185D01*
X151119Y174779D01*
X151200Y174375D01*
Y173300D01*
X158100D01*
Y174379D01*
X158180Y174779D01*
X158100Y175180D01*
Y178709D01*
X158180Y179110D01*
X158100Y179511D01*
Y183040D01*
X158180Y183441D01*
X158100Y183842D01*
Y184900D01*
D02*
G37*
G36*
X529500Y179137D02*
X528688Y179030D01*
X527931Y178717D01*
X527282Y178218D01*
X526783Y177568D01*
X526470Y176812D01*
X526363Y176000D01*
X526470Y175188D01*
X526783Y174432D01*
X527282Y173782D01*
X527931Y173283D01*
X528688Y172970D01*
X529500Y172863D01*
X530312Y172970D01*
X531069Y173283D01*
X531718Y173782D01*
X532217Y174432D01*
X532530Y175188D01*
X532637Y176000D01*
X532530Y176812D01*
X532217Y177568D01*
X531718Y178218D01*
X531069Y178717D01*
X530312Y179030D01*
X529500Y179137D01*
D02*
G37*
G36*
X361500Y178836D02*
X360637Y178722D01*
X359832Y178389D01*
X359141Y177859D01*
X358611Y177168D01*
X358278Y176363D01*
X358164Y175500D01*
X358278Y174637D01*
X358611Y173832D01*
X359141Y173141D01*
X359832Y172611D01*
X360637Y172278D01*
X361500Y172164D01*
X362363Y172278D01*
X363168Y172611D01*
X363859Y173141D01*
X364389Y173832D01*
X364722Y174637D01*
X364836Y175500D01*
X364722Y176363D01*
X364389Y177168D01*
X363859Y177859D01*
X363168Y178389D01*
X362363Y178722D01*
X361500Y178836D01*
D02*
G37*
G36*
X351500D02*
X350637Y178722D01*
X349832Y178389D01*
X349141Y177859D01*
X348611Y177168D01*
X348278Y176363D01*
X348164Y175500D01*
X348278Y174637D01*
X348611Y173832D01*
X349141Y173141D01*
X349832Y172611D01*
X350637Y172278D01*
X351500Y172164D01*
X352363Y172278D01*
X353168Y172611D01*
X353859Y173141D01*
X354389Y173832D01*
X354722Y174637D01*
X354836Y175500D01*
X354722Y176363D01*
X354389Y177168D01*
X353859Y177859D01*
X353168Y178389D01*
X352363Y178722D01*
X351500Y178836D01*
D02*
G37*
G36*
X-42000Y174794D02*
X-42599Y174675D01*
X-43107Y174335D01*
X-43446Y173827D01*
X-43565Y173228D01*
X-43446Y172629D01*
X-43107Y172121D01*
X-42599Y171782D01*
X-42000Y171663D01*
X-41401Y171782D01*
X-40893Y172121D01*
X-40554Y172629D01*
X-40435Y173228D01*
X-40554Y173827D01*
X-40893Y174335D01*
X-41401Y174675D01*
X-42000Y174794D01*
D02*
G37*
G36*
X177000Y174565D02*
X176401Y174446D01*
X175893Y174107D01*
X175554Y173599D01*
X175435Y173000D01*
X175554Y172401D01*
X175893Y171893D01*
X176401Y171554D01*
X177000Y171434D01*
X177599Y171554D01*
X178107Y171893D01*
X178446Y172401D01*
X178566Y173000D01*
X178446Y173599D01*
X178107Y174107D01*
X177599Y174446D01*
X177000Y174565D01*
D02*
G37*
G36*
X465500Y170765D02*
X464901Y170646D01*
X464393Y170307D01*
X464149Y169941D01*
X463690Y169880D01*
X463570Y169907D01*
X463558Y169925D01*
X463050Y170264D01*
X462451Y170384D01*
X461852Y170264D01*
X461344Y169925D01*
X461005Y169417D01*
X460886Y168818D01*
X461005Y168219D01*
X461344Y167711D01*
X461852Y167372D01*
X462451Y167253D01*
X463050Y167372D01*
X463558Y167711D01*
X463802Y168077D01*
X464261Y168138D01*
X464381Y168111D01*
X464393Y168093D01*
X464901Y167754D01*
X465500Y167634D01*
X466099Y167754D01*
X466607Y168093D01*
X466946Y168601D01*
X467065Y169200D01*
X466946Y169799D01*
X466607Y170307D01*
X466099Y170646D01*
X465500Y170765D01*
D02*
G37*
G36*
X425400Y172565D02*
X424801Y172446D01*
X424293Y172107D01*
X423954Y171599D01*
X423835Y171000D01*
X423954Y170401D01*
X424293Y169893D01*
X424801Y169554D01*
X425400Y169434D01*
X425999Y169554D01*
X426507Y169893D01*
X426846Y170401D01*
X426966Y171000D01*
X426846Y171599D01*
X426507Y172107D01*
X425999Y172446D01*
X425400Y172565D01*
D02*
G37*
G36*
X164000Y172065D02*
X163401Y171946D01*
X162893Y171607D01*
X162554Y171099D01*
X162434Y170500D01*
X162554Y169901D01*
X162893Y169393D01*
X163401Y169054D01*
X164000Y168935D01*
X164599Y169054D01*
X165107Y169393D01*
X165446Y169901D01*
X165566Y170500D01*
X165446Y171099D01*
X165107Y171607D01*
X164599Y171946D01*
X164000Y172065D01*
D02*
G37*
G36*
X536500Y175137D02*
X535688Y175030D01*
X534932Y174717D01*
X534282Y174218D01*
X533783Y173568D01*
X533470Y172812D01*
X533363Y172000D01*
X533470Y171188D01*
X533783Y170431D01*
X534282Y169782D01*
X534932Y169283D01*
X535688Y168970D01*
X536500Y168863D01*
X537312Y168970D01*
X538068Y169283D01*
X538718Y169782D01*
X539217Y170431D01*
X539530Y171188D01*
X539637Y172000D01*
X539530Y172812D01*
X539217Y173568D01*
X538718Y174218D01*
X538068Y174717D01*
X537312Y175030D01*
X536500Y175137D01*
D02*
G37*
G36*
X445400Y170466D02*
X444801Y170346D01*
X444293Y170007D01*
X443954Y169499D01*
X443834Y168900D01*
X443954Y168301D01*
X444293Y167793D01*
X444801Y167454D01*
X445400Y167334D01*
X445999Y167454D01*
X446507Y167793D01*
X446846Y168301D01*
X446966Y168900D01*
X446846Y169499D01*
X446507Y170007D01*
X445999Y170346D01*
X445400Y170466D01*
D02*
G37*
G36*
X449800Y169866D02*
X449201Y169746D01*
X448693Y169407D01*
X448354Y168899D01*
X448235Y168300D01*
X448354Y167701D01*
X448693Y167193D01*
X449201Y166854D01*
X449800Y166735D01*
X450399Y166854D01*
X450907Y167193D01*
X451246Y167701D01*
X451366Y168300D01*
X451246Y168899D01*
X450907Y169407D01*
X450399Y169746D01*
X449800Y169866D01*
D02*
G37*
G36*
X403000Y168565D02*
X402401Y168446D01*
X401893Y168107D01*
X401554Y167599D01*
X401435Y167000D01*
X401554Y166401D01*
X401893Y165893D01*
X402401Y165554D01*
X403000Y165435D01*
X403599Y165554D01*
X404107Y165893D01*
X404446Y166401D01*
X404565Y167000D01*
X404446Y167599D01*
X404107Y168107D01*
X403599Y168446D01*
X403000Y168565D01*
D02*
G37*
G36*
X5500D02*
X4901Y168446D01*
X4393Y168107D01*
X4054Y167599D01*
X3934Y167000D01*
X4054Y166401D01*
X4393Y165893D01*
X4901Y165554D01*
X5500Y165435D01*
X6099Y165554D01*
X6607Y165893D01*
X6946Y166401D01*
X7066Y167000D01*
X6946Y167599D01*
X6607Y168107D01*
X6099Y168446D01*
X5500Y168565D01*
D02*
G37*
G36*
X20000Y168465D02*
X19401Y168346D01*
X18893Y168007D01*
X18554Y167499D01*
X18435Y166900D01*
X18554Y166301D01*
X18893Y165793D01*
X19401Y165454D01*
X20000Y165334D01*
X20599Y165454D01*
X21107Y165793D01*
X21446Y166301D01*
X21565Y166900D01*
X21446Y167499D01*
X21107Y168007D01*
X20599Y168346D01*
X20000Y168465D01*
D02*
G37*
G36*
X529500Y171137D02*
X528688Y171030D01*
X527931Y170717D01*
X527282Y170218D01*
X526783Y169569D01*
X526470Y168812D01*
X526363Y168000D01*
X526470Y167188D01*
X526783Y166431D01*
X527282Y165782D01*
X527931Y165283D01*
X528688Y164970D01*
X529500Y164863D01*
X530312Y164970D01*
X531069Y165283D01*
X531718Y165782D01*
X532217Y166431D01*
X532530Y167188D01*
X532637Y168000D01*
X532530Y168812D01*
X532217Y169569D01*
X531718Y170218D01*
X531069Y170717D01*
X530312Y171030D01*
X529500Y171137D01*
D02*
G37*
G36*
X-35800Y166866D02*
X-36399Y166746D01*
X-36907Y166407D01*
X-37246Y165899D01*
X-37365Y165300D01*
X-37246Y164701D01*
X-36907Y164193D01*
X-36399Y163854D01*
X-35800Y163734D01*
X-35201Y163854D01*
X-34693Y164193D01*
X-34354Y164701D01*
X-34234Y165300D01*
X-34354Y165899D01*
X-34693Y166407D01*
X-35201Y166746D01*
X-35800Y166866D01*
D02*
G37*
G36*
X167500Y165566D02*
X166901Y165446D01*
X166393Y165107D01*
X166054Y164599D01*
X165935Y164000D01*
X166054Y163401D01*
X166393Y162893D01*
X166901Y162554D01*
X167500Y162434D01*
X168099Y162554D01*
X168607Y162893D01*
X168946Y163401D01*
X169065Y164000D01*
X168946Y164599D01*
X168607Y165107D01*
X168099Y165446D01*
X167500Y165566D01*
D02*
G37*
G36*
X-42000Y165366D02*
X-42599Y165246D01*
X-43107Y164907D01*
X-43446Y164399D01*
X-43565Y163800D01*
X-43446Y163201D01*
X-43107Y162693D01*
X-42599Y162354D01*
X-42000Y162234D01*
X-41401Y162354D01*
X-40893Y162693D01*
X-40554Y163201D01*
X-40435Y163800D01*
X-40554Y164399D01*
X-40893Y164907D01*
X-41401Y165246D01*
X-42000Y165366D01*
D02*
G37*
G36*
X354807Y168807D02*
X348193D01*
Y162193D01*
X354807D01*
Y168807D01*
D02*
G37*
G36*
X361500Y168836D02*
X360637Y168722D01*
X359832Y168389D01*
X359141Y167859D01*
X358611Y167168D01*
X358278Y166363D01*
X358164Y165500D01*
X358278Y164637D01*
X358611Y163832D01*
X359141Y163141D01*
X359832Y162611D01*
X360637Y162278D01*
X361500Y162164D01*
X362363Y162278D01*
X363168Y162611D01*
X363859Y163141D01*
X364389Y163832D01*
X364722Y164637D01*
X364836Y165500D01*
X364722Y166363D01*
X364389Y167168D01*
X363859Y167859D01*
X363168Y168389D01*
X362363Y168722D01*
X361500Y168836D01*
D02*
G37*
G36*
X521542Y165023D02*
X520943Y164904D01*
X520435Y164565D01*
X520096Y164057D01*
X519977Y163458D01*
X520096Y162859D01*
X520435Y162351D01*
X520943Y162011D01*
X521542Y161892D01*
X522141Y162011D01*
X522649Y162351D01*
X522989Y162859D01*
X523108Y163458D01*
X522989Y164057D01*
X522649Y164565D01*
X522141Y164904D01*
X521542Y165023D01*
D02*
G37*
G36*
X263000Y164566D02*
X262401Y164446D01*
X261893Y164107D01*
X261554Y163599D01*
X261435Y163000D01*
X261554Y162401D01*
X261893Y161893D01*
X262401Y161554D01*
X263000Y161434D01*
X263599Y161554D01*
X264107Y161893D01*
X264446Y162401D01*
X264565Y163000D01*
X264446Y163599D01*
X264107Y164107D01*
X263599Y164446D01*
X263000Y164566D01*
D02*
G37*
G36*
X536500Y167137D02*
X535688Y167030D01*
X534932Y166717D01*
X534282Y166218D01*
X533783Y165568D01*
X533470Y164812D01*
X533363Y164000D01*
X533470Y163188D01*
X533783Y162432D01*
X534282Y161782D01*
X534932Y161283D01*
X535688Y160970D01*
X536500Y160863D01*
X537312Y160970D01*
X538068Y161283D01*
X538718Y161782D01*
X539217Y162432D01*
X539530Y163188D01*
X539637Y164000D01*
X539530Y164812D01*
X539217Y165568D01*
X538718Y166218D01*
X538068Y166717D01*
X537312Y167030D01*
X536500Y167137D01*
D02*
G37*
G36*
X511500Y161565D02*
X510901Y161446D01*
X510393Y161107D01*
X510054Y160599D01*
X509935Y160000D01*
X510054Y159401D01*
X510393Y158893D01*
X510901Y158554D01*
X511500Y158434D01*
X512099Y158554D01*
X512607Y158893D01*
X512946Y159401D01*
X513065Y160000D01*
X512946Y160599D01*
X512607Y161107D01*
X512099Y161446D01*
X511500Y161565D01*
D02*
G37*
G36*
X163000D02*
X162401Y161446D01*
X161893Y161107D01*
X161554Y160599D01*
X161434Y160000D01*
X161554Y159401D01*
X161893Y158893D01*
X162401Y158554D01*
X163000Y158434D01*
X163599Y158554D01*
X164107Y158893D01*
X164446Y159401D01*
X164566Y160000D01*
X164446Y160599D01*
X164107Y161107D01*
X163599Y161446D01*
X163000Y161565D01*
D02*
G37*
G36*
X529500Y163137D02*
X528688Y163030D01*
X527931Y162717D01*
X527282Y162218D01*
X526783Y161568D01*
X526470Y160812D01*
X526363Y160000D01*
X526470Y159188D01*
X526783Y158431D01*
X527282Y157782D01*
X527931Y157283D01*
X528688Y156970D01*
X529500Y156863D01*
X530312Y156970D01*
X531069Y157283D01*
X531718Y157782D01*
X532217Y158431D01*
X532530Y159188D01*
X532637Y160000D01*
X532530Y160812D01*
X532217Y161568D01*
X531718Y162218D01*
X531069Y162717D01*
X530312Y163030D01*
X529500Y163137D01*
D02*
G37*
G36*
X228500Y159565D02*
X227901Y159446D01*
X227393Y159107D01*
X227054Y158599D01*
X226935Y158000D01*
X227054Y157401D01*
X227393Y156893D01*
X227901Y156554D01*
X228500Y156435D01*
X229099Y156554D01*
X229607Y156893D01*
X229946Y157401D01*
X230065Y158000D01*
X229946Y158599D01*
X229607Y159107D01*
X229099Y159446D01*
X228500Y159565D01*
D02*
G37*
G36*
X209000D02*
X208401Y159446D01*
X207893Y159107D01*
X207554Y158599D01*
X207435Y158000D01*
X207554Y157401D01*
X207893Y156893D01*
X208401Y156554D01*
X209000Y156435D01*
X209599Y156554D01*
X210107Y156893D01*
X210446Y157401D01*
X210565Y158000D01*
X210446Y158599D01*
X210107Y159107D01*
X209599Y159446D01*
X209000Y159565D01*
D02*
G37*
G36*
X430100Y158117D02*
X429501Y157998D01*
X428993Y157658D01*
X428654Y157150D01*
X428535Y156551D01*
X428654Y155952D01*
X428993Y155444D01*
X429501Y155105D01*
X430100Y154986D01*
X430699Y155105D01*
X431207Y155444D01*
X431546Y155952D01*
X431666Y156551D01*
X431546Y157150D01*
X431207Y157658D01*
X430699Y157998D01*
X430100Y158117D01*
D02*
G37*
G36*
X536500Y159137D02*
X535688Y159030D01*
X534932Y158717D01*
X534282Y158218D01*
X533783Y157569D01*
X533470Y156812D01*
X533363Y156000D01*
X533470Y155188D01*
X533783Y154431D01*
X534282Y153782D01*
X534932Y153283D01*
X535688Y152970D01*
X536500Y152863D01*
X537312Y152970D01*
X538068Y153283D01*
X538718Y153782D01*
X539217Y154431D01*
X539530Y155188D01*
X539637Y156000D01*
X539530Y156812D01*
X539217Y157569D01*
X538718Y158218D01*
X538068Y158717D01*
X537312Y159030D01*
X536500Y159137D01*
D02*
G37*
G36*
X-42000Y155896D02*
X-42599Y155777D01*
X-43107Y155438D01*
X-43446Y154930D01*
X-43565Y154331D01*
X-43446Y153732D01*
X-43107Y153224D01*
X-42599Y152884D01*
X-42000Y152765D01*
X-41401Y152884D01*
X-40893Y153224D01*
X-40554Y153732D01*
X-40435Y154331D01*
X-40554Y154930D01*
X-40893Y155438D01*
X-41401Y155777D01*
X-42000Y155896D01*
D02*
G37*
G36*
X205800Y153165D02*
X205201Y153046D01*
X204693Y152707D01*
X204354Y152199D01*
X204235Y151600D01*
X204354Y151001D01*
X204693Y150493D01*
X205201Y150154D01*
X205800Y150034D01*
X206399Y150154D01*
X206907Y150493D01*
X207246Y151001D01*
X207365Y151600D01*
X207246Y152199D01*
X206907Y152707D01*
X206399Y153046D01*
X205800Y153165D01*
D02*
G37*
G36*
X195320Y154384D02*
X194721Y154265D01*
X194213Y153926D01*
X193874Y153418D01*
X193755Y152819D01*
X193874Y152220D01*
X194213Y151712D01*
X194721Y151373D01*
X195320Y151253D01*
X195919Y151373D01*
X196427Y151712D01*
X196484Y151796D01*
X196955Y151601D01*
X196934Y151500D01*
X197054Y150901D01*
X197393Y150393D01*
X197901Y150054D01*
X198500Y149934D01*
X199099Y150054D01*
X199607Y150393D01*
X199946Y150901D01*
X200065Y151500D01*
X199946Y152099D01*
X199607Y152607D01*
X199099Y152946D01*
X198500Y153066D01*
X197901Y152946D01*
X197393Y152607D01*
X197336Y152522D01*
X196865Y152717D01*
X196886Y152819D01*
X196766Y153418D01*
X196427Y153926D01*
X195919Y154265D01*
X195320Y154384D01*
D02*
G37*
G36*
X529500Y155137D02*
X528688Y155030D01*
X527931Y154717D01*
X527282Y154218D01*
X526783Y153568D01*
X526470Y152812D01*
X526363Y152000D01*
X526470Y151188D01*
X526783Y150432D01*
X527282Y149782D01*
X527931Y149283D01*
X528688Y148970D01*
X529500Y148863D01*
X530312Y148970D01*
X531069Y149283D01*
X531718Y149782D01*
X532217Y150432D01*
X532530Y151188D01*
X532637Y152000D01*
X532530Y152812D01*
X532217Y153568D01*
X531718Y154218D01*
X531069Y154717D01*
X530312Y155030D01*
X529500Y155137D01*
D02*
G37*
G36*
X31448Y163800D02*
X800Y163700D01*
X790Y163690D01*
Y148658D01*
X31329D01*
X31448Y148539D01*
Y163800D01*
D02*
G37*
G36*
X80300Y151665D02*
X79701Y151546D01*
X79193Y151207D01*
X78854Y150699D01*
X78734Y150100D01*
X78854Y149501D01*
X79193Y148993D01*
X79701Y148654D01*
X80300Y148535D01*
X80899Y148654D01*
X81407Y148993D01*
X81746Y149501D01*
X81866Y150100D01*
X81746Y150699D01*
X81407Y151207D01*
X80899Y151546D01*
X80300Y151665D01*
D02*
G37*
G36*
X360300Y150865D02*
X359701Y150746D01*
X359193Y150407D01*
X358854Y149899D01*
X358734Y149300D01*
X358854Y148701D01*
X359193Y148193D01*
X359701Y147854D01*
X360300Y147734D01*
X360899Y147854D01*
X361407Y148193D01*
X361746Y148701D01*
X361865Y149300D01*
X361746Y149899D01*
X361407Y150407D01*
X360899Y150746D01*
X360300Y150865D01*
D02*
G37*
G36*
X366200Y150665D02*
X365601Y150546D01*
X365093Y150207D01*
X364754Y149699D01*
X364634Y149100D01*
X364754Y148501D01*
X365093Y147993D01*
X365601Y147654D01*
X366200Y147535D01*
X366799Y147654D01*
X367307Y147993D01*
X367646Y148501D01*
X367765Y149100D01*
X367646Y149699D01*
X367307Y150207D01*
X366799Y150546D01*
X366200Y150665D01*
D02*
G37*
G36*
X268000Y149565D02*
X267401Y149446D01*
X266893Y149107D01*
X266554Y148599D01*
X266435Y148000D01*
X266554Y147401D01*
X266893Y146893D01*
X267401Y146554D01*
X268000Y146434D01*
X268599Y146554D01*
X269107Y146893D01*
X269446Y147401D01*
X269566Y148000D01*
X269446Y148599D01*
X269107Y149107D01*
X268599Y149446D01*
X268000Y149565D01*
D02*
G37*
G36*
X53000Y157765D02*
X52401Y157646D01*
X51893Y157307D01*
X51554Y156799D01*
X51434Y156200D01*
X51554Y155601D01*
X51893Y155093D01*
X52290Y154828D01*
X52328Y154665D01*
Y154435D01*
X52290Y154272D01*
X51893Y154007D01*
X51554Y153499D01*
X51434Y152900D01*
X51554Y152301D01*
X51893Y151793D01*
X52212Y151580D01*
Y151020D01*
X51893Y150807D01*
X51554Y150299D01*
X51434Y149700D01*
X51554Y149101D01*
X51893Y148593D01*
X52290Y148328D01*
X52328Y148165D01*
Y147935D01*
X52290Y147772D01*
X51893Y147507D01*
X51554Y146999D01*
X51434Y146400D01*
X51554Y145801D01*
X51893Y145293D01*
X52401Y144954D01*
X53000Y144834D01*
X53599Y144954D01*
X54107Y145293D01*
X54446Y145801D01*
X54566Y146400D01*
X54446Y146999D01*
X54107Y147507D01*
X53710Y147772D01*
X53672Y147935D01*
Y148165D01*
X53710Y148328D01*
X54107Y148593D01*
X54446Y149101D01*
X54566Y149700D01*
X54446Y150299D01*
X54107Y150807D01*
X53788Y151020D01*
Y151580D01*
X54107Y151793D01*
X54446Y152301D01*
X54566Y152900D01*
X54446Y153499D01*
X54107Y154007D01*
X53710Y154272D01*
X53672Y154435D01*
Y154665D01*
X53710Y154828D01*
X54107Y155093D01*
X54446Y155601D01*
X54566Y156200D01*
X54446Y156799D01*
X54107Y157307D01*
X53599Y157646D01*
X53000Y157765D01*
D02*
G37*
G36*
X448506Y145472D02*
X447907Y145353D01*
X447399Y145013D01*
X447227Y144755D01*
X446636Y144740D01*
X446558Y144856D01*
X446050Y145195D01*
X445451Y145314D01*
X444852Y145195D01*
X444344Y144856D01*
X444005Y144348D01*
X443886Y143749D01*
X444005Y143150D01*
X444344Y142642D01*
X444852Y142303D01*
X445451Y142183D01*
X446050Y142303D01*
X446558Y142642D01*
X446731Y142900D01*
X447322Y142915D01*
X447399Y142799D01*
X447907Y142460D01*
X448506Y142341D01*
X449105Y142460D01*
X449613Y142799D01*
X449953Y143307D01*
X450072Y143906D01*
X449953Y144505D01*
X449613Y145013D01*
X449105Y145353D01*
X448506Y145472D01*
D02*
G37*
G36*
X263000Y147565D02*
X262401Y147446D01*
X261893Y147107D01*
X261554Y146599D01*
X261435Y146000D01*
X261554Y145401D01*
X261893Y144893D01*
X262401Y144554D01*
X263000Y144434D01*
X263599Y144554D01*
X264107Y144893D01*
X264446Y145401D01*
X264565Y146000D01*
X264446Y146599D01*
X264107Y147107D01*
X263599Y147446D01*
X263000Y147565D01*
D02*
G37*
G36*
X84500Y146865D02*
X83901Y146746D01*
X83393Y146407D01*
X83054Y145899D01*
X82934Y145300D01*
X83054Y144701D01*
X83393Y144193D01*
X83901Y143854D01*
X84500Y143735D01*
X85099Y143854D01*
X85607Y144193D01*
X85946Y144701D01*
X86066Y145300D01*
X85946Y145899D01*
X85607Y146407D01*
X85099Y146746D01*
X84500Y146865D01*
D02*
G37*
G36*
X425400Y146666D02*
X424801Y146546D01*
X424293Y146207D01*
X423954Y145699D01*
X423835Y145100D01*
X423954Y144501D01*
X424293Y143993D01*
X424801Y143654D01*
X425400Y143535D01*
X425999Y143654D01*
X426507Y143993D01*
X426846Y144501D01*
X426966Y145100D01*
X426846Y145699D01*
X426507Y146207D01*
X425999Y146546D01*
X425400Y146666D01*
D02*
G37*
G36*
X-42000Y146447D02*
X-42599Y146328D01*
X-43107Y145989D01*
X-43446Y145481D01*
X-43565Y144882D01*
X-43446Y144283D01*
X-43107Y143775D01*
X-42599Y143436D01*
X-42000Y143316D01*
X-41401Y143436D01*
X-40893Y143775D01*
X-40554Y144283D01*
X-40435Y144882D01*
X-40554Y145481D01*
X-40893Y145989D01*
X-41401Y146328D01*
X-42000Y146447D01*
D02*
G37*
G36*
X222600Y154400D02*
X215700D01*
Y153346D01*
X215619Y152941D01*
X215700Y152536D01*
Y149015D01*
X215619Y148610D01*
X215700Y148205D01*
Y144685D01*
X215619Y144280D01*
X215700Y143875D01*
Y142800D01*
X222600D01*
Y143878D01*
X222680Y144280D01*
X222600Y144681D01*
Y148209D01*
X222680Y148610D01*
X222600Y149011D01*
Y152540D01*
X222680Y152941D01*
X222600Y153342D01*
Y154400D01*
D02*
G37*
G36*
X293500Y145565D02*
X292901Y145446D01*
X292393Y145107D01*
X292054Y144599D01*
X291934Y144000D01*
X292054Y143401D01*
X292393Y142893D01*
X292901Y142554D01*
X293500Y142435D01*
X294099Y142554D01*
X294607Y142893D01*
X294946Y143401D01*
X295065Y144000D01*
X294946Y144599D01*
X294607Y145107D01*
X294099Y145446D01*
X293500Y145565D01*
D02*
G37*
G36*
X47500Y145366D02*
X46901Y145246D01*
X46393Y144907D01*
X46054Y144399D01*
X45935Y143800D01*
X46054Y143201D01*
X46393Y142693D01*
X46901Y142354D01*
X47500Y142235D01*
X48099Y142354D01*
X48607Y142693D01*
X48946Y143201D01*
X49066Y143800D01*
X48946Y144399D01*
X48607Y144907D01*
X48099Y145246D01*
X47500Y145366D01*
D02*
G37*
G36*
X462451Y145166D02*
X461852Y145046D01*
X461344Y144707D01*
X461005Y144199D01*
X460886Y143600D01*
X461005Y143001D01*
X461344Y142493D01*
X461852Y142154D01*
X462451Y142034D01*
X463050Y142154D01*
X463558Y142493D01*
X463898Y143001D01*
X464017Y143600D01*
X463898Y144199D01*
X463558Y144707D01*
X463050Y145046D01*
X462451Y145166D01*
D02*
G37*
G36*
X466935Y144400D02*
X466335Y144281D01*
X465828Y143942D01*
X465488Y143434D01*
X465369Y142835D01*
X465488Y142236D01*
X465828Y141728D01*
X466335Y141388D01*
X466935Y141269D01*
X467534Y141388D01*
X468042Y141728D01*
X468381Y142236D01*
X468500Y142835D01*
X468381Y143434D01*
X468042Y143942D01*
X467534Y144281D01*
X466935Y144400D01*
D02*
G37*
G36*
X241600Y144265D02*
X241001Y144146D01*
X240493Y143807D01*
X240154Y143299D01*
X240035Y142700D01*
X240154Y142101D01*
X240493Y141593D01*
X241001Y141254D01*
X241600Y141135D01*
X242199Y141254D01*
X242707Y141593D01*
X243046Y142101D01*
X243165Y142700D01*
X243046Y143299D01*
X242707Y143807D01*
X242199Y144146D01*
X241600Y144265D01*
D02*
G37*
G36*
X338500Y146765D02*
X337901Y146646D01*
X337393Y146307D01*
X337054Y145799D01*
X336934Y145200D01*
X337054Y144601D01*
X337393Y144093D01*
X337468Y144043D01*
X337332Y143532D01*
X336901Y143446D01*
X336393Y143107D01*
X336054Y142599D01*
X335934Y142000D01*
X336054Y141401D01*
X336393Y140893D01*
X336901Y140554D01*
X337500Y140435D01*
X338099Y140554D01*
X338607Y140893D01*
X338946Y141401D01*
X339066Y142000D01*
X338946Y142599D01*
X338607Y143107D01*
X338532Y143157D01*
X338668Y143668D01*
X339099Y143754D01*
X339607Y144093D01*
X339946Y144601D01*
X340066Y145200D01*
X339946Y145799D01*
X339607Y146307D01*
X339099Y146646D01*
X338500Y146765D01*
D02*
G37*
G36*
X403000Y143066D02*
X402401Y142946D01*
X401893Y142607D01*
X401554Y142099D01*
X401435Y141500D01*
X401554Y140901D01*
X401893Y140393D01*
X402401Y140054D01*
X403000Y139935D01*
X403599Y140054D01*
X404107Y140393D01*
X404446Y140901D01*
X404565Y141500D01*
X404446Y142099D01*
X404107Y142607D01*
X403599Y142946D01*
X403000Y143066D01*
D02*
G37*
G36*
X274000D02*
X273401Y142946D01*
X272893Y142607D01*
X272554Y142099D01*
X272434Y141500D01*
X272554Y140901D01*
X272893Y140393D01*
X273401Y140054D01*
X274000Y139935D01*
X274599Y140054D01*
X275107Y140393D01*
X275446Y140901D01*
X275566Y141500D01*
X275446Y142099D01*
X275107Y142607D01*
X274599Y142946D01*
X274000Y143066D01*
D02*
G37*
G36*
X44000Y142566D02*
X43401Y142446D01*
X42893Y142107D01*
X42554Y141599D01*
X42434Y141000D01*
X42554Y140401D01*
X42893Y139893D01*
X43401Y139554D01*
X44000Y139435D01*
X44599Y139554D01*
X45107Y139893D01*
X45446Y140401D01*
X45566Y141000D01*
X45446Y141599D01*
X45107Y142107D01*
X44599Y142446D01*
X44000Y142566D01*
D02*
G37*
G36*
X228500Y141066D02*
X227901Y140946D01*
X227393Y140607D01*
X227054Y140099D01*
X226935Y139500D01*
X227054Y138901D01*
X227393Y138393D01*
X227901Y138054D01*
X228500Y137935D01*
X229099Y138054D01*
X229607Y138393D01*
X229946Y138901D01*
X230065Y139500D01*
X229946Y140099D01*
X229607Y140607D01*
X229099Y140946D01*
X228500Y141066D01*
D02*
G37*
G36*
X20000Y139766D02*
X19401Y139646D01*
X18893Y139307D01*
X18554Y138799D01*
X18435Y138200D01*
X18554Y137601D01*
X18893Y137093D01*
X19401Y136754D01*
X20000Y136635D01*
X20599Y136754D01*
X21107Y137093D01*
X21446Y137601D01*
X21565Y138200D01*
X21446Y138799D01*
X21107Y139307D01*
X20599Y139646D01*
X20000Y139766D01*
D02*
G37*
G36*
X5500D02*
X4901Y139646D01*
X4393Y139307D01*
X4054Y138799D01*
X3934Y138200D01*
X4054Y137601D01*
X4393Y137093D01*
X4901Y136754D01*
X5500Y136635D01*
X6099Y136754D01*
X6607Y137093D01*
X6946Y137601D01*
X7066Y138200D01*
X6946Y138799D01*
X6607Y139307D01*
X6099Y139646D01*
X5500Y139766D01*
D02*
G37*
G36*
X-42000Y137014D02*
X-42599Y136895D01*
X-43107Y136556D01*
X-43446Y136048D01*
X-43565Y135449D01*
X-43446Y134850D01*
X-43107Y134342D01*
X-42599Y134002D01*
X-42000Y133883D01*
X-41401Y134002D01*
X-40893Y134342D01*
X-40554Y134850D01*
X-40435Y135449D01*
X-40554Y136048D01*
X-40893Y136556D01*
X-41401Y136895D01*
X-42000Y137014D01*
D02*
G37*
G36*
X357300Y135766D02*
X356701Y135646D01*
X356193Y135307D01*
X355854Y134799D01*
X355734Y134200D01*
X355854Y133601D01*
X356193Y133093D01*
X356701Y132754D01*
X357300Y132634D01*
X357899Y132754D01*
X358407Y133093D01*
X358746Y133601D01*
X358865Y134200D01*
X358746Y134799D01*
X358407Y135307D01*
X357899Y135646D01*
X357300Y135766D01*
D02*
G37*
G36*
X293500Y135565D02*
X292901Y135446D01*
X292393Y135107D01*
X292054Y134599D01*
X291934Y134000D01*
X292054Y133401D01*
X292393Y132893D01*
X292901Y132554D01*
X293500Y132434D01*
X294099Y132554D01*
X294607Y132893D01*
X294946Y133401D01*
X295065Y134000D01*
X294946Y134599D01*
X294607Y135107D01*
X294099Y135446D01*
X293500Y135565D01*
D02*
G37*
G36*
X232000Y135065D02*
X231401Y134946D01*
X230893Y134607D01*
X230554Y134099D01*
X230434Y133500D01*
X230554Y132901D01*
X230893Y132393D01*
X231401Y132054D01*
X232000Y131934D01*
X232599Y132054D01*
X233107Y132393D01*
X233446Y132901D01*
X233565Y133500D01*
X233446Y134099D01*
X233107Y134607D01*
X232599Y134946D01*
X232000Y135065D01*
D02*
G37*
G36*
X362500Y134565D02*
X361901Y134446D01*
X361393Y134107D01*
X361054Y133599D01*
X360934Y133000D01*
X361054Y132401D01*
X361393Y131893D01*
X361901Y131554D01*
X362500Y131435D01*
X363099Y131554D01*
X363607Y131893D01*
X363946Y132401D01*
X364066Y133000D01*
X363946Y133599D01*
X363607Y134107D01*
X363099Y134446D01*
X362500Y134565D01*
D02*
G37*
G36*
X55000Y133966D02*
X54401Y133846D01*
X53893Y133507D01*
X53554Y132999D01*
X53434Y132400D01*
X53554Y131801D01*
X53893Y131293D01*
X54401Y130954D01*
X55000Y130834D01*
X55599Y130954D01*
X56107Y131293D01*
X56446Y131801D01*
X56565Y132400D01*
X56446Y132999D01*
X56107Y133507D01*
X55599Y133846D01*
X55000Y133966D01*
D02*
G37*
G36*
X338500Y136766D02*
X337901Y136646D01*
X337393Y136307D01*
X337054Y135799D01*
X336934Y135200D01*
X337054Y134601D01*
X337298Y134235D01*
X337179Y133788D01*
X337108Y133688D01*
X336901Y133646D01*
X336393Y133307D01*
X336054Y132799D01*
X335934Y132200D01*
X336054Y131601D01*
X336393Y131093D01*
X336901Y130754D01*
X337500Y130634D01*
X338099Y130754D01*
X338607Y131093D01*
X338946Y131601D01*
X339066Y132200D01*
X338946Y132799D01*
X338702Y133165D01*
X338821Y133612D01*
X338892Y133712D01*
X339099Y133754D01*
X339607Y134093D01*
X339946Y134601D01*
X340066Y135200D01*
X339946Y135799D01*
X339607Y136307D01*
X339099Y136646D01*
X338500Y136766D01*
D02*
G37*
G36*
X430100Y132565D02*
X429501Y132446D01*
X428993Y132107D01*
X428654Y131599D01*
X428535Y131000D01*
X428654Y130401D01*
X428993Y129893D01*
X429501Y129554D01*
X430100Y129435D01*
X430699Y129554D01*
X431207Y129893D01*
X431546Y130401D01*
X431666Y131000D01*
X431546Y131599D01*
X431207Y132107D01*
X430699Y132446D01*
X430100Y132565D01*
D02*
G37*
G36*
X533000Y139123D02*
X531674Y138948D01*
X530439Y138436D01*
X529378Y137622D01*
X528564Y136561D01*
X528052Y135326D01*
X527877Y134000D01*
X528052Y132674D01*
X528564Y131439D01*
X529378Y130378D01*
X530439Y129564D01*
X531674Y129052D01*
X533000Y128877D01*
X534326Y129052D01*
X535561Y129564D01*
X536622Y130378D01*
X537436Y131439D01*
X537948Y132674D01*
X538123Y134000D01*
X537948Y135326D01*
X537436Y136561D01*
X536622Y137622D01*
X535561Y138436D01*
X534326Y138948D01*
X533000Y139123D01*
D02*
G37*
G36*
X227500Y131166D02*
X226901Y131046D01*
X226393Y130707D01*
X226054Y130199D01*
X225935Y129600D01*
X226054Y129001D01*
X226393Y128493D01*
X226901Y128154D01*
X227500Y128034D01*
X228099Y128154D01*
X228607Y128493D01*
X228946Y129001D01*
X229065Y129600D01*
X228946Y130199D01*
X228607Y130707D01*
X228099Y131046D01*
X227500Y131166D01*
D02*
G37*
G36*
X374100Y131065D02*
X373501Y130946D01*
X372993Y130607D01*
X372654Y130099D01*
X372534Y129500D01*
X372654Y128901D01*
X372993Y128393D01*
X373501Y128054D01*
X374100Y127935D01*
X374699Y128054D01*
X375207Y128393D01*
X375546Y128901D01*
X375665Y129500D01*
X375546Y130099D01*
X375207Y130607D01*
X374699Y130946D01*
X374100Y131065D01*
D02*
G37*
G36*
X55000Y129147D02*
X54401Y129028D01*
X53893Y128689D01*
X53554Y128181D01*
X53434Y127582D01*
X53554Y126983D01*
X53893Y126475D01*
X54401Y126136D01*
X55000Y126016D01*
X55599Y126136D01*
X56107Y126475D01*
X56446Y126983D01*
X56565Y127582D01*
X56446Y128181D01*
X56107Y128689D01*
X55599Y129028D01*
X55000Y129147D01*
D02*
G37*
G36*
X198500Y127566D02*
X197901Y127446D01*
X197393Y127107D01*
X197054Y126599D01*
X196934Y126000D01*
X197054Y125401D01*
X197393Y124893D01*
X197901Y124554D01*
X198500Y124434D01*
X199099Y124554D01*
X199607Y124893D01*
X199946Y125401D01*
X200065Y126000D01*
X199946Y126599D01*
X199607Y127107D01*
X199099Y127446D01*
X198500Y127566D01*
D02*
G37*
G36*
X50700Y126066D02*
X50101Y125946D01*
X49593Y125607D01*
X49254Y125099D01*
X49134Y124500D01*
X49254Y123901D01*
X49593Y123393D01*
X50101Y123054D01*
X50700Y122934D01*
X51299Y123054D01*
X51807Y123393D01*
X52146Y123901D01*
X52266Y124500D01*
X52146Y125099D01*
X51807Y125607D01*
X51299Y125946D01*
X50700Y126066D01*
D02*
G37*
G36*
X384100Y125566D02*
X383501Y125446D01*
X382993Y125107D01*
X382654Y124599D01*
X382535Y124000D01*
X382654Y123401D01*
X382993Y122893D01*
X383501Y122554D01*
X384100Y122434D01*
X384699Y122554D01*
X385207Y122893D01*
X385546Y123401D01*
X385665Y124000D01*
X385546Y124599D01*
X385207Y125107D01*
X384699Y125446D01*
X384100Y125566D01*
D02*
G37*
G36*
X293500D02*
X292901Y125446D01*
X292393Y125107D01*
X292054Y124599D01*
X291934Y124000D01*
X292054Y123401D01*
X292393Y122893D01*
X292901Y122554D01*
X293500Y122434D01*
X294099Y122554D01*
X294607Y122893D01*
X294946Y123401D01*
X295065Y124000D01*
X294946Y124599D01*
X294607Y125107D01*
X294099Y125446D01*
X293500Y125566D01*
D02*
G37*
G36*
X127100Y124766D02*
X126501Y124646D01*
X125993Y124307D01*
X125654Y123799D01*
X125534Y123200D01*
X125654Y122601D01*
X125993Y122093D01*
X126501Y121754D01*
X127100Y121634D01*
X127699Y121754D01*
X128207Y122093D01*
X128546Y122601D01*
X128665Y123200D01*
X128546Y123799D01*
X128207Y124307D01*
X127699Y124646D01*
X127100Y124766D01*
D02*
G37*
G36*
X-28000Y124065D02*
X-28599Y123946D01*
X-29107Y123607D01*
X-29446Y123099D01*
X-29566Y122500D01*
X-29446Y121901D01*
X-29107Y121393D01*
X-28599Y121054D01*
X-28000Y120934D01*
X-27401Y121054D01*
X-26893Y121393D01*
X-26554Y121901D01*
X-26434Y122500D01*
X-26554Y123099D01*
X-26893Y123607D01*
X-27401Y123946D01*
X-28000Y124065D01*
D02*
G37*
G36*
X338500Y126665D02*
X337901Y126546D01*
X337393Y126207D01*
X337054Y125699D01*
X336934Y125100D01*
X337054Y124501D01*
X337357Y124047D01*
X337311Y123767D01*
X337217Y123509D01*
X336901Y123446D01*
X336393Y123107D01*
X336054Y122599D01*
X335934Y122000D01*
X336054Y121401D01*
X336393Y120893D01*
X336901Y120554D01*
X337500Y120434D01*
X338099Y120554D01*
X338607Y120893D01*
X338946Y121401D01*
X339066Y122000D01*
X338946Y122599D01*
X338643Y123053D01*
X338689Y123333D01*
X338783Y123591D01*
X339099Y123654D01*
X339607Y123993D01*
X339946Y124501D01*
X340066Y125100D01*
X339946Y125699D01*
X339607Y126207D01*
X339099Y126546D01*
X338500Y126665D01*
D02*
G37*
G36*
X628Y135253D02*
X608Y135233D01*
X608Y134761D01*
Y120153D01*
X31224D01*
X31328Y120257D01*
Y135149D01*
X1101Y135251D01*
X628Y135253D01*
D02*
G37*
G36*
X141200Y122809D02*
X140601Y122690D01*
X140093Y122350D01*
X139754Y121842D01*
X139635Y121243D01*
X139754Y120644D01*
X140093Y120136D01*
X140601Y119797D01*
X141200Y119678D01*
X141799Y119797D01*
X142307Y120136D01*
X142646Y120644D01*
X142765Y121243D01*
X142646Y121842D01*
X142307Y122350D01*
X141799Y122690D01*
X141200Y122809D01*
D02*
G37*
G36*
X164000Y122065D02*
X163401Y121946D01*
X162893Y121607D01*
X162554Y121099D01*
X162434Y120500D01*
X162554Y119901D01*
X162893Y119393D01*
X163401Y119054D01*
X164000Y118935D01*
X164599Y119054D01*
X165107Y119393D01*
X165446Y119901D01*
X165566Y120500D01*
X165446Y121099D01*
X165107Y121607D01*
X164599Y121946D01*
X164000Y122065D01*
D02*
G37*
G36*
X465722Y120088D02*
X465123Y119968D01*
X464615Y119629D01*
X464276Y119121D01*
X464202Y118749D01*
X464082Y118710D01*
X463681Y118696D01*
X463407Y119107D01*
X462899Y119446D01*
X462300Y119565D01*
X461701Y119446D01*
X461193Y119107D01*
X460854Y118599D01*
X460735Y118000D01*
X460854Y117401D01*
X461193Y116893D01*
X461701Y116554D01*
X462300Y116435D01*
X462899Y116554D01*
X463407Y116893D01*
X463746Y117401D01*
X463820Y117773D01*
X463940Y117812D01*
X464341Y117826D01*
X464615Y117415D01*
X465123Y117076D01*
X465722Y116956D01*
X466321Y117076D01*
X466829Y117415D01*
X467168Y117923D01*
X467288Y118522D01*
X467168Y119121D01*
X466829Y119629D01*
X466321Y119968D01*
X465722Y120088D01*
D02*
G37*
G36*
X425500Y121666D02*
X424901Y121546D01*
X424393Y121207D01*
X424054Y120699D01*
X423935Y120100D01*
X424054Y119501D01*
X424393Y118993D01*
X424901Y118654D01*
X425500Y118535D01*
X426099Y118654D01*
X426607Y118993D01*
X426946Y119501D01*
X427066Y120100D01*
X426946Y120699D01*
X426607Y121207D01*
X426099Y121546D01*
X425500Y121666D01*
D02*
G37*
G36*
X50700Y120565D02*
X50101Y120446D01*
X49593Y120107D01*
X49254Y119599D01*
X49134Y119000D01*
X49254Y118401D01*
X49593Y117893D01*
X50101Y117554D01*
X50700Y117435D01*
X51299Y117554D01*
X51807Y117893D01*
X52146Y118401D01*
X52266Y119000D01*
X52146Y119599D01*
X51807Y120107D01*
X51299Y120446D01*
X50700Y120565D01*
D02*
G37*
G36*
X207500Y120366D02*
X206901Y120246D01*
X206393Y119907D01*
X206054Y119399D01*
X205935Y118800D01*
X206054Y118201D01*
X206393Y117693D01*
X206901Y117354D01*
X207500Y117235D01*
X208099Y117354D01*
X208607Y117693D01*
X208946Y118201D01*
X209066Y118800D01*
X208946Y119399D01*
X208607Y119907D01*
X208099Y120246D01*
X207500Y120366D01*
D02*
G37*
G36*
X445500Y119065D02*
X444901Y118946D01*
X444393Y118607D01*
X444054Y118099D01*
X443934Y117500D01*
X444054Y116901D01*
X444393Y116393D01*
X444901Y116054D01*
X445500Y115935D01*
X446099Y116054D01*
X446607Y116393D01*
X446946Y116901D01*
X447065Y117500D01*
X446946Y118099D01*
X446607Y118607D01*
X446099Y118946D01*
X445500Y119065D01*
D02*
G37*
G36*
X449565Y118700D02*
X448966Y118581D01*
X448458Y118242D01*
X448119Y117734D01*
X448000Y117135D01*
X448119Y116535D01*
X448458Y116028D01*
X448966Y115688D01*
X449565Y115569D01*
X450165Y115688D01*
X450672Y116028D01*
X451012Y116535D01*
X451131Y117135D01*
X451012Y117734D01*
X450672Y118242D01*
X450165Y118581D01*
X449565Y118700D01*
D02*
G37*
G36*
X403000Y117566D02*
X402401Y117446D01*
X401893Y117107D01*
X401554Y116599D01*
X401435Y116000D01*
X401554Y115401D01*
X401893Y114893D01*
X402401Y114554D01*
X403000Y114435D01*
X403599Y114554D01*
X404107Y114893D01*
X404446Y115401D01*
X404565Y116000D01*
X404446Y116599D01*
X404107Y117107D01*
X403599Y117446D01*
X403000Y117566D01*
D02*
G37*
G36*
X141000Y116066D02*
X140401Y115946D01*
X139893Y115607D01*
X139554Y115099D01*
X139435Y114500D01*
X139554Y113901D01*
X139893Y113393D01*
X140401Y113054D01*
X141000Y112935D01*
X141599Y113054D01*
X142107Y113393D01*
X142446Y113901D01*
X142566Y114500D01*
X142446Y115099D01*
X142107Y115607D01*
X141599Y115946D01*
X141000Y116066D01*
D02*
G37*
G36*
X293500Y115566D02*
X292901Y115446D01*
X292393Y115107D01*
X292054Y114599D01*
X291934Y114000D01*
X292054Y113401D01*
X292393Y112893D01*
X292901Y112554D01*
X293500Y112434D01*
X294099Y112554D01*
X294607Y112893D01*
X294946Y113401D01*
X295065Y114000D01*
X294946Y114599D01*
X294607Y115107D01*
X294099Y115446D01*
X293500Y115566D01*
D02*
G37*
G36*
X199500D02*
X198901Y115446D01*
X198393Y115107D01*
X198054Y114599D01*
X197934Y114000D01*
X198054Y113401D01*
X198393Y112893D01*
X198901Y112554D01*
X199500Y112434D01*
X200099Y112554D01*
X200607Y112893D01*
X200946Y113401D01*
X201065Y114000D01*
X200946Y114599D01*
X200607Y115107D01*
X200099Y115446D01*
X199500Y115566D01*
D02*
G37*
G36*
X109500D02*
X108901Y115446D01*
X108393Y115107D01*
X108054Y114599D01*
X107934Y114000D01*
X108054Y113401D01*
X108393Y112893D01*
X108901Y112554D01*
X109500Y112434D01*
X110099Y112554D01*
X110607Y112893D01*
X110946Y113401D01*
X111065Y114000D01*
X110946Y114599D01*
X110607Y115107D01*
X110099Y115446D01*
X109500Y115566D01*
D02*
G37*
G36*
X133000Y127591D02*
X132276Y127447D01*
X131663Y127037D01*
X131253Y126424D01*
X131109Y125700D01*
Y114000D01*
X131253Y113277D01*
X131663Y112663D01*
X132276Y112253D01*
X133000Y112109D01*
X133723Y112253D01*
X134337Y112663D01*
X134747Y113277D01*
X134891Y114000D01*
Y125700D01*
X134747Y126424D01*
X134337Y127037D01*
X133723Y127447D01*
X133000Y127591D01*
D02*
G37*
G36*
X40000Y115066D02*
X39401Y114946D01*
X38893Y114607D01*
X38554Y114099D01*
X38434Y113500D01*
X38554Y112901D01*
X38893Y112393D01*
X39401Y112054D01*
X40000Y111934D01*
X40599Y112054D01*
X41107Y112393D01*
X41446Y112901D01*
X41565Y113500D01*
X41446Y114099D01*
X41107Y114607D01*
X40599Y114946D01*
X40000Y115066D01*
D02*
G37*
G36*
X338500Y116965D02*
X337901Y116846D01*
X337393Y116507D01*
X337054Y115999D01*
X336934Y115400D01*
X337054Y114801D01*
X337393Y114293D01*
X337468Y114243D01*
X337332Y113732D01*
X336901Y113646D01*
X336393Y113307D01*
X336054Y112799D01*
X335934Y112200D01*
X336054Y111601D01*
X336393Y111093D01*
X336901Y110754D01*
X337500Y110635D01*
X338099Y110754D01*
X338607Y111093D01*
X338946Y111601D01*
X339066Y112200D01*
X338946Y112799D01*
X338607Y113307D01*
X338532Y113357D01*
X338668Y113868D01*
X339099Y113954D01*
X339607Y114293D01*
X339946Y114801D01*
X340066Y115400D01*
X339946Y115999D01*
X339607Y116507D01*
X339099Y116846D01*
X338500Y116965D01*
D02*
G37*
G36*
X30000Y112765D02*
X29516Y112668D01*
X29106Y112394D01*
X28832Y111984D01*
X28736Y111500D01*
X28832Y111016D01*
X29106Y110606D01*
X29516Y110332D01*
X30000Y110236D01*
X30484Y110332D01*
X30894Y110606D01*
X31168Y111016D01*
X31264Y111500D01*
X31168Y111984D01*
X30894Y112394D01*
X30484Y112668D01*
X30000Y112765D01*
D02*
G37*
G36*
X22500D02*
X22016Y112668D01*
X21606Y112394D01*
X21332Y111984D01*
X21236Y111500D01*
X21332Y111016D01*
X21606Y110606D01*
X22016Y110332D01*
X22500Y110236D01*
X22984Y110332D01*
X23394Y110606D01*
X23668Y111016D01*
X23764Y111500D01*
X23668Y111984D01*
X23394Y112394D01*
X22984Y112668D01*
X22500Y112765D01*
D02*
G37*
G36*
X15000D02*
X14516Y112668D01*
X14106Y112394D01*
X13832Y111984D01*
X13735Y111500D01*
X13832Y111016D01*
X14106Y110606D01*
X14516Y110332D01*
X15000Y110236D01*
X15484Y110332D01*
X15894Y110606D01*
X16168Y111016D01*
X16264Y111500D01*
X16168Y111984D01*
X15894Y112394D01*
X15484Y112668D01*
X15000Y112765D01*
D02*
G37*
G36*
X7500D02*
X7016Y112668D01*
X6606Y112394D01*
X6332Y111984D01*
X6236Y111500D01*
X6332Y111016D01*
X6606Y110606D01*
X7016Y110332D01*
X7500Y110236D01*
X7984Y110332D01*
X8394Y110606D01*
X8668Y111016D01*
X8764Y111500D01*
X8668Y111984D01*
X8394Y112394D01*
X7984Y112668D01*
X7500Y112765D01*
D02*
G37*
G36*
X91650Y111465D02*
X91166Y111368D01*
X90756Y111094D01*
X90482Y110684D01*
X90386Y110200D01*
X90482Y109716D01*
X90756Y109306D01*
X91166Y109032D01*
X91650Y108935D01*
X92134Y109032D01*
X92544Y109306D01*
X92818Y109716D01*
X92914Y110200D01*
X92818Y110684D01*
X92544Y111094D01*
X92134Y111368D01*
X91650Y111465D01*
D02*
G37*
G36*
X198500Y109565D02*
X197901Y109446D01*
X197393Y109107D01*
X197054Y108599D01*
X196934Y108000D01*
X197054Y107401D01*
X197393Y106893D01*
X197901Y106554D01*
X198500Y106435D01*
X199099Y106554D01*
X199607Y106893D01*
X199946Y107401D01*
X200065Y108000D01*
X199946Y108599D01*
X199607Y109107D01*
X199099Y109446D01*
X198500Y109565D01*
D02*
G37*
G36*
X117400Y109423D02*
X116801Y109304D01*
X116293Y108965D01*
X115954Y108457D01*
X115834Y107858D01*
X115954Y107258D01*
X116293Y106751D01*
X116801Y106411D01*
X117400Y106292D01*
X117999Y106411D01*
X118507Y106751D01*
X118846Y107258D01*
X118965Y107858D01*
X118846Y108457D01*
X118507Y108965D01*
X117999Y109304D01*
X117400Y109423D01*
D02*
G37*
G36*
X332000Y145000D02*
X300000D01*
Y106234D01*
X299500Y105966D01*
X299000Y106065D01*
X298401Y105946D01*
X297893Y105607D01*
X297554Y105099D01*
X297434Y104500D01*
X297554Y103901D01*
X297893Y103393D01*
X298401Y103054D01*
X299000Y102935D01*
X299500Y103034D01*
X300000Y103000D01*
X300000Y103000D01*
X300000Y103000D01*
X332000D01*
Y145000D01*
D02*
G37*
G36*
X158100Y116900D02*
X151200D01*
Y115846D01*
X151119Y115441D01*
X151200Y115036D01*
Y111515D01*
X151119Y111110D01*
X151200Y110705D01*
Y107185D01*
X151119Y106780D01*
X151200Y106375D01*
Y105300D01*
X158100D01*
Y106378D01*
X158180Y106780D01*
X158100Y107181D01*
Y110709D01*
X158180Y111110D01*
X158100Y111511D01*
Y115040D01*
X158180Y115441D01*
X158100Y115842D01*
Y116900D01*
D02*
G37*
G36*
X497400Y106573D02*
X496916Y106477D01*
X496506Y106203D01*
X496232Y105792D01*
X496136Y105309D01*
X496232Y104825D01*
X496506Y104415D01*
X496916Y104140D01*
X497400Y104044D01*
X497884Y104140D01*
X498294Y104415D01*
X498568Y104825D01*
X498665Y105309D01*
X498568Y105792D01*
X498294Y106203D01*
X497884Y106477D01*
X497400Y106573D01*
D02*
G37*
G36*
X430100Y106617D02*
X429501Y106498D01*
X428993Y106158D01*
X428654Y105650D01*
X428535Y105051D01*
X428654Y104452D01*
X428993Y103944D01*
X429501Y103605D01*
X430100Y103486D01*
X430699Y103605D01*
X431207Y103944D01*
X431546Y104452D01*
X431666Y105051D01*
X431546Y105650D01*
X431207Y106158D01*
X430699Y106498D01*
X430100Y106617D01*
D02*
G37*
G36*
X177000Y106565D02*
X176401Y106446D01*
X175893Y106107D01*
X175554Y105599D01*
X175435Y105000D01*
X175554Y104401D01*
X175893Y103893D01*
X176401Y103554D01*
X177000Y103435D01*
X177599Y103554D01*
X178107Y103893D01*
X178446Y104401D01*
X178566Y105000D01*
X178446Y105599D01*
X178107Y106107D01*
X177599Y106446D01*
X177000Y106565D01*
D02*
G37*
G36*
X33750Y105264D02*
X33266Y105168D01*
X32856Y104894D01*
X32582Y104484D01*
X32485Y104000D01*
X32582Y103516D01*
X32856Y103106D01*
X33266Y102832D01*
X33750Y102735D01*
X34234Y102832D01*
X34644Y103106D01*
X34918Y103516D01*
X35014Y104000D01*
X34918Y104484D01*
X34644Y104894D01*
X34234Y105168D01*
X33750Y105264D01*
D02*
G37*
G36*
X26250D02*
X25766Y105168D01*
X25356Y104894D01*
X25082Y104484D01*
X24985Y104000D01*
X25082Y103516D01*
X25356Y103106D01*
X25766Y102832D01*
X26250Y102735D01*
X26734Y102832D01*
X27144Y103106D01*
X27418Y103516D01*
X27514Y104000D01*
X27418Y104484D01*
X27144Y104894D01*
X26734Y105168D01*
X26250Y105264D01*
D02*
G37*
G36*
X18750D02*
X18266Y105168D01*
X17856Y104894D01*
X17582Y104484D01*
X17485Y104000D01*
X17582Y103516D01*
X17856Y103106D01*
X18266Y102832D01*
X18750Y102735D01*
X19234Y102832D01*
X19644Y103106D01*
X19918Y103516D01*
X20014Y104000D01*
X19918Y104484D01*
X19644Y104894D01*
X19234Y105168D01*
X18750Y105264D01*
D02*
G37*
G36*
X11250D02*
X10766Y105168D01*
X10356Y104894D01*
X10082Y104484D01*
X9985Y104000D01*
X10082Y103516D01*
X10356Y103106D01*
X10766Y102832D01*
X11250Y102735D01*
X11734Y102832D01*
X12144Y103106D01*
X12418Y103516D01*
X12514Y104000D01*
X12418Y104484D01*
X12144Y104894D01*
X11734Y105168D01*
X11250Y105264D01*
D02*
G37*
G36*
X369100Y105066D02*
X368501Y104946D01*
X367993Y104607D01*
X367654Y104099D01*
X367534Y103500D01*
X367654Y102901D01*
X367993Y102393D01*
X368501Y102054D01*
X369100Y101935D01*
X369699Y102054D01*
X370207Y102393D01*
X370546Y102901D01*
X370666Y103500D01*
X370546Y104099D01*
X370207Y104607D01*
X369699Y104946D01*
X369100Y105066D01*
D02*
G37*
G36*
X98750Y103865D02*
X98266Y103768D01*
X97856Y103494D01*
X97582Y103084D01*
X97486Y102600D01*
X97582Y102116D01*
X97856Y101706D01*
X98266Y101432D01*
X98750Y101336D01*
X99234Y101432D01*
X99644Y101706D01*
X99918Y102116D01*
X100014Y102600D01*
X99918Y103084D01*
X99644Y103494D01*
X99234Y103768D01*
X98750Y103865D01*
D02*
G37*
G36*
X164000Y103566D02*
X163401Y103446D01*
X162893Y103107D01*
X162554Y102599D01*
X162434Y102000D01*
X162554Y101401D01*
X162893Y100893D01*
X163401Y100554D01*
X164000Y100435D01*
X164599Y100554D01*
X165107Y100893D01*
X165446Y101401D01*
X165566Y102000D01*
X165446Y102599D01*
X165107Y103107D01*
X164599Y103446D01*
X164000Y103566D01*
D02*
G37*
G36*
X500141Y102915D02*
X499657Y102818D01*
X499247Y102544D01*
X498973Y102134D01*
X498877Y101650D01*
X498973Y101166D01*
X499247Y100756D01*
X499657Y100482D01*
X500141Y100386D01*
X500625Y100482D01*
X501035Y100756D01*
X501309Y101166D01*
X501406Y101650D01*
X501309Y102134D01*
X501035Y102544D01*
X500625Y102818D01*
X500141Y102915D01*
D02*
G37*
G36*
X389100Y99265D02*
X388501Y99146D01*
X387993Y98807D01*
X387654Y98299D01*
X387534Y97700D01*
X387654Y97101D01*
X387993Y96593D01*
X388501Y96254D01*
X389100Y96135D01*
X389699Y96254D01*
X390207Y96593D01*
X390546Y97101D01*
X390666Y97700D01*
X390546Y98299D01*
X390207Y98807D01*
X389699Y99146D01*
X389100Y99265D01*
D02*
G37*
G36*
X67500Y97764D02*
X67016Y97668D01*
X66606Y97394D01*
X66332Y96984D01*
X66236Y96500D01*
X66332Y96016D01*
X66606Y95606D01*
X67016Y95332D01*
X67500Y95236D01*
X67984Y95332D01*
X68394Y95606D01*
X68668Y96016D01*
X68764Y96500D01*
X68668Y96984D01*
X68394Y97394D01*
X67984Y97668D01*
X67500Y97764D01*
D02*
G37*
G36*
X60000D02*
X59516Y97668D01*
X59106Y97394D01*
X58832Y96984D01*
X58736Y96500D01*
X58832Y96016D01*
X59106Y95606D01*
X59516Y95332D01*
X60000Y95236D01*
X60484Y95332D01*
X60894Y95606D01*
X61168Y96016D01*
X61264Y96500D01*
X61168Y96984D01*
X60894Y97394D01*
X60484Y97668D01*
X60000Y97764D01*
D02*
G37*
G36*
X52500D02*
X52016Y97668D01*
X51606Y97394D01*
X51332Y96984D01*
X51236Y96500D01*
X51332Y96016D01*
X51606Y95606D01*
X52016Y95332D01*
X52500Y95236D01*
X52984Y95332D01*
X53394Y95606D01*
X53668Y96016D01*
X53764Y96500D01*
X53668Y96984D01*
X53394Y97394D01*
X52984Y97668D01*
X52500Y97764D01*
D02*
G37*
G36*
X45000D02*
X44516Y97668D01*
X44106Y97394D01*
X43832Y96984D01*
X43736Y96500D01*
X43832Y96016D01*
X44106Y95606D01*
X44516Y95332D01*
X45000Y95236D01*
X45484Y95332D01*
X45894Y95606D01*
X46168Y96016D01*
X46264Y96500D01*
X46168Y96984D01*
X45894Y97394D01*
X45484Y97668D01*
X45000Y97764D01*
D02*
G37*
G36*
X22500D02*
X22016Y97668D01*
X21606Y97394D01*
X21332Y96984D01*
X21236Y96500D01*
X21332Y96016D01*
X21606Y95606D01*
X22016Y95332D01*
X22500Y95236D01*
X22984Y95332D01*
X23394Y95606D01*
X23668Y96016D01*
X23764Y96500D01*
X23668Y96984D01*
X23394Y97394D01*
X22984Y97668D01*
X22500Y97764D01*
D02*
G37*
G36*
X15000D02*
X14516Y97668D01*
X14106Y97394D01*
X13832Y96984D01*
X13735Y96500D01*
X13832Y96016D01*
X14106Y95606D01*
X14516Y95332D01*
X15000Y95236D01*
X15484Y95332D01*
X15894Y95606D01*
X16168Y96016D01*
X16264Y96500D01*
X16168Y96984D01*
X15894Y97394D01*
X15484Y97668D01*
X15000Y97764D01*
D02*
G37*
G36*
X7500D02*
X7016Y97668D01*
X6606Y97394D01*
X6332Y96984D01*
X6236Y96500D01*
X6332Y96016D01*
X6606Y95606D01*
X7016Y95332D01*
X7500Y95236D01*
X7984Y95332D01*
X8394Y95606D01*
X8668Y96016D01*
X8764Y96500D01*
X8668Y96984D01*
X8394Y97394D01*
X7984Y97668D01*
X7500Y97764D01*
D02*
G37*
G36*
X167500Y97566D02*
X166901Y97446D01*
X166393Y97107D01*
X166054Y96599D01*
X165935Y96000D01*
X166054Y95401D01*
X166393Y94893D01*
X166901Y94554D01*
X167500Y94434D01*
X168099Y94554D01*
X168607Y94893D01*
X168946Y95401D01*
X169065Y96000D01*
X168946Y96599D01*
X168607Y97107D01*
X168099Y97446D01*
X167500Y97566D01*
D02*
G37*
G36*
X448400Y94366D02*
X447801Y94246D01*
X447293Y93907D01*
X446954Y93399D01*
X446929Y93275D01*
X446800Y93193D01*
X446382Y93090D01*
X445999Y93346D01*
X445400Y93466D01*
X444801Y93346D01*
X444293Y93007D01*
X443954Y92499D01*
X443834Y91900D01*
X443954Y91301D01*
X444293Y90793D01*
X444801Y90454D01*
X445400Y90334D01*
X445999Y90454D01*
X446507Y90793D01*
X446846Y91301D01*
X446871Y91425D01*
X447000Y91507D01*
X447418Y91610D01*
X447801Y91354D01*
X448400Y91234D01*
X448999Y91354D01*
X449507Y91693D01*
X449846Y92201D01*
X449965Y92800D01*
X449846Y93399D01*
X449507Y93907D01*
X448999Y94246D01*
X448400Y94366D01*
D02*
G37*
G36*
X425500Y96065D02*
X424901Y95946D01*
X424393Y95607D01*
X424054Y95099D01*
X423935Y94500D01*
X424054Y93901D01*
X424393Y93393D01*
X424901Y93054D01*
X425500Y92935D01*
X426099Y93054D01*
X426607Y93393D01*
X426946Y93901D01*
X427066Y94500D01*
X426946Y95099D01*
X426607Y95607D01*
X426099Y95946D01*
X425500Y96065D01*
D02*
G37*
G36*
X162700Y93765D02*
X162101Y93646D01*
X161593Y93307D01*
X161254Y92799D01*
X161135Y92200D01*
X161254Y91601D01*
X161593Y91093D01*
X162101Y90754D01*
X162700Y90635D01*
X163299Y90754D01*
X163807Y91093D01*
X164146Y91601D01*
X164266Y92200D01*
X164146Y92799D01*
X163807Y93307D01*
X163299Y93646D01*
X162700Y93765D01*
D02*
G37*
G36*
X262500Y91066D02*
X261901Y90946D01*
X261393Y90607D01*
X261054Y90099D01*
X260934Y89500D01*
X261054Y88901D01*
X261393Y88393D01*
X261901Y88054D01*
X262500Y87934D01*
X263099Y88054D01*
X263607Y88393D01*
X263946Y88901D01*
X264066Y89500D01*
X263946Y90099D01*
X263607Y90607D01*
X263099Y90946D01*
X262500Y91066D01*
D02*
G37*
G36*
X108750Y90264D02*
X108266Y90168D01*
X107856Y89894D01*
X107582Y89484D01*
X107485Y89000D01*
X107582Y88516D01*
X107856Y88106D01*
X108266Y87832D01*
X108750Y87736D01*
X109234Y87832D01*
X109644Y88106D01*
X109918Y88516D01*
X110014Y89000D01*
X109918Y89484D01*
X109644Y89894D01*
X109234Y90168D01*
X108750Y90264D01*
D02*
G37*
G36*
X48750D02*
X48266Y90168D01*
X47856Y89894D01*
X47582Y89484D01*
X47486Y89000D01*
X47582Y88516D01*
X47856Y88106D01*
X48266Y87832D01*
X48750Y87736D01*
X49234Y87832D01*
X49644Y88106D01*
X49918Y88516D01*
X50014Y89000D01*
X49918Y89484D01*
X49644Y89894D01*
X49234Y90168D01*
X48750Y90264D01*
D02*
G37*
G36*
X33750D02*
X33266Y90168D01*
X32856Y89894D01*
X32582Y89484D01*
X32485Y89000D01*
X32582Y88516D01*
X32856Y88106D01*
X33266Y87832D01*
X33750Y87736D01*
X34234Y87832D01*
X34644Y88106D01*
X34918Y88516D01*
X35014Y89000D01*
X34918Y89484D01*
X34644Y89894D01*
X34234Y90168D01*
X33750Y90264D01*
D02*
G37*
G36*
X26250D02*
X25766Y90168D01*
X25356Y89894D01*
X25082Y89484D01*
X24985Y89000D01*
X25082Y88516D01*
X25356Y88106D01*
X25766Y87832D01*
X26250Y87736D01*
X26734Y87832D01*
X27144Y88106D01*
X27418Y88516D01*
X27514Y89000D01*
X27418Y89484D01*
X27144Y89894D01*
X26734Y90168D01*
X26250Y90264D01*
D02*
G37*
G36*
X18750D02*
X18266Y90168D01*
X17856Y89894D01*
X17582Y89484D01*
X17485Y89000D01*
X17582Y88516D01*
X17856Y88106D01*
X18266Y87832D01*
X18750Y87736D01*
X19234Y87832D01*
X19644Y88106D01*
X19918Y88516D01*
X20014Y89000D01*
X19918Y89484D01*
X19644Y89894D01*
X19234Y90168D01*
X18750Y90264D01*
D02*
G37*
G36*
X11250D02*
X10766Y90168D01*
X10356Y89894D01*
X10082Y89484D01*
X9985Y89000D01*
X10082Y88516D01*
X10356Y88106D01*
X10766Y87832D01*
X11250Y87736D01*
X11734Y87832D01*
X12144Y88106D01*
X12418Y88516D01*
X12514Y89000D01*
X12418Y89484D01*
X12144Y89894D01*
X11734Y90168D01*
X11250Y90264D01*
D02*
G37*
G36*
X270500Y90566D02*
X269901Y90446D01*
X269393Y90107D01*
X269054Y89599D01*
X268934Y89000D01*
X269054Y88401D01*
X269393Y87893D01*
X269901Y87554D01*
X270500Y87435D01*
X271099Y87554D01*
X271607Y87893D01*
X271946Y88401D01*
X272065Y89000D01*
X271946Y89599D01*
X271607Y90107D01*
X271099Y90446D01*
X270500Y90566D01*
D02*
G37*
G36*
X228500Y85566D02*
X227901Y85446D01*
X227393Y85107D01*
X227054Y84599D01*
X226935Y84000D01*
X227054Y83401D01*
X227393Y82893D01*
X227901Y82554D01*
X228500Y82434D01*
X229099Y82554D01*
X229607Y82893D01*
X229946Y83401D01*
X230065Y84000D01*
X229946Y84599D01*
X229607Y85107D01*
X229099Y85446D01*
X228500Y85566D01*
D02*
G37*
G36*
X196320Y85384D02*
X195721Y85265D01*
X195213Y84926D01*
X194874Y84418D01*
X194755Y83819D01*
X194874Y83220D01*
X195213Y82712D01*
X195721Y82373D01*
X196320Y82253D01*
X196919Y82373D01*
X197427Y82712D01*
X197766Y83220D01*
X197886Y83819D01*
X197766Y84418D01*
X197427Y84926D01*
X196919Y85265D01*
X196320Y85384D01*
D02*
G37*
G36*
X210000Y85066D02*
X209401Y84946D01*
X208893Y84607D01*
X208554Y84099D01*
X208435Y83500D01*
X208554Y82901D01*
X208893Y82393D01*
X209401Y82054D01*
X210000Y81934D01*
X210599Y82054D01*
X211107Y82393D01*
X211446Y82901D01*
X211565Y83500D01*
X211446Y84099D01*
X211107Y84607D01*
X210599Y84946D01*
X210000Y85066D01*
D02*
G37*
G36*
X384100Y88036D02*
X383237Y87922D01*
X382432Y87589D01*
X381741Y87059D01*
X381211Y86368D01*
X380878Y85563D01*
X380764Y84700D01*
X380878Y83837D01*
X381211Y83032D01*
X381741Y82341D01*
X382432Y81811D01*
X383237Y81478D01*
X384100Y81364D01*
X384963Y81478D01*
X385768Y81811D01*
X386459Y82341D01*
X386989Y83032D01*
X387322Y83837D01*
X387436Y84700D01*
X387322Y85563D01*
X386989Y86368D01*
X386459Y87059D01*
X385768Y87589D01*
X384963Y87922D01*
X384100Y88036D01*
D02*
G37*
G36*
X374100D02*
X373237Y87922D01*
X372432Y87589D01*
X371741Y87059D01*
X371211Y86368D01*
X370878Y85563D01*
X370764Y84700D01*
X370878Y83837D01*
X371211Y83032D01*
X371741Y82341D01*
X372432Y81811D01*
X373237Y81478D01*
X374100Y81364D01*
X374963Y81478D01*
X375768Y81811D01*
X376459Y82341D01*
X376989Y83032D01*
X377322Y83837D01*
X377436Y84700D01*
X377322Y85563D01*
X376989Y86368D01*
X376459Y87059D01*
X375768Y87589D01*
X374963Y87922D01*
X374100Y88036D01*
D02*
G37*
G36*
X97500Y82764D02*
X97016Y82668D01*
X96606Y82394D01*
X96332Y81984D01*
X96236Y81500D01*
X96332Y81016D01*
X96606Y80606D01*
X97016Y80332D01*
X97500Y80236D01*
X97984Y80332D01*
X98394Y80606D01*
X98668Y81016D01*
X98764Y81500D01*
X98668Y81984D01*
X98394Y82394D01*
X97984Y82668D01*
X97500Y82764D01*
D02*
G37*
G36*
X82500D02*
X82016Y82668D01*
X81606Y82394D01*
X81332Y81984D01*
X81235Y81500D01*
X81332Y81016D01*
X81606Y80606D01*
X82016Y80332D01*
X82500Y80236D01*
X82984Y80332D01*
X83394Y80606D01*
X83668Y81016D01*
X83764Y81500D01*
X83668Y81984D01*
X83394Y82394D01*
X82984Y82668D01*
X82500Y82764D01*
D02*
G37*
G36*
X67500D02*
X67016Y82668D01*
X66606Y82394D01*
X66332Y81984D01*
X66236Y81500D01*
X66332Y81016D01*
X66606Y80606D01*
X67016Y80332D01*
X67500Y80236D01*
X67984Y80332D01*
X68394Y80606D01*
X68668Y81016D01*
X68764Y81500D01*
X68668Y81984D01*
X68394Y82394D01*
X67984Y82668D01*
X67500Y82764D01*
D02*
G37*
G36*
X60000D02*
X59516Y82668D01*
X59106Y82394D01*
X58832Y81984D01*
X58736Y81500D01*
X58832Y81016D01*
X59106Y80606D01*
X59516Y80332D01*
X60000Y80236D01*
X60484Y80332D01*
X60894Y80606D01*
X61168Y81016D01*
X61264Y81500D01*
X61168Y81984D01*
X60894Y82394D01*
X60484Y82668D01*
X60000Y82764D01*
D02*
G37*
G36*
X30000D02*
X29516Y82668D01*
X29106Y82394D01*
X28832Y81984D01*
X28736Y81500D01*
X28832Y81016D01*
X29106Y80606D01*
X29516Y80332D01*
X30000Y80236D01*
X30484Y80332D01*
X30894Y80606D01*
X31168Y81016D01*
X31264Y81500D01*
X31168Y81984D01*
X30894Y82394D01*
X30484Y82668D01*
X30000Y82764D01*
D02*
G37*
G36*
X22500D02*
X22016Y82668D01*
X21606Y82394D01*
X21332Y81984D01*
X21236Y81500D01*
X21332Y81016D01*
X21606Y80606D01*
X22016Y80332D01*
X22500Y80236D01*
X22984Y80332D01*
X23394Y80606D01*
X23668Y81016D01*
X23764Y81500D01*
X23668Y81984D01*
X23394Y82394D01*
X22984Y82668D01*
X22500Y82764D01*
D02*
G37*
G36*
X15000D02*
X14516Y82668D01*
X14106Y82394D01*
X13832Y81984D01*
X13735Y81500D01*
X13832Y81016D01*
X14106Y80606D01*
X14516Y80332D01*
X15000Y80236D01*
X15484Y80332D01*
X15894Y80606D01*
X16168Y81016D01*
X16264Y81500D01*
X16168Y81984D01*
X15894Y82394D01*
X15484Y82668D01*
X15000Y82764D01*
D02*
G37*
G36*
X7500D02*
X7016Y82668D01*
X6606Y82394D01*
X6332Y81984D01*
X6236Y81500D01*
X6332Y81016D01*
X6606Y80606D01*
X7016Y80332D01*
X7500Y80236D01*
X7984Y80332D01*
X8394Y80606D01*
X8668Y81016D01*
X8764Y81500D01*
X8668Y81984D01*
X8394Y82394D01*
X7984Y82668D01*
X7500Y82764D01*
D02*
G37*
G36*
X264500Y83065D02*
X263901Y82946D01*
X263393Y82607D01*
X263054Y82099D01*
X262934Y81500D01*
X263054Y80901D01*
X263393Y80393D01*
X263901Y80054D01*
X264500Y79935D01*
X265099Y80054D01*
X265607Y80393D01*
X265946Y80901D01*
X266066Y81500D01*
X265946Y82099D01*
X265607Y82607D01*
X265099Y82946D01*
X264500Y83065D01*
D02*
G37*
G36*
X205500Y79066D02*
X204901Y78946D01*
X204393Y78607D01*
X204054Y78099D01*
X203935Y77500D01*
X204054Y76901D01*
X204393Y76393D01*
X204901Y76054D01*
X205500Y75934D01*
X206099Y76054D01*
X206607Y76393D01*
X206946Y76901D01*
X207066Y77500D01*
X206946Y78099D01*
X206607Y78607D01*
X206099Y78946D01*
X205500Y79066D01*
D02*
G37*
G36*
X198500D02*
X197901Y78946D01*
X197393Y78607D01*
X197054Y78099D01*
X196934Y77500D01*
X197054Y76901D01*
X197393Y76393D01*
X197901Y76054D01*
X198500Y75934D01*
X199099Y76054D01*
X199607Y76393D01*
X199946Y76901D01*
X200065Y77500D01*
X199946Y78099D01*
X199607Y78607D01*
X199099Y78946D01*
X198500Y79066D01*
D02*
G37*
G36*
X507000Y75065D02*
X506401Y74946D01*
X505893Y74607D01*
X505607D01*
X505099Y74946D01*
X504500Y75065D01*
X503901Y74946D01*
X503393Y74607D01*
X503107D01*
X502599Y74946D01*
X502000Y75065D01*
X501401Y74946D01*
X500893Y74607D01*
X500554Y74099D01*
X500434Y73500D01*
X500554Y72901D01*
X500893Y72393D01*
X501401Y72054D01*
X502000Y71934D01*
X502599Y72054D01*
X503107Y72393D01*
X503393D01*
X503901Y72054D01*
X504500Y71934D01*
X505099Y72054D01*
X505607Y72393D01*
X505893D01*
X506401Y72054D01*
X507000Y71934D01*
X507599Y72054D01*
X508107Y72393D01*
X508446Y72901D01*
X508566Y73500D01*
X508446Y74099D01*
X508107Y74607D01*
X507599Y74946D01*
X507000Y75065D01*
D02*
G37*
G36*
X191000Y77365D02*
X190401Y77246D01*
X189893Y76907D01*
X189554Y76399D01*
X189435Y75800D01*
X189554Y75201D01*
X189893Y74693D01*
X190401Y74354D01*
X191000Y74234D01*
X191599Y74354D01*
X192107Y74693D01*
X192446Y75201D01*
X192566Y75800D01*
X192446Y76399D01*
X192107Y76907D01*
X191599Y77246D01*
X191000Y77365D01*
D02*
G37*
G36*
X131250Y75264D02*
X130766Y75168D01*
X130356Y74894D01*
X130082Y74484D01*
X129985Y74000D01*
X130082Y73516D01*
X130356Y73106D01*
X130766Y72832D01*
X131250Y72736D01*
X131734Y72832D01*
X132144Y73106D01*
X132418Y73516D01*
X132514Y74000D01*
X132418Y74484D01*
X132144Y74894D01*
X131734Y75168D01*
X131250Y75264D01*
D02*
G37*
G36*
X123750D02*
X123266Y75168D01*
X122856Y74894D01*
X122582Y74484D01*
X122485Y74000D01*
X122582Y73516D01*
X122856Y73106D01*
X123266Y72832D01*
X123750Y72736D01*
X124234Y72832D01*
X124644Y73106D01*
X124918Y73516D01*
X125014Y74000D01*
X124918Y74484D01*
X124644Y74894D01*
X124234Y75168D01*
X123750Y75264D01*
D02*
G37*
G36*
X101250D02*
X100766Y75168D01*
X100356Y74894D01*
X100082Y74484D01*
X99985Y74000D01*
X100082Y73516D01*
X100356Y73106D01*
X100766Y72832D01*
X101250Y72736D01*
X101734Y72832D01*
X102144Y73106D01*
X102418Y73516D01*
X102514Y74000D01*
X102418Y74484D01*
X102144Y74894D01*
X101734Y75168D01*
X101250Y75264D01*
D02*
G37*
G36*
X93750D02*
X93266Y75168D01*
X92856Y74894D01*
X92582Y74484D01*
X92485Y74000D01*
X92582Y73516D01*
X92856Y73106D01*
X93266Y72832D01*
X93750Y72736D01*
X94234Y72832D01*
X94644Y73106D01*
X94918Y73516D01*
X95014Y74000D01*
X94918Y74484D01*
X94644Y74894D01*
X94234Y75168D01*
X93750Y75264D01*
D02*
G37*
G36*
X86250D02*
X85766Y75168D01*
X85356Y74894D01*
X85082Y74484D01*
X84986Y74000D01*
X85082Y73516D01*
X85356Y73106D01*
X85766Y72832D01*
X86250Y72736D01*
X86734Y72832D01*
X87144Y73106D01*
X87418Y73516D01*
X87514Y74000D01*
X87418Y74484D01*
X87144Y74894D01*
X86734Y75168D01*
X86250Y75264D01*
D02*
G37*
G36*
X78750D02*
X78266Y75168D01*
X77856Y74894D01*
X77582Y74484D01*
X77486Y74000D01*
X77582Y73516D01*
X77856Y73106D01*
X78266Y72832D01*
X78750Y72736D01*
X79234Y72832D01*
X79644Y73106D01*
X79918Y73516D01*
X80014Y74000D01*
X79918Y74484D01*
X79644Y74894D01*
X79234Y75168D01*
X78750Y75264D01*
D02*
G37*
G36*
X71250D02*
X70766Y75168D01*
X70356Y74894D01*
X70082Y74484D01*
X69986Y74000D01*
X70082Y73516D01*
X70356Y73106D01*
X70766Y72832D01*
X71250Y72736D01*
X71734Y72832D01*
X72144Y73106D01*
X72418Y73516D01*
X72514Y74000D01*
X72418Y74484D01*
X72144Y74894D01*
X71734Y75168D01*
X71250Y75264D01*
D02*
G37*
G36*
X63750D02*
X63266Y75168D01*
X62856Y74894D01*
X62582Y74484D01*
X62485Y74000D01*
X62582Y73516D01*
X62856Y73106D01*
X63266Y72832D01*
X63750Y72736D01*
X64234Y72832D01*
X64644Y73106D01*
X64918Y73516D01*
X65014Y74000D01*
X64918Y74484D01*
X64644Y74894D01*
X64234Y75168D01*
X63750Y75264D01*
D02*
G37*
G36*
X33750D02*
X33266Y75168D01*
X32856Y74894D01*
X32582Y74484D01*
X32485Y74000D01*
X32582Y73516D01*
X32856Y73106D01*
X33266Y72832D01*
X33750Y72736D01*
X34234Y72832D01*
X34644Y73106D01*
X34918Y73516D01*
X35014Y74000D01*
X34918Y74484D01*
X34644Y74894D01*
X34234Y75168D01*
X33750Y75264D01*
D02*
G37*
G36*
X26250D02*
X25766Y75168D01*
X25356Y74894D01*
X25082Y74484D01*
X24985Y74000D01*
X25082Y73516D01*
X25356Y73106D01*
X25766Y72832D01*
X26250Y72736D01*
X26734Y72832D01*
X27144Y73106D01*
X27418Y73516D01*
X27514Y74000D01*
X27418Y74484D01*
X27144Y74894D01*
X26734Y75168D01*
X26250Y75264D01*
D02*
G37*
G36*
X18750D02*
X18266Y75168D01*
X17856Y74894D01*
X17582Y74484D01*
X17485Y74000D01*
X17582Y73516D01*
X17856Y73106D01*
X18266Y72832D01*
X18750Y72736D01*
X19234Y72832D01*
X19644Y73106D01*
X19918Y73516D01*
X20014Y74000D01*
X19918Y74484D01*
X19644Y74894D01*
X19234Y75168D01*
X18750Y75264D01*
D02*
G37*
G36*
X11250D02*
X10766Y75168D01*
X10356Y74894D01*
X10082Y74484D01*
X9985Y74000D01*
X10082Y73516D01*
X10356Y73106D01*
X10766Y72832D01*
X11250Y72736D01*
X11734Y72832D01*
X12144Y73106D01*
X12418Y73516D01*
X12514Y74000D01*
X12418Y74484D01*
X12144Y74894D01*
X11734Y75168D01*
X11250Y75264D01*
D02*
G37*
G36*
X377407Y78007D02*
X370793D01*
Y71393D01*
X377407D01*
Y78007D01*
D02*
G37*
G36*
X384100Y78036D02*
X383237Y77922D01*
X382432Y77589D01*
X381741Y77059D01*
X381211Y76368D01*
X380878Y75563D01*
X380764Y74700D01*
X380878Y73837D01*
X381211Y73032D01*
X381741Y72341D01*
X382432Y71811D01*
X383237Y71478D01*
X384100Y71364D01*
X384963Y71478D01*
X385768Y71811D01*
X386459Y72341D01*
X386989Y73032D01*
X387322Y73837D01*
X387436Y74700D01*
X387322Y75563D01*
X386989Y76368D01*
X386459Y77059D01*
X385768Y77589D01*
X384963Y77922D01*
X384100Y78036D01*
D02*
G37*
G36*
X262500Y73566D02*
X261901Y73446D01*
X261393Y73107D01*
X261054Y72599D01*
X260934Y72000D01*
X261054Y71401D01*
X261393Y70893D01*
X261901Y70554D01*
X262500Y70434D01*
X263099Y70554D01*
X263607Y70893D01*
X263946Y71401D01*
X264066Y72000D01*
X263946Y72599D01*
X263607Y73107D01*
X263099Y73446D01*
X262500Y73566D01*
D02*
G37*
G36*
X197500Y72865D02*
X196901Y72746D01*
X196393Y72407D01*
X196054Y71899D01*
X195934Y71300D01*
X196054Y70701D01*
X196393Y70193D01*
X196901Y69854D01*
X197500Y69735D01*
X198099Y69854D01*
X198607Y70193D01*
X198946Y70701D01*
X199065Y71300D01*
X198946Y71899D01*
X198607Y72407D01*
X198099Y72746D01*
X197500Y72865D01*
D02*
G37*
G36*
X222600Y80500D02*
X215700D01*
Y79381D01*
X215619Y78976D01*
X215700Y78571D01*
Y75051D01*
X215619Y74646D01*
X215700Y74241D01*
Y70720D01*
X215619Y70315D01*
X215700Y69910D01*
Y68800D01*
X222600D01*
Y69914D01*
X222680Y70315D01*
X222600Y70716D01*
Y74245D01*
X222680Y74646D01*
X222600Y75047D01*
Y78575D01*
X222680Y78976D01*
X222600Y79377D01*
Y80500D01*
D02*
G37*
G36*
X241551Y70065D02*
X240952Y69946D01*
X240444Y69607D01*
X240105Y69099D01*
X239986Y68500D01*
X240105Y67901D01*
X240444Y67393D01*
X240952Y67054D01*
X241551Y66935D01*
X242150Y67054D01*
X242658Y67393D01*
X242998Y67901D01*
X243117Y68500D01*
X242998Y69099D01*
X242658Y69607D01*
X242150Y69946D01*
X241551Y70065D01*
D02*
G37*
G36*
X127500Y67764D02*
X127016Y67668D01*
X126606Y67394D01*
X126332Y66984D01*
X126235Y66500D01*
X126332Y66016D01*
X126606Y65606D01*
X127016Y65332D01*
X127500Y65236D01*
X127984Y65332D01*
X128394Y65606D01*
X128668Y66016D01*
X128764Y66500D01*
X128668Y66984D01*
X128394Y67394D01*
X127984Y67668D01*
X127500Y67764D01*
D02*
G37*
G36*
X112500D02*
X112016Y67668D01*
X111606Y67394D01*
X111332Y66984D01*
X111235Y66500D01*
X111332Y66016D01*
X111606Y65606D01*
X112016Y65332D01*
X112500Y65236D01*
X112984Y65332D01*
X113394Y65606D01*
X113668Y66016D01*
X113764Y66500D01*
X113668Y66984D01*
X113394Y67394D01*
X112984Y67668D01*
X112500Y67764D01*
D02*
G37*
G36*
X105000D02*
X104516Y67668D01*
X104106Y67394D01*
X103832Y66984D01*
X103735Y66500D01*
X103832Y66016D01*
X104106Y65606D01*
X104516Y65332D01*
X105000Y65236D01*
X105484Y65332D01*
X105894Y65606D01*
X106168Y66016D01*
X106264Y66500D01*
X106168Y66984D01*
X105894Y67394D01*
X105484Y67668D01*
X105000Y67764D01*
D02*
G37*
G36*
X67500D02*
X67016Y67668D01*
X66606Y67394D01*
X66332Y66984D01*
X66236Y66500D01*
X66332Y66016D01*
X66606Y65606D01*
X67016Y65332D01*
X67500Y65236D01*
X67984Y65332D01*
X68394Y65606D01*
X68668Y66016D01*
X68764Y66500D01*
X68668Y66984D01*
X68394Y67394D01*
X67984Y67668D01*
X67500Y67764D01*
D02*
G37*
G36*
X228500Y66566D02*
X227901Y66446D01*
X227393Y66107D01*
X227054Y65599D01*
X226935Y65000D01*
X227054Y64401D01*
X227393Y63893D01*
X227901Y63554D01*
X228500Y63434D01*
X229099Y63554D01*
X229607Y63893D01*
X229946Y64401D01*
X230065Y65000D01*
X229946Y65599D01*
X229607Y66107D01*
X229099Y66446D01*
X228500Y66566D01*
D02*
G37*
G36*
X232000Y61066D02*
X231401Y60946D01*
X230893Y60607D01*
X230554Y60099D01*
X230434Y59500D01*
X230554Y58901D01*
X230893Y58393D01*
X231401Y58054D01*
X232000Y57934D01*
X232599Y58054D01*
X233107Y58393D01*
X233446Y58901D01*
X233565Y59500D01*
X233446Y60099D01*
X233107Y60607D01*
X232599Y60946D01*
X232000Y61066D01*
D02*
G37*
G36*
X71250Y60264D02*
X70766Y60168D01*
X70356Y59894D01*
X70082Y59484D01*
X69986Y59000D01*
X70082Y58516D01*
X70356Y58106D01*
X70766Y57832D01*
X71250Y57736D01*
X71734Y57832D01*
X72144Y58106D01*
X72418Y58516D01*
X72514Y59000D01*
X72418Y59484D01*
X72144Y59894D01*
X71734Y60168D01*
X71250Y60264D01*
D02*
G37*
G36*
X63750D02*
X63266Y60168D01*
X62856Y59894D01*
X62582Y59484D01*
X62485Y59000D01*
X62582Y58516D01*
X62856Y58106D01*
X63266Y57832D01*
X63750Y57736D01*
X64234Y57832D01*
X64644Y58106D01*
X64918Y58516D01*
X65014Y59000D01*
X64918Y59484D01*
X64644Y59894D01*
X64234Y60168D01*
X63750Y60264D01*
D02*
G37*
G36*
X337500Y57465D02*
X336901Y57346D01*
X336393Y57007D01*
X336054Y56499D01*
X335934Y55900D01*
X336054Y55301D01*
X336393Y54793D01*
X336901Y54454D01*
X337500Y54334D01*
X338099Y54454D01*
X338607Y54793D01*
X338946Y55301D01*
X339066Y55900D01*
X338946Y56499D01*
X338607Y57007D01*
X338099Y57346D01*
X337500Y57465D01*
D02*
G37*
G36*
X227400Y57266D02*
X226801Y57146D01*
X226293Y56807D01*
X225954Y56299D01*
X225834Y55700D01*
X225954Y55101D01*
X226293Y54593D01*
X226801Y54254D01*
X227400Y54135D01*
X227999Y54254D01*
X228507Y54593D01*
X228846Y55101D01*
X228965Y55700D01*
X228846Y56299D01*
X228507Y56807D01*
X227999Y57146D01*
X227400Y57266D01*
D02*
G37*
G36*
X105000Y52764D02*
X104516Y52668D01*
X104106Y52394D01*
X103832Y51984D01*
X103735Y51500D01*
X103832Y51016D01*
X104106Y50606D01*
X104516Y50332D01*
X105000Y50236D01*
X105484Y50332D01*
X105894Y50606D01*
X106168Y51016D01*
X106264Y51500D01*
X106168Y51984D01*
X105894Y52394D01*
X105484Y52668D01*
X105000Y52764D01*
D02*
G37*
G36*
X97500D02*
X97016Y52668D01*
X96606Y52394D01*
X96332Y51984D01*
X96236Y51500D01*
X96332Y51016D01*
X96606Y50606D01*
X97016Y50332D01*
X97500Y50236D01*
X97984Y50332D01*
X98394Y50606D01*
X98668Y51016D01*
X98764Y51500D01*
X98668Y51984D01*
X98394Y52394D01*
X97984Y52668D01*
X97500Y52764D01*
D02*
G37*
G36*
X90000D02*
X89516Y52668D01*
X89106Y52394D01*
X88832Y51984D01*
X88736Y51500D01*
X88832Y51016D01*
X89106Y50606D01*
X89516Y50332D01*
X90000Y50236D01*
X90484Y50332D01*
X90894Y50606D01*
X91168Y51016D01*
X91264Y51500D01*
X91168Y51984D01*
X90894Y52394D01*
X90484Y52668D01*
X90000Y52764D01*
D02*
G37*
G36*
X67500D02*
X67016Y52668D01*
X66606Y52394D01*
X66332Y51984D01*
X66236Y51500D01*
X66332Y51016D01*
X66606Y50606D01*
X67016Y50332D01*
X67500Y50236D01*
X67984Y50332D01*
X68394Y50606D01*
X68668Y51016D01*
X68764Y51500D01*
X68668Y51984D01*
X68394Y52394D01*
X67984Y52668D01*
X67500Y52764D01*
D02*
G37*
G36*
X60000D02*
X59516Y52668D01*
X59106Y52394D01*
X58832Y51984D01*
X58736Y51500D01*
X58832Y51016D01*
X59106Y50606D01*
X59516Y50332D01*
X60000Y50236D01*
X60484Y50332D01*
X60894Y50606D01*
X61168Y51016D01*
X61264Y51500D01*
X61168Y51984D01*
X60894Y52394D01*
X60484Y52668D01*
X60000Y52764D01*
D02*
G37*
G36*
X327500Y47965D02*
X326901Y47846D01*
X326393Y47507D01*
X326128Y47110D01*
X325965Y47072D01*
X325735D01*
X325572Y47110D01*
X325307Y47507D01*
X324799Y47846D01*
X324200Y47965D01*
X323601Y47846D01*
X323093Y47507D01*
X322754Y46999D01*
X322635Y46400D01*
X322754Y45801D01*
X323093Y45293D01*
X323156Y45251D01*
Y44649D01*
X323093Y44607D01*
X322754Y44099D01*
X322635Y43500D01*
X322754Y42901D01*
X323093Y42393D01*
X323601Y42054D01*
X324200Y41934D01*
X324799Y42054D01*
X325307Y42393D01*
X325606Y42840D01*
X325644Y42854D01*
X325894Y42881D01*
X326148Y42860D01*
X326393Y42493D01*
X326901Y42154D01*
X327500Y42035D01*
X328099Y42154D01*
X328607Y42493D01*
X328946Y43001D01*
X329065Y43600D01*
X328946Y44199D01*
X328607Y44707D01*
X328543Y44750D01*
Y45250D01*
X328607Y45293D01*
X328946Y45801D01*
X329065Y46400D01*
X328946Y46999D01*
X328607Y47507D01*
X328099Y47846D01*
X327500Y47965D01*
D02*
G37*
G36*
X118500Y51065D02*
X117901Y50946D01*
X117393Y50607D01*
X117054Y50099D01*
X116935Y49500D01*
X117054Y48901D01*
X117393Y48393D01*
Y48107D01*
X117054Y47599D01*
X116935Y47000D01*
X117054Y46401D01*
X117393Y45893D01*
X117901Y45554D01*
X118500Y45434D01*
X119099Y45554D01*
X119607Y45893D01*
X119946Y46401D01*
X120065Y47000D01*
X119946Y47599D01*
X119607Y48107D01*
Y48393D01*
X119946Y48901D01*
X120065Y49500D01*
X119946Y50099D01*
X119607Y50607D01*
X119099Y50946D01*
X118500Y51065D01*
D02*
G37*
G36*
X507000Y45066D02*
X506401Y44946D01*
X506111Y44753D01*
X505750Y44648D01*
X505389Y44753D01*
X505099Y44946D01*
X504500Y45066D01*
X503901Y44946D01*
X503611Y44753D01*
X503250Y44648D01*
X502889Y44753D01*
X502599Y44946D01*
X502000Y45066D01*
X501401Y44946D01*
X500893Y44607D01*
X500554Y44099D01*
X500434Y43500D01*
X500554Y42901D01*
X500893Y42393D01*
X501401Y42054D01*
X502000Y41934D01*
X502599Y42054D01*
X503107Y42393D01*
X503393D01*
X503901Y42054D01*
X504500Y41934D01*
X505099Y42054D01*
X505607Y42393D01*
X505893D01*
X506401Y42054D01*
X507000Y41934D01*
X507599Y42054D01*
X508107Y42393D01*
X508446Y42901D01*
X508566Y43500D01*
X508446Y44099D01*
X508107Y44607D01*
X507599Y44946D01*
X507000Y45066D01*
D02*
G37*
G36*
X485451Y44903D02*
X484852Y44784D01*
X484562Y44590D01*
X484201Y44486D01*
X483840Y44590D01*
X483550Y44784D01*
X482951Y44903D01*
X482352Y44784D01*
X482062Y44590D01*
X481701Y44486D01*
X481340Y44590D01*
X481050Y44784D01*
X480451Y44903D01*
X479852Y44784D01*
X479344Y44444D01*
X479005Y43936D01*
X478886Y43337D01*
X479005Y42738D01*
X479344Y42230D01*
X479852Y41891D01*
X480451Y41772D01*
X481050Y41891D01*
X481340Y42085D01*
X481701Y42189D01*
X482062Y42085D01*
X482352Y41891D01*
X482951Y41772D01*
X483550Y41891D01*
X483840Y42085D01*
X484201Y42189D01*
X484562Y42085D01*
X484852Y41891D01*
X485451Y41772D01*
X486050Y41891D01*
X486558Y42230D01*
X486898Y42738D01*
X487017Y43337D01*
X486898Y43936D01*
X486558Y44444D01*
X486050Y44784D01*
X485451Y44903D01*
D02*
G37*
G36*
X101250Y45264D02*
X100766Y45168D01*
X100356Y44894D01*
X100082Y44484D01*
X99985Y44000D01*
X100082Y43516D01*
X100356Y43106D01*
X100766Y42832D01*
X101250Y42736D01*
X101734Y42832D01*
X102144Y43106D01*
X102418Y43516D01*
X102514Y44000D01*
X102418Y44484D01*
X102144Y44894D01*
X101734Y45168D01*
X101250Y45264D01*
D02*
G37*
G36*
X93750D02*
X93266Y45168D01*
X92856Y44894D01*
X92582Y44484D01*
X92485Y44000D01*
X92582Y43516D01*
X92856Y43106D01*
X93266Y42832D01*
X93750Y42736D01*
X94234Y42832D01*
X94644Y43106D01*
X94918Y43516D01*
X95014Y44000D01*
X94918Y44484D01*
X94644Y44894D01*
X94234Y45168D01*
X93750Y45264D01*
D02*
G37*
G36*
X63750D02*
X63266Y45168D01*
X62856Y44894D01*
X62582Y44484D01*
X62485Y44000D01*
X62582Y43516D01*
X62856Y43106D01*
X63266Y42832D01*
X63750Y42736D01*
X64234Y42832D01*
X64644Y43106D01*
X64918Y43516D01*
X65014Y44000D01*
X64918Y44484D01*
X64644Y44894D01*
X64234Y45168D01*
X63750Y45264D01*
D02*
G37*
G36*
X127500Y37764D02*
X127016Y37668D01*
X126606Y37394D01*
X126332Y36984D01*
X126235Y36500D01*
X126332Y36016D01*
X126606Y35606D01*
X127016Y35332D01*
X127500Y35236D01*
X127984Y35332D01*
X128394Y35606D01*
X128668Y36016D01*
X128764Y36500D01*
X128668Y36984D01*
X128394Y37394D01*
X127984Y37668D01*
X127500Y37764D01*
D02*
G37*
G36*
X112500D02*
X112016Y37668D01*
X111606Y37394D01*
X111332Y36984D01*
X111235Y36500D01*
X111332Y36016D01*
X111606Y35606D01*
X112016Y35332D01*
X112500Y35236D01*
X112984Y35332D01*
X113394Y35606D01*
X113668Y36016D01*
X113764Y36500D01*
X113668Y36984D01*
X113394Y37394D01*
X112984Y37668D01*
X112500Y37764D01*
D02*
G37*
G36*
X105000D02*
X104516Y37668D01*
X104106Y37394D01*
X103832Y36984D01*
X103735Y36500D01*
X103832Y36016D01*
X104106Y35606D01*
X104516Y35332D01*
X105000Y35236D01*
X105484Y35332D01*
X105894Y35606D01*
X106168Y36016D01*
X106264Y36500D01*
X106168Y36984D01*
X105894Y37394D01*
X105484Y37668D01*
X105000Y37764D01*
D02*
G37*
G36*
X90000D02*
X89516Y37668D01*
X89106Y37394D01*
X88832Y36984D01*
X88736Y36500D01*
X88832Y36016D01*
X89106Y35606D01*
X89516Y35332D01*
X90000Y35236D01*
X90484Y35332D01*
X90894Y35606D01*
X91168Y36016D01*
X91264Y36500D01*
X91168Y36984D01*
X90894Y37394D01*
X90484Y37668D01*
X90000Y37764D01*
D02*
G37*
G36*
X331846Y41916D02*
X331247Y41796D01*
X330739Y41457D01*
X330400Y40949D01*
X330281Y40350D01*
X330400Y39751D01*
X330739Y39243D01*
X330840Y39176D01*
Y38574D01*
X330739Y38507D01*
X330400Y37999D01*
X330281Y37400D01*
X330400Y36801D01*
X330739Y36293D01*
X330803Y36251D01*
Y35649D01*
X330739Y35607D01*
X330400Y35099D01*
X330281Y34500D01*
X330400Y33901D01*
X330739Y33393D01*
X331247Y33054D01*
X331846Y32934D01*
X332446Y33054D01*
X332953Y33393D01*
X333293Y33901D01*
X333412Y34500D01*
X333293Y35099D01*
X332953Y35607D01*
X332890Y35649D01*
Y36251D01*
X332953Y36293D01*
X333293Y36801D01*
X333412Y37400D01*
X333293Y37999D01*
X332953Y38507D01*
X332853Y38574D01*
Y39176D01*
X332953Y39243D01*
X333293Y39751D01*
X333412Y40350D01*
X333293Y40949D01*
X332953Y41457D01*
X332446Y41796D01*
X331846Y41916D01*
D02*
G37*
G36*
X86250Y30264D02*
X85766Y30168D01*
X85356Y29894D01*
X85082Y29484D01*
X84986Y29000D01*
X85082Y28516D01*
X85356Y28106D01*
X85766Y27832D01*
X86250Y27736D01*
X86734Y27832D01*
X87144Y28106D01*
X87418Y28516D01*
X87514Y29000D01*
X87418Y29484D01*
X87144Y29894D01*
X86734Y30168D01*
X86250Y30264D01*
D02*
G37*
G36*
X78750D02*
X78266Y30168D01*
X77856Y29894D01*
X77582Y29484D01*
X77486Y29000D01*
X77582Y28516D01*
X77856Y28106D01*
X78266Y27832D01*
X78750Y27736D01*
X79234Y27832D01*
X79644Y28106D01*
X79918Y28516D01*
X80014Y29000D01*
X79918Y29484D01*
X79644Y29894D01*
X79234Y30168D01*
X78750Y30264D01*
D02*
G37*
G36*
X63750D02*
X63266Y30168D01*
X62856Y29894D01*
X62582Y29484D01*
X62485Y29000D01*
X62582Y28516D01*
X62856Y28106D01*
X63266Y27832D01*
X63750Y27736D01*
X64234Y27832D01*
X64644Y28106D01*
X64918Y28516D01*
X65014Y29000D01*
X64918Y29484D01*
X64644Y29894D01*
X64234Y30168D01*
X63750Y30264D01*
D02*
G37*
G36*
X56250D02*
X55766Y30168D01*
X55356Y29894D01*
X55082Y29484D01*
X54985Y29000D01*
X55082Y28516D01*
X55356Y28106D01*
X55766Y27832D01*
X56250Y27736D01*
X56734Y27832D01*
X57144Y28106D01*
X57418Y28516D01*
X57514Y29000D01*
X57418Y29484D01*
X57144Y29894D01*
X56734Y30168D01*
X56250Y30264D01*
D02*
G37*
G36*
X21300Y26265D02*
X20701Y26146D01*
X20411Y25953D01*
X20050Y25848D01*
X19689Y25953D01*
X19399Y26146D01*
X18800Y26265D01*
X18201Y26146D01*
X17911Y25953D01*
X17550Y25848D01*
X17189Y25953D01*
X16899Y26146D01*
X16300Y26265D01*
X15701Y26146D01*
X15193Y25807D01*
X14854Y25299D01*
X14735Y24700D01*
X14854Y24101D01*
X15193Y23593D01*
X15701Y23254D01*
X16300Y23134D01*
X16899Y23254D01*
X17189Y23447D01*
X17550Y23552D01*
X17911Y23447D01*
X18201Y23254D01*
X18800Y23134D01*
X19399Y23254D01*
X19689Y23447D01*
X20050Y23552D01*
X20411Y23447D01*
X20701Y23254D01*
X21300Y23134D01*
X21899Y23254D01*
X22407Y23593D01*
X22746Y24101D01*
X22865Y24700D01*
X22746Y25299D01*
X22407Y25807D01*
X21899Y26146D01*
X21300Y26265D01*
D02*
G37*
G36*
X112500Y22764D02*
X112016Y22668D01*
X111606Y22394D01*
X111332Y21984D01*
X111235Y21500D01*
X111332Y21016D01*
X111606Y20606D01*
X112016Y20332D01*
X112500Y20236D01*
X112984Y20332D01*
X113394Y20606D01*
X113668Y21016D01*
X113764Y21500D01*
X113668Y21984D01*
X113394Y22394D01*
X112984Y22668D01*
X112500Y22764D01*
D02*
G37*
G36*
X105000D02*
X104516Y22668D01*
X104106Y22394D01*
X103832Y21984D01*
X103735Y21500D01*
X103832Y21016D01*
X104106Y20606D01*
X104516Y20332D01*
X105000Y20236D01*
X105484Y20332D01*
X105894Y20606D01*
X106168Y21016D01*
X106264Y21500D01*
X106168Y21984D01*
X105894Y22394D01*
X105484Y22668D01*
X105000Y22764D01*
D02*
G37*
G36*
X97500D02*
X97016Y22668D01*
X96606Y22394D01*
X96332Y21984D01*
X96236Y21500D01*
X96332Y21016D01*
X96606Y20606D01*
X97016Y20332D01*
X97500Y20236D01*
X97984Y20332D01*
X98394Y20606D01*
X98668Y21016D01*
X98764Y21500D01*
X98668Y21984D01*
X98394Y22394D01*
X97984Y22668D01*
X97500Y22764D01*
D02*
G37*
G36*
X90000D02*
X89516Y22668D01*
X89106Y22394D01*
X88832Y21984D01*
X88736Y21500D01*
X88832Y21016D01*
X89106Y20606D01*
X89516Y20332D01*
X90000Y20236D01*
X90484Y20332D01*
X90894Y20606D01*
X91168Y21016D01*
X91264Y21500D01*
X91168Y21984D01*
X90894Y22394D01*
X90484Y22668D01*
X90000Y22764D01*
D02*
G37*
G36*
X60000D02*
X59516Y22668D01*
X59106Y22394D01*
X58832Y21984D01*
X58736Y21500D01*
X58832Y21016D01*
X59106Y20606D01*
X59516Y20332D01*
X60000Y20236D01*
X60484Y20332D01*
X60894Y20606D01*
X61168Y21016D01*
X61264Y21500D01*
X61168Y21984D01*
X60894Y22394D01*
X60484Y22668D01*
X60000Y22764D01*
D02*
G37*
G36*
X337700Y20865D02*
X337101Y20746D01*
X336593Y20407D01*
X336254Y19899D01*
X336135Y19300D01*
X336254Y18701D01*
X336593Y18193D01*
X337101Y17854D01*
X337700Y17734D01*
X338299Y17854D01*
X338807Y18193D01*
X339146Y18701D01*
X339265Y19300D01*
X339146Y19899D01*
X338807Y20407D01*
X338299Y20746D01*
X337700Y20865D01*
D02*
G37*
G36*
X131250Y15264D02*
X130766Y15168D01*
X130356Y14894D01*
X130082Y14484D01*
X129985Y14000D01*
X130082Y13516D01*
X130356Y13106D01*
X130766Y12832D01*
X131250Y12736D01*
X131734Y12832D01*
X132144Y13106D01*
X132418Y13516D01*
X132514Y14000D01*
X132418Y14484D01*
X132144Y14894D01*
X131734Y15168D01*
X131250Y15264D01*
D02*
G37*
G36*
X123750D02*
X123266Y15168D01*
X122856Y14894D01*
X122582Y14484D01*
X122485Y14000D01*
X122582Y13516D01*
X122856Y13106D01*
X123266Y12832D01*
X123750Y12736D01*
X124234Y12832D01*
X124644Y13106D01*
X124918Y13516D01*
X125014Y14000D01*
X124918Y14484D01*
X124644Y14894D01*
X124234Y15168D01*
X123750Y15264D01*
D02*
G37*
G36*
X93750D02*
X93266Y15168D01*
X92856Y14894D01*
X92582Y14484D01*
X92485Y14000D01*
X92582Y13516D01*
X92856Y13106D01*
X93266Y12832D01*
X93750Y12736D01*
X94234Y12832D01*
X94644Y13106D01*
X94918Y13516D01*
X95014Y14000D01*
X94918Y14484D01*
X94644Y14894D01*
X94234Y15168D01*
X93750Y15264D01*
D02*
G37*
G36*
X127500Y7764D02*
X127016Y7668D01*
X126606Y7394D01*
X126332Y6984D01*
X126235Y6500D01*
X126332Y6016D01*
X126606Y5606D01*
X127016Y5332D01*
X127500Y5235D01*
X127984Y5332D01*
X128394Y5606D01*
X128668Y6016D01*
X128764Y6500D01*
X128668Y6984D01*
X128394Y7394D01*
X127984Y7668D01*
X127500Y7764D01*
D02*
G37*
G36*
X120000D02*
X119516Y7668D01*
X119106Y7394D01*
X118832Y6984D01*
X118736Y6500D01*
X118832Y6016D01*
X119106Y5606D01*
X119516Y5332D01*
X120000Y5235D01*
X120484Y5332D01*
X120894Y5606D01*
X121168Y6016D01*
X121264Y6500D01*
X121168Y6984D01*
X120894Y7394D01*
X120484Y7668D01*
X120000Y7764D01*
D02*
G37*
G36*
X112500D02*
X112016Y7668D01*
X111606Y7394D01*
X111332Y6984D01*
X111235Y6500D01*
X111332Y6016D01*
X111606Y5606D01*
X112016Y5332D01*
X112500Y5235D01*
X112984Y5332D01*
X113394Y5606D01*
X113668Y6016D01*
X113764Y6500D01*
X113668Y6984D01*
X113394Y7394D01*
X112984Y7668D01*
X112500Y7764D01*
D02*
G37*
G36*
X105000D02*
X104516Y7668D01*
X104106Y7394D01*
X103832Y6984D01*
X103735Y6500D01*
X103832Y6016D01*
X104106Y5606D01*
X104516Y5332D01*
X105000Y5235D01*
X105484Y5332D01*
X105894Y5606D01*
X106168Y6016D01*
X106264Y6500D01*
X106168Y6984D01*
X105894Y7394D01*
X105484Y7668D01*
X105000Y7764D01*
D02*
G37*
G36*
X97500D02*
X97016Y7668D01*
X96606Y7394D01*
X96332Y6984D01*
X96236Y6500D01*
X96332Y6016D01*
X96606Y5606D01*
X97016Y5332D01*
X97500Y5235D01*
X97984Y5332D01*
X98394Y5606D01*
X98668Y6016D01*
X98764Y6500D01*
X98668Y6984D01*
X98394Y7394D01*
X97984Y7668D01*
X97500Y7764D01*
D02*
G37*
G36*
X90000D02*
X89516Y7668D01*
X89106Y7394D01*
X88832Y6984D01*
X88736Y6500D01*
X88832Y6016D01*
X89106Y5606D01*
X89516Y5332D01*
X90000Y5235D01*
X90484Y5332D01*
X90894Y5606D01*
X91168Y6016D01*
X91264Y6500D01*
X91168Y6984D01*
X90894Y7394D01*
X90484Y7668D01*
X90000Y7764D01*
D02*
G37*
G36*
X82500D02*
X82016Y7668D01*
X81606Y7394D01*
X81332Y6984D01*
X81235Y6500D01*
X81332Y6016D01*
X81606Y5606D01*
X82016Y5332D01*
X82500Y5235D01*
X82984Y5332D01*
X83394Y5606D01*
X83668Y6016D01*
X83764Y6500D01*
X83668Y6984D01*
X83394Y7394D01*
X82984Y7668D01*
X82500Y7764D01*
D02*
G37*
G36*
X75000D02*
X74516Y7668D01*
X74106Y7394D01*
X73832Y6984D01*
X73735Y6500D01*
X73832Y6016D01*
X74106Y5606D01*
X74516Y5332D01*
X75000Y5235D01*
X75484Y5332D01*
X75894Y5606D01*
X76168Y6016D01*
X76264Y6500D01*
X76168Y6984D01*
X75894Y7394D01*
X75484Y7668D01*
X75000Y7764D01*
D02*
G37*
G36*
X67500D02*
X67016Y7668D01*
X66606Y7394D01*
X66332Y6984D01*
X66236Y6500D01*
X66332Y6016D01*
X66606Y5606D01*
X67016Y5332D01*
X67500Y5235D01*
X67984Y5332D01*
X68394Y5606D01*
X68668Y6016D01*
X68764Y6500D01*
X68668Y6984D01*
X68394Y7394D01*
X67984Y7668D01*
X67500Y7764D01*
D02*
G37*
G36*
X60000D02*
X59516Y7668D01*
X59106Y7394D01*
X58832Y6984D01*
X58736Y6500D01*
X58832Y6016D01*
X59106Y5606D01*
X59516Y5332D01*
X60000Y5235D01*
X60484Y5332D01*
X60894Y5606D01*
X61168Y6016D01*
X61264Y6500D01*
X61168Y6984D01*
X60894Y7394D01*
X60484Y7668D01*
X60000Y7764D01*
D02*
G37*
%LPD*%
D16*
X523000Y228500D02*
Y242000D01*
Y228500D02*
X529500Y222000D01*
D83*
X133300Y203881D02*
X133500Y204081D01*
Y231500D01*
X133000Y114000D02*
Y125700D01*
D87*
X529500Y222000D02*
D03*
D92*
X133300Y203881D02*
D03*
X16500Y43000D02*
D03*
Y53000D02*
D03*
X19000Y48000D02*
D03*
X29000D02*
D03*
X31500Y33000D02*
D03*
X24000Y38000D02*
D03*
X26500Y53000D02*
D03*
Y43000D02*
D03*
X31500Y53000D02*
D03*
X26500Y33000D02*
D03*
X24000Y48000D02*
D03*
X29000Y38000D02*
D03*
X11500Y33000D02*
D03*
X31500Y43000D02*
D03*
X11500Y53000D02*
D03*
X14000Y48000D02*
D03*
X21500Y53000D02*
D03*
Y43000D02*
D03*
X11500D02*
D03*
X482951Y46837D02*
D03*
X480451D02*
D03*
X485451D02*
D03*
X133000Y125700D02*
D03*
Y114000D02*
D03*
X404000Y137500D02*
D03*
Y112000D02*
D03*
X523000Y242000D02*
D03*
X502000Y77000D02*
D03*
X507000D02*
D03*
X504500D02*
D03*
X507000Y47000D02*
D03*
X504500D02*
D03*
X502000D02*
D03*
X404000Y297000D02*
D03*
Y271500D02*
D03*
Y245500D02*
D03*
Y220500D02*
D03*
Y189000D02*
D03*
Y163000D02*
D03*
X133500Y231500D02*
D03*
X232000Y323000D02*
D03*
X170000Y285500D02*
D03*
X233500Y257500D02*
D03*
X171000Y216500D02*
D03*
Y167000D02*
D03*
X235400Y136600D02*
D03*
X171000Y99000D02*
D03*
X-9000Y122000D02*
D03*
X101500Y13000D02*
D03*
X104000D02*
D03*
X235500Y62500D02*
D03*
X472900Y345000D02*
D03*
X294500Y257000D02*
D03*
Y267000D02*
D03*
Y277000D02*
D03*
Y287000D02*
D03*
Y141000D02*
D03*
Y131000D02*
D03*
Y121000D02*
D03*
Y111000D02*
D03*
M02*
