G04*
G04 #@! TF.GenerationSoftware,Altium Limited,Altium Designer,19.1.9 (167)*
G04*
G04 Layer_Physical_Order=2*
G04 Layer_Color=36540*
%FSLAX25Y25*%
%MOIN*%
G70*
G01*
G75*
%ADD16C,0.01000*%
%ADD92C,0.02362*%
%ADD93C,0.01772*%
%ADD94C,0.01968*%
G36*
X553630Y254477D02*
X553130Y254403D01*
X552768Y255596D01*
X552141Y256769D01*
X551298Y257798D01*
X550269Y258641D01*
X549096Y259268D01*
X547824Y259654D01*
X546500Y259785D01*
X545176Y259654D01*
X543904Y259268D01*
X542731Y258641D01*
X541703Y257798D01*
X540859Y256769D01*
X540232Y255596D01*
X539846Y254324D01*
X539715Y253000D01*
X539846Y251676D01*
X540232Y250404D01*
X540859Y249231D01*
X541703Y248202D01*
X542731Y247359D01*
X543904Y246732D01*
X545176Y246346D01*
X546500Y246215D01*
X547824Y246346D01*
X549096Y246732D01*
X550269Y247359D01*
X551298Y248202D01*
X552141Y249231D01*
X552768Y250404D01*
X553130Y251597D01*
X553630Y251523D01*
Y142477D01*
X553130Y142403D01*
X552768Y143596D01*
X552141Y144769D01*
X551298Y145798D01*
X550269Y146641D01*
X549096Y147268D01*
X547824Y147654D01*
X546500Y147785D01*
X545176Y147654D01*
X543904Y147268D01*
X542731Y146641D01*
X541703Y145798D01*
X540859Y144769D01*
X540232Y143596D01*
X539846Y142324D01*
X539715Y141000D01*
X539846Y139676D01*
X540232Y138404D01*
X540859Y137231D01*
X541703Y136203D01*
X542731Y135359D01*
X543904Y134732D01*
X545176Y134346D01*
X546500Y134215D01*
X547824Y134346D01*
X549096Y134732D01*
X550269Y135359D01*
X551298Y136203D01*
X552141Y137231D01*
X552768Y138404D01*
X553130Y139597D01*
X553630Y139523D01*
Y114500D01*
X495500D01*
Y89000D01*
X505638Y78862D01*
X505541Y78371D01*
X505338Y78287D01*
X505099Y78446D01*
X504500Y78566D01*
X503901Y78446D01*
X503393Y78107D01*
X503107D01*
X502599Y78446D01*
X502000Y78566D01*
X501401Y78446D01*
X500893Y78107D01*
X500554Y77599D01*
X500434Y77000D01*
X500554Y76401D01*
X500893Y75893D01*
X501401Y75554D01*
X502000Y75434D01*
X502599Y75554D01*
X503107Y75893D01*
X503393D01*
X503901Y75554D01*
X504500Y75434D01*
X505099Y75554D01*
X505607Y75893D01*
X505893D01*
X506401Y75554D01*
X507000Y75434D01*
X507599Y75554D01*
X508107Y75893D01*
X508562Y75938D01*
X509500Y75000D01*
Y2039D01*
X8100D01*
X8087Y2037D01*
X8074Y2039D01*
X7487Y2032D01*
X6333Y2246D01*
X5242Y2682D01*
X4258Y3322D01*
X3417Y4142D01*
X2753Y5110D01*
X2290Y6190D01*
X2046Y7338D01*
X2039Y7913D01*
Y115437D01*
X1884Y116217D01*
X1442Y116879D01*
X780Y117321D01*
X-0Y117476D01*
X-23933D01*
X-23983Y117466D01*
X-24033Y117474D01*
X-24419Y117455D01*
X-24566Y117418D01*
X-24717D01*
X-25474Y117267D01*
X-25659Y117191D01*
X-25856Y117151D01*
X-26569Y116856D01*
X-26736Y116744D01*
X-26922Y116668D01*
X-27564Y116239D01*
X-27706Y116097D01*
X-27873Y115985D01*
X-28418Y115439D01*
X-28530Y115272D01*
X-28672Y115130D01*
X-29101Y114489D01*
X-29178Y114303D01*
X-29289Y114136D01*
X-29585Y113423D01*
X-29624Y113226D01*
X-29700Y113041D01*
X-29851Y112284D01*
Y112133D01*
X-29888Y111986D01*
X-29907Y111600D01*
X-29899Y111550D01*
X-29909Y111500D01*
Y109602D01*
X-32838D01*
Y121343D01*
X-32848Y121392D01*
X-32841Y121443D01*
X-32860Y121828D01*
X-32896Y121975D01*
Y122126D01*
X-33047Y122883D01*
X-33124Y123069D01*
X-33163Y123266D01*
X-33458Y123979D01*
X-33570Y124146D01*
X-33647Y124331D01*
X-34076Y124973D01*
X-34218Y125115D01*
X-34329Y125282D01*
X-34875Y125828D01*
X-35042Y125939D01*
X-35184Y126081D01*
X-35826Y126510D01*
X-36011Y126587D01*
X-36178Y126699D01*
X-36891Y126994D01*
X-37088Y127033D01*
X-37274Y127110D01*
X-38031Y127260D01*
X-38182D01*
X-38328Y127297D01*
X-38714Y127316D01*
X-38765Y127309D01*
X-38814Y127319D01*
X-54000D01*
Y183969D01*
X-38028D01*
X-37961Y183982D01*
X-37894Y183973D01*
X-37278Y184013D01*
X-37084Y184065D01*
X-36883Y184079D01*
X-35692Y184398D01*
X-35453Y184516D01*
X-35200Y184602D01*
X-34132Y185218D01*
X-33931Y185394D01*
X-33710Y185542D01*
X-32838Y186414D01*
X-32689Y186636D01*
X-32513Y186837D01*
X-31897Y187905D01*
X-31811Y188157D01*
X-31693Y188397D01*
X-31374Y189588D01*
X-31356Y189854D01*
X-31304Y190116D01*
Y191349D01*
X-31356Y191611D01*
X-31374Y191877D01*
X-31693Y193068D01*
X-31811Y193307D01*
X-31897Y193560D01*
X-32513Y194628D01*
X-32689Y194828D01*
X-32838Y195050D01*
X-33710Y195922D01*
X-33931Y196071D01*
X-34132Y196246D01*
X-35200Y196863D01*
X-35453Y196949D01*
X-35692Y197067D01*
X-36883Y197386D01*
X-37084Y197399D01*
X-37278Y197451D01*
X-37894Y197492D01*
X-37961Y197483D01*
X-38028Y197496D01*
X-54000D01*
Y266744D01*
X-38814D01*
X-38765Y266754D01*
X-38714Y266747D01*
X-38328Y266766D01*
X-38182Y266803D01*
X-38031D01*
X-37274Y266953D01*
X-37088Y267030D01*
X-36891Y267069D01*
X-36178Y267364D01*
X-36011Y267476D01*
X-35826Y267553D01*
X-35184Y267982D01*
X-35042Y268124D01*
X-34875Y268235D01*
X-34329Y268781D01*
X-34218Y268948D01*
X-34076Y269090D01*
X-33647Y269732D01*
X-33570Y269917D01*
X-33458Y270084D01*
X-33163Y270797D01*
X-33124Y270994D01*
X-33047Y271180D01*
X-32896Y271937D01*
Y272088D01*
X-32860Y272235D01*
X-32841Y272620D01*
X-32848Y272671D01*
X-32838Y272721D01*
Y284461D01*
X-29909D01*
Y282563D01*
X-29899Y282513D01*
X-29907Y282463D01*
X-29888Y282077D01*
X-29851Y281930D01*
Y281779D01*
X-29700Y281022D01*
X-29624Y280837D01*
X-29585Y280640D01*
X-29289Y279927D01*
X-29177Y279760D01*
X-29101Y279574D01*
X-28672Y278932D01*
X-28530Y278790D01*
X-28418Y278624D01*
X-27873Y278078D01*
X-27706Y277966D01*
X-27564Y277824D01*
X-26922Y277395D01*
X-26736Y277319D01*
X-26569Y277207D01*
X-25856Y276912D01*
X-25659Y276872D01*
X-25474Y276796D01*
X-24717Y276645D01*
X-24566D01*
X-24419Y276608D01*
X-24033Y276589D01*
X-23983Y276597D01*
X-23933Y276587D01*
X-0D01*
X780Y276742D01*
X1442Y277184D01*
X1884Y277846D01*
X2039Y278626D01*
Y385700D01*
Y386287D01*
X2268Y387439D01*
X2718Y388524D01*
X3370Y389500D01*
X4200Y390331D01*
X5177Y390983D01*
X6262Y391432D01*
X7414Y391662D01*
X553630D01*
Y254477D01*
D02*
G37*
%LPC*%
G36*
X32900Y375365D02*
X32301Y375246D01*
X31793Y374907D01*
X31454Y374399D01*
X31334Y373800D01*
X31454Y373201D01*
X31793Y372693D01*
X32301Y372354D01*
X32900Y372235D01*
X33499Y372354D01*
X34007Y372693D01*
X34346Y373201D01*
X34466Y373800D01*
X34346Y374399D01*
X34007Y374907D01*
X33499Y375246D01*
X32900Y375365D01*
D02*
G37*
G36*
X543307Y379129D02*
X541926Y378993D01*
X540597Y378590D01*
X539373Y377935D01*
X538300Y377055D01*
X537419Y375981D01*
X536765Y374757D01*
X536362Y373429D01*
X536226Y372047D01*
X536362Y370666D01*
X536765Y369337D01*
X537419Y368113D01*
X538300Y367040D01*
X539373Y366159D01*
X540597Y365505D01*
X541926Y365102D01*
X543307Y364966D01*
X544689Y365102D01*
X546017Y365505D01*
X547241Y366159D01*
X548314Y367040D01*
X549195Y368113D01*
X549849Y369337D01*
X550252Y370666D01*
X550388Y372047D01*
X550252Y373429D01*
X549849Y374757D01*
X549195Y375981D01*
X548314Y377055D01*
X547241Y377935D01*
X546017Y378590D01*
X544689Y378993D01*
X543307Y379129D01*
D02*
G37*
G36*
X48970Y364116D02*
X48371Y363996D01*
X47863Y363657D01*
X47524Y363149D01*
X47405Y362550D01*
X47524Y361951D01*
X47863Y361443D01*
X48371Y361104D01*
X48970Y360984D01*
X49569Y361104D01*
X50077Y361443D01*
X50416Y361951D01*
X50536Y362550D01*
X50416Y363149D01*
X50077Y363657D01*
X49569Y363996D01*
X48970Y364116D01*
D02*
G37*
G36*
X39120D02*
X38521Y363996D01*
X38013Y363657D01*
X37674Y363149D01*
X37554Y362550D01*
X37674Y361951D01*
X38013Y361443D01*
X38521Y361104D01*
X39120Y360984D01*
X39719Y361104D01*
X40227Y361443D01*
X40566Y361951D01*
X40685Y362550D01*
X40566Y363149D01*
X40227Y363657D01*
X39719Y363996D01*
X39120Y364116D01*
D02*
G37*
G36*
X31000Y360766D02*
X30401Y360646D01*
X29893Y360307D01*
X29554Y359799D01*
X29434Y359200D01*
X29554Y358601D01*
X29893Y358093D01*
X30401Y357754D01*
X31000Y357634D01*
X31599Y357754D01*
X32107Y358093D01*
X32446Y358601D01*
X32566Y359200D01*
X32446Y359799D01*
X32107Y360307D01*
X31599Y360646D01*
X31000Y360766D01*
D02*
G37*
G36*
X27000D02*
X26401Y360646D01*
X25893Y360307D01*
X25554Y359799D01*
X25434Y359200D01*
X25554Y358601D01*
X25893Y358093D01*
X26401Y357754D01*
X27000Y357634D01*
X27599Y357754D01*
X28107Y358093D01*
X28446Y358601D01*
X28565Y359200D01*
X28446Y359799D01*
X28107Y360307D01*
X27599Y360646D01*
X27000Y360766D01*
D02*
G37*
G36*
X23000D02*
X22401Y360646D01*
X21893Y360307D01*
X21554Y359799D01*
X21434Y359200D01*
X21554Y358601D01*
X21893Y358093D01*
X22401Y357754D01*
X23000Y357634D01*
X23599Y357754D01*
X24107Y358093D01*
X24446Y358601D01*
X24566Y359200D01*
X24446Y359799D01*
X24107Y360307D01*
X23599Y360646D01*
X23000Y360766D01*
D02*
G37*
G36*
X119900Y359793D02*
X119301Y359673D01*
X118793Y359334D01*
X118454Y358826D01*
X118334Y358227D01*
X118454Y357628D01*
X118793Y357120D01*
X119301Y356781D01*
X119900Y356662D01*
X120499Y356781D01*
X121007Y357120D01*
X121346Y357628D01*
X121466Y358227D01*
X121346Y358826D01*
X121007Y359334D01*
X120499Y359673D01*
X119900Y359793D01*
D02*
G37*
G36*
X110351D02*
X109751Y359673D01*
X109244Y359334D01*
X108904Y358826D01*
X108785Y358227D01*
X108904Y357628D01*
X109244Y357120D01*
X109751Y356781D01*
X110351Y356662D01*
X110950Y356781D01*
X111458Y357120D01*
X111797Y357628D01*
X111916Y358227D01*
X111797Y358826D01*
X111458Y359334D01*
X110950Y359673D01*
X110351Y359793D01*
D02*
G37*
G36*
X94017Y356767D02*
X93418Y356648D01*
X92910Y356309D01*
X92571Y355801D01*
X92452Y355202D01*
X92571Y354602D01*
X92910Y354095D01*
X93418Y353755D01*
X94017Y353636D01*
X94616Y353755D01*
X95124Y354095D01*
X95464Y354602D01*
X95583Y355202D01*
X95464Y355801D01*
X95124Y356309D01*
X94616Y356648D01*
X94017Y356767D01*
D02*
G37*
G36*
X80327D02*
X79728Y356648D01*
X79220Y356309D01*
X78881Y355801D01*
X78762Y355202D01*
X78881Y354602D01*
X79220Y354095D01*
X79728Y353755D01*
X80327Y353636D01*
X80927Y353755D01*
X81435Y354095D01*
X81774Y354602D01*
X81893Y355202D01*
X81774Y355801D01*
X81435Y356309D01*
X80927Y356648D01*
X80327Y356767D01*
D02*
G37*
G36*
X62199D02*
X61600Y356648D01*
X61092Y356309D01*
X60753Y355801D01*
X60634Y355202D01*
X60753Y354602D01*
X61092Y354095D01*
X61600Y353755D01*
X62199Y353636D01*
X62798Y353755D01*
X63306Y354095D01*
X63646Y354602D01*
X63765Y355202D01*
X63646Y355801D01*
X63306Y356309D01*
X62798Y356648D01*
X62199Y356767D01*
D02*
G37*
G36*
X472900Y346566D02*
X472301Y346446D01*
X471793Y346107D01*
X471454Y345599D01*
X471335Y345000D01*
X471454Y344401D01*
X471793Y343893D01*
X472301Y343554D01*
X472900Y343435D01*
X473499Y343554D01*
X474007Y343893D01*
X474346Y344401D01*
X474466Y345000D01*
X474346Y345599D01*
X474007Y346107D01*
X473499Y346446D01*
X472900Y346566D01*
D02*
G37*
G36*
X457900D02*
X457301Y346446D01*
X456793Y346107D01*
X456454Y345599D01*
X456334Y345000D01*
X456454Y344401D01*
X456793Y343893D01*
X457301Y343554D01*
X457900Y343435D01*
X458499Y343554D01*
X459007Y343893D01*
X459346Y344401D01*
X459466Y345000D01*
X459346Y345599D01*
X459007Y346107D01*
X458499Y346446D01*
X457900Y346566D01*
D02*
G37*
G36*
X206000Y346065D02*
X205401Y345946D01*
X204893Y345607D01*
X204554Y345099D01*
X204434Y344500D01*
X204554Y343901D01*
X204893Y343393D01*
X205401Y343054D01*
X206000Y342934D01*
X206599Y343054D01*
X207107Y343393D01*
X207446Y343901D01*
X207565Y344500D01*
X207446Y345099D01*
X207107Y345607D01*
X206599Y345946D01*
X206000Y346065D01*
D02*
G37*
G36*
X484700Y344465D02*
X484101Y344346D01*
X483593Y344007D01*
X483254Y343499D01*
X483135Y342900D01*
X483254Y342301D01*
X483593Y341793D01*
X484101Y341454D01*
X484700Y341335D01*
X485299Y341454D01*
X485807Y341793D01*
X486146Y342301D01*
X486266Y342900D01*
X486146Y343499D01*
X485807Y344007D01*
X485299Y344346D01*
X484700Y344465D01*
D02*
G37*
G36*
X195000Y340066D02*
X194401Y339946D01*
X193893Y339607D01*
X193554Y339099D01*
X193435Y338500D01*
X193554Y337901D01*
X193893Y337393D01*
X194401Y337054D01*
X195000Y336934D01*
X195599Y337054D01*
X196107Y337393D01*
X196446Y337901D01*
X196565Y338500D01*
X196446Y339099D01*
X196107Y339607D01*
X195599Y339946D01*
X195000Y340066D01*
D02*
G37*
G36*
X265600Y342865D02*
X265001Y342746D01*
X264493Y342407D01*
X264154Y341899D01*
X264035Y341300D01*
X264154Y340701D01*
X264493Y340193D01*
X265001Y339854D01*
X265348Y339785D01*
X265562Y339505D01*
X265987Y338479D01*
X266125Y337429D01*
X265793Y337207D01*
X265454Y336699D01*
X265335Y336100D01*
X265454Y335501D01*
X265793Y334993D01*
X266301Y334654D01*
X266900Y334535D01*
X267499Y334654D01*
X268007Y334993D01*
X268346Y335501D01*
X268465Y336100D01*
X268346Y336699D01*
X268007Y337207D01*
X267883Y337379D01*
X267768Y338550D01*
X267426Y339676D01*
X266953Y340562D01*
X267046Y340701D01*
X267165Y341300D01*
X267046Y341899D01*
X266707Y342407D01*
X266199Y342746D01*
X265600Y342865D01*
D02*
G37*
G36*
X232000Y324566D02*
X231401Y324446D01*
X230893Y324107D01*
X230554Y323599D01*
X230434Y323000D01*
X230554Y322401D01*
X230893Y321893D01*
X231401Y321554D01*
X232000Y321434D01*
X232599Y321554D01*
X233107Y321893D01*
X233446Y322401D01*
X233565Y323000D01*
X233446Y323599D01*
X233107Y324107D01*
X232599Y324446D01*
X232000Y324566D01*
D02*
G37*
G36*
X458000Y323966D02*
X457401Y323846D01*
X456893Y323507D01*
X456554Y322999D01*
X456434Y322400D01*
X456554Y321801D01*
X456893Y321293D01*
X457401Y320954D01*
X458000Y320834D01*
X458599Y320954D01*
X459107Y321293D01*
X459446Y321801D01*
X459565Y322400D01*
X459446Y322999D01*
X459107Y323507D01*
X458599Y323846D01*
X458000Y323966D01*
D02*
G37*
G36*
X228500Y321566D02*
X227901Y321446D01*
X227393Y321107D01*
X227054Y320599D01*
X226935Y320000D01*
X227054Y319401D01*
X227393Y318893D01*
X227901Y318554D01*
X228500Y318435D01*
X229099Y318554D01*
X229607Y318893D01*
X229946Y319401D01*
X230065Y320000D01*
X229946Y320599D01*
X229607Y321107D01*
X229099Y321446D01*
X228500Y321566D01*
D02*
G37*
G36*
X384100Y323136D02*
X383237Y323022D01*
X382432Y322689D01*
X381741Y322159D01*
X381211Y321468D01*
X380878Y320663D01*
X380764Y319800D01*
X380878Y318937D01*
X381211Y318132D01*
X381741Y317441D01*
X382432Y316911D01*
X383237Y316578D01*
X384100Y316464D01*
X384963Y316578D01*
X385768Y316911D01*
X386459Y317441D01*
X386989Y318132D01*
X387322Y318937D01*
X387436Y319800D01*
X387322Y320663D01*
X386989Y321468D01*
X386459Y322159D01*
X385768Y322689D01*
X384963Y323022D01*
X384100Y323136D01*
D02*
G37*
G36*
X374100D02*
X373237Y323022D01*
X372432Y322689D01*
X371741Y322159D01*
X371211Y321468D01*
X370878Y320663D01*
X370764Y319800D01*
X370878Y318937D01*
X371211Y318132D01*
X371741Y317441D01*
X372432Y316911D01*
X373237Y316578D01*
X374100Y316464D01*
X374963Y316578D01*
X375768Y316911D01*
X376459Y317441D01*
X376989Y318132D01*
X377322Y318937D01*
X377436Y319800D01*
X377322Y320663D01*
X376989Y321468D01*
X376459Y322159D01*
X375768Y322689D01*
X374963Y323022D01*
X374100Y323136D01*
D02*
G37*
G36*
X140900Y318366D02*
X140301Y318246D01*
X139793Y317907D01*
X139454Y317399D01*
X139334Y316800D01*
X139454Y316201D01*
X139793Y315693D01*
X140301Y315354D01*
X140900Y315234D01*
X141499Y315354D01*
X142007Y315693D01*
X142105Y315840D01*
X142131Y315849D01*
X142684Y315806D01*
X142893Y315493D01*
X143401Y315154D01*
X144000Y315035D01*
X144599Y315154D01*
X145107Y315493D01*
X145446Y316001D01*
X145565Y316600D01*
X145446Y317199D01*
X145107Y317707D01*
X144599Y318046D01*
X144000Y318165D01*
X143401Y318046D01*
X142893Y317707D01*
X142795Y317560D01*
X142769Y317550D01*
X142216Y317594D01*
X142007Y317907D01*
X141499Y318246D01*
X140900Y318366D01*
D02*
G37*
G36*
X26800Y318465D02*
X26201Y318346D01*
X25693Y318007D01*
X25354Y317499D01*
X25234Y316900D01*
X25354Y316301D01*
X25686Y315804D01*
X25757Y315681D01*
Y315319D01*
X25686Y315196D01*
X25354Y314699D01*
X25234Y314100D01*
X25354Y313501D01*
X25693Y312993D01*
X26201Y312654D01*
X26800Y312534D01*
X27399Y312654D01*
X27907Y312993D01*
X28246Y313501D01*
X28365Y314100D01*
X28246Y314699D01*
X27914Y315196D01*
X27843Y315319D01*
Y315681D01*
X27914Y315804D01*
X28246Y316301D01*
X28365Y316900D01*
X28246Y317499D01*
X27907Y318007D01*
X27399Y318346D01*
X26800Y318465D01*
D02*
G37*
G36*
X377407Y313107D02*
X370793D01*
Y306493D01*
X377407D01*
Y313107D01*
D02*
G37*
G36*
X384100Y313136D02*
X383237Y313022D01*
X382432Y312689D01*
X381741Y312159D01*
X381211Y311468D01*
X380878Y310663D01*
X380764Y309800D01*
X380878Y308937D01*
X381211Y308132D01*
X381741Y307441D01*
X382432Y306911D01*
X383237Y306578D01*
X384100Y306464D01*
X384963Y306578D01*
X385768Y306911D01*
X386459Y307441D01*
X386989Y308132D01*
X387322Y308937D01*
X387436Y309800D01*
X387322Y310663D01*
X386989Y311468D01*
X386459Y312159D01*
X385768Y312689D01*
X384963Y313022D01*
X384100Y313136D01*
D02*
G37*
G36*
X143200Y308665D02*
X142601Y308546D01*
X142093Y308207D01*
X141754Y307699D01*
X141635Y307100D01*
X141754Y306501D01*
X142093Y305993D01*
X142601Y305654D01*
X143200Y305535D01*
X143799Y305654D01*
X144307Y305993D01*
X144646Y306501D01*
X144765Y307100D01*
X144646Y307699D01*
X144307Y308207D01*
X143799Y308546D01*
X143200Y308665D01*
D02*
G37*
G36*
X133000Y302065D02*
X132401Y301946D01*
X131893Y301607D01*
X131554Y301099D01*
X131435Y300500D01*
X131554Y299901D01*
X131893Y299393D01*
X132401Y299054D01*
X133000Y298935D01*
X133599Y299054D01*
X134107Y299393D01*
X134446Y299901D01*
X134565Y300500D01*
X134446Y301099D01*
X134107Y301607D01*
X133599Y301946D01*
X133000Y302065D01*
D02*
G37*
G36*
X258000Y306066D02*
X257401Y305946D01*
X256893Y305607D01*
X256554Y305099D01*
X256434Y304500D01*
X256554Y303901D01*
X256893Y303393D01*
X257401Y303054D01*
X257792Y302976D01*
X258970Y301798D01*
X258971Y301797D01*
X259599Y300979D01*
X259995Y300024D01*
X259997Y300010D01*
X259693Y299807D01*
X259354Y299299D01*
X259234Y298700D01*
X259354Y298101D01*
X259693Y297593D01*
X260201Y297254D01*
X260800Y297134D01*
X261399Y297254D01*
X261907Y297593D01*
X262246Y298101D01*
X262366Y298700D01*
X262246Y299299D01*
X261907Y299807D01*
X261787Y299887D01*
X261708Y300483D01*
X261135Y301866D01*
X260225Y303053D01*
X260202Y303030D01*
X260202Y303030D01*
X259400Y303832D01*
X259446Y303901D01*
X259565Y304500D01*
X259446Y305099D01*
X259107Y305607D01*
X258599Y305946D01*
X258000Y306066D01*
D02*
G37*
G36*
X404000Y298566D02*
X403401Y298446D01*
X402893Y298107D01*
X402554Y297599D01*
X402434Y297000D01*
X402554Y296401D01*
X402893Y295893D01*
X403401Y295554D01*
X404000Y295434D01*
X404599Y295554D01*
X405107Y295893D01*
X405446Y296401D01*
X405566Y297000D01*
X405446Y297599D01*
X405107Y298107D01*
X404599Y298446D01*
X404000Y298566D01*
D02*
G37*
G36*
X369100Y294566D02*
X368501Y294446D01*
X367993Y294107D01*
X367654Y293599D01*
X367534Y293000D01*
X367654Y292401D01*
X367993Y291893D01*
X368501Y291554D01*
X369100Y291435D01*
X369699Y291554D01*
X370207Y291893D01*
X370546Y292401D01*
X370666Y293000D01*
X370546Y293599D01*
X370207Y294107D01*
X369699Y294446D01*
X369100Y294566D01*
D02*
G37*
G36*
X337500Y289066D02*
X336901Y288946D01*
X336393Y288607D01*
X336054Y288099D01*
X335934Y287500D01*
X336054Y286901D01*
X336393Y286393D01*
X336901Y286054D01*
X337500Y285934D01*
X338099Y286054D01*
X338607Y286393D01*
X338946Y286901D01*
X339066Y287500D01*
X338946Y288099D01*
X338607Y288607D01*
X338099Y288946D01*
X337500Y289066D01*
D02*
G37*
G36*
X389100Y288766D02*
X388501Y288646D01*
X387993Y288307D01*
X387654Y287799D01*
X387534Y287200D01*
X387654Y286601D01*
X387993Y286093D01*
X388501Y285754D01*
X389100Y285634D01*
X389699Y285754D01*
X390207Y286093D01*
X390546Y286601D01*
X390666Y287200D01*
X390546Y287799D01*
X390207Y288307D01*
X389699Y288646D01*
X389100Y288766D01*
D02*
G37*
G36*
X294500Y288565D02*
X293901Y288446D01*
X293393Y288107D01*
X293054Y287599D01*
X292934Y287000D01*
X293054Y286401D01*
X293393Y285893D01*
X293901Y285554D01*
X294500Y285435D01*
X295099Y285554D01*
X295607Y285893D01*
X295946Y286401D01*
X296065Y287000D01*
X295946Y287599D01*
X295607Y288107D01*
X295099Y288446D01*
X294500Y288565D01*
D02*
G37*
G36*
X170000Y287066D02*
X169401Y286946D01*
X168893Y286607D01*
X168554Y286099D01*
X168435Y285500D01*
X168554Y284901D01*
X168893Y284393D01*
X169401Y284054D01*
X170000Y283934D01*
X170599Y284054D01*
X171107Y284393D01*
X171446Y284901D01*
X171565Y285500D01*
X171446Y286099D01*
X171107Y286607D01*
X170599Y286946D01*
X170000Y287066D01*
D02*
G37*
G36*
X59800Y286766D02*
X59201Y286646D01*
X58693Y286307D01*
X58354Y285799D01*
X58235Y285200D01*
X58311Y284813D01*
X58031Y284411D01*
X57932Y284352D01*
X57401Y284246D01*
X56893Y283907D01*
X56554Y283399D01*
X56435Y282800D01*
X56554Y282201D01*
X56893Y281693D01*
X57401Y281354D01*
X58000Y281235D01*
X58599Y281354D01*
X59107Y281693D01*
X59446Y282201D01*
X59566Y282800D01*
X59489Y283187D01*
X59769Y283589D01*
X59868Y283648D01*
X60399Y283754D01*
X60907Y284093D01*
X61246Y284601D01*
X61365Y285200D01*
X61246Y285799D01*
X60907Y286307D01*
X60399Y286646D01*
X59800Y286766D01*
D02*
G37*
G36*
X166500Y284066D02*
X165901Y283946D01*
X165393Y283607D01*
X165054Y283099D01*
X164935Y282500D01*
X165054Y281901D01*
X165393Y281393D01*
X165901Y281054D01*
X166500Y280935D01*
X167099Y281054D01*
X167607Y281393D01*
X167946Y281901D01*
X168066Y282500D01*
X167946Y283099D01*
X167607Y283607D01*
X167099Y283946D01*
X166500Y284066D01*
D02*
G37*
G36*
X425400Y280766D02*
X424801Y280646D01*
X424293Y280307D01*
X423954Y279799D01*
X423835Y279200D01*
X423954Y278601D01*
X424293Y278093D01*
X424801Y277754D01*
X425400Y277635D01*
X425999Y277754D01*
X426507Y278093D01*
X426846Y278601D01*
X426966Y279200D01*
X426846Y279799D01*
X426507Y280307D01*
X425999Y280646D01*
X425400Y280766D01*
D02*
G37*
G36*
X207500Y280065D02*
X206901Y279946D01*
X206393Y279607D01*
X206054Y279099D01*
X205935Y278500D01*
X206054Y277901D01*
X206393Y277393D01*
X206901Y277054D01*
X207500Y276935D01*
X208099Y277054D01*
X208607Y277393D01*
X208946Y277901D01*
X209066Y278500D01*
X208946Y279099D01*
X208607Y279607D01*
X208099Y279946D01*
X207500Y280065D01*
D02*
G37*
G36*
X337500Y279065D02*
X336901Y278946D01*
X336393Y278607D01*
X336054Y278099D01*
X335934Y277500D01*
X336054Y276901D01*
X336393Y276393D01*
X336901Y276054D01*
X337500Y275935D01*
X338099Y276054D01*
X338607Y276393D01*
X338946Y276901D01*
X339066Y277500D01*
X338946Y278099D01*
X338607Y278607D01*
X338099Y278946D01*
X337500Y279065D01*
D02*
G37*
G36*
X294500Y278566D02*
X293901Y278446D01*
X293393Y278107D01*
X293054Y277599D01*
X292934Y277000D01*
X293054Y276401D01*
X293393Y275893D01*
X293901Y275554D01*
X294500Y275434D01*
X295099Y275554D01*
X295607Y275893D01*
X295946Y276401D01*
X296065Y277000D01*
X295946Y277599D01*
X295607Y278107D01*
X295099Y278446D01*
X294500Y278566D01*
D02*
G37*
G36*
X196000Y274065D02*
X195401Y273946D01*
X194893Y273607D01*
X194554Y273099D01*
X194434Y272500D01*
X194554Y271901D01*
X194893Y271393D01*
X195401Y271054D01*
X196000Y270935D01*
X196599Y271054D01*
X197107Y271393D01*
X197446Y271901D01*
X197565Y272500D01*
X197446Y273099D01*
X197107Y273607D01*
X196599Y273946D01*
X196000Y274065D01*
D02*
G37*
G36*
X404000Y273065D02*
X403401Y272946D01*
X402893Y272607D01*
X402554Y272099D01*
X402434Y271500D01*
X402554Y270901D01*
X402893Y270393D01*
X403401Y270054D01*
X404000Y269935D01*
X404599Y270054D01*
X405107Y270393D01*
X405446Y270901D01*
X405566Y271500D01*
X405446Y272099D01*
X405107Y272607D01*
X404599Y272946D01*
X404000Y273065D01*
D02*
G37*
G36*
X273500Y277566D02*
X272901Y277446D01*
X272393Y277107D01*
X272054Y276599D01*
X271935Y276000D01*
X272054Y275401D01*
X272393Y274893D01*
X272715Y274678D01*
X272761Y274332D01*
X273212Y273243D01*
X273929Y272308D01*
X273945Y272323D01*
X275500Y270768D01*
X275454Y270699D01*
X275335Y270100D01*
X275454Y269501D01*
X275793Y268993D01*
X276301Y268654D01*
X276900Y268534D01*
X277499Y268654D01*
X278007Y268993D01*
X278346Y269501D01*
X278466Y270100D01*
X278346Y270699D01*
X278007Y271207D01*
X277499Y271546D01*
X277108Y271624D01*
X275177Y273555D01*
X275184Y273562D01*
X274748Y274130D01*
X274474Y274791D01*
X274473Y274803D01*
X274607Y274893D01*
X274946Y275401D01*
X275065Y276000D01*
X274946Y276599D01*
X274607Y277107D01*
X274099Y277446D01*
X273500Y277566D01*
D02*
G37*
G36*
X14000Y268865D02*
X13401Y268746D01*
X12893Y268407D01*
X12607D01*
X12099Y268746D01*
X11500Y268865D01*
X10901Y268746D01*
X10393Y268407D01*
X10054Y267899D01*
X9934Y267300D01*
X10054Y266701D01*
X10393Y266193D01*
X10901Y265854D01*
X11500Y265735D01*
X12099Y265854D01*
X12607Y266193D01*
X12893D01*
X13401Y265854D01*
X14000Y265735D01*
X14599Y265854D01*
X15107Y266193D01*
X15446Y266701D01*
X15565Y267300D01*
X15446Y267899D01*
X15107Y268407D01*
X14599Y268746D01*
X14000Y268865D01*
D02*
G37*
G36*
X374100Y269165D02*
X373501Y269046D01*
X372993Y268707D01*
X372654Y268199D01*
X372534Y267600D01*
X372654Y267001D01*
X372993Y266493D01*
X373501Y266154D01*
X374100Y266035D01*
X374699Y266154D01*
X375207Y266493D01*
X375546Y267001D01*
X375665Y267600D01*
X375546Y268199D01*
X375207Y268707D01*
X374699Y269046D01*
X374100Y269165D01*
D02*
G37*
G36*
X337500Y269065D02*
X336901Y268946D01*
X336393Y268607D01*
X336054Y268099D01*
X335934Y267500D01*
X336054Y266901D01*
X336393Y266393D01*
X336901Y266054D01*
X337500Y265934D01*
X338099Y266054D01*
X338607Y266393D01*
X338946Y266901D01*
X339066Y267500D01*
X338946Y268099D01*
X338607Y268607D01*
X338099Y268946D01*
X337500Y269065D01*
D02*
G37*
G36*
X294500Y268566D02*
X293901Y268446D01*
X293393Y268107D01*
X293054Y267599D01*
X292934Y267000D01*
X293054Y266401D01*
X293393Y265893D01*
X293901Y265554D01*
X294500Y265435D01*
X295099Y265554D01*
X295607Y265893D01*
X295946Y266401D01*
X296065Y267000D01*
X295946Y267599D01*
X295607Y268107D01*
X295099Y268446D01*
X294500Y268566D01*
D02*
G37*
G36*
X357700Y264265D02*
X357101Y264146D01*
X356593Y263807D01*
X356254Y263299D01*
X356135Y262700D01*
X356254Y262101D01*
X356593Y261593D01*
X357101Y261254D01*
X357700Y261135D01*
X358299Y261254D01*
X358807Y261593D01*
X359146Y262101D01*
X359265Y262700D01*
X359146Y263299D01*
X358807Y263807D01*
X358299Y264146D01*
X357700Y264265D01*
D02*
G37*
G36*
X384100Y263165D02*
X383501Y263046D01*
X382993Y262707D01*
X382654Y262199D01*
X382535Y261600D01*
X382654Y261001D01*
X382993Y260493D01*
X383501Y260154D01*
X384100Y260034D01*
X384699Y260154D01*
X385207Y260493D01*
X385546Y261001D01*
X385665Y261600D01*
X385546Y262199D01*
X385207Y262707D01*
X384699Y263046D01*
X384100Y263165D01*
D02*
G37*
G36*
X-42000Y259833D02*
X-42599Y259714D01*
X-43107Y259375D01*
X-43446Y258867D01*
X-43565Y258268D01*
X-43446Y257669D01*
X-43107Y257161D01*
X-42599Y256821D01*
X-42000Y256702D01*
X-41401Y256821D01*
X-40893Y257161D01*
X-40554Y257669D01*
X-40435Y258268D01*
X-40554Y258867D01*
X-40893Y259375D01*
X-41401Y259714D01*
X-42000Y259833D01*
D02*
G37*
G36*
X337500Y259066D02*
X336901Y258946D01*
X336393Y258607D01*
X336054Y258099D01*
X335934Y257500D01*
X336054Y256901D01*
X336393Y256393D01*
X336901Y256054D01*
X337500Y255935D01*
X338099Y256054D01*
X338607Y256393D01*
X338946Y256901D01*
X339066Y257500D01*
X338946Y258099D01*
X338607Y258607D01*
X338099Y258946D01*
X337500Y259066D01*
D02*
G37*
G36*
X233500D02*
X232901Y258946D01*
X232393Y258607D01*
X232054Y258099D01*
X231934Y257500D01*
X232054Y256901D01*
X232393Y256393D01*
X232901Y256054D01*
X233500Y255935D01*
X234099Y256054D01*
X234607Y256393D01*
X234946Y256901D01*
X235066Y257500D01*
X234946Y258099D01*
X234607Y258607D01*
X234099Y258946D01*
X233500Y259066D01*
D02*
G37*
G36*
X294500Y258565D02*
X293901Y258446D01*
X293393Y258107D01*
X293054Y257599D01*
X292934Y257000D01*
X293054Y256401D01*
X293393Y255893D01*
X293901Y255554D01*
X294500Y255434D01*
X295099Y255554D01*
X295607Y255893D01*
X295946Y256401D01*
X296065Y257000D01*
X295946Y257599D01*
X295607Y258107D01*
X295099Y258446D01*
X294500Y258565D01*
D02*
G37*
G36*
X533000Y265123D02*
X531674Y264948D01*
X530439Y264436D01*
X529378Y263622D01*
X528564Y262561D01*
X528052Y261326D01*
X527877Y260000D01*
X528052Y258674D01*
X528564Y257439D01*
X529378Y256378D01*
X530439Y255564D01*
X531674Y255052D01*
X533000Y254877D01*
X534326Y255052D01*
X535561Y255564D01*
X536622Y256378D01*
X537436Y257439D01*
X537948Y258674D01*
X538123Y260000D01*
X537948Y261326D01*
X537436Y262561D01*
X536622Y263622D01*
X535561Y264436D01*
X534326Y264948D01*
X533000Y265123D01*
D02*
G37*
G36*
X230000Y256066D02*
X229401Y255946D01*
X228893Y255607D01*
X228554Y255099D01*
X228434Y254500D01*
X228554Y253901D01*
X228893Y253393D01*
X229401Y253054D01*
X230000Y252935D01*
X230599Y253054D01*
X231107Y253393D01*
X231446Y253901D01*
X231565Y254500D01*
X231446Y255099D01*
X231107Y255607D01*
X230599Y255946D01*
X230000Y256066D01*
D02*
G37*
G36*
X425400Y255265D02*
X424801Y255146D01*
X424293Y254807D01*
X423954Y254299D01*
X423835Y253700D01*
X423954Y253101D01*
X424293Y252593D01*
X424801Y252254D01*
X425400Y252134D01*
X425999Y252254D01*
X426507Y252593D01*
X426846Y253101D01*
X426966Y253700D01*
X426846Y254299D01*
X426507Y254807D01*
X425999Y255146D01*
X425400Y255265D01*
D02*
G37*
G36*
X362500Y253166D02*
X361901Y253046D01*
X361393Y252707D01*
X361054Y252199D01*
X360934Y251600D01*
X361054Y251001D01*
X361393Y250493D01*
X361901Y250154D01*
X362500Y250034D01*
X363099Y250154D01*
X363607Y250493D01*
X363946Y251001D01*
X364066Y251600D01*
X363946Y252199D01*
X363607Y252707D01*
X363099Y253046D01*
X362500Y253166D01*
D02*
G37*
G36*
X147000Y251866D02*
X146401Y251746D01*
X145893Y251407D01*
X145554Y250899D01*
X145434Y250300D01*
X145554Y249701D01*
X145893Y249193D01*
X146401Y248854D01*
X147000Y248734D01*
X147599Y248854D01*
X148107Y249193D01*
X148446Y249701D01*
X148565Y250300D01*
X148446Y250899D01*
X148107Y251407D01*
X147599Y251746D01*
X147000Y251866D01*
D02*
G37*
G36*
X125300Y251665D02*
X124701Y251546D01*
X124193Y251207D01*
X123854Y250699D01*
X123734Y250100D01*
X123854Y249501D01*
X124193Y248993D01*
X124701Y248654D01*
X125300Y248534D01*
X125899Y248654D01*
X126407Y248993D01*
X126746Y249501D01*
X126865Y250100D01*
X126746Y250699D01*
X126407Y251207D01*
X125899Y251546D01*
X125300Y251665D01*
D02*
G37*
G36*
X332000Y290500D02*
X300000D01*
Y248500D01*
X332000D01*
Y290500D01*
D02*
G37*
G36*
X360100Y249365D02*
X359501Y249246D01*
X358993Y248907D01*
X358654Y248399D01*
X358535Y247800D01*
X358654Y247201D01*
X358993Y246693D01*
X359501Y246354D01*
X360100Y246234D01*
X360699Y246354D01*
X361207Y246693D01*
X361546Y247201D01*
X361666Y247800D01*
X361546Y248399D01*
X361207Y248907D01*
X360699Y249246D01*
X360100Y249365D01*
D02*
G37*
G36*
X-41824Y247235D02*
X-42424Y247116D01*
X-42931Y246776D01*
X-43271Y246268D01*
X-43390Y245669D01*
X-43271Y245070D01*
X-42931Y244562D01*
X-42424Y244223D01*
X-41824Y244104D01*
X-41225Y244223D01*
X-40718Y244562D01*
X-40378Y245070D01*
X-40259Y245669D01*
X-40378Y246268D01*
X-40718Y246776D01*
X-41225Y247116D01*
X-41824Y247235D01*
D02*
G37*
G36*
X404000Y247065D02*
X403401Y246946D01*
X402893Y246607D01*
X402554Y246099D01*
X402434Y245500D01*
X402554Y244901D01*
X402893Y244393D01*
X403401Y244054D01*
X404000Y243934D01*
X404599Y244054D01*
X405107Y244393D01*
X405446Y244901D01*
X405566Y245500D01*
X405446Y246099D01*
X405107Y246607D01*
X404599Y246946D01*
X404000Y247065D01*
D02*
G37*
G36*
X529500Y246566D02*
X528901Y246446D01*
X528393Y246107D01*
X528054Y245599D01*
X527935Y245000D01*
X528054Y244401D01*
X528393Y243893D01*
X528901Y243554D01*
X529500Y243435D01*
X530099Y243554D01*
X530607Y243893D01*
X530946Y244401D01*
X531066Y245000D01*
X530946Y245599D01*
X530607Y246107D01*
X530099Y246446D01*
X529500Y246566D01*
D02*
G37*
G36*
X523000Y243566D02*
X522401Y243446D01*
X521893Y243107D01*
X521554Y242599D01*
X521505Y242354D01*
X520995D01*
X520946Y242599D01*
X520607Y243107D01*
X520099Y243446D01*
X519500Y243566D01*
X518901Y243446D01*
X518393Y243107D01*
X518054Y242599D01*
X517935Y242000D01*
X518054Y241401D01*
X518393Y240893D01*
X518901Y240554D01*
X519500Y240435D01*
X520099Y240554D01*
X520607Y240893D01*
X520946Y241401D01*
X520995Y241646D01*
X521505D01*
X521554Y241401D01*
X521893Y240893D01*
X522401Y240554D01*
X523000Y240435D01*
X523599Y240554D01*
X524107Y240893D01*
X524446Y241401D01*
X524566Y242000D01*
X524446Y242599D01*
X524107Y243107D01*
X523599Y243446D01*
X523000Y243566D01*
D02*
G37*
G36*
X10500Y246647D02*
X9901Y246527D01*
X9393Y246188D01*
X9054Y245680D01*
X8935Y245081D01*
X9054Y244482D01*
X9393Y243974D01*
X9504Y243900D01*
Y243400D01*
X9393Y243326D01*
X9054Y242818D01*
X8935Y242219D01*
X9054Y241620D01*
X9393Y241112D01*
X9901Y240773D01*
X10500Y240653D01*
X11099Y240773D01*
X11607Y241112D01*
X11946Y241620D01*
X12066Y242219D01*
X11946Y242818D01*
X11607Y243326D01*
X11496Y243400D01*
Y243900D01*
X11607Y243974D01*
X11946Y244482D01*
X12066Y245081D01*
X11946Y245680D01*
X11607Y246188D01*
X11099Y246527D01*
X10500Y246647D01*
D02*
G37*
G36*
X3500Y242147D02*
X2901Y242027D01*
X2393Y241688D01*
X2054Y241180D01*
X1935Y240581D01*
X2054Y239982D01*
X2393Y239474D01*
X2901Y239135D01*
X3500Y239016D01*
X4099Y239135D01*
X4607Y239474D01*
X4946Y239982D01*
X5065Y240581D01*
X4946Y241180D01*
X4607Y241688D01*
X4099Y242027D01*
X3500Y242147D01*
D02*
G37*
G36*
X539610Y245110D02*
X533390D01*
Y238890D01*
X539610D01*
Y245110D01*
D02*
G37*
G36*
X7300Y240565D02*
X6701Y240446D01*
X6193Y240107D01*
X5854Y239599D01*
X5734Y239000D01*
X5854Y238401D01*
X6193Y237893D01*
X6701Y237554D01*
X7300Y237435D01*
X7899Y237554D01*
X8407Y237893D01*
X8746Y238401D01*
X8866Y239000D01*
X8746Y239599D01*
X8407Y240107D01*
X7899Y240446D01*
X7300Y240565D01*
D02*
G37*
G36*
X236500Y240066D02*
X235901Y239946D01*
X235393Y239607D01*
X235054Y239099D01*
X234934Y238500D01*
X234990Y238222D01*
X231738Y234969D01*
X231732Y234975D01*
X231623Y234930D01*
X231599Y234946D01*
X231000Y235066D01*
X230401Y234946D01*
X229893Y234607D01*
X229554Y234099D01*
X229434Y233500D01*
X229554Y232901D01*
X229893Y232393D01*
X230401Y232054D01*
X231000Y231934D01*
X231599Y232054D01*
X232107Y232393D01*
X232446Y232901D01*
X232552Y233431D01*
X232986Y233721D01*
X232969Y233738D01*
X232969Y233738D01*
X236222Y236990D01*
X236500Y236934D01*
X237099Y237054D01*
X237607Y237393D01*
X237946Y237901D01*
X238066Y238500D01*
X237946Y239099D01*
X237607Y239607D01*
X237099Y239946D01*
X236500Y240066D01*
D02*
G37*
G36*
X145500Y239565D02*
X144901Y239446D01*
X144393Y239107D01*
X144054Y238599D01*
X143935Y238000D01*
X144054Y237401D01*
X144393Y236893D01*
X144901Y236554D01*
X145500Y236435D01*
X146099Y236554D01*
X146607Y236893D01*
X146946Y237401D01*
X147065Y238000D01*
X146946Y238599D01*
X146607Y239107D01*
X146099Y239446D01*
X145500Y239565D01*
D02*
G37*
G36*
X529500Y241137D02*
X528688Y241030D01*
X527931Y240717D01*
X527282Y240218D01*
X526783Y239568D01*
X526470Y238812D01*
X526363Y238000D01*
X526470Y237188D01*
X526783Y236432D01*
X527282Y235782D01*
X527931Y235283D01*
X528688Y234970D01*
X529500Y234863D01*
X530312Y234970D01*
X531069Y235283D01*
X531718Y235782D01*
X532217Y236432D01*
X532530Y237188D01*
X532637Y238000D01*
X532530Y238812D01*
X532217Y239568D01*
X531718Y240218D01*
X531069Y240717D01*
X530312Y241030D01*
X529500Y241137D01*
D02*
G37*
G36*
X366200Y236666D02*
X365601Y236546D01*
X365093Y236207D01*
X364754Y235699D01*
X364634Y235100D01*
X364754Y234501D01*
X365093Y233993D01*
X365601Y233654D01*
X366200Y233535D01*
X366799Y233654D01*
X367307Y233993D01*
X367646Y234501D01*
X367765Y235100D01*
X367646Y235699D01*
X367307Y236207D01*
X366799Y236546D01*
X366200Y236666D01*
D02*
G37*
G36*
X16200Y237666D02*
X15601Y237546D01*
X15093Y237207D01*
X14754Y236699D01*
X14635Y236100D01*
X14754Y235501D01*
X15093Y234993D01*
X15306Y234851D01*
Y234249D01*
X15093Y234107D01*
X14754Y233599D01*
X14635Y233000D01*
X14754Y232401D01*
X15093Y231893D01*
X15601Y231554D01*
X16200Y231434D01*
X16799Y231554D01*
X17307Y231893D01*
X17646Y232401D01*
X17765Y233000D01*
X17646Y233599D01*
X17307Y234107D01*
X17094Y234249D01*
Y234851D01*
X17307Y234993D01*
X17646Y235501D01*
X17765Y236100D01*
X17646Y236699D01*
X17307Y237207D01*
X16799Y237546D01*
X16200Y237666D01*
D02*
G37*
G36*
X536500Y237137D02*
X535688Y237030D01*
X534932Y236717D01*
X534282Y236218D01*
X533783Y235568D01*
X533470Y234812D01*
X533363Y234000D01*
X533470Y233188D01*
X533783Y232432D01*
X534282Y231782D01*
X534932Y231283D01*
X535688Y230970D01*
X536500Y230863D01*
X537312Y230970D01*
X538068Y231283D01*
X538718Y231782D01*
X539217Y232432D01*
X539530Y233188D01*
X539637Y234000D01*
X539530Y234812D01*
X539217Y235568D01*
X538718Y236218D01*
X538068Y236717D01*
X537312Y237030D01*
X536500Y237137D01*
D02*
G37*
G36*
X133500Y233066D02*
X132901Y232946D01*
X132393Y232607D01*
X132054Y232099D01*
X131934Y231500D01*
X132054Y230901D01*
X132393Y230393D01*
X132901Y230054D01*
X133500Y229935D01*
X134099Y230054D01*
X134607Y230393D01*
X134946Y230901D01*
X135065Y231500D01*
X134946Y232099D01*
X134607Y232607D01*
X134099Y232946D01*
X133500Y233066D01*
D02*
G37*
G36*
X29600Y229265D02*
X29001Y229146D01*
X28493Y228807D01*
X28154Y228299D01*
X28034Y227700D01*
X28078Y227480D01*
X27653Y227055D01*
X27600Y227065D01*
X27001Y226946D01*
X26493Y226607D01*
X26154Y226099D01*
X26035Y225500D01*
X26154Y224901D01*
X26493Y224393D01*
X27001Y224054D01*
X27600Y223935D01*
X28199Y224054D01*
X28707Y224393D01*
X29046Y224901D01*
X29166Y225500D01*
X29122Y225720D01*
X29547Y226145D01*
X29600Y226134D01*
X30199Y226254D01*
X30707Y226593D01*
X31046Y227101D01*
X31166Y227700D01*
X31046Y228299D01*
X30707Y228807D01*
X30199Y229146D01*
X29600Y229265D01*
D02*
G37*
G36*
X529500Y233137D02*
X528688Y233030D01*
X527931Y232717D01*
X527282Y232218D01*
X526783Y231569D01*
X526470Y230812D01*
X526363Y230000D01*
X526470Y229188D01*
X526783Y228432D01*
X527282Y227782D01*
X527931Y227283D01*
X528688Y226970D01*
X529500Y226863D01*
X530312Y226970D01*
X531069Y227283D01*
X531718Y227782D01*
X532217Y228432D01*
X532530Y229188D01*
X532637Y230000D01*
X532530Y230812D01*
X532217Y231569D01*
X531718Y232218D01*
X531069Y232717D01*
X530312Y233030D01*
X529500Y233137D01*
D02*
G37*
G36*
X425400Y229566D02*
X424801Y229446D01*
X424293Y229107D01*
X423954Y228599D01*
X423835Y228000D01*
X423954Y227401D01*
X424293Y226893D01*
X424801Y226554D01*
X425400Y226434D01*
X425999Y226554D01*
X426507Y226893D01*
X426846Y227401D01*
X426966Y228000D01*
X426846Y228599D01*
X426507Y229107D01*
X425999Y229446D01*
X425400Y229566D01*
D02*
G37*
G36*
X361500Y231936D02*
X360637Y231822D01*
X359832Y231489D01*
X359141Y230959D01*
X358611Y230268D01*
X358278Y229463D01*
X358164Y228600D01*
X358278Y227737D01*
X358611Y226932D01*
X359141Y226241D01*
X359832Y225711D01*
X360637Y225378D01*
X361500Y225264D01*
X362363Y225378D01*
X363168Y225711D01*
X363859Y226241D01*
X364389Y226932D01*
X364722Y227737D01*
X364836Y228600D01*
X364722Y229463D01*
X364389Y230268D01*
X363859Y230959D01*
X363168Y231489D01*
X362363Y231822D01*
X361500Y231936D01*
D02*
G37*
G36*
X351500D02*
X350637Y231822D01*
X349832Y231489D01*
X349141Y230959D01*
X348611Y230268D01*
X348278Y229463D01*
X348164Y228600D01*
X348278Y227737D01*
X348611Y226932D01*
X349141Y226241D01*
X349832Y225711D01*
X350637Y225378D01*
X351500Y225264D01*
X352363Y225378D01*
X353168Y225711D01*
X353859Y226241D01*
X354389Y226932D01*
X354722Y227737D01*
X354836Y228600D01*
X354722Y229463D01*
X354389Y230268D01*
X353859Y230959D01*
X353168Y231489D01*
X352363Y231822D01*
X351500Y231936D01*
D02*
G37*
G36*
X22000Y231066D02*
X21401Y230946D01*
X20893Y230607D01*
X20554Y230099D01*
X20435Y229500D01*
X20554Y228901D01*
X20893Y228393D01*
X21004Y228319D01*
Y227819D01*
X20893Y227745D01*
X20554Y227237D01*
X20435Y226638D01*
X20554Y226039D01*
X20893Y225531D01*
X21401Y225191D01*
X22000Y225072D01*
X22599Y225191D01*
X23107Y225531D01*
X23446Y226039D01*
X23565Y226638D01*
X23446Y227237D01*
X23107Y227745D01*
X22996Y227819D01*
Y228319D01*
X23107Y228393D01*
X23446Y228901D01*
X23565Y229500D01*
X23446Y230099D01*
X23107Y230607D01*
X22599Y230946D01*
X22000Y231066D01*
D02*
G37*
G36*
X536500Y229137D02*
X535688Y229030D01*
X534932Y228717D01*
X534282Y228218D01*
X533783Y227569D01*
X533470Y226812D01*
X533363Y226000D01*
X533470Y225188D01*
X533783Y224431D01*
X534282Y223782D01*
X534932Y223283D01*
X535688Y222970D01*
X536500Y222863D01*
X537312Y222970D01*
X538068Y223283D01*
X538718Y223782D01*
X539217Y224431D01*
X539530Y225188D01*
X539637Y226000D01*
X539530Y226812D01*
X539217Y227569D01*
X538718Y228218D01*
X538068Y228717D01*
X537312Y229030D01*
X536500Y229137D01*
D02*
G37*
G36*
X404000Y222065D02*
X403401Y221946D01*
X402893Y221607D01*
X402554Y221099D01*
X402434Y220500D01*
X402554Y219901D01*
X402893Y219393D01*
X403401Y219054D01*
X404000Y218934D01*
X404599Y219054D01*
X405107Y219393D01*
X405446Y219901D01*
X405566Y220500D01*
X405446Y221099D01*
X405107Y221607D01*
X404599Y221946D01*
X404000Y222065D01*
D02*
G37*
G36*
X529500Y225137D02*
X528688Y225030D01*
X527931Y224717D01*
X527282Y224218D01*
X526783Y223569D01*
X526470Y222812D01*
X526363Y222000D01*
X526470Y221188D01*
X526783Y220431D01*
X527282Y219782D01*
X527931Y219283D01*
X528688Y218970D01*
X529500Y218863D01*
X530312Y218970D01*
X531069Y219283D01*
X531718Y219782D01*
X532217Y220431D01*
X532530Y221188D01*
X532637Y222000D01*
X532530Y222812D01*
X532217Y223569D01*
X531718Y224218D01*
X531069Y224717D01*
X530312Y225030D01*
X529500Y225137D01*
D02*
G37*
G36*
X140172Y221296D02*
X139573Y221177D01*
X139065Y220838D01*
X138726Y220330D01*
X138607Y219731D01*
X138726Y219132D01*
X139065Y218624D01*
X139573Y218284D01*
X140172Y218165D01*
X140771Y218284D01*
X141279Y218624D01*
X141618Y219132D01*
X141738Y219731D01*
X141618Y220330D01*
X141279Y220838D01*
X140771Y221177D01*
X140172Y221296D01*
D02*
G37*
G36*
X354807Y221907D02*
X348193D01*
Y215293D01*
X354807D01*
Y221907D01*
D02*
G37*
G36*
X361500Y221936D02*
X360637Y221822D01*
X359832Y221489D01*
X359141Y220959D01*
X358611Y220268D01*
X358278Y219463D01*
X358164Y218600D01*
X358278Y217737D01*
X358611Y216932D01*
X359141Y216241D01*
X359832Y215711D01*
X360637Y215378D01*
X361500Y215264D01*
X362363Y215378D01*
X363168Y215711D01*
X363859Y216241D01*
X364389Y216932D01*
X364722Y217737D01*
X364836Y218600D01*
X364722Y219463D01*
X364389Y220268D01*
X363859Y220959D01*
X363168Y221489D01*
X362363Y221822D01*
X361500Y221936D01*
D02*
G37*
G36*
X171000Y218066D02*
X170401Y217946D01*
X169893Y217607D01*
X169554Y217099D01*
X169434Y216500D01*
X169554Y215901D01*
X169893Y215393D01*
X170401Y215054D01*
X171000Y214934D01*
X171599Y215054D01*
X172107Y215393D01*
X172446Y215901D01*
X172565Y216500D01*
X172446Y217099D01*
X172107Y217607D01*
X171599Y217946D01*
X171000Y218066D01*
D02*
G37*
G36*
X536500Y221137D02*
X535688Y221030D01*
X534932Y220717D01*
X534282Y220218D01*
X533783Y219568D01*
X533470Y218812D01*
X533363Y218000D01*
X533470Y217188D01*
X533783Y216431D01*
X534282Y215782D01*
X534932Y215283D01*
X535688Y214970D01*
X536500Y214863D01*
X537312Y214970D01*
X538068Y215283D01*
X538718Y215782D01*
X539217Y216431D01*
X539530Y217188D01*
X539637Y218000D01*
X539530Y218812D01*
X539217Y219568D01*
X538718Y220218D01*
X538068Y220717D01*
X537312Y221030D01*
X536500Y221137D01*
D02*
G37*
G36*
X139400Y216066D02*
X138801Y215946D01*
X138293Y215607D01*
X137954Y215099D01*
X137835Y214500D01*
X137954Y213901D01*
X138293Y213393D01*
X138801Y213054D01*
X139400Y212934D01*
X139999Y213054D01*
X140507Y213393D01*
X140846Y213901D01*
X140965Y214500D01*
X140846Y215099D01*
X140507Y215607D01*
X139999Y215946D01*
X139400Y216066D01*
D02*
G37*
G36*
X167500Y215066D02*
X166901Y214946D01*
X166393Y214607D01*
X166054Y214099D01*
X165935Y213500D01*
X166054Y212901D01*
X166393Y212393D01*
X166901Y212054D01*
X167500Y211934D01*
X168099Y212054D01*
X168607Y212393D01*
X168946Y212901D01*
X169065Y213500D01*
X168946Y214099D01*
X168607Y214607D01*
X168099Y214946D01*
X167500Y215066D01*
D02*
G37*
G36*
X529500Y217137D02*
X528688Y217030D01*
X527931Y216717D01*
X527282Y216218D01*
X526783Y215568D01*
X526470Y214812D01*
X526363Y214000D01*
X526470Y213188D01*
X526783Y212432D01*
X527282Y211782D01*
X527931Y211283D01*
X528688Y210970D01*
X529500Y210863D01*
X530312Y210970D01*
X531069Y211283D01*
X531718Y211782D01*
X532217Y212432D01*
X532530Y213188D01*
X532637Y214000D01*
X532530Y214812D01*
X532217Y215568D01*
X531718Y216218D01*
X531069Y216717D01*
X530312Y217030D01*
X529500Y217137D01*
D02*
G37*
G36*
X56635Y213666D02*
X56036Y213546D01*
X55528Y213207D01*
X55189Y212699D01*
X55070Y212100D01*
X55189Y211501D01*
X55528Y210993D01*
X56036Y210654D01*
X56635Y210535D01*
X57234Y210654D01*
X57742Y210993D01*
X58082Y211501D01*
X58201Y212100D01*
X58082Y212699D01*
X57742Y213207D01*
X57234Y213546D01*
X56635Y213666D01*
D02*
G37*
G36*
X31300Y212666D02*
X30701Y212546D01*
X30193Y212207D01*
X29854Y211699D01*
X29735Y211100D01*
X29854Y210501D01*
X30193Y209993D01*
X30701Y209654D01*
X31300Y209535D01*
X31899Y209654D01*
X32407Y209993D01*
X32746Y210501D01*
X32866Y211100D01*
X32746Y211699D01*
X32407Y212207D01*
X31899Y212546D01*
X31300Y212666D01*
D02*
G37*
G36*
X48751Y205466D02*
X48152Y205346D01*
X47644Y205007D01*
X47305Y204499D01*
X47186Y203900D01*
X47305Y203301D01*
X47644Y202793D01*
X48152Y202454D01*
X48751Y202334D01*
X49350Y202454D01*
X49858Y202793D01*
X50197Y203301D01*
X50317Y203900D01*
X50197Y204499D01*
X49858Y205007D01*
X49350Y205346D01*
X48751Y205466D01*
D02*
G37*
G36*
X133300Y205447D02*
X132701Y205327D01*
X132193Y204988D01*
X131854Y204480D01*
X131735Y203881D01*
X131854Y203282D01*
X132193Y202774D01*
X132701Y202435D01*
X133300Y202316D01*
X133899Y202435D01*
X134407Y202774D01*
X134746Y203282D01*
X134865Y203881D01*
X134746Y204480D01*
X134407Y204988D01*
X133899Y205327D01*
X133300Y205447D01*
D02*
G37*
G36*
X425400Y203665D02*
X424801Y203546D01*
X424293Y203207D01*
X423954Y202699D01*
X423835Y202100D01*
X423954Y201501D01*
X424293Y200993D01*
X424801Y200654D01*
X425400Y200535D01*
X425999Y200654D01*
X426507Y200993D01*
X426846Y201501D01*
X426966Y202100D01*
X426846Y202699D01*
X426507Y203207D01*
X425999Y203546D01*
X425400Y203665D01*
D02*
G37*
G36*
X67100Y191366D02*
X66501Y191246D01*
X65993Y190907D01*
X65654Y190399D01*
X65535Y189800D01*
X65654Y189201D01*
X65993Y188693D01*
X66501Y188354D01*
X67100Y188234D01*
X67699Y188354D01*
X68207Y188693D01*
X68546Y189201D01*
X68665Y189800D01*
X68546Y190399D01*
X68207Y190907D01*
X67699Y191246D01*
X67100Y191366D01*
D02*
G37*
G36*
X60700D02*
X60101Y191246D01*
X59593Y190907D01*
X59254Y190399D01*
X59135Y189800D01*
X59254Y189201D01*
X59593Y188693D01*
X60101Y188354D01*
X60700Y188234D01*
X61299Y188354D01*
X61807Y188693D01*
X62146Y189201D01*
X62265Y189800D01*
X62146Y190399D01*
X61807Y190907D01*
X61299Y191246D01*
X60700Y191366D01*
D02*
G37*
G36*
X404000Y190566D02*
X403401Y190446D01*
X402893Y190107D01*
X402554Y189599D01*
X402434Y189000D01*
X402554Y188401D01*
X402893Y187893D01*
X403401Y187554D01*
X404000Y187434D01*
X404599Y187554D01*
X405107Y187893D01*
X405446Y188401D01*
X405566Y189000D01*
X405446Y189599D01*
X405107Y190107D01*
X404599Y190446D01*
X404000Y190566D01*
D02*
G37*
G36*
X145000Y190066D02*
X144401Y189946D01*
X143893Y189607D01*
X143554Y189099D01*
X143435Y188500D01*
X143554Y187901D01*
X143893Y187393D01*
X144401Y187054D01*
X145000Y186934D01*
X145599Y187054D01*
X146107Y187393D01*
X146446Y187901D01*
X146565Y188500D01*
X146446Y189099D01*
X146107Y189607D01*
X145599Y189946D01*
X145000Y190066D01*
D02*
G37*
G36*
X522500Y184565D02*
X521901Y184446D01*
X521393Y184107D01*
X521054Y183599D01*
X520934Y183000D01*
X521054Y182401D01*
X521393Y181893D01*
X521901Y181554D01*
X522500Y181435D01*
X523099Y181554D01*
X523607Y181893D01*
X523946Y182401D01*
X524065Y183000D01*
X523946Y183599D01*
X523607Y184107D01*
X523099Y184446D01*
X522500Y184565D01*
D02*
G37*
G36*
X133000Y184065D02*
X132401Y183946D01*
X131893Y183607D01*
X131554Y183099D01*
X131435Y182500D01*
X131554Y181901D01*
X131893Y181393D01*
X132401Y181054D01*
X133000Y180935D01*
X133599Y181054D01*
X134107Y181393D01*
X134446Y181901D01*
X134565Y182500D01*
X134446Y183099D01*
X134107Y183607D01*
X133599Y183946D01*
X133000Y184065D01*
D02*
G37*
G36*
X253000Y187566D02*
X252401Y187446D01*
X251893Y187107D01*
X251554Y186599D01*
X251434Y186000D01*
X251554Y185401D01*
X251893Y184893D01*
X252401Y184554D01*
X253000Y184434D01*
X253278Y184490D01*
X257100Y180668D01*
X257054Y180599D01*
X256934Y180000D01*
X257054Y179401D01*
X257393Y178893D01*
X257901Y178554D01*
X258500Y178435D01*
X259099Y178554D01*
X259607Y178893D01*
X259946Y179401D01*
X260066Y180000D01*
X259946Y180599D01*
X259607Y181107D01*
X259099Y181446D01*
X258708Y181524D01*
X254510Y185722D01*
X254566Y186000D01*
X254446Y186599D01*
X254107Y187107D01*
X253599Y187446D01*
X253000Y187566D01*
D02*
G37*
G36*
X539610Y183110D02*
X533390D01*
Y176890D01*
X539610D01*
Y183110D01*
D02*
G37*
G36*
X60000Y182565D02*
X59401Y182446D01*
X58893Y182107D01*
X58554Y181599D01*
X58434Y181000D01*
X58554Y180401D01*
X58893Y179893D01*
X59401Y179554D01*
X60000Y179435D01*
X60278Y179490D01*
X63540Y176228D01*
X63434Y175700D01*
X63554Y175101D01*
X63893Y174593D01*
X64401Y174254D01*
X65000Y174135D01*
X65599Y174254D01*
X66107Y174593D01*
X66446Y175101D01*
X66566Y175700D01*
X66446Y176299D01*
X66107Y176807D01*
X65599Y177146D01*
X65000Y177266D01*
X64972Y177260D01*
X61510Y180722D01*
X61566Y181000D01*
X61446Y181599D01*
X61107Y182107D01*
X60599Y182446D01*
X60000Y182565D01*
D02*
G37*
G36*
X529500Y179137D02*
X528688Y179030D01*
X527931Y178717D01*
X527282Y178218D01*
X526783Y177568D01*
X526470Y176812D01*
X526363Y176000D01*
X526470Y175188D01*
X526783Y174432D01*
X527282Y173782D01*
X527931Y173283D01*
X528688Y172970D01*
X529500Y172863D01*
X530312Y172970D01*
X531069Y173283D01*
X531718Y173782D01*
X532217Y174432D01*
X532530Y175188D01*
X532637Y176000D01*
X532530Y176812D01*
X532217Y177568D01*
X531718Y178218D01*
X531069Y178717D01*
X530312Y179030D01*
X529500Y179137D01*
D02*
G37*
G36*
X361500Y178836D02*
X360637Y178722D01*
X359832Y178389D01*
X359141Y177859D01*
X358611Y177168D01*
X358278Y176363D01*
X358164Y175500D01*
X358278Y174637D01*
X358611Y173832D01*
X359141Y173141D01*
X359832Y172611D01*
X360637Y172278D01*
X361500Y172164D01*
X362363Y172278D01*
X363168Y172611D01*
X363859Y173141D01*
X364389Y173832D01*
X364722Y174637D01*
X364836Y175500D01*
X364722Y176363D01*
X364389Y177168D01*
X363859Y177859D01*
X363168Y178389D01*
X362363Y178722D01*
X361500Y178836D01*
D02*
G37*
G36*
X351500D02*
X350637Y178722D01*
X349832Y178389D01*
X349141Y177859D01*
X348611Y177168D01*
X348278Y176363D01*
X348164Y175500D01*
X348278Y174637D01*
X348611Y173832D01*
X349141Y173141D01*
X349832Y172611D01*
X350637Y172278D01*
X351500Y172164D01*
X352363Y172278D01*
X353168Y172611D01*
X353859Y173141D01*
X354389Y173832D01*
X354722Y174637D01*
X354836Y175500D01*
X354722Y176363D01*
X354389Y177168D01*
X353859Y177859D01*
X353168Y178389D01*
X352363Y178722D01*
X351500Y178836D01*
D02*
G37*
G36*
X425400Y172565D02*
X424801Y172446D01*
X424293Y172107D01*
X423954Y171599D01*
X423835Y171000D01*
X423954Y170401D01*
X424293Y169893D01*
X424801Y169554D01*
X425400Y169434D01*
X425999Y169554D01*
X426507Y169893D01*
X426846Y170401D01*
X426966Y171000D01*
X426846Y171599D01*
X426507Y172107D01*
X425999Y172446D01*
X425400Y172565D01*
D02*
G37*
G36*
X536500Y175137D02*
X535688Y175030D01*
X534932Y174717D01*
X534282Y174218D01*
X533783Y173568D01*
X533470Y172812D01*
X533363Y172000D01*
X533470Y171188D01*
X533783Y170431D01*
X534282Y169782D01*
X534932Y169283D01*
X535688Y168970D01*
X536500Y168863D01*
X537312Y168970D01*
X538068Y169283D01*
X538718Y169782D01*
X539217Y170431D01*
X539530Y171188D01*
X539637Y172000D01*
X539530Y172812D01*
X539217Y173568D01*
X538718Y174218D01*
X538068Y174717D01*
X537312Y175030D01*
X536500Y175137D01*
D02*
G37*
G36*
X171000Y168565D02*
X170401Y168446D01*
X169893Y168107D01*
X169554Y167599D01*
X169434Y167000D01*
X169554Y166401D01*
X169893Y165893D01*
X170401Y165554D01*
X171000Y165435D01*
X171599Y165554D01*
X172107Y165893D01*
X172446Y166401D01*
X172565Y167000D01*
X172446Y167599D01*
X172107Y168107D01*
X171599Y168446D01*
X171000Y168565D01*
D02*
G37*
G36*
X20000Y168465D02*
X19401Y168346D01*
X18893Y168007D01*
X18554Y167499D01*
X18435Y166900D01*
X18554Y166301D01*
X18893Y165793D01*
X19401Y165454D01*
X20000Y165334D01*
X20599Y165454D01*
X21107Y165793D01*
X21446Y166301D01*
X21565Y166900D01*
X21446Y167499D01*
X21107Y168007D01*
X20599Y168346D01*
X20000Y168465D01*
D02*
G37*
G36*
X529500Y171137D02*
X528688Y171030D01*
X527931Y170717D01*
X527282Y170218D01*
X526783Y169569D01*
X526470Y168812D01*
X526363Y168000D01*
X526470Y167188D01*
X526783Y166431D01*
X527282Y165782D01*
X527931Y165283D01*
X528688Y164970D01*
X529500Y164863D01*
X530312Y164970D01*
X531069Y165283D01*
X531718Y165782D01*
X532217Y166431D01*
X532530Y167188D01*
X532637Y168000D01*
X532530Y168812D01*
X532217Y169569D01*
X531718Y170218D01*
X531069Y170717D01*
X530312Y171030D01*
X529500Y171137D01*
D02*
G37*
G36*
X-35800Y166866D02*
X-36399Y166746D01*
X-36907Y166407D01*
X-37246Y165899D01*
X-37365Y165300D01*
X-37246Y164701D01*
X-36907Y164193D01*
X-36399Y163854D01*
X-35800Y163734D01*
X-35201Y163854D01*
X-34693Y164193D01*
X-34354Y164701D01*
X-34234Y165300D01*
X-34354Y165899D01*
X-34693Y166407D01*
X-35201Y166746D01*
X-35800Y166866D01*
D02*
G37*
G36*
X167500Y165566D02*
X166901Y165446D01*
X166393Y165107D01*
X166054Y164599D01*
X165935Y164000D01*
X166054Y163401D01*
X166393Y162893D01*
X166901Y162554D01*
X167500Y162434D01*
X168099Y162554D01*
X168607Y162893D01*
X168946Y163401D01*
X169065Y164000D01*
X168946Y164599D01*
X168607Y165107D01*
X168099Y165446D01*
X167500Y165566D01*
D02*
G37*
G36*
X354807Y168807D02*
X348193D01*
Y162193D01*
X354807D01*
Y168807D01*
D02*
G37*
G36*
X361500Y168836D02*
X360637Y168722D01*
X359832Y168389D01*
X359141Y167859D01*
X358611Y167168D01*
X358278Y166363D01*
X358164Y165500D01*
X358278Y164637D01*
X358611Y163832D01*
X359141Y163141D01*
X359832Y162611D01*
X360637Y162278D01*
X361500Y162164D01*
X362363Y162278D01*
X363168Y162611D01*
X363859Y163141D01*
X364389Y163832D01*
X364722Y164637D01*
X364836Y165500D01*
X364722Y166363D01*
X364389Y167168D01*
X363859Y167859D01*
X363168Y168389D01*
X362363Y168722D01*
X361500Y168836D01*
D02*
G37*
G36*
X521542Y165023D02*
X520943Y164904D01*
X520435Y164565D01*
X520096Y164057D01*
X519977Y163458D01*
X520096Y162859D01*
X520435Y162351D01*
X520943Y162011D01*
X521542Y161892D01*
X522141Y162011D01*
X522649Y162351D01*
X522989Y162859D01*
X523108Y163458D01*
X522989Y164057D01*
X522649Y164565D01*
X522141Y164904D01*
X521542Y165023D01*
D02*
G37*
G36*
X404000Y164566D02*
X403401Y164446D01*
X402893Y164107D01*
X402554Y163599D01*
X402434Y163000D01*
X402554Y162401D01*
X402893Y161893D01*
X403401Y161554D01*
X404000Y161434D01*
X404599Y161554D01*
X405107Y161893D01*
X405446Y162401D01*
X405566Y163000D01*
X405446Y163599D01*
X405107Y164107D01*
X404599Y164446D01*
X404000Y164566D01*
D02*
G37*
G36*
X536500Y167137D02*
X535688Y167030D01*
X534932Y166717D01*
X534282Y166218D01*
X533783Y165568D01*
X533470Y164812D01*
X533363Y164000D01*
X533470Y163188D01*
X533783Y162432D01*
X534282Y161782D01*
X534932Y161283D01*
X535688Y160970D01*
X536500Y160863D01*
X537312Y160970D01*
X538068Y161283D01*
X538718Y161782D01*
X539217Y162432D01*
X539530Y163188D01*
X539637Y164000D01*
X539530Y164812D01*
X539217Y165568D01*
X538718Y166218D01*
X538068Y166717D01*
X537312Y167030D01*
X536500Y167137D01*
D02*
G37*
G36*
X511500Y161565D02*
X510901Y161446D01*
X510393Y161107D01*
X510054Y160599D01*
X509935Y160000D01*
X510054Y159401D01*
X510393Y158893D01*
X510901Y158554D01*
X511500Y158434D01*
X512099Y158554D01*
X512607Y158893D01*
X512946Y159401D01*
X513065Y160000D01*
X512946Y160599D01*
X512607Y161107D01*
X512099Y161446D01*
X511500Y161565D01*
D02*
G37*
G36*
X529500Y163137D02*
X528688Y163030D01*
X527931Y162717D01*
X527282Y162218D01*
X526783Y161568D01*
X526470Y160812D01*
X526363Y160000D01*
X526470Y159188D01*
X526783Y158431D01*
X527282Y157782D01*
X527931Y157283D01*
X528688Y156970D01*
X529500Y156863D01*
X530312Y156970D01*
X531069Y157283D01*
X531718Y157782D01*
X532217Y158431D01*
X532530Y159188D01*
X532637Y160000D01*
X532530Y160812D01*
X532217Y161568D01*
X531718Y162218D01*
X531069Y162717D01*
X530312Y163030D01*
X529500Y163137D01*
D02*
G37*
G36*
X209000Y159565D02*
X208401Y159446D01*
X207893Y159107D01*
X207554Y158599D01*
X207435Y158000D01*
X207554Y157401D01*
X207893Y156893D01*
X208401Y156554D01*
X209000Y156435D01*
X209599Y156554D01*
X210107Y156893D01*
X210446Y157401D01*
X210565Y158000D01*
X210446Y158599D01*
X210107Y159107D01*
X209599Y159446D01*
X209000Y159565D01*
D02*
G37*
G36*
X536500Y159137D02*
X535688Y159030D01*
X534932Y158717D01*
X534282Y158218D01*
X533783Y157569D01*
X533470Y156812D01*
X533363Y156000D01*
X533470Y155188D01*
X533783Y154431D01*
X534282Y153782D01*
X534932Y153283D01*
X535688Y152970D01*
X536500Y152863D01*
X537312Y152970D01*
X538068Y153283D01*
X538718Y153782D01*
X539217Y154431D01*
X539530Y155188D01*
X539637Y156000D01*
X539530Y156812D01*
X539217Y157569D01*
X538718Y158218D01*
X538068Y158717D01*
X537312Y159030D01*
X536500Y159137D01*
D02*
G37*
G36*
X198500Y153066D02*
X197901Y152946D01*
X197393Y152607D01*
X197054Y152099D01*
X196934Y151500D01*
X197054Y150901D01*
X197393Y150393D01*
X197901Y150054D01*
X198500Y149934D01*
X199099Y150054D01*
X199607Y150393D01*
X199946Y150901D01*
X200065Y151500D01*
X199946Y152099D01*
X199607Y152607D01*
X199099Y152946D01*
X198500Y153066D01*
D02*
G37*
G36*
X529500Y155137D02*
X528688Y155030D01*
X527931Y154717D01*
X527282Y154218D01*
X526783Y153568D01*
X526470Y152812D01*
X526363Y152000D01*
X526470Y151188D01*
X526783Y150432D01*
X527282Y149782D01*
X527931Y149283D01*
X528688Y148970D01*
X529500Y148863D01*
X530312Y148970D01*
X531069Y149283D01*
X531718Y149782D01*
X532217Y150432D01*
X532530Y151188D01*
X532637Y152000D01*
X532530Y152812D01*
X532217Y153568D01*
X531718Y154218D01*
X531069Y154717D01*
X530312Y155030D01*
X529500Y155137D01*
D02*
G37*
G36*
X360300Y150865D02*
X359701Y150746D01*
X359193Y150407D01*
X358854Y149899D01*
X358734Y149300D01*
X358854Y148701D01*
X359193Y148193D01*
X359701Y147854D01*
X360300Y147734D01*
X360899Y147854D01*
X361407Y148193D01*
X361746Y148701D01*
X361865Y149300D01*
X361746Y149899D01*
X361407Y150407D01*
X360899Y150746D01*
X360300Y150865D01*
D02*
G37*
G36*
X366200Y150665D02*
X365601Y150546D01*
X365093Y150207D01*
X364754Y149699D01*
X364634Y149100D01*
X364754Y148501D01*
X365093Y147993D01*
X365601Y147654D01*
X366200Y147535D01*
X366799Y147654D01*
X367307Y147993D01*
X367646Y148501D01*
X367765Y149100D01*
X367646Y149699D01*
X367307Y150207D01*
X366799Y150546D01*
X366200Y150665D01*
D02*
G37*
G36*
X53000Y157765D02*
X52401Y157646D01*
X51893Y157307D01*
X51554Y156799D01*
X51434Y156200D01*
X51554Y155601D01*
X51893Y155093D01*
X52290Y154828D01*
X52328Y154665D01*
Y154435D01*
X52290Y154272D01*
X51893Y154007D01*
X51554Y153499D01*
X51434Y152900D01*
X51554Y152301D01*
X51893Y151793D01*
X52212Y151580D01*
Y151020D01*
X51893Y150807D01*
X51554Y150299D01*
X51434Y149700D01*
X51554Y149101D01*
X51893Y148593D01*
X52290Y148328D01*
X52328Y148165D01*
Y147935D01*
X52290Y147772D01*
X51893Y147507D01*
X51554Y146999D01*
X51434Y146400D01*
X51554Y145801D01*
X51893Y145293D01*
X52401Y144954D01*
X53000Y144834D01*
X53599Y144954D01*
X54107Y145293D01*
X54446Y145801D01*
X54566Y146400D01*
X54446Y146999D01*
X54107Y147507D01*
X53710Y147772D01*
X53672Y147935D01*
Y148165D01*
X53710Y148328D01*
X54107Y148593D01*
X54446Y149101D01*
X54566Y149700D01*
X54446Y150299D01*
X54107Y150807D01*
X53788Y151020D01*
Y151580D01*
X54107Y151793D01*
X54446Y152301D01*
X54566Y152900D01*
X54446Y153499D01*
X54107Y154007D01*
X53710Y154272D01*
X53672Y154435D01*
Y154665D01*
X53710Y154828D01*
X54107Y155093D01*
X54446Y155601D01*
X54566Y156200D01*
X54446Y156799D01*
X54107Y157307D01*
X53599Y157646D01*
X53000Y157765D01*
D02*
G37*
G36*
X80300Y151665D02*
X79701Y151546D01*
X79193Y151207D01*
X78854Y150699D01*
X78734Y150100D01*
X78854Y149501D01*
X79193Y148993D01*
X79701Y148654D01*
X80217Y148551D01*
X83023Y145745D01*
X82934Y145300D01*
X83054Y144701D01*
X83393Y144193D01*
X83901Y143854D01*
X84500Y143735D01*
X85099Y143854D01*
X85607Y144193D01*
X85946Y144701D01*
X86066Y145300D01*
X85946Y145899D01*
X85607Y146407D01*
X85099Y146746D01*
X84500Y146865D01*
X84389Y146843D01*
X81740Y149492D01*
X81746Y149501D01*
X81866Y150100D01*
X81746Y150699D01*
X81407Y151207D01*
X80899Y151546D01*
X80300Y151665D01*
D02*
G37*
G36*
X425400Y146666D02*
X424801Y146546D01*
X424293Y146207D01*
X423954Y145699D01*
X423835Y145100D01*
X423954Y144501D01*
X424293Y143993D01*
X424801Y143654D01*
X425400Y143535D01*
X425999Y143654D01*
X426507Y143993D01*
X426846Y144501D01*
X426966Y145100D01*
X426846Y145699D01*
X426507Y146207D01*
X425999Y146546D01*
X425400Y146666D01*
D02*
G37*
G36*
X47500Y145366D02*
X46901Y145246D01*
X46393Y144907D01*
X46054Y144399D01*
X45935Y143800D01*
X46054Y143201D01*
X46393Y142693D01*
X46901Y142354D01*
X47500Y142235D01*
X48099Y142354D01*
X48607Y142693D01*
X48946Y143201D01*
X49066Y143800D01*
X48946Y144399D01*
X48607Y144907D01*
X48099Y145246D01*
X47500Y145366D01*
D02*
G37*
G36*
X337500Y143565D02*
X336901Y143446D01*
X336393Y143107D01*
X336054Y142599D01*
X335934Y142000D01*
X336054Y141401D01*
X336393Y140893D01*
X336901Y140554D01*
X337500Y140435D01*
X338099Y140554D01*
X338607Y140893D01*
X338946Y141401D01*
X339066Y142000D01*
X338946Y142599D01*
X338607Y143107D01*
X338099Y143446D01*
X337500Y143565D01*
D02*
G37*
G36*
X268000Y149565D02*
X267401Y149446D01*
X266893Y149107D01*
X266554Y148599D01*
X266435Y148000D01*
X266554Y147401D01*
X266893Y146893D01*
X267401Y146554D01*
X267792Y146476D01*
X272490Y141778D01*
X272434Y141500D01*
X272554Y140901D01*
X272893Y140393D01*
X273401Y140054D01*
X274000Y139935D01*
X274599Y140054D01*
X275107Y140393D01*
X275446Y140901D01*
X275566Y141500D01*
X275446Y142099D01*
X275107Y142607D01*
X274599Y142946D01*
X274000Y143066D01*
X273722Y143010D01*
X269400Y147332D01*
X269446Y147401D01*
X269566Y148000D01*
X269446Y148599D01*
X269107Y149107D01*
X268599Y149446D01*
X268000Y149565D01*
D02*
G37*
G36*
X294500Y142566D02*
X293901Y142446D01*
X293393Y142107D01*
X293054Y141599D01*
X292934Y141000D01*
X293054Y140401D01*
X293393Y139893D01*
X293901Y139554D01*
X294500Y139435D01*
X295099Y139554D01*
X295607Y139893D01*
X295946Y140401D01*
X296065Y141000D01*
X295946Y141599D01*
X295607Y142107D01*
X295099Y142446D01*
X294500Y142566D01*
D02*
G37*
G36*
X44000D02*
X43401Y142446D01*
X42893Y142107D01*
X42554Y141599D01*
X42434Y141000D01*
X42554Y140401D01*
X42893Y139893D01*
X43401Y139554D01*
X44000Y139435D01*
X44599Y139554D01*
X45107Y139893D01*
X45446Y140401D01*
X45566Y141000D01*
X45446Y141599D01*
X45107Y142107D01*
X44599Y142446D01*
X44000Y142566D01*
D02*
G37*
G36*
X20000Y139766D02*
X19401Y139646D01*
X18893Y139307D01*
X18554Y138799D01*
X18435Y138200D01*
X18554Y137601D01*
X18893Y137093D01*
X19401Y136754D01*
X20000Y136635D01*
X20599Y136754D01*
X21107Y137093D01*
X21446Y137601D01*
X21565Y138200D01*
X21446Y138799D01*
X21107Y139307D01*
X20599Y139646D01*
X20000Y139766D01*
D02*
G37*
G36*
X404000Y139066D02*
X403401Y138946D01*
X402893Y138607D01*
X402554Y138099D01*
X402434Y137500D01*
X402554Y136901D01*
X402893Y136393D01*
X403401Y136054D01*
X404000Y135934D01*
X404599Y136054D01*
X405107Y136393D01*
X405446Y136901D01*
X405566Y137500D01*
X405446Y138099D01*
X405107Y138607D01*
X404599Y138946D01*
X404000Y139066D01*
D02*
G37*
G36*
X235400Y138165D02*
X234801Y138046D01*
X234293Y137707D01*
X233954Y137199D01*
X233835Y136600D01*
X233954Y136001D01*
X234293Y135493D01*
X234801Y135154D01*
X235400Y135035D01*
X235999Y135154D01*
X236507Y135493D01*
X236846Y136001D01*
X236965Y136600D01*
X236846Y137199D01*
X236507Y137707D01*
X235999Y138046D01*
X235400Y138165D01*
D02*
G37*
G36*
X357300Y135766D02*
X356701Y135646D01*
X356193Y135307D01*
X355854Y134799D01*
X355734Y134200D01*
X355854Y133601D01*
X356193Y133093D01*
X356701Y132754D01*
X357300Y132634D01*
X357899Y132754D01*
X358407Y133093D01*
X358746Y133601D01*
X358865Y134200D01*
X358746Y134799D01*
X358407Y135307D01*
X357899Y135646D01*
X357300Y135766D01*
D02*
G37*
G36*
X232000Y135065D02*
X231401Y134946D01*
X230893Y134607D01*
X230554Y134099D01*
X230434Y133500D01*
X230554Y132901D01*
X230893Y132393D01*
X231401Y132054D01*
X232000Y131934D01*
X232599Y132054D01*
X233107Y132393D01*
X233446Y132901D01*
X233565Y133500D01*
X233446Y134099D01*
X233107Y134607D01*
X232599Y134946D01*
X232000Y135065D01*
D02*
G37*
G36*
X362500Y134565D02*
X361901Y134446D01*
X361393Y134107D01*
X361054Y133599D01*
X360934Y133000D01*
X361054Y132401D01*
X361393Y131893D01*
X361901Y131554D01*
X362500Y131435D01*
X363099Y131554D01*
X363607Y131893D01*
X363946Y132401D01*
X364066Y133000D01*
X363946Y133599D01*
X363607Y134107D01*
X363099Y134446D01*
X362500Y134565D01*
D02*
G37*
G36*
X55000Y133966D02*
X54401Y133846D01*
X53893Y133507D01*
X53554Y132999D01*
X53434Y132400D01*
X53554Y131801D01*
X53893Y131293D01*
X54401Y130954D01*
X55000Y130834D01*
X55599Y130954D01*
X56107Y131293D01*
X56446Y131801D01*
X56565Y132400D01*
X56446Y132999D01*
X56107Y133507D01*
X55599Y133846D01*
X55000Y133966D01*
D02*
G37*
G36*
X337500Y133765D02*
X336901Y133646D01*
X336393Y133307D01*
X336054Y132799D01*
X335934Y132200D01*
X336054Y131601D01*
X336393Y131093D01*
X336901Y130754D01*
X337500Y130634D01*
X338099Y130754D01*
X338607Y131093D01*
X338946Y131601D01*
X339066Y132200D01*
X338946Y132799D01*
X338607Y133307D01*
X338099Y133646D01*
X337500Y133765D01*
D02*
G37*
G36*
X294500Y132565D02*
X293901Y132446D01*
X293393Y132107D01*
X293054Y131599D01*
X292934Y131000D01*
X293054Y130401D01*
X293393Y129893D01*
X293901Y129554D01*
X294500Y129435D01*
X295099Y129554D01*
X295607Y129893D01*
X295946Y130401D01*
X296065Y131000D01*
X295946Y131599D01*
X295607Y132107D01*
X295099Y132446D01*
X294500Y132565D01*
D02*
G37*
G36*
X533000Y139123D02*
X531674Y138948D01*
X530439Y138436D01*
X529378Y137622D01*
X528564Y136561D01*
X528052Y135326D01*
X527877Y134000D01*
X528052Y132674D01*
X528564Y131439D01*
X529378Y130378D01*
X530439Y129564D01*
X531674Y129052D01*
X533000Y128877D01*
X534326Y129052D01*
X535561Y129564D01*
X536622Y130378D01*
X537436Y131439D01*
X537948Y132674D01*
X538123Y134000D01*
X537948Y135326D01*
X537436Y136561D01*
X536622Y137622D01*
X535561Y138436D01*
X534326Y138948D01*
X533000Y139123D01*
D02*
G37*
G36*
X374100Y131065D02*
X373501Y130946D01*
X372993Y130607D01*
X372654Y130099D01*
X372534Y129500D01*
X372654Y128901D01*
X372993Y128393D01*
X373501Y128054D01*
X374100Y127935D01*
X374699Y128054D01*
X375207Y128393D01*
X375546Y128901D01*
X375665Y129500D01*
X375546Y130099D01*
X375207Y130607D01*
X374699Y130946D01*
X374100Y131065D01*
D02*
G37*
G36*
X55000Y129147D02*
X54401Y129028D01*
X53893Y128689D01*
X53554Y128181D01*
X53434Y127582D01*
X53554Y126983D01*
X53893Y126475D01*
X54401Y126136D01*
X55000Y126016D01*
X55599Y126136D01*
X56107Y126475D01*
X56446Y126983D01*
X56565Y127582D01*
X56446Y128181D01*
X56107Y128689D01*
X55599Y129028D01*
X55000Y129147D01*
D02*
G37*
G36*
X133000Y127266D02*
X132401Y127146D01*
X131893Y126807D01*
X131554Y126299D01*
X131435Y125700D01*
X131554Y125101D01*
X131893Y124593D01*
X132401Y124254D01*
X133000Y124135D01*
X133599Y124254D01*
X134107Y124593D01*
X134446Y125101D01*
X134565Y125700D01*
X134446Y126299D01*
X134107Y126807D01*
X133599Y127146D01*
X133000Y127266D01*
D02*
G37*
G36*
X50700Y126066D02*
X50101Y125946D01*
X49593Y125607D01*
X49254Y125099D01*
X49134Y124500D01*
X49254Y123901D01*
X49593Y123393D01*
X50101Y123054D01*
X50700Y122934D01*
X51299Y123054D01*
X51807Y123393D01*
X52146Y123901D01*
X52266Y124500D01*
X52146Y125099D01*
X51807Y125607D01*
X51299Y125946D01*
X50700Y126066D01*
D02*
G37*
G36*
X384100Y125566D02*
X383501Y125446D01*
X382993Y125107D01*
X382654Y124599D01*
X382535Y124000D01*
X382654Y123401D01*
X382993Y122893D01*
X383501Y122554D01*
X384100Y122434D01*
X384699Y122554D01*
X385207Y122893D01*
X385546Y123401D01*
X385665Y124000D01*
X385546Y124599D01*
X385207Y125107D01*
X384699Y125446D01*
X384100Y125566D01*
D02*
G37*
G36*
X127100Y124766D02*
X126501Y124646D01*
X125993Y124307D01*
X125654Y123799D01*
X125534Y123200D01*
X125654Y122601D01*
X125993Y122093D01*
X126501Y121754D01*
X127100Y121634D01*
X127699Y121754D01*
X128207Y122093D01*
X128546Y122601D01*
X128665Y123200D01*
X128546Y123799D01*
X128207Y124307D01*
X127699Y124646D01*
X127100Y124766D01*
D02*
G37*
G36*
X-28000Y124065D02*
X-28599Y123946D01*
X-29107Y123607D01*
X-29446Y123099D01*
X-29566Y122500D01*
X-29446Y121901D01*
X-29107Y121393D01*
X-28599Y121054D01*
X-28000Y120934D01*
X-27401Y121054D01*
X-26893Y121393D01*
X-26554Y121901D01*
X-26434Y122500D01*
X-26554Y123099D01*
X-26893Y123607D01*
X-27401Y123946D01*
X-28000Y124065D01*
D02*
G37*
G36*
X337500Y123565D02*
X336901Y123446D01*
X336393Y123107D01*
X336054Y122599D01*
X335934Y122000D01*
X336054Y121401D01*
X336393Y120893D01*
X336901Y120554D01*
X337500Y120434D01*
X338099Y120554D01*
X338607Y120893D01*
X338946Y121401D01*
X339066Y122000D01*
X338946Y122599D01*
X338607Y123107D01*
X338099Y123446D01*
X337500Y123565D01*
D02*
G37*
G36*
X-9000D02*
X-9599Y123446D01*
X-10107Y123107D01*
X-10446Y122599D01*
X-10565Y122000D01*
X-10446Y121401D01*
X-10107Y120893D01*
X-9599Y120554D01*
X-9000Y120434D01*
X-8401Y120554D01*
X-7893Y120893D01*
X-7554Y121401D01*
X-7435Y122000D01*
X-7554Y122599D01*
X-7893Y123107D01*
X-8401Y123446D01*
X-9000Y123565D01*
D02*
G37*
G36*
X294500Y122565D02*
X293901Y122446D01*
X293393Y122107D01*
X293054Y121599D01*
X292934Y121000D01*
X293054Y120401D01*
X293393Y119893D01*
X293901Y119554D01*
X294500Y119434D01*
X295099Y119554D01*
X295607Y119893D01*
X295946Y120401D01*
X296065Y121000D01*
X295946Y121599D01*
X295607Y122107D01*
X295099Y122446D01*
X294500Y122565D01*
D02*
G37*
G36*
X425500Y121666D02*
X424901Y121546D01*
X424393Y121207D01*
X424054Y120699D01*
X423935Y120100D01*
X424054Y119501D01*
X424393Y118993D01*
X424901Y118654D01*
X425500Y118535D01*
X426099Y118654D01*
X426607Y118993D01*
X426946Y119501D01*
X427066Y120100D01*
X426946Y120699D01*
X426607Y121207D01*
X426099Y121546D01*
X425500Y121666D01*
D02*
G37*
G36*
X50700Y120565D02*
X50101Y120446D01*
X49593Y120107D01*
X49254Y119599D01*
X49134Y119000D01*
X49254Y118401D01*
X49593Y117893D01*
X50101Y117554D01*
X50700Y117435D01*
X51299Y117554D01*
X51807Y117893D01*
X52146Y118401D01*
X52266Y119000D01*
X52146Y119599D01*
X51807Y120107D01*
X51299Y120446D01*
X50700Y120565D01*
D02*
G37*
G36*
X207500Y120366D02*
X206901Y120246D01*
X206393Y119907D01*
X206054Y119399D01*
X205990Y119078D01*
X205365Y118819D01*
X204481Y118140D01*
X204495Y118126D01*
X204495Y118126D01*
X202469Y116101D01*
X202465Y116094D01*
X201601Y115431D01*
X200653Y115039D01*
X200607Y115107D01*
X200099Y115446D01*
X199500Y115566D01*
X198901Y115446D01*
X198393Y115107D01*
X198054Y114599D01*
X197934Y114000D01*
X198054Y113401D01*
X198393Y112893D01*
X198901Y112554D01*
X199500Y112434D01*
X200099Y112554D01*
X200607Y112893D01*
X200877Y113297D01*
X201778Y113570D01*
X202808Y114120D01*
X203710Y114861D01*
X203701Y114869D01*
X205726Y116894D01*
X205748Y116927D01*
X206534Y117452D01*
X206703Y117486D01*
X206901Y117354D01*
X207500Y117235D01*
X208099Y117354D01*
X208607Y117693D01*
X208946Y118201D01*
X209066Y118800D01*
X208946Y119399D01*
X208607Y119907D01*
X208099Y120246D01*
X207500Y120366D01*
D02*
G37*
G36*
X133000Y115566D02*
X132401Y115446D01*
X131893Y115107D01*
X131554Y114599D01*
X131435Y114000D01*
X131554Y113401D01*
X131893Y112893D01*
X132401Y112554D01*
X133000Y112434D01*
X133599Y112554D01*
X134107Y112893D01*
X134446Y113401D01*
X134565Y114000D01*
X134446Y114599D01*
X134107Y115107D01*
X133599Y115446D01*
X133000Y115566D01*
D02*
G37*
G36*
X40000Y115066D02*
X39401Y114946D01*
X38893Y114607D01*
X38554Y114099D01*
X38434Y113500D01*
X38554Y112901D01*
X38893Y112393D01*
X39401Y112054D01*
X40000Y111934D01*
X40599Y112054D01*
X41107Y112393D01*
X41446Y112901D01*
X41565Y113500D01*
X41446Y114099D01*
X41107Y114607D01*
X40599Y114946D01*
X40000Y115066D01*
D02*
G37*
G36*
X337500Y113766D02*
X336901Y113646D01*
X336393Y113307D01*
X336054Y112799D01*
X335934Y112200D01*
X336054Y111601D01*
X336393Y111093D01*
X336901Y110754D01*
X337500Y110635D01*
X338099Y110754D01*
X338607Y111093D01*
X338946Y111601D01*
X339066Y112200D01*
X338946Y112799D01*
X338607Y113307D01*
X338099Y113646D01*
X337500Y113766D01*
D02*
G37*
G36*
X404000Y113566D02*
X403401Y113446D01*
X402893Y113107D01*
X402554Y112599D01*
X402434Y112000D01*
X402554Y111401D01*
X402893Y110893D01*
X403401Y110554D01*
X404000Y110434D01*
X404599Y110554D01*
X405107Y110893D01*
X405446Y111401D01*
X405566Y112000D01*
X405446Y112599D01*
X405107Y113107D01*
X404599Y113446D01*
X404000Y113566D01*
D02*
G37*
G36*
X294500Y112566D02*
X293901Y112446D01*
X293393Y112107D01*
X293054Y111599D01*
X292934Y111000D01*
X293054Y110401D01*
X293393Y109893D01*
X293901Y109554D01*
X294500Y109434D01*
X295099Y109554D01*
X295607Y109893D01*
X295946Y110401D01*
X296065Y111000D01*
X295946Y111599D01*
X295607Y112107D01*
X295099Y112446D01*
X294500Y112566D01*
D02*
G37*
G36*
X109500Y115566D02*
X108901Y115446D01*
X108393Y115107D01*
X108054Y114599D01*
X107934Y114000D01*
X108054Y113401D01*
X108393Y112893D01*
X108901Y112554D01*
X109500Y112434D01*
X109778Y112490D01*
X113201Y109067D01*
X113192Y109058D01*
X114115Y108300D01*
X115169Y107738D01*
X115903Y107515D01*
X115954Y107258D01*
X116293Y106751D01*
X116801Y106411D01*
X117400Y106292D01*
X117999Y106411D01*
X118507Y106751D01*
X118846Y107258D01*
X118965Y107858D01*
X118846Y108457D01*
X118507Y108965D01*
X117999Y109304D01*
X117400Y109423D01*
X116801Y109304D01*
X116567Y109148D01*
X116376Y109173D01*
X115329Y109606D01*
X114439Y110289D01*
X114433Y110299D01*
X111010Y113722D01*
X111065Y114000D01*
X110946Y114599D01*
X110607Y115107D01*
X110099Y115446D01*
X109500Y115566D01*
D02*
G37*
G36*
X332000Y145000D02*
X300000D01*
Y103000D01*
X332000D01*
Y145000D01*
D02*
G37*
G36*
X369100Y105066D02*
X368501Y104946D01*
X367993Y104607D01*
X367654Y104099D01*
X367534Y103500D01*
X367654Y102901D01*
X367993Y102393D01*
X368501Y102054D01*
X369100Y101935D01*
X369699Y102054D01*
X370207Y102393D01*
X370546Y102901D01*
X370666Y103500D01*
X370546Y104099D01*
X370207Y104607D01*
X369699Y104946D01*
X369100Y105066D01*
D02*
G37*
G36*
X171000Y100566D02*
X170401Y100446D01*
X169893Y100107D01*
X169554Y99599D01*
X169434Y99000D01*
X169554Y98401D01*
X169893Y97893D01*
X170401Y97554D01*
X171000Y97435D01*
X171599Y97554D01*
X172107Y97893D01*
X172446Y98401D01*
X172565Y99000D01*
X172446Y99599D01*
X172107Y100107D01*
X171599Y100446D01*
X171000Y100566D01*
D02*
G37*
G36*
X389100Y99265D02*
X388501Y99146D01*
X387993Y98807D01*
X387654Y98299D01*
X387534Y97700D01*
X387654Y97101D01*
X387993Y96593D01*
X388501Y96254D01*
X389100Y96135D01*
X389699Y96254D01*
X390207Y96593D01*
X390546Y97101D01*
X390666Y97700D01*
X390546Y98299D01*
X390207Y98807D01*
X389699Y99146D01*
X389100Y99265D01*
D02*
G37*
G36*
X167500Y97566D02*
X166901Y97446D01*
X166393Y97107D01*
X166054Y96599D01*
X165935Y96000D01*
X166054Y95401D01*
X166393Y94893D01*
X166901Y94554D01*
X167500Y94434D01*
X168099Y94554D01*
X168607Y94893D01*
X168946Y95401D01*
X169065Y96000D01*
X168946Y96599D01*
X168607Y97107D01*
X168099Y97446D01*
X167500Y97566D01*
D02*
G37*
G36*
X425500Y96065D02*
X424901Y95946D01*
X424393Y95607D01*
X424054Y95099D01*
X423935Y94500D01*
X424054Y93901D01*
X424393Y93393D01*
X424901Y93054D01*
X425500Y92935D01*
X426099Y93054D01*
X426607Y93393D01*
X426946Y93901D01*
X427066Y94500D01*
X426946Y95099D01*
X426607Y95607D01*
X426099Y95946D01*
X425500Y96065D01*
D02*
G37*
G36*
X270500Y90566D02*
X269901Y90446D01*
X269393Y90107D01*
X269054Y89599D01*
X268934Y89000D01*
X269054Y88401D01*
X269393Y87893D01*
X269417Y87649D01*
X264778Y83010D01*
X264500Y83065D01*
X263901Y82946D01*
X263393Y82607D01*
X263054Y82099D01*
X262934Y81500D01*
X263054Y80901D01*
X263393Y80393D01*
X263901Y80054D01*
X264500Y79935D01*
X265099Y80054D01*
X265607Y80393D01*
X265946Y80901D01*
X266066Y81500D01*
X266010Y81778D01*
X271116Y86884D01*
X271305Y87167D01*
X271371Y87500D01*
Y87735D01*
X271607Y87893D01*
X271946Y88401D01*
X272065Y89000D01*
X271946Y89599D01*
X271607Y90107D01*
X271099Y90446D01*
X270500Y90566D01*
D02*
G37*
G36*
X210000Y85066D02*
X209401Y84946D01*
X208893Y84607D01*
X208554Y84099D01*
X208435Y83500D01*
X208554Y82901D01*
X208893Y82393D01*
X209401Y82054D01*
X210000Y81934D01*
X210599Y82054D01*
X211107Y82393D01*
X211446Y82901D01*
X211565Y83500D01*
X211446Y84099D01*
X211107Y84607D01*
X210599Y84946D01*
X210000Y85066D01*
D02*
G37*
G36*
X384100Y88036D02*
X383237Y87922D01*
X382432Y87589D01*
X381741Y87059D01*
X381211Y86368D01*
X380878Y85563D01*
X380764Y84700D01*
X380878Y83837D01*
X381211Y83032D01*
X381741Y82341D01*
X382432Y81811D01*
X383237Y81478D01*
X384100Y81364D01*
X384963Y81478D01*
X385768Y81811D01*
X386459Y82341D01*
X386989Y83032D01*
X387322Y83837D01*
X387436Y84700D01*
X387322Y85563D01*
X386989Y86368D01*
X386459Y87059D01*
X385768Y87589D01*
X384963Y87922D01*
X384100Y88036D01*
D02*
G37*
G36*
X374100D02*
X373237Y87922D01*
X372432Y87589D01*
X371741Y87059D01*
X371211Y86368D01*
X370878Y85563D01*
X370764Y84700D01*
X370878Y83837D01*
X371211Y83032D01*
X371741Y82341D01*
X372432Y81811D01*
X373237Y81478D01*
X374100Y81364D01*
X374963Y81478D01*
X375768Y81811D01*
X376459Y82341D01*
X376989Y83032D01*
X377322Y83837D01*
X377436Y84700D01*
X377322Y85563D01*
X376989Y86368D01*
X376459Y87059D01*
X375768Y87589D01*
X374963Y87922D01*
X374100Y88036D01*
D02*
G37*
G36*
X198500Y79066D02*
X197901Y78946D01*
X197393Y78607D01*
X197054Y78099D01*
X196934Y77500D01*
X197054Y76901D01*
X197393Y76393D01*
X197901Y76054D01*
X198500Y75934D01*
X199099Y76054D01*
X199607Y76393D01*
X199946Y76901D01*
X200065Y77500D01*
X199946Y78099D01*
X199607Y78607D01*
X199099Y78946D01*
X198500Y79066D01*
D02*
G37*
G36*
X377407Y78007D02*
X370793D01*
Y71393D01*
X377407D01*
Y78007D01*
D02*
G37*
G36*
X384100Y78036D02*
X383237Y77922D01*
X382432Y77589D01*
X381741Y77059D01*
X381211Y76368D01*
X380878Y75563D01*
X380764Y74700D01*
X380878Y73837D01*
X381211Y73032D01*
X381741Y72341D01*
X382432Y71811D01*
X383237Y71478D01*
X384100Y71364D01*
X384963Y71478D01*
X385768Y71811D01*
X386459Y72341D01*
X386989Y73032D01*
X387322Y73837D01*
X387436Y74700D01*
X387322Y75563D01*
X386989Y76368D01*
X386459Y77059D01*
X385768Y77589D01*
X384963Y77922D01*
X384100Y78036D01*
D02*
G37*
G36*
X191000Y77365D02*
X190401Y77246D01*
X189893Y76907D01*
X189554Y76399D01*
X189435Y75800D01*
X189554Y75201D01*
X189893Y74693D01*
X190401Y74354D01*
X191000Y74234D01*
X191599Y74354D01*
X191858Y74527D01*
X192340Y74464D01*
X193588Y73947D01*
X194277Y73418D01*
X194652Y73116D01*
X194998Y72771D01*
X196023Y71745D01*
X195934Y71300D01*
X196054Y70701D01*
X196393Y70193D01*
X196901Y69854D01*
X197500Y69735D01*
X198099Y69854D01*
X198607Y70193D01*
X198946Y70701D01*
X199065Y71300D01*
X198946Y71899D01*
X198607Y72407D01*
X198099Y72746D01*
X197500Y72865D01*
X197389Y72843D01*
X195884Y74348D01*
X195884Y74348D01*
X195895Y74360D01*
X194846Y75221D01*
X193649Y75861D01*
X192483Y76214D01*
X192446Y76399D01*
X192107Y76907D01*
X191599Y77246D01*
X191000Y77365D01*
D02*
G37*
G36*
X235500Y64065D02*
X234901Y63946D01*
X234393Y63607D01*
X234054Y63099D01*
X233934Y62500D01*
X234054Y61901D01*
X234393Y61393D01*
X234901Y61054D01*
X235500Y60935D01*
X236099Y61054D01*
X236607Y61393D01*
X236946Y61901D01*
X237066Y62500D01*
X236946Y63099D01*
X236607Y63607D01*
X236099Y63946D01*
X235500Y64065D01*
D02*
G37*
G36*
X232000Y61066D02*
X231401Y60946D01*
X230893Y60607D01*
X230554Y60099D01*
X230434Y59500D01*
X230554Y58901D01*
X230893Y58393D01*
X231401Y58054D01*
X232000Y57934D01*
X232599Y58054D01*
X233107Y58393D01*
X233446Y58901D01*
X233565Y59500D01*
X233446Y60099D01*
X233107Y60607D01*
X232599Y60946D01*
X232000Y61066D01*
D02*
G37*
G36*
X337500Y57465D02*
X336901Y57346D01*
X336393Y57007D01*
X336054Y56499D01*
X335934Y55900D01*
X336054Y55301D01*
X336393Y54793D01*
X336901Y54454D01*
X337500Y54334D01*
X338099Y54454D01*
X338607Y54793D01*
X338946Y55301D01*
X339066Y55900D01*
X338946Y56499D01*
X338607Y57007D01*
X338099Y57346D01*
X337500Y57465D01*
D02*
G37*
G36*
X31500Y54566D02*
X30901Y54446D01*
X30393Y54107D01*
X30054Y53599D01*
X29934Y53000D01*
X30054Y52401D01*
X30393Y51893D01*
X30901Y51554D01*
X31500Y51434D01*
X32099Y51554D01*
X32607Y51893D01*
X32946Y52401D01*
X33066Y53000D01*
X32946Y53599D01*
X32607Y54107D01*
X32099Y54446D01*
X31500Y54566D01*
D02*
G37*
G36*
X26500D02*
X25901Y54446D01*
X25393Y54107D01*
X25054Y53599D01*
X24935Y53000D01*
X25054Y52401D01*
X25393Y51893D01*
X25901Y51554D01*
X26500Y51434D01*
X27099Y51554D01*
X27607Y51893D01*
X27946Y52401D01*
X28065Y53000D01*
X27946Y53599D01*
X27607Y54107D01*
X27099Y54446D01*
X26500Y54566D01*
D02*
G37*
G36*
X21500D02*
X20901Y54446D01*
X20393Y54107D01*
X20054Y53599D01*
X19934Y53000D01*
X20054Y52401D01*
X20393Y51893D01*
X20901Y51554D01*
X21500Y51434D01*
X22099Y51554D01*
X22607Y51893D01*
X22946Y52401D01*
X23065Y53000D01*
X22946Y53599D01*
X22607Y54107D01*
X22099Y54446D01*
X21500Y54566D01*
D02*
G37*
G36*
X16500D02*
X15901Y54446D01*
X15393Y54107D01*
X15054Y53599D01*
X14934Y53000D01*
X15054Y52401D01*
X15393Y51893D01*
X15901Y51554D01*
X16500Y51434D01*
X17099Y51554D01*
X17607Y51893D01*
X17946Y52401D01*
X18066Y53000D01*
X17946Y53599D01*
X17607Y54107D01*
X17099Y54446D01*
X16500Y54566D01*
D02*
G37*
G36*
X11500D02*
X10901Y54446D01*
X10393Y54107D01*
X10054Y53599D01*
X9934Y53000D01*
X10054Y52401D01*
X10393Y51893D01*
X10901Y51554D01*
X11500Y51434D01*
X12099Y51554D01*
X12607Y51893D01*
X12946Y52401D01*
X13066Y53000D01*
X12946Y53599D01*
X12607Y54107D01*
X12099Y54446D01*
X11500Y54566D01*
D02*
G37*
G36*
X507000Y48566D02*
X506401Y48446D01*
X506111Y48253D01*
X505750Y48148D01*
X505389Y48253D01*
X505099Y48446D01*
X504500Y48566D01*
X503901Y48446D01*
X503611Y48253D01*
X503250Y48148D01*
X502889Y48253D01*
X502599Y48446D01*
X502000Y48566D01*
X501401Y48446D01*
X500893Y48107D01*
X500554Y47599D01*
X500434Y47000D01*
X500554Y46401D01*
X500893Y45893D01*
X501401Y45554D01*
X502000Y45434D01*
X502599Y45554D01*
X503107Y45893D01*
X503393D01*
X503901Y45554D01*
X504500Y45434D01*
X505099Y45554D01*
X505607Y45893D01*
X505893D01*
X506401Y45554D01*
X507000Y45434D01*
X507599Y45554D01*
X508107Y45893D01*
X508446Y46401D01*
X508566Y47000D01*
X508446Y47599D01*
X508107Y48107D01*
X507599Y48446D01*
X507000Y48566D01*
D02*
G37*
G36*
X485451Y48403D02*
X484852Y48284D01*
X484344Y47944D01*
X484058D01*
X483550Y48284D01*
X482951Y48403D01*
X482352Y48284D01*
X481844Y47944D01*
X481558D01*
X481050Y48284D01*
X480451Y48403D01*
X479852Y48284D01*
X479344Y47944D01*
X479005Y47436D01*
X478886Y46837D01*
X479005Y46238D01*
X479344Y45730D01*
X479852Y45391D01*
X480451Y45272D01*
X481050Y45391D01*
X481558Y45730D01*
X481844D01*
X482352Y45391D01*
X482951Y45272D01*
X483550Y45391D01*
X484058Y45730D01*
X484344D01*
X484852Y45391D01*
X485451Y45272D01*
X486050Y45391D01*
X486558Y45730D01*
X486898Y46238D01*
X487017Y46837D01*
X486898Y47436D01*
X486558Y47944D01*
X486050Y48284D01*
X485451Y48403D01*
D02*
G37*
G36*
X29000Y49566D02*
X28401Y49446D01*
X27893Y49107D01*
X27554Y48599D01*
X27435Y48000D01*
X27554Y47401D01*
X27893Y46893D01*
X28401Y46554D01*
X29000Y46435D01*
X29599Y46554D01*
X30107Y46893D01*
X30446Y47401D01*
X30566Y48000D01*
X30446Y48599D01*
X30107Y49107D01*
X29599Y49446D01*
X29000Y49566D01*
D02*
G37*
G36*
X24000D02*
X23401Y49446D01*
X22893Y49107D01*
X22554Y48599D01*
X22434Y48000D01*
X22554Y47401D01*
X22893Y46893D01*
X23401Y46554D01*
X24000Y46435D01*
X24599Y46554D01*
X25107Y46893D01*
X25446Y47401D01*
X25565Y48000D01*
X25446Y48599D01*
X25107Y49107D01*
X24599Y49446D01*
X24000Y49566D01*
D02*
G37*
G36*
X19000D02*
X18401Y49446D01*
X17893Y49107D01*
X17554Y48599D01*
X17435Y48000D01*
X17554Y47401D01*
X17893Y46893D01*
X18401Y46554D01*
X19000Y46435D01*
X19599Y46554D01*
X20107Y46893D01*
X20446Y47401D01*
X20565Y48000D01*
X20446Y48599D01*
X20107Y49107D01*
X19599Y49446D01*
X19000Y49566D01*
D02*
G37*
G36*
X14000D02*
X13401Y49446D01*
X12893Y49107D01*
X12554Y48599D01*
X12434Y48000D01*
X12554Y47401D01*
X12893Y46893D01*
X13401Y46554D01*
X14000Y46435D01*
X14599Y46554D01*
X15107Y46893D01*
X15446Y47401D01*
X15565Y48000D01*
X15446Y48599D01*
X15107Y49107D01*
X14599Y49446D01*
X14000Y49566D01*
D02*
G37*
G36*
X118500Y51065D02*
X117901Y50946D01*
X117393Y50607D01*
X117054Y50099D01*
X116935Y49500D01*
X117054Y48901D01*
X117393Y48393D01*
Y48107D01*
X117054Y47599D01*
X116935Y47000D01*
X117054Y46401D01*
X117393Y45893D01*
X117901Y45554D01*
X118500Y45434D01*
X119099Y45554D01*
X119607Y45893D01*
X119946Y46401D01*
X120065Y47000D01*
X119946Y47599D01*
X119607Y48107D01*
Y48393D01*
X119946Y48901D01*
X120065Y49500D01*
X119946Y50099D01*
X119607Y50607D01*
X119099Y50946D01*
X118500Y51065D01*
D02*
G37*
G36*
X31500Y44565D02*
X30901Y44446D01*
X30393Y44107D01*
X30054Y43599D01*
X29934Y43000D01*
X30054Y42401D01*
X30393Y41893D01*
X30901Y41554D01*
X31500Y41434D01*
X32099Y41554D01*
X32607Y41893D01*
X32946Y42401D01*
X33066Y43000D01*
X32946Y43599D01*
X32607Y44107D01*
X32099Y44446D01*
X31500Y44565D01*
D02*
G37*
G36*
X26500D02*
X25901Y44446D01*
X25393Y44107D01*
X25054Y43599D01*
X24935Y43000D01*
X25054Y42401D01*
X25393Y41893D01*
X25901Y41554D01*
X26500Y41434D01*
X27099Y41554D01*
X27607Y41893D01*
X27946Y42401D01*
X28065Y43000D01*
X27946Y43599D01*
X27607Y44107D01*
X27099Y44446D01*
X26500Y44565D01*
D02*
G37*
G36*
X21500D02*
X20901Y44446D01*
X20393Y44107D01*
X20054Y43599D01*
X19934Y43000D01*
X20054Y42401D01*
X20393Y41893D01*
X20901Y41554D01*
X21500Y41434D01*
X22099Y41554D01*
X22607Y41893D01*
X22946Y42401D01*
X23065Y43000D01*
X22946Y43599D01*
X22607Y44107D01*
X22099Y44446D01*
X21500Y44565D01*
D02*
G37*
G36*
X16500D02*
X15901Y44446D01*
X15393Y44107D01*
X15054Y43599D01*
X14934Y43000D01*
X15054Y42401D01*
X15393Y41893D01*
X15901Y41554D01*
X16500Y41434D01*
X17099Y41554D01*
X17607Y41893D01*
X17946Y42401D01*
X18066Y43000D01*
X17946Y43599D01*
X17607Y44107D01*
X17099Y44446D01*
X16500Y44565D01*
D02*
G37*
G36*
X11500D02*
X10901Y44446D01*
X10393Y44107D01*
X10054Y43599D01*
X9934Y43000D01*
X10054Y42401D01*
X10393Y41893D01*
X10901Y41554D01*
X11500Y41434D01*
X12099Y41554D01*
X12607Y41893D01*
X12946Y42401D01*
X13066Y43000D01*
X12946Y43599D01*
X12607Y44107D01*
X12099Y44446D01*
X11500Y44565D01*
D02*
G37*
G36*
X29000Y39566D02*
X28401Y39446D01*
X27893Y39107D01*
X27554Y38599D01*
X27435Y38000D01*
X27554Y37401D01*
X27893Y36893D01*
X28401Y36554D01*
X29000Y36435D01*
X29599Y36554D01*
X30107Y36893D01*
X30446Y37401D01*
X30566Y38000D01*
X30446Y38599D01*
X30107Y39107D01*
X29599Y39446D01*
X29000Y39566D01*
D02*
G37*
G36*
X24000D02*
X23401Y39446D01*
X22893Y39107D01*
X22554Y38599D01*
X22434Y38000D01*
X22554Y37401D01*
X22893Y36893D01*
X23401Y36554D01*
X24000Y36435D01*
X24599Y36554D01*
X25107Y36893D01*
X25446Y37401D01*
X25565Y38000D01*
X25446Y38599D01*
X25107Y39107D01*
X24599Y39446D01*
X24000Y39566D01*
D02*
G37*
G36*
X31500Y34565D02*
X30901Y34446D01*
X30393Y34107D01*
X30054Y33599D01*
X29934Y33000D01*
X30054Y32401D01*
X30393Y31893D01*
X30901Y31554D01*
X31500Y31435D01*
X32099Y31554D01*
X32607Y31893D01*
X32946Y32401D01*
X33066Y33000D01*
X32946Y33599D01*
X32607Y34107D01*
X32099Y34446D01*
X31500Y34565D01*
D02*
G37*
G36*
X26500D02*
X25901Y34446D01*
X25393Y34107D01*
X25054Y33599D01*
X24935Y33000D01*
X25054Y32401D01*
X25393Y31893D01*
X25901Y31554D01*
X26500Y31435D01*
X27099Y31554D01*
X27607Y31893D01*
X27946Y32401D01*
X28065Y33000D01*
X27946Y33599D01*
X27607Y34107D01*
X27099Y34446D01*
X26500Y34565D01*
D02*
G37*
G36*
X11500D02*
X10901Y34446D01*
X10393Y34107D01*
X10054Y33599D01*
X9934Y33000D01*
X10054Y32401D01*
X10393Y31893D01*
X10901Y31554D01*
X11500Y31435D01*
X12099Y31554D01*
X12607Y31893D01*
X12946Y32401D01*
X13066Y33000D01*
X12946Y33599D01*
X12607Y34107D01*
X12099Y34446D01*
X11500Y34565D01*
D02*
G37*
G36*
X337700Y20865D02*
X337101Y20746D01*
X336593Y20407D01*
X336254Y19899D01*
X336135Y19300D01*
X336254Y18701D01*
X336593Y18193D01*
X337101Y17854D01*
X337700Y17734D01*
X338299Y17854D01*
X338807Y18193D01*
X339146Y18701D01*
X339265Y19300D01*
X339146Y19899D01*
X338807Y20407D01*
X338299Y20746D01*
X337700Y20865D01*
D02*
G37*
G36*
X104000Y14566D02*
X103401Y14446D01*
X103111Y14253D01*
X102750Y14148D01*
X102389Y14253D01*
X102099Y14446D01*
X101500Y14566D01*
X100901Y14446D01*
X100393Y14107D01*
X100054Y13599D01*
X99935Y13000D01*
X100054Y12401D01*
X100393Y11893D01*
X100901Y11554D01*
X101500Y11434D01*
X102099Y11554D01*
X102389Y11747D01*
X102750Y11852D01*
X103111Y11747D01*
X103401Y11554D01*
X104000Y11434D01*
X104599Y11554D01*
X105107Y11893D01*
X105446Y12401D01*
X105566Y13000D01*
X105446Y13599D01*
X105107Y14107D01*
X104599Y14446D01*
X104000Y14566D01*
D02*
G37*
%LPD*%
D16*
X207500Y118500D02*
G03*
X205111Y117510I0J-3379D01*
G01*
X199500Y114000D02*
G03*
X203085Y115485I0J5071D01*
G01*
X195268Y73732D02*
G03*
X191000Y75500I-4268J-4268D01*
G01*
X273500Y275500D02*
G03*
X274561Y272939I3621J0D01*
G01*
X267000Y337379D02*
G03*
X265500Y341000I-5121J0D01*
G01*
X261000Y299000D02*
G03*
X259586Y302414I-4828J0D01*
G01*
X231500Y234000D02*
G03*
X232354Y234353I0J1207D01*
G01*
X113817Y109683D02*
G03*
X117500Y108158I3683J3683D01*
G01*
X268000Y148000D02*
G03*
X268354Y147146I1207J0D01*
G01*
X60000Y181000D02*
X65000Y176000D01*
X203085Y115485D02*
X205111Y117510D01*
X195268Y73732D02*
X197500Y71500D01*
X80000Y150000D02*
X84500Y145500D01*
X270500Y87500D02*
Y89000D01*
X264500Y81500D02*
X270500Y87500D01*
X273500Y275500D02*
Y276000D01*
X274561Y272939D02*
X277000Y270500D01*
X267000Y336500D02*
Y337379D01*
X258000Y304000D02*
Y304500D01*
Y304000D02*
X259586Y302414D01*
X258500Y180000D02*
Y180500D01*
X253000Y186000D02*
X258500Y180500D01*
X232353Y234353D02*
X236500Y238500D01*
X231000Y233500D02*
X231500Y234000D01*
X109500Y114000D02*
X113817Y109683D01*
X268354Y147146D02*
X274000Y141500D01*
D92*
X16300Y24700D02*
D03*
X18800D02*
D03*
X21300D02*
D03*
X482951Y43337D02*
D03*
X485451D02*
D03*
X480451D02*
D03*
X60000Y181000D02*
D03*
X461200Y354350D02*
D03*
X5500Y138200D02*
D03*
Y167000D02*
D03*
X466800Y301700D02*
D03*
X462400Y302200D02*
D03*
Y276900D02*
D03*
X445500Y276600D02*
D03*
X449800Y276000D02*
D03*
X462400Y251100D02*
D03*
X466800Y250800D02*
D03*
X465500Y226400D02*
D03*
X462451Y225951D02*
D03*
X448478Y251622D02*
D03*
X445451Y251451D02*
D03*
X465722Y277422D02*
D03*
X449800Y168300D02*
D03*
X445400Y168900D02*
D03*
X465500Y169200D02*
D03*
X462400Y194200D02*
D03*
X450000Y225200D02*
D03*
X445400Y226000D02*
D03*
X462451Y168818D02*
D03*
X466963Y193728D02*
D03*
X448516Y200816D02*
D03*
X445451Y200551D02*
D03*
Y143749D02*
D03*
X462451Y143600D02*
D03*
X449565Y117135D02*
D03*
X462300Y118000D02*
D03*
X448506Y143906D02*
D03*
X466935Y142835D02*
D03*
X465722Y118522D02*
D03*
X445400Y91900D02*
D03*
X448400Y92800D02*
D03*
X445500Y117500D02*
D03*
X-42200Y242520D02*
D03*
Y248819D02*
D03*
X10500Y152361D02*
D03*
X141200Y121243D02*
D03*
X140900Y232000D02*
D03*
X139500Y307000D02*
D03*
X430100Y105051D02*
D03*
Y131000D02*
D03*
Y156551D02*
D03*
Y181551D02*
D03*
Y213051D02*
D03*
Y238500D02*
D03*
Y264051D02*
D03*
Y289551D02*
D03*
X8301Y376621D02*
D03*
X542200Y291000D02*
D03*
X548800Y273300D02*
D03*
X9752Y123582D02*
D03*
X-42000Y163800D02*
D03*
X108900Y376529D02*
D03*
X140000Y301000D02*
D03*
X-42000Y261500D02*
D03*
X-42100Y233100D02*
D03*
X-42000Y255000D02*
D03*
Y135449D02*
D03*
X-42200Y223622D02*
D03*
X80300Y150100D02*
D03*
X84500Y145300D02*
D03*
X-42100Y214173D02*
D03*
X-42000Y204724D02*
D03*
Y182677D02*
D03*
Y173228D02*
D03*
Y154331D02*
D03*
Y144882D02*
D03*
X324200Y43500D02*
D03*
Y46400D02*
D03*
X327500Y43600D02*
D03*
X331846Y34500D02*
D03*
Y37400D02*
D03*
Y40350D02*
D03*
X327500Y46400D02*
D03*
X270500Y89000D02*
D03*
X502000Y43500D02*
D03*
X507000D02*
D03*
X504500D02*
D03*
Y73500D02*
D03*
X507000D02*
D03*
X502000D02*
D03*
X298500Y250000D02*
D03*
X299000Y104500D02*
D03*
X403000Y300500D02*
D03*
Y275000D02*
D03*
Y249500D02*
D03*
Y224000D02*
D03*
Y192500D02*
D03*
Y167000D02*
D03*
Y141500D02*
D03*
Y116000D02*
D03*
X258000Y304500D02*
D03*
X258500Y180000D02*
D03*
X236500Y238500D02*
D03*
X198500Y347000D02*
D03*
X203000Y281000D02*
D03*
X195320Y152819D02*
D03*
X140500Y238000D02*
D03*
Y188000D02*
D03*
X196320Y83819D02*
D03*
X265600Y341300D02*
D03*
X266900Y336100D02*
D03*
X260800Y298700D02*
D03*
X231000Y233500D02*
D03*
X273500Y276000D02*
D03*
X276900Y270100D02*
D03*
X202425Y338425D02*
D03*
X225000Y326000D02*
D03*
Y344500D02*
D03*
X260000Y349500D02*
D03*
Y332500D02*
D03*
X238000Y329000D02*
D03*
X224000Y316000D02*
D03*
X163000Y307000D02*
D03*
Y288500D02*
D03*
X197500Y312500D02*
D03*
Y294500D02*
D03*
X176000Y291500D02*
D03*
X162000Y278500D02*
D03*
X203500Y273000D02*
D03*
X226500Y279000D02*
D03*
Y260500D02*
D03*
X261000Y285000D02*
D03*
Y266500D02*
D03*
X239500Y263500D02*
D03*
X225500Y250500D02*
D03*
X198500Y243500D02*
D03*
Y226000D02*
D03*
X164000Y238000D02*
D03*
Y219500D02*
D03*
X177000Y222500D02*
D03*
X163000Y209669D02*
D03*
X65000Y175700D02*
D03*
X109500Y114000D02*
D03*
X117400Y107858D02*
D03*
X197500Y71300D02*
D03*
X191000Y75800D02*
D03*
X253000Y186000D02*
D03*
X141000Y182500D02*
D03*
X164000Y188500D02*
D03*
Y170500D02*
D03*
X198500Y194000D02*
D03*
Y176500D02*
D03*
X177000Y173000D02*
D03*
X163000Y160000D02*
D03*
X268000Y148000D02*
D03*
X274000Y141500D02*
D03*
X228500Y158000D02*
D03*
Y139500D02*
D03*
X263000Y163000D02*
D03*
Y146000D02*
D03*
X241600Y142700D02*
D03*
X205800Y151600D02*
D03*
X227400Y55700D02*
D03*
X162700Y92200D02*
D03*
X227500Y129600D02*
D03*
X207500Y118800D02*
D03*
X199500Y114000D02*
D03*
X177000Y105000D02*
D03*
X198500Y126000D02*
D03*
Y108000D02*
D03*
X164000Y120500D02*
D03*
X141000Y114500D02*
D03*
X164000Y102000D02*
D03*
X228500Y84000D02*
D03*
Y65000D02*
D03*
X-18000Y119000D02*
D03*
X205500Y77500D02*
D03*
X264500Y81500D02*
D03*
X262500Y89500D02*
D03*
Y72000D02*
D03*
X241551Y68500D02*
D03*
X338500Y291000D02*
D03*
Y281000D02*
D03*
Y271000D02*
D03*
Y261000D02*
D03*
X293500Y290000D02*
D03*
X293209Y280000D02*
D03*
Y269791D02*
D03*
Y260000D02*
D03*
X338500Y145200D02*
D03*
Y135200D02*
D03*
Y125100D02*
D03*
Y115400D02*
D03*
X293500Y114000D02*
D03*
Y124000D02*
D03*
Y134000D02*
D03*
Y144000D02*
D03*
D93*
X91650Y110200D02*
D03*
X98750Y102600D02*
D03*
X472900Y363000D02*
D03*
X67500Y344000D02*
D03*
Y329000D02*
D03*
X60000Y344000D02*
D03*
X63750Y336500D02*
D03*
X60000Y329000D02*
D03*
X63750Y321500D02*
D03*
Y306500D02*
D03*
X56250Y336500D02*
D03*
Y321500D02*
D03*
Y306500D02*
D03*
X48750Y336500D02*
D03*
Y306500D02*
D03*
X45000Y299000D02*
D03*
X48750Y291500D02*
D03*
X41250Y336500D02*
D03*
X37500Y329000D02*
D03*
X41250Y306500D02*
D03*
X37500Y299000D02*
D03*
X41250Y291500D02*
D03*
X30000Y344000D02*
D03*
X33750Y336500D02*
D03*
X30000Y329000D02*
D03*
X33750Y306500D02*
D03*
X30000Y299000D02*
D03*
X33750Y291500D02*
D03*
X22500Y344000D02*
D03*
X26250Y336500D02*
D03*
X22500Y329000D02*
D03*
X15000Y344000D02*
D03*
Y329000D02*
D03*
X18750Y321500D02*
D03*
X7500Y344000D02*
D03*
X11250Y336500D02*
D03*
X7500Y329000D02*
D03*
Y314000D02*
D03*
X11250Y306500D02*
D03*
X7500Y299000D02*
D03*
X11250Y291500D02*
D03*
X7500Y284000D02*
D03*
X131250Y74000D02*
D03*
X127500Y66500D02*
D03*
Y36500D02*
D03*
X131250Y14000D02*
D03*
X127500Y6500D02*
D03*
X123750Y74000D02*
D03*
Y14000D02*
D03*
X120000Y6500D02*
D03*
X112500Y66500D02*
D03*
Y36500D02*
D03*
Y21500D02*
D03*
Y6500D02*
D03*
X108750Y89000D02*
D03*
X105000Y66500D02*
D03*
Y51500D02*
D03*
Y36500D02*
D03*
Y21500D02*
D03*
Y6500D02*
D03*
X97500Y81500D02*
D03*
X101250Y74000D02*
D03*
X97500Y51500D02*
D03*
X101250Y44000D02*
D03*
X97500Y21500D02*
D03*
Y6500D02*
D03*
X93750Y74000D02*
D03*
X90000Y51500D02*
D03*
X93750Y44000D02*
D03*
X90000Y36500D02*
D03*
Y21500D02*
D03*
X93750Y14000D02*
D03*
X90000Y6500D02*
D03*
X82500Y81500D02*
D03*
X86250Y74000D02*
D03*
Y29000D02*
D03*
X82500Y6500D02*
D03*
X78750Y74000D02*
D03*
Y29000D02*
D03*
X75000Y6500D02*
D03*
X67500Y96500D02*
D03*
Y81500D02*
D03*
X71250Y74000D02*
D03*
X67500Y66500D02*
D03*
X71250Y59000D02*
D03*
X67500Y51500D02*
D03*
Y6500D02*
D03*
X60000Y96500D02*
D03*
Y81500D02*
D03*
X63750Y74000D02*
D03*
Y59000D02*
D03*
X60000Y51500D02*
D03*
X63750Y44000D02*
D03*
Y29000D02*
D03*
X60000Y21500D02*
D03*
Y6500D02*
D03*
X52500Y96500D02*
D03*
X56250Y29000D02*
D03*
X45000Y96500D02*
D03*
X48750Y89000D02*
D03*
X30000Y111500D02*
D03*
X33750Y104000D02*
D03*
Y89000D02*
D03*
X30000Y81500D02*
D03*
X33750Y74000D02*
D03*
X22500Y111500D02*
D03*
X26250Y104000D02*
D03*
X22500Y96500D02*
D03*
X26250Y89000D02*
D03*
X22500Y81500D02*
D03*
X26250Y74000D02*
D03*
X15000Y111500D02*
D03*
X18750Y104000D02*
D03*
X15000Y96500D02*
D03*
X18750Y89000D02*
D03*
X15000Y81500D02*
D03*
X18750Y74000D02*
D03*
X7500Y111500D02*
D03*
X11250Y104000D02*
D03*
X7500Y96500D02*
D03*
X11250Y89000D02*
D03*
X7500Y81500D02*
D03*
X11250Y74000D02*
D03*
X487900Y363000D02*
D03*
X442800Y363040D02*
D03*
D94*
X152484Y232941D02*
D03*
X156815D02*
D03*
X152484Y228610D02*
D03*
X156815D02*
D03*
X152484Y224279D02*
D03*
X156815D02*
D03*
X152484Y115441D02*
D03*
X156815D02*
D03*
X152484Y111110D02*
D03*
X156815D02*
D03*
X152484Y106780D02*
D03*
X156815D02*
D03*
X155815Y293280D02*
D03*
X151484D02*
D03*
X155815Y297610D02*
D03*
X151484D02*
D03*
X155815Y301941D02*
D03*
X151484D02*
D03*
X152484Y183441D02*
D03*
X156815D02*
D03*
X152484Y179110D02*
D03*
X156815D02*
D03*
X152484Y174779D02*
D03*
X156815D02*
D03*
X221315Y70315D02*
D03*
X216984D02*
D03*
X221315Y74646D02*
D03*
X216984D02*
D03*
X221315Y78976D02*
D03*
X216984D02*
D03*
X219315Y265299D02*
D03*
X214984D02*
D03*
X219315Y269630D02*
D03*
X214984D02*
D03*
X219315Y273961D02*
D03*
X214984D02*
D03*
X216984Y152941D02*
D03*
X221315D02*
D03*
X216984Y148610D02*
D03*
X221315D02*
D03*
X216984Y144280D02*
D03*
X221315D02*
D03*
X217815Y330780D02*
D03*
X213484D02*
D03*
X217815Y335110D02*
D03*
X213484D02*
D03*
X217815Y339441D02*
D03*
X213484D02*
D03*
M02*
