M48
;Layer_Color=9474304
;FILE_FORMAT=2:5
INCH,TZ
;TYPE=PLATED
T1F00S00C0.00787
T2F00S00C0.01181
T3F00S00C0.03543
T4F00S00C0.04000
T5F00S00C0.06299
;TYPE=NON_PLATED
T6F00S00C0.12795
T7F00S00C0.13386
%
T01
X60000Y6500
X67500
X60000Y21500
X63750Y29000
X56250
X78750
X86250
X90000Y21500
X97500
X105000
X112500
Y6500
X120000
X127500
X131250Y14000
X123750
X105000Y6500
X97500
X90000
X82500
X75000
X93750Y14000
X500141Y101650
X497400Y105309
X221315Y78976
Y74646
Y70315
X216984
Y74646
Y78976
Y144280
Y148610
Y152941
X221315
Y148610
Y144280
X156815Y115441
X152484
Y111110
Y106780
X156815
Y111110
X131250Y74000
X123750
X127500Y66500
X112500
X105000
X101250Y74000
X93750
X86250
X78750
X82500Y81500
X97500
X108750Y89000
X98750Y102600
X91650Y110200
X90000Y51500
X97500
X105000
X101250Y44000
X93750
X90000Y36500
X105000
X112500
X127500
X152484Y174779
Y179110
Y183441
X156815
Y179110
Y174779
X67500Y96500
X60000
X52500
X45000
X48750Y89000
X33750
X26250
X18750
X11250
X15000Y96500
X22500
X26250Y104000
X33750
X30000Y111500
X22500
X15000
X7500
X11250Y104000
X18750
X7500Y96500
Y81500
X15000
X22500
X30000
X33750Y74000
X26250
X18750
X11250
X63750
X71250
X67500Y81500
X60000
X67500Y66500
X71250Y59000
X63750
X67500Y51500
X60000
X63750Y44000
Y306500
X56250
X48750
X41250
X33750
X37500Y299000
X45000
X48750Y291500
X41250
X33750
X30000Y299000
X7500
X11250Y306500
X7500Y314000
Y329000
X15000
X22500
X30000
X37500
X41250Y336500
X48750
X56250
X63750
X67500Y344000
X60000
Y329000
X67500
X63750Y321500
X56250
X33750Y336500
X26250
X30000Y344000
X22500
X15000
X7500
X11250Y336500
X18750Y321500
X11250Y291500
X7500Y284000
X151484Y293280
Y297610
X155815
Y293280
Y301941
X151484
X152484Y232941
X156815
Y228610
Y224279
X152484
Y228610
X214984Y265299
Y269630
X219315
Y265299
Y273961
X214984
X213484Y330780
Y335110
X217815
Y330780
Y339441
X213484
X442800Y363040
X472900Y363000
X487900
T02
X16300Y24700
X18800
X21300
X26500Y33000
X31500
X11500
X101500Y13000
X104000
X337700Y19300
X389100Y97700
X404000Y112000
X403000Y116000
X404000Y137500
X403000Y141500
X404000Y163000
X403000Y167000
X404000Y189000
X430100Y181551
X425400Y171000
X430100Y156551
X425400Y145100
X430100Y131000
X425500Y120100
X430100Y105051
X425500Y94500
X445400Y91900
X448400Y92800
X449565Y117135
X445500Y117500
X462300Y118000
X465722Y118522
X466935Y142835
X462451Y143600
X448506Y143906
X445451Y143749
X445400Y168900
X449800Y168300
X462451Y168818
X465500Y169200
X511500Y160000
X521542Y163458
X522500Y183000
X507000Y77000
X504500
X502000
Y73500
X504500
X507000
Y47000
X504500
X502000
Y43500
X504500
X507000
X485451Y43337
X482951
X480451
Y46837
X482951
X485451
X337500Y55900
X327500Y46400
Y43600
X324200Y43500
Y46400
X331846Y40350
Y37400
Y34500
X337500Y112200
X338500Y115400
X337500Y122000
X338500Y125100
X337500Y132200
X338500Y135200
X337500Y142000
X338500Y145200
X360300Y149300
X366200Y149100
X362500Y133000
X357300Y134200
X374100Y129500
X384100Y124000
X369100Y103500
X299000Y104500
X294500Y111000
X293500Y114000
X294500Y121000
X293500Y124000
X294500Y131000
X293500Y134000
X294500Y141000
X293500Y144000
X274000Y141500
X268000Y148000
X263000Y146000
Y163000
X258500Y180000
X253000Y186000
X241600Y142700
X235400Y136600
X232000Y133500
Y59500
X235500Y62500
X241551Y68500
X262500Y72000
X264500Y81500
X262500Y89500
X270500Y89000
X228500Y84000
X210000Y83500
X205500Y77500
X198500
X197500Y71300
X191000Y75800
X196320Y83819
X198500Y108000
X199500Y114000
X207500Y118800
X198500Y126000
Y151500
X195320Y152819
X205800Y151600
X209000Y158000
X228500
Y139500
X227500Y129600
X228500Y65000
X227400Y55700
X177000Y105000
X171000Y99000
X167500Y96000
X162700Y92200
X164000Y102000
Y120500
X141200Y121243
X141000Y114500
X133000Y114000
Y125700
X127100Y123200
X117400Y107858
X109500Y114000
X84500Y145300
X80300Y150100
X133000Y182500
X141000
X140500Y188000
X145000Y188500
X164000
Y170500
X167500Y164000
X171000Y167000
X177000Y173000
X198500Y176500
X163000Y160000
X118500Y49500
Y47000
X29000Y48000
X24000
X19000
X14000
X16500Y43000
X21500
X26500
X31500
X29000Y38000
X24000
X26500Y53000
X31500
X21500
X16500
X11500
Y43000
X9752Y123582
X5500Y138200
X20000
X10500Y152361
X5500Y167000
X20000Y166900
X53000Y156200
Y152900
Y149700
Y146400
X47500Y143800
X44000Y141000
X55000Y132400
Y127582
X50700Y124500
Y119000
X40000Y113500
X-9000Y122000
X-18000Y119000
X-28000Y122500
X-42000Y135449
Y144882
Y154331
Y163800
X-35800Y165300
X-42000Y173228
Y182677
X60000Y181000
X60700Y189800
X67100
X65000Y175700
X48751Y203900
X56635Y212100
X31300Y211100
X27600Y225500
X29600Y227700
X22000Y226638
Y229500
X16200Y233000
Y236100
X7300Y239000
X3500Y240581
X10500Y242219
Y245081
X11500Y267300
X14000
X58000Y282800
X59800Y285200
X26800Y314100
Y316900
X-42000Y261500
Y258268
Y255000
X-42200Y248819
X-41824Y245669
X-42200Y242520
X-42100Y233100
X-42200Y223622
X-42100Y214173
X-42000Y204724
X133300Y203881
X139400Y214500
X140172Y219731
X140900Y232000
X140500Y238000
X145500
X147000Y250300
X125300Y250100
X133500Y231500
X164000Y238000
Y219500
X167500Y213500
X171000Y216500
X177000Y222500
X198500Y226000
Y243500
X196000Y272500
X203500Y273000
X203000Y281000
X207500Y278500
X226500Y279000
Y260500
X225500Y250500
X224000Y316000
X228500Y320000
X225000Y326000
Y344500
X206000
X202425Y338425
X195000Y338500
X197500Y312500
Y294500
X176000Y291500
X170000Y285500
X166500Y282500
X162000Y278500
X163000Y288500
Y307000
X143200Y307100
X139500Y307000
X140000Y301000
X133000Y300500
X140900Y316800
X144000Y316600
X163000Y209669
X198500Y194000
X231000Y233500
X236500Y238500
X233500Y257500
X230000Y254500
X239500Y263500
X261000Y266500
Y285000
X260800Y298700
X258000Y304500
X260000Y332500
X266900Y336100
X265600Y341300
X238000Y329000
X232000Y323000
X273500Y276000
X276900Y270100
X293209Y269791
X294500Y267000
X293209Y260000
X294500Y257000
X298500Y250000
X294500Y277000
X293209Y280000
X294500Y287000
X293500Y290000
X338500Y291000
X337500Y287500
X338500Y281000
X337500Y277500
X338500Y271000
X337500Y267500
X338500Y261000
X337500Y257500
X357700Y262700
X362500Y251600
X360100Y247800
X366200Y235100
X374100Y267600
X384100Y261600
X369100Y293000
X389100Y287200
X404000Y297000
X403000Y300500
Y275000
X404000Y271500
X403000Y249500
X404000Y245500
X403000Y224000
X404000Y220500
X425400Y228000
X430100Y238500
X425400Y253700
X430100Y264051
X425400Y279200
X430100Y289551
X445500Y276600
X449800Y276000
X462400Y276900
X465722Y277422
X466800Y301700
X462400Y302200
X458000Y322400
X457900Y345000
X472900
X484700Y342900
X466800Y250800
X462400Y251100
X448478Y251622
X445451Y251451
X445400Y226000
X450000Y225200
X462451Y225951
X465500Y226400
X466963Y193728
X462400Y194200
X448516Y200816
X445451Y200551
X425400Y202100
X430100Y213051
X403000Y192500
X519500Y242000
X523000
X529500Y245000
X548800Y273300
X542200Y291000
X461200Y354350
X260000Y349500
X198500Y347000
X119900Y358227
X110351
X94017Y355202
X80327
X108900Y376529
X62199Y355202
X48970Y362550
X39120
X31000Y359200
X27000
X23000
X32900Y373800
X8301Y376621
T03
X529500Y152000
Y160000
Y168000
Y176000
X536500Y180000
Y172000
Y164000
Y156000
X361500Y165500
Y175500
X351500
Y165500
X374100Y84700
X384100
Y74700
X374100
X361500Y218600
Y228600
X351500
Y218600
X374100Y309800
X384100
Y319800
X374100
X529500Y238000
Y230000
Y222000
Y214000
X536500Y218000
Y226000
Y234000
Y242000
T04
X521256Y39000
X531256
Y49000
Y59000
Y69000
Y79000
Y89000
Y99000
Y109000
X521256
Y99000
Y89000
Y79000
Y69000
Y59000
Y49000
T05
X533000Y134000
Y260000
T06
X546500Y141000
Y253000
T07
X543307Y21654
Y372047
M30
